M48
; DRILL file {KiCad 7.0.1-0} date 2023 July 25, Tuesday 08:38:07
; FORMAT={-:-/ absolute / inch / decimal}
; #@! TF.CreationDate,2023-07-25T08:38:07-04:00
; #@! TF.GenerationSoftware,Kicad,Pcbnew,7.0.1-0
; #@! TF.FileFunction,Plated,1,2,PTH
FMAT,2
INCH
; #@! TA.AperFunction,Plated,PTH,ComponentDrill
T1C0.0079
; #@! TA.AperFunction,Plated,PTH,ViaDrill
T2C0.0157
; #@! TA.AperFunction,Plated,PTH,ComponentDrill
T3C0.0394
; #@! TA.AperFunction,Plated,PTH,ComponentDrill
T4C0.0402
%
G90
G05
T1
X3.431Y-0.9908
X3.431Y-1.0459
X3.4585Y-0.9633
X3.4585Y-1.0174
X3.4585Y-1.0735
X3.4861Y-0.9908
X3.4861Y-1.0459
X3.5136Y-0.9633
X3.5136Y-1.0174
X3.5136Y-1.0735
X3.5412Y-0.9908
X3.5412Y-1.0459
T2
X0.69Y-1.5119
X0.7Y-1.1219
X0.7Y-1.1919
X0.7Y-1.5819
X0.97Y-1.2019
X0.97Y-1.2619
X0.97Y-1.4419
X0.97Y-1.5019
X0.9973Y-2.4253
X1.1303Y-2.7843
X1.23Y-1.1419
X1.25Y-1.2819
X1.25Y-1.4219
X1.25Y-1.5819
X1.2953Y-2.6903
X1.327Y-1.6519
X1.3302Y-2.0748
X1.375Y-1.2589
X1.376Y-1.4229
X1.423Y-1.0539
X1.5203Y-2.3913
X1.584Y-1.3109
X1.586Y-1.4039
X1.7028Y-2.6141
X1.7953Y-2.5366
X1.8163Y-2.2773
X1.8373Y-2.4103
X1.8916Y-1.9307
X1.9083Y-2.5083
X1.914Y-1.3979
X1.9329Y-2.0815
X1.9345Y-1.7787
X1.9843Y-2.3913
X2.024Y-0.8079
X2.176Y-1.1519
X2.202Y-1.3319
X2.411Y-0.9179
X2.57Y-1.3399
X2.7428Y-2.3301
X2.8388Y-1.6157
X2.9656Y-2.0122
X2.9929Y-1.3508
X3.006Y-2.4573
X3.11Y-1.9699
X3.166Y-0.8509
X3.21Y-1.5119
X3.212Y-2.6853
X3.225Y-1.8809
X3.25Y-2.2519
X3.323Y-2.4723
X3.45Y-1.3319
X3.45Y-2.2519
X3.543Y-2.6803
X3.548Y-1.3599
X3.553Y-0.6469
X3.605Y-1.3589
X3.79Y-0.7989
X3.792Y-1.3579
X3.812Y-0.6129
T3
X1.2763Y-2.7945
X1.3763Y-2.7945
X1.4763Y-2.7945
X1.5763Y-2.7945
X1.765Y-2.7995
X1.865Y-2.7995
X1.965Y-2.7995
X2.065Y-2.7995
X2.57Y-0.8619
X2.57Y-0.9619
X2.57Y-1.0619
X2.57Y-1.1619
X2.77Y-0.7169
X2.77Y-0.8169
X2.77Y-0.9169
X2.77Y-1.1269
X2.77Y-1.2269
X2.77Y-1.3269
T4
X1.39Y-1.5379
X1.39Y-2.1379
X1.49Y-1.5379
X1.49Y-2.1379
X1.59Y-1.5379
X1.59Y-2.1379
X1.69Y-1.5379
X1.69Y-2.1379
X1.79Y-1.5379
X1.79Y-2.1379
X1.89Y-1.5379
X1.89Y-2.1379
X1.99Y-1.5379
X1.99Y-2.1379
X2.09Y-1.5379
X2.09Y-2.1379
X2.19Y-1.5379
X2.19Y-2.1379
X2.29Y-1.5379
X2.29Y-2.1379
X2.39Y-1.5379
X2.39Y-2.1379
X2.49Y-1.5379
X2.49Y-2.1379
X2.59Y-1.5379
X2.59Y-2.1379
X2.69Y-1.5379
X2.69Y-2.1379
T0
M30
