%TF.GenerationSoftware,KiCad,Pcbnew,7.0.1-0*%
%TF.CreationDate,2023-07-25T08:38:12-04:00*%
%TF.ProjectId,data_logger,64617461-5f6c-46f6-9767-65722e6b6963,rev?*%
%TF.SameCoordinates,Original*%
%TF.FileFunction,Legend,Top*%
%TF.FilePolarity,Positive*%
%FSLAX46Y46*%
G04 Gerber Fmt 4.6, Leading zero omitted, Abs format (unit mm)*
G04 Created by KiCad (PCBNEW 7.0.1-0) date 2023-07-25 08:38:12*
%MOMM*%
%LPD*%
G01*
G04 APERTURE LIST*
%ADD10C,0.300000*%
%ADD11C,0.240000*%
%ADD12C,0.200000*%
%ADD13C,0.150000*%
%ADD14C,0.120000*%
%ADD15C,0.100000*%
%ADD16C,0.254000*%
%ADD17C,0.250000*%
%ADD18C,0.127000*%
%ADD19C,0.177800*%
%ADD20C,0.141418*%
G04 APERTURE END LIST*
D10*
X33654857Y-56966428D02*
X32797714Y-56966428D01*
X33226285Y-56966428D02*
X33226285Y-55466428D01*
X33226285Y-55466428D02*
X33083428Y-55680714D01*
X33083428Y-55680714D02*
X32940571Y-55823571D01*
X32940571Y-55823571D02*
X32797714Y-55895000D01*
D11*
X50759795Y-68543066D02*
X51521700Y-68543066D01*
X51140747Y-68924019D02*
X51140747Y-68162114D01*
X51902652Y-67924019D02*
X52521699Y-67924019D01*
X52521699Y-67924019D02*
X52188366Y-68304971D01*
X52188366Y-68304971D02*
X52331223Y-68304971D01*
X52331223Y-68304971D02*
X52426461Y-68352590D01*
X52426461Y-68352590D02*
X52474080Y-68400209D01*
X52474080Y-68400209D02*
X52521699Y-68495447D01*
X52521699Y-68495447D02*
X52521699Y-68733542D01*
X52521699Y-68733542D02*
X52474080Y-68828780D01*
X52474080Y-68828780D02*
X52426461Y-68876400D01*
X52426461Y-68876400D02*
X52331223Y-68924019D01*
X52331223Y-68924019D02*
X52045509Y-68924019D01*
X52045509Y-68924019D02*
X51950271Y-68876400D01*
X51950271Y-68876400D02*
X51902652Y-68828780D01*
D12*
X50778095Y-65646666D02*
X51540000Y-65646666D01*
X51159047Y-66027619D02*
X51159047Y-65265714D01*
X52492380Y-65027619D02*
X52016190Y-65027619D01*
X52016190Y-65027619D02*
X51968571Y-65503809D01*
X51968571Y-65503809D02*
X52016190Y-65456190D01*
X52016190Y-65456190D02*
X52111428Y-65408571D01*
X52111428Y-65408571D02*
X52349523Y-65408571D01*
X52349523Y-65408571D02*
X52444761Y-65456190D01*
X52444761Y-65456190D02*
X52492380Y-65503809D01*
X52492380Y-65503809D02*
X52539999Y-65599047D01*
X52539999Y-65599047D02*
X52539999Y-65837142D01*
X52539999Y-65837142D02*
X52492380Y-65932380D01*
X52492380Y-65932380D02*
X52444761Y-65980000D01*
X52444761Y-65980000D02*
X52349523Y-66027619D01*
X52349523Y-66027619D02*
X52111428Y-66027619D01*
X52111428Y-66027619D02*
X52016190Y-65980000D01*
X52016190Y-65980000D02*
X51968571Y-65932380D01*
D13*
X35418095Y-74977619D02*
X35418095Y-75787142D01*
X35418095Y-75787142D02*
X35465714Y-75882380D01*
X35465714Y-75882380D02*
X35513333Y-75930000D01*
X35513333Y-75930000D02*
X35608571Y-75977619D01*
X35608571Y-75977619D02*
X35799047Y-75977619D01*
X35799047Y-75977619D02*
X35894285Y-75930000D01*
X35894285Y-75930000D02*
X35941904Y-75882380D01*
X35941904Y-75882380D02*
X35989523Y-75787142D01*
X35989523Y-75787142D02*
X35989523Y-74977619D01*
X36989523Y-75977619D02*
X36418095Y-75977619D01*
X36703809Y-75977619D02*
X36703809Y-74977619D01*
X36703809Y-74977619D02*
X36608571Y-75120476D01*
X36608571Y-75120476D02*
X36513333Y-75215714D01*
X36513333Y-75215714D02*
X36418095Y-75263333D01*
X38751428Y-75882380D02*
X38703809Y-75930000D01*
X38703809Y-75930000D02*
X38560952Y-75977619D01*
X38560952Y-75977619D02*
X38465714Y-75977619D01*
X38465714Y-75977619D02*
X38322857Y-75930000D01*
X38322857Y-75930000D02*
X38227619Y-75834761D01*
X38227619Y-75834761D02*
X38180000Y-75739523D01*
X38180000Y-75739523D02*
X38132381Y-75549047D01*
X38132381Y-75549047D02*
X38132381Y-75406190D01*
X38132381Y-75406190D02*
X38180000Y-75215714D01*
X38180000Y-75215714D02*
X38227619Y-75120476D01*
X38227619Y-75120476D02*
X38322857Y-75025238D01*
X38322857Y-75025238D02*
X38465714Y-74977619D01*
X38465714Y-74977619D02*
X38560952Y-74977619D01*
X38560952Y-74977619D02*
X38703809Y-75025238D01*
X38703809Y-75025238D02*
X38751428Y-75072857D01*
X39132381Y-75691904D02*
X39608571Y-75691904D01*
X39037143Y-75977619D02*
X39370476Y-74977619D01*
X39370476Y-74977619D02*
X39703809Y-75977619D01*
X40037143Y-75977619D02*
X40037143Y-74977619D01*
X40037143Y-74977619D02*
X40608571Y-75977619D01*
X40608571Y-75977619D02*
X40608571Y-74977619D01*
X41846667Y-75453809D02*
X42608572Y-75453809D01*
X42608572Y-75739523D02*
X41846667Y-75739523D01*
X44370476Y-75977619D02*
X43799048Y-75977619D01*
X44084762Y-75977619D02*
X44084762Y-74977619D01*
X44084762Y-74977619D02*
X43989524Y-75120476D01*
X43989524Y-75120476D02*
X43894286Y-75215714D01*
X43894286Y-75215714D02*
X43799048Y-75263333D01*
X44941905Y-75406190D02*
X44846667Y-75358571D01*
X44846667Y-75358571D02*
X44799048Y-75310952D01*
X44799048Y-75310952D02*
X44751429Y-75215714D01*
X44751429Y-75215714D02*
X44751429Y-75168095D01*
X44751429Y-75168095D02*
X44799048Y-75072857D01*
X44799048Y-75072857D02*
X44846667Y-75025238D01*
X44846667Y-75025238D02*
X44941905Y-74977619D01*
X44941905Y-74977619D02*
X45132381Y-74977619D01*
X45132381Y-74977619D02*
X45227619Y-75025238D01*
X45227619Y-75025238D02*
X45275238Y-75072857D01*
X45275238Y-75072857D02*
X45322857Y-75168095D01*
X45322857Y-75168095D02*
X45322857Y-75215714D01*
X45322857Y-75215714D02*
X45275238Y-75310952D01*
X45275238Y-75310952D02*
X45227619Y-75358571D01*
X45227619Y-75358571D02*
X45132381Y-75406190D01*
X45132381Y-75406190D02*
X44941905Y-75406190D01*
X44941905Y-75406190D02*
X44846667Y-75453809D01*
X44846667Y-75453809D02*
X44799048Y-75501428D01*
X44799048Y-75501428D02*
X44751429Y-75596666D01*
X44751429Y-75596666D02*
X44751429Y-75787142D01*
X44751429Y-75787142D02*
X44799048Y-75882380D01*
X44799048Y-75882380D02*
X44846667Y-75930000D01*
X44846667Y-75930000D02*
X44941905Y-75977619D01*
X44941905Y-75977619D02*
X45132381Y-75977619D01*
X45132381Y-75977619D02*
X45227619Y-75930000D01*
X45227619Y-75930000D02*
X45275238Y-75882380D01*
X45275238Y-75882380D02*
X45322857Y-75787142D01*
X45322857Y-75787142D02*
X45322857Y-75596666D01*
X45322857Y-75596666D02*
X45275238Y-75501428D01*
X45275238Y-75501428D02*
X45227619Y-75453809D01*
X45227619Y-75453809D02*
X45132381Y-75406190D01*
X45941905Y-74977619D02*
X46037143Y-74977619D01*
X46037143Y-74977619D02*
X46132381Y-75025238D01*
X46132381Y-75025238D02*
X46180000Y-75072857D01*
X46180000Y-75072857D02*
X46227619Y-75168095D01*
X46227619Y-75168095D02*
X46275238Y-75358571D01*
X46275238Y-75358571D02*
X46275238Y-75596666D01*
X46275238Y-75596666D02*
X46227619Y-75787142D01*
X46227619Y-75787142D02*
X46180000Y-75882380D01*
X46180000Y-75882380D02*
X46132381Y-75930000D01*
X46132381Y-75930000D02*
X46037143Y-75977619D01*
X46037143Y-75977619D02*
X45941905Y-75977619D01*
X45941905Y-75977619D02*
X45846667Y-75930000D01*
X45846667Y-75930000D02*
X45799048Y-75882380D01*
X45799048Y-75882380D02*
X45751429Y-75787142D01*
X45751429Y-75787142D02*
X45703810Y-75596666D01*
X45703810Y-75596666D02*
X45703810Y-75358571D01*
X45703810Y-75358571D02*
X45751429Y-75168095D01*
X45751429Y-75168095D02*
X45799048Y-75072857D01*
X45799048Y-75072857D02*
X45846667Y-75025238D01*
X45846667Y-75025238D02*
X45941905Y-74977619D01*
X35418095Y-76597619D02*
X35418095Y-77407142D01*
X35418095Y-77407142D02*
X35465714Y-77502380D01*
X35465714Y-77502380D02*
X35513333Y-77550000D01*
X35513333Y-77550000D02*
X35608571Y-77597619D01*
X35608571Y-77597619D02*
X35799047Y-77597619D01*
X35799047Y-77597619D02*
X35894285Y-77550000D01*
X35894285Y-77550000D02*
X35941904Y-77502380D01*
X35941904Y-77502380D02*
X35989523Y-77407142D01*
X35989523Y-77407142D02*
X35989523Y-76597619D01*
X36894285Y-76930952D02*
X36894285Y-77597619D01*
X36656190Y-76550000D02*
X36418095Y-77264285D01*
X36418095Y-77264285D02*
X37037142Y-77264285D01*
X38656190Y-77597619D02*
X38180000Y-77597619D01*
X38180000Y-77597619D02*
X38180000Y-76597619D01*
X38989524Y-77597619D02*
X38989524Y-76597619D01*
X38989524Y-76597619D02*
X39227619Y-76597619D01*
X39227619Y-76597619D02*
X39370476Y-76645238D01*
X39370476Y-76645238D02*
X39465714Y-76740476D01*
X39465714Y-76740476D02*
X39513333Y-76835714D01*
X39513333Y-76835714D02*
X39560952Y-77026190D01*
X39560952Y-77026190D02*
X39560952Y-77169047D01*
X39560952Y-77169047D02*
X39513333Y-77359523D01*
X39513333Y-77359523D02*
X39465714Y-77454761D01*
X39465714Y-77454761D02*
X39370476Y-77550000D01*
X39370476Y-77550000D02*
X39227619Y-77597619D01*
X39227619Y-77597619D02*
X38989524Y-77597619D01*
X40180000Y-76597619D02*
X40370476Y-76597619D01*
X40370476Y-76597619D02*
X40465714Y-76645238D01*
X40465714Y-76645238D02*
X40560952Y-76740476D01*
X40560952Y-76740476D02*
X40608571Y-76930952D01*
X40608571Y-76930952D02*
X40608571Y-77264285D01*
X40608571Y-77264285D02*
X40560952Y-77454761D01*
X40560952Y-77454761D02*
X40465714Y-77550000D01*
X40465714Y-77550000D02*
X40370476Y-77597619D01*
X40370476Y-77597619D02*
X40180000Y-77597619D01*
X40180000Y-77597619D02*
X40084762Y-77550000D01*
X40084762Y-77550000D02*
X39989524Y-77454761D01*
X39989524Y-77454761D02*
X39941905Y-77264285D01*
X39941905Y-77264285D02*
X39941905Y-76930952D01*
X39941905Y-76930952D02*
X39989524Y-76740476D01*
X39989524Y-76740476D02*
X40084762Y-76645238D01*
X40084762Y-76645238D02*
X40180000Y-76597619D01*
X41799048Y-77073809D02*
X42560953Y-77073809D01*
X42560953Y-77359523D02*
X41799048Y-77359523D01*
X44322857Y-77597619D02*
X43751429Y-77597619D01*
X44037143Y-77597619D02*
X44037143Y-76597619D01*
X44037143Y-76597619D02*
X43941905Y-76740476D01*
X43941905Y-76740476D02*
X43846667Y-76835714D01*
X43846667Y-76835714D02*
X43751429Y-76883333D01*
X44894286Y-77026190D02*
X44799048Y-76978571D01*
X44799048Y-76978571D02*
X44751429Y-76930952D01*
X44751429Y-76930952D02*
X44703810Y-76835714D01*
X44703810Y-76835714D02*
X44703810Y-76788095D01*
X44703810Y-76788095D02*
X44751429Y-76692857D01*
X44751429Y-76692857D02*
X44799048Y-76645238D01*
X44799048Y-76645238D02*
X44894286Y-76597619D01*
X44894286Y-76597619D02*
X45084762Y-76597619D01*
X45084762Y-76597619D02*
X45180000Y-76645238D01*
X45180000Y-76645238D02*
X45227619Y-76692857D01*
X45227619Y-76692857D02*
X45275238Y-76788095D01*
X45275238Y-76788095D02*
X45275238Y-76835714D01*
X45275238Y-76835714D02*
X45227619Y-76930952D01*
X45227619Y-76930952D02*
X45180000Y-76978571D01*
X45180000Y-76978571D02*
X45084762Y-77026190D01*
X45084762Y-77026190D02*
X44894286Y-77026190D01*
X44894286Y-77026190D02*
X44799048Y-77073809D01*
X44799048Y-77073809D02*
X44751429Y-77121428D01*
X44751429Y-77121428D02*
X44703810Y-77216666D01*
X44703810Y-77216666D02*
X44703810Y-77407142D01*
X44703810Y-77407142D02*
X44751429Y-77502380D01*
X44751429Y-77502380D02*
X44799048Y-77550000D01*
X44799048Y-77550000D02*
X44894286Y-77597619D01*
X44894286Y-77597619D02*
X45084762Y-77597619D01*
X45084762Y-77597619D02*
X45180000Y-77550000D01*
X45180000Y-77550000D02*
X45227619Y-77502380D01*
X45227619Y-77502380D02*
X45275238Y-77407142D01*
X45275238Y-77407142D02*
X45275238Y-77216666D01*
X45275238Y-77216666D02*
X45227619Y-77121428D01*
X45227619Y-77121428D02*
X45180000Y-77073809D01*
X45180000Y-77073809D02*
X45084762Y-77026190D01*
X45894286Y-76597619D02*
X45989524Y-76597619D01*
X45989524Y-76597619D02*
X46084762Y-76645238D01*
X46084762Y-76645238D02*
X46132381Y-76692857D01*
X46132381Y-76692857D02*
X46180000Y-76788095D01*
X46180000Y-76788095D02*
X46227619Y-76978571D01*
X46227619Y-76978571D02*
X46227619Y-77216666D01*
X46227619Y-77216666D02*
X46180000Y-77407142D01*
X46180000Y-77407142D02*
X46132381Y-77502380D01*
X46132381Y-77502380D02*
X46084762Y-77550000D01*
X46084762Y-77550000D02*
X45989524Y-77597619D01*
X45989524Y-77597619D02*
X45894286Y-77597619D01*
X45894286Y-77597619D02*
X45799048Y-77550000D01*
X45799048Y-77550000D02*
X45751429Y-77502380D01*
X45751429Y-77502380D02*
X45703810Y-77407142D01*
X45703810Y-77407142D02*
X45656191Y-77216666D01*
X45656191Y-77216666D02*
X45656191Y-76978571D01*
X45656191Y-76978571D02*
X45703810Y-76788095D01*
X45703810Y-76788095D02*
X45751429Y-76692857D01*
X45751429Y-76692857D02*
X45799048Y-76645238D01*
X45799048Y-76645238D02*
X45894286Y-76597619D01*
X35418095Y-78217619D02*
X35418095Y-79027142D01*
X35418095Y-79027142D02*
X35465714Y-79122380D01*
X35465714Y-79122380D02*
X35513333Y-79170000D01*
X35513333Y-79170000D02*
X35608571Y-79217619D01*
X35608571Y-79217619D02*
X35799047Y-79217619D01*
X35799047Y-79217619D02*
X35894285Y-79170000D01*
X35894285Y-79170000D02*
X35941904Y-79122380D01*
X35941904Y-79122380D02*
X35989523Y-79027142D01*
X35989523Y-79027142D02*
X35989523Y-78217619D01*
X36370476Y-78217619D02*
X37037142Y-78217619D01*
X37037142Y-78217619D02*
X36608571Y-79217619D01*
X38180000Y-78693809D02*
X38513333Y-78693809D01*
X38656190Y-79217619D02*
X38180000Y-79217619D01*
X38180000Y-79217619D02*
X38180000Y-78217619D01*
X38180000Y-78217619D02*
X38656190Y-78217619D01*
X39037143Y-79170000D02*
X39180000Y-79217619D01*
X39180000Y-79217619D02*
X39418095Y-79217619D01*
X39418095Y-79217619D02*
X39513333Y-79170000D01*
X39513333Y-79170000D02*
X39560952Y-79122380D01*
X39560952Y-79122380D02*
X39608571Y-79027142D01*
X39608571Y-79027142D02*
X39608571Y-78931904D01*
X39608571Y-78931904D02*
X39560952Y-78836666D01*
X39560952Y-78836666D02*
X39513333Y-78789047D01*
X39513333Y-78789047D02*
X39418095Y-78741428D01*
X39418095Y-78741428D02*
X39227619Y-78693809D01*
X39227619Y-78693809D02*
X39132381Y-78646190D01*
X39132381Y-78646190D02*
X39084762Y-78598571D01*
X39084762Y-78598571D02*
X39037143Y-78503333D01*
X39037143Y-78503333D02*
X39037143Y-78408095D01*
X39037143Y-78408095D02*
X39084762Y-78312857D01*
X39084762Y-78312857D02*
X39132381Y-78265238D01*
X39132381Y-78265238D02*
X39227619Y-78217619D01*
X39227619Y-78217619D02*
X39465714Y-78217619D01*
X39465714Y-78217619D02*
X39608571Y-78265238D01*
X40037143Y-79217619D02*
X40037143Y-78217619D01*
X40037143Y-78217619D02*
X40418095Y-78217619D01*
X40418095Y-78217619D02*
X40513333Y-78265238D01*
X40513333Y-78265238D02*
X40560952Y-78312857D01*
X40560952Y-78312857D02*
X40608571Y-78408095D01*
X40608571Y-78408095D02*
X40608571Y-78550952D01*
X40608571Y-78550952D02*
X40560952Y-78646190D01*
X40560952Y-78646190D02*
X40513333Y-78693809D01*
X40513333Y-78693809D02*
X40418095Y-78741428D01*
X40418095Y-78741428D02*
X40037143Y-78741428D01*
X41799048Y-78693809D02*
X42560953Y-78693809D01*
X42560953Y-78979523D02*
X41799048Y-78979523D01*
X44322857Y-79217619D02*
X43751429Y-79217619D01*
X44037143Y-79217619D02*
X44037143Y-78217619D01*
X44037143Y-78217619D02*
X43941905Y-78360476D01*
X43941905Y-78360476D02*
X43846667Y-78455714D01*
X43846667Y-78455714D02*
X43751429Y-78503333D01*
X44894286Y-78646190D02*
X44799048Y-78598571D01*
X44799048Y-78598571D02*
X44751429Y-78550952D01*
X44751429Y-78550952D02*
X44703810Y-78455714D01*
X44703810Y-78455714D02*
X44703810Y-78408095D01*
X44703810Y-78408095D02*
X44751429Y-78312857D01*
X44751429Y-78312857D02*
X44799048Y-78265238D01*
X44799048Y-78265238D02*
X44894286Y-78217619D01*
X44894286Y-78217619D02*
X45084762Y-78217619D01*
X45084762Y-78217619D02*
X45180000Y-78265238D01*
X45180000Y-78265238D02*
X45227619Y-78312857D01*
X45227619Y-78312857D02*
X45275238Y-78408095D01*
X45275238Y-78408095D02*
X45275238Y-78455714D01*
X45275238Y-78455714D02*
X45227619Y-78550952D01*
X45227619Y-78550952D02*
X45180000Y-78598571D01*
X45180000Y-78598571D02*
X45084762Y-78646190D01*
X45084762Y-78646190D02*
X44894286Y-78646190D01*
X44894286Y-78646190D02*
X44799048Y-78693809D01*
X44799048Y-78693809D02*
X44751429Y-78741428D01*
X44751429Y-78741428D02*
X44703810Y-78836666D01*
X44703810Y-78836666D02*
X44703810Y-79027142D01*
X44703810Y-79027142D02*
X44751429Y-79122380D01*
X44751429Y-79122380D02*
X44799048Y-79170000D01*
X44799048Y-79170000D02*
X44894286Y-79217619D01*
X44894286Y-79217619D02*
X45084762Y-79217619D01*
X45084762Y-79217619D02*
X45180000Y-79170000D01*
X45180000Y-79170000D02*
X45227619Y-79122380D01*
X45227619Y-79122380D02*
X45275238Y-79027142D01*
X45275238Y-79027142D02*
X45275238Y-78836666D01*
X45275238Y-78836666D02*
X45227619Y-78741428D01*
X45227619Y-78741428D02*
X45180000Y-78693809D01*
X45180000Y-78693809D02*
X45084762Y-78646190D01*
X45894286Y-78217619D02*
X45989524Y-78217619D01*
X45989524Y-78217619D02*
X46084762Y-78265238D01*
X46084762Y-78265238D02*
X46132381Y-78312857D01*
X46132381Y-78312857D02*
X46180000Y-78408095D01*
X46180000Y-78408095D02*
X46227619Y-78598571D01*
X46227619Y-78598571D02*
X46227619Y-78836666D01*
X46227619Y-78836666D02*
X46180000Y-79027142D01*
X46180000Y-79027142D02*
X46132381Y-79122380D01*
X46132381Y-79122380D02*
X46084762Y-79170000D01*
X46084762Y-79170000D02*
X45989524Y-79217619D01*
X45989524Y-79217619D02*
X45894286Y-79217619D01*
X45894286Y-79217619D02*
X45799048Y-79170000D01*
X45799048Y-79170000D02*
X45751429Y-79122380D01*
X45751429Y-79122380D02*
X45703810Y-79027142D01*
X45703810Y-79027142D02*
X45656191Y-78836666D01*
X45656191Y-78836666D02*
X45656191Y-78598571D01*
X45656191Y-78598571D02*
X45703810Y-78408095D01*
X45703810Y-78408095D02*
X45751429Y-78312857D01*
X45751429Y-78312857D02*
X45799048Y-78265238D01*
X45799048Y-78265238D02*
X45894286Y-78217619D01*
X46703810Y-79170000D02*
X46703810Y-79217619D01*
X46703810Y-79217619D02*
X46656191Y-79312857D01*
X46656191Y-79312857D02*
X46608572Y-79360476D01*
X47799048Y-79217619D02*
X48322857Y-78550952D01*
X47799048Y-78550952D02*
X48322857Y-79217619D01*
X49465715Y-78693809D02*
X50227620Y-78693809D01*
X50227620Y-78979523D02*
X49465715Y-78979523D01*
X51608572Y-78646190D02*
X51513334Y-78598571D01*
X51513334Y-78598571D02*
X51465715Y-78550952D01*
X51465715Y-78550952D02*
X51418096Y-78455714D01*
X51418096Y-78455714D02*
X51418096Y-78408095D01*
X51418096Y-78408095D02*
X51465715Y-78312857D01*
X51465715Y-78312857D02*
X51513334Y-78265238D01*
X51513334Y-78265238D02*
X51608572Y-78217619D01*
X51608572Y-78217619D02*
X51799048Y-78217619D01*
X51799048Y-78217619D02*
X51894286Y-78265238D01*
X51894286Y-78265238D02*
X51941905Y-78312857D01*
X51941905Y-78312857D02*
X51989524Y-78408095D01*
X51989524Y-78408095D02*
X51989524Y-78455714D01*
X51989524Y-78455714D02*
X51941905Y-78550952D01*
X51941905Y-78550952D02*
X51894286Y-78598571D01*
X51894286Y-78598571D02*
X51799048Y-78646190D01*
X51799048Y-78646190D02*
X51608572Y-78646190D01*
X51608572Y-78646190D02*
X51513334Y-78693809D01*
X51513334Y-78693809D02*
X51465715Y-78741428D01*
X51465715Y-78741428D02*
X51418096Y-78836666D01*
X51418096Y-78836666D02*
X51418096Y-79027142D01*
X51418096Y-79027142D02*
X51465715Y-79122380D01*
X51465715Y-79122380D02*
X51513334Y-79170000D01*
X51513334Y-79170000D02*
X51608572Y-79217619D01*
X51608572Y-79217619D02*
X51799048Y-79217619D01*
X51799048Y-79217619D02*
X51894286Y-79170000D01*
X51894286Y-79170000D02*
X51941905Y-79122380D01*
X51941905Y-79122380D02*
X51989524Y-79027142D01*
X51989524Y-79027142D02*
X51989524Y-78836666D01*
X51989524Y-78836666D02*
X51941905Y-78741428D01*
X51941905Y-78741428D02*
X51894286Y-78693809D01*
X51894286Y-78693809D02*
X51799048Y-78646190D01*
X52322858Y-78217619D02*
X52989524Y-78217619D01*
X52989524Y-78217619D02*
X52560953Y-79217619D01*
X53370477Y-79122380D02*
X53418096Y-79170000D01*
X53418096Y-79170000D02*
X53370477Y-79217619D01*
X53370477Y-79217619D02*
X53322858Y-79170000D01*
X53322858Y-79170000D02*
X53370477Y-79122380D01*
X53370477Y-79122380D02*
X53370477Y-79217619D01*
X54370476Y-79217619D02*
X53799048Y-79217619D01*
X54084762Y-79217619D02*
X54084762Y-78217619D01*
X54084762Y-78217619D02*
X53989524Y-78360476D01*
X53989524Y-78360476D02*
X53894286Y-78455714D01*
X53894286Y-78455714D02*
X53799048Y-78503333D01*
X54941905Y-78646190D02*
X54846667Y-78598571D01*
X54846667Y-78598571D02*
X54799048Y-78550952D01*
X54799048Y-78550952D02*
X54751429Y-78455714D01*
X54751429Y-78455714D02*
X54751429Y-78408095D01*
X54751429Y-78408095D02*
X54799048Y-78312857D01*
X54799048Y-78312857D02*
X54846667Y-78265238D01*
X54846667Y-78265238D02*
X54941905Y-78217619D01*
X54941905Y-78217619D02*
X55132381Y-78217619D01*
X55132381Y-78217619D02*
X55227619Y-78265238D01*
X55227619Y-78265238D02*
X55275238Y-78312857D01*
X55275238Y-78312857D02*
X55322857Y-78408095D01*
X55322857Y-78408095D02*
X55322857Y-78455714D01*
X55322857Y-78455714D02*
X55275238Y-78550952D01*
X55275238Y-78550952D02*
X55227619Y-78598571D01*
X55227619Y-78598571D02*
X55132381Y-78646190D01*
X55132381Y-78646190D02*
X54941905Y-78646190D01*
X54941905Y-78646190D02*
X54846667Y-78693809D01*
X54846667Y-78693809D02*
X54799048Y-78741428D01*
X54799048Y-78741428D02*
X54751429Y-78836666D01*
X54751429Y-78836666D02*
X54751429Y-79027142D01*
X54751429Y-79027142D02*
X54799048Y-79122380D01*
X54799048Y-79122380D02*
X54846667Y-79170000D01*
X54846667Y-79170000D02*
X54941905Y-79217619D01*
X54941905Y-79217619D02*
X55132381Y-79217619D01*
X55132381Y-79217619D02*
X55227619Y-79170000D01*
X55227619Y-79170000D02*
X55275238Y-79122380D01*
X55275238Y-79122380D02*
X55322857Y-79027142D01*
X55322857Y-79027142D02*
X55322857Y-78836666D01*
X55322857Y-78836666D02*
X55275238Y-78741428D01*
X55275238Y-78741428D02*
X55227619Y-78693809D01*
X55227619Y-78693809D02*
X55132381Y-78646190D01*
D12*
X26426190Y-18435238D02*
X26426190Y-16435238D01*
X26426190Y-16435238D02*
X26902380Y-16435238D01*
X26902380Y-16435238D02*
X27188095Y-16530476D01*
X27188095Y-16530476D02*
X27378571Y-16720952D01*
X27378571Y-16720952D02*
X27473809Y-16911428D01*
X27473809Y-16911428D02*
X27569047Y-17292380D01*
X27569047Y-17292380D02*
X27569047Y-17578095D01*
X27569047Y-17578095D02*
X27473809Y-17959047D01*
X27473809Y-17959047D02*
X27378571Y-18149523D01*
X27378571Y-18149523D02*
X27188095Y-18340000D01*
X27188095Y-18340000D02*
X26902380Y-18435238D01*
X26902380Y-18435238D02*
X26426190Y-18435238D01*
X29283333Y-18435238D02*
X29283333Y-17387619D01*
X29283333Y-17387619D02*
X29188095Y-17197142D01*
X29188095Y-17197142D02*
X28997619Y-17101904D01*
X28997619Y-17101904D02*
X28616666Y-17101904D01*
X28616666Y-17101904D02*
X28426190Y-17197142D01*
X29283333Y-18340000D02*
X29092857Y-18435238D01*
X29092857Y-18435238D02*
X28616666Y-18435238D01*
X28616666Y-18435238D02*
X28426190Y-18340000D01*
X28426190Y-18340000D02*
X28330952Y-18149523D01*
X28330952Y-18149523D02*
X28330952Y-17959047D01*
X28330952Y-17959047D02*
X28426190Y-17768571D01*
X28426190Y-17768571D02*
X28616666Y-17673333D01*
X28616666Y-17673333D02*
X29092857Y-17673333D01*
X29092857Y-17673333D02*
X29283333Y-17578095D01*
X29950000Y-17101904D02*
X30711904Y-17101904D01*
X30235714Y-16435238D02*
X30235714Y-18149523D01*
X30235714Y-18149523D02*
X30330952Y-18340000D01*
X30330952Y-18340000D02*
X30521428Y-18435238D01*
X30521428Y-18435238D02*
X30711904Y-18435238D01*
X32235714Y-18435238D02*
X32235714Y-17387619D01*
X32235714Y-17387619D02*
X32140476Y-17197142D01*
X32140476Y-17197142D02*
X31950000Y-17101904D01*
X31950000Y-17101904D02*
X31569047Y-17101904D01*
X31569047Y-17101904D02*
X31378571Y-17197142D01*
X32235714Y-18340000D02*
X32045238Y-18435238D01*
X32045238Y-18435238D02*
X31569047Y-18435238D01*
X31569047Y-18435238D02*
X31378571Y-18340000D01*
X31378571Y-18340000D02*
X31283333Y-18149523D01*
X31283333Y-18149523D02*
X31283333Y-17959047D01*
X31283333Y-17959047D02*
X31378571Y-17768571D01*
X31378571Y-17768571D02*
X31569047Y-17673333D01*
X31569047Y-17673333D02*
X32045238Y-17673333D01*
X32045238Y-17673333D02*
X32235714Y-17578095D01*
X34997619Y-18435238D02*
X34807143Y-18340000D01*
X34807143Y-18340000D02*
X34711905Y-18149523D01*
X34711905Y-18149523D02*
X34711905Y-16435238D01*
X36045238Y-18435238D02*
X35854762Y-18340000D01*
X35854762Y-18340000D02*
X35759524Y-18244761D01*
X35759524Y-18244761D02*
X35664286Y-18054285D01*
X35664286Y-18054285D02*
X35664286Y-17482857D01*
X35664286Y-17482857D02*
X35759524Y-17292380D01*
X35759524Y-17292380D02*
X35854762Y-17197142D01*
X35854762Y-17197142D02*
X36045238Y-17101904D01*
X36045238Y-17101904D02*
X36330953Y-17101904D01*
X36330953Y-17101904D02*
X36521429Y-17197142D01*
X36521429Y-17197142D02*
X36616667Y-17292380D01*
X36616667Y-17292380D02*
X36711905Y-17482857D01*
X36711905Y-17482857D02*
X36711905Y-18054285D01*
X36711905Y-18054285D02*
X36616667Y-18244761D01*
X36616667Y-18244761D02*
X36521429Y-18340000D01*
X36521429Y-18340000D02*
X36330953Y-18435238D01*
X36330953Y-18435238D02*
X36045238Y-18435238D01*
X38426191Y-17101904D02*
X38426191Y-18720952D01*
X38426191Y-18720952D02*
X38330953Y-18911428D01*
X38330953Y-18911428D02*
X38235715Y-19006666D01*
X38235715Y-19006666D02*
X38045238Y-19101904D01*
X38045238Y-19101904D02*
X37759524Y-19101904D01*
X37759524Y-19101904D02*
X37569048Y-19006666D01*
X38426191Y-18340000D02*
X38235715Y-18435238D01*
X38235715Y-18435238D02*
X37854762Y-18435238D01*
X37854762Y-18435238D02*
X37664286Y-18340000D01*
X37664286Y-18340000D02*
X37569048Y-18244761D01*
X37569048Y-18244761D02*
X37473810Y-18054285D01*
X37473810Y-18054285D02*
X37473810Y-17482857D01*
X37473810Y-17482857D02*
X37569048Y-17292380D01*
X37569048Y-17292380D02*
X37664286Y-17197142D01*
X37664286Y-17197142D02*
X37854762Y-17101904D01*
X37854762Y-17101904D02*
X38235715Y-17101904D01*
X38235715Y-17101904D02*
X38426191Y-17197142D01*
X40235715Y-17101904D02*
X40235715Y-18720952D01*
X40235715Y-18720952D02*
X40140477Y-18911428D01*
X40140477Y-18911428D02*
X40045239Y-19006666D01*
X40045239Y-19006666D02*
X39854762Y-19101904D01*
X39854762Y-19101904D02*
X39569048Y-19101904D01*
X39569048Y-19101904D02*
X39378572Y-19006666D01*
X40235715Y-18340000D02*
X40045239Y-18435238D01*
X40045239Y-18435238D02*
X39664286Y-18435238D01*
X39664286Y-18435238D02*
X39473810Y-18340000D01*
X39473810Y-18340000D02*
X39378572Y-18244761D01*
X39378572Y-18244761D02*
X39283334Y-18054285D01*
X39283334Y-18054285D02*
X39283334Y-17482857D01*
X39283334Y-17482857D02*
X39378572Y-17292380D01*
X39378572Y-17292380D02*
X39473810Y-17197142D01*
X39473810Y-17197142D02*
X39664286Y-17101904D01*
X39664286Y-17101904D02*
X40045239Y-17101904D01*
X40045239Y-17101904D02*
X40235715Y-17197142D01*
X41950001Y-18340000D02*
X41759525Y-18435238D01*
X41759525Y-18435238D02*
X41378572Y-18435238D01*
X41378572Y-18435238D02*
X41188096Y-18340000D01*
X41188096Y-18340000D02*
X41092858Y-18149523D01*
X41092858Y-18149523D02*
X41092858Y-17387619D01*
X41092858Y-17387619D02*
X41188096Y-17197142D01*
X41188096Y-17197142D02*
X41378572Y-17101904D01*
X41378572Y-17101904D02*
X41759525Y-17101904D01*
X41759525Y-17101904D02*
X41950001Y-17197142D01*
X41950001Y-17197142D02*
X42045239Y-17387619D01*
X42045239Y-17387619D02*
X42045239Y-17578095D01*
X42045239Y-17578095D02*
X41092858Y-17768571D01*
X42902382Y-18435238D02*
X42902382Y-17101904D01*
X42902382Y-17482857D02*
X42997620Y-17292380D01*
X42997620Y-17292380D02*
X43092858Y-17197142D01*
X43092858Y-17197142D02*
X43283334Y-17101904D01*
X43283334Y-17101904D02*
X43473811Y-17101904D01*
X45378573Y-16435238D02*
X46045239Y-18435238D01*
X46045239Y-18435238D02*
X46711906Y-16435238D01*
X48426192Y-18435238D02*
X47283335Y-18435238D01*
X47854763Y-18435238D02*
X47854763Y-16435238D01*
X47854763Y-16435238D02*
X47664287Y-16720952D01*
X47664287Y-16720952D02*
X47473811Y-16911428D01*
X47473811Y-16911428D02*
X47283335Y-17006666D01*
X49283335Y-18244761D02*
X49378573Y-18340000D01*
X49378573Y-18340000D02*
X49283335Y-18435238D01*
X49283335Y-18435238D02*
X49188097Y-18340000D01*
X49188097Y-18340000D02*
X49283335Y-18244761D01*
X49283335Y-18244761D02*
X49283335Y-18435238D01*
X50616668Y-16435238D02*
X50807145Y-16435238D01*
X50807145Y-16435238D02*
X50997621Y-16530476D01*
X50997621Y-16530476D02*
X51092859Y-16625714D01*
X51092859Y-16625714D02*
X51188097Y-16816190D01*
X51188097Y-16816190D02*
X51283335Y-17197142D01*
X51283335Y-17197142D02*
X51283335Y-17673333D01*
X51283335Y-17673333D02*
X51188097Y-18054285D01*
X51188097Y-18054285D02*
X51092859Y-18244761D01*
X51092859Y-18244761D02*
X50997621Y-18340000D01*
X50997621Y-18340000D02*
X50807145Y-18435238D01*
X50807145Y-18435238D02*
X50616668Y-18435238D01*
X50616668Y-18435238D02*
X50426192Y-18340000D01*
X50426192Y-18340000D02*
X50330954Y-18244761D01*
X50330954Y-18244761D02*
X50235716Y-18054285D01*
X50235716Y-18054285D02*
X50140478Y-17673333D01*
X50140478Y-17673333D02*
X50140478Y-17197142D01*
X50140478Y-17197142D02*
X50235716Y-16816190D01*
X50235716Y-16816190D02*
X50330954Y-16625714D01*
X50330954Y-16625714D02*
X50426192Y-16530476D01*
X50426192Y-16530476D02*
X50616668Y-16435238D01*
D14*
%TO.C,J3*%
X69028600Y-27294400D02*
X70358600Y-27294400D01*
X69028600Y-28624400D02*
X69028600Y-27294400D01*
X69028600Y-29894400D02*
X69028600Y-35034400D01*
X69028600Y-29894400D02*
X71688600Y-29894400D01*
X69028600Y-35034400D02*
X71688600Y-35034400D01*
X71688600Y-29894400D02*
X71688600Y-35034400D01*
%TO.C,R3*%
X52259300Y-24975458D02*
X52259300Y-24500942D01*
X53304300Y-24975458D02*
X53304300Y-24500942D01*
%TO.C,S2*%
X74998200Y-65572200D02*
X75648200Y-65572200D01*
X77148200Y-65572200D02*
X79648200Y-65572200D01*
X81798200Y-65572200D02*
X81148200Y-65572200D01*
X74998200Y-59072200D02*
X74998200Y-65572200D01*
X75648200Y-59072200D02*
X74998200Y-59072200D01*
X77148200Y-59072200D02*
X79648200Y-59072200D01*
X81148200Y-59072200D02*
X81798200Y-59072200D01*
X81798200Y-59072200D02*
X81798200Y-65572200D01*
%TO.C,L1*%
X36641200Y-34944278D02*
X36641200Y-35743522D01*
X35521200Y-34944278D02*
X35521200Y-35743522D01*
D15*
%TO.C,ANT1*%
X24082600Y-30857400D02*
X17182600Y-30857400D01*
X24082600Y-37857400D02*
X24082600Y-30857400D01*
X17182600Y-37857400D02*
X24082600Y-37857400D01*
D14*
%TO.C,R10*%
X86269900Y-68994658D02*
X86269900Y-68520142D01*
X87314900Y-68994658D02*
X87314900Y-68520142D01*
%TO.C,C4*%
X27405600Y-69130148D02*
X27405600Y-69652652D01*
X25935600Y-69130148D02*
X25935600Y-69652652D01*
%TO.C,R7*%
X36489500Y-23129342D02*
X36489500Y-23603858D01*
X35444500Y-23129342D02*
X35444500Y-23603858D01*
D16*
%TO.C,J6*%
X80049000Y-54245000D02*
X83899000Y-54245000D01*
X85561000Y-54245000D02*
X90299000Y-54245000D01*
X91561000Y-54245000D02*
X93449000Y-54245000D01*
X80049000Y-53741000D02*
X80049000Y-54245000D01*
X96051000Y-53379000D02*
X96051000Y-41141000D01*
X96051000Y-52388000D02*
X95092000Y-52388000D01*
X80049000Y-43641000D02*
X80049000Y-43829000D01*
X80049000Y-40148000D02*
X80049000Y-42179000D01*
X94330000Y-40148000D02*
X80049000Y-40148000D01*
X96051394Y-42117079D02*
G75*
G03*
X95091001Y-52389000I22204620J-7256921D01*
G01*
X79668000Y-43831000D02*
G75*
G03*
X79668000Y-43831000I-127000J0D01*
G01*
D14*
%TO.C,D3*%
X62406800Y-33235300D02*
X60936800Y-33235300D01*
X60936800Y-33235300D02*
X60936800Y-35520300D01*
X62406800Y-35520300D02*
X62406800Y-33235300D01*
%TO.C,R11*%
X77430700Y-68982458D02*
X77430700Y-68507942D01*
X78475700Y-68982458D02*
X78475700Y-68507942D01*
%TO.C,C7*%
X95541820Y-16201800D02*
X95822980Y-16201800D01*
X95541820Y-17221800D02*
X95822980Y-17221800D01*
D12*
%TO.C,U5*%
X48420800Y-59254800D02*
X48420800Y-59954800D01*
X48145800Y-59254800D02*
X48420800Y-59254800D01*
X45245800Y-59254800D02*
X44970800Y-59254800D01*
X44970800Y-59254800D02*
X44970800Y-59954800D01*
X48420800Y-62004800D02*
X48420800Y-62704800D01*
X44970800Y-62004800D02*
X44970800Y-62704800D01*
X48420800Y-62704800D02*
X48145800Y-62704800D01*
X44970800Y-62704800D02*
X45245800Y-62704800D01*
D17*
X48270340Y-58929815D02*
G75*
G03*
X48267800Y-58929800I-532J125015D01*
G01*
D14*
%TO.C,C9*%
X50022200Y-62287020D02*
X50022200Y-62568180D01*
X49002200Y-62287020D02*
X49002200Y-62568180D01*
%TO.C,U1*%
X40693600Y-61200400D02*
X40693600Y-57750400D01*
X40693600Y-61200400D02*
X40693600Y-63150400D01*
X35573600Y-61200400D02*
X35573600Y-59250400D01*
X35573600Y-61200400D02*
X35573600Y-63150400D01*
%TO.C,C13*%
X80749200Y-68617620D02*
X80749200Y-68898780D01*
X79729200Y-68617620D02*
X79729200Y-68898780D01*
D16*
%TO.C,LS1*%
X72263600Y-72752400D02*
X57277600Y-72752400D01*
X72263600Y-72240400D02*
X72263600Y-72752400D01*
X72263600Y-62240400D02*
X72263600Y-68278400D01*
X72263600Y-57766400D02*
X72263600Y-58278400D01*
X70358600Y-60179400D02*
X69342600Y-60179400D01*
X69850600Y-60687400D02*
X69850600Y-59671400D01*
X57277600Y-72752400D02*
X57277600Y-72240400D01*
X57277600Y-68278400D02*
X57277600Y-62240400D01*
X57277600Y-58278400D02*
X57277600Y-57766400D01*
X57277600Y-57766400D02*
X72263600Y-57766400D01*
X68362600Y-65259400D02*
G75*
G03*
X68362600Y-65259400I-3592000J0D01*
G01*
D14*
%TO.C,U7*%
X103876600Y-18246800D02*
X97461600Y-18246800D01*
X103876600Y-18246800D02*
X103876600Y-36486800D01*
X97461600Y-18246800D02*
X97461600Y-17866800D01*
X78916600Y-18246800D02*
X78136600Y-18246800D01*
X78136600Y-18246800D02*
X78136600Y-19246800D01*
X103876600Y-36486800D02*
X97461600Y-36486800D01*
X78916600Y-36486800D02*
X78136600Y-36486800D01*
X78136600Y-36486800D02*
X78136600Y-35486800D01*
%TO.C,BT1*%
X62978600Y-27909400D02*
G75*
G03*
X62978600Y-27909400I-3530000J0D01*
G01*
%TO.C,C10*%
X22941600Y-64335400D02*
X24811600Y-64335400D01*
X24811600Y-64335400D02*
X24811600Y-60425400D01*
X22941600Y-60425400D02*
X22941600Y-64335400D01*
%TO.C,D1*%
X60171600Y-33184500D02*
X58701600Y-33184500D01*
X58701600Y-33184500D02*
X58701600Y-35469500D01*
X60171600Y-35469500D02*
X60171600Y-33184500D01*
%TO.C,D2*%
X56118600Y-17629400D02*
X54118600Y-17629400D01*
X56118600Y-17629400D02*
X56118600Y-21639400D01*
X54118600Y-17629400D02*
X54118600Y-21639400D01*
%TO.C,S1*%
X82980400Y-65648400D02*
X83630400Y-65648400D01*
X85130400Y-65648400D02*
X87630400Y-65648400D01*
X89780400Y-65648400D02*
X89130400Y-65648400D01*
X82980400Y-59148400D02*
X82980400Y-65648400D01*
X83630400Y-59148400D02*
X82980400Y-59148400D01*
X85130400Y-59148400D02*
X87630400Y-59148400D01*
X89130400Y-59148400D02*
X89780400Y-59148400D01*
X89780400Y-59148400D02*
X89780400Y-65648400D01*
%TO.C,R13*%
X73116300Y-53367542D02*
X73116300Y-53842058D01*
X72071300Y-53367542D02*
X72071300Y-53842058D01*
%TO.C,C6*%
X49410020Y-59046800D02*
X49691180Y-59046800D01*
X49410020Y-60066800D02*
X49691180Y-60066800D01*
%TO.C,U4*%
X25880600Y-60537400D02*
X31890600Y-60537400D01*
X28130600Y-67357400D02*
X31890600Y-67357400D01*
X31890600Y-60537400D02*
X31890600Y-61797400D01*
X31890600Y-67357400D02*
X31890600Y-66097400D01*
%TO.C,JP1*%
X50528300Y-64885800D02*
X50528300Y-68985800D01*
X48528300Y-64885800D02*
X50528300Y-64885800D01*
X48028300Y-65335800D02*
X48028300Y-65935800D01*
X48328300Y-65635800D02*
X48028300Y-65335800D01*
X48328300Y-65635800D02*
X48028300Y-65935800D01*
X50528300Y-68985800D02*
X48528300Y-68985800D01*
X48528300Y-68985800D02*
X48528300Y-64885800D01*
%TO.C,R2*%
X41058142Y-65346500D02*
X41532658Y-65346500D01*
X41058142Y-66391500D02*
X41532658Y-66391500D01*
%TO.C,J1*%
X53781600Y-69776400D02*
X53781600Y-71106400D01*
X52451600Y-69776400D02*
X53781600Y-69776400D01*
X51181600Y-69776400D02*
X43501600Y-69776400D01*
X51181600Y-69776400D02*
X51181600Y-72436400D01*
X43501600Y-69776400D02*
X43501600Y-72436400D01*
X51181600Y-72436400D02*
X43501600Y-72436400D01*
%TO.C,J5*%
X63948600Y-20563400D02*
X65278600Y-20563400D01*
X63948600Y-21893400D02*
X63948600Y-20563400D01*
X63948600Y-23163400D02*
X63948600Y-30843400D01*
X63948600Y-23163400D02*
X66608600Y-23163400D01*
X63948600Y-30843400D02*
X66608600Y-30843400D01*
X66608600Y-23163400D02*
X66608600Y-30843400D01*
%TO.C,R6*%
X35558700Y-32018658D02*
X35558700Y-31544142D01*
X36603700Y-32018658D02*
X36603700Y-31544142D01*
%TO.C,C12*%
X89080400Y-68616820D02*
X89080400Y-68897980D01*
X88060400Y-68616820D02*
X88060400Y-68897980D01*
%TO.C,R8*%
X43839942Y-57091500D02*
X44314458Y-57091500D01*
X43839942Y-58136500D02*
X44314458Y-58136500D01*
D18*
%TO.C,U6*%
X33336600Y-55573800D02*
X33336600Y-37793800D01*
X69596600Y-55573800D02*
X33336600Y-55573800D01*
X33336600Y-37793800D02*
X69596600Y-37793800D01*
X69596600Y-37793800D02*
X69596600Y-55573800D01*
D14*
%TO.C,C1*%
X53948200Y-27469580D02*
X53948200Y-27188420D01*
X54968200Y-27469580D02*
X54968200Y-27188420D01*
%TO.C,R4*%
X64327900Y-34496342D02*
X64327900Y-34970858D01*
X63282900Y-34496342D02*
X63282900Y-34970858D01*
%TO.C,C2*%
X36591200Y-28388820D02*
X36591200Y-28669980D01*
X35571200Y-28388820D02*
X35571200Y-28669980D01*
%TO.C,R1*%
X57927100Y-34356142D02*
X57927100Y-34830658D01*
X56882100Y-34356142D02*
X56882100Y-34830658D01*
%TO.C,R9*%
X48314458Y-57730100D02*
X47839942Y-57730100D01*
X48314458Y-56685100D02*
X47839942Y-56685100D01*
%TO.C,R12*%
X74380458Y-35039700D02*
X73905942Y-35039700D01*
X74380458Y-33994700D02*
X73905942Y-33994700D01*
%TO.C,C3*%
X53088600Y-21231820D02*
X53088600Y-21512980D01*
X52068600Y-21231820D02*
X52068600Y-21512980D01*
%TO.C,C8*%
X92068348Y-15748200D02*
X92590852Y-15748200D01*
X92068348Y-17218200D02*
X92590852Y-17218200D01*
%TO.C,R5*%
X35737342Y-67789900D02*
X36211858Y-67789900D01*
X35737342Y-68834900D02*
X36211858Y-68834900D01*
%TO.C,JP2*%
X46525000Y-64814200D02*
X46525000Y-68914200D01*
X44525000Y-64814200D02*
X46525000Y-64814200D01*
X44025000Y-65264200D02*
X44025000Y-65864200D01*
X44325000Y-65564200D02*
X44025000Y-65264200D01*
X44325000Y-65564200D02*
X44025000Y-65864200D01*
X46525000Y-68914200D02*
X44525000Y-68914200D01*
X44525000Y-68914200D02*
X44525000Y-64814200D01*
%TO.C,J2*%
X31088600Y-72309400D02*
X31088600Y-70979400D01*
X32418600Y-72309400D02*
X31088600Y-72309400D01*
X33688600Y-72309400D02*
X41368600Y-72309400D01*
X33688600Y-72309400D02*
X33688600Y-69649400D01*
X41368600Y-72309400D02*
X41368600Y-69649400D01*
X33688600Y-69649400D02*
X41368600Y-69649400D01*
D19*
%TO.C,U3*%
X50806200Y-36689400D02*
X49336200Y-36689400D01*
X50806200Y-34839400D02*
X50806200Y-36689400D01*
X50806200Y-20189400D02*
X50806200Y-22039400D01*
X49336200Y-20189400D02*
X50806200Y-20189400D01*
X39576200Y-36689400D02*
X38106200Y-36689400D01*
X38106200Y-36689400D02*
X38106200Y-34839400D01*
X38106200Y-22039400D02*
X38106200Y-20189400D01*
X38106200Y-20189400D02*
X39576200Y-20189400D01*
D20*
X37826909Y-20439400D02*
G75*
G03*
X37826909Y-20439400I-70709J0D01*
G01*
D14*
%TO.C,D5*%
X72785200Y-35560200D02*
X72785200Y-37030200D01*
X72785200Y-37030200D02*
X75070200Y-37030200D01*
X75070200Y-35560200D02*
X72785200Y-35560200D01*
%TO.C,J4*%
X69028600Y-16880400D02*
X70358600Y-16880400D01*
X69028600Y-18210400D02*
X69028600Y-16880400D01*
X69028600Y-19480400D02*
X69028600Y-24620400D01*
X69028600Y-19480400D02*
X71688600Y-19480400D01*
X69028600Y-24620400D02*
X71688600Y-24620400D01*
X71688600Y-19480400D02*
X71688600Y-24620400D01*
%TD*%
M02*
