%TF.GenerationSoftware,KiCad,Pcbnew,7.0.2-0*%
%TF.CreationDate,2023-08-11T14:32:49-04:00*%
%TF.ProjectId,data_logger,64617461-5f6c-46f6-9767-65722e6b6963,rev?*%
%TF.SameCoordinates,Original*%
%TF.FileFunction,Copper,L2,Bot*%
%TF.FilePolarity,Positive*%
%FSLAX46Y46*%
G04 Gerber Fmt 4.6, Leading zero omitted, Abs format (unit mm)*
G04 Created by KiCad (PCBNEW 7.0.2-0) date 2023-08-11 14:32:49*
%MOMM*%
%LPD*%
G01*
G04 APERTURE LIST*
%TA.AperFunction,ComponentPad*%
%ADD10R,1.700000X1.700000*%
%TD*%
%TA.AperFunction,ComponentPad*%
%ADD11O,1.700000X1.700000*%
%TD*%
%TA.AperFunction,HeatsinkPad*%
%ADD12C,0.600000*%
%TD*%
%TA.AperFunction,ComponentPad*%
%ADD13C,1.530000*%
%TD*%
%TA.AperFunction,ViaPad*%
%ADD14C,0.800000*%
%TD*%
%TA.AperFunction,Conductor*%
%ADD15C,0.250000*%
%TD*%
%TA.AperFunction,Conductor*%
%ADD16C,0.800000*%
%TD*%
%TA.AperFunction,Conductor*%
%ADD17C,0.500000*%
%TD*%
G04 APERTURE END LIST*
D10*
%TO.P,J3,1,Pin_1*%
%TO.N,ESP_RX_OUT*%
X70358600Y-28624400D03*
D11*
%TO.P,J3,2,Pin_2*%
%TO.N,U0RXD*%
X70358600Y-31164400D03*
%TO.P,J3,3,Pin_3*%
%TO.N,ESP_RX*%
X70358600Y-33704400D03*
%TD*%
D10*
%TO.P,J5,1,Pin_1*%
%TO.N,GND*%
X65300000Y-19390000D03*
D11*
%TO.P,J5,2,Pin_2*%
%TO.N,ESP_TX_OUT*%
X65300000Y-21930000D03*
%TO.P,J5,3,Pin_3*%
%TO.N,ESP_RX_OUT*%
X65300000Y-24470000D03*
%TO.P,J5,4,Pin_4*%
%TO.N,+3.3V*%
X65300000Y-27010000D03*
%TO.P,J5,5,Pin_5*%
%TO.N,+5V*%
X65300000Y-29550000D03*
%TD*%
D12*
%TO.P,U7,39,GND*%
%TO.N,GND*%
X89246600Y-24466800D03*
X87846600Y-24466800D03*
X89946600Y-25166800D03*
X88546600Y-25166800D03*
X87146600Y-25166800D03*
X89246600Y-25841800D03*
X87846600Y-25841800D03*
X89946600Y-26566800D03*
X88546600Y-26566800D03*
X87146600Y-26566800D03*
X89246600Y-27266800D03*
X87846600Y-27266800D03*
%TD*%
D10*
%TO.P,J6,1,Pin_1*%
%TO.N,GND*%
X29800000Y-25650000D03*
D11*
%TO.P,J6,2,Pin_2*%
%TO.N,+3.3V*%
X29800000Y-23110000D03*
%TO.P,J6,3,Pin_3*%
%TO.N,SDA*%
X29800000Y-20570000D03*
%TO.P,J6,4,Pin_4*%
%TO.N,SCL*%
X29800000Y-18030000D03*
%TD*%
D10*
%TO.P,J1,1,Pin_1*%
%TO.N,Net-(J1-Pin_1)*%
X52451600Y-71106400D03*
D11*
%TO.P,J1,2,Pin_2*%
%TO.N,RX2*%
X49911600Y-71106400D03*
%TO.P,J1,3,Pin_3*%
%TO.N,TX2*%
X47371600Y-71106400D03*
%TO.P,J1,4,Pin_4*%
%TO.N,GND*%
X44831600Y-71106400D03*
%TD*%
D13*
%TO.P,U6,0,0*%
%TO.N,CAN_RX*%
X37846600Y-54303800D03*
%TO.P,U6,1,1*%
%TO.N,CAN_TX*%
X40386600Y-54303800D03*
%TO.P,U6,2,2*%
%TO.N,unconnected-(U6-Pad2)*%
X42926600Y-54303800D03*
%TO.P,U6,3,3*%
%TO.N,unconnected-(U6-Pad3)*%
X45466600Y-54303800D03*
%TO.P,U6,3.3V_2,3.3V_2*%
%TO.N,+3.3V*%
X40386600Y-39063800D03*
%TO.P,U6,4,4*%
%TO.N,unconnected-(U6-Pad4)*%
X48006600Y-54303800D03*
%TO.P,U6,5,5*%
%TO.N,ESP_IO*%
X50546600Y-54303800D03*
%TO.P,U6,6,6*%
%TO.N,SD_DET*%
X53086600Y-54303800D03*
%TO.P,U6,7,7*%
%TO.N,RX2*%
X55626600Y-54303800D03*
%TO.P,U6,8,8*%
%TO.N,TX2*%
X58166600Y-54303800D03*
%TO.P,U6,9,9*%
%TO.N,SPK*%
X60706600Y-54303800D03*
%TO.P,U6,10,10*%
%TO.N,CS*%
X63246600Y-54303800D03*
%TO.P,U6,11,11*%
%TO.N,MOSI*%
X65786600Y-54303800D03*
%TO.P,U6,12,12*%
%TO.N,MISO*%
X68326600Y-54303800D03*
%TO.P,U6,13,13*%
%TO.N,CLK*%
X68326600Y-39063800D03*
%TO.P,U6,14,14*%
%TO.N,ESP_RX*%
X65786600Y-39063800D03*
%TO.P,U6,15,15*%
%TO.N,ESP_TX*%
X63246600Y-39063800D03*
%TO.P,U6,16,16*%
%TO.N,LED2*%
X60706600Y-39063800D03*
%TO.P,U6,17,17*%
%TO.N,unconnected-(U6-Pad17)*%
X58166600Y-39063800D03*
%TO.P,U6,18,18*%
%TO.N,SDA*%
X55626600Y-39063800D03*
%TO.P,U6,19,19*%
%TO.N,SCL*%
X53086600Y-39063800D03*
%TO.P,U6,20,20*%
%TO.N,PPS*%
X50546600Y-39063800D03*
%TO.P,U6,21,21*%
%TO.N,unconnected-(U6-Pad21)*%
X48006600Y-39063800D03*
%TO.P,U6,22,22*%
%TO.N,unconnected-(U6-Pad22)*%
X45466600Y-39063800D03*
%TO.P,U6,23,23*%
%TO.N,LED1*%
X42926600Y-39063800D03*
%TO.P,U6,G1,G1*%
%TO.N,GND*%
X35306600Y-54303800D03*
%TO.P,U6,G3,G3*%
X37846600Y-39063800D03*
%TO.P,U6,VIN,VIN*%
%TO.N,+5V*%
X35306600Y-39063800D03*
%TD*%
D10*
%TO.P,J2,1,Pin_1*%
%TO.N,GND*%
X32418600Y-70979400D03*
D11*
%TO.P,J2,2,Pin_2*%
%TO.N,CAN_LO*%
X34958600Y-70979400D03*
%TO.P,J2,3,Pin_3*%
%TO.N,CAN_HI*%
X37498600Y-70979400D03*
%TO.P,J2,4,Pin_4*%
%TO.N,Net-(J2-Pin_4)*%
X40038600Y-70979400D03*
%TD*%
D10*
%TO.P,J4,1,Pin_1*%
%TO.N,ESP_TX_OUT*%
X70358600Y-18210400D03*
D11*
%TO.P,J4,2,Pin_2*%
%TO.N,U0TXD*%
X70358600Y-20750400D03*
%TO.P,J4,3,Pin_3*%
%TO.N,ESP_TX*%
X70358600Y-23290400D03*
%TD*%
D14*
%TO.N,GND*%
X51500000Y-62600000D03*
X65278600Y-34034600D03*
X96266600Y-20293200D03*
X49650000Y-62900000D03*
X17780600Y-40181400D03*
X31750600Y-40181400D03*
X79000000Y-50100000D03*
X93950000Y-39000000D03*
X24638600Y-38149400D03*
X36144800Y-26770200D03*
X81585400Y-68205800D03*
X51850000Y-36450000D03*
X51410200Y-20521800D03*
X24638600Y-30529400D03*
X84404800Y-62795600D03*
X21925000Y-61800000D03*
X96825400Y-15568800D03*
X69667800Y-59185600D03*
X24638600Y-36625400D03*
X94500000Y-52450000D03*
X40234200Y-33298000D03*
X38616200Y-60738200D03*
X61240000Y-23315800D03*
X40285000Y-35660200D03*
X24638600Y-32053400D03*
X28710200Y-70720400D03*
X96317400Y-34491800D03*
X79150000Y-42850000D03*
X17500000Y-38750000D03*
X90246800Y-16432400D03*
X43251200Y-66397400D03*
X75000000Y-33600000D03*
X47350000Y-60550000D03*
X31750600Y-36117400D03*
X85100000Y-52650000D03*
X80417000Y-21614000D03*
X25332000Y-61601800D03*
X31242600Y-29005400D03*
X76353000Y-62414600D03*
X89992800Y-68078800D03*
X46134600Y-57842600D03*
X55271000Y-29259400D03*
X17780600Y-30000000D03*
X17780600Y-28497400D03*
X31750600Y-32561400D03*
X24292000Y-24581800D03*
%TO.N,Net-(C2-Pad2)*%
X34951000Y-36142800D03*
X34925600Y-31977200D03*
%TO.N,+5V*%
X48100000Y-30250000D03*
X32901200Y-68332800D03*
X33706600Y-41959400D03*
X45600000Y-64430000D03*
X33786600Y-52699400D03*
%TO.N,+3.3V*%
X45500000Y-29300000D03*
X45500000Y-26300000D03*
X79400000Y-47850000D03*
X79325000Y-53225000D03*
%TO.N,ESP_EN*%
X87630600Y-33831400D03*
X83700000Y-56050000D03*
%TO.N,IO0*%
X79425000Y-37675000D03*
X82550600Y-57199400D03*
%TO.N,LED1*%
X34425000Y-29500000D03*
%TO.N,RX2*%
X53850000Y-60600000D03*
%TO.N,TX2*%
X55650000Y-59950000D03*
%TO.N,U0RXD*%
X73850000Y-27700000D03*
X90119800Y-34542600D03*
%TO.N,U0TXD*%
X91567600Y-34517200D03*
X73900000Y-25350000D03*
%TO.N,SDA*%
X48046600Y-49040100D03*
%TO.N,SCL*%
X54650000Y-36700000D03*
X49096600Y-52869400D03*
X49136600Y-45179400D03*
%TO.N,CLK*%
X81915600Y-47776000D03*
%TD*%
D15*
%TO.N,Net-(C2-Pad2)*%
X34925600Y-36117400D02*
X34951000Y-36142800D01*
X34925600Y-31977200D02*
X34925600Y-36117400D01*
D16*
%TO.N,+5V*%
X45600000Y-65462814D02*
X45600000Y-64430000D01*
D17*
X52000000Y-26350000D02*
X62100000Y-26350000D01*
D16*
X43460000Y-67397400D02*
X43665414Y-67397400D01*
X32901200Y-68332800D02*
X33836600Y-67397400D01*
X33836600Y-67397400D02*
X43460000Y-67397400D01*
X43665414Y-67397400D02*
X45600000Y-65462814D01*
X33757200Y-52538800D02*
X33757200Y-42010000D01*
D17*
X62100000Y-26350000D02*
X65300000Y-29550000D01*
X48100000Y-30250000D02*
X52000000Y-26350000D01*
D15*
%TO.N,+3.3V*%
X45500000Y-26300000D02*
X45500000Y-29300000D01*
X79975000Y-52575000D02*
X79325000Y-53225000D01*
X79400000Y-47850000D02*
X79975000Y-48425000D01*
X79975000Y-48425000D02*
X79975000Y-52575000D01*
%TO.N,ESP_EN*%
X83100000Y-40240600D02*
X83100000Y-38362000D01*
X83700000Y-56050000D02*
X83090600Y-55440600D01*
X83100000Y-38362000D02*
X87630600Y-33831400D01*
X83090600Y-55440600D02*
X83090600Y-40250000D01*
X83090600Y-40250000D02*
X83100000Y-40240600D01*
%TO.N,IO0*%
X82640600Y-57199800D02*
X82640600Y-41925000D01*
X79425000Y-38709400D02*
X79425000Y-37675000D01*
X82641000Y-57199400D02*
X82640600Y-57199800D01*
X82550600Y-57199400D02*
X82641000Y-57199400D01*
X82640600Y-41925000D02*
X79425000Y-38709400D01*
%TO.N,LED1*%
X34425000Y-29500000D02*
X39150000Y-29500000D01*
X39150000Y-29500000D02*
X42926600Y-33276600D01*
X42926600Y-33276600D02*
X42926600Y-39063800D01*
%TO.N,RX2*%
X47821600Y-62614796D02*
X49518198Y-60918198D01*
X53850000Y-60600000D02*
X49836396Y-60600000D01*
X49836396Y-60600000D02*
X49518198Y-60918198D01*
X49911600Y-71106400D02*
X47821600Y-69016400D01*
X47821600Y-69016400D02*
X47821600Y-62614796D01*
%TO.N,TX2*%
X55525000Y-59825000D02*
X49925000Y-59825000D01*
X49925000Y-59825000D02*
X49500000Y-60250000D01*
X47371600Y-62428400D02*
X47371600Y-71106400D01*
X49500000Y-60250000D02*
X48100000Y-61650000D01*
X55650000Y-59950000D02*
X55525000Y-59825000D01*
X48100000Y-61700000D02*
X47371600Y-62428400D01*
X48100000Y-61650000D02*
X48100000Y-61700000D01*
%TO.N,U0RXD*%
X82601400Y-27024200D02*
X74498800Y-27024200D01*
X74498800Y-27024200D02*
X73850000Y-27673000D01*
X90119800Y-34542600D02*
X82601400Y-27024200D01*
X73850000Y-27700000D02*
X73823000Y-27700000D01*
X73850000Y-27673000D02*
X73850000Y-27700000D01*
%TO.N,U0TXD*%
X91567600Y-34517200D02*
X90221400Y-33171000D01*
X89408600Y-33171000D02*
X82753800Y-26516200D01*
X90221400Y-33171000D02*
X89408600Y-33171000D01*
X73900000Y-25350000D02*
X73900000Y-25358600D01*
X82753800Y-26516200D02*
X75057600Y-26516200D01*
X73900000Y-25358600D02*
X75057600Y-26516200D01*
%TO.N,ESP_TX*%
X63246600Y-39063800D02*
X67236600Y-35073800D01*
X69369600Y-24279400D02*
X70358600Y-23290400D01*
X67236600Y-35073800D02*
X67236600Y-25629400D01*
X67236600Y-25629400D02*
X68586600Y-24279400D01*
X68586600Y-24279400D02*
X69369600Y-24279400D01*
%TO.N,SDA*%
X48064800Y-49021900D02*
X48046600Y-49040100D01*
X48064800Y-44441200D02*
X50546600Y-41959400D01*
X48064800Y-44441200D02*
X48064800Y-49021900D01*
X52731000Y-41959400D02*
X55626600Y-39063800D01*
X48046600Y-49040100D02*
X48046600Y-48778700D01*
X50546600Y-41959400D02*
X52731000Y-41959400D01*
%TO.N,SCL*%
X49096600Y-52869400D02*
X49096600Y-45219400D01*
X53086600Y-39063800D02*
X54650000Y-37500400D01*
X54650000Y-37500400D02*
X54650000Y-36700000D01*
%TO.N,CLK*%
X81991800Y-47699800D02*
X81915600Y-47776000D01*
X78842200Y-39063800D02*
X81991800Y-42213400D01*
X68326600Y-39063800D02*
X78842200Y-39063800D01*
X81991800Y-42213400D02*
X81991800Y-47699800D01*
%TD*%
%TA.AperFunction,Conductor*%
%TO.N,GND*%
G36*
X97872016Y-14831873D02*
G01*
X97939051Y-14851567D01*
X97984799Y-14904377D01*
X97995997Y-14955873D01*
X97995997Y-72772901D01*
X97976312Y-72839940D01*
X97923508Y-72885695D01*
X97871997Y-72896901D01*
X17067995Y-72896901D01*
X17000956Y-72877216D01*
X16955201Y-72824412D01*
X16943995Y-72772901D01*
X16943995Y-70979400D01*
X33602940Y-70979400D01*
X33623536Y-71214807D01*
X33657566Y-71341807D01*
X33684697Y-71443063D01*
X33784565Y-71657230D01*
X33920105Y-71850801D01*
X34087199Y-72017895D01*
X34280770Y-72153435D01*
X34494937Y-72253303D01*
X34721259Y-72313945D01*
X34723192Y-72314463D01*
X34958599Y-72335059D01*
X34958599Y-72335058D01*
X34958600Y-72335059D01*
X35194008Y-72314463D01*
X35422263Y-72253303D01*
X35636430Y-72153435D01*
X35830001Y-72017895D01*
X35997095Y-71850801D01*
X36127026Y-71665239D01*
X36181602Y-71621616D01*
X36251100Y-71614422D01*
X36313455Y-71645945D01*
X36330171Y-71665237D01*
X36460105Y-71850801D01*
X36627199Y-72017895D01*
X36820770Y-72153435D01*
X37034937Y-72253303D01*
X37263192Y-72314463D01*
X37498600Y-72335059D01*
X37734008Y-72314463D01*
X37962263Y-72253303D01*
X38176430Y-72153435D01*
X38370001Y-72017895D01*
X38537095Y-71850801D01*
X38667026Y-71665239D01*
X38721602Y-71621617D01*
X38791101Y-71614424D01*
X38853455Y-71645946D01*
X38870171Y-71665237D01*
X39000105Y-71850801D01*
X39167199Y-72017895D01*
X39360770Y-72153435D01*
X39574937Y-72253303D01*
X39803192Y-72314463D01*
X40038600Y-72335059D01*
X40274008Y-72314463D01*
X40502263Y-72253303D01*
X40716430Y-72153435D01*
X40910001Y-72017895D01*
X41077095Y-71850801D01*
X41212635Y-71657230D01*
X41312503Y-71443063D01*
X41373663Y-71214808D01*
X41394259Y-70979400D01*
X41373663Y-70743992D01*
X41312503Y-70515737D01*
X41212635Y-70301571D01*
X41077095Y-70107999D01*
X40910001Y-69940905D01*
X40716430Y-69805365D01*
X40502263Y-69705497D01*
X40441102Y-69689109D01*
X40274007Y-69644336D01*
X40038600Y-69623740D01*
X39803192Y-69644336D01*
X39574936Y-69705497D01*
X39360770Y-69805365D01*
X39167198Y-69940905D01*
X39000108Y-70107995D01*
X39000107Y-70107997D01*
X39000105Y-70107999D01*
X38971454Y-70148917D01*
X38870174Y-70293560D01*
X38815597Y-70337185D01*
X38746098Y-70344377D01*
X38683744Y-70312855D01*
X38667029Y-70293564D01*
X38537095Y-70107999D01*
X38370001Y-69940905D01*
X38176430Y-69805365D01*
X37962263Y-69705497D01*
X37901102Y-69689109D01*
X37734007Y-69644336D01*
X37498600Y-69623740D01*
X37263192Y-69644336D01*
X37034936Y-69705497D01*
X36820770Y-69805365D01*
X36627198Y-69940905D01*
X36460108Y-70107995D01*
X36460107Y-70107997D01*
X36460105Y-70107999D01*
X36431454Y-70148917D01*
X36330174Y-70293560D01*
X36275597Y-70337185D01*
X36206098Y-70344377D01*
X36143744Y-70312855D01*
X36127029Y-70293564D01*
X35997095Y-70107999D01*
X35830001Y-69940905D01*
X35636430Y-69805365D01*
X35422263Y-69705497D01*
X35361101Y-69689109D01*
X35194007Y-69644336D01*
X34958599Y-69623740D01*
X34723192Y-69644336D01*
X34494936Y-69705497D01*
X34280770Y-69805365D01*
X34087198Y-69940905D01*
X33920105Y-70107998D01*
X33784565Y-70301570D01*
X33684697Y-70515736D01*
X33623536Y-70743992D01*
X33602940Y-70979400D01*
X16943995Y-70979400D01*
X16943995Y-68951164D01*
X19145787Y-68951164D01*
X19175413Y-69220416D01*
X19179754Y-69237019D01*
X19243928Y-69482488D01*
X19338697Y-69705497D01*
X19349871Y-69731792D01*
X19490982Y-69963011D01*
X19645694Y-70148917D01*
X19664255Y-70171220D01*
X19865998Y-70351982D01*
X20091910Y-70501444D01*
X20198211Y-70551276D01*
X20337177Y-70616421D01*
X20596562Y-70694458D01*
X20596569Y-70694460D01*
X20864561Y-70733900D01*
X20864564Y-70733900D01*
X21065369Y-70733900D01*
X21067631Y-70733900D01*
X21270156Y-70719077D01*
X21534553Y-70660180D01*
X21787558Y-70563414D01*
X22023777Y-70430841D01*
X22238177Y-70265288D01*
X22426186Y-70070281D01*
X22583799Y-69849979D01*
X22707656Y-69609075D01*
X22795118Y-69352705D01*
X22844319Y-69086333D01*
X22854212Y-68815635D01*
X22824586Y-68546382D01*
X22768748Y-68332800D01*
X31995740Y-68332800D01*
X31997205Y-68346744D01*
X31997714Y-68366190D01*
X31996980Y-68380186D01*
X32007588Y-68447167D01*
X32008434Y-68453598D01*
X32015525Y-68521055D01*
X32019860Y-68534398D01*
X32024399Y-68553306D01*
X32026592Y-68567149D01*
X32050890Y-68630449D01*
X32053056Y-68636565D01*
X32074019Y-68701080D01*
X32074020Y-68701082D01*
X32074021Y-68701084D01*
X32081031Y-68713225D01*
X32089405Y-68730783D01*
X32094429Y-68743871D01*
X32131363Y-68800747D01*
X32134753Y-68806279D01*
X32168665Y-68865016D01*
X32178049Y-68875437D01*
X32189896Y-68890877D01*
X32197524Y-68902624D01*
X32245474Y-68950573D01*
X32249943Y-68955282D01*
X32295329Y-69005688D01*
X32306670Y-69013928D01*
X32321460Y-69026559D01*
X32331375Y-69036474D01*
X32331377Y-69036475D01*
X32331378Y-69036476D01*
X32388254Y-69073412D01*
X32393604Y-69077089D01*
X32448466Y-69116949D01*
X32448469Y-69116950D01*
X32448470Y-69116951D01*
X32461277Y-69122652D01*
X32478370Y-69131934D01*
X32490130Y-69139571D01*
X32503060Y-69144534D01*
X32553443Y-69163874D01*
X32559434Y-69166355D01*
X32621397Y-69193944D01*
X32635120Y-69196860D01*
X32653764Y-69202383D01*
X32666850Y-69207407D01*
X32733853Y-69218018D01*
X32740188Y-69219193D01*
X32806554Y-69233300D01*
X32820574Y-69233300D01*
X32839971Y-69234826D01*
X32853812Y-69237019D01*
X32921536Y-69233470D01*
X32928026Y-69233300D01*
X32995843Y-69233300D01*
X32995846Y-69233300D01*
X33009560Y-69230384D01*
X33028845Y-69227846D01*
X33042846Y-69227113D01*
X33108392Y-69209549D01*
X33114642Y-69208049D01*
X33181003Y-69193944D01*
X33193800Y-69188245D01*
X33212146Y-69181748D01*
X33225688Y-69178120D01*
X33286163Y-69147305D01*
X33291952Y-69144544D01*
X33353930Y-69116951D01*
X33365265Y-69108714D01*
X33381852Y-69098549D01*
X33394349Y-69092183D01*
X33447090Y-69049472D01*
X33452178Y-69045568D01*
X33507071Y-69005688D01*
X33552473Y-68955262D01*
X33556906Y-68950591D01*
X34173279Y-68334219D01*
X34234603Y-68300734D01*
X34260961Y-68297900D01*
X43412808Y-68297900D01*
X43584788Y-68297900D01*
X43604185Y-68299426D01*
X43618026Y-68301619D01*
X43685750Y-68298070D01*
X43692240Y-68297900D01*
X43709366Y-68297900D01*
X43712606Y-68297900D01*
X43715827Y-68297561D01*
X43715835Y-68297561D01*
X43732861Y-68295771D01*
X43739320Y-68295262D01*
X43807060Y-68291713D01*
X43820607Y-68288082D01*
X43839723Y-68284539D01*
X43853670Y-68283074D01*
X43918200Y-68262106D01*
X43924365Y-68260280D01*
X43989902Y-68242720D01*
X44002388Y-68236356D01*
X44020367Y-68228909D01*
X44033698Y-68224579D01*
X44092465Y-68190648D01*
X44098091Y-68187593D01*
X44158563Y-68156783D01*
X44169456Y-68147960D01*
X44185488Y-68136942D01*
X44197630Y-68129933D01*
X44248052Y-68084531D01*
X44252954Y-68080345D01*
X44268794Y-68067519D01*
X44283193Y-68053118D01*
X44287885Y-68048665D01*
X44338302Y-68003271D01*
X44346543Y-67991926D01*
X44359174Y-67977137D01*
X46179742Y-66156570D01*
X46194527Y-66143943D01*
X46205871Y-66135702D01*
X46251256Y-66085295D01*
X46255712Y-66080601D01*
X46270120Y-66066194D01*
X46282964Y-66050331D01*
X46287152Y-66045429D01*
X46332533Y-65995030D01*
X46339544Y-65982885D01*
X46350564Y-65966853D01*
X46359383Y-65955963D01*
X46390185Y-65895507D01*
X46393248Y-65889865D01*
X46427179Y-65831098D01*
X46431509Y-65817767D01*
X46438956Y-65799788D01*
X46445320Y-65787302D01*
X46462875Y-65721784D01*
X46464707Y-65715596D01*
X46485674Y-65651070D01*
X46487140Y-65637119D01*
X46490683Y-65618004D01*
X46494313Y-65604459D01*
X46497862Y-65536720D01*
X46498372Y-65530248D01*
X46498781Y-65526362D01*
X46525375Y-65461751D01*
X46582678Y-65421774D01*
X46652497Y-65419124D01*
X46712666Y-65454642D01*
X46744080Y-65517052D01*
X46746100Y-65539341D01*
X46746100Y-69831173D01*
X46726415Y-69898212D01*
X46693224Y-69932748D01*
X46500195Y-70067908D01*
X46333105Y-70234998D01*
X46197565Y-70428570D01*
X46097697Y-70642736D01*
X46036536Y-70870992D01*
X46015940Y-71106400D01*
X46036536Y-71341807D01*
X46063668Y-71443063D01*
X46097697Y-71570063D01*
X46197565Y-71784230D01*
X46333105Y-71977801D01*
X46500199Y-72144895D01*
X46693770Y-72280435D01*
X46907937Y-72380303D01*
X47136191Y-72441463D01*
X47136192Y-72441463D01*
X47371599Y-72462059D01*
X47371599Y-72462058D01*
X47371600Y-72462059D01*
X47607008Y-72441463D01*
X47835263Y-72380303D01*
X48049430Y-72280435D01*
X48243001Y-72144895D01*
X48410095Y-71977801D01*
X48540026Y-71792239D01*
X48594602Y-71748616D01*
X48664100Y-71741422D01*
X48726455Y-71772945D01*
X48743171Y-71792237D01*
X48873105Y-71977801D01*
X49040199Y-72144895D01*
X49233770Y-72280435D01*
X49447937Y-72380303D01*
X49676192Y-72441463D01*
X49911600Y-72462059D01*
X50147008Y-72441463D01*
X50375263Y-72380303D01*
X50589430Y-72280435D01*
X50783001Y-72144895D01*
X50904929Y-72022966D01*
X50966248Y-71989484D01*
X51035940Y-71994468D01*
X51091874Y-72036339D01*
X51108789Y-72067316D01*
X51157804Y-72198731D01*
X51244054Y-72313946D01*
X51359269Y-72400196D01*
X51494117Y-72450491D01*
X51553727Y-72456900D01*
X53349472Y-72456899D01*
X53409083Y-72450491D01*
X53543931Y-72400196D01*
X53659146Y-72313946D01*
X53745396Y-72198731D01*
X53795691Y-72063883D01*
X53802100Y-72004273D01*
X53802099Y-70208528D01*
X53795691Y-70148917D01*
X53745396Y-70014069D01*
X53659146Y-69898854D01*
X53543931Y-69812604D01*
X53409083Y-69762309D01*
X53349473Y-69755900D01*
X53346150Y-69755900D01*
X51557039Y-69755900D01*
X51557020Y-69755900D01*
X51553728Y-69755901D01*
X51550448Y-69756253D01*
X51550440Y-69756254D01*
X51494115Y-69762309D01*
X51359269Y-69812604D01*
X51244054Y-69898854D01*
X51157804Y-70014069D01*
X51108789Y-70145483D01*
X51066917Y-70201416D01*
X51001452Y-70225833D01*
X50933180Y-70210981D01*
X50904926Y-70189830D01*
X50783004Y-70067908D01*
X50783001Y-70067905D01*
X50589430Y-69932365D01*
X50375263Y-69832497D01*
X50314102Y-69816109D01*
X50147007Y-69771336D01*
X49911600Y-69750740D01*
X49676191Y-69771336D01*
X49575725Y-69798255D01*
X49505875Y-69796592D01*
X49455952Y-69766161D01*
X49042495Y-69352704D01*
X48656955Y-68967164D01*
X92422387Y-68967164D01*
X92452013Y-69236416D01*
X92452171Y-69237019D01*
X92520528Y-69498488D01*
X92619671Y-69731790D01*
X92626471Y-69747792D01*
X92767582Y-69979011D01*
X92940853Y-70187218D01*
X92940855Y-70187220D01*
X93142598Y-70367982D01*
X93368510Y-70517444D01*
X93466571Y-70563413D01*
X93613777Y-70632421D01*
X93819987Y-70694460D01*
X93873169Y-70710460D01*
X94141161Y-70749900D01*
X94141164Y-70749900D01*
X94341969Y-70749900D01*
X94344231Y-70749900D01*
X94546756Y-70735077D01*
X94811153Y-70676180D01*
X95064158Y-70579414D01*
X95300377Y-70446841D01*
X95514777Y-70281288D01*
X95702786Y-70086281D01*
X95860399Y-69865979D01*
X95984256Y-69625075D01*
X96071718Y-69368705D01*
X96120919Y-69102333D01*
X96130812Y-68831635D01*
X96101186Y-68562382D01*
X96032672Y-68300312D01*
X95926730Y-68051010D01*
X95797739Y-67839651D01*
X95785617Y-67819788D01*
X95612346Y-67611581D01*
X95507359Y-67517512D01*
X95410602Y-67430818D01*
X95184690Y-67281356D01*
X95150555Y-67265354D01*
X94939422Y-67166378D01*
X94680037Y-67088341D01*
X94680031Y-67088340D01*
X94412039Y-67048900D01*
X94208969Y-67048900D01*
X94206720Y-67049064D01*
X94206709Y-67049065D01*
X94006443Y-67063722D01*
X93742049Y-67122619D01*
X93489041Y-67219386D01*
X93252823Y-67351959D01*
X93038425Y-67517509D01*
X92850413Y-67712520D01*
X92692801Y-67932820D01*
X92568942Y-68173729D01*
X92481481Y-68430095D01*
X92432280Y-68696466D01*
X92422387Y-68967164D01*
X48656955Y-68967164D01*
X48483416Y-68793625D01*
X48449933Y-68732305D01*
X48447100Y-68705956D01*
X48447100Y-62925248D01*
X48466785Y-62858209D01*
X48483419Y-62837567D01*
X49229359Y-62091628D01*
X49988318Y-61332669D01*
X49988318Y-61332668D01*
X50002543Y-61318444D01*
X50002546Y-61318438D01*
X50059168Y-61261817D01*
X50120493Y-61228333D01*
X50146849Y-61225500D01*
X53146253Y-61225500D01*
X53213292Y-61245185D01*
X53238400Y-61266526D01*
X53244129Y-61272888D01*
X53397270Y-61384151D01*
X53397271Y-61384151D01*
X53397272Y-61384152D01*
X53570197Y-61461144D01*
X53755352Y-61500500D01*
X53755354Y-61500500D01*
X53944648Y-61500500D01*
X54068083Y-61474262D01*
X54129803Y-61461144D01*
X54302730Y-61384151D01*
X54378554Y-61329062D01*
X54455870Y-61272889D01*
X54461598Y-61266528D01*
X54582533Y-61132216D01*
X54677179Y-60968284D01*
X54735674Y-60788256D01*
X54754368Y-60610388D01*
X54780951Y-60545776D01*
X54838249Y-60505791D01*
X54908068Y-60503131D01*
X54968241Y-60538640D01*
X54969838Y-60540380D01*
X55044129Y-60622889D01*
X55197269Y-60734151D01*
X55370197Y-60811144D01*
X55555352Y-60850500D01*
X55555354Y-60850500D01*
X55744648Y-60850500D01*
X55868084Y-60824262D01*
X55929803Y-60811144D01*
X56102730Y-60734151D01*
X56255871Y-60622888D01*
X56382533Y-60482216D01*
X56477179Y-60318284D01*
X56535674Y-60138256D01*
X56555460Y-59950000D01*
X56535674Y-59761744D01*
X56477179Y-59581716D01*
X56477179Y-59581715D01*
X56382533Y-59417783D01*
X56255870Y-59277110D01*
X56102730Y-59165848D01*
X55929802Y-59088855D01*
X55744648Y-59049500D01*
X55744646Y-59049500D01*
X55555354Y-59049500D01*
X55555352Y-59049500D01*
X55370197Y-59088855D01*
X55197271Y-59165847D01*
X55183550Y-59175817D01*
X55117744Y-59199298D01*
X55110663Y-59199500D01*
X50007744Y-59199500D01*
X49987236Y-59197235D01*
X49917113Y-59199439D01*
X49913219Y-59199500D01*
X49885650Y-59199500D01*
X49881794Y-59199986D01*
X49881791Y-59199987D01*
X49881735Y-59199994D01*
X49881662Y-59200003D01*
X49870043Y-59200917D01*
X49826372Y-59202289D01*
X49807128Y-59207880D01*
X49788084Y-59211824D01*
X49768208Y-59214335D01*
X49727600Y-59230413D01*
X49716554Y-59234194D01*
X49674610Y-59246382D01*
X49674607Y-59246383D01*
X49657365Y-59256579D01*
X49639904Y-59265133D01*
X49621267Y-59272512D01*
X49585931Y-59298185D01*
X49576174Y-59304595D01*
X49538580Y-59326829D01*
X49524413Y-59340996D01*
X49509624Y-59353626D01*
X49493413Y-59365404D01*
X49465572Y-59399058D01*
X49457711Y-59407697D01*
X49029880Y-59835529D01*
X49029876Y-59835533D01*
X47716208Y-61149199D01*
X47700110Y-61162096D01*
X47652096Y-61213225D01*
X47649392Y-61216016D01*
X47632628Y-61232780D01*
X47632621Y-61232787D01*
X47629880Y-61235529D01*
X47627499Y-61238597D01*
X47627490Y-61238608D01*
X47627411Y-61238711D01*
X47619842Y-61247572D01*
X47589935Y-61279420D01*
X47580285Y-61296974D01*
X47569609Y-61313228D01*
X47557327Y-61329062D01*
X47544581Y-61358515D01*
X47518462Y-61396945D01*
X46987808Y-61927599D01*
X46971710Y-61940496D01*
X46923696Y-61991625D01*
X46920992Y-61994416D01*
X46904228Y-62011180D01*
X46904221Y-62011187D01*
X46901480Y-62013929D01*
X46899099Y-62016997D01*
X46899090Y-62017008D01*
X46899011Y-62017111D01*
X46891442Y-62025972D01*
X46861535Y-62057820D01*
X46851885Y-62075374D01*
X46841209Y-62091628D01*
X46828926Y-62107463D01*
X46811575Y-62147558D01*
X46806438Y-62158044D01*
X46785402Y-62196307D01*
X46780421Y-62215709D01*
X46774120Y-62234111D01*
X46766161Y-62252502D01*
X46759328Y-62295642D01*
X46756960Y-62307074D01*
X46746100Y-62349377D01*
X46746100Y-62369416D01*
X46744573Y-62388814D01*
X46741440Y-62408594D01*
X46745550Y-62452073D01*
X46746100Y-62463743D01*
X46746100Y-64353475D01*
X46726415Y-64420514D01*
X46673611Y-64466269D01*
X46604453Y-64476213D01*
X46540897Y-64447188D01*
X46503123Y-64388410D01*
X46498779Y-64366437D01*
X46497417Y-64353475D01*
X46485674Y-64241744D01*
X46427179Y-64061716D01*
X46427179Y-64061715D01*
X46332533Y-63897783D01*
X46205870Y-63757110D01*
X46052730Y-63645848D01*
X45879802Y-63568855D01*
X45694648Y-63529500D01*
X45694646Y-63529500D01*
X45505354Y-63529500D01*
X45505352Y-63529500D01*
X45320197Y-63568855D01*
X45147269Y-63645848D01*
X44994129Y-63757110D01*
X44867466Y-63897783D01*
X44772820Y-64061715D01*
X44714326Y-64241742D01*
X44694540Y-64430000D01*
X44698820Y-64470733D01*
X44699499Y-64483692D01*
X44699500Y-65038452D01*
X44679816Y-65105491D01*
X44663181Y-65126133D01*
X43328734Y-66460581D01*
X43267411Y-66494066D01*
X43241053Y-66496900D01*
X33917226Y-66496900D01*
X33897828Y-66495373D01*
X33883988Y-66493181D01*
X33816270Y-66496730D01*
X33809780Y-66496900D01*
X33789408Y-66496900D01*
X33786193Y-66497237D01*
X33786188Y-66497238D01*
X33774553Y-66498460D01*
X33769139Y-66499029D01*
X33762684Y-66499537D01*
X33694951Y-66503087D01*
X33681409Y-66506716D01*
X33662285Y-66510260D01*
X33648344Y-66511725D01*
X33583845Y-66532682D01*
X33577623Y-66534526D01*
X33512110Y-66552080D01*
X33499621Y-66558444D01*
X33481652Y-66565887D01*
X33468317Y-66570220D01*
X33409596Y-66604122D01*
X33403895Y-66607218D01*
X33343445Y-66638019D01*
X33332550Y-66646842D01*
X33316522Y-66657858D01*
X33304384Y-66664866D01*
X33253976Y-66710252D01*
X33249051Y-66714459D01*
X33235736Y-66725243D01*
X33233220Y-66727281D01*
X33230937Y-66729563D01*
X33230919Y-66729580D01*
X33218809Y-66741689D01*
X33214108Y-66746151D01*
X33163708Y-66791532D01*
X33155469Y-66802872D01*
X33142835Y-66817664D01*
X32321464Y-67639035D01*
X32306672Y-67651669D01*
X32295332Y-67659908D01*
X32249951Y-67710308D01*
X32245489Y-67715009D01*
X32233380Y-67727119D01*
X32233363Y-67727137D01*
X32231081Y-67729420D01*
X32229046Y-67731932D01*
X32229043Y-67731936D01*
X32218259Y-67745251D01*
X32214052Y-67750176D01*
X32168666Y-67800584D01*
X32161658Y-67812722D01*
X32150642Y-67828750D01*
X32141819Y-67839645D01*
X32111018Y-67900095D01*
X32107922Y-67905796D01*
X32074022Y-67964513D01*
X32069688Y-67977852D01*
X32062244Y-67995819D01*
X32055880Y-68008312D01*
X32038326Y-68073817D01*
X32036484Y-68080034D01*
X32015525Y-68144543D01*
X32014060Y-68158486D01*
X32010515Y-68177614D01*
X32006886Y-68191154D01*
X32003337Y-68258883D01*
X32002828Y-68265353D01*
X31995740Y-68332800D01*
X22768748Y-68332800D01*
X22756072Y-68284312D01*
X22650130Y-68035010D01*
X22524251Y-67828750D01*
X22509017Y-67803788D01*
X22335746Y-67595581D01*
X22230759Y-67501512D01*
X22134002Y-67414818D01*
X21908090Y-67265356D01*
X21908086Y-67265354D01*
X21662822Y-67150378D01*
X21403437Y-67072341D01*
X21403431Y-67072340D01*
X21135439Y-67032900D01*
X20932369Y-67032900D01*
X20930120Y-67033064D01*
X20930109Y-67033065D01*
X20729843Y-67047722D01*
X20465449Y-67106619D01*
X20212441Y-67203386D01*
X19976223Y-67335959D01*
X19761825Y-67501509D01*
X19573813Y-67696520D01*
X19416201Y-67916820D01*
X19292342Y-68157729D01*
X19204881Y-68414095D01*
X19155680Y-68680466D01*
X19145787Y-68951164D01*
X16943995Y-68951164D01*
X16943995Y-41959400D01*
X32801140Y-41959400D01*
X32820926Y-42147657D01*
X32850631Y-42239077D01*
X32856700Y-42277394D01*
X32856700Y-52585992D01*
X32871526Y-52727056D01*
X32871527Y-52727059D01*
X32886005Y-52771620D01*
X32891395Y-52796975D01*
X32900926Y-52887657D01*
X32959420Y-53067684D01*
X33054066Y-53231616D01*
X33180729Y-53372289D01*
X33333869Y-53483551D01*
X33506797Y-53560544D01*
X33691952Y-53599900D01*
X33691954Y-53599900D01*
X33881248Y-53599900D01*
X34004684Y-53573662D01*
X34066403Y-53560544D01*
X34239330Y-53483551D01*
X34392471Y-53372288D01*
X34519133Y-53231616D01*
X34613779Y-53067684D01*
X34672274Y-52887656D01*
X34692060Y-52699400D01*
X34672274Y-52511144D01*
X34663769Y-52484967D01*
X34657700Y-52446650D01*
X34657700Y-41966049D01*
X34657700Y-41966048D01*
X34657700Y-41962808D01*
X34642874Y-41821744D01*
X34584379Y-41641716D01*
X34584379Y-41641715D01*
X34489735Y-41477786D01*
X34472891Y-41459079D01*
X34363071Y-41337112D01*
X34359037Y-41334181D01*
X34339777Y-41316838D01*
X34312470Y-41286510D01*
X34159330Y-41175248D01*
X33986402Y-41098255D01*
X33801248Y-41058900D01*
X33801246Y-41058900D01*
X33611954Y-41058900D01*
X33611952Y-41058900D01*
X33426797Y-41098255D01*
X33253869Y-41175248D01*
X33100729Y-41286510D01*
X32974066Y-41427183D01*
X32879420Y-41591115D01*
X32820926Y-41771142D01*
X32801140Y-41959400D01*
X16943995Y-41959400D01*
X16943995Y-39063799D01*
X34036265Y-39063799D01*
X34055564Y-39284388D01*
X34112878Y-39498283D01*
X34206455Y-39698962D01*
X34206456Y-39698963D01*
X34206458Y-39698967D01*
X34333468Y-39880355D01*
X34490045Y-40036932D01*
X34671433Y-40163942D01*
X34872120Y-40257523D01*
X35086009Y-40314835D01*
X35223994Y-40326907D01*
X35306599Y-40334134D01*
X35306599Y-40334133D01*
X35306600Y-40334134D01*
X35527191Y-40314835D01*
X35741080Y-40257523D01*
X35941767Y-40163942D01*
X36123155Y-40036932D01*
X36279732Y-39880355D01*
X36406742Y-39698967D01*
X36500323Y-39498280D01*
X36557635Y-39284391D01*
X36576934Y-39063800D01*
X36557635Y-38843209D01*
X36500323Y-38629320D01*
X36411250Y-38438300D01*
X36406744Y-38428637D01*
X36406743Y-38428636D01*
X36406742Y-38428633D01*
X36279732Y-38247245D01*
X36123155Y-38090668D01*
X35941767Y-37963658D01*
X35941764Y-37963657D01*
X35941762Y-37963655D01*
X35741083Y-37870078D01*
X35741080Y-37870077D01*
X35573069Y-37825058D01*
X35527188Y-37812764D01*
X35306600Y-37793465D01*
X35086011Y-37812764D01*
X34872116Y-37870078D01*
X34671437Y-37963655D01*
X34671432Y-37963658D01*
X34671433Y-37963658D01*
X34490047Y-38090667D01*
X34490041Y-38090671D01*
X34333471Y-38247241D01*
X34333468Y-38247244D01*
X34333468Y-38247245D01*
X34291873Y-38306648D01*
X34206455Y-38428637D01*
X34112878Y-38629316D01*
X34055564Y-38843211D01*
X34036265Y-39063799D01*
X16943995Y-39063799D01*
X16943995Y-38265899D01*
X16963680Y-38198860D01*
X17016484Y-38153105D01*
X17067995Y-38141899D01*
X23970784Y-38141899D01*
X23991701Y-38146060D01*
X24005496Y-38146060D01*
X24044146Y-38130050D01*
X24055995Y-38101445D01*
X24060156Y-38091400D01*
X24060156Y-38077610D01*
X24055995Y-38056690D01*
X24055995Y-31977200D01*
X34020140Y-31977200D01*
X34039926Y-32165457D01*
X34098420Y-32345484D01*
X34193064Y-32509413D01*
X34229907Y-32550331D01*
X34260946Y-32584803D01*
X34268250Y-32592914D01*
X34298480Y-32655906D01*
X34300100Y-32675887D01*
X34300100Y-35472321D01*
X34280415Y-35539360D01*
X34268250Y-35555293D01*
X34218466Y-35610583D01*
X34123820Y-35774515D01*
X34065326Y-35954542D01*
X34045540Y-36142800D01*
X34065326Y-36331057D01*
X34123820Y-36511084D01*
X34218466Y-36675016D01*
X34345129Y-36815689D01*
X34498269Y-36926951D01*
X34671197Y-37003944D01*
X34856352Y-37043300D01*
X34856354Y-37043300D01*
X35045648Y-37043300D01*
X35169084Y-37017062D01*
X35230803Y-37003944D01*
X35403730Y-36926951D01*
X35556871Y-36815688D01*
X35683533Y-36675016D01*
X35778179Y-36511084D01*
X35836674Y-36331056D01*
X35856460Y-36142800D01*
X35836674Y-35954544D01*
X35806332Y-35861163D01*
X35778179Y-35774515D01*
X35683533Y-35610583D01*
X35582950Y-35498875D01*
X35552720Y-35435884D01*
X35551100Y-35415903D01*
X35551100Y-32675887D01*
X35570785Y-32608848D01*
X35582950Y-32592914D01*
X35658133Y-32509416D01*
X35688453Y-32456901D01*
X35752779Y-32345484D01*
X35799109Y-32202895D01*
X35811274Y-32165456D01*
X35831060Y-31977200D01*
X35811274Y-31788944D01*
X35780932Y-31695563D01*
X35752779Y-31608915D01*
X35658133Y-31444983D01*
X35531470Y-31304310D01*
X35378330Y-31193048D01*
X35205402Y-31116055D01*
X35020248Y-31076700D01*
X35020246Y-31076700D01*
X34830954Y-31076700D01*
X34830952Y-31076700D01*
X34645797Y-31116055D01*
X34472869Y-31193048D01*
X34319729Y-31304310D01*
X34193066Y-31444983D01*
X34098420Y-31608915D01*
X34039926Y-31788942D01*
X34020140Y-31977200D01*
X24055995Y-31977200D01*
X24055995Y-30622111D01*
X24060156Y-30601196D01*
X24060156Y-30587400D01*
X24056002Y-30577371D01*
X24044146Y-30548750D01*
X24044145Y-30548749D01*
X24015543Y-30536902D01*
X24015541Y-30536901D01*
X24005496Y-30532740D01*
X24005495Y-30532740D01*
X23991702Y-30532740D01*
X23970785Y-30536901D01*
X17067884Y-30536901D01*
X17000845Y-30517216D01*
X16955090Y-30464412D01*
X16943884Y-30412980D01*
X16943669Y-30074546D01*
X16943303Y-29500000D01*
X33519540Y-29500000D01*
X33539326Y-29688257D01*
X33597820Y-29868284D01*
X33692466Y-30032216D01*
X33819129Y-30172889D01*
X33972269Y-30284151D01*
X34145197Y-30361144D01*
X34330352Y-30400500D01*
X34330354Y-30400500D01*
X34519648Y-30400500D01*
X34643083Y-30374262D01*
X34704803Y-30361144D01*
X34877730Y-30284151D01*
X35030871Y-30172888D01*
X35036598Y-30166527D01*
X35096084Y-30129879D01*
X35128747Y-30125500D01*
X38839548Y-30125500D01*
X38906587Y-30145185D01*
X38927229Y-30161819D01*
X42264781Y-33499371D01*
X42298266Y-33560694D01*
X42301100Y-33587052D01*
X42301100Y-37892338D01*
X42281415Y-37959377D01*
X42248224Y-37993912D01*
X42110045Y-38090667D01*
X41953471Y-38247241D01*
X41953468Y-38247244D01*
X41953468Y-38247245D01*
X41911873Y-38306648D01*
X41826455Y-38428637D01*
X41768982Y-38551891D01*
X41722810Y-38604331D01*
X41655617Y-38623483D01*
X41588735Y-38603267D01*
X41544218Y-38551891D01*
X41486744Y-38428637D01*
X41486743Y-38428636D01*
X41486742Y-38428633D01*
X41359732Y-38247245D01*
X41203155Y-38090668D01*
X41021767Y-37963658D01*
X41021764Y-37963657D01*
X41021762Y-37963655D01*
X40821083Y-37870078D01*
X40821080Y-37870077D01*
X40653069Y-37825058D01*
X40607188Y-37812764D01*
X40386599Y-37793465D01*
X40166011Y-37812764D01*
X39952116Y-37870078D01*
X39751437Y-37963655D01*
X39751432Y-37963658D01*
X39751433Y-37963658D01*
X39570047Y-38090667D01*
X39570041Y-38090671D01*
X39413471Y-38247241D01*
X39413468Y-38247244D01*
X39413468Y-38247245D01*
X39371873Y-38306648D01*
X39286455Y-38428637D01*
X39192878Y-38629316D01*
X39135564Y-38843211D01*
X39116265Y-39063800D01*
X39135564Y-39284388D01*
X39192878Y-39498283D01*
X39286455Y-39698962D01*
X39286456Y-39698963D01*
X39286458Y-39698967D01*
X39413468Y-39880355D01*
X39570045Y-40036932D01*
X39751433Y-40163942D01*
X39952120Y-40257523D01*
X40166009Y-40314835D01*
X40386600Y-40334134D01*
X40607191Y-40314835D01*
X40821080Y-40257523D01*
X41021767Y-40163942D01*
X41203155Y-40036932D01*
X41359732Y-39880355D01*
X41486742Y-39698967D01*
X41544218Y-39575707D01*
X41590390Y-39523268D01*
X41657583Y-39504116D01*
X41724464Y-39524331D01*
X41768981Y-39575707D01*
X41826458Y-39698967D01*
X41953468Y-39880355D01*
X42110045Y-40036932D01*
X42291433Y-40163942D01*
X42492120Y-40257523D01*
X42706009Y-40314835D01*
X42926600Y-40334134D01*
X43147191Y-40314835D01*
X43361080Y-40257523D01*
X43561767Y-40163942D01*
X43743155Y-40036932D01*
X43899732Y-39880355D01*
X44026742Y-39698967D01*
X44084218Y-39575707D01*
X44130390Y-39523268D01*
X44197583Y-39504116D01*
X44264464Y-39524331D01*
X44308981Y-39575707D01*
X44366458Y-39698967D01*
X44493468Y-39880355D01*
X44650045Y-40036932D01*
X44831433Y-40163942D01*
X45032120Y-40257523D01*
X45246009Y-40314835D01*
X45383994Y-40326907D01*
X45466599Y-40334134D01*
X45466599Y-40334133D01*
X45466600Y-40334134D01*
X45687191Y-40314835D01*
X45901080Y-40257523D01*
X46101767Y-40163942D01*
X46283155Y-40036932D01*
X46439732Y-39880355D01*
X46566742Y-39698967D01*
X46624218Y-39575707D01*
X46670390Y-39523268D01*
X46737583Y-39504116D01*
X46804464Y-39524331D01*
X46848981Y-39575707D01*
X46906458Y-39698967D01*
X47033468Y-39880355D01*
X47190045Y-40036932D01*
X47371433Y-40163942D01*
X47572120Y-40257523D01*
X47786009Y-40314835D01*
X47923994Y-40326907D01*
X48006599Y-40334134D01*
X48006599Y-40334133D01*
X48006600Y-40334134D01*
X48227191Y-40314835D01*
X48441080Y-40257523D01*
X48641767Y-40163942D01*
X48823155Y-40036932D01*
X48979732Y-39880355D01*
X49106742Y-39698967D01*
X49164218Y-39575707D01*
X49210390Y-39523268D01*
X49277583Y-39504116D01*
X49344464Y-39524331D01*
X49388981Y-39575707D01*
X49446458Y-39698967D01*
X49573468Y-39880355D01*
X49730045Y-40036932D01*
X49911433Y-40163942D01*
X50112120Y-40257523D01*
X50326009Y-40314835D01*
X50546600Y-40334134D01*
X50767191Y-40314835D01*
X50981080Y-40257523D01*
X51181767Y-40163942D01*
X51363155Y-40036932D01*
X51519732Y-39880355D01*
X51646742Y-39698967D01*
X51704218Y-39575707D01*
X51750390Y-39523268D01*
X51817583Y-39504116D01*
X51884464Y-39524331D01*
X51928981Y-39575707D01*
X51986458Y-39698967D01*
X52113468Y-39880355D01*
X52270045Y-40036932D01*
X52451433Y-40163942D01*
X52652120Y-40257523D01*
X52866009Y-40314835D01*
X53003994Y-40326907D01*
X53086599Y-40334134D01*
X53086599Y-40334133D01*
X53086600Y-40334134D01*
X53169203Y-40326907D01*
X53237703Y-40340673D01*
X53287886Y-40389288D01*
X53303820Y-40457317D01*
X53280445Y-40523160D01*
X53267692Y-40538116D01*
X52508228Y-41297581D01*
X52446905Y-41331066D01*
X52420547Y-41333900D01*
X50629340Y-41333900D01*
X50608836Y-41331636D01*
X50538744Y-41333839D01*
X50534850Y-41333900D01*
X50507250Y-41333900D01*
X50503399Y-41334386D01*
X50503368Y-41334388D01*
X50503240Y-41334405D01*
X50491628Y-41335318D01*
X50447968Y-41336690D01*
X50428728Y-41342280D01*
X50409681Y-41346225D01*
X50389809Y-41348735D01*
X50349199Y-41364813D01*
X50338154Y-41368594D01*
X50296211Y-41380780D01*
X50278969Y-41390978D01*
X50261497Y-41399538D01*
X50242866Y-41406914D01*
X50207538Y-41432581D01*
X50197780Y-41438991D01*
X50160179Y-41461229D01*
X50146010Y-41475398D01*
X50131222Y-41488028D01*
X50115013Y-41499805D01*
X50087172Y-41533458D01*
X50079311Y-41542096D01*
X47681008Y-43940399D01*
X47664910Y-43953296D01*
X47616896Y-44004425D01*
X47614192Y-44007216D01*
X47597428Y-44023980D01*
X47597421Y-44023987D01*
X47594680Y-44026729D01*
X47592299Y-44029797D01*
X47592290Y-44029808D01*
X47592211Y-44029911D01*
X47584642Y-44038772D01*
X47554735Y-44070620D01*
X47545085Y-44088174D01*
X47534409Y-44104428D01*
X47522126Y-44120263D01*
X47504775Y-44160358D01*
X47499638Y-44170844D01*
X47478602Y-44209107D01*
X47473621Y-44228509D01*
X47467320Y-44246911D01*
X47459361Y-44265302D01*
X47452528Y-44308442D01*
X47450160Y-44319874D01*
X47439300Y-44362177D01*
X47439300Y-44382216D01*
X47437773Y-44401614D01*
X47434640Y-44421394D01*
X47438750Y-44464873D01*
X47439300Y-44476543D01*
X47439300Y-48321199D01*
X47419615Y-48388238D01*
X47407450Y-48404171D01*
X47314066Y-48507883D01*
X47219420Y-48671815D01*
X47160926Y-48851842D01*
X47141140Y-49040099D01*
X47160926Y-49228357D01*
X47219420Y-49408384D01*
X47314066Y-49572316D01*
X47440729Y-49712989D01*
X47593869Y-49824251D01*
X47766797Y-49901244D01*
X47951952Y-49940600D01*
X47951954Y-49940600D01*
X48141248Y-49940600D01*
X48321319Y-49902325D01*
X48390986Y-49907641D01*
X48446720Y-49949778D01*
X48470825Y-50015358D01*
X48471100Y-50023615D01*
X48471100Y-52170712D01*
X48451415Y-52237751D01*
X48439250Y-52253684D01*
X48364066Y-52337183D01*
X48269420Y-52501115D01*
X48210926Y-52681142D01*
X48191140Y-52869400D01*
X48194533Y-52901683D01*
X48181963Y-52970413D01*
X48134231Y-53021437D01*
X48066490Y-53038554D01*
X48060406Y-53038172D01*
X48006601Y-53033465D01*
X47786011Y-53052764D01*
X47572116Y-53110078D01*
X47371437Y-53203655D01*
X47190041Y-53330671D01*
X47033471Y-53487241D01*
X46906455Y-53668637D01*
X46848982Y-53791891D01*
X46802810Y-53844331D01*
X46735617Y-53863483D01*
X46668735Y-53843267D01*
X46624218Y-53791891D01*
X46566744Y-53668637D01*
X46566743Y-53668636D01*
X46566742Y-53668633D01*
X46439732Y-53487245D01*
X46283155Y-53330668D01*
X46101767Y-53203658D01*
X46101764Y-53203657D01*
X46101762Y-53203655D01*
X45901083Y-53110078D01*
X45901080Y-53110077D01*
X45737036Y-53066121D01*
X45687188Y-53052764D01*
X45466599Y-53033465D01*
X45246011Y-53052764D01*
X45032116Y-53110078D01*
X44831437Y-53203655D01*
X44650041Y-53330671D01*
X44493471Y-53487241D01*
X44366455Y-53668637D01*
X44308982Y-53791891D01*
X44262810Y-53844331D01*
X44195617Y-53863483D01*
X44128735Y-53843267D01*
X44084218Y-53791891D01*
X44026744Y-53668637D01*
X44026743Y-53668636D01*
X44026742Y-53668633D01*
X43899732Y-53487245D01*
X43743155Y-53330668D01*
X43561767Y-53203658D01*
X43561764Y-53203657D01*
X43561762Y-53203655D01*
X43361083Y-53110078D01*
X43361080Y-53110077D01*
X43197036Y-53066121D01*
X43147188Y-53052764D01*
X42926599Y-53033465D01*
X42706011Y-53052764D01*
X42492116Y-53110078D01*
X42291437Y-53203655D01*
X42110041Y-53330671D01*
X41953471Y-53487241D01*
X41826455Y-53668637D01*
X41768982Y-53791891D01*
X41722810Y-53844331D01*
X41655617Y-53863483D01*
X41588735Y-53843267D01*
X41544218Y-53791891D01*
X41486744Y-53668637D01*
X41486743Y-53668636D01*
X41486742Y-53668633D01*
X41359732Y-53487245D01*
X41203155Y-53330668D01*
X41021767Y-53203658D01*
X41021764Y-53203657D01*
X41021762Y-53203655D01*
X40821083Y-53110078D01*
X40821080Y-53110077D01*
X40657036Y-53066121D01*
X40607188Y-53052764D01*
X40386599Y-53033465D01*
X40166011Y-53052764D01*
X39952116Y-53110078D01*
X39751437Y-53203655D01*
X39570041Y-53330671D01*
X39413471Y-53487241D01*
X39286455Y-53668637D01*
X39228982Y-53791891D01*
X39182810Y-53844331D01*
X39115617Y-53863483D01*
X39048735Y-53843267D01*
X39004218Y-53791891D01*
X38946744Y-53668637D01*
X38946743Y-53668636D01*
X38946742Y-53668633D01*
X38819732Y-53487245D01*
X38663155Y-53330668D01*
X38481767Y-53203658D01*
X38481764Y-53203657D01*
X38481762Y-53203655D01*
X38281083Y-53110078D01*
X38281080Y-53110077D01*
X38117036Y-53066121D01*
X38067188Y-53052764D01*
X37846600Y-53033465D01*
X37626011Y-53052764D01*
X37412116Y-53110078D01*
X37211437Y-53203655D01*
X37030041Y-53330671D01*
X36873471Y-53487241D01*
X36746455Y-53668637D01*
X36652878Y-53869316D01*
X36595564Y-54083211D01*
X36576265Y-54303799D01*
X36595564Y-54524388D01*
X36652878Y-54738283D01*
X36746455Y-54938962D01*
X36746456Y-54938963D01*
X36746458Y-54938967D01*
X36873468Y-55120355D01*
X37030045Y-55276932D01*
X37211433Y-55403942D01*
X37412120Y-55497523D01*
X37626009Y-55554835D01*
X37846600Y-55574134D01*
X38067191Y-55554835D01*
X38281080Y-55497523D01*
X38481767Y-55403942D01*
X38663155Y-55276932D01*
X38819732Y-55120355D01*
X38946742Y-54938967D01*
X39004218Y-54815707D01*
X39050390Y-54763268D01*
X39117583Y-54744116D01*
X39184464Y-54764331D01*
X39228981Y-54815707D01*
X39286458Y-54938967D01*
X39413468Y-55120355D01*
X39570045Y-55276932D01*
X39751433Y-55403942D01*
X39952120Y-55497523D01*
X40166009Y-55554835D01*
X40313069Y-55567701D01*
X40386599Y-55574134D01*
X40386599Y-55574133D01*
X40386600Y-55574134D01*
X40607191Y-55554835D01*
X40821080Y-55497523D01*
X41021767Y-55403942D01*
X41203155Y-55276932D01*
X41359732Y-55120355D01*
X41486742Y-54938967D01*
X41544218Y-54815707D01*
X41590390Y-54763268D01*
X41657583Y-54744116D01*
X41724464Y-54764331D01*
X41768981Y-54815707D01*
X41826458Y-54938967D01*
X41953468Y-55120355D01*
X42110045Y-55276932D01*
X42291433Y-55403942D01*
X42492120Y-55497523D01*
X42706009Y-55554835D01*
X42926600Y-55574134D01*
X43147191Y-55554835D01*
X43361080Y-55497523D01*
X43561767Y-55403942D01*
X43743155Y-55276932D01*
X43899732Y-55120355D01*
X44026742Y-54938967D01*
X44084218Y-54815707D01*
X44130390Y-54763268D01*
X44197583Y-54744116D01*
X44264464Y-54764331D01*
X44308981Y-54815707D01*
X44366458Y-54938967D01*
X44493468Y-55120355D01*
X44650045Y-55276932D01*
X44831433Y-55403942D01*
X45032120Y-55497523D01*
X45246009Y-55554835D01*
X45393069Y-55567701D01*
X45466599Y-55574134D01*
X45466599Y-55574133D01*
X45466600Y-55574134D01*
X45687191Y-55554835D01*
X45901080Y-55497523D01*
X46101767Y-55403942D01*
X46283155Y-55276932D01*
X46439732Y-55120355D01*
X46566742Y-54938967D01*
X46624218Y-54815707D01*
X46670390Y-54763268D01*
X46737583Y-54744116D01*
X46804464Y-54764331D01*
X46848981Y-54815707D01*
X46906458Y-54938967D01*
X47033468Y-55120355D01*
X47190045Y-55276932D01*
X47371433Y-55403942D01*
X47572120Y-55497523D01*
X47786009Y-55554835D01*
X48006600Y-55574134D01*
X48227191Y-55554835D01*
X48441080Y-55497523D01*
X48641767Y-55403942D01*
X48823155Y-55276932D01*
X48979732Y-55120355D01*
X49106742Y-54938967D01*
X49164218Y-54815707D01*
X49210390Y-54763268D01*
X49277583Y-54744116D01*
X49344464Y-54764331D01*
X49388981Y-54815707D01*
X49446458Y-54938967D01*
X49573468Y-55120355D01*
X49730045Y-55276932D01*
X49911433Y-55403942D01*
X50112120Y-55497523D01*
X50326009Y-55554835D01*
X50473069Y-55567701D01*
X50546599Y-55574134D01*
X50546599Y-55574133D01*
X50546600Y-55574134D01*
X50767191Y-55554835D01*
X50981080Y-55497523D01*
X51181767Y-55403942D01*
X51363155Y-55276932D01*
X51519732Y-55120355D01*
X51646742Y-54938967D01*
X51704218Y-54815707D01*
X51750390Y-54763268D01*
X51817583Y-54744116D01*
X51884464Y-54764331D01*
X51928981Y-54815707D01*
X51986458Y-54938967D01*
X52113468Y-55120355D01*
X52270045Y-55276932D01*
X52451433Y-55403942D01*
X52652120Y-55497523D01*
X52866009Y-55554835D01*
X53086600Y-55574134D01*
X53307191Y-55554835D01*
X53521080Y-55497523D01*
X53721767Y-55403942D01*
X53903155Y-55276932D01*
X54059732Y-55120355D01*
X54186742Y-54938967D01*
X54244218Y-54815707D01*
X54290390Y-54763268D01*
X54357583Y-54744116D01*
X54424464Y-54764331D01*
X54468981Y-54815707D01*
X54526458Y-54938967D01*
X54653468Y-55120355D01*
X54810045Y-55276932D01*
X54991433Y-55403942D01*
X55192120Y-55497523D01*
X55406009Y-55554835D01*
X55553069Y-55567701D01*
X55626599Y-55574134D01*
X55626599Y-55574133D01*
X55626600Y-55574134D01*
X55847191Y-55554835D01*
X56061080Y-55497523D01*
X56261767Y-55403942D01*
X56443155Y-55276932D01*
X56599732Y-55120355D01*
X56726742Y-54938967D01*
X56784218Y-54815707D01*
X56830390Y-54763268D01*
X56897583Y-54744116D01*
X56964464Y-54764331D01*
X57008981Y-54815707D01*
X57066458Y-54938967D01*
X57193468Y-55120355D01*
X57350045Y-55276932D01*
X57531433Y-55403942D01*
X57732120Y-55497523D01*
X57946009Y-55554835D01*
X58166600Y-55574134D01*
X58387191Y-55554835D01*
X58601080Y-55497523D01*
X58801767Y-55403942D01*
X58983155Y-55276932D01*
X59139732Y-55120355D01*
X59266742Y-54938967D01*
X59324218Y-54815707D01*
X59370390Y-54763268D01*
X59437583Y-54744116D01*
X59504464Y-54764331D01*
X59548981Y-54815707D01*
X59606458Y-54938967D01*
X59733468Y-55120355D01*
X59890045Y-55276932D01*
X60071433Y-55403942D01*
X60272120Y-55497523D01*
X60486009Y-55554835D01*
X60633069Y-55567701D01*
X60706599Y-55574134D01*
X60706599Y-55574133D01*
X60706600Y-55574134D01*
X60927191Y-55554835D01*
X61141080Y-55497523D01*
X61341767Y-55403942D01*
X61523155Y-55276932D01*
X61679732Y-55120355D01*
X61806742Y-54938967D01*
X61864218Y-54815707D01*
X61910390Y-54763268D01*
X61977583Y-54744116D01*
X62044464Y-54764331D01*
X62088981Y-54815707D01*
X62146458Y-54938967D01*
X62273468Y-55120355D01*
X62430045Y-55276932D01*
X62611433Y-55403942D01*
X62812120Y-55497523D01*
X63026009Y-55554835D01*
X63246600Y-55574134D01*
X63467191Y-55554835D01*
X63681080Y-55497523D01*
X63881767Y-55403942D01*
X64063155Y-55276932D01*
X64219732Y-55120355D01*
X64346742Y-54938967D01*
X64404218Y-54815707D01*
X64450390Y-54763268D01*
X64517583Y-54744116D01*
X64584464Y-54764331D01*
X64628981Y-54815707D01*
X64686458Y-54938967D01*
X64813468Y-55120355D01*
X64970045Y-55276932D01*
X65151433Y-55403942D01*
X65352120Y-55497523D01*
X65566009Y-55554835D01*
X65713069Y-55567701D01*
X65786599Y-55574134D01*
X65786599Y-55574133D01*
X65786600Y-55574134D01*
X66007191Y-55554835D01*
X66221080Y-55497523D01*
X66421767Y-55403942D01*
X66603155Y-55276932D01*
X66759732Y-55120355D01*
X66886742Y-54938967D01*
X66944218Y-54815707D01*
X66990390Y-54763268D01*
X67057583Y-54744116D01*
X67124464Y-54764331D01*
X67168981Y-54815707D01*
X67226458Y-54938967D01*
X67353468Y-55120355D01*
X67510045Y-55276932D01*
X67691433Y-55403942D01*
X67892120Y-55497523D01*
X68106009Y-55554835D01*
X68326600Y-55574134D01*
X68547191Y-55554835D01*
X68761080Y-55497523D01*
X68961767Y-55403942D01*
X69143155Y-55276932D01*
X69299732Y-55120355D01*
X69426742Y-54938967D01*
X69520323Y-54738280D01*
X69577635Y-54524391D01*
X69596934Y-54303800D01*
X69577635Y-54083209D01*
X69520323Y-53869320D01*
X69426742Y-53668633D01*
X69299732Y-53487245D01*
X69143155Y-53330668D01*
X68992246Y-53225000D01*
X78419540Y-53225000D01*
X78439326Y-53413257D01*
X78497820Y-53593284D01*
X78592466Y-53757216D01*
X78719129Y-53897889D01*
X78872269Y-54009151D01*
X79045197Y-54086144D01*
X79230352Y-54125500D01*
X79230354Y-54125500D01*
X79419648Y-54125500D01*
X79543083Y-54099262D01*
X79604803Y-54086144D01*
X79777730Y-54009151D01*
X79930871Y-53897888D01*
X80057533Y-53757216D01*
X80152179Y-53593284D01*
X80210674Y-53413256D01*
X80228321Y-53245344D01*
X80254904Y-53180734D01*
X80263951Y-53170638D01*
X80358789Y-53075800D01*
X80374885Y-53062906D01*
X80376873Y-53060787D01*
X80376877Y-53060786D01*
X80422949Y-53011723D01*
X80425534Y-53009055D01*
X80445120Y-52989471D01*
X80447585Y-52986292D01*
X80455167Y-52977416D01*
X80485062Y-52945582D01*
X80494712Y-52928027D01*
X80505400Y-52911757D01*
X80517671Y-52895938D01*
X80517673Y-52895936D01*
X80535026Y-52855832D01*
X80540157Y-52845362D01*
X80561197Y-52807092D01*
X80566175Y-52787699D01*
X80572481Y-52769282D01*
X80574018Y-52765728D01*
X80580438Y-52750896D01*
X80587272Y-52707745D01*
X80589635Y-52696331D01*
X80600500Y-52654019D01*
X80600500Y-52633982D01*
X80602027Y-52614584D01*
X80605160Y-52594804D01*
X80601050Y-52551324D01*
X80600500Y-52539655D01*
X80600500Y-48507743D01*
X80602764Y-48487239D01*
X80600561Y-48417126D01*
X80600500Y-48413231D01*
X80600500Y-48389540D01*
X80600500Y-48385650D01*
X80599998Y-48381677D01*
X80599080Y-48370018D01*
X80599042Y-48368799D01*
X80597709Y-48326373D01*
X80592120Y-48307140D01*
X80588174Y-48288082D01*
X80585664Y-48268206D01*
X80569588Y-48227604D01*
X80565804Y-48216553D01*
X80559881Y-48196168D01*
X80553618Y-48174610D01*
X80543414Y-48157355D01*
X80534861Y-48139895D01*
X80527486Y-48121269D01*
X80527486Y-48121268D01*
X80501808Y-48085925D01*
X80495401Y-48076171D01*
X80473169Y-48038579D01*
X80459006Y-48024416D01*
X80446367Y-48009617D01*
X80434595Y-47993413D01*
X80400947Y-47965578D01*
X80392305Y-47957714D01*
X80338960Y-47904369D01*
X80305475Y-47843046D01*
X80303323Y-47829668D01*
X80285674Y-47661744D01*
X80227179Y-47481716D01*
X80227179Y-47481715D01*
X80132533Y-47317783D01*
X80005870Y-47177110D01*
X79852730Y-47065848D01*
X79679802Y-46988855D01*
X79494648Y-46949500D01*
X79494646Y-46949500D01*
X79305354Y-46949500D01*
X79305352Y-46949500D01*
X79120197Y-46988855D01*
X78947269Y-47065848D01*
X78794129Y-47177110D01*
X78667466Y-47317783D01*
X78572820Y-47481715D01*
X78514326Y-47661742D01*
X78494540Y-47850000D01*
X78514326Y-48038257D01*
X78572820Y-48218284D01*
X78667466Y-48382216D01*
X78794129Y-48522889D01*
X78947269Y-48634151D01*
X79031866Y-48671816D01*
X79120197Y-48711144D01*
X79251284Y-48739007D01*
X79312762Y-48772198D01*
X79346539Y-48833360D01*
X79349500Y-48860296D01*
X79349500Y-52200500D01*
X79329815Y-52267539D01*
X79277011Y-52313294D01*
X79242874Y-52320720D01*
X79243102Y-52321790D01*
X79045197Y-52363855D01*
X78872269Y-52440848D01*
X78719129Y-52552110D01*
X78592466Y-52692783D01*
X78497820Y-52856715D01*
X78439326Y-53036742D01*
X78419540Y-53225000D01*
X68992246Y-53225000D01*
X68961767Y-53203658D01*
X68961764Y-53203657D01*
X68961762Y-53203655D01*
X68761083Y-53110078D01*
X68761080Y-53110077D01*
X68597036Y-53066121D01*
X68547188Y-53052764D01*
X68326600Y-53033465D01*
X68106011Y-53052764D01*
X67892116Y-53110078D01*
X67691437Y-53203655D01*
X67510041Y-53330671D01*
X67353471Y-53487241D01*
X67226455Y-53668637D01*
X67168982Y-53791891D01*
X67122810Y-53844331D01*
X67055617Y-53863483D01*
X66988735Y-53843267D01*
X66944218Y-53791891D01*
X66886744Y-53668637D01*
X66886743Y-53668636D01*
X66886742Y-53668633D01*
X66759732Y-53487245D01*
X66603155Y-53330668D01*
X66421767Y-53203658D01*
X66421764Y-53203657D01*
X66421762Y-53203655D01*
X66221083Y-53110078D01*
X66221080Y-53110077D01*
X66057036Y-53066121D01*
X66007188Y-53052764D01*
X65786599Y-53033465D01*
X65566011Y-53052764D01*
X65352116Y-53110078D01*
X65151437Y-53203655D01*
X64970041Y-53330671D01*
X64813471Y-53487241D01*
X64686455Y-53668637D01*
X64628982Y-53791891D01*
X64582810Y-53844331D01*
X64515617Y-53863483D01*
X64448735Y-53843267D01*
X64404218Y-53791891D01*
X64346744Y-53668637D01*
X64346743Y-53668636D01*
X64346742Y-53668633D01*
X64219732Y-53487245D01*
X64063155Y-53330668D01*
X63881767Y-53203658D01*
X63881764Y-53203657D01*
X63881762Y-53203655D01*
X63681083Y-53110078D01*
X63681080Y-53110077D01*
X63517036Y-53066121D01*
X63467188Y-53052764D01*
X63246599Y-53033465D01*
X63026011Y-53052764D01*
X62812116Y-53110078D01*
X62611437Y-53203655D01*
X62430041Y-53330671D01*
X62273471Y-53487241D01*
X62146455Y-53668637D01*
X62088982Y-53791891D01*
X62042810Y-53844331D01*
X61975617Y-53863483D01*
X61908735Y-53843267D01*
X61864218Y-53791891D01*
X61806744Y-53668637D01*
X61806743Y-53668636D01*
X61806742Y-53668633D01*
X61679732Y-53487245D01*
X61523155Y-53330668D01*
X61341767Y-53203658D01*
X61341764Y-53203657D01*
X61341762Y-53203655D01*
X61141083Y-53110078D01*
X61141080Y-53110077D01*
X60977036Y-53066121D01*
X60927188Y-53052764D01*
X60706599Y-53033465D01*
X60486011Y-53052764D01*
X60272116Y-53110078D01*
X60071437Y-53203655D01*
X59890041Y-53330671D01*
X59733471Y-53487241D01*
X59606455Y-53668637D01*
X59548982Y-53791891D01*
X59502810Y-53844331D01*
X59435617Y-53863483D01*
X59368735Y-53843267D01*
X59324218Y-53791891D01*
X59266744Y-53668637D01*
X59266743Y-53668636D01*
X59266742Y-53668633D01*
X59139732Y-53487245D01*
X58983155Y-53330668D01*
X58801767Y-53203658D01*
X58801764Y-53203657D01*
X58801762Y-53203655D01*
X58601083Y-53110078D01*
X58601080Y-53110077D01*
X58437036Y-53066121D01*
X58387188Y-53052764D01*
X58166600Y-53033465D01*
X57946011Y-53052764D01*
X57732116Y-53110078D01*
X57531437Y-53203655D01*
X57350041Y-53330671D01*
X57193471Y-53487241D01*
X57066455Y-53668637D01*
X57008982Y-53791891D01*
X56962810Y-53844331D01*
X56895617Y-53863483D01*
X56828735Y-53843267D01*
X56784218Y-53791891D01*
X56726744Y-53668637D01*
X56726743Y-53668636D01*
X56726742Y-53668633D01*
X56599732Y-53487245D01*
X56443155Y-53330668D01*
X56261767Y-53203658D01*
X56261764Y-53203657D01*
X56261762Y-53203655D01*
X56061083Y-53110078D01*
X56061080Y-53110077D01*
X55897036Y-53066121D01*
X55847188Y-53052764D01*
X55626599Y-53033465D01*
X55406011Y-53052764D01*
X55192116Y-53110078D01*
X54991437Y-53203655D01*
X54810041Y-53330671D01*
X54653471Y-53487241D01*
X54526455Y-53668637D01*
X54468982Y-53791891D01*
X54422810Y-53844331D01*
X54355617Y-53863483D01*
X54288735Y-53843267D01*
X54244218Y-53791891D01*
X54186744Y-53668637D01*
X54186743Y-53668636D01*
X54186742Y-53668633D01*
X54059732Y-53487245D01*
X53903155Y-53330668D01*
X53721767Y-53203658D01*
X53721764Y-53203657D01*
X53721762Y-53203655D01*
X53521083Y-53110078D01*
X53521080Y-53110077D01*
X53357036Y-53066121D01*
X53307188Y-53052764D01*
X53086599Y-53033465D01*
X52866011Y-53052764D01*
X52652116Y-53110078D01*
X52451437Y-53203655D01*
X52270041Y-53330671D01*
X52113471Y-53487241D01*
X51986455Y-53668637D01*
X51928982Y-53791891D01*
X51882810Y-53844331D01*
X51815617Y-53863483D01*
X51748735Y-53843267D01*
X51704218Y-53791891D01*
X51646744Y-53668637D01*
X51646743Y-53668636D01*
X51646742Y-53668633D01*
X51519732Y-53487245D01*
X51363155Y-53330668D01*
X51181767Y-53203658D01*
X51181764Y-53203657D01*
X51181762Y-53203655D01*
X50981083Y-53110078D01*
X50981080Y-53110077D01*
X50817036Y-53066121D01*
X50767188Y-53052764D01*
X50546599Y-53033465D01*
X50326011Y-53052764D01*
X50147115Y-53100700D01*
X50077265Y-53099037D01*
X50019402Y-53059875D01*
X49991898Y-52995647D01*
X49991700Y-52967970D01*
X50002060Y-52869400D01*
X49982274Y-52681144D01*
X49936301Y-52539655D01*
X49923779Y-52501115D01*
X49829133Y-52337183D01*
X49753950Y-52253684D01*
X49723720Y-52190693D01*
X49722100Y-52170712D01*
X49722100Y-49228356D01*
X49722100Y-45922507D01*
X49741784Y-45855472D01*
X49753943Y-45839546D01*
X49869133Y-45711616D01*
X49963779Y-45547684D01*
X50022274Y-45367656D01*
X50042060Y-45179400D01*
X50022274Y-44991144D01*
X49963779Y-44811116D01*
X49963779Y-44811115D01*
X49869133Y-44647183D01*
X49742470Y-44506510D01*
X49589330Y-44395248D01*
X49416402Y-44318255D01*
X49356036Y-44305424D01*
X49294554Y-44272232D01*
X49260778Y-44211069D01*
X49265430Y-44141354D01*
X49294134Y-44096456D01*
X50769371Y-42621219D01*
X50830695Y-42587734D01*
X50857053Y-42584900D01*
X52648256Y-42584900D01*
X52668762Y-42587164D01*
X52671665Y-42587072D01*
X52671667Y-42587073D01*
X52738872Y-42584961D01*
X52742768Y-42584900D01*
X52766448Y-42584900D01*
X52770350Y-42584900D01*
X52774313Y-42584399D01*
X52785962Y-42583480D01*
X52829627Y-42582109D01*
X52848859Y-42576520D01*
X52867918Y-42572574D01*
X52874196Y-42571781D01*
X52887792Y-42570064D01*
X52928407Y-42553982D01*
X52939444Y-42550203D01*
X52981390Y-42538018D01*
X52998629Y-42527822D01*
X53016102Y-42519262D01*
X53034732Y-42511886D01*
X53070064Y-42486214D01*
X53079830Y-42479800D01*
X53117418Y-42457571D01*
X53117417Y-42457571D01*
X53117420Y-42457570D01*
X53131585Y-42443404D01*
X53146373Y-42430773D01*
X53162587Y-42418994D01*
X53190438Y-42385326D01*
X53198279Y-42376709D01*
X55240355Y-40334633D01*
X55301676Y-40301150D01*
X55360127Y-40302540D01*
X55406009Y-40314835D01*
X55543994Y-40326907D01*
X55626599Y-40334134D01*
X55626599Y-40334133D01*
X55626600Y-40334134D01*
X55847191Y-40314835D01*
X56061080Y-40257523D01*
X56261767Y-40163942D01*
X56443155Y-40036932D01*
X56599732Y-39880355D01*
X56726742Y-39698967D01*
X56784218Y-39575707D01*
X56830390Y-39523268D01*
X56897583Y-39504116D01*
X56964464Y-39524331D01*
X57008981Y-39575707D01*
X57066458Y-39698967D01*
X57193468Y-39880355D01*
X57350045Y-40036932D01*
X57531433Y-40163942D01*
X57732120Y-40257523D01*
X57946009Y-40314835D01*
X58083994Y-40326907D01*
X58166599Y-40334134D01*
X58166599Y-40334133D01*
X58166600Y-40334134D01*
X58387191Y-40314835D01*
X58601080Y-40257523D01*
X58801767Y-40163942D01*
X58983155Y-40036932D01*
X59139732Y-39880355D01*
X59266742Y-39698967D01*
X59324218Y-39575707D01*
X59370390Y-39523268D01*
X59437583Y-39504116D01*
X59504464Y-39524331D01*
X59548981Y-39575707D01*
X59606458Y-39698967D01*
X59733468Y-39880355D01*
X59890045Y-40036932D01*
X60071433Y-40163942D01*
X60272120Y-40257523D01*
X60486009Y-40314835D01*
X60706600Y-40334134D01*
X60927191Y-40314835D01*
X61141080Y-40257523D01*
X61341767Y-40163942D01*
X61523155Y-40036932D01*
X61679732Y-39880355D01*
X61806742Y-39698967D01*
X61864218Y-39575707D01*
X61910390Y-39523268D01*
X61977583Y-39504116D01*
X62044464Y-39524331D01*
X62088981Y-39575707D01*
X62146458Y-39698967D01*
X62273468Y-39880355D01*
X62430045Y-40036932D01*
X62611433Y-40163942D01*
X62812120Y-40257523D01*
X63026009Y-40314835D01*
X63246600Y-40334134D01*
X63467191Y-40314835D01*
X63681080Y-40257523D01*
X63881767Y-40163942D01*
X64063155Y-40036932D01*
X64219732Y-39880355D01*
X64346742Y-39698967D01*
X64404218Y-39575707D01*
X64450390Y-39523268D01*
X64517583Y-39504116D01*
X64584464Y-39524331D01*
X64628981Y-39575707D01*
X64686458Y-39698967D01*
X64813468Y-39880355D01*
X64970045Y-40036932D01*
X65151433Y-40163942D01*
X65352120Y-40257523D01*
X65566009Y-40314835D01*
X65703994Y-40326907D01*
X65786599Y-40334134D01*
X65786599Y-40334133D01*
X65786600Y-40334134D01*
X66007191Y-40314835D01*
X66221080Y-40257523D01*
X66421767Y-40163942D01*
X66603155Y-40036932D01*
X66759732Y-39880355D01*
X66886742Y-39698967D01*
X66944218Y-39575707D01*
X66990390Y-39523268D01*
X67057583Y-39504116D01*
X67124464Y-39524331D01*
X67168981Y-39575707D01*
X67226458Y-39698967D01*
X67353468Y-39880355D01*
X67510045Y-40036932D01*
X67691433Y-40163942D01*
X67892120Y-40257523D01*
X68106009Y-40314835D01*
X68326600Y-40334134D01*
X68547191Y-40314835D01*
X68761080Y-40257523D01*
X68961767Y-40163942D01*
X69143155Y-40036932D01*
X69299732Y-39880355D01*
X69396487Y-39742174D01*
X69451064Y-39698551D01*
X69498061Y-39689300D01*
X78531748Y-39689300D01*
X78598787Y-39708985D01*
X78619429Y-39725619D01*
X81329981Y-42436171D01*
X81363466Y-42497494D01*
X81366300Y-42523852D01*
X81366300Y-46998829D01*
X81346615Y-47065868D01*
X81315188Y-47099145D01*
X81309729Y-47103111D01*
X81183066Y-47243783D01*
X81088420Y-47407715D01*
X81029926Y-47587742D01*
X81010140Y-47776000D01*
X81029926Y-47964257D01*
X81088420Y-48144284D01*
X81183066Y-48308216D01*
X81309729Y-48448889D01*
X81462869Y-48560151D01*
X81635797Y-48637144D01*
X81820952Y-48676500D01*
X81891100Y-48676500D01*
X81958139Y-48696185D01*
X82003894Y-48748989D01*
X82015100Y-48800500D01*
X82015100Y-56412203D01*
X81995415Y-56479242D01*
X81963988Y-56512519D01*
X81944732Y-56526509D01*
X81818064Y-56667186D01*
X81723420Y-56831115D01*
X81664926Y-57011142D01*
X81645140Y-57199400D01*
X81664926Y-57387657D01*
X81723420Y-57567684D01*
X81818066Y-57731616D01*
X81944729Y-57872289D01*
X82097869Y-57983551D01*
X82270797Y-58060544D01*
X82455952Y-58099900D01*
X82455954Y-58099900D01*
X82645248Y-58099900D01*
X82768683Y-58073662D01*
X82830403Y-58060544D01*
X83003330Y-57983551D01*
X83156471Y-57872288D01*
X83283133Y-57731616D01*
X83377779Y-57567684D01*
X83436274Y-57387656D01*
X83456060Y-57199400D01*
X83443730Y-57082087D01*
X83456300Y-57013360D01*
X83504032Y-56962336D01*
X83571772Y-56945218D01*
X83592823Y-56947836D01*
X83605354Y-56950500D01*
X83605357Y-56950500D01*
X83794648Y-56950500D01*
X83918084Y-56924262D01*
X83979803Y-56911144D01*
X84152730Y-56834151D01*
X84305871Y-56722888D01*
X84432533Y-56582216D01*
X84527179Y-56418284D01*
X84585674Y-56238256D01*
X84605460Y-56050000D01*
X84585674Y-55861744D01*
X84527179Y-55681716D01*
X84527179Y-55681715D01*
X84432533Y-55517783D01*
X84305870Y-55377110D01*
X84152730Y-55265848D01*
X83979802Y-55188855D01*
X83814319Y-55153681D01*
X83752837Y-55120489D01*
X83719061Y-55059326D01*
X83716100Y-55032391D01*
X83716100Y-40371893D01*
X83719996Y-40341054D01*
X83723629Y-40326907D01*
X83725500Y-40319619D01*
X83725500Y-40299583D01*
X83727027Y-40280184D01*
X83728058Y-40273673D01*
X83730160Y-40260404D01*
X83726050Y-40216924D01*
X83725500Y-40205255D01*
X83725500Y-38672452D01*
X83745185Y-38605413D01*
X83761819Y-38584771D01*
X87578372Y-34768219D01*
X87639695Y-34734734D01*
X87666053Y-34731900D01*
X87725248Y-34731900D01*
X87849656Y-34705456D01*
X87910403Y-34692544D01*
X88083330Y-34615551D01*
X88138037Y-34575804D01*
X88236470Y-34504289D01*
X88363133Y-34363616D01*
X88457779Y-34199684D01*
X88501809Y-34064175D01*
X88541247Y-34006499D01*
X88605605Y-33979301D01*
X88674451Y-33991216D01*
X88707421Y-34014812D01*
X89180838Y-34488229D01*
X89214323Y-34549552D01*
X89216478Y-34562948D01*
X89234126Y-34730857D01*
X89292620Y-34910884D01*
X89387266Y-35074816D01*
X89513929Y-35215489D01*
X89667069Y-35326751D01*
X89839997Y-35403744D01*
X90025152Y-35443100D01*
X90025154Y-35443100D01*
X90214448Y-35443100D01*
X90342399Y-35415903D01*
X90399603Y-35403744D01*
X90572530Y-35326751D01*
X90725671Y-35215488D01*
X90762985Y-35174045D01*
X90822471Y-35137398D01*
X90892328Y-35138727D01*
X90947286Y-35174047D01*
X90961730Y-35190089D01*
X91114869Y-35301351D01*
X91287797Y-35378344D01*
X91472952Y-35417700D01*
X91472954Y-35417700D01*
X91662248Y-35417700D01*
X91785683Y-35391462D01*
X91847403Y-35378344D01*
X92020330Y-35301351D01*
X92091429Y-35249695D01*
X92173470Y-35190089D01*
X92300133Y-35049416D01*
X92394779Y-34885484D01*
X92441109Y-34742895D01*
X92453274Y-34705456D01*
X92473060Y-34517200D01*
X92453274Y-34328944D01*
X92411275Y-34199684D01*
X92394779Y-34148915D01*
X92300133Y-33984983D01*
X92173470Y-33844310D01*
X92020330Y-33733048D01*
X91847402Y-33656055D01*
X91662248Y-33616700D01*
X91662246Y-33616700D01*
X91603053Y-33616700D01*
X91536014Y-33597015D01*
X91515372Y-33580381D01*
X90722202Y-32787211D01*
X90709306Y-32771113D01*
X90658175Y-32723098D01*
X90655378Y-32720387D01*
X90638627Y-32703636D01*
X90635871Y-32700880D01*
X90632690Y-32698412D01*
X90623822Y-32690837D01*
X90591982Y-32660938D01*
X90574424Y-32651285D01*
X90558164Y-32640604D01*
X90542336Y-32628327D01*
X90502251Y-32610980D01*
X90491761Y-32605841D01*
X90453491Y-32584802D01*
X90434091Y-32579821D01*
X90415684Y-32573519D01*
X90397297Y-32565562D01*
X90354158Y-32558729D01*
X90342724Y-32556361D01*
X90300419Y-32545500D01*
X90280384Y-32545500D01*
X90260986Y-32543973D01*
X90253562Y-32542797D01*
X90241205Y-32540840D01*
X90241204Y-32540840D01*
X90208151Y-32543964D01*
X90197725Y-32544950D01*
X90186056Y-32545500D01*
X89719053Y-32545500D01*
X89652014Y-32525815D01*
X89631372Y-32509181D01*
X83254602Y-26132411D01*
X83241706Y-26116313D01*
X83190575Y-26068298D01*
X83187778Y-26065587D01*
X83171027Y-26048836D01*
X83168271Y-26046080D01*
X83165090Y-26043612D01*
X83156222Y-26036037D01*
X83124382Y-26006138D01*
X83106824Y-25996485D01*
X83090564Y-25985804D01*
X83074736Y-25973527D01*
X83034651Y-25956180D01*
X83024161Y-25951041D01*
X82985891Y-25930002D01*
X82966491Y-25925021D01*
X82948084Y-25918719D01*
X82929697Y-25910762D01*
X82886558Y-25903929D01*
X82875124Y-25901561D01*
X82832819Y-25890700D01*
X82812784Y-25890700D01*
X82793386Y-25889173D01*
X82785962Y-25887997D01*
X82773605Y-25886040D01*
X82773604Y-25886040D01*
X82747686Y-25888490D01*
X82730125Y-25890150D01*
X82718456Y-25890700D01*
X75368052Y-25890700D01*
X75301013Y-25871015D01*
X75280371Y-25854381D01*
X74839970Y-25413979D01*
X74806485Y-25352656D01*
X74804333Y-25339278D01*
X74785674Y-25161744D01*
X74727179Y-24981716D01*
X74727179Y-24981715D01*
X74632533Y-24817783D01*
X74505870Y-24677110D01*
X74352730Y-24565848D01*
X74179802Y-24488855D01*
X73994648Y-24449500D01*
X73994646Y-24449500D01*
X73805354Y-24449500D01*
X73805352Y-24449500D01*
X73620197Y-24488855D01*
X73447269Y-24565848D01*
X73294129Y-24677110D01*
X73167466Y-24817783D01*
X73072820Y-24981715D01*
X73014326Y-25161742D01*
X72994540Y-25350000D01*
X73014326Y-25538257D01*
X73072820Y-25718284D01*
X73167466Y-25882216D01*
X73294129Y-26022889D01*
X73447269Y-26134151D01*
X73620197Y-26211144D01*
X73805352Y-26250500D01*
X73805354Y-26250500D01*
X73855948Y-26250500D01*
X73922987Y-26270185D01*
X73943629Y-26286819D01*
X74057242Y-26400432D01*
X74090727Y-26461755D01*
X74085743Y-26531447D01*
X74065104Y-26567154D01*
X74039373Y-26598257D01*
X74031511Y-26606897D01*
X73875227Y-26763182D01*
X73813907Y-26796666D01*
X73787548Y-26799500D01*
X73755352Y-26799500D01*
X73570197Y-26838855D01*
X73397269Y-26915848D01*
X73244129Y-27027110D01*
X73117466Y-27167783D01*
X73022820Y-27331715D01*
X72964326Y-27511742D01*
X72944540Y-27700000D01*
X72964326Y-27888257D01*
X73022820Y-28068284D01*
X73117466Y-28232216D01*
X73244129Y-28372889D01*
X73397269Y-28484151D01*
X73570197Y-28561144D01*
X73755352Y-28600500D01*
X73755354Y-28600500D01*
X73944648Y-28600500D01*
X74068083Y-28574262D01*
X74129803Y-28561144D01*
X74302730Y-28484151D01*
X74455870Y-28372889D01*
X74582533Y-28232216D01*
X74677179Y-28068284D01*
X74683609Y-28048494D01*
X74735674Y-27888256D01*
X74749076Y-27760736D01*
X74775661Y-27696124D01*
X74832958Y-27656139D01*
X74872397Y-27649700D01*
X82290948Y-27649700D01*
X82357987Y-27669385D01*
X82378629Y-27686019D01*
X87446671Y-32754062D01*
X87480156Y-32815385D01*
X87475172Y-32885077D01*
X87433300Y-32941010D01*
X87384773Y-32963033D01*
X87350796Y-32970255D01*
X87177869Y-33047248D01*
X87024729Y-33158510D01*
X86898066Y-33299183D01*
X86803420Y-33463115D01*
X86744926Y-33643142D01*
X86727278Y-33811051D01*
X86700693Y-33875666D01*
X86691638Y-33885770D01*
X82716208Y-37861199D01*
X82700110Y-37874096D01*
X82652096Y-37925225D01*
X82649392Y-37928016D01*
X82632628Y-37944780D01*
X82632621Y-37944787D01*
X82629880Y-37947529D01*
X82627499Y-37950597D01*
X82627490Y-37950608D01*
X82627411Y-37950711D01*
X82619842Y-37959572D01*
X82589935Y-37991420D01*
X82580285Y-38008974D01*
X82569609Y-38025228D01*
X82557326Y-38041063D01*
X82539975Y-38081158D01*
X82534838Y-38091644D01*
X82513802Y-38129907D01*
X82508821Y-38149309D01*
X82502520Y-38167711D01*
X82494561Y-38186102D01*
X82487728Y-38229242D01*
X82485360Y-38240674D01*
X82474499Y-38282977D01*
X82474500Y-38303016D01*
X82472973Y-38322414D01*
X82469840Y-38342194D01*
X82473950Y-38385673D01*
X82474500Y-38397343D01*
X82474500Y-40118706D01*
X82470604Y-40149544D01*
X82465100Y-40170980D01*
X82465100Y-40191016D01*
X82463573Y-40210414D01*
X82460440Y-40230194D01*
X82464550Y-40273673D01*
X82465100Y-40285343D01*
X82465100Y-40565547D01*
X82445415Y-40632586D01*
X82392611Y-40678341D01*
X82323453Y-40688285D01*
X82259897Y-40659260D01*
X82253419Y-40653228D01*
X80086818Y-38486627D01*
X80053333Y-38425304D01*
X80050499Y-38398946D01*
X80050499Y-38391492D01*
X80050499Y-38373684D01*
X80070184Y-38306648D01*
X80082350Y-38290714D01*
X80089313Y-38282981D01*
X80157533Y-38207216D01*
X80252179Y-38043284D01*
X80310674Y-37863256D01*
X80330460Y-37675000D01*
X80310674Y-37486744D01*
X80252179Y-37306716D01*
X80252179Y-37306715D01*
X80157533Y-37142783D01*
X80030870Y-37002110D01*
X79877730Y-36890848D01*
X79704802Y-36813855D01*
X79519648Y-36774500D01*
X79519646Y-36774500D01*
X79330354Y-36774500D01*
X79330352Y-36774500D01*
X79145197Y-36813855D01*
X78972269Y-36890848D01*
X78819129Y-37002110D01*
X78692466Y-37142783D01*
X78597820Y-37306715D01*
X78539326Y-37486742D01*
X78519540Y-37675000D01*
X78539326Y-37863257D01*
X78597820Y-38043284D01*
X78692466Y-38207216D01*
X78714177Y-38231328D01*
X78744407Y-38294319D01*
X78735782Y-38363655D01*
X78691040Y-38417320D01*
X78624388Y-38438278D01*
X78622027Y-38438300D01*
X69498061Y-38438300D01*
X69431022Y-38418615D01*
X69396487Y-38385425D01*
X69299732Y-38247245D01*
X69143155Y-38090668D01*
X68961767Y-37963658D01*
X68961764Y-37963657D01*
X68961762Y-37963655D01*
X68761083Y-37870078D01*
X68761080Y-37870077D01*
X68593069Y-37825058D01*
X68547188Y-37812764D01*
X68326599Y-37793465D01*
X68106011Y-37812764D01*
X67892116Y-37870078D01*
X67691437Y-37963655D01*
X67691432Y-37963658D01*
X67691433Y-37963658D01*
X67510047Y-38090667D01*
X67510041Y-38090671D01*
X67353471Y-38247241D01*
X67353468Y-38247244D01*
X67353468Y-38247245D01*
X67311873Y-38306648D01*
X67226455Y-38428637D01*
X67168982Y-38551891D01*
X67122810Y-38604331D01*
X67055617Y-38623483D01*
X66988735Y-38603267D01*
X66944218Y-38551891D01*
X66886744Y-38428637D01*
X66886743Y-38428636D01*
X66886742Y-38428633D01*
X66759732Y-38247245D01*
X66603155Y-38090668D01*
X66421767Y-37963658D01*
X66421764Y-37963657D01*
X66421762Y-37963655D01*
X66221083Y-37870078D01*
X66221080Y-37870077D01*
X66053069Y-37825058D01*
X66007188Y-37812764D01*
X65786599Y-37793465D01*
X65703994Y-37800692D01*
X65635494Y-37786925D01*
X65585311Y-37738309D01*
X65569378Y-37670281D01*
X65592754Y-37604437D01*
X65605500Y-37589489D01*
X67620389Y-35574600D01*
X67636485Y-35561706D01*
X67638473Y-35559587D01*
X67638477Y-35559586D01*
X67684549Y-35510523D01*
X67687134Y-35507855D01*
X67706720Y-35488271D01*
X67709185Y-35485092D01*
X67716767Y-35476216D01*
X67722687Y-35469912D01*
X67746662Y-35444382D01*
X67756317Y-35426818D01*
X67766994Y-35410564D01*
X67779273Y-35394736D01*
X67796618Y-35354652D01*
X67801760Y-35344156D01*
X67811329Y-35326751D01*
X67822797Y-35305892D01*
X67827779Y-35286484D01*
X67834081Y-35268080D01*
X67842037Y-35249696D01*
X67848869Y-35206552D01*
X67851233Y-35195138D01*
X67862100Y-35152819D01*
X67862100Y-35132782D01*
X67863627Y-35113384D01*
X67866760Y-35093604D01*
X67862650Y-35050124D01*
X67862100Y-35038455D01*
X67862100Y-33704399D01*
X69002940Y-33704399D01*
X69023536Y-33939807D01*
X69068309Y-34106901D01*
X69084697Y-34168063D01*
X69184565Y-34382230D01*
X69320105Y-34575801D01*
X69487199Y-34742895D01*
X69680770Y-34878435D01*
X69894937Y-34978303D01*
X70123192Y-35039463D01*
X70358600Y-35060059D01*
X70594008Y-35039463D01*
X70822263Y-34978303D01*
X71036430Y-34878435D01*
X71230001Y-34742895D01*
X71397095Y-34575801D01*
X71532635Y-34382230D01*
X71632503Y-34168063D01*
X71693663Y-33939808D01*
X71714259Y-33704400D01*
X71708899Y-33643142D01*
X71693663Y-33468992D01*
X71658010Y-33335933D01*
X71632503Y-33240737D01*
X71532635Y-33026571D01*
X71397095Y-32832999D01*
X71230001Y-32665905D01*
X71044439Y-32535973D01*
X71000816Y-32481398D01*
X70993622Y-32411900D01*
X71025145Y-32349545D01*
X71044437Y-32332828D01*
X71230001Y-32202895D01*
X71397095Y-32035801D01*
X71532635Y-31842230D01*
X71632503Y-31628063D01*
X71693663Y-31399808D01*
X71714259Y-31164400D01*
X71693663Y-30928992D01*
X71632503Y-30700737D01*
X71532635Y-30486571D01*
X71397095Y-30292999D01*
X71275169Y-30171072D01*
X71241684Y-30109750D01*
X71246668Y-30040058D01*
X71288540Y-29984125D01*
X71319515Y-29967210D01*
X71450931Y-29918196D01*
X71566146Y-29831946D01*
X71652396Y-29716731D01*
X71702691Y-29581883D01*
X71709100Y-29522273D01*
X71709099Y-27726528D01*
X71702691Y-27666917D01*
X71652396Y-27532069D01*
X71566146Y-27416854D01*
X71450931Y-27330604D01*
X71316083Y-27280309D01*
X71256473Y-27273900D01*
X71253150Y-27273900D01*
X69464039Y-27273900D01*
X69464020Y-27273900D01*
X69460728Y-27273901D01*
X69457448Y-27274253D01*
X69457440Y-27274254D01*
X69401115Y-27280309D01*
X69266269Y-27330604D01*
X69151054Y-27416854D01*
X69064804Y-27532068D01*
X69014509Y-27666916D01*
X69012261Y-27687830D01*
X69008100Y-27726527D01*
X69008100Y-27729848D01*
X69008100Y-27729849D01*
X69008100Y-29518960D01*
X69008100Y-29518978D01*
X69008101Y-29522272D01*
X69008453Y-29525552D01*
X69008454Y-29525559D01*
X69013996Y-29577110D01*
X69014509Y-29581883D01*
X69064804Y-29716731D01*
X69151054Y-29831946D01*
X69266269Y-29918196D01*
X69378507Y-29960058D01*
X69397682Y-29967210D01*
X69453616Y-30009081D01*
X69478033Y-30074546D01*
X69463181Y-30142819D01*
X69442031Y-30171073D01*
X69320103Y-30293001D01*
X69184565Y-30486570D01*
X69084697Y-30700736D01*
X69023536Y-30928992D01*
X69002940Y-31164400D01*
X69023536Y-31399807D01*
X69068309Y-31566902D01*
X69084697Y-31628063D01*
X69184565Y-31842230D01*
X69320105Y-32035801D01*
X69487199Y-32202895D01*
X69672760Y-32332826D01*
X69716383Y-32387402D01*
X69723576Y-32456901D01*
X69692054Y-32519255D01*
X69672758Y-32535975D01*
X69508075Y-32651288D01*
X69487195Y-32665908D01*
X69320105Y-32832998D01*
X69184565Y-33026570D01*
X69084697Y-33240736D01*
X69023536Y-33468992D01*
X69002940Y-33704399D01*
X67862100Y-33704399D01*
X67862100Y-25939852D01*
X67881785Y-25872813D01*
X67898419Y-25852171D01*
X68809372Y-24941219D01*
X68870695Y-24907734D01*
X68897053Y-24904900D01*
X69286856Y-24904900D01*
X69307362Y-24907164D01*
X69310265Y-24907072D01*
X69310267Y-24907073D01*
X69377472Y-24904961D01*
X69381368Y-24904900D01*
X69405048Y-24904900D01*
X69408950Y-24904900D01*
X69412913Y-24904399D01*
X69424562Y-24903480D01*
X69468227Y-24902109D01*
X69487459Y-24896520D01*
X69506518Y-24892574D01*
X69512796Y-24891781D01*
X69526392Y-24890064D01*
X69567007Y-24873982D01*
X69578044Y-24870203D01*
X69619990Y-24858018D01*
X69637229Y-24847822D01*
X69654702Y-24839262D01*
X69673332Y-24831886D01*
X69708664Y-24806214D01*
X69718430Y-24799800D01*
X69756018Y-24777571D01*
X69756017Y-24777571D01*
X69756020Y-24777570D01*
X69770185Y-24763404D01*
X69784973Y-24750773D01*
X69801187Y-24738994D01*
X69829038Y-24705326D01*
X69836879Y-24696709D01*
X69902953Y-24630635D01*
X69964274Y-24597152D01*
X70022725Y-24598542D01*
X70123192Y-24625463D01*
X70358600Y-24646059D01*
X70594008Y-24625463D01*
X70822263Y-24564303D01*
X71036430Y-24464435D01*
X71230001Y-24328895D01*
X71397095Y-24161801D01*
X71532635Y-23968230D01*
X71632503Y-23754063D01*
X71693663Y-23525808D01*
X71714259Y-23290400D01*
X71708318Y-23222501D01*
X71693663Y-23054992D01*
X71670485Y-22968491D01*
X71632503Y-22826737D01*
X71532635Y-22612571D01*
X71397095Y-22418999D01*
X71230001Y-22251905D01*
X71044439Y-22121973D01*
X71000816Y-22067398D01*
X70993622Y-21997900D01*
X71025145Y-21935545D01*
X71044437Y-21918828D01*
X71230001Y-21788895D01*
X71397095Y-21621801D01*
X71532635Y-21428230D01*
X71632503Y-21214063D01*
X71693663Y-20985808D01*
X71714259Y-20750400D01*
X71698855Y-20574341D01*
X71693663Y-20514992D01*
X71673703Y-20440500D01*
X71632503Y-20286737D01*
X71532635Y-20072571D01*
X71397095Y-19878999D01*
X71275169Y-19757073D01*
X71241684Y-19695750D01*
X71246668Y-19626058D01*
X71288540Y-19570125D01*
X71319515Y-19553210D01*
X71450931Y-19504196D01*
X71566146Y-19417946D01*
X71652396Y-19302731D01*
X71702691Y-19167883D01*
X71709100Y-19108273D01*
X71709099Y-17312528D01*
X71702691Y-17252917D01*
X71652396Y-17118069D01*
X71566146Y-17002854D01*
X71450931Y-16916604D01*
X71316083Y-16866309D01*
X71256473Y-16859900D01*
X71253150Y-16859900D01*
X69464039Y-16859900D01*
X69464020Y-16859900D01*
X69460728Y-16859901D01*
X69457448Y-16860253D01*
X69457440Y-16860254D01*
X69401115Y-16866309D01*
X69266269Y-16916604D01*
X69151054Y-17002854D01*
X69064804Y-17118068D01*
X69014510Y-17252915D01*
X69014509Y-17252917D01*
X69008100Y-17312527D01*
X69008100Y-17315848D01*
X69008100Y-17315849D01*
X69008100Y-19104960D01*
X69008100Y-19104978D01*
X69008101Y-19108272D01*
X69008453Y-19111552D01*
X69008454Y-19111559D01*
X69014509Y-19167884D01*
X69039656Y-19235307D01*
X69064804Y-19302731D01*
X69151054Y-19417946D01*
X69266269Y-19504196D01*
X69378507Y-19546058D01*
X69397682Y-19553210D01*
X69453616Y-19595081D01*
X69478033Y-19660546D01*
X69463181Y-19728819D01*
X69442031Y-19757073D01*
X69320103Y-19879001D01*
X69184565Y-20072570D01*
X69084697Y-20286736D01*
X69023536Y-20514992D01*
X69002940Y-20750399D01*
X69023536Y-20985807D01*
X69043041Y-21058599D01*
X69084697Y-21214063D01*
X69184565Y-21428230D01*
X69320105Y-21621801D01*
X69487199Y-21788895D01*
X69672760Y-21918826D01*
X69716383Y-21973402D01*
X69723576Y-22042901D01*
X69692054Y-22105255D01*
X69672758Y-22121975D01*
X69506204Y-22238598D01*
X69487195Y-22251908D01*
X69320105Y-22418998D01*
X69184565Y-22612570D01*
X69084697Y-22826736D01*
X69023536Y-23054992D01*
X69002940Y-23290399D01*
X69022949Y-23519092D01*
X69009182Y-23587592D01*
X68960567Y-23637776D01*
X68899421Y-23653900D01*
X68669340Y-23653900D01*
X68648836Y-23651636D01*
X68578744Y-23653839D01*
X68574850Y-23653900D01*
X68547250Y-23653900D01*
X68543399Y-23654386D01*
X68543368Y-23654388D01*
X68543240Y-23654405D01*
X68531628Y-23655318D01*
X68487972Y-23656690D01*
X68468735Y-23662279D01*
X68449694Y-23666222D01*
X68429808Y-23668735D01*
X68389182Y-23684819D01*
X68378137Y-23688600D01*
X68336213Y-23700781D01*
X68318965Y-23710981D01*
X68301503Y-23719535D01*
X68289515Y-23724281D01*
X68282865Y-23726915D01*
X68247526Y-23752589D01*
X68237768Y-23758999D01*
X68200179Y-23781229D01*
X68186010Y-23795398D01*
X68171222Y-23808028D01*
X68155013Y-23819805D01*
X68127172Y-23853458D01*
X68119311Y-23862096D01*
X66852808Y-25128599D01*
X66836710Y-25141496D01*
X66788696Y-25192625D01*
X66785992Y-25195416D01*
X66769228Y-25212180D01*
X66769221Y-25212187D01*
X66766480Y-25214929D01*
X66764099Y-25217997D01*
X66764090Y-25218008D01*
X66764011Y-25218111D01*
X66756442Y-25226972D01*
X66726535Y-25258820D01*
X66716885Y-25276374D01*
X66706209Y-25292628D01*
X66693926Y-25308463D01*
X66676575Y-25348558D01*
X66671438Y-25359044D01*
X66650402Y-25397307D01*
X66645421Y-25416709D01*
X66639120Y-25435111D01*
X66631161Y-25453502D01*
X66624328Y-25496642D01*
X66621960Y-25508074D01*
X66611100Y-25550377D01*
X66611100Y-25570416D01*
X66609572Y-25589814D01*
X66606440Y-25609596D01*
X66607194Y-25617574D01*
X66610550Y-25653073D01*
X66611100Y-25664743D01*
X66611100Y-26134642D01*
X66591415Y-26201681D01*
X66538611Y-26247436D01*
X66469453Y-26257380D01*
X66405897Y-26228355D01*
X66385527Y-26205769D01*
X66338495Y-26138599D01*
X66171401Y-25971505D01*
X65985839Y-25841573D01*
X65942216Y-25786998D01*
X65935022Y-25717500D01*
X65966545Y-25655145D01*
X65985837Y-25638428D01*
X66171401Y-25508495D01*
X66338495Y-25341401D01*
X66474035Y-25147830D01*
X66573903Y-24933663D01*
X66635063Y-24705408D01*
X66655659Y-24470000D01*
X66635063Y-24234592D01*
X66573903Y-24006337D01*
X66474035Y-23792171D01*
X66338495Y-23598599D01*
X66171401Y-23431505D01*
X65985839Y-23301573D01*
X65942216Y-23246998D01*
X65935022Y-23177500D01*
X65966545Y-23115145D01*
X65985837Y-23098428D01*
X66171401Y-22968495D01*
X66338495Y-22801401D01*
X66474035Y-22607830D01*
X66573903Y-22393663D01*
X66635063Y-22165408D01*
X66655659Y-21930000D01*
X66649753Y-21862501D01*
X66635063Y-21694592D01*
X66615559Y-21621801D01*
X66573903Y-21466337D01*
X66474035Y-21252171D01*
X66338495Y-21058599D01*
X66171401Y-20891505D01*
X65977830Y-20755965D01*
X65763663Y-20656097D01*
X65702502Y-20639709D01*
X65535407Y-20594936D01*
X65300000Y-20574340D01*
X65064592Y-20594936D01*
X64836336Y-20656097D01*
X64622170Y-20755965D01*
X64428598Y-20891505D01*
X64261505Y-21058598D01*
X64125965Y-21252170D01*
X64026097Y-21466336D01*
X63964936Y-21694592D01*
X63944340Y-21929999D01*
X63964936Y-22165407D01*
X63988114Y-22251908D01*
X64026097Y-22393663D01*
X64125965Y-22607830D01*
X64261505Y-22801401D01*
X64428599Y-22968495D01*
X64614160Y-23098426D01*
X64657783Y-23153002D01*
X64664976Y-23222501D01*
X64633454Y-23284855D01*
X64614159Y-23301575D01*
X64428595Y-23431508D01*
X64261505Y-23598598D01*
X64125965Y-23792170D01*
X64026097Y-24006336D01*
X63964936Y-24234592D01*
X63944340Y-24470000D01*
X63964936Y-24705407D01*
X64001765Y-24842853D01*
X64026097Y-24933663D01*
X64125965Y-25147830D01*
X64261505Y-25341401D01*
X64428599Y-25508495D01*
X64614160Y-25638426D01*
X64657783Y-25693002D01*
X64664976Y-25762501D01*
X64633454Y-25824855D01*
X64614158Y-25841575D01*
X64450486Y-25956180D01*
X64428595Y-25971508D01*
X64261505Y-26138598D01*
X64125965Y-26332170D01*
X64026097Y-26546336D01*
X63964936Y-26774592D01*
X63957623Y-26858175D01*
X63932170Y-26923243D01*
X63875578Y-26964221D01*
X63805816Y-26968098D01*
X63746414Y-26935047D01*
X63312189Y-26500822D01*
X62675728Y-25864360D01*
X62663946Y-25850727D01*
X62649609Y-25831469D01*
X62611666Y-25799631D01*
X62603691Y-25792323D01*
X62602329Y-25790961D01*
X62599777Y-25788409D01*
X62575444Y-25769169D01*
X62572647Y-25766890D01*
X62514251Y-25717890D01*
X62497821Y-25707422D01*
X62428691Y-25675186D01*
X62425447Y-25673615D01*
X62357306Y-25639394D01*
X62338903Y-25632997D01*
X62264211Y-25617574D01*
X62260692Y-25616794D01*
X62186490Y-25599208D01*
X62167121Y-25597229D01*
X62090869Y-25599448D01*
X62087263Y-25599500D01*
X52063706Y-25599500D01*
X52045736Y-25598191D01*
X52031853Y-25596157D01*
X52021977Y-25594711D01*
X52021976Y-25594711D01*
X51972631Y-25599028D01*
X51961824Y-25599500D01*
X51956291Y-25599500D01*
X51952730Y-25599916D01*
X51952715Y-25599917D01*
X51925501Y-25603098D01*
X51921916Y-25603464D01*
X51845961Y-25610109D01*
X51826921Y-25614330D01*
X51755232Y-25640421D01*
X51751831Y-25641603D01*
X51679474Y-25665580D01*
X51661927Y-25674075D01*
X51598221Y-25715975D01*
X51595181Y-25717912D01*
X51530280Y-25757944D01*
X51515164Y-25770257D01*
X51462831Y-25825726D01*
X51460319Y-25828312D01*
X47947228Y-29341402D01*
X47885905Y-29374887D01*
X47885330Y-29375011D01*
X47820197Y-29388856D01*
X47647267Y-29465849D01*
X47494129Y-29577110D01*
X47367466Y-29717783D01*
X47272820Y-29881715D01*
X47214326Y-30061742D01*
X47196870Y-30227827D01*
X47194540Y-30250000D01*
X47200154Y-30303417D01*
X47214326Y-30438257D01*
X47272820Y-30618284D01*
X47367466Y-30782216D01*
X47494129Y-30922889D01*
X47647269Y-31034151D01*
X47820197Y-31111144D01*
X48005352Y-31150500D01*
X48005354Y-31150500D01*
X48194648Y-31150500D01*
X48318084Y-31124262D01*
X48379803Y-31111144D01*
X48552730Y-31034151D01*
X48705871Y-30922888D01*
X48832533Y-30782216D01*
X48927179Y-30618284D01*
X48982522Y-30447955D01*
X49012769Y-30398597D01*
X52274548Y-27136819D01*
X52335872Y-27103334D01*
X52362230Y-27100500D01*
X61737770Y-27100500D01*
X61804809Y-27120185D01*
X61825451Y-27136819D01*
X63927130Y-29238497D01*
X63960615Y-29299820D01*
X63962977Y-29336985D01*
X63944340Y-29549999D01*
X63964936Y-29785407D01*
X63987143Y-29868284D01*
X64026097Y-30013663D01*
X64125965Y-30227830D01*
X64261505Y-30421401D01*
X64428599Y-30588495D01*
X64622170Y-30724035D01*
X64836337Y-30823903D01*
X65064592Y-30885063D01*
X65300000Y-30905659D01*
X65535408Y-30885063D01*
X65763663Y-30823903D01*
X65977830Y-30724035D01*
X66171401Y-30588495D01*
X66338495Y-30421401D01*
X66385527Y-30354232D01*
X66440102Y-30310610D01*
X66509601Y-30303417D01*
X66571955Y-30334939D01*
X66607369Y-30395169D01*
X66611100Y-30425358D01*
X66611099Y-34763346D01*
X66591414Y-34830385D01*
X66574780Y-34851027D01*
X63632843Y-37792964D01*
X63571520Y-37826449D01*
X63513069Y-37825058D01*
X63467191Y-37812765D01*
X63467190Y-37812764D01*
X63467187Y-37812764D01*
X63246599Y-37793465D01*
X63026011Y-37812764D01*
X62812116Y-37870078D01*
X62611437Y-37963655D01*
X62611432Y-37963658D01*
X62611433Y-37963658D01*
X62430047Y-38090667D01*
X62430041Y-38090671D01*
X62273471Y-38247241D01*
X62273468Y-38247244D01*
X62273468Y-38247245D01*
X62231873Y-38306648D01*
X62146455Y-38428637D01*
X62088982Y-38551891D01*
X62042810Y-38604331D01*
X61975617Y-38623483D01*
X61908735Y-38603267D01*
X61864218Y-38551891D01*
X61806744Y-38428637D01*
X61806743Y-38428636D01*
X61806742Y-38428633D01*
X61679732Y-38247245D01*
X61523155Y-38090668D01*
X61341767Y-37963658D01*
X61341764Y-37963657D01*
X61341762Y-37963655D01*
X61141083Y-37870078D01*
X61141080Y-37870077D01*
X60973069Y-37825058D01*
X60927188Y-37812764D01*
X60706599Y-37793465D01*
X60486011Y-37812764D01*
X60272116Y-37870078D01*
X60071437Y-37963655D01*
X60071432Y-37963658D01*
X60071433Y-37963658D01*
X59890047Y-38090667D01*
X59890041Y-38090671D01*
X59733471Y-38247241D01*
X59733468Y-38247244D01*
X59733468Y-38247245D01*
X59691873Y-38306648D01*
X59606455Y-38428637D01*
X59548982Y-38551891D01*
X59502810Y-38604331D01*
X59435617Y-38623483D01*
X59368735Y-38603267D01*
X59324218Y-38551891D01*
X59266744Y-38428637D01*
X59266743Y-38428636D01*
X59266742Y-38428633D01*
X59139732Y-38247245D01*
X58983155Y-38090668D01*
X58801767Y-37963658D01*
X58801764Y-37963657D01*
X58801762Y-37963655D01*
X58601083Y-37870078D01*
X58601080Y-37870077D01*
X58433069Y-37825058D01*
X58387188Y-37812764D01*
X58166599Y-37793465D01*
X57946011Y-37812764D01*
X57732116Y-37870078D01*
X57531437Y-37963655D01*
X57531432Y-37963658D01*
X57531433Y-37963658D01*
X57350047Y-38090667D01*
X57350041Y-38090671D01*
X57193471Y-38247241D01*
X57193468Y-38247244D01*
X57193468Y-38247245D01*
X57151873Y-38306648D01*
X57066455Y-38428637D01*
X57008982Y-38551891D01*
X56962810Y-38604331D01*
X56895617Y-38623483D01*
X56828735Y-38603267D01*
X56784218Y-38551891D01*
X56726744Y-38428637D01*
X56726743Y-38428636D01*
X56726742Y-38428633D01*
X56599732Y-38247245D01*
X56443155Y-38090668D01*
X56261767Y-37963658D01*
X56261764Y-37963657D01*
X56261762Y-37963655D01*
X56061083Y-37870078D01*
X56061080Y-37870077D01*
X55893069Y-37825058D01*
X55847188Y-37812764D01*
X55626600Y-37793465D01*
X55395201Y-37813710D01*
X55394977Y-37811155D01*
X55340774Y-37809863D01*
X55282913Y-37770699D01*
X55255411Y-37706470D01*
X55256061Y-37672355D01*
X55262268Y-37633164D01*
X55264633Y-37621738D01*
X55275500Y-37579419D01*
X55275500Y-37559382D01*
X55277027Y-37539984D01*
X55280160Y-37520204D01*
X55276050Y-37476724D01*
X55275500Y-37465055D01*
X55275500Y-37398687D01*
X55295185Y-37331648D01*
X55307350Y-37315714D01*
X55329301Y-37291335D01*
X55382533Y-37232216D01*
X55434167Y-37142784D01*
X55477179Y-37068284D01*
X55498084Y-37003944D01*
X55535674Y-36888256D01*
X55555460Y-36700000D01*
X55535674Y-36511744D01*
X55477179Y-36331716D01*
X55477179Y-36331715D01*
X55382533Y-36167783D01*
X55255870Y-36027110D01*
X55102730Y-35915848D01*
X54929802Y-35838855D01*
X54744648Y-35799500D01*
X54744646Y-35799500D01*
X54555354Y-35799500D01*
X54555352Y-35799500D01*
X54370197Y-35838855D01*
X54197269Y-35915848D01*
X54044129Y-36027110D01*
X53917466Y-36167783D01*
X53822820Y-36331715D01*
X53764326Y-36511742D01*
X53744540Y-36700000D01*
X53764326Y-36888257D01*
X53822820Y-37068284D01*
X53912397Y-37223435D01*
X53928870Y-37291335D01*
X53906017Y-37357362D01*
X53892691Y-37373116D01*
X53472843Y-37792964D01*
X53411520Y-37826449D01*
X53353069Y-37825058D01*
X53307191Y-37812765D01*
X53307190Y-37812764D01*
X53307187Y-37812764D01*
X53086599Y-37793465D01*
X52866011Y-37812764D01*
X52652116Y-37870078D01*
X52451437Y-37963655D01*
X52451432Y-37963658D01*
X52451433Y-37963658D01*
X52270047Y-38090667D01*
X52270041Y-38090671D01*
X52113471Y-38247241D01*
X52113468Y-38247244D01*
X52113468Y-38247245D01*
X52071873Y-38306648D01*
X51986455Y-38428637D01*
X51928982Y-38551891D01*
X51882810Y-38604331D01*
X51815617Y-38623483D01*
X51748735Y-38603267D01*
X51704218Y-38551891D01*
X51646744Y-38428637D01*
X51646743Y-38428636D01*
X51646742Y-38428633D01*
X51519732Y-38247245D01*
X51363155Y-38090668D01*
X51181767Y-37963658D01*
X51181764Y-37963657D01*
X51181762Y-37963655D01*
X50981083Y-37870078D01*
X50981080Y-37870077D01*
X50813069Y-37825058D01*
X50767188Y-37812764D01*
X50546599Y-37793465D01*
X50326011Y-37812764D01*
X50112116Y-37870078D01*
X49911437Y-37963655D01*
X49911432Y-37963658D01*
X49911433Y-37963658D01*
X49730047Y-38090667D01*
X49730041Y-38090671D01*
X49573471Y-38247241D01*
X49573468Y-38247244D01*
X49573468Y-38247245D01*
X49531873Y-38306648D01*
X49446455Y-38428637D01*
X49388982Y-38551891D01*
X49342810Y-38604331D01*
X49275617Y-38623483D01*
X49208735Y-38603267D01*
X49164218Y-38551891D01*
X49106744Y-38428637D01*
X49106743Y-38428636D01*
X49106742Y-38428633D01*
X48979732Y-38247245D01*
X48823155Y-38090668D01*
X48641767Y-37963658D01*
X48641764Y-37963657D01*
X48641762Y-37963655D01*
X48441083Y-37870078D01*
X48441080Y-37870077D01*
X48273069Y-37825058D01*
X48227188Y-37812764D01*
X48006599Y-37793465D01*
X47786011Y-37812764D01*
X47572116Y-37870078D01*
X47371437Y-37963655D01*
X47371432Y-37963658D01*
X47371433Y-37963658D01*
X47190047Y-38090667D01*
X47190041Y-38090671D01*
X47033471Y-38247241D01*
X47033468Y-38247244D01*
X47033468Y-38247245D01*
X46991873Y-38306648D01*
X46906455Y-38428637D01*
X46848982Y-38551891D01*
X46802810Y-38604331D01*
X46735617Y-38623483D01*
X46668735Y-38603267D01*
X46624218Y-38551891D01*
X46566744Y-38428637D01*
X46566743Y-38428636D01*
X46566742Y-38428633D01*
X46439732Y-38247245D01*
X46283155Y-38090668D01*
X46101767Y-37963658D01*
X46101764Y-37963657D01*
X46101762Y-37963655D01*
X45901083Y-37870078D01*
X45901080Y-37870077D01*
X45733069Y-37825058D01*
X45687188Y-37812764D01*
X45466600Y-37793465D01*
X45246011Y-37812764D01*
X45032116Y-37870078D01*
X44831437Y-37963655D01*
X44831432Y-37963658D01*
X44831433Y-37963658D01*
X44650047Y-38090667D01*
X44650041Y-38090671D01*
X44493471Y-38247241D01*
X44493468Y-38247244D01*
X44493468Y-38247245D01*
X44451873Y-38306648D01*
X44366455Y-38428637D01*
X44308982Y-38551891D01*
X44262810Y-38604331D01*
X44195617Y-38623483D01*
X44128735Y-38603267D01*
X44084218Y-38551891D01*
X44026744Y-38428637D01*
X44026743Y-38428636D01*
X44026742Y-38428633D01*
X43899732Y-38247245D01*
X43743155Y-38090668D01*
X43737223Y-38086514D01*
X43604976Y-37993912D01*
X43561351Y-37939335D01*
X43552100Y-37892338D01*
X43552100Y-33359343D01*
X43554364Y-33338839D01*
X43552161Y-33268726D01*
X43552100Y-33264831D01*
X43552100Y-33241140D01*
X43552100Y-33237250D01*
X43551598Y-33233277D01*
X43550680Y-33221618D01*
X43549309Y-33177973D01*
X43543720Y-33158740D01*
X43539774Y-33139682D01*
X43537264Y-33119806D01*
X43521188Y-33079204D01*
X43517404Y-33068153D01*
X43511330Y-33047248D01*
X43505218Y-33026210D01*
X43495014Y-33008955D01*
X43486461Y-32991495D01*
X43479086Y-32972869D01*
X43479086Y-32972868D01*
X43453408Y-32937525D01*
X43447001Y-32927771D01*
X43424769Y-32890179D01*
X43410606Y-32876016D01*
X43397967Y-32861217D01*
X43386195Y-32845013D01*
X43352541Y-32817173D01*
X43343899Y-32809309D01*
X39834590Y-29299999D01*
X44594540Y-29299999D01*
X44614326Y-29488257D01*
X44672820Y-29668284D01*
X44767466Y-29832216D01*
X44894129Y-29972889D01*
X45047269Y-30084151D01*
X45220197Y-30161144D01*
X45405352Y-30200500D01*
X45405354Y-30200500D01*
X45594648Y-30200500D01*
X45733090Y-30171073D01*
X45779803Y-30161144D01*
X45952730Y-30084151D01*
X45983571Y-30061744D01*
X46105870Y-29972889D01*
X46110984Y-29967210D01*
X46232533Y-29832216D01*
X46327179Y-29668284D01*
X46385674Y-29488256D01*
X46405460Y-29300000D01*
X46385674Y-29111744D01*
X46329110Y-28937658D01*
X46327179Y-28931715D01*
X46232533Y-28767783D01*
X46157350Y-28684284D01*
X46127120Y-28621293D01*
X46125500Y-28601312D01*
X46125500Y-26998687D01*
X46145185Y-26931648D01*
X46157350Y-26915714D01*
X46226554Y-26838856D01*
X46232533Y-26832216D01*
X46327179Y-26668284D01*
X46385674Y-26488256D01*
X46405460Y-26300000D01*
X46385674Y-26111744D01*
X46335128Y-25956180D01*
X46327179Y-25931715D01*
X46232533Y-25767783D01*
X46105870Y-25627110D01*
X45952730Y-25515848D01*
X45779802Y-25438855D01*
X45594648Y-25399500D01*
X45594646Y-25399500D01*
X45405354Y-25399500D01*
X45405352Y-25399500D01*
X45220197Y-25438855D01*
X45047269Y-25515848D01*
X44894129Y-25627110D01*
X44767466Y-25767783D01*
X44672820Y-25931715D01*
X44614326Y-26111742D01*
X44594540Y-26300000D01*
X44614326Y-26488257D01*
X44672820Y-26668284D01*
X44767464Y-26832213D01*
X44842650Y-26915714D01*
X44872880Y-26978706D01*
X44874500Y-26998687D01*
X44874500Y-28601312D01*
X44854815Y-28668351D01*
X44842650Y-28684284D01*
X44767466Y-28767783D01*
X44672820Y-28931715D01*
X44614326Y-29111742D01*
X44594540Y-29299999D01*
X39834590Y-29299999D01*
X39650802Y-29116211D01*
X39637906Y-29100113D01*
X39586775Y-29052098D01*
X39583978Y-29049387D01*
X39567227Y-29032636D01*
X39564471Y-29029880D01*
X39561290Y-29027412D01*
X39552422Y-29019837D01*
X39520582Y-28989938D01*
X39503024Y-28980285D01*
X39486764Y-28969604D01*
X39470936Y-28957327D01*
X39430851Y-28939980D01*
X39420361Y-28934841D01*
X39382091Y-28913802D01*
X39362691Y-28908821D01*
X39344284Y-28902519D01*
X39325897Y-28894562D01*
X39282758Y-28887729D01*
X39271324Y-28885361D01*
X39229019Y-28874500D01*
X39208984Y-28874500D01*
X39189586Y-28872973D01*
X39182162Y-28871797D01*
X39169805Y-28869840D01*
X39169804Y-28869840D01*
X39145145Y-28872171D01*
X39126325Y-28873950D01*
X39114656Y-28874500D01*
X35128747Y-28874500D01*
X35061708Y-28854815D01*
X35036599Y-28833473D01*
X35030871Y-28827112D01*
X34877730Y-28715849D01*
X34877729Y-28715848D01*
X34877727Y-28715847D01*
X34704802Y-28638855D01*
X34519648Y-28599500D01*
X34519646Y-28599500D01*
X34330354Y-28599500D01*
X34330352Y-28599500D01*
X34145197Y-28638855D01*
X33972269Y-28715848D01*
X33819129Y-28827110D01*
X33692466Y-28967783D01*
X33597820Y-29131715D01*
X33539326Y-29311742D01*
X33519540Y-29500000D01*
X16943303Y-29500000D01*
X16942122Y-27645486D01*
X16942162Y-27645304D01*
X16942099Y-27608560D01*
X16942078Y-27573444D01*
X16942039Y-27573259D01*
X16934530Y-23110000D01*
X28444340Y-23110000D01*
X28464936Y-23345407D01*
X28488006Y-23431505D01*
X28526097Y-23573663D01*
X28625965Y-23787830D01*
X28761505Y-23981401D01*
X28928599Y-24148495D01*
X29122170Y-24284035D01*
X29336337Y-24383903D01*
X29564592Y-24445063D01*
X29800000Y-24465659D01*
X30035408Y-24445063D01*
X30263663Y-24383903D01*
X30477830Y-24284035D01*
X30671401Y-24148495D01*
X30838495Y-23981401D01*
X30974035Y-23787830D01*
X31073903Y-23573663D01*
X31135063Y-23345408D01*
X31155659Y-23110000D01*
X31135063Y-22874592D01*
X31073903Y-22646337D01*
X30974035Y-22432171D01*
X30838495Y-22238599D01*
X30671401Y-22071505D01*
X30485839Y-21941573D01*
X30442216Y-21886998D01*
X30435022Y-21817500D01*
X30466545Y-21755145D01*
X30485837Y-21738428D01*
X30671401Y-21608495D01*
X30838495Y-21441401D01*
X30974035Y-21247830D01*
X31073903Y-21033663D01*
X31135063Y-20805408D01*
X31155659Y-20570000D01*
X31135063Y-20334592D01*
X31073903Y-20106337D01*
X30974035Y-19892171D01*
X30838495Y-19698599D01*
X30671401Y-19531505D01*
X30485839Y-19401573D01*
X30442216Y-19346998D01*
X30435022Y-19277500D01*
X30466545Y-19215145D01*
X30485837Y-19198428D01*
X30671401Y-19068495D01*
X30838495Y-18901401D01*
X30974035Y-18707830D01*
X31073903Y-18493663D01*
X31135063Y-18265408D01*
X31155659Y-18030000D01*
X31135063Y-17794592D01*
X31073903Y-17566337D01*
X30974035Y-17352171D01*
X30838495Y-17158599D01*
X30671401Y-16991505D01*
X30477830Y-16855965D01*
X30263663Y-16756097D01*
X30201721Y-16739500D01*
X30035407Y-16694936D01*
X29800000Y-16674340D01*
X29564592Y-16694936D01*
X29336336Y-16756097D01*
X29122170Y-16855965D01*
X28928598Y-16991505D01*
X28761505Y-17158598D01*
X28625965Y-17352170D01*
X28526097Y-17566336D01*
X28464936Y-17794592D01*
X28444340Y-18029999D01*
X28464936Y-18265407D01*
X28497535Y-18387066D01*
X28526097Y-18493663D01*
X28625965Y-18707830D01*
X28761505Y-18901401D01*
X28928599Y-19068495D01*
X29114160Y-19198426D01*
X29157783Y-19253002D01*
X29164976Y-19322501D01*
X29133454Y-19384855D01*
X29114158Y-19401575D01*
X28967601Y-19504196D01*
X28928595Y-19531508D01*
X28761505Y-19698598D01*
X28625965Y-19892170D01*
X28526097Y-20106336D01*
X28464936Y-20334592D01*
X28444340Y-20569999D01*
X28464936Y-20805407D01*
X28488006Y-20891505D01*
X28526097Y-21033663D01*
X28625965Y-21247830D01*
X28761505Y-21441401D01*
X28928599Y-21608495D01*
X29114160Y-21738426D01*
X29157783Y-21793002D01*
X29164976Y-21862501D01*
X29133454Y-21924855D01*
X29114158Y-21941575D01*
X28934465Y-22067398D01*
X28928595Y-22071508D01*
X28761505Y-22238598D01*
X28625965Y-22432170D01*
X28526097Y-22646336D01*
X28464936Y-22874592D01*
X28444340Y-23110000D01*
X16934530Y-23110000D01*
X16927040Y-18657764D01*
X19145787Y-18657764D01*
X19175413Y-18927016D01*
X19175414Y-18927018D01*
X19243928Y-19189088D01*
X19334225Y-19401575D01*
X19349871Y-19438392D01*
X19490982Y-19669611D01*
X19580253Y-19776881D01*
X19664255Y-19877820D01*
X19865998Y-20058582D01*
X20091910Y-20208044D01*
X20198211Y-20257876D01*
X20337177Y-20323021D01*
X20596562Y-20401058D01*
X20596569Y-20401060D01*
X20864561Y-20440500D01*
X20864564Y-20440500D01*
X21065369Y-20440500D01*
X21067631Y-20440500D01*
X21270156Y-20425677D01*
X21534553Y-20366780D01*
X21787558Y-20270014D01*
X22023777Y-20137441D01*
X22238177Y-19971888D01*
X22426186Y-19776881D01*
X22583799Y-19556579D01*
X22707656Y-19315675D01*
X22795118Y-19059305D01*
X22844319Y-18792933D01*
X22854212Y-18522235D01*
X22824586Y-18252982D01*
X22756072Y-17990912D01*
X22650130Y-17741610D01*
X22543162Y-17566337D01*
X22509017Y-17510388D01*
X22335746Y-17302181D01*
X22230759Y-17208112D01*
X22134002Y-17121418D01*
X21908090Y-16971956D01*
X21908086Y-16971954D01*
X21662822Y-16856978D01*
X21403437Y-16778941D01*
X21403431Y-16778940D01*
X21135439Y-16739500D01*
X20932369Y-16739500D01*
X20930120Y-16739664D01*
X20930109Y-16739665D01*
X20729843Y-16754322D01*
X20465449Y-16813219D01*
X20212441Y-16909986D01*
X19976223Y-17042559D01*
X19761825Y-17208109D01*
X19573813Y-17403120D01*
X19416201Y-17623420D01*
X19292342Y-17864329D01*
X19204881Y-18120695D01*
X19155680Y-18387066D01*
X19145787Y-18657764D01*
X16927040Y-18657764D01*
X16920793Y-14944731D01*
X16940365Y-14877659D01*
X16993092Y-14831815D01*
X17044807Y-14820523D01*
X97872016Y-14831873D01*
G37*
%TD.AperFunction*%
%TD*%
M02*
