  0
SECTION
  2
HEADER
  9
$ANGBASE
  50
0.0
  9
$ANGDIR
  70
1
  9
$MEASUREMENT
  70
0
  0
ENDSEC
  0
SECTION
  2
TABLES
  0
TABLE
  2
LTYPE
  70
4
  0
LTYPE
  5
40F
  2
CONTINUOUS
  70
0
  3
Solid line
  72
65
  73
0
  40
0.0
  0
LTYPE
  5
410
  2
DASHDOT
 70
0
  3
Dash Dot ____ _ ____ _
 72
65
 73
4
 40
2.0
 49
1.25
 49
-0.25
 49
0.25
 49
-0.25
  0
LTYPE
  5
411
  2
DASHED
 70
0
  3
Dashed __ __ __ __ __
 72
65
 73
2
 40
0.75
 49
0.5
 49
-0.25
  0
LTYPE
  5
43B
  2
DOTTED
 70
0
  3
Dotted .  .  .  .
 72
65
 73
2
 40
0.2
 49
0.0
 49
-0.2
  0
ENDTAB
  0
TABLE
  2
STYLE
  70
4
  0
STYLE
  2
KICAD
  70
0
  40
0
  41
1
  42
1
  50
0
  71
0
  3
isocp.shx
  0
STYLE
  2
KICADB
  70
0
  40
0
  41
1
  42
1
  50
0
  71
0
  3
isocp.shx
  0
STYLE
  2
KICADI
  70
0
  40
0
  41
1
  42
1
  50
15
  71
0
  3
isocp.shx
  0
STYLE
  2
KICADBI
  70
0
  40
0
  41
1
  42
1
  50
15
  71
0
  3
isocp.shx
  0
ENDTAB
  0
TABLE
  2
LAYER
  70
1
  0
LAYER
  2
BLACK
  70
0
  62
7
  6
CONTINUOUS
  0
ENDTAB
  0
ENDSEC
  0
SECTION
  2
ENTITIES
0
LINE
8
BLACK
6
CONTINUOUS
10
3.8301615748031494
20
-4.1079577559055114
11
3.8330353937007873
21
-4.109877992125984
0
LINE
8
BLACK
6
CONTINUOUS
10
3.8330353937007873
20
-4.109877992125984
11
3.8349556299212599
21
-4.1127518110236219
0
LINE
8
BLACK
6
CONTINUOUS
10
3.8349556299212599
20
-4.1127518110236219
11
3.8356299212598426
21
-4.1161417322834648
0
LINE
8
BLACK
6
CONTINUOUS
10
3.8356299212598426
20
-4.1161417322834648
11
3.8356299212598426
21
-4.1338582677165352
0
LINE
8
BLACK
6
CONTINUOUS
10
3.8356299212598426
20
-4.1338582677165352
11
3.8349556299212599
21
-4.1372481889763781
0
LINE
8
BLACK
6
CONTINUOUS
10
3.8349556299212599
20
-4.1372481889763781
11
3.8330353937007873
21
-4.140122007874016
0
LINE
8
BLACK
6
CONTINUOUS
10
3.8330353937007873
20
-4.140122007874016
11
3.8301615748031494
21
-4.1420422440944877
0
LINE
8
BLACK
6
CONTINUOUS
10
3.8301615748031494
20
-4.1420422440944877
11
3.826771653543307
21
-4.1427165354330704
0
LINE
8
BLACK
6
CONTINUOUS
10
3.826771653543307
20
-4.1427165354330704
11
3.8070866141732282
21
-4.1427165354330704
0
LINE
8
BLACK
6
CONTINUOUS
10
3.8070866141732282
20
-4.1427165354330704
11
3.8036966929133857
21
-4.1420422440944877
0
LINE
8
BLACK
6
CONTINUOUS
10
3.8036966929133857
20
-4.1420422440944877
11
3.8008228740157479
21
-4.140122007874016
0
LINE
8
BLACK
6
CONTINUOUS
10
3.8008228740157479
20
-4.140122007874016
11
3.7989026377952757
21
-4.1372481889763781
0
LINE
8
BLACK
6
CONTINUOUS
10
3.7989026377952757
20
-4.1372481889763781
11
3.7982283464566926
21
-4.1338582677165352
0
LINE
8
BLACK
6
CONTINUOUS
10
3.7982283464566926
20
-4.1338582677165352
11
3.7982283464566926
21
-4.1161417322834648
0
LINE
8
BLACK
6
CONTINUOUS
10
3.7982283464566926
20
-4.1161417322834648
11
3.7989026377952757
21
-4.1127518110236219
0
LINE
8
BLACK
6
CONTINUOUS
10
3.7989026377952757
20
-4.1127518110236219
11
3.8008228740157479
21
-4.109877992125984
0
LINE
8
BLACK
6
CONTINUOUS
10
3.8008228740157479
20
-4.109877992125984
11
3.8036966929133857
21
-4.1079577559055114
0
LINE
8
BLACK
6
CONTINUOUS
10
3.8036966929133857
20
-4.1079577559055114
11
3.8070866141732282
21
-4.1072834645669287
0
LINE
8
BLACK
6
CONTINUOUS
10
3.8070866141732282
20
-4.1072834645669287
11
3.826771653543307
21
-4.1072834645669287
0
LINE
8
BLACK
6
CONTINUOUS
10
3.826771653543307
20
-4.1072834645669287
11
3.8301615748031494
21
-4.1079577559055114
0
LINE
8
BLACK
6
CONTINUOUS
10
3.9348689370078738
20
-4.0509460629921259
11
3.9380620866141731
21
-4.0530796456692917
0
LINE
8
BLACK
6
CONTINUOUS
10
3.9380620866141731
20
-4.0530796456692917
11
3.9401956692913385
21
-4.0562727952755901
0
LINE
8
BLACK
6
CONTINUOUS
10
3.9401956692913385
20
-4.0562727952755901
11
3.9409448818897639
21
-4.0600393700787398
0
LINE
8
BLACK
6
CONTINUOUS
10
3.9409448818897639
20
-4.0600393700787398
11
3.9409448818897639
21
-4.0974409448818898
0
LINE
8
BLACK
6
CONTINUOUS
10
3.9409448818897639
20
-4.0974409448818898
11
3.9401956692913385
21
-4.1012075196850395
0
LINE
8
BLACK
6
CONTINUOUS
10
3.9401956692913385
20
-4.1012075196850395
11
3.9380620866141731
21
-4.1044006692913388
0
LINE
8
BLACK
6
CONTINUOUS
10
3.9380620866141731
20
-4.1044006692913388
11
3.9348689370078738
21
-4.1065342519685037
0
LINE
8
BLACK
6
CONTINUOUS
10
3.9348689370078738
20
-4.1065342519685037
11
3.9311023622047245
21
-4.1072834645669287
0
LINE
8
BLACK
6
CONTINUOUS
10
3.9311023622047245
20
-4.1072834645669287
11
3.9114173228346454
21
-4.1072834645669287
0
LINE
8
BLACK
6
CONTINUOUS
10
3.9114173228346454
20
-4.1072834645669287
11
3.9076507480314961
21
-4.1065342519685037
0
LINE
8
BLACK
6
CONTINUOUS
10
3.9076507480314961
20
-4.1065342519685037
11
3.9044575984251968
21
-4.1044006692913388
0
LINE
8
BLACK
6
CONTINUOUS
10
3.9044575984251968
20
-4.1044006692913388
11
3.9023240157480314
21
-4.1012075196850395
0
LINE
8
BLACK
6
CONTINUOUS
10
3.9023240157480314
20
-4.1012075196850395
11
3.901574803149606
21
-4.0974409448818898
0
LINE
8
BLACK
6
CONTINUOUS
10
3.901574803149606
20
-4.0974409448818898
11
3.901574803149606
21
-4.0600393700787398
0
LINE
8
BLACK
6
CONTINUOUS
10
3.901574803149606
20
-4.0600393700787398
11
3.9023240157480314
21
-4.0562727952755901
0
LINE
8
BLACK
6
CONTINUOUS
10
3.9023240157480314
20
-4.0562727952755901
11
3.9044575984251968
21
-4.0530796456692917
0
LINE
8
BLACK
6
CONTINUOUS
10
3.9044575984251968
20
-4.0530796456692917
11
3.9076507480314961
21
-4.0509460629921259
0
LINE
8
BLACK
6
CONTINUOUS
10
3.9076507480314961
20
-4.0509460629921259
11
3.9114173228346454
21
-4.0501968503937009
0
LINE
8
BLACK
6
CONTINUOUS
10
3.9114173228346454
20
-4.0501968503937009
11
3.9311023622047245
21
-4.0501968503937009
0
LINE
8
BLACK
6
CONTINUOUS
10
3.9311023622047245
20
-4.0501968503937009
11
3.9348689370078738
21
-4.0509460629921259
0
LINE
8
BLACK
6
CONTINUOUS
10
4.0096720866141728
20
-4.0509460629921259
11
4.0128652362204722
21
-4.0530796456692917
0
LINE
8
BLACK
6
CONTINUOUS
10
4.0128652362204722
20
-4.0530796456692917
11
4.014998818897638
21
-4.0562727952755901
0
LINE
8
BLACK
6
CONTINUOUS
10
4.014998818897638
20
-4.0562727952755901
11
4.015748031496063
21
-4.0600393700787398
0
LINE
8
BLACK
6
CONTINUOUS
10
4.015748031496063
20
-4.0600393700787398
11
4.015748031496063
21
-4.0974409448818898
0
LINE
8
BLACK
6
CONTINUOUS
10
4.015748031496063
20
-4.0974409448818898
11
4.014998818897638
21
-4.1012075196850395
0
LINE
8
BLACK
6
CONTINUOUS
10
4.014998818897638
20
-4.1012075196850395
11
4.0128652362204722
21
-4.1044006692913388
0
LINE
8
BLACK
6
CONTINUOUS
10
4.0128652362204722
20
-4.1044006692913388
11
4.0096720866141728
21
-4.1065342519685037
0
LINE
8
BLACK
6
CONTINUOUS
10
4.0096720866141728
20
-4.1065342519685037
11
4.0059055118110232
21
-4.1072834645669287
0
LINE
8
BLACK
6
CONTINUOUS
10
4.0059055118110232
20
-4.1072834645669287
11
3.9862204724409449
21
-4.1072834645669287
0
LINE
8
BLACK
6
CONTINUOUS
10
3.9862204724409449
20
-4.1072834645669287
11
3.9824538976377952
21
-4.1065342519685037
0
LINE
8
BLACK
6
CONTINUOUS
10
3.9824538976377952
20
-4.1065342519685037
11
3.9792607480314959
21
-4.1044006692913388
0
LINE
8
BLACK
6
CONTINUOUS
10
3.9792607480314959
20
-4.1044006692913388
11
3.9771271653543305
21
-4.1012075196850395
0
LINE
8
BLACK
6
CONTINUOUS
10
3.9771271653543305
20
-4.1012075196850395
11
3.9763779527559056
21
-4.0974409448818898
0
LINE
8
BLACK
6
CONTINUOUS
10
3.9763779527559056
20
-4.0974409448818898
11
3.9763779527559056
21
-4.0600393700787398
0
LINE
8
BLACK
6
CONTINUOUS
10
3.9763779527559056
20
-4.0600393700787398
11
3.9771271653543305
21
-4.0562727952755901
0
LINE
8
BLACK
6
CONTINUOUS
10
3.9771271653543305
20
-4.0562727952755901
11
3.9792607480314959
21
-4.0530796456692917
0
LINE
8
BLACK
6
CONTINUOUS
10
3.9792607480314959
20
-4.0530796456692917
11
3.9824538976377952
21
-4.0509460629921259
0
LINE
8
BLACK
6
CONTINUOUS
10
3.9824538976377952
20
-4.0509460629921259
11
3.9862204724409449
21
-4.0501968503937009
0
LINE
8
BLACK
6
CONTINUOUS
10
3.9862204724409449
20
-4.0501968503937009
11
4.0059055118110232
21
-4.0501968503937009
0
LINE
8
BLACK
6
CONTINUOUS
10
4.0059055118110232
20
-4.0501968503937009
11
4.0096720866141728
21
-4.0509460629921259
0
LINE
8
BLACK
6
CONTINUOUS
10
3.8301615748031494
20
-4.0469341338582678
11
3.8330353937007873
21
-4.0488543700787405
0
LINE
8
BLACK
6
CONTINUOUS
10
3.8330353937007873
20
-4.0488543700787405
11
3.8349556299212599
21
-4.0517281889763774
0
LINE
8
BLACK
6
CONTINUOUS
10
3.8349556299212599
20
-4.0517281889763774
11
3.8356299212598426
21
-4.0551181102362204
0
LINE
8
BLACK
6
CONTINUOUS
10
3.8356299212598426
20
-4.0551181102362204
11
3.8356299212598426
21
-4.0728346456692917
0
LINE
8
BLACK
6
CONTINUOUS
10
3.8356299212598426
20
-4.0728346456692917
11
3.8349556299212599
21
-4.0762245669291337
0
LINE
8
BLACK
6
CONTINUOUS
10
3.8349556299212599
20
-4.0762245669291337
11
3.8330353937007873
21
-4.0790983858267715
0
LINE
8
BLACK
6
CONTINUOUS
10
3.8330353937007873
20
-4.0790983858267715
11
3.8301615748031494
21
-4.0810186220472442
0
LINE
8
BLACK
6
CONTINUOUS
10
3.8301615748031494
20
-4.0810186220472442
11
3.826771653543307
21
-4.0816929133858268
0
LINE
8
BLACK
6
CONTINUOUS
10
3.826771653543307
20
-4.0816929133858268
11
3.8070866141732282
21
-4.0816929133858268
0
LINE
8
BLACK
6
CONTINUOUS
10
3.8070866141732282
20
-4.0816929133858268
11
3.8036966929133857
21
-4.0810186220472442
0
LINE
8
BLACK
6
CONTINUOUS
10
3.8036966929133857
20
-4.0810186220472442
11
3.8008228740157479
21
-4.0790983858267715
0
LINE
8
BLACK
6
CONTINUOUS
10
3.8008228740157479
20
-4.0790983858267715
11
3.7989026377952757
21
-4.0762245669291337
0
LINE
8
BLACK
6
CONTINUOUS
10
3.7989026377952757
20
-4.0762245669291337
11
3.7982283464566926
21
-4.0728346456692917
0
LINE
8
BLACK
6
CONTINUOUS
10
3.7982283464566926
20
-4.0728346456692917
11
3.7982283464566926
21
-4.0551181102362204
0
LINE
8
BLACK
6
CONTINUOUS
10
3.7982283464566926
20
-4.0551181102362204
11
3.7989026377952757
21
-4.0517281889763774
0
LINE
8
BLACK
6
CONTINUOUS
10
3.7989026377952757
20
-4.0517281889763774
11
3.8008228740157479
21
-4.0488543700787405
0
LINE
8
BLACK
6
CONTINUOUS
10
3.8008228740157479
20
-4.0488543700787405
11
3.8036966929133857
21
-4.0469341338582678
0
LINE
8
BLACK
6
CONTINUOUS
10
3.8036966929133857
20
-4.0469341338582678
11
3.8070866141732282
21
-4.0462598425196852
0
LINE
8
BLACK
6
CONTINUOUS
10
3.8070866141732282
20
-4.0462598425196852
11
3.826771653543307
21
-4.0462598425196852
0
LINE
8
BLACK
6
CONTINUOUS
10
3.826771653543307
20
-4.0462598425196852
11
3.8301615748031494
21
-4.0469341338582678
0
LINE
8
BLACK
6
CONTINUOUS
10
3.779357125984252
20
-3.7546862204724407
11
3.7825502755905509
21
-3.7568198031496061
0
LINE
8
BLACK
6
CONTINUOUS
10
3.7825502755905509
20
-3.7568198031496061
11
3.7846838582677162
21
-3.7600129527559054
0
LINE
8
BLACK
6
CONTINUOUS
10
3.7846838582677162
20
-3.7600129527559054
11
3.7854330708661417
21
-3.7637795275590551
0
LINE
8
BLACK
6
CONTINUOUS
10
3.7854330708661417
20
-3.7637795275590551
11
3.7854330708661417
21
-3.8543307086614171
0
LINE
8
BLACK
6
CONTINUOUS
10
3.7854330708661417
20
-3.8543307086614171
11
3.7846838582677162
21
-3.8580972834645668
0
LINE
8
BLACK
6
CONTINUOUS
10
3.7846838582677162
20
-3.8580972834645668
11
3.7825502755905509
21
-3.8612904330708662
0
LINE
8
BLACK
6
CONTINUOUS
10
3.7825502755905509
20
-3.8612904330708662
11
3.779357125984252
21
-3.8634240157480315
0
LINE
8
BLACK
6
CONTINUOUS
10
3.779357125984252
20
-3.8634240157480315
11
3.7755905511811023
21
-3.8641732283464565
0
LINE
8
BLACK
6
CONTINUOUS
10
3.7755905511811023
20
-3.8641732283464565
11
3.7559055118110236
21
-3.8641732283464565
0
LINE
8
BLACK
6
CONTINUOUS
10
3.7559055118110236
20
-3.8641732283464565
11
3.7521389370078739
21
-3.8634240157480315
0
LINE
8
BLACK
6
CONTINUOUS
10
3.7521389370078739
20
-3.8634240157480315
11
3.7489457874015746
21
-3.8612904330708662
0
LINE
8
BLACK
6
CONTINUOUS
10
3.7489457874015746
20
-3.8612904330708662
11
3.7468122047244092
21
-3.8580972834645668
0
LINE
8
BLACK
6
CONTINUOUS
10
3.7468122047244092
20
-3.8580972834645668
11
3.7460629921259843
21
-3.8543307086614171
0
LINE
8
BLACK
6
CONTINUOUS
10
3.7460629921259843
20
-3.8543307086614171
11
3.7460629921259843
21
-3.7637795275590551
0
LINE
8
BLACK
6
CONTINUOUS
10
3.7460629921259843
20
-3.7637795275590551
11
3.7468122047244092
21
-3.7600129527559054
0
LINE
8
BLACK
6
CONTINUOUS
10
3.7468122047244092
20
-3.7600129527559054
11
3.7489457874015746
21
-3.7568198031496061
0
LINE
8
BLACK
6
CONTINUOUS
10
3.7489457874015746
20
-3.7568198031496061
11
3.7521389370078739
21
-3.7546862204724407
0
LINE
8
BLACK
6
CONTINUOUS
10
3.7521389370078739
20
-3.7546862204724407
11
3.7559055118110236
21
-3.7539370078740157
0
LINE
8
BLACK
6
CONTINUOUS
10
3.7559055118110236
20
-3.7539370078740157
11
3.7755905511811023
21
-3.7539370078740157
0
LINE
8
BLACK
6
CONTINUOUS
10
3.7755905511811023
20
-3.7539370078740157
11
3.779357125984252
21
-3.7546862204724407
0
LINE
8
BLACK
6
CONTINUOUS
10
4.1218768110236219
20
-3.7546862204724407
11
4.1250699606299213
21
-3.7568198031496061
0
LINE
8
BLACK
6
CONTINUOUS
10
4.1250699606299213
20
-3.7568198031496061
11
4.1272035433070862
21
-3.7600129527559054
0
LINE
8
BLACK
6
CONTINUOUS
10
4.1272035433070862
20
-3.7600129527559054
11
4.127952755905512
21
-3.7637795275590551
0
LINE
8
BLACK
6
CONTINUOUS
10
4.127952755905512
20
-3.7637795275590551
11
4.127952755905512
21
-3.8543307086614171
0
LINE
8
BLACK
6
CONTINUOUS
10
4.127952755905512
20
-3.8543307086614171
11
4.1272035433070862
21
-3.8580972834645668
0
LINE
8
BLACK
6
CONTINUOUS
10
4.1272035433070862
20
-3.8580972834645668
11
4.1250699606299213
21
-3.8612904330708662
0
LINE
8
BLACK
6
CONTINUOUS
10
4.1250699606299213
20
-3.8612904330708662
11
4.1218768110236219
21
-3.8634240157480315
0
LINE
8
BLACK
6
CONTINUOUS
10
4.1218768110236219
20
-3.8634240157480315
11
4.1181102362204722
21
-3.8641732283464565
0
LINE
8
BLACK
6
CONTINUOUS
10
4.1181102362204722
20
-3.8641732283464565
11
4.0984251968503935
21
-3.8641732283464565
0
LINE
8
BLACK
6
CONTINUOUS
10
4.0984251968503935
20
-3.8641732283464565
11
4.0946586220472438
21
-3.8634240157480315
0
LINE
8
BLACK
6
CONTINUOUS
10
4.0946586220472438
20
-3.8634240157480315
11
4.0914654724409445
21
-3.8612904330708662
0
LINE
8
BLACK
6
CONTINUOUS
10
4.0914654724409445
20
-3.8612904330708662
11
4.0893318897637796
21
-3.8580972834645668
0
LINE
8
BLACK
6
CONTINUOUS
10
4.0893318897637796
20
-3.8580972834645668
11
4.0885826771653546
21
-3.8543307086614171
0
LINE
8
BLACK
6
CONTINUOUS
10
4.0885826771653546
20
-3.8543307086614171
11
4.0885826771653546
21
-3.7637795275590551
0
LINE
8
BLACK
6
CONTINUOUS
10
4.0885826771653546
20
-3.7637795275590551
11
4.0893318897637796
21
-3.7600129527559054
0
LINE
8
BLACK
6
CONTINUOUS
10
4.0893318897637796
20
-3.7600129527559054
11
4.0914654724409445
21
-3.7568198031496061
0
LINE
8
BLACK
6
CONTINUOUS
10
4.0914654724409445
20
-3.7568198031496061
11
4.0946586220472438
21
-3.7546862204724407
0
LINE
8
BLACK
6
CONTINUOUS
10
4.0946586220472438
20
-3.7546862204724407
11
4.0984251968503935
21
-3.7539370078740157
0
LINE
8
BLACK
6
CONTINUOUS
10
4.0984251968503935
20
-3.7539370078740157
11
4.1181102362204722
21
-3.7539370078740157
0
LINE
8
BLACK
6
CONTINUOUS
10
4.1181102362204722
20
-3.7539370078740157
11
4.1218768110236219
21
-3.7546862204724407
0
LINE
8
BLACK
6
CONTINUOUS
10
3.8467481496062992
20
-3.6441503149606298
11
3.8486640157480316
21
-3.6454304724409448
0
LINE
8
BLACK
6
CONTINUOUS
10
3.8486640157480316
20
-3.6454304724409448
11
3.8499441732283466
21
-3.6473463385826772
0
LINE
8
BLACK
6
CONTINUOUS
10
3.8499441732283466
20
-3.6473463385826772
11
3.8503937007874014
21
-3.6496062992125982
0
LINE
8
BLACK
6
CONTINUOUS
10
3.8503937007874014
20
-3.6496062992125982
11
3.8503937007874014
21
-3.704724409448819
0
LINE
8
BLACK
6
CONTINUOUS
10
3.8503937007874014
20
-3.704724409448819
11
3.8499441732283466
21
-3.7069843700787399
0
LINE
8
BLACK
6
CONTINUOUS
10
3.8499441732283466
20
-3.7069843700787399
11
3.8486640157480316
21
-3.7089002362204724
0
LINE
8
BLACK
6
CONTINUOUS
10
3.8486640157480316
20
-3.7089002362204724
11
3.8467481496062992
21
-3.7101803937007873
0
LINE
8
BLACK
6
CONTINUOUS
10
3.8467481496062992
20
-3.7101803937007873
11
3.8444881889763778
21
-3.7106299212598426
0
LINE
8
BLACK
6
CONTINUOUS
10
3.8444881889763778
20
-3.7106299212598426
11
3.8326771653543306
21
-3.7106299212598426
0
LINE
8
BLACK
6
CONTINUOUS
10
3.8326771653543306
20
-3.7106299212598426
11
3.8304172047244092
21
-3.7101803937007873
0
LINE
8
BLACK
6
CONTINUOUS
10
3.8304172047244092
20
-3.7101803937007873
11
3.8285013385826772
21
-3.7089002362204724
0
LINE
8
BLACK
6
CONTINUOUS
10
3.8285013385826772
20
-3.7089002362204724
11
3.8272211811023622
21
-3.7069843700787399
0
LINE
8
BLACK
6
CONTINUOUS
10
3.8272211811023622
20
-3.7069843700787399
11
3.826771653543307
21
-3.704724409448819
0
LINE
8
BLACK
6
CONTINUOUS
10
3.826771653543307
20
-3.704724409448819
11
3.826771653543307
21
-3.6496062992125982
0
LINE
8
BLACK
6
CONTINUOUS
10
3.826771653543307
20
-3.6496062992125982
11
3.8272211811023622
21
-3.6473463385826772
0
LINE
8
BLACK
6
CONTINUOUS
10
3.8272211811023622
20
-3.6473463385826772
11
3.8285013385826772
21
-3.6454304724409448
0
LINE
8
BLACK
6
CONTINUOUS
10
3.8285013385826772
20
-3.6454304724409448
11
3.8304172047244092
21
-3.6441503149606298
0
LINE
8
BLACK
6
CONTINUOUS
10
3.8304172047244092
20
-3.6441503149606298
11
3.8326771653543306
21
-3.6437007874015745
0
LINE
8
BLACK
6
CONTINUOUS
10
3.8326771653543306
20
-3.6437007874015745
11
3.8444881889763778
21
-3.6437007874015745
0
LINE
8
BLACK
6
CONTINUOUS
10
3.8444881889763778
20
-3.6437007874015745
11
3.8467481496062992
21
-3.6441503149606298
0
LINE
8
BLACK
6
CONTINUOUS
10
3.8959607480314959
20
-3.6441503149606298
11
3.8978766141732284
21
-3.6454304724409448
0
LINE
8
BLACK
6
CONTINUOUS
10
3.8978766141732284
20
-3.6454304724409448
11
3.8991567716535434
21
-3.6473463385826772
0
LINE
8
BLACK
6
CONTINUOUS
10
3.8991567716535434
20
-3.6473463385826772
11
3.8996062992125982
21
-3.6496062992125982
0
LINE
8
BLACK
6
CONTINUOUS
10
3.8996062992125982
20
-3.6496062992125982
11
3.8996062992125982
21
-3.704724409448819
0
LINE
8
BLACK
6
CONTINUOUS
10
3.8996062992125982
20
-3.704724409448819
11
3.8991567716535434
21
-3.7069843700787399
0
LINE
8
BLACK
6
CONTINUOUS
10
3.8991567716535434
20
-3.7069843700787399
11
3.8978766141732284
21
-3.7089002362204724
0
LINE
8
BLACK
6
CONTINUOUS
10
3.8978766141732284
20
-3.7089002362204724
11
3.8959607480314959
21
-3.7101803937007873
0
LINE
8
BLACK
6
CONTINUOUS
10
3.8959607480314959
20
-3.7101803937007873
11
3.8937007874015745
21
-3.7106299212598426
0
LINE
8
BLACK
6
CONTINUOUS
10
3.8937007874015745
20
-3.7106299212598426
11
3.8818897637795273
21
-3.7106299212598426
0
LINE
8
BLACK
6
CONTINUOUS
10
3.8818897637795273
20
-3.7106299212598426
11
3.8796298031496064
21
-3.7101803937007873
0
LINE
8
BLACK
6
CONTINUOUS
10
3.8796298031496064
20
-3.7101803937007873
11
3.8777139370078739
21
-3.7089002362204724
0
LINE
8
BLACK
6
CONTINUOUS
10
3.8777139370078739
20
-3.7089002362204724
11
3.876433779527559
21
-3.7069843700787399
0
LINE
8
BLACK
6
CONTINUOUS
10
3.876433779527559
20
-3.7069843700787399
11
3.8759842519685037
21
-3.704724409448819
0
LINE
8
BLACK
6
CONTINUOUS
10
3.8759842519685037
20
-3.704724409448819
11
3.8759842519685037
21
-3.6496062992125982
0
LINE
8
BLACK
6
CONTINUOUS
10
3.8759842519685037
20
-3.6496062992125982
11
3.876433779527559
21
-3.6473463385826772
0
LINE
8
BLACK
6
CONTINUOUS
10
3.876433779527559
20
-3.6473463385826772
11
3.8777139370078739
21
-3.6454304724409448
0
LINE
8
BLACK
6
CONTINUOUS
10
3.8777139370078739
20
-3.6454304724409448
11
3.8796298031496064
21
-3.6441503149606298
0
LINE
8
BLACK
6
CONTINUOUS
10
3.8796298031496064
20
-3.6441503149606298
11
3.8818897637795273
21
-3.6437007874015745
0
LINE
8
BLACK
6
CONTINUOUS
10
3.8818897637795273
20
-3.6437007874015745
11
3.8937007874015745
21
-3.6437007874015745
0
LINE
8
BLACK
6
CONTINUOUS
10
3.8937007874015745
20
-3.6437007874015745
11
3.8959607480314959
21
-3.6441503149606298
0
LINE
8
BLACK
6
CONTINUOUS
10
3.9451733464566927
20
-3.6441503149606298
11
3.9470892125984252
21
-3.6454304724409448
0
LINE
8
BLACK
6
CONTINUOUS
10
3.9470892125984252
20
-3.6454304724409448
11
3.9483693700787401
21
-3.6473463385826772
0
LINE
8
BLACK
6
CONTINUOUS
10
3.9483693700787401
20
-3.6473463385826772
11
3.9488188976377954
21
-3.6496062992125982
0
LINE
8
BLACK
6
CONTINUOUS
10
3.9488188976377954
20
-3.6496062992125982
11
3.9488188976377954
21
-3.704724409448819
0
LINE
8
BLACK
6
CONTINUOUS
10
3.9488188976377954
20
-3.704724409448819
11
3.9483693700787401
21
-3.7069843700787399
0
LINE
8
BLACK
6
CONTINUOUS
10
3.9483693700787401
20
-3.7069843700787399
11
3.9470892125984252
21
-3.7089002362204724
0
LINE
8
BLACK
6
CONTINUOUS
10
3.9470892125984252
20
-3.7089002362204724
11
3.9451733464566927
21
-3.7101803937007873
0
LINE
8
BLACK
6
CONTINUOUS
10
3.9451733464566927
20
-3.7101803937007873
11
3.9429133858267718
21
-3.7106299212598426
0
LINE
8
BLACK
6
CONTINUOUS
10
3.9429133858267718
20
-3.7106299212598426
11
3.9311023622047245
21
-3.7106299212598426
0
LINE
8
BLACK
6
CONTINUOUS
10
3.9311023622047245
20
-3.7106299212598426
11
3.9288424015748031
21
-3.7101803937007873
0
LINE
8
BLACK
6
CONTINUOUS
10
3.9288424015748031
20
-3.7101803937007873
11
3.9269265354330707
21
-3.7089002362204724
0
LINE
8
BLACK
6
CONTINUOUS
10
3.9269265354330707
20
-3.7089002362204724
11
3.9256463779527557
21
-3.7069843700787399
0
LINE
8
BLACK
6
CONTINUOUS
10
3.9256463779527557
20
-3.7069843700787399
11
3.9251968503937005
21
-3.704724409448819
0
LINE
8
BLACK
6
CONTINUOUS
10
3.9251968503937005
20
-3.704724409448819
11
3.9251968503937005
21
-3.6496062992125982
0
LINE
8
BLACK
6
CONTINUOUS
10
3.9251968503937005
20
-3.6496062992125982
11
3.9256463779527557
21
-3.6473463385826772
0
LINE
8
BLACK
6
CONTINUOUS
10
3.9256463779527557
20
-3.6473463385826772
11
3.9269265354330707
21
-3.6454304724409448
0
LINE
8
BLACK
6
CONTINUOUS
10
3.9269265354330707
20
-3.6454304724409448
11
3.9288424015748031
21
-3.6441503149606298
0
LINE
8
BLACK
6
CONTINUOUS
10
3.9288424015748031
20
-3.6441503149606298
11
3.9311023622047245
21
-3.6437007874015745
0
LINE
8
BLACK
6
CONTINUOUS
10
3.9311023622047245
20
-3.6437007874015745
11
3.9429133858267718
21
-3.6437007874015745
0
LINE
8
BLACK
6
CONTINUOUS
10
3.9429133858267718
20
-3.6437007874015745
11
3.9451733464566927
21
-3.6441503149606298
0
LINE
8
BLACK
6
CONTINUOUS
10
3.9943859448818895
20
-3.6441503149606298
11
3.9963018110236219
21
-3.6454304724409448
0
LINE
8
BLACK
6
CONTINUOUS
10
3.9963018110236219
20
-3.6454304724409448
11
3.9975819685039369
21
-3.6473463385826772
0
LINE
8
BLACK
6
CONTINUOUS
10
3.9975819685039369
20
-3.6473463385826772
11
3.9980314960629921
21
-3.6496062992125982
0
LINE
8
BLACK
6
CONTINUOUS
10
3.9980314960629921
20
-3.6496062992125982
11
3.9980314960629921
21
-3.704724409448819
0
LINE
8
BLACK
6
CONTINUOUS
10
3.9980314960629921
20
-3.704724409448819
11
3.9975819685039369
21
-3.7069843700787399
0
LINE
8
BLACK
6
CONTINUOUS
10
3.9975819685039369
20
-3.7069843700787399
11
3.9963018110236219
21
-3.7089002362204724
0
LINE
8
BLACK
6
CONTINUOUS
10
3.9963018110236219
20
-3.7089002362204724
11
3.9943859448818895
21
-3.7101803937007873
0
LINE
8
BLACK
6
CONTINUOUS
10
3.9943859448818895
20
-3.7101803937007873
11
3.9921259842519685
21
-3.7106299212598426
0
LINE
8
BLACK
6
CONTINUOUS
10
3.9921259842519685
20
-3.7106299212598426
11
3.9803149606299213
21
-3.7106299212598426
0
LINE
8
BLACK
6
CONTINUOUS
10
3.9803149606299213
20
-3.7106299212598426
11
3.9780549999999999
21
-3.7101803937007873
0
LINE
8
BLACK
6
CONTINUOUS
10
3.9780549999999999
20
-3.7101803937007873
11
3.9761391338582674
21
-3.7089002362204724
0
LINE
8
BLACK
6
CONTINUOUS
10
3.9761391338582674
20
-3.7089002362204724
11
3.9748589763779525
21
-3.7069843700787399
0
LINE
8
BLACK
6
CONTINUOUS
10
3.9748589763779525
20
-3.7069843700787399
11
3.9744094488188977
21
-3.704724409448819
0
LINE
8
BLACK
6
CONTINUOUS
10
3.9744094488188977
20
-3.704724409448819
11
3.9744094488188977
21
-3.6496062992125982
0
LINE
8
BLACK
6
CONTINUOUS
10
3.9744094488188977
20
-3.6496062992125982
11
3.9748589763779525
21
-3.6473463385826772
0
LINE
8
BLACK
6
CONTINUOUS
10
3.9748589763779525
20
-3.6473463385826772
11
3.9761391338582674
21
-3.6454304724409448
0
LINE
8
BLACK
6
CONTINUOUS
10
3.9761391338582674
20
-3.6454304724409448
11
3.9780549999999999
21
-3.6441503149606298
0
LINE
8
BLACK
6
CONTINUOUS
10
3.9780549999999999
20
-3.6441503149606298
11
3.9803149606299213
21
-3.6437007874015745
0
LINE
8
BLACK
6
CONTINUOUS
10
3.9803149606299213
20
-3.6437007874015745
11
3.9921259842519685
21
-3.6437007874015745
0
LINE
8
BLACK
6
CONTINUOUS
10
3.9921259842519685
20
-3.6437007874015745
11
3.9943859448818895
21
-3.6441503149606298
0
LINE
8
BLACK
6
CONTINUOUS
10
4.0435985433070867
20
-3.6441503149606298
11
4.0455144094488187
21
-3.6454304724409448
0
LINE
8
BLACK
6
CONTINUOUS
10
4.0455144094488187
20
-3.6454304724409448
11
4.0467945669291341
21
-3.6473463385826772
0
LINE
8
BLACK
6
CONTINUOUS
10
4.0467945669291341
20
-3.6473463385826772
11
4.0472440944881889
21
-3.6496062992125982
0
LINE
8
BLACK
6
CONTINUOUS
10
4.0472440944881889
20
-3.6496062992125982
11
4.0472440944881889
21
-3.704724409448819
0
LINE
8
BLACK
6
CONTINUOUS
10
4.0472440944881889
20
-3.704724409448819
11
4.0467945669291341
21
-3.7069843700787399
0
LINE
8
BLACK
6
CONTINUOUS
10
4.0467945669291341
20
-3.7069843700787399
11
4.0455144094488187
21
-3.7089002362204724
0
LINE
8
BLACK
6
CONTINUOUS
10
4.0455144094488187
20
-3.7089002362204724
11
4.0435985433070867
21
-3.7101803937007873
0
LINE
8
BLACK
6
CONTINUOUS
10
4.0435985433070867
20
-3.7101803937007873
11
4.0413385826771648
21
-3.7106299212598426
0
LINE
8
BLACK
6
CONTINUOUS
10
4.0413385826771648
20
-3.7106299212598426
11
4.0295275590551176
21
-3.7106299212598426
0
LINE
8
BLACK
6
CONTINUOUS
10
4.0295275590551176
20
-3.7106299212598426
11
4.0272675984251967
21
-3.7101803937007873
0
LINE
8
BLACK
6
CONTINUOUS
10
4.0272675984251967
20
-3.7101803937007873
11
4.0253517322834647
21
-3.7089002362204724
0
LINE
8
BLACK
6
CONTINUOUS
10
4.0253517322834647
20
-3.7089002362204724
11
4.0240715748031493
21
-3.7069843700787399
0
LINE
8
BLACK
6
CONTINUOUS
10
4.0240715748031493
20
-3.7069843700787399
11
4.0236220472440944
21
-3.704724409448819
0
LINE
8
BLACK
6
CONTINUOUS
10
4.0236220472440944
20
-3.704724409448819
11
4.0236220472440944
21
-3.6496062992125982
0
LINE
8
BLACK
6
CONTINUOUS
10
4.0236220472440944
20
-3.6496062992125982
11
4.0240715748031493
21
-3.6473463385826772
0
LINE
8
BLACK
6
CONTINUOUS
10
4.0240715748031493
20
-3.6473463385826772
11
4.0253517322834647
21
-3.6454304724409448
0
LINE
8
BLACK
6
CONTINUOUS
10
4.0253517322834647
20
-3.6454304724409448
11
4.0272675984251967
21
-3.6441503149606298
0
LINE
8
BLACK
6
CONTINUOUS
10
4.0272675984251967
20
-3.6441503149606298
11
4.0295275590551176
21
-3.6437007874015745
0
LINE
8
BLACK
6
CONTINUOUS
10
4.0295275590551176
20
-3.6437007874015745
11
4.0413385826771648
21
-3.6437007874015745
0
LINE
8
BLACK
6
CONTINUOUS
10
4.0413385826771648
20
-3.6437007874015745
11
4.0435985433070867
21
-3.6441503149606298
  0
ENDSEC
  0
EOF
