  0
SECTION
  2
HEADER
  9
$ANGBASE
  50
0.0
  9
$ANGDIR
  70
1
  9
$MEASUREMENT
  70
0
  0
ENDSEC
  0
SECTION
  2
TABLES
  0
TABLE
  2
LTYPE
  70
4
  0
LTYPE
  5
40F
  2
CONTINUOUS
  70
0
  3
Solid line
  72
65
  73
0
  40
0.0
  0
LTYPE
  5
410
  2
DASHDOT
 70
0
  3
Dash Dot ____ _ ____ _
 72
65
 73
4
 40
2.0
 49
1.25
 49
-0.25
 49
0.25
 49
-0.25
  0
LTYPE
  5
411
  2
DASHED
 70
0
  3
Dashed __ __ __ __ __
 72
65
 73
2
 40
0.75
 49
0.5
 49
-0.25
  0
LTYPE
  5
43B
  2
DOTTED
 70
0
  3
Dotted .  .  .  .
 72
65
 73
2
 40
0.2
 49
0.0
 49
-0.2
  0
ENDTAB
  0
TABLE
  2
STYLE
  70
4
  0
STYLE
  2
KICAD
  70
0
  40
0
  41
1
  42
1
  50
0
  71
0
  3
isocp.shx
  0
STYLE
  2
KICADB
  70
0
  40
0
  41
1
  42
1
  50
0
  71
0
  3
isocp.shx
  0
STYLE
  2
KICADI
  70
0
  40
0
  41
1
  42
1
  50
15
  71
0
  3
isocp.shx
  0
STYLE
  2
KICADBI
  70
0
  40
0
  41
1
  42
1
  50
15
  71
0
  3
isocp.shx
  0
ENDTAB
  0
TABLE
  2
LAYER
  70
1
  0
LAYER
  2
BLACK
  70
0
  62
7
  6
CONTINUOUS
  0
ENDTAB
  0
ENDSEC
  0
SECTION
  2
ENTITIES
0
LINE
8
BLACK
6
CONTINUOUS
10
3.8320980314960629
20
-4.0321447244094486
11
3.8326190551181103
21
-4.032665748031496
0
LINE
8
BLACK
6
CONTINUOUS
10
3.8326190551181103
20
-4.032665748031496
11
3.8420678740157479
21
-4.0456578740157481
0
LINE
8
BLACK
6
CONTINUOUS
10
3.8420678740157479
20
-4.0456578740157481
11
3.8424907874015748
21
-4.0474156692913388
0
LINE
8
BLACK
6
CONTINUOUS
10
3.8424907874015748
20
-4.0474156692913388
11
3.8415468503937009
21
-4.0489576377952758
0
LINE
8
BLACK
6
CONTINUOUS
10
3.8415468503937009
20
-4.0489576377952758
11
3.8401574803149607
21
-4.0494094488188974
0
LINE
8
BLACK
6
CONTINUOUS
10
3.8401574803149607
20
-4.0494094488188974
11
3.8212598425196851
21
-4.0494094488188974
0
LINE
8
BLACK
6
CONTINUOUS
10
3.8212598425196851
20
-4.0494094488188974
11
3.8195895275590552
21
-4.0487175590551177
0
LINE
8
BLACK
6
CONTINUOUS
10
3.8195895275590552
20
-4.0487175590551177
11
3.8188976377952755
21
-4.0470472440944878
0
LINE
8
BLACK
6
CONTINUOUS
10
3.8188976377952755
20
-4.0470472440944878
11
3.8193494488188975
21
-4.0456578740157481
0
LINE
8
BLACK
6
CONTINUOUS
10
3.8193494488188975
20
-4.0456578740157481
11
3.8287982677165355
21
-4.032665748031496
0
LINE
8
BLACK
6
CONTINUOUS
10
3.8287982677165355
20
-4.032665748031496
11
3.8303402362204721
21
-4.0317218110236217
0
LINE
8
BLACK
6
CONTINUOUS
10
3.8303402362204721
20
-4.0317218110236217
11
3.8320980314960629
21
-4.0321447244094486
0
LINE
8
BLACK
6
CONTINUOUS
10
3.9370078740157481
20
-4.0354330708661417
11
4.0137795275590546
21
-4.0354330708661417
0
LINE
8
BLACK
6
CONTINUOUS
10
4.0137795275590546
20
-4.0354330708661417
11
4.0146835039370075
21
-4.0356128740157482
0
LINE
8
BLACK
6
CONTINUOUS
10
4.0146835039370075
20
-4.0356128740157482
11
4.0159619291338577
21
-4.0368912992125985
0
LINE
8
BLACK
6
CONTINUOUS
10
4.0159619291338577
20
-4.0368912992125985
11
4.0159619291338577
21
-4.0386992519685041
0
LINE
8
BLACK
6
CONTINUOUS
10
4.0159619291338577
20
-4.0386992519685041
11
4.0146835039370075
21
-4.0399776771653544
0
LINE
8
BLACK
6
CONTINUOUS
10
4.0146835039370075
20
-4.0399776771653544
11
4.0137795275590546
21
-4.0401574803149609
0
LINE
8
BLACK
6
CONTINUOUS
10
4.0137795275590546
20
-4.0401574803149609
11
3.9370078740157481
21
-4.0401574803149609
0
LINE
8
BLACK
6
CONTINUOUS
10
3.9370078740157481
20
-4.0401574803149609
11
3.8602362204724407
21
-4.0401574803149609
0
LINE
8
BLACK
6
CONTINUOUS
10
3.8602362204724407
20
-4.0401574803149609
11
3.8593322440944879
21
-4.0399776771653544
0
LINE
8
BLACK
6
CONTINUOUS
10
3.8593322440944879
20
-4.0399776771653544
11
3.8580538188976377
21
-4.0386992519685041
0
LINE
8
BLACK
6
CONTINUOUS
10
3.8580538188976377
20
-4.0386992519685041
11
3.8580538188976377
21
-4.0368912992125985
0
LINE
8
BLACK
6
CONTINUOUS
10
3.8580538188976377
20
-4.0368912992125985
11
3.8593322440944879
21
-4.0356128740157482
0
LINE
8
BLACK
6
CONTINUOUS
10
3.8593322440944879
20
-4.0356128740157482
11
3.8602362204724407
21
-4.0354330708661417
0
LINE
8
BLACK
6
CONTINUOUS
10
3.8602362204724407
20
-4.0354330708661417
11
3.9370078740157481
21
-4.0354330708661417
0
LINE
8
BLACK
6
CONTINUOUS
10
3.9156879527559054
20
-3.983711023622047
11
3.915977244094488
21
-3.983711023622047
0
LINE
8
BLACK
6
CONTINUOUS
10
3.915977244094488
20
-3.983711023622047
11
3.9162473228346455
21
-3.9838228740157478
0
LINE
8
BLACK
6
CONTINUOUS
10
3.9162473228346455
20
-3.9838228740157478
11
3.9165339763779525
21
-3.9838802362204722
0
LINE
8
BLACK
6
CONTINUOUS
10
3.9165339763779525
20
-3.9838802362204722
11
3.9167743307086615
21
-3.9840411811023619
0
LINE
8
BLACK
6
CONTINUOUS
10
3.9167743307086615
20
-3.9840411811023619
11
3.9170416535433068
21
-3.9841519291338581
0
LINE
8
BLACK
6
CONTINUOUS
10
3.9170416535433068
20
-3.9841519291338581
11
3.917248346456693
21
-3.9843586220472442
0
LINE
8
BLACK
6
CONTINUOUS
10
3.917248346456693
20
-3.9843586220472442
11
3.9174912598425196
21
-3.9845212992125982
0
LINE
8
BLACK
6
CONTINUOUS
10
3.9174912598425196
20
-3.9845212992125982
11
3.917854251968504
21
-3.9849645275590548
0
LINE
8
BLACK
6
CONTINUOUS
10
3.917854251968504
20
-3.9849645275590548
11
3.9178562992125983
21
-3.9849665748031495
0
LINE
8
BLACK
6
CONTINUOUS
10
3.9178562992125983
20
-3.9849665748031495
11
3.917856653543307
21
-3.9849674409448816
0
LINE
8
BLACK
6
CONTINUOUS
10
3.917856653543307
20
-3.9849674409448816
11
3.9178580314960629
21
-3.9849691338582676
0
LINE
8
BLACK
6
CONTINUOUS
10
3.9178580314960629
20
-3.9849691338582676
11
3.9214453543307086
21
-3.9903501574803149
0
LINE
8
BLACK
6
CONTINUOUS
10
3.9214453543307086
20
-3.9903501574803149
11
3.9246493307086614
21
-3.9935541338582676
0
LINE
8
BLACK
6
CONTINUOUS
10
3.9246493307086614
20
-3.9935541338582676
11
3.927970275590551
21
-3.9952146062992124
0
LINE
8
BLACK
6
CONTINUOUS
10
3.927970275590551
20
-3.9952146062992124
11
3.9284601574803149
21
-3.9955229527559055
0
LINE
8
BLACK
6
CONTINUOUS
10
3.9284601574803149
20
-3.9955229527559055
11
3.9292150000000001
21
-3.996393346456693
0
LINE
8
BLACK
6
CONTINUOUS
10
3.9292150000000001
20
-3.996393346456693
11
3.9295793307086613
21
-3.9974862992125981
0
LINE
8
BLACK
6
CONTINUOUS
10
3.9295793307086613
20
-3.9974862992125981
11
3.929497677165354
21
-3.9986355118110235
0
LINE
8
BLACK
6
CONTINUOUS
10
3.929497677165354
20
-3.9986355118110235
11
3.9289824015748032
21
-3.9996660236220474
0
LINE
8
BLACK
6
CONTINUOUS
10
3.9289824015748032
20
-3.9996660236220474
11
3.9281120472440945
21
-4.0004208661417318
0
LINE
8
BLACK
6
CONTINUOUS
10
3.9281120472440945
20
-4.0004208661417318
11
3.9270190551181101
21
-4.0007851968503934
0
LINE
8
BLACK
6
CONTINUOUS
10
3.9270190551181101
20
-4.0007851968503934
11
3.9258698425196847
21
-4.0007035433070861
0
LINE
8
BLACK
6
CONTINUOUS
10
3.9258698425196847
20
-4.0007035433070861
11
3.9253292519685039
21
-4.0004966535433066
0
LINE
8
BLACK
6
CONTINUOUS
10
3.9253292519685039
20
-4.0004966535433066
11
3.9215797244094488
21
-3.9986218897637795
0
LINE
8
BLACK
6
CONTINUOUS
10
3.9215797244094488
20
-3.9986218897637795
11
3.9213318897637794
21
-3.9984658661417321
0
LINE
8
BLACK
6
CONTINUOUS
10
3.9213318897637794
20
-3.9984658661417321
11
3.9212597637795277
21
-3.9984360236220473
0
LINE
8
BLACK
6
CONTINUOUS
10
3.9212597637795277
20
-3.9984360236220473
11
3.9211785826771655
21
-3.9983694094488187
0
LINE
8
BLACK
6
CONTINUOUS
10
3.9211785826771655
20
-3.9983694094488187
11
3.921089842519685
21
-3.9983135433070864
0
LINE
8
BLACK
6
CONTINUOUS
10
3.921089842519685
20
-3.9983135433070864
11
3.9210387007874017
21
-3.9982546062992124
0
LINE
8
BLACK
6
CONTINUOUS
10
3.9210387007874017
20
-3.9982546062992124
11
3.9208123228346454
21
-3.9980687795275589
0
LINE
8
BLACK
6
CONTINUOUS
10
3.9208123228346454
20
-3.9980687795275589
11
3.9183539370078737
21
-3.9956103937007872
0
LINE
8
BLACK
6
CONTINUOUS
10
3.9183539370078737
20
-3.9956103937007872
11
3.9183539370078737
21
-4.0230243700787405
0
LINE
8
BLACK
6
CONTINUOUS
10
3.9183539370078737
20
-4.0230243700787405
11
3.9266497637795275
21
-4.0230243700787405
0
LINE
8
BLACK
6
CONTINUOUS
10
3.9266497637795275
20
-4.0230243700787405
11
3.9272258267716533
21
-4.0230811023622044
0
LINE
8
BLACK
6
CONTINUOUS
10
3.9272258267716533
20
-4.0230811023622044
11
3.9282902362204721
21
-4.0235220078740159
0
LINE
8
BLACK
6
CONTINUOUS
10
3.9282902362204721
20
-4.0235220078740159
11
3.9291048818897636
21
-4.0243366535433074
0
LINE
8
BLACK
6
CONTINUOUS
10
3.9291048818897636
20
-4.0243366535433074
11
3.9295457874015747
21
-4.0254010629921257
0
LINE
8
BLACK
6
CONTINUOUS
10
3.9295457874015747
20
-4.0254010629921257
11
3.9295457874015747
21
-4.0265531889763775
0
LINE
8
BLACK
6
CONTINUOUS
10
3.9295457874015747
20
-4.0265531889763775
11
3.9291048818897636
21
-4.0276175984251967
0
LINE
8
BLACK
6
CONTINUOUS
10
3.9291048818897636
20
-4.0276175984251967
11
3.9282902362204721
21
-4.0284322440944882
0
LINE
8
BLACK
6
CONTINUOUS
10
3.9282902362204721
20
-4.0284322440944882
11
3.9272258267716533
21
-4.0288731496062988
0
LINE
8
BLACK
6
CONTINUOUS
10
3.9272258267716533
20
-4.0288731496062988
11
3.9266497637795275
21
-4.0289298818897636
0
LINE
8
BLACK
6
CONTINUOUS
10
3.9266497637795275
20
-4.0289298818897636
11
3.9041525984251968
21
-4.0289298818897636
0
LINE
8
BLACK
6
CONTINUOUS
10
3.9041525984251968
20
-4.0289298818897636
11
3.9035765354330709
21
-4.0288731496062988
0
LINE
8
BLACK
6
CONTINUOUS
10
3.9035765354330709
20
-4.0288731496062988
11
3.9025121259842517
21
-4.0284322440944882
0
LINE
8
BLACK
6
CONTINUOUS
10
3.9025121259842517
20
-4.0284322440944882
11
3.9016974803149607
21
-4.0276175984251967
0
LINE
8
BLACK
6
CONTINUOUS
10
3.9016974803149607
20
-4.0276175984251967
11
3.9012565748031496
21
-4.0265531889763775
0
LINE
8
BLACK
6
CONTINUOUS
10
3.9012565748031496
20
-4.0265531889763775
11
3.9012565748031496
21
-4.0254010629921257
0
LINE
8
BLACK
6
CONTINUOUS
10
3.9012565748031496
20
-4.0254010629921257
11
3.9016974803149607
21
-4.0243366535433074
0
LINE
8
BLACK
6
CONTINUOUS
10
3.9016974803149607
20
-4.0243366535433074
11
3.9025121259842517
21
-4.0235220078740159
0
LINE
8
BLACK
6
CONTINUOUS
10
3.9025121259842517
20
-4.0235220078740159
11
3.9035765354330709
21
-4.0230811023622044
0
LINE
8
BLACK
6
CONTINUOUS
10
3.9035765354330709
20
-4.0230811023622044
11
3.9041525984251968
21
-4.0230243700787405
0
LINE
8
BLACK
6
CONTINUOUS
10
3.9041525984251968
20
-4.0230243700787405
11
3.9124484251968501
21
-4.0230243700787405
0
LINE
8
BLACK
6
CONTINUOUS
10
3.9124484251968501
20
-4.0230243700787405
11
3.9124484251968501
21
-3.9866070472440942
0
LINE
8
BLACK
6
CONTINUOUS
10
3.9124484251968501
20
-3.9866070472440942
11
3.9124486220472439
21
-3.9866049606299212
0
LINE
8
BLACK
6
CONTINUOUS
10
3.9124486220472439
20
-3.9866049606299212
11
3.9124484251968501
21
-3.9866039370078741
0
LINE
8
BLACK
6
CONTINUOUS
10
3.9124484251968501
20
-3.9866039370078741
11
3.9124490157480314
21
-3.986600905511811
0
LINE
8
BLACK
6
CONTINUOUS
10
3.9124490157480314
20
-3.986600905511811
11
3.9125051574803149
21
-3.9860309842519683
0
LINE
8
BLACK
6
CONTINUOUS
10
3.9125051574803149
20
-3.9860309842519683
11
3.9126170078740157
21
-3.9857608661417321
0
LINE
8
BLACK
6
CONTINUOUS
10
3.9126170078740157
20
-3.9857608661417321
11
3.9126743700787401
21
-3.9854742519685038
0
LINE
8
BLACK
6
CONTINUOUS
10
3.9126743700787401
20
-3.9854742519685038
11
3.9128353149606299
21
-3.9852338582677165
0
LINE
8
BLACK
6
CONTINUOUS
10
3.9128353149606299
20
-3.9852338582677165
11
3.912946062992126
21
-3.9849665748031495
0
LINE
8
BLACK
6
CONTINUOUS
10
3.912946062992126
20
-3.9849665748031495
11
3.9131527559055117
21
-3.9847598425196851
0
LINE
8
BLACK
6
CONTINUOUS
10
3.9131527559055117
20
-3.9847598425196851
11
3.9133154330708662
21
-3.9845169685039368
0
LINE
8
BLACK
6
CONTINUOUS
10
3.9133154330708662
20
-3.9845169685039368
11
3.9135561417322835
21
-3.9843564566929133
0
LINE
8
BLACK
6
CONTINUOUS
10
3.9135561417322835
20
-3.9843564566929133
11
3.9137607086614175
21
-3.9841519291338581
0
LINE
8
BLACK
6
CONTINUOUS
10
3.9137607086614175
20
-3.9841519291338581
11
3.9140307874015745
21
-3.9840400393700786
0
LINE
8
BLACK
6
CONTINUOUS
10
3.9140307874015745
20
-3.9840400393700786
11
3.9142740551181103
21
-3.9838778740157479
0
LINE
8
BLACK
6
CONTINUOUS
10
3.9142740551181103
20
-3.9838778740157479
11
3.9145578346456693
21
-3.9838217322834644
0
LINE
8
BLACK
6
CONTINUOUS
10
3.9145578346456693
20
-3.9838217322834644
11
3.9148251181102363
21
-3.983711023622047
0
LINE
8
BLACK
6
CONTINUOUS
10
3.9148251181102363
20
-3.983711023622047
11
3.9151175196850394
21
-3.983711023622047
0
LINE
8
BLACK
6
CONTINUOUS
10
3.9151175196850394
20
-3.983711023622047
11
3.9154042913385827
21
-3.9836542913385826
0
LINE
8
BLACK
6
CONTINUOUS
10
3.9154042913385827
20
-3.9836542913385826
11
3.9156879527559054
21
-3.983711023622047
0
LINE
8
BLACK
6
CONTINUOUS
10
3.9451631496062993
20
-3.9841519291338581
11
3.9459777952755903
21
-3.9849665748031495
0
LINE
8
BLACK
6
CONTINUOUS
10
3.9459777952755903
20
-3.9849665748031495
11
3.9464187007874014
21
-3.9860309842519683
0
LINE
8
BLACK
6
CONTINUOUS
10
3.9464187007874014
20
-3.9860309842519683
11
3.9464754330708662
21
-3.9866070472440942
0
LINE
8
BLACK
6
CONTINUOUS
10
3.9464754330708662
20
-3.9866070472440942
11
3.9464754330708662
21
-4.0177809842519681
0
LINE
8
BLACK
6
CONTINUOUS
10
3.9464754330708662
20
-4.0177809842519681
11
3.9478241732283466
21
-4.0204784645669287
0
LINE
8
BLACK
6
CONTINUOUS
10
3.9478241732283466
20
-4.0204784645669287
11
3.9490212992125984
21
-4.0216756299212602
0
LINE
8
BLACK
6
CONTINUOUS
10
3.9490212992125984
20
-4.0216756299212602
11
3.951718779527559
21
-4.0230243700787405
0
LINE
8
BLACK
6
CONTINUOUS
10
3.951718779527559
20
-4.0230243700787405
11
3.9578237401574801
21
-4.0230243700787405
0
LINE
8
BLACK
6
CONTINUOUS
10
3.9578237401574801
20
-4.0230243700787405
11
3.960521181102362
21
-4.0216756299212602
0
LINE
8
BLACK
6
CONTINUOUS
10
3.960521181102362
20
-4.0216756299212602
11
3.9617183070866142
21
-4.0204784645669287
0
LINE
8
BLACK
6
CONTINUOUS
10
3.9617183070866142
20
-4.0204784645669287
11
3.9630670866141733
21
-4.0177809842519681
0
LINE
8
BLACK
6
CONTINUOUS
10
3.9630670866141733
20
-4.0177809842519681
11
3.9630670866141733
21
-3.9866070472440942
0
LINE
8
BLACK
6
CONTINUOUS
10
3.9630670866141733
20
-3.9866070472440942
11
3.9631238188976377
21
-3.9860309842519683
0
LINE
8
BLACK
6
CONTINUOUS
10
3.9631238188976377
20
-3.9860309842519683
11
3.9635647244094487
21
-3.9849665748031495
0
LINE
8
BLACK
6
CONTINUOUS
10
3.9635647244094487
20
-3.9849665748031495
11
3.9643793700787402
21
-3.9841519291338581
0
LINE
8
BLACK
6
CONTINUOUS
10
3.9643793700787402
20
-3.9841519291338581
11
3.965443779527559
21
-3.983711023622047
0
LINE
8
BLACK
6
CONTINUOUS
10
3.965443779527559
20
-3.983711023622047
11
3.9665959055118107
21
-3.983711023622047
0
LINE
8
BLACK
6
CONTINUOUS
10
3.9665959055118107
20
-3.983711023622047
11
3.96766031496063
21
-3.9841519291338581
0
LINE
8
BLACK
6
CONTINUOUS
10
3.96766031496063
20
-3.9841519291338581
11
3.968474960629921
21
-3.9849665748031495
0
LINE
8
BLACK
6
CONTINUOUS
10
3.968474960629921
20
-3.9849665748031495
11
3.9689158661417321
21
-3.9860309842519683
0
LINE
8
BLACK
6
CONTINUOUS
10
3.9689158661417321
20
-3.9860309842519683
11
3.9689725984251969
21
-3.9866070472440942
0
LINE
8
BLACK
6
CONTINUOUS
10
3.9689725984251969
20
-3.9866070472440942
11
3.9689725984251969
21
-4.0184780314960626
0
LINE
8
BLACK
6
CONTINUOUS
10
3.9689725984251969
20
-4.0184780314960626
11
3.9689158661417321
21
-4.0190540944881885
0
LINE
8
BLACK
6
CONTINUOUS
10
3.9689158661417321
20
-4.0190540944881885
11
3.968875275590551
21
-4.019152047244094
0
LINE
8
BLACK
6
CONTINUOUS
10
3.968875275590551
20
-4.019152047244094
11
3.9688677559055119
21
-4.0192579527559058
0
LINE
8
BLACK
6
CONTINUOUS
10
3.9688677559055119
20
-4.0192579527559058
11
3.9686608661417324
21
-4.0197985433070862
0
LINE
8
BLACK
6
CONTINUOUS
10
3.9686608661417324
20
-4.0197985433070862
11
3.9667861023622044
21
-4.0235480708661413
0
LINE
8
BLACK
6
CONTINUOUS
10
3.9667861023622044
20
-4.0235480708661413
11
3.9666300393700786
21
-4.0237959448818899
0
LINE
8
BLACK
6
CONTINUOUS
10
3.9666300393700786
20
-4.0237959448818899
11
3.9666002362204722
21
-4.0238679921259841
0
LINE
8
BLACK
6
CONTINUOUS
10
3.9666002362204722
20
-4.0238679921259841
11
3.9665337007874015
21
-4.0239490157480313
0
LINE
8
BLACK
6
CONTINUOUS
10
3.9665337007874015
20
-4.0239490157480313
11
3.9664777559055118
21
-4.0240379527559051
0
LINE
8
BLACK
6
CONTINUOUS
10
3.9664777559055118
20
-4.0240379527559051
11
3.9664187401574802
21
-4.0240890944881889
0
LINE
8
BLACK
6
CONTINUOUS
10
3.9664187401574802
20
-4.0240890944881889
11
3.9662329921259842
21
-4.0243154724409447
0
LINE
8
BLACK
6
CONTINUOUS
10
3.9662329921259842
20
-4.0243154724409447
11
3.9643582677165354
21
-4.0261902362204722
0
LINE
8
BLACK
6
CONTINUOUS
10
3.9643582677165354
20
-4.0261902362204722
11
3.9641318897637796
21
-4.0263759842519686
0
LINE
8
BLACK
6
CONTINUOUS
10
3.9641318897637796
20
-4.0263759842519686
11
3.9640807086614172
21
-4.026435039370079
0
LINE
8
BLACK
6
CONTINUOUS
10
3.9640807086614172
20
-4.026435039370079
11
3.9639917322834646
21
-4.0264910236220475
0
LINE
8
BLACK
6
CONTINUOUS
10
3.9639917322834646
20
-4.0264910236220475
11
3.9639107874015749
21
-4.0265574803149606
0
LINE
8
BLACK
6
CONTINUOUS
10
3.9639107874015749
20
-4.0265574803149606
11
3.9638388188976377
21
-4.0265872834645666
0
LINE
8
BLACK
6
CONTINUOUS
10
3.9638388188976377
20
-4.0265872834645666
11
3.9635908267716533
21
-4.0267433858267712
0
LINE
8
BLACK
6
CONTINUOUS
10
3.9635908267716533
20
-4.0267433858267712
11
3.9598412992125982
21
-4.0286181496062987
0
LINE
8
BLACK
6
CONTINUOUS
10
3.9598412992125982
20
-4.0286181496062987
11
3.9593006692913386
21
-4.0288250393700791
0
LINE
8
BLACK
6
CONTINUOUS
10
3.9593006692913386
20
-4.0288250393700791
11
3.9591948425196848
21
-4.0288325196850394
0
LINE
8
BLACK
6
CONTINUOUS
10
3.9591948425196848
20
-4.0288325196850394
11
3.9590968503937005
21
-4.0288731496062988
0
LINE
8
BLACK
6
CONTINUOUS
10
3.9590968503937005
20
-4.0288731496062988
11
3.9585207874015746
21
-4.0289298818897636
0
LINE
8
BLACK
6
CONTINUOUS
10
3.9585207874015746
20
-4.0289298818897636
11
3.9510217322834644
21
-4.0289298818897636
0
LINE
8
BLACK
6
CONTINUOUS
10
3.9510217322834644
20
-4.0289298818897636
11
3.9504456692913386
21
-4.0288731496062988
0
LINE
8
BLACK
6
CONTINUOUS
10
3.9504456692913386
20
-4.0288731496062988
11
3.9503476771653543
21
-4.0288325590551182
0
LINE
8
BLACK
6
CONTINUOUS
10
3.9503476771653543
20
-4.0288325590551182
11
3.9502418110236222
21
-4.0288250393700791
0
LINE
8
BLACK
6
CONTINUOUS
10
3.9502418110236222
20
-4.0288250393700791
11
3.9497012204724409
21
-4.0286181496062987
0
LINE
8
BLACK
6
CONTINUOUS
10
3.9497012204724409
20
-4.0286181496062987
11
3.9459516929133858
21
-4.0267433858267712
0
LINE
8
BLACK
6
CONTINUOUS
10
3.9459516929133858
20
-4.0267433858267712
11
3.9457036614173226
21
-4.0265872834645666
0
LINE
8
BLACK
6
CONTINUOUS
10
3.9457036614173226
20
-4.0265872834645666
11
3.9456317322834646
21
-4.0265574803149606
0
LINE
8
BLACK
6
CONTINUOUS
10
3.9456317322834646
20
-4.0265574803149606
11
3.9455507480314962
21
-4.0264910236220475
0
LINE
8
BLACK
6
CONTINUOUS
10
3.9455507480314962
20
-4.0264910236220475
11
3.9454618110236219
21
-4.026435039370079
0
LINE
8
BLACK
6
CONTINUOUS
10
3.9454618110236219
20
-4.026435039370079
11
3.9454105905511812
21
-4.0263759842519686
0
LINE
8
BLACK
6
CONTINUOUS
10
3.9454105905511812
20
-4.0263759842519686
11
3.9451842519685036
21
-4.0261902362204722
0
LINE
8
BLACK
6
CONTINUOUS
10
3.9451842519685036
20
-4.0261902362204722
11
3.9433094881889761
21
-4.0243154330708659
0
LINE
8
BLACK
6
CONTINUOUS
10
3.9433094881889761
20
-4.0243154330708659
11
3.9431237401574801
21
-4.0240890944881889
0
LINE
8
BLACK
6
CONTINUOUS
10
3.9431237401574801
20
-4.0240890944881889
11
3.9430647637795273
21
-4.0240379527559051
0
LINE
8
BLACK
6
CONTINUOUS
10
3.9430647637795273
20
-4.0240379527559051
11
3.9430087795275588
21
-4.0239490157480313
0
LINE
8
BLACK
6
CONTINUOUS
10
3.9430087795275588
20
-4.0239490157480313
11
3.9429422834645669
21
-4.0238679921259841
0
LINE
8
BLACK
6
CONTINUOUS
10
3.9429422834645669
20
-4.0238679921259841
11
3.9429124409448817
21
-4.0237959448818899
0
LINE
8
BLACK
6
CONTINUOUS
10
3.9429124409448817
20
-4.0237959448818899
11
3.9427564173228347
21
-4.0235480708661413
0
LINE
8
BLACK
6
CONTINUOUS
10
3.9427564173228347
20
-4.0235480708661413
11
3.9408816535433071
21
-4.0197985433070862
0
LINE
8
BLACK
6
CONTINUOUS
10
3.9408816535433071
20
-4.0197985433070862
11
3.9406747637795276
21
-4.0192579133858271
0
LINE
8
BLACK
6
CONTINUOUS
10
3.9406747637795276
20
-4.0192579133858271
11
3.9406672440944881
21
-4.0191520866141728
0
LINE
8
BLACK
6
CONTINUOUS
10
3.9406672440944881
20
-4.0191520866141728
11
3.940626653543307
21
-4.0190540944881885
0
LINE
8
BLACK
6
CONTINUOUS
10
3.940626653543307
20
-4.0190540944881885
11
3.9405699212598426
21
-4.0184780314960626
0
LINE
8
BLACK
6
CONTINUOUS
10
3.9405699212598426
20
-4.0184780314960626
11
3.9405699212598426
21
-3.9866070472440942
0
LINE
8
BLACK
6
CONTINUOUS
10
3.9405699212598426
20
-3.9866070472440942
11
3.940626653543307
21
-3.9860309842519683
0
LINE
8
BLACK
6
CONTINUOUS
10
3.940626653543307
20
-3.9860309842519683
11
3.9410675590551181
21
-3.9849665748031495
0
LINE
8
BLACK
6
CONTINUOUS
10
3.9410675590551181
20
-3.9849665748031495
11
3.9418822047244095
21
-3.9841519291338581
0
LINE
8
BLACK
6
CONTINUOUS
10
3.9418822047244095
20
-3.9841519291338581
11
3.9429466141732283
21
-3.983711023622047
0
LINE
8
BLACK
6
CONTINUOUS
10
3.9429466141732283
20
-3.983711023622047
11
3.9440987401574801
21
-3.983711023622047
0
LINE
8
BLACK
6
CONTINUOUS
10
3.9440987401574801
20
-3.983711023622047
11
3.9451631496062993
21
-3.9841519291338581
0
LINE
8
BLACK
6
CONTINUOUS
10
3.9370078740157481
20
-3.8338582677165354
11
4.0137795275590546
21
-3.8338582677165354
0
LINE
8
BLACK
6
CONTINUOUS
10
4.0137795275590546
20
-3.8338582677165354
11
4.0146835039370075
21
-3.8340380708661415
0
LINE
8
BLACK
6
CONTINUOUS
10
4.0146835039370075
20
-3.8340380708661415
11
4.0159619291338577
21
-3.8353164960629922
0
LINE
8
BLACK
6
CONTINUOUS
10
4.0159619291338577
20
-3.8353164960629922
11
4.0159619291338577
21
-3.8371244488188974
0
LINE
8
BLACK
6
CONTINUOUS
10
4.0159619291338577
20
-3.8371244488188974
11
4.0146835039370075
21
-3.8384028740157481
0
LINE
8
BLACK
6
CONTINUOUS
10
4.0146835039370075
20
-3.8384028740157481
11
4.0137795275590546
21
-3.8385826771653542
0
LINE
8
BLACK
6
CONTINUOUS
10
4.0137795275590546
20
-3.8385826771653542
11
3.9370078740157481
21
-3.8385826771653542
0
LINE
8
BLACK
6
CONTINUOUS
10
3.9370078740157481
20
-3.8385826771653542
11
3.8602362204724407
21
-3.8385826771653542
0
LINE
8
BLACK
6
CONTINUOUS
10
3.8602362204724407
20
-3.8385826771653542
11
3.8593322440944879
21
-3.8384028740157481
0
LINE
8
BLACK
6
CONTINUOUS
10
3.8593322440944879
20
-3.8384028740157481
11
3.8580538188976377
21
-3.8371244488188974
0
LINE
8
BLACK
6
CONTINUOUS
10
3.8580538188976377
20
-3.8371244488188974
11
3.8580538188976377
21
-3.8353164960629922
0
LINE
8
BLACK
6
CONTINUOUS
10
3.8580538188976377
20
-3.8353164960629922
11
3.8593322440944879
21
-3.8340380708661415
0
LINE
8
BLACK
6
CONTINUOUS
10
3.8593322440944879
20
-3.8340380708661415
11
3.8602362204724407
21
-3.8338582677165354
0
LINE
8
BLACK
6
CONTINUOUS
10
3.8602362204724407
20
-3.8338582677165354
11
3.9370078740157481
21
-3.8338582677165354
  0
ENDSEC
  0
EOF
