  0
SECTION
  2
HEADER
  9
$ANGBASE
  50
0.0
  9
$ANGDIR
  70
1
  9
$MEASUREMENT
  70
0
  0
ENDSEC
  0
SECTION
  2
TABLES
  0
TABLE
  2
LTYPE
  70
4
  0
LTYPE
  5
40F
  2
CONTINUOUS
  70
0
  3
Solid line
  72
65
  73
0
  40
0.0
  0
LTYPE
  5
410
  2
DASHDOT
 70
0
  3
Dash Dot ____ _ ____ _
 72
65
 73
4
 40
2.0
 49
1.25
 49
-0.25
 49
0.25
 49
-0.25
  0
LTYPE
  5
411
  2
DASHED
 70
0
  3
Dashed __ __ __ __ __
 72
65
 73
2
 40
0.75
 49
0.5
 49
-0.25
  0
LTYPE
  5
43B
  2
DOTTED
 70
0
  3
Dotted .  .  .  .
 72
65
 73
2
 40
0.2
 49
0.0
 49
-0.2
  0
ENDTAB
  0
TABLE
  2
STYLE
  70
4
  0
STYLE
  2
KICAD
  70
0
  40
0
  41
1
  42
1
  50
0
  71
0
  3
isocp.shx
  0
STYLE
  2
KICADB
  70
0
  40
0
  41
1
  42
1
  50
0
  71
0
  3
isocp.shx
  0
STYLE
  2
KICADI
  70
0
  40
0
  41
1
  42
1
  50
15
  71
0
  3
isocp.shx
  0
STYLE
  2
KICADBI
  70
0
  40
0
  41
1
  42
1
  50
15
  71
0
  3
isocp.shx
  0
ENDTAB
  0
TABLE
  2
LAYER
  70
1
  0
LAYER
  2
BLACK
  70
0
  62
7
  6
CONTINUOUS
  0
ENDTAB
  0
ENDSEC
  0
SECTION
  2
ENTITIES
0
LINE
8
BLACK
6
CONTINUOUS
10
3.7696850393700787
20
-4.372047244094488
11
3.7027559055118111
21
-4.372047244094488
0
LINE
8
BLACK
6
CONTINUOUS
10
3.7027559055118111
20
-4.372047244094488
11
3.7027559055118111
21
-4.3051181102362204
0
LINE
8
BLACK
6
CONTINUOUS
10
3.7027559055118111
20
-4.3051181102362204
11
3.7696850393700787
21
-4.3051181102362204
0
LINE
8
BLACK
6
CONTINUOUS
10
3.7696850393700787
20
-4.3051181102362204
11
3.7696850393700787
21
-4.372047244094488
0
LINE
8
BLACK
6
CONTINUOUS
10
3.8459347244094486
20
-4.3065590944881889
11
3.8519955511811022
21
-4.3090695669291339
0
LINE
8
BLACK
6
CONTINUOUS
10
3.8519955511811022
20
-4.3090695669291339
11
3.8574501574803151
21
-4.3127142125984248
0
LINE
8
BLACK
6
CONTINUOUS
10
3.8574501574803151
20
-4.3127142125984248
11
3.8620889370078739
21
-4.3173529921259846
0
LINE
8
BLACK
6
CONTINUOUS
10
3.8620889370078739
20
-4.3173529921259846
11
3.8657335826771653
21
-4.3228075984251966
0
LINE
8
BLACK
6
CONTINUOUS
10
3.8657335826771653
20
-4.3228075984251966
11
3.8682440551181103
21
-4.3288684251968501
0
LINE
8
BLACK
6
CONTINUOUS
10
3.8682440551181103
20
-4.3288684251968501
11
3.8695238976377953
21
-4.3353025590551182
0
LINE
8
BLACK
6
CONTINUOUS
10
3.8695238976377953
20
-4.3353025590551182
11
3.8695238976377953
21
-4.3418627952755902
0
LINE
8
BLACK
6
CONTINUOUS
10
3.8695238976377953
20
-4.3418627952755902
11
3.8682440551181103
21
-4.3482969291338582
0
LINE
8
BLACK
6
CONTINUOUS
10
3.8682440551181103
20
-4.3482969291338582
11
3.8657335826771653
21
-4.3543577559055118
0
LINE
8
BLACK
6
CONTINUOUS
10
3.8657335826771653
20
-4.3543577559055118
11
3.8620889370078739
21
-4.3598123622047247
0
LINE
8
BLACK
6
CONTINUOUS
10
3.8620889370078739
20
-4.3598123622047247
11
3.8574501574803151
21
-4.3644511417322835
0
LINE
8
BLACK
6
CONTINUOUS
10
3.8574501574803151
20
-4.3644511417322835
11
3.8519955511811022
21
-4.3680957874015744
0
LINE
8
BLACK
6
CONTINUOUS
10
3.8519955511811022
20
-4.3680957874015744
11
3.8459347244094486
21
-4.3706062598425195
0
LINE
8
BLACK
6
CONTINUOUS
10
3.8459347244094486
20
-4.3706062598425195
11
3.839500590551181
21
-4.3718861023622049
0
LINE
8
BLACK
6
CONTINUOUS
10
3.839500590551181
20
-4.3718861023622049
11
3.8329403543307086
21
-4.3718861023622049
0
LINE
8
BLACK
6
CONTINUOUS
10
3.8329403543307086
20
-4.3718861023622049
11
3.8265062204724409
21
-4.3706062598425195
0
LINE
8
BLACK
6
CONTINUOUS
10
3.8265062204724409
20
-4.3706062598425195
11
3.8204453937007874
21
-4.3680957874015744
0
LINE
8
BLACK
6
CONTINUOUS
10
3.8204453937007874
20
-4.3680957874015744
11
3.8149907874015749
21
-4.3644511417322835
0
LINE
8
BLACK
6
CONTINUOUS
10
3.8149907874015749
20
-4.3644511417322835
11
3.8103520078740156
21
-4.3598123622047247
0
LINE
8
BLACK
6
CONTINUOUS
10
3.8103520078740156
20
-4.3598123622047247
11
3.8067073622047243
21
-4.3543577559055118
0
LINE
8
BLACK
6
CONTINUOUS
10
3.8067073622047243
20
-4.3543577559055118
11
3.8041968897637792
21
-4.3482969291338582
0
LINE
8
BLACK
6
CONTINUOUS
10
3.8041968897637792
20
-4.3482969291338582
11
3.8029170472440943
21
-4.3418627952755902
0
LINE
8
BLACK
6
CONTINUOUS
10
3.8029170472440943
20
-4.3418627952755902
11
3.8029170472440943
21
-4.3353025590551182
0
LINE
8
BLACK
6
CONTINUOUS
10
3.8029170472440943
20
-4.3353025590551182
11
3.8041968897637792
21
-4.3288684251968501
0
LINE
8
BLACK
6
CONTINUOUS
10
3.8041968897637792
20
-4.3288684251968501
11
3.8067073622047243
21
-4.3228075984251966
0
LINE
8
BLACK
6
CONTINUOUS
10
3.8067073622047243
20
-4.3228075984251966
11
3.8103520078740156
21
-4.3173529921259846
0
LINE
8
BLACK
6
CONTINUOUS
10
3.8103520078740156
20
-4.3173529921259846
11
3.8149907874015749
21
-4.3127142125984248
0
LINE
8
BLACK
6
CONTINUOUS
10
3.8149907874015749
20
-4.3127142125984248
11
3.8204453937007874
21
-4.3090695669291339
0
LINE
8
BLACK
6
CONTINUOUS
10
3.8204453937007874
20
-4.3090695669291339
11
3.8265062204724409
21
-4.3065590944881889
0
LINE
8
BLACK
6
CONTINUOUS
10
3.8265062204724409
20
-4.3065590944881889
11
3.8329403543307086
21
-4.3052792519685035
0
LINE
8
BLACK
6
CONTINUOUS
10
3.8329403543307086
20
-4.3052792519685035
11
3.839500590551181
21
-4.3052792519685035
0
LINE
8
BLACK
6
CONTINUOUS
10
3.839500590551181
20
-4.3052792519685035
11
3.8459347244094486
21
-4.3065590944881889
0
LINE
8
BLACK
6
CONTINUOUS
10
3.9459347244094487
20
-4.3065590944881889
11
3.9519955511811022
21
-4.3090695669291339
0
LINE
8
BLACK
6
CONTINUOUS
10
3.9519955511811022
20
-4.3090695669291339
11
3.9574501574803147
21
-4.3127142125984248
0
LINE
8
BLACK
6
CONTINUOUS
10
3.9574501574803147
20
-4.3127142125984248
11
3.962088937007874
21
-4.3173529921259846
0
LINE
8
BLACK
6
CONTINUOUS
10
3.962088937007874
20
-4.3173529921259846
11
3.9657335826771654
21
-4.3228075984251966
0
LINE
8
BLACK
6
CONTINUOUS
10
3.9657335826771654
20
-4.3228075984251966
11
3.96824405511811
21
-4.3288684251968501
0
LINE
8
BLACK
6
CONTINUOUS
10
3.96824405511811
20
-4.3288684251968501
11
3.9695238976377953
21
-4.3353025590551182
0
LINE
8
BLACK
6
CONTINUOUS
10
3.9695238976377953
20
-4.3353025590551182
11
3.9695238976377953
21
-4.3418627952755902
0
LINE
8
BLACK
6
CONTINUOUS
10
3.9695238976377953
20
-4.3418627952755902
11
3.96824405511811
21
-4.3482969291338582
0
LINE
8
BLACK
6
CONTINUOUS
10
3.96824405511811
20
-4.3482969291338582
11
3.9657335826771654
21
-4.3543577559055118
0
LINE
8
BLACK
6
CONTINUOUS
10
3.9657335826771654
20
-4.3543577559055118
11
3.962088937007874
21
-4.3598123622047247
0
LINE
8
BLACK
6
CONTINUOUS
10
3.962088937007874
20
-4.3598123622047247
11
3.9574501574803147
21
-4.3644511417322835
0
LINE
8
BLACK
6
CONTINUOUS
10
3.9574501574803147
20
-4.3644511417322835
11
3.9519955511811022
21
-4.3680957874015744
0
LINE
8
BLACK
6
CONTINUOUS
10
3.9519955511811022
20
-4.3680957874015744
11
3.9459347244094487
21
-4.3706062598425195
0
LINE
8
BLACK
6
CONTINUOUS
10
3.9459347244094487
20
-4.3706062598425195
11
3.9395005905511811
21
-4.3718861023622049
0
LINE
8
BLACK
6
CONTINUOUS
10
3.9395005905511811
20
-4.3718861023622049
11
3.9329403543307087
21
-4.3718861023622049
0
LINE
8
BLACK
6
CONTINUOUS
10
3.9329403543307087
20
-4.3718861023622049
11
3.926506220472441
21
-4.3706062598425195
0
LINE
8
BLACK
6
CONTINUOUS
10
3.926506220472441
20
-4.3706062598425195
11
3.9204453937007875
21
-4.3680957874015744
0
LINE
8
BLACK
6
CONTINUOUS
10
3.9204453937007875
20
-4.3680957874015744
11
3.9149907874015746
21
-4.3644511417322835
0
LINE
8
BLACK
6
CONTINUOUS
10
3.9149907874015746
20
-4.3644511417322835
11
3.9103520078740157
21
-4.3598123622047247
0
LINE
8
BLACK
6
CONTINUOUS
10
3.9103520078740157
20
-4.3598123622047247
11
3.9067073622047244
21
-4.3543577559055118
0
LINE
8
BLACK
6
CONTINUOUS
10
3.9067073622047244
20
-4.3543577559055118
11
3.9041968897637793
21
-4.3482969291338582
0
LINE
8
BLACK
6
CONTINUOUS
10
3.9041968897637793
20
-4.3482969291338582
11
3.9029170472440944
21
-4.3418627952755902
0
LINE
8
BLACK
6
CONTINUOUS
10
3.9029170472440944
20
-4.3418627952755902
11
3.9029170472440944
21
-4.3353025590551182
0
LINE
8
BLACK
6
CONTINUOUS
10
3.9029170472440944
20
-4.3353025590551182
11
3.9041968897637793
21
-4.3288684251968501
0
LINE
8
BLACK
6
CONTINUOUS
10
3.9041968897637793
20
-4.3288684251968501
11
3.9067073622047244
21
-4.3228075984251966
0
LINE
8
BLACK
6
CONTINUOUS
10
3.9067073622047244
20
-4.3228075984251966
11
3.9103520078740157
21
-4.3173529921259846
0
LINE
8
BLACK
6
CONTINUOUS
10
3.9103520078740157
20
-4.3173529921259846
11
3.9149907874015746
21
-4.3127142125984248
0
LINE
8
BLACK
6
CONTINUOUS
10
3.9149907874015746
20
-4.3127142125984248
11
3.9204453937007875
21
-4.3090695669291339
0
LINE
8
BLACK
6
CONTINUOUS
10
3.9204453937007875
20
-4.3090695669291339
11
3.926506220472441
21
-4.3065590944881889
0
LINE
8
BLACK
6
CONTINUOUS
10
3.926506220472441
20
-4.3065590944881889
11
3.9329403543307087
21
-4.3052792519685035
0
LINE
8
BLACK
6
CONTINUOUS
10
3.9329403543307087
20
-4.3052792519685035
11
3.9395005905511811
21
-4.3052792519685035
0
LINE
8
BLACK
6
CONTINUOUS
10
3.9395005905511811
20
-4.3052792519685035
11
3.9459347244094487
21
-4.3065590944881889
0
LINE
8
BLACK
6
CONTINUOUS
10
4.0459347244094488
20
-4.3065590944881889
11
4.0519955511811023
21
-4.3090695669291339
0
LINE
8
BLACK
6
CONTINUOUS
10
4.0519955511811023
20
-4.3090695669291339
11
4.0574501574803152
21
-4.3127142125984248
0
LINE
8
BLACK
6
CONTINUOUS
10
4.0574501574803152
20
-4.3127142125984248
11
4.0620889370078741
21
-4.3173529921259846
0
LINE
8
BLACK
6
CONTINUOUS
10
4.0620889370078741
20
-4.3173529921259846
11
4.065733582677165
21
-4.3228075984251966
0
LINE
8
BLACK
6
CONTINUOUS
10
4.065733582677165
20
-4.3228075984251966
11
4.06824405511811
21
-4.3288684251968501
0
LINE
8
BLACK
6
CONTINUOUS
10
4.06824405511811
20
-4.3288684251968501
11
4.0695238976377954
21
-4.3353025590551182
0
LINE
8
BLACK
6
CONTINUOUS
10
4.0695238976377954
20
-4.3353025590551182
11
4.0695238976377954
21
-4.3418627952755902
0
LINE
8
BLACK
6
CONTINUOUS
10
4.0695238976377954
20
-4.3418627952755902
11
4.06824405511811
21
-4.3482969291338582
0
LINE
8
BLACK
6
CONTINUOUS
10
4.06824405511811
20
-4.3482969291338582
11
4.065733582677165
21
-4.3543577559055118
0
LINE
8
BLACK
6
CONTINUOUS
10
4.065733582677165
20
-4.3543577559055118
11
4.0620889370078741
21
-4.3598123622047247
0
LINE
8
BLACK
6
CONTINUOUS
10
4.0620889370078741
20
-4.3598123622047247
11
4.0574501574803152
21
-4.3644511417322835
0
LINE
8
BLACK
6
CONTINUOUS
10
4.0574501574803152
20
-4.3644511417322835
11
4.0519955511811023
21
-4.3680957874015744
0
LINE
8
BLACK
6
CONTINUOUS
10
4.0519955511811023
20
-4.3680957874015744
11
4.0459347244094488
21
-4.3706062598425195
0
LINE
8
BLACK
6
CONTINUOUS
10
4.0459347244094488
20
-4.3706062598425195
11
4.0395005905511807
21
-4.3718861023622049
0
LINE
8
BLACK
6
CONTINUOUS
10
4.0395005905511807
20
-4.3718861023622049
11
4.0329403543307087
21
-4.3718861023622049
0
LINE
8
BLACK
6
CONTINUOUS
10
4.0329403543307087
20
-4.3718861023622049
11
4.0265062204724407
21
-4.3706062598425195
0
LINE
8
BLACK
6
CONTINUOUS
10
4.0265062204724407
20
-4.3706062598425195
11
4.0204453937007871
21
-4.3680957874015744
0
LINE
8
BLACK
6
CONTINUOUS
10
4.0204453937007871
20
-4.3680957874015744
11
4.0149907874015751
21
-4.3644511417322835
0
LINE
8
BLACK
6
CONTINUOUS
10
4.0149907874015751
20
-4.3644511417322835
11
4.0103520078740154
21
-4.3598123622047247
0
LINE
8
BLACK
6
CONTINUOUS
10
4.0103520078740154
20
-4.3598123622047247
11
4.0067073622047245
21
-4.3543577559055118
0
LINE
8
BLACK
6
CONTINUOUS
10
4.0067073622047245
20
-4.3543577559055118
11
4.0041968897637794
21
-4.3482969291338582
0
LINE
8
BLACK
6
CONTINUOUS
10
4.0041968897637794
20
-4.3482969291338582
11
4.002917047244094
21
-4.3418627952755902
0
LINE
8
BLACK
6
CONTINUOUS
10
4.002917047244094
20
-4.3418627952755902
11
4.002917047244094
21
-4.3353025590551182
0
LINE
8
BLACK
6
CONTINUOUS
10
4.002917047244094
20
-4.3353025590551182
11
4.0041968897637794
21
-4.3288684251968501
0
LINE
8
BLACK
6
CONTINUOUS
10
4.0041968897637794
20
-4.3288684251968501
11
4.0067073622047245
21
-4.3228075984251966
0
LINE
8
BLACK
6
CONTINUOUS
10
4.0067073622047245
20
-4.3228075984251966
11
4.0103520078740154
21
-4.3173529921259846
0
LINE
8
BLACK
6
CONTINUOUS
10
4.0103520078740154
20
-4.3173529921259846
11
4.0149907874015751
21
-4.3127142125984248
0
LINE
8
BLACK
6
CONTINUOUS
10
4.0149907874015751
20
-4.3127142125984248
11
4.0204453937007871
21
-4.3090695669291339
0
LINE
8
BLACK
6
CONTINUOUS
10
4.0204453937007871
20
-4.3090695669291339
11
4.0265062204724407
21
-4.3065590944881889
0
LINE
8
BLACK
6
CONTINUOUS
10
4.0265062204724407
20
-4.3065590944881889
11
4.0329403543307087
21
-4.3052792519685035
0
LINE
8
BLACK
6
CONTINUOUS
10
4.0329403543307087
20
-4.3052792519685035
11
4.0395005905511807
21
-4.3052792519685035
0
LINE
8
BLACK
6
CONTINUOUS
10
4.0395005905511807
20
-4.3052792519685035
11
4.0459347244094488
21
-4.3065590944881889
0
LINE
8
BLACK
6
CONTINUOUS
10
4.1459347244094484
20
-4.3065590944881889
11
4.151995551181102
21
-4.3090695669291339
0
LINE
8
BLACK
6
CONTINUOUS
10
4.151995551181102
20
-4.3090695669291339
11
4.1574501574803149
21
-4.3127142125984248
0
LINE
8
BLACK
6
CONTINUOUS
10
4.1574501574803149
20
-4.3127142125984248
11
4.1620889370078737
21
-4.3173529921259846
0
LINE
8
BLACK
6
CONTINUOUS
10
4.1620889370078737
20
-4.3173529921259846
11
4.1657335826771655
21
-4.3228075984251966
0
LINE
8
BLACK
6
CONTINUOUS
10
4.1657335826771655
20
-4.3228075984251966
11
4.1682440551181106
21
-4.3288684251968501
0
LINE
8
BLACK
6
CONTINUOUS
10
4.1682440551181106
20
-4.3288684251968501
11
4.1695238976377951
21
-4.3353025590551182
0
LINE
8
BLACK
6
CONTINUOUS
10
4.1695238976377951
20
-4.3353025590551182
11
4.1695238976377951
21
-4.3418627952755902
0
LINE
8
BLACK
6
CONTINUOUS
10
4.1695238976377951
20
-4.3418627952755902
11
4.1682440551181106
21
-4.3482969291338582
0
LINE
8
BLACK
6
CONTINUOUS
10
4.1682440551181106
20
-4.3482969291338582
11
4.1657335826771655
21
-4.3543577559055118
0
LINE
8
BLACK
6
CONTINUOUS
10
4.1657335826771655
20
-4.3543577559055118
11
4.1620889370078737
21
-4.3598123622047247
0
LINE
8
BLACK
6
CONTINUOUS
10
4.1620889370078737
20
-4.3598123622047247
11
4.1574501574803149
21
-4.3644511417322835
0
LINE
8
BLACK
6
CONTINUOUS
10
4.1574501574803149
20
-4.3644511417322835
11
4.151995551181102
21
-4.3680957874015744
0
LINE
8
BLACK
6
CONTINUOUS
10
4.151995551181102
20
-4.3680957874015744
11
4.1459347244094484
21
-4.3706062598425195
0
LINE
8
BLACK
6
CONTINUOUS
10
4.1459347244094484
20
-4.3706062598425195
11
4.1395005905511812
21
-4.3718861023622049
0
LINE
8
BLACK
6
CONTINUOUS
10
4.1395005905511812
20
-4.3718861023622049
11
4.1329403543307084
21
-4.3718861023622049
0
LINE
8
BLACK
6
CONTINUOUS
10
4.1329403543307084
20
-4.3718861023622049
11
4.1265062204724412
21
-4.3706062598425195
0
LINE
8
BLACK
6
CONTINUOUS
10
4.1265062204724412
20
-4.3706062598425195
11
4.1204453937007877
21
-4.3680957874015744
0
LINE
8
BLACK
6
CONTINUOUS
10
4.1204453937007877
20
-4.3680957874015744
11
4.1149907874015748
21
-4.3644511417322835
0
LINE
8
BLACK
6
CONTINUOUS
10
4.1149907874015748
20
-4.3644511417322835
11
4.1103520078740159
21
-4.3598123622047247
0
LINE
8
BLACK
6
CONTINUOUS
10
4.1103520078740159
20
-4.3598123622047247
11
4.1067073622047241
21
-4.3543577559055118
0
LINE
8
BLACK
6
CONTINUOUS
10
4.1067073622047241
20
-4.3543577559055118
11
4.1041968897637791
21
-4.3482969291338582
0
LINE
8
BLACK
6
CONTINUOUS
10
4.1041968897637791
20
-4.3482969291338582
11
4.1029170472440946
21
-4.3418627952755902
0
LINE
8
BLACK
6
CONTINUOUS
10
4.1029170472440946
20
-4.3418627952755902
11
4.1029170472440946
21
-4.3353025590551182
0
LINE
8
BLACK
6
CONTINUOUS
10
4.1029170472440946
20
-4.3353025590551182
11
4.1041968897637791
21
-4.3288684251968501
0
LINE
8
BLACK
6
CONTINUOUS
10
4.1041968897637791
20
-4.3288684251968501
11
4.1067073622047241
21
-4.3228075984251966
0
LINE
8
BLACK
6
CONTINUOUS
10
4.1067073622047241
20
-4.3228075984251966
11
4.1103520078740159
21
-4.3173529921259846
0
LINE
8
BLACK
6
CONTINUOUS
10
4.1103520078740159
20
-4.3173529921259846
11
4.1149907874015748
21
-4.3127142125984248
0
LINE
8
BLACK
6
CONTINUOUS
10
4.1149907874015748
20
-4.3127142125984248
11
4.1204453937007877
21
-4.3090695669291339
0
LINE
8
BLACK
6
CONTINUOUS
10
4.1204453937007877
20
-4.3090695669291339
11
4.1265062204724412
21
-4.3065590944881889
0
LINE
8
BLACK
6
CONTINUOUS
10
4.1265062204724412
20
-4.3065590944881889
11
4.1329403543307084
21
-4.3052792519685035
0
LINE
8
BLACK
6
CONTINUOUS
10
4.1329403543307084
20
-4.3052792519685035
11
4.1395005905511812
21
-4.3052792519685035
0
LINE
8
BLACK
6
CONTINUOUS
10
4.1395005905511812
20
-4.3052792519685035
11
4.1459347244094484
21
-4.3065590944881889
0
LINE
8
BLACK
6
CONTINUOUS
10
3.8301615748031494
20
-4.1079577559055114
11
3.8330353937007873
21
-4.109877992125984
0
LINE
8
BLACK
6
CONTINUOUS
10
3.8330353937007873
20
-4.109877992125984
11
3.8349556299212599
21
-4.1127518110236219
0
LINE
8
BLACK
6
CONTINUOUS
10
3.8349556299212599
20
-4.1127518110236219
11
3.8356299212598426
21
-4.1161417322834648
0
LINE
8
BLACK
6
CONTINUOUS
10
3.8356299212598426
20
-4.1161417322834648
11
3.8356299212598426
21
-4.1210629921259843
0
LINE
8
BLACK
6
CONTINUOUS
10
3.8356299212598426
20
-4.1210629921259843
11
3.8363979921259843
21
-4.1211386220472441
0
LINE
8
BLACK
6
CONTINUOUS
10
3.8363979921259843
20
-4.1211386220472441
11
3.8378172047244092
21
-4.1217264960629922
0
LINE
8
BLACK
6
CONTINUOUS
10
3.8378172047244092
20
-4.1217264960629922
11
3.8384138188976378
21
-4.1222161023622048
0
LINE
8
BLACK
6
CONTINUOUS
10
3.8384138188976378
20
-4.1222161023622048
11
3.841414212598425
21
-4.1252164960629925
0
LINE
8
BLACK
6
CONTINUOUS
10
3.841414212598425
20
-4.1252164960629925
11
3.8419368110236221
21
-4.1249148031496059
0
LINE
8
BLACK
6
CONTINUOUS
10
3.8419368110236221
20
-4.1249148031496059
11
3.8449150393700786
21
-4.1241168110236224
0
LINE
8
BLACK
6
CONTINUOUS
10
3.8449150393700786
20
-4.1241168110236224
11
3.8479983464566927
21
-4.1241168110236224
0
LINE
8
BLACK
6
CONTINUOUS
10
3.8479983464566927
20
-4.1241168110236224
11
3.8509765748031497
21
-4.1249148031496059
0
LINE
8
BLACK
6
CONTINUOUS
10
3.8509765748031497
20
-4.1249148031496059
11
3.8536467716535432
21
-4.1264564566929129
0
LINE
8
BLACK
6
CONTINUOUS
10
3.8536467716535432
20
-4.1264564566929129
11
3.8558270078740158
21
-4.1286366929133855
0
LINE
8
BLACK
6
CONTINUOUS
10
3.8558270078740158
20
-4.1286366929133855
11
3.8573686614173228
21
-4.1313068897637795
0
LINE
8
BLACK
6
CONTINUOUS
10
3.8573686614173228
20
-4.1313068897637795
11
3.8581666535433068
21
-4.1342851181102365
0
LINE
8
BLACK
6
CONTINUOUS
10
3.8581666535433068
20
-4.1342851181102365
11
3.8581666535433068
21
-4.1373684251968506
0
LINE
8
BLACK
6
CONTINUOUS
10
3.8581666535433068
20
-4.1373684251968506
11
3.8573686614173228
21
-4.1403466535433067
0
LINE
8
BLACK
6
CONTINUOUS
10
3.8573686614173228
20
-4.1403466535433067
11
3.8558270078740158
21
-4.1430168503937006
0
LINE
8
BLACK
6
CONTINUOUS
10
3.8558270078740158
20
-4.1430168503937006
11
3.8536467716535432
21
-4.1451970866141732
0
LINE
8
BLACK
6
CONTINUOUS
10
3.8536467716535432
20
-4.1451970866141732
11
3.8509765748031497
21
-4.1467387401574802
0
LINE
8
BLACK
6
CONTINUOUS
10
3.8509765748031497
20
-4.1467387401574802
11
3.8479983464566927
21
-4.1475367322834646
0
LINE
8
BLACK
6
CONTINUOUS
10
3.8479983464566927
20
-4.1475367322834646
11
3.8449150393700786
21
-4.1475367322834646
0
LINE
8
BLACK
6
CONTINUOUS
10
3.8449150393700786
20
-4.1475367322834646
11
3.8419368110236221
21
-4.1467387401574802
0
LINE
8
BLACK
6
CONTINUOUS
10
3.8419368110236221
20
-4.1467387401574802
11
3.8392666141732281
21
-4.1451970866141732
0
LINE
8
BLACK
6
CONTINUOUS
10
3.8392666141732281
20
-4.1451970866141732
11
3.837086377952756
21
-4.1430168503937006
0
LINE
8
BLACK
6
CONTINUOUS
10
3.837086377952756
20
-4.1430168503937006
11
3.8355447244094489
21
-4.1403466535433067
0
LINE
8
BLACK
6
CONTINUOUS
10
3.8355447244094489
20
-4.1403466535433067
11
3.834783503937008
21
-4.1375057480314963
0
LINE
8
BLACK
6
CONTINUOUS
10
3.834783503937008
20
-4.1375057480314963
11
3.8330353937007873
21
-4.140122007874016
0
LINE
8
BLACK
6
CONTINUOUS
10
3.8330353937007873
20
-4.140122007874016
11
3.8301615748031494
21
-4.1420422440944877
0
LINE
8
BLACK
6
CONTINUOUS
10
3.8301615748031494
20
-4.1420422440944877
11
3.826771653543307
21
-4.1427165354330704
0
LINE
8
BLACK
6
CONTINUOUS
10
3.826771653543307
20
-4.1427165354330704
11
3.8070866141732282
21
-4.1427165354330704
0
LINE
8
BLACK
6
CONTINUOUS
10
3.8070866141732282
20
-4.1427165354330704
11
3.8036966929133857
21
-4.1420422440944877
0
LINE
8
BLACK
6
CONTINUOUS
10
3.8036966929133857
20
-4.1420422440944877
11
3.8008228740157479
21
-4.140122007874016
0
LINE
8
BLACK
6
CONTINUOUS
10
3.8008228740157479
20
-4.140122007874016
11
3.7989026377952757
21
-4.1372481889763781
0
LINE
8
BLACK
6
CONTINUOUS
10
3.7989026377952757
20
-4.1372481889763781
11
3.7982283464566926
21
-4.1338582677165352
0
LINE
8
BLACK
6
CONTINUOUS
10
3.7982283464566926
20
-4.1338582677165352
11
3.7982283464566926
21
-4.1161417322834648
0
LINE
8
BLACK
6
CONTINUOUS
10
3.7982283464566926
20
-4.1161417322834648
11
3.7989026377952757
21
-4.1127518110236219
0
LINE
8
BLACK
6
CONTINUOUS
10
3.7989026377952757
20
-4.1127518110236219
11
3.8008228740157479
21
-4.109877992125984
0
LINE
8
BLACK
6
CONTINUOUS
10
3.8008228740157479
20
-4.109877992125984
11
3.8036966929133857
21
-4.1079577559055114
0
LINE
8
BLACK
6
CONTINUOUS
10
3.8036966929133857
20
-4.1079577559055114
11
3.8070866141732282
21
-4.1072834645669287
0
LINE
8
BLACK
6
CONTINUOUS
10
3.8070866141732282
20
-4.1072834645669287
11
3.826771653543307
21
-4.1072834645669287
0
LINE
8
BLACK
6
CONTINUOUS
10
3.826771653543307
20
-4.1072834645669287
11
3.8301615748031494
21
-4.1079577559055114
0
LINE
8
BLACK
6
CONTINUOUS
10
3.8356299212598426
20
-4.1311592913385828
11
3.8358464173228346
21
-4.1307842913385828
0
LINE
8
BLACK
6
CONTINUOUS
10
3.8358464173228346
20
-4.1307842913385828
11
3.8356299212598426
21
-4.1305677559055116
0
LINE
8
BLACK
6
CONTINUOUS
10
3.8356299212598426
20
-4.1305677559055116
11
3.8356299212598426
21
-4.1311592913385828
0
LINE
8
BLACK
6
CONTINUOUS
10
4.1218768110236219
20
-3.7546862204724407
11
4.1250699606299213
21
-3.7568198031496061
0
LINE
8
BLACK
6
CONTINUOUS
10
4.1250699606299213
20
-3.7568198031496061
11
4.1272035433070862
21
-3.7600129527559054
0
LINE
8
BLACK
6
CONTINUOUS
10
4.1272035433070862
20
-3.7600129527559054
11
4.127952755905512
21
-3.7637795275590551
0
LINE
8
BLACK
6
CONTINUOUS
10
4.127952755905512
20
-3.7637795275590551
11
4.127952755905512
21
-3.8543307086614171
0
LINE
8
BLACK
6
CONTINUOUS
10
4.127952755905512
20
-3.8543307086614171
11
4.1272035433070862
21
-3.8580972834645668
0
LINE
8
BLACK
6
CONTINUOUS
10
4.1272035433070862
20
-3.8580972834645668
11
4.1250699606299213
21
-3.8612904330708662
0
LINE
8
BLACK
6
CONTINUOUS
10
4.1250699606299213
20
-3.8612904330708662
11
4.1218768110236219
21
-3.8634240157480315
0
LINE
8
BLACK
6
CONTINUOUS
10
4.1218768110236219
20
-3.8634240157480315
11
4.1181102362204722
21
-3.8641732283464565
0
LINE
8
BLACK
6
CONTINUOUS
10
4.1181102362204722
20
-3.8641732283464565
11
4.0984251968503935
21
-3.8641732283464565
0
LINE
8
BLACK
6
CONTINUOUS
10
4.0984251968503935
20
-3.8641732283464565
11
4.0946586220472438
21
-3.8634240157480315
0
LINE
8
BLACK
6
CONTINUOUS
10
4.0946586220472438
20
-3.8634240157480315
11
4.0914654724409445
21
-3.8612904330708662
0
LINE
8
BLACK
6
CONTINUOUS
10
4.0914654724409445
20
-3.8612904330708662
11
4.0893318897637796
21
-3.8580972834645668
0
LINE
8
BLACK
6
CONTINUOUS
10
4.0893318897637796
20
-3.8580972834645668
11
4.0885826771653546
21
-3.8543307086614171
0
LINE
8
BLACK
6
CONTINUOUS
10
4.0885826771653546
20
-3.8543307086614171
11
4.0885826771653546
21
-3.7637795275590551
0
LINE
8
BLACK
6
CONTINUOUS
10
4.0885826771653546
20
-3.7637795275590551
11
4.0893318897637796
21
-3.7600129527559054
0
LINE
8
BLACK
6
CONTINUOUS
10
4.0893318897637796
20
-3.7600129527559054
11
4.0914654724409445
21
-3.7568198031496061
0
LINE
8
BLACK
6
CONTINUOUS
10
4.0914654724409445
20
-3.7568198031496061
11
4.0946586220472438
21
-3.7546862204724407
0
LINE
8
BLACK
6
CONTINUOUS
10
4.0946586220472438
20
-3.7546862204724407
11
4.0984251968503935
21
-3.7539370078740157
0
LINE
8
BLACK
6
CONTINUOUS
10
4.0984251968503935
20
-3.7539370078740157
11
4.1181102362204722
21
-3.7539370078740157
0
LINE
8
BLACK
6
CONTINUOUS
10
4.1181102362204722
20
-3.7539370078740157
11
4.1218768110236219
21
-3.7546862204724407
0
LINE
8
BLACK
6
CONTINUOUS
10
4.0527971653543302
20
-3.6425269685039368
11
4.0545985433070868
21
-3.644605866141732
0
LINE
8
BLACK
6
CONTINUOUS
10
4.0545985433070868
20
-3.644605866141732
11
4.0550397244094487
21
-3.6466338582677165
0
LINE
8
BLACK
6
CONTINUOUS
10
4.0550397244094487
20
-3.6466338582677165
11
4.0550397244094487
21
-3.6467985826771652
0
LINE
8
BLACK
6
CONTINUOUS
10
4.0550397244094487
20
-3.6467985826771652
11
4.0549569685039373
21
-3.6476935826771655
0
LINE
8
BLACK
6
CONTINUOUS
10
4.0549569685039373
20
-3.6476935826771655
11
4.0548981102362207
21
-3.6480090157480314
0
LINE
8
BLACK
6
CONTINUOUS
10
4.0548981102362207
20
-3.6480090157480314
11
4.0548981102362207
21
-3.6480092125984251
0
LINE
8
BLACK
6
CONTINUOUS
10
4.0548981102362207
20
-3.6480092125984251
11
4.0550397244094487
21
-3.6498348031496062
0
LINE
8
BLACK
6
CONTINUOUS
10
4.0550397244094487
20
-3.6498348031496062
11
4.0550397244094487
21
-3.6516659055118108
0
LINE
8
BLACK
6
CONTINUOUS
10
4.0550397244094487
20
-3.6516659055118108
11
4.0552396062992129
21
-3.6524119685039369
0
LINE
8
BLACK
6
CONTINUOUS
10
4.0552396062992129
20
-3.6524119685039369
11
4.0552745275590549
21
-3.6528620078740155
0
LINE
8
BLACK
6
CONTINUOUS
10
4.0552745275590549
20
-3.6528620078740155
11
4.0552744881889762
21
-3.652862086614173
0
LINE
8
BLACK
6
CONTINUOUS
10
4.0552744881889762
20
-3.652862086614173
11
4.0552992913385824
21
-3.6531817322834645
0
LINE
8
BLACK
6
CONTINUOUS
10
4.0552992913385824
20
-3.6531817322834645
11
4.0552993307086611
21
-3.6531819685039371
0
LINE
8
BLACK
6
CONTINUOUS
10
4.0552993307086611
20
-3.6531819685039371
11
4.0558457086614172
21
-3.6547305511811023
0
LINE
8
BLACK
6
CONTINUOUS
10
4.0558457086614172
20
-3.6547305511811023
11
4.0559574409448818
21
-3.6550911023622046
0
LINE
8
BLACK
6
CONTINUOUS
10
4.0559574409448818
20
-3.6550911023622046
11
4.0563825984251967
21
-3.6566775590551179
0
LINE
8
BLACK
6
CONTINUOUS
10
4.0563825984251967
20
-3.6566775590551179
11
4.0565431496062994
21
-3.6569557086614171
0
LINE
8
BLACK
6
CONTINUOUS
10
4.0565431496062994
20
-3.6569557086614171
11
4.0569187795275585
21
-3.6577716929133857
0
LINE
8
BLACK
6
CONTINUOUS
10
4.0569187795275585
20
-3.6577716929133857
11
4.0570256299212595
21
-3.6580745275590552
0
LINE
8
BLACK
6
CONTINUOUS
10
4.0570256299212595
20
-3.6580745275590552
11
4.0570257874015745
21
-3.6580748425196852
0
LINE
8
BLACK
6
CONTINUOUS
10
4.0570257874015745
20
-3.6580748425196852
11
4.0579543700787397
21
-3.6594292125984249
0
LINE
8
BLACK
6
CONTINUOUS
10
4.0579543700787397
20
-3.6594292125984249
11
4.0580613779527557
21
-3.6595852755905511
0
LINE
8
BLACK
6
CONTINUOUS
10
4.0580613779527557
20
-3.6595852755905511
11
4.0589767322834645
21
-3.6611707086614174
0
LINE
8
BLACK
6
CONTINUOUS
10
4.0589767322834645
20
-3.6611707086614174
11
4.0595228346456693
21
-3.6617168110236218
0
LINE
8
BLACK
6
CONTINUOUS
10
4.0595228346456693
20
-3.6617168110236218
11
4.0599596456692915
21
-3.6623538976377952
0
LINE
8
BLACK
6
CONTINUOUS
10
4.0599596456692915
20
-3.6623538976377952
11
4.061207440944882
21
-3.6634220472440946
0
LINE
8
BLACK
6
CONTINUOUS
10
4.061207440944882
20
-3.6634220472440946
11
4.0612074015748032
21
-3.6634220472440946
0
LINE
8
BLACK
6
CONTINUOUS
10
4.0612074015748032
20
-3.6634220472440946
11
4.0613509448818901
21
-3.6635449212598425
0
LINE
8
BLACK
6
CONTINUOUS
10
4.0613509448818901
20
-3.6635449212598425
11
4.0626454724409449
21
-3.6648394488188973
0
LINE
8
BLACK
6
CONTINUOUS
10
4.0626454724409449
20
-3.6648394488188973
11
4.0633142913385827
21
-3.6652255905511808
0
LINE
8
BLACK
6
CONTINUOUS
10
4.0633142913385827
20
-3.6652255905511808
11
4.0639011023622045
21
-3.6657279133858265
0
LINE
8
BLACK
6
CONTINUOUS
10
4.0639011023622045
20
-3.6657279133858265
11
4.0653843307086612
21
-3.6664374015748029
0
LINE
8
BLACK
6
CONTINUOUS
10
4.0653843307086612
20
-3.6664374015748029
11
4.0654919685039372
21
-3.6664905511811021
0
LINE
8
BLACK
6
CONTINUOUS
10
4.0654919685039372
20
-3.6664905511811021
11
4.0656051181102359
21
-3.6665481889763778
0
LINE
8
BLACK
6
CONTINUOUS
10
4.0656051181102359
20
-3.6665481889763778
11
4.0671387007874014
21
-3.6674336220472439
0
LINE
8
BLACK
6
CONTINUOUS
10
4.0671387007874014
20
-3.6674336220472439
11
4.0675692125984249
21
-3.667548937007874
0
LINE
8
BLACK
6
CONTINUOUS
10
4.0675692125984249
20
-3.667548937007874
11
4.0680264566929134
21
-3.667781929133858
0
LINE
8
BLACK
6
CONTINUOUS
10
4.0680264566929134
20
-3.667781929133858
11
4.0680371653543306
21
-3.6677920472440944
0
LINE
8
BLACK
6
CONTINUOUS
10
4.0680371653543306
20
-3.6677920472440944
11
4.0680736614173227
21
-3.6678062992125984
0
LINE
8
BLACK
6
CONTINUOUS
10
4.0680736614173227
20
-3.6678062992125984
11
4.0851538582677165
21
-3.6767445669291337
0
LINE
8
BLACK
6
CONTINUOUS
10
4.0851538582677165
20
-3.6767445669291337
11
4.0854586614173227
21
-3.676918307086614
0
LINE
8
BLACK
6
CONTINUOUS
10
4.0854586614173227
20
-3.676918307086614
11
4.1034624015748031
21
-3.6880558661417324
0
LINE
8
BLACK
6
CONTINUOUS
10
4.1034624015748031
20
-3.6880558661417324
11
4.1037538976377954
21
-3.6882510236220472
0
LINE
8
BLACK
6
CONTINUOUS
10
4.1037538976377954
20
-3.6882510236220472
11
4.1209112992125982
21
-3.7006527559055118
0
LINE
8
BLACK
6
CONTINUOUS
10
4.1209112992125982
20
-3.7006527559055118
11
4.1211877165354327
21
-3.7008680314960629
0
LINE
8
BLACK
6
CONTINUOUS
10
4.1211877165354327
20
-3.7008680314960629
11
4.1374112204724405
21
-3.7144708267716533
0
LINE
8
BLACK
6
CONTINUOUS
10
4.1374112204724405
20
-3.7144708267716533
11
4.1376701968503937
21
-3.7147043307086611
0
LINE
8
BLACK
6
CONTINUOUS
10
4.1376701968503937
20
-3.7147043307086611
11
4.1528744881889761
21
-3.7294366141732285
0
LINE
8
BLACK
6
CONTINUOUS
10
4.1528744881889761
20
-3.7294366141732285
11
4.1531172834645664
21
-3.7296894094488189
0
LINE
8
BLACK
6
CONTINUOUS
10
4.1531172834645664
20
-3.7296894094488189
11
4.159120433070866
21
-3.736407086614173
0
LINE
8
BLACK
6
CONTINUOUS
10
4.159120433070866
20
-3.736407086614173
11
4.1672241732283464
21
-3.7454754330708662
0
LINE
8
BLACK
6
CONTINUOUS
10
4.1672241732283464
20
-3.7454754330708662
11
4.1674483858267717
21
-3.7457452755905511
0
LINE
8
BLACK
6
CONTINUOUS
10
4.1674483858267717
20
-3.7457452755905511
11
4.1716648818897637
21
-3.7512073228346456
0
LINE
8
BLACK
6
CONTINUOUS
10
4.1716648818897637
20
-3.7512073228346456
11
4.1798504330708663
21
-3.7618109448818897
0
LINE
8
BLACK
6
CONTINUOUS
10
4.1798504330708663
20
-3.7618109448818897
11
4.180384566929134
21
-3.762502834645669
0
LINE
8
BLACK
6
CONTINUOUS
10
4.180384566929134
20
-3.762502834645669
11
4.1805888188976379
21
-3.7627880708661419
0
LINE
8
BLACK
6
CONTINUOUS
10
4.1805888188976379
20
-3.7627880708661419
11
4.1922883464566931
21
-3.7804317322834646
0
LINE
8
BLACK
6
CONTINUOUS
10
4.1922883464566931
20
-3.7804317322834646
11
4.1924715748031494
21
-3.7807307874015748
0
LINE
8
BLACK
6
CONTINUOUS
10
4.1924715748031494
20
-3.7807307874015748
11
4.200005
21
-3.7940841338582678
0
LINE
8
BLACK
6
CONTINUOUS
10
4.200005
20
-3.7940841338582678
11
4.2028740157480318
21
-3.7991695275590551
0
LINE
8
BLACK
6
CONTINUOUS
10
4.2028740157480318
20
-3.7991695275590551
11
4.2030352755905511
21
-3.7994810629921258
0
LINE
8
BLACK
6
CONTINUOUS
10
4.2030352755905511
20
-3.7994810629921258
11
4.2120864173228343
21
-3.8186186220472442
0
LINE
8
BLACK
6
CONTINUOUS
10
4.2120864173228343
20
-3.8186186220472442
11
4.2122249212598426
21
-3.8189409842519684
0
LINE
8
BLACK
6
CONTINUOUS
10
4.2122249212598426
20
-3.8189409842519684
11
4.2198782283464569
21
-3.8386790157480313
0
LINE
8
BLACK
6
CONTINUOUS
10
4.2198782283464569
20
-3.8386790157480313
11
4.219993228346457
21
-3.8390104330708659
0
LINE
8
BLACK
6
CONTINUOUS
10
4.219993228346457
20
-3.8390104330708659
11
4.2262094094488187
21
-3.8592474803149606
0
LINE
8
BLACK
6
CONTINUOUS
10
4.2262094094488187
20
-3.8592474803149606
11
4.2263003149606302
21
-3.8595863385826772
0
LINE
8
BLACK
6
CONTINUOUS
10
4.2263003149606302
20
-3.8595863385826772
11
4.2310472047244092
21
-3.8802179133858266
0
LINE
8
BLACK
6
CONTINUOUS
10
4.2310472047244092
20
-3.8802179133858266
11
4.2311135039370074
21
-3.880562401574803
0
LINE
8
BLACK
6
CONTINUOUS
10
4.2311135039370074
20
-3.880562401574803
11
4.2343662992125983
21
-3.9014808267716536
0
LINE
8
BLACK
6
CONTINUOUS
10
4.2343662992125983
20
-3.9014808267716536
11
4.2344077165354328
21
-3.9018291732283465
0
LINE
8
BLACK
6
CONTINUOUS
10
4.2344077165354328
20
-3.9018291732283465
11
4.2347329921259842
21
-3.905768149606299
0
LINE
8
BLACK
6
CONTINUOUS
10
4.2347329921259842
20
-3.905768149606299
11
4.234749527559055
21
-3.9061537401574804
0
LINE
8
BLACK
6
CONTINUOUS
10
4.234749527559055
20
-3.9061537401574804
11
4.2347532677165356
21
-3.9072832283464565
0
LINE
8
BLACK
6
CONTINUOUS
10
4.2347532677165356
20
-3.9072832283464565
11
4.2339870472440948
21
-3.9099251574803149
0
LINE
8
BLACK
6
CONTINUOUS
10
4.2339870472440948
20
-3.9099251574803149
11
4.2319141338582673
21
-3.9117333858267718
0
LINE
8
BLACK
6
CONTINUOUS
10
4.2319141338582673
20
-3.9117333858267718
11
4.2291926377952755
21
-3.9121338976377951
0
LINE
8
BLACK
6
CONTINUOUS
10
4.2291926377952755
20
-3.9121338976377951
11
4.2266866929133862
21
-3.9109994488188975
0
LINE
8
BLACK
6
CONTINUOUS
10
4.2266866929133862
20
-3.9109994488188975
11
4.2255216141732284
21
-3.9095157480314962
0
LINE
8
BLACK
6
CONTINUOUS
10
4.2255216141732284
20
-3.9095157480314962
11
4.2243840944881885
21
-3.9072832283464565
0
LINE
8
BLACK
6
CONTINUOUS
10
4.2243840944881885
20
-3.9072832283464565
11
4.223753661417323
21
-3.9060459448818898
0
LINE
8
BLACK
6
CONTINUOUS
10
4.223753661417323
20
-3.9060459448818898
11
4.2182880708661417
21
-3.8985232283464568
0
LINE
8
BLACK
6
CONTINUOUS
10
4.2182880708661417
20
-3.8985232283464568
11
4.2117129921259844
21
-3.8919481496062991
0
LINE
8
BLACK
6
CONTINUOUS
10
4.2117129921259844
20
-3.8919481496062991
11
4.2041902755905509
21
-3.8864825590551182
0
LINE
8
BLACK
6
CONTINUOUS
10
4.2041902755905509
20
-3.8864825590551182
11
4.1959053543307085
21
-3.8822611417322834
0
LINE
8
BLACK
6
CONTINUOUS
10
4.1959053543307085
20
-3.8822611417322834
11
4.1870617322834649
21
-3.8793876377952756
0
LINE
8
BLACK
6
CONTINUOUS
10
4.1870617322834649
20
-3.8793876377952756
11
4.1778778346456695
21
-3.8779330708661415
0
LINE
8
BLACK
6
CONTINUOUS
10
4.1778778346456695
20
-3.8779330708661415
11
4.1778776377952758
21
-3.8779330708661415
0
LINE
8
BLACK
6
CONTINUOUS
10
4.1778776377952758
20
-3.8779330708661415
11
4.1685790551181103
21
-3.8779330708661415
0
LINE
8
BLACK
6
CONTINUOUS
10
4.1685790551181103
20
-3.8779330708661415
11
4.1685788582677166
21
-3.8779330708661415
0
LINE
8
BLACK
6
CONTINUOUS
10
4.1685788582677166
20
-3.8779330708661415
11
4.1593949212598424
21
-3.8793876377952756
0
LINE
8
BLACK
6
CONTINUOUS
10
4.1593949212598424
20
-3.8793876377952756
11
4.1505512992125979
21
-3.8822611417322834
0
LINE
8
BLACK
6
CONTINUOUS
10
4.1505512992125979
20
-3.8822611417322834
11
4.1422663779527555
21
-3.8864825590551182
0
LINE
8
BLACK
6
CONTINUOUS
10
4.1422663779527555
20
-3.8864825590551182
11
4.1379744094488187
21
-3.8896008661417323
0
LINE
8
BLACK
6
CONTINUOUS
10
4.1379744094488187
20
-3.8896008661417323
11
4.1347437007874017
21
-3.8919481496062991
0
LINE
8
BLACK
6
CONTINUOUS
10
4.1347437007874017
20
-3.8919481496062991
11
4.1347436220472442
21
-3.8919482283464566
0
LINE
8
BLACK
6
CONTINUOUS
10
4.1347436220472442
20
-3.8919482283464566
11
4.1347435826771655
21
-3.8919482283464566
0
LINE
8
BLACK
6
CONTINUOUS
10
4.1347435826771655
20
-3.8919482283464566
11
4.1281687007874011
21
-3.8985231102362206
0
LINE
8
BLACK
6
CONTINUOUS
10
4.1281687007874011
20
-3.8985231102362206
11
4.1281687007874011
21
-3.8985231496062993
0
LINE
8
BLACK
6
CONTINUOUS
10
4.1281687007874011
20
-3.8985231496062993
11
4.1281686220472444
21
-3.8985232283464568
0
LINE
8
BLACK
6
CONTINUOUS
10
4.1281686220472444
20
-3.8985232283464568
11
4.1270396456692913
21
-3.9000771259842519
0
LINE
8
BLACK
6
CONTINUOUS
10
4.1270396456692913
20
-3.9000771259842519
11
4.1227030314960631
21
-3.9060459055118111
0
LINE
8
BLACK
6
CONTINUOUS
10
4.1227030314960631
20
-3.9060459055118111
11
4.1184816141732279
21
-3.9143308267716534
0
LINE
8
BLACK
6
CONTINUOUS
10
4.1184816141732279
20
-3.9143308267716534
11
4.1156081102362201
21
-3.9231744488188975
0
LINE
8
BLACK
6
CONTINUOUS
10
4.1156081102362201
20
-3.9231744488188975
11
4.1141535433070864
21
-3.9323583464566929
0
LINE
8
BLACK
6
CONTINUOUS
10
4.1141535433070864
20
-3.9323583464566929
11
4.1141535433070864
21
-3.9416573622047242
0
LINE
8
BLACK
6
CONTINUOUS
10
4.1141535433070864
20
-3.9416573622047242
11
4.1156081102362201
21
-3.9508412598425195
0
LINE
8
BLACK
6
CONTINUOUS
10
4.1156081102362201
20
-3.9508412598425195
11
4.1184816141732279
21
-3.9596848818897636
0
LINE
8
BLACK
6
CONTINUOUS
10
4.1184816141732279
20
-3.9596848818897636
11
4.1221349212598426
21
-3.9668548425196848
0
LINE
8
BLACK
6
CONTINUOUS
10
4.1221349212598426
20
-3.9668548425196848
11
4.1227030314960631
21
-3.967969803149606
0
LINE
8
BLACK
6
CONTINUOUS
10
4.1227030314960631
20
-3.967969803149606
11
4.1281686220472444
21
-3.9754925196850395
0
LINE
8
BLACK
6
CONTINUOUS
10
4.1281686220472444
20
-3.9754925196850395
11
4.1347437007874017
21
-3.9820675984251968
0
LINE
8
BLACK
6
CONTINUOUS
10
4.1347437007874017
20
-3.9820675984251968
11
4.1422664173228343
21
-3.9875331889763777
0
LINE
8
BLACK
6
CONTINUOUS
10
4.1422664173228343
20
-3.9875331889763777
11
4.1451617322834649
21
-3.9890084251968503
0
LINE
8
BLACK
6
CONTINUOUS
10
4.1451617322834649
20
-3.9890084251968503
11
4.1505512992125979
21
-3.9917545669291337
0
LINE
8
BLACK
6
CONTINUOUS
10
4.1505512992125979
20
-3.9917545669291337
11
4.1505513779527554
21
-3.9917545669291337
0
LINE
8
BLACK
6
CONTINUOUS
10
4.1505513779527554
20
-3.9917545669291337
11
4.1505514960629917
21
-3.9917546456692912
0
LINE
8
BLACK
6
CONTINUOUS
10
4.1505514960629917
20
-3.9917546456692912
11
4.1543433464566926
21
-3.9929866929133859
0
LINE
8
BLACK
6
CONTINUOUS
10
4.1543433464566926
20
-3.9929866929133859
11
4.1593949212598424
21
-3.9946280708661415
0
LINE
8
BLACK
6
CONTINUOUS
10
4.1593949212598424
20
-3.9946280708661415
11
4.1685788582677166
21
-3.9960826771653544
0
LINE
8
BLACK
6
CONTINUOUS
10
4.1685788582677166
20
-3.9960826771653544
11
4.1685790551181103
21
-3.9960826771653544
0
LINE
8
BLACK
6
CONTINUOUS
10
4.1685790551181103
20
-3.9960826771653544
11
4.1778778346456695
21
-3.9960826771653544
0
LINE
8
BLACK
6
CONTINUOUS
10
4.1778778346456695
20
-3.9960826771653544
11
4.1870617322834649
21
-3.9946280708661415
0
LINE
8
BLACK
6
CONTINUOUS
10
4.1870617322834649
20
-3.9946280708661415
11
4.1959051968503935
21
-3.9917546456692912
0
LINE
8
BLACK
6
CONTINUOUS
10
4.1959051968503935
20
-3.9917546456692912
11
4.2041902755905509
21
-3.9875331889763777
0
LINE
8
BLACK
6
CONTINUOUS
10
4.2041902755905509
20
-3.9875331889763777
11
4.2117129921259844
21
-3.9820675984251968
0
LINE
8
BLACK
6
CONTINUOUS
10
4.2117129921259844
20
-3.9820675984251968
11
4.2182880708661417
21
-3.9754925196850395
0
LINE
8
BLACK
6
CONTINUOUS
10
4.2182880708661417
20
-3.9754925196850395
11
4.223753661417323
21
-3.967969803149606
0
LINE
8
BLACK
6
CONTINUOUS
10
4.223753661417323
20
-3.967969803149606
11
4.2257170866141731
21
-3.9641162992125984
0
LINE
8
BLACK
6
CONTINUOUS
10
4.2257170866141731
20
-3.9641162992125984
11
4.2258836614173223
21
-3.9639399212598425
0
LINE
8
BLACK
6
CONTINUOUS
10
4.2258836614173223
20
-3.9639399212598425
11
4.2259512598425193
21
-3.963706929133858
0
LINE
8
BLACK
6
CONTINUOUS
10
4.2259512598425193
20
-3.963706929133858
11
4.2268170078740157
21
-3.9629516535433069
0
LINE
8
BLACK
6
CONTINUOUS
10
4.2268170078740157
20
-3.9629516535433069
11
4.2276057874015747
21
-3.9621165354330707
0
LINE
8
BLACK
6
CONTINUOUS
10
4.2276057874015747
20
-3.9621165354330707
11
4.2278412598425197
21
-3.962058188976378
0
LINE
8
BLACK
6
CONTINUOUS
10
4.2278412598425197
20
-3.962058188976378
11
4.2280241732283468
21
-3.9618986614173228
0
LINE
8
BLACK
6
CONTINUOUS
10
4.2280241732283468
20
-3.9618986614173228
11
4.2291610236220469
21
-3.9617313385826769
0
LINE
8
BLACK
6
CONTINUOUS
10
4.2291610236220469
20
-3.9617313385826769
11
4.2302758661417323
21
-3.9614552755905512
0
LINE
8
BLACK
6
CONTINUOUS
10
4.2302758661417323
20
-3.9614552755905512
11
4.230505472440945
21
-3.9615335039370079
0
LINE
8
BLACK
6
CONTINUOUS
10
4.230505472440945
20
-3.9615335039370079
11
4.2307456299212598
21
-3.9614981889763778
0
LINE
8
BLACK
6
CONTINUOUS
10
4.2307456299212598
20
-3.9614981889763778
11
4.2317924015748032
21
-3.9619720472440942
0
LINE
8
BLACK
6
CONTINUOUS
10
4.2317924015748032
20
-3.9619720472440942
11
4.232879645669291
21
-3.9623425590551182
0
LINE
8
BLACK
6
CONTINUOUS
10
4.232879645669291
20
-3.9623425590551182
11
4.2330305118110232
21
-3.9625325196850394
0
LINE
8
BLACK
6
CONTINUOUS
10
4.2330305118110232
20
-3.9625325196850394
11
4.2332516141732279
21
-3.9626326377952754
0
LINE
8
BLACK
6
CONTINUOUS
10
4.2332516141732279
20
-3.9626326377952754
11
4.2338758267716532
21
-3.9635969685039369
0
LINE
8
BLACK
6
CONTINUOUS
10
4.2338758267716532
20
-3.9635969685039369
11
4.2345903543307086
21
-3.964496653543307
0
LINE
8
BLACK
6
CONTINUOUS
10
4.2345903543307086
20
-3.964496653543307
11
4.2346480708661414
21
-3.9647899212598423
0
LINE
8
BLACK
6
CONTINUOUS
10
4.2346480708661414
20
-3.9647899212598423
11
4.2347464173228344
21
-3.9649418110236221
0
LINE
8
BLACK
6
CONTINUOUS
10
4.2347464173228344
20
-3.9649418110236221
11
4.2349487007874016
21
-3.9663165354330707
0
LINE
8
BLACK
6
CONTINUOUS
10
4.2349487007874016
20
-3.9663165354330707
11
4.2349498425196845
21
-3.9666620078740156
0
LINE
8
BLACK
6
CONTINUOUS
10
4.2349498425196845
20
-3.9666620078740156
11
4.2349066141732283
21
-3.9673266929133857
0
LINE
8
BLACK
6
CONTINUOUS
10
4.2349066141732283
20
-3.9673266929133857
11
4.2322348031496064
21
-3.98726
0
LINE
8
BLACK
6
CONTINUOUS
10
4.2322348031496064
20
-3.98726
11
4.2321757086614173
21
-3.9876058267716536
0
LINE
8
BLACK
6
CONTINUOUS
10
4.2321757086614173
20
-3.9876058267716536
11
4.2278636614173228
21
-4.0083317322834642
0
LINE
8
BLACK
6
CONTINUOUS
10
4.2278636614173228
20
-4.0083317322834642
11
4.2277799212598426
21
-4.0086724015748034
0
LINE
8
BLACK
6
CONTINUOUS
10
4.2277799212598426
20
-4.0086724015748034
11
4.2219905511811024
21
-4.0290354330708658
0
LINE
8
BLACK
6
CONTINUOUS
10
4.2219905511811024
20
-4.0290354330708658
11
4.2218825590551177
21
-4.0293692519685038
0
LINE
8
BLACK
6
CONTINUOUS
10
4.2218825590551177
20
-4.0293692519685038
11
4.2146455511811025
21
-4.0492643307086613
0
LINE
8
BLACK
6
CONTINUOUS
10
4.2146455511811025
20
-4.0492643307086613
11
4.2145138582677166
21
-4.0495894881889765
0
LINE
8
BLACK
6
CONTINUOUS
10
4.2145138582677166
20
-4.0495894881889765
11
4.2058667716535432
21
-4.0689135433070867
0
LINE
8
BLACK
6
CONTINUOUS
10
4.2058667716535432
20
-4.0689135433070867
11
4.2057120472440941
21
-4.06922842519685
0
LINE
8
BLACK
6
CONTINUOUS
10
4.2057120472440941
20
-4.06922842519685
11
4.1957000393700783
21
-4.0878805511811018
0
LINE
8
BLACK
6
CONTINUOUS
10
4.1957000393700783
20
-4.0878805511811018
11
4.1955231496062995
21
-4.0881834645669288
0
LINE
8
BLACK
6
CONTINUOUS
10
4.1955231496062995
20
-4.0881834645669288
11
4.1841969291338579
21
-4.1060693700787398
0
LINE
8
BLACK
6
CONTINUOUS
10
4.1841969291338579
20
-4.1060693700787398
11
4.1839987007874013
21
-4.1063588582677166
0
LINE
8
BLACK
6
CONTINUOUS
10
4.1839987007874013
20
-4.1063588582677166
11
4.1714170866141735
21
-4.1233852755905511
0
LINE
8
BLACK
6
CONTINUOUS
10
4.1714170866141735
20
-4.1233852755905511
11
4.1711985826771656
21
-4.1236597244094488
0
LINE
8
BLACK
6
CONTINUOUS
10
4.1711985826771656
20
-4.1236597244094488
11
4.1574272440944879
21
-4.1397379921259843
0
LINE
8
BLACK
6
CONTINUOUS
10
4.1574272440944879
20
-4.1397379921259843
11
4.1571896062992124
21
-4.1399960629921262
0
LINE
8
BLACK
6
CONTINUOUS
10
4.1571896062992124
20
-4.1399960629921262
11
4.1422990551181105
21
-4.155043937007874
0
LINE
8
BLACK
6
CONTINUOUS
10
4.1422990551181105
20
-4.155043937007874
11
4.1420435039370078
21
-4.1552842913385826
0
LINE
8
BLACK
6
CONTINUOUS
10
4.1420435039370078
20
-4.1552842913385826
11
4.1261101968503935
21
-4.1692244094488187
0
LINE
8
BLACK
6
CONTINUOUS
10
4.1261101968503935
20
-4.1692244094488187
11
4.1258380314960625
21
-4.1694457874015747
0
LINE
8
BLACK
6
CONTINUOUS
10
4.1258380314960625
20
-4.1694457874015747
11
4.1089453149606294
21
-4.1822051968503935
0
LINE
8
BLACK
6
CONTINUOUS
10
4.1089453149606294
20
-4.1822051968503935
11
4.1086583070866141
21
-4.1824062204724406
0
LINE
8
BLACK
6
CONTINUOUS
10
4.1086583070866141
20
-4.1824062204724406
11
4.0908922440944879
21
-4.1939199212598428
0
LINE
8
BLACK
6
CONTINUOUS
10
4.0908922440944879
20
-4.1939199212598428
11
4.0905911811023623
21
-4.1940999999999997
0
LINE
8
BLACK
6
CONTINUOUS
10
4.0905911811023623
20
-4.1940999999999997
11
4.0720448031496064
21
-4.2043077559055115
0
LINE
8
BLACK
6
CONTINUOUS
10
4.0720448031496064
20
-4.2043077559055115
11
4.071731535433071
21
-4.2044657874015749
0
LINE
8
BLACK
6
CONTINUOUS
10
4.071731535433071
20
-4.2044657874015749
11
4.0684840157480311
21
-4.2059601181102364
0
LINE
8
BLACK
6
CONTINUOUS
10
4.0684840157480311
20
-4.2059601181102364
11
4.0664746062992121
21
-4.2064069685039369
0
LINE
8
BLACK
6
CONTINUOUS
10
4.0664746062992121
20
-4.2064069685039369
11
3.8111602755905509
21
-4.2080436220472439
0
LINE
8
BLACK
6
CONTINUOUS
10
3.8111602755905509
20
-4.2080436220472439
11
3.8090882677165352
21
-4.2075967322834646
0
LINE
8
BLACK
6
CONTINUOUS
10
3.8090882677165352
20
-4.2075967322834646
11
3.8022838976377953
21
-4.2044656692913387
0
LINE
8
BLACK
6
CONTINUOUS
10
3.8022838976377953
20
-4.2044656692913387
11
3.8019717322834645
21
-4.2043082283464566
0
LINE
8
BLACK
6
CONTINUOUS
10
3.8019717322834645
20
-4.2043082283464566
11
3.7834241338582677
21
-4.194099803149606
0
LINE
8
BLACK
6
CONTINUOUS
10
3.7834241338582677
20
-4.194099803149606
11
3.7831233070866142
21
-4.1939198425196853
0
LINE
8
BLACK
6
CONTINUOUS
10
3.7831233070866142
20
-4.1939198425196853
11
3.7653577952755906
21
-4.1824064566929131
0
LINE
8
BLACK
6
CONTINUOUS
10
3.7653577952755906
20
-4.1824064566929131
11
3.765070905511811
21
-4.1822055511811023
0
LINE
8
BLACK
6
CONTINUOUS
10
3.765070905511811
20
-4.1822055511811023
11
3.748177283464567
21
-4.1694454724409447
0
LINE
8
BLACK
6
CONTINUOUS
10
3.748177283464567
20
-4.1694454724409447
11
3.7479055118110236
21
-4.1692244094488187
0
LINE
8
BLACK
6
CONTINUOUS
10
3.7479055118110236
20
-4.1692244094488187
11
3.7326953937007872
21
-4.1559170078740157
0
LINE
8
BLACK
6
CONTINUOUS
10
3.7326953937007872
20
-4.1559170078740157
11
3.7319721259842518
21
-4.1552842519685038
0
LINE
8
BLACK
6
CONTINUOUS
10
3.7319721259842518
20
-4.1552842519685038
11
3.7317166535433071
21
-4.155043937007874
0
LINE
8
BLACK
6
CONTINUOUS
10
3.7317166535433071
20
-4.155043937007874
11
3.7284023622047244
21
-4.1516946456692914
0
LINE
8
BLACK
6
CONTINUOUS
10
3.7284023622047244
20
-4.1516946456692914
11
3.7168261023622047
21
-4.1399960629921262
0
LINE
8
BLACK
6
CONTINUOUS
10
3.7168261023622047
20
-4.1399960629921262
11
3.7165884645669292
21
-4.1397379921259843
0
LINE
8
BLACK
6
CONTINUOUS
10
3.7165884645669292
20
-4.1397379921259843
11
3.7028169291338582
21
-4.1236594488188976
0
LINE
8
BLACK
6
CONTINUOUS
10
3.7028169291338582
20
-4.1236594488188976
11
3.7025984251968502
21
-4.1233849606299211
0
LINE
8
BLACK
6
CONTINUOUS
10
3.7025984251968502
20
-4.1233849606299211
11
3.6978917322834643
21
-4.1170154724409445
0
LINE
8
BLACK
6
CONTINUOUS
10
3.6978917322834643
20
-4.1170154724409445
11
3.6978916535433068
21
-4.117015393700787
0
LINE
8
BLACK
6
CONTINUOUS
10
3.6978916535433068
20
-4.117015393700787
11
3.69583937007874
21
-4.1142380708661417
0
LINE
8
BLACK
6
CONTINUOUS
10
3.69583937007874
20
-4.1142380708661417
11
3.6934564173228344
21
-4.111013267716535
0
LINE
8
BLACK
6
CONTINUOUS
10
3.6934564173228344
20
-4.111013267716535
11
3.6900167322834645
21
-4.1063584251968503
0
LINE
8
BLACK
6
CONTINUOUS
10
3.6900167322834645
20
-4.1063584251968503
11
3.6898187795275588
21
-4.1060692519685036
0
LINE
8
BLACK
6
CONTINUOUS
10
3.6898187795275588
20
-4.1060692519685036
11
3.6784928346456693
21
-4.0881838976377951
0
LINE
8
BLACK
6
CONTINUOUS
10
3.6784928346456693
20
-4.0881838976377951
11
3.6783159055118109
21
-4.0878809448818894
0
LINE
8
BLACK
6
CONTINUOUS
10
3.6783159055118109
20
-4.0878809448818894
11
3.6683037007874013
21
-4.0692283858267713
0
LINE
8
BLACK
6
CONTINUOUS
10
3.6683037007874013
20
-4.0692283858267713
11
3.6681489763779527
21
-4.0689135433070867
0
LINE
8
BLACK
6
CONTINUOUS
10
3.6681489763779527
20
-4.0689135433070867
11
3.6595018503937009
21
-4.0495894881889765
0
LINE
8
BLACK
6
CONTINUOUS
10
3.6595018503937009
20
-4.0495894881889765
11
3.659370157480315
21
-4.0492643307086613
0
LINE
8
BLACK
6
CONTINUOUS
10
3.659370157480315
20
-4.0492643307086613
11
3.6565779133858265
21
-4.0415882677165351
0
LINE
8
BLACK
6
CONTINUOUS
10
3.6565779133858265
20
-4.0415882677165351
11
3.6521329527559052
21
-4.0293686614173225
0
LINE
8
BLACK
6
CONTINUOUS
10
3.6521329527559052
20
-4.0293686614173225
11
3.6520253543307084
21
-4.029036023622047
0
LINE
8
BLACK
6
CONTINUOUS
10
3.6520253543307084
20
-4.029036023622047
11
3.6462357874015745
21
-4.0086724015748034
0
LINE
8
BLACK
6
CONTINUOUS
10
3.6462357874015745
20
-4.0086724015748034
11
3.6461520472440943
21
-4.0083317322834642
0
LINE
8
BLACK
6
CONTINUOUS
10
3.6461520472440943
20
-4.0083317322834642
11
3.6418400393700785
21
-3.9876059055118107
0
LINE
8
BLACK
6
CONTINUOUS
10
3.6418400393700785
20
-3.9876059055118107
11
3.6417809448818899
21
-3.9872601181102363
0
LINE
8
BLACK
6
CONTINUOUS
10
3.6417809448818899
20
-3.9872601181102363
11
3.6414882283464567
21
-3.9850763385826773
0
LINE
8
BLACK
6
CONTINUOUS
10
3.6414882283464567
20
-3.9850763385826773
11
3.6390457874015749
21
-3.9668547244094485
0
LINE
8
BLACK
6
CONTINUOUS
10
3.6390457874015749
20
-3.9668547244094485
11
3.6394632677165353
21
-3.9641359055118111
0
LINE
8
BLACK
6
CONTINUOUS
10
3.6394632677165353
20
-3.9641359055118111
11
3.6412844094488186
21
-3.9620743307086612
0
LINE
8
BLACK
6
CONTINUOUS
10
3.6412844094488186
20
-3.9620743307086612
11
3.6439310236220472
21
-3.9613246062992125
0
LINE
8
BLACK
6
CONTINUOUS
10
3.6439310236220472
20
-3.9613246062992125
11
3.6465628740157481
21
-3.9621247637795274
0
LINE
8
BLACK
6
CONTINUOUS
10
3.6465628740157481
20
-3.9621247637795274
11
3.6482341732283463
21
-3.9639899212598424
0
LINE
8
BLACK
6
CONTINUOUS
10
3.6482341732283463
20
-3.9639899212598424
11
3.6502619291338583
21
-3.9679696062992127
0
LINE
8
BLACK
6
CONTINUOUS
10
3.6502619291338583
20
-3.9679696062992127
11
3.6514854330708659
21
-3.9696535826771653
0
LINE
8
BLACK
6
CONTINUOUS
10
3.6514854330708659
20
-3.9696535826771653
11
3.6557276771653542
21
-3.9754925196850395
0
LINE
8
BLACK
6
CONTINUOUS
10
3.6557276771653542
20
-3.9754925196850395
11
3.6623027559055119
21
-3.9820675984251968
0
LINE
8
BLACK
6
CONTINUOUS
10
3.6623027559055119
20
-3.9820675984251968
11
3.6698254724409449
21
-3.9875331889763777
0
LINE
8
BLACK
6
CONTINUOUS
10
3.6698254724409449
20
-3.9875331889763777
11
3.6727207874015746
21
-3.9890084251968503
0
LINE
8
BLACK
6
CONTINUOUS
10
3.6727207874015746
20
-3.9890084251968503
11
3.6781103543307085
21
-3.9917545669291337
0
LINE
8
BLACK
6
CONTINUOUS
10
3.6781103543307085
20
-3.9917545669291337
11
3.678110433070866
21
-3.9917545669291337
0
LINE
8
BLACK
6
CONTINUOUS
10
3.678110433070866
20
-3.9917545669291337
11
3.6781105511811023
21
-3.9917546456692912
0
LINE
8
BLACK
6
CONTINUOUS
10
3.6781105511811023
20
-3.9917546456692912
11
3.6819024015748032
21
-3.9929866929133859
0
LINE
8
BLACK
6
CONTINUOUS
10
3.6819024015748032
20
-3.9929866929133859
11
3.6869539763779526
21
-3.9946280708661415
0
LINE
8
BLACK
6
CONTINUOUS
10
3.6869539763779526
20
-3.9946280708661415
11
3.6961379133858268
21
-3.9960826771653544
0
LINE
8
BLACK
6
CONTINUOUS
10
3.6961379133858268
20
-3.9960826771653544
11
3.6961381102362205
21
-3.9960826771653544
0
LINE
8
BLACK
6
CONTINUOUS
10
3.6961381102362205
20
-3.9960826771653544
11
3.7054368897637793
21
-3.9960826771653544
0
LINE
8
BLACK
6
CONTINUOUS
10
3.7054368897637793
20
-3.9960826771653544
11
3.7146207874015746
21
-3.9946280708661415
0
LINE
8
BLACK
6
CONTINUOUS
10
3.7146207874015746
20
-3.9946280708661415
11
3.7234642519685037
21
-3.9917546456692912
0
LINE
8
BLACK
6
CONTINUOUS
10
3.7234642519685037
20
-3.9917546456692912
11
3.7317493307086615
21
-3.9875331889763777
0
LINE
8
BLACK
6
CONTINUOUS
10
3.7317493307086615
20
-3.9875331889763777
11
3.7392720472440946
21
-3.9820675984251968
0
LINE
8
BLACK
6
CONTINUOUS
10
3.7392720472440946
20
-3.9820675984251968
11
3.7458471259842518
21
-3.9754925196850395
0
LINE
8
BLACK
6
CONTINUOUS
10
3.7458471259842518
20
-3.9754925196850395
11
3.7513127165354332
21
-3.967969803149606
0
LINE
8
BLACK
6
CONTINUOUS
10
3.7513127165354332
20
-3.967969803149606
11
3.7555341732283463
21
-3.9596847244094486
0
LINE
8
BLACK
6
CONTINUOUS
10
3.7555341732283463
20
-3.9596847244094486
11
3.7584075984251966
21
-3.9508412598425195
0
LINE
8
BLACK
6
CONTINUOUS
10
3.7584075984251966
20
-3.9508412598425195
11
3.7598622047244095
21
-3.9416573622047242
0
LINE
8
BLACK
6
CONTINUOUS
10
3.7598622047244095
20
-3.9416573622047242
11
3.7598622047244095
21
-3.9323583464566929
0
LINE
8
BLACK
6
CONTINUOUS
10
3.7598622047244095
20
-3.9323583464566929
11
3.7584075984251966
21
-3.9231744488188975
0
LINE
8
BLACK
6
CONTINUOUS
10
3.7584075984251966
20
-3.9231744488188975
11
3.7555340944881888
21
-3.9143308267716534
0
LINE
8
BLACK
6
CONTINUOUS
10
3.7555340944881888
20
-3.9143308267716534
11
3.7519431496062992
21
-3.9072832283464565
0
LINE
8
BLACK
6
CONTINUOUS
10
3.7519431496062992
20
-3.9072832283464565
11
3.7513127165354332
21
-3.9060459448818898
0
LINE
8
BLACK
6
CONTINUOUS
10
3.7513127165354332
20
-3.9060459448818898
11
3.7458471259842518
21
-3.8985232283464568
0
LINE
8
BLACK
6
CONTINUOUS
10
3.7458471259842518
20
-3.8985232283464568
11
3.7392720472440946
21
-3.8919481496062991
0
LINE
8
BLACK
6
CONTINUOUS
10
3.7392720472440946
20
-3.8919481496062991
11
3.7317493307086615
21
-3.8864825590551182
0
LINE
8
BLACK
6
CONTINUOUS
10
3.7317493307086615
20
-3.8864825590551182
11
3.7234644094488187
21
-3.8822611417322834
0
LINE
8
BLACK
6
CONTINUOUS
10
3.7234644094488187
20
-3.8822611417322834
11
3.7146207874015746
21
-3.8793876377952756
0
LINE
8
BLACK
6
CONTINUOUS
10
3.7146207874015746
20
-3.8793876377952756
11
3.7054368897637793
21
-3.8779330708661415
0
LINE
8
BLACK
6
CONTINUOUS
10
3.7054368897637793
20
-3.8779330708661415
11
3.705436692913386
21
-3.8779330708661415
0
LINE
8
BLACK
6
CONTINUOUS
10
3.705436692913386
20
-3.8779330708661415
11
3.6961381102362205
21
-3.8779330708661415
0
LINE
8
BLACK
6
CONTINUOUS
10
3.6961381102362205
20
-3.8779330708661415
11
3.6961379133858268
21
-3.8779330708661415
0
LINE
8
BLACK
6
CONTINUOUS
10
3.6961379133858268
20
-3.8779330708661415
11
3.6869539763779526
21
-3.8793876377952756
0
LINE
8
BLACK
6
CONTINUOUS
10
3.6869539763779526
20
-3.8793876377952756
11
3.6781103543307085
21
-3.8822611417322834
0
LINE
8
BLACK
6
CONTINUOUS
10
3.6781103543307085
20
-3.8822611417322834
11
3.6698254330708662
21
-3.8864825590551182
0
LINE
8
BLACK
6
CONTINUOUS
10
3.6698254330708662
20
-3.8864825590551182
11
3.6655334645669289
21
-3.8896008661417323
0
LINE
8
BLACK
6
CONTINUOUS
10
3.6655334645669289
20
-3.8896008661417323
11
3.6623027559055119
21
-3.8919481496062991
0
LINE
8
BLACK
6
CONTINUOUS
10
3.6623027559055119
20
-3.8919481496062991
11
3.6623026771653544
21
-3.8919482283464566
0
LINE
8
BLACK
6
CONTINUOUS
10
3.6623026771653544
20
-3.8919482283464566
11
3.6623026377952757
21
-3.8919482283464566
0
LINE
8
BLACK
6
CONTINUOUS
10
3.6623026377952757
20
-3.8919482283464566
11
3.6557277559055117
21
-3.8985231102362206
0
LINE
8
BLACK
6
CONTINUOUS
10
3.6557277559055117
20
-3.8985231102362206
11
3.6557277559055117
21
-3.8985231496062993
0
LINE
8
BLACK
6
CONTINUOUS
10
3.6557277559055117
20
-3.8985231496062993
11
3.6557276771653542
21
-3.8985232283464568
0
LINE
8
BLACK
6
CONTINUOUS
10
3.6557276771653542
20
-3.8985232283464568
11
3.6545987007874015
21
-3.9000771259842519
0
LINE
8
BLACK
6
CONTINUOUS
10
3.6545987007874015
20
-3.9000771259842519
11
3.6502620078740158
21
-3.9060459842519686
0
LINE
8
BLACK
6
CONTINUOUS
10
3.6502620078740158
20
-3.9060459842519686
11
3.6483872047244095
21
-3.9097255118110237
0
LINE
8
BLACK
6
CONTINUOUS
10
3.6483872047244095
20
-3.9097255118110237
11
3.6480761417322833
21
-3.9100548425196848
0
LINE
8
BLACK
6
CONTINUOUS
10
3.6480761417322833
20
-3.9100548425196848
11
3.6479131889763781
21
-3.9104775196850392
0
LINE
8
BLACK
6
CONTINUOUS
10
3.6479131889763781
20
-3.9104775196850392
11
3.647148779527559
21
-3.911036692913386
0
LINE
8
BLACK
6
CONTINUOUS
10
3.647148779527559
20
-3.911036692913386
11
3.6464984645669292
21
-3.9117253149606297
0
LINE
8
BLACK
6
CONTINUOUS
10
3.6464984645669292
20
-3.9117253149606297
11
3.6460587007874015
21
-3.9118341732283466
0
LINE
8
BLACK
6
CONTINUOUS
10
3.6460587007874015
20
-3.9118341732283466
11
3.6456931102362202
21
-3.9121016929133856
0
LINE
8
BLACK
6
CONTINUOUS
10
3.6456931102362202
20
-3.9121016929133856
11
3.6447476771653542
21
-3.9121588582677163
0
LINE
8
BLACK
6
CONTINUOUS
10
3.6447476771653542
20
-3.9121588582677163
11
3.6438283464566927
21
-3.9123865354330709
0
LINE
8
BLACK
6
CONTINUOUS
10
3.6438283464566927
20
-3.9123865354330709
11
3.6433995275590552
21
-3.9122403937007872
0
LINE
8
BLACK
6
CONTINUOUS
10
3.6433995275590552
20
-3.9122403937007872
11
3.6429473622047244
21
-3.9122677559055119
0
LINE
8
BLACK
6
CONTINUOUS
10
3.6429473622047244
20
-3.9122677559055119
11
3.6421211023622044
21
-3.9118047244094489
0
LINE
8
BLACK
6
CONTINUOUS
10
3.6421211023622044
20
-3.9118047244094489
11
3.6412246062992124
21
-3.9114992125984251
0
LINE
8
BLACK
6
CONTINUOUS
10
3.6412246062992124
20
-3.9114992125984251
11
3.6409428740157481
21
-3.9111444488188973
0
LINE
8
BLACK
6
CONTINUOUS
10
3.6409428740157481
20
-3.9111444488188973
11
3.6405476771653542
21
-3.9109229921259843
0
LINE
8
BLACK
6
CONTINUOUS
10
3.6405476771653542
20
-3.9109229921259843
11
3.6401028740157479
21
-3.910086692913386
0
LINE
8
BLACK
6
CONTINUOUS
10
3.6401028740157479
20
-3.910086692913386
11
3.639513937007874
21
-3.9093450787401576
0
LINE
8
BLACK
6
CONTINUOUS
10
3.639513937007874
20
-3.9093450787401576
11
3.6394355511811023
21
-3.9088320078740155
0
LINE
8
BLACK
6
CONTINUOUS
10
3.6394355511811023
20
-3.9088320078740155
11
3.6392559842519683
21
-3.9084943700787402
0
LINE
8
BLACK
6
CONTINUOUS
10
3.6392559842519683
20
-3.9084943700787402
11
3.6391721259842518
21
-3.9071075984251968
0
LINE
8
BLACK
6
CONTINUOUS
10
3.6391721259842518
20
-3.9071075984251968
11
3.6396079921259843
21
-3.901828937007874
0
LINE
8
BLACK
6
CONTINUOUS
10
3.6396079921259843
20
-3.901828937007874
11
3.6396494094488188
21
-3.9014808267716536
0
LINE
8
BLACK
6
CONTINUOUS
10
3.6396494094488188
20
-3.9014808267716536
11
3.639928897637795
21
-3.8996834645669289
0
LINE
8
BLACK
6
CONTINUOUS
10
3.639928897637795
20
-3.8996834645669289
11
3.6429023228346455
21
-3.8805617716535434
0
LINE
8
BLACK
6
CONTINUOUS
10
3.6429023228346455
20
-3.8805617716535434
11
3.6429683464566929
21
-3.8802185826771654
0
LINE
8
BLACK
6
CONTINUOUS
10
3.6429683464566929
20
-3.8802185826771654
11
3.6477156299212599
21
-3.8595852755905513
0
LINE
8
BLACK
6
CONTINUOUS
10
3.6477156299212599
20
-3.8595852755905513
11
3.6478059842519683
21
-3.8592485433070864
0
LINE
8
BLACK
6
CONTINUOUS
10
3.6478059842519683
20
-3.8592485433070864
11
3.6540225984251968
21
-3.8390100393700788
0
LINE
8
BLACK
6
CONTINUOUS
10
3.6540225984251968
20
-3.8390100393700788
11
3.6541374803149607
21
-3.8386790157480313
0
LINE
8
BLACK
6
CONTINUOUS
10
3.6541374803149607
20
-3.8386790157480313
11
3.65460374015748
21
-3.8374765354330709
0
LINE
8
BLACK
6
CONTINUOUS
10
3.65460374015748
20
-3.8374765354330709
11
3.6617912204724408
21
-3.8189399212598425
0
LINE
8
BLACK
6
CONTINUOUS
10
3.6617912204724408
20
-3.8189399212598425
11
3.6619289763779528
21
-3.8186192913385826
0
LINE
8
BLACK
6
CONTINUOUS
10
3.6619289763779528
20
-3.8186192913385826
11
3.6709809448818898
21
-3.7994799606299212
0
LINE
8
BLACK
6
CONTINUOUS
10
3.6709809448818898
20
-3.7994799606299212
11
3.6711412598425195
21
-3.7991702362204722
0
LINE
8
BLACK
6
CONTINUOUS
10
3.6711412598425195
20
-3.7991702362204722
11
3.6815446850393698
21
-3.7807299212598426
0
LINE
8
BLACK
6
CONTINUOUS
10
3.6815446850393698
20
-3.7807299212598426
11
3.6817265354330706
21
-3.7804329527559055
0
LINE
8
BLACK
6
CONTINUOUS
10
3.6817265354330706
20
-3.7804329527559055
11
3.6934275196850392
21
-3.762787086614173
0
LINE
8
BLACK
6
CONTINUOUS
10
3.6934275196850392
20
-3.762787086614173
11
3.6936300787401573
21
-3.7625042519685037
0
LINE
8
BLACK
6
CONTINUOUS
10
3.6936300787401573
20
-3.7625042519685037
11
3.7065676771653542
21
-3.7457448031496061
0
LINE
8
BLACK
6
CONTINUOUS
10
3.7065676771653542
20
-3.7457448031496061
11
3.7067911417322832
21
-3.745475866141732
0
LINE
8
BLACK
6
CONTINUOUS
10
3.7067911417322832
20
-3.745475866141732
11
3.7208988976377952
21
-3.7296888582677163
0
LINE
8
BLACK
6
CONTINUOUS
10
3.7208988976377952
20
-3.7296888582677163
11
3.7211403937007872
21
-3.7294374409448818
0
LINE
8
BLACK
6
CONTINUOUS
10
3.7211403937007872
20
-3.7294374409448818
11
3.7363455118110234
21
-3.7147043307086611
0
LINE
8
BLACK
6
CONTINUOUS
10
3.7363455118110234
20
-3.7147043307086611
11
3.7366051181102362
21
-3.71447031496063
0
LINE
8
BLACK
6
CONTINUOUS
10
3.7366051181102362
20
-3.71447031496063
11
3.7528278346456694
21
-3.7008681889763779
0
LINE
8
BLACK
6
CONTINUOUS
10
3.7528278346456694
20
-3.7008681889763779
11
3.7531043700787401
21
-3.7006527559055118
0
LINE
8
BLACK
6
CONTINUOUS
10
3.7531043700787401
20
-3.7006527559055118
11
3.7702622834645667
21
-3.6882506299212596
0
LINE
8
BLACK
6
CONTINUOUS
10
3.7702622834645667
20
-3.6882506299212596
11
3.7705527559055119
21
-3.688056181102362
0
LINE
8
BLACK
6
CONTINUOUS
10
3.7705527559055119
20
-3.688056181102362
11
3.7885583858267715
21
-3.6769174803149607
0
LINE
8
BLACK
6
CONTINUOUS
10
3.7885583858267715
20
-3.6769174803149607
11
3.7888611811023623
21
-3.6767449212598424
0
LINE
8
BLACK
6
CONTINUOUS
10
3.7888611811023623
20
-3.6767449212598424
11
3.7999216141732282
21
-3.6709568503937007
0
LINE
8
BLACK
6
CONTINUOUS
10
3.7999216141732282
20
-3.6709568503937007
11
3.8026193307086613
21
-3.6704197637795275
0
LINE
8
BLACK
6
CONTINUOUS
10
3.8026193307086613
20
-3.6704197637795275
11
3.8051792519685037
21
-3.6714264566929131
0
LINE
8
BLACK
6
CONTINUOUS
10
3.8051792519685037
20
-3.6714264566929131
11
3.8067885433070865
21
-3.6736573622047244
0
LINE
8
BLACK
6
CONTINUOUS
10
3.8067885433070865
20
-3.6736573622047244
11
3.8070669291338581
21
-3.6752822834645666
0
LINE
8
BLACK
6
CONTINUOUS
10
3.8070669291338581
20
-3.6752822834645666
11
3.8070669291338581
21
-3.707311062992126
0
LINE
8
BLACK
6
CONTINUOUS
10
3.8070669291338581
20
-3.707311062992126
11
3.8071811417322832
21
-3.7087624803149604
0
LINE
8
BLACK
6
CONTINUOUS
10
3.8071811417322832
20
-3.7087624803149604
11
3.8071811811023619
21
-3.7087627165354329
0
LINE
8
BLACK
6
CONTINUOUS
10
3.8071811811023619
20
-3.7087627165354329
11
3.8089863779527557
21
-3.7149761023622045
0
LINE
8
BLACK
6
CONTINUOUS
10
3.8089863779527557
20
-3.7149761023622045
11
3.8089864173228345
21
-3.7149762204724408
0
LINE
8
BLACK
6
CONTINUOUS
10
3.8089864173228345
20
-3.7149762204724408
11
3.8122801968503937
21
-3.7205457480314958
0
LINE
8
BLACK
6
CONTINUOUS
10
3.8122801968503937
20
-3.7205457480314958
11
3.8122804330708662
21
-3.7205460629921259
0
LINE
8
BLACK
6
CONTINUOUS
10
3.8122804330708662
20
-3.7205460629921259
11
3.8135110236220471
21
-3.7217766141732285
0
LINE
8
BLACK
6
CONTINUOUS
10
3.8135110236220471
20
-3.7217766141732285
11
3.814089960629921
21
-3.7228368503937008
0
LINE
8
BLACK
6
CONTINUOUS
10
3.814089960629921
20
-3.7228368503937008
11
3.8147431889763777
21
-3.7238532677165352
0
LINE
8
BLACK
6
CONTINUOUS
10
3.8147431889763777
20
-3.7238532677165352
11
3.8147782677165352
21
-3.7240972834645669
0
LINE
8
BLACK
6
CONTINUOUS
10
3.8147782677165352
20
-3.7240972834645669
11
3.8148293700787401
21
-3.7241908661417322
0
LINE
8
BLACK
6
CONTINUOUS
10
3.8148293700787401
20
-3.7241908661417322
11
3.8149409448818896
21
-3.7252286614173227
0
LINE
8
BLACK
6
CONTINUOUS
10
3.8149409448818896
20
-3.7252286614173227
11
3.8149409448818896
21
-3.7329550787401575
0
LINE
8
BLACK
6
CONTINUOUS
10
3.8149409448818896
20
-3.7329550787401575
11
3.8141659448818896
21
-3.7355944094488187
0
LINE
8
BLACK
6
CONTINUOUS
10
3.8141659448818896
20
-3.7355944094488187
11
3.8135110629921258
21
-3.736407086614173
0
LINE
8
BLACK
6
CONTINUOUS
10
3.8135110629921258
20
-3.736407086614173
11
3.81213437007874
21
-3.7377837401574801
0
LINE
8
BLACK
6
CONTINUOUS
10
3.81213437007874
20
-3.7377837401574801
11
3.8121342519685038
21
-3.7377838976377951
0
LINE
8
BLACK
6
CONTINUOUS
10
3.8121342519685038
20
-3.7377838976377951
11
3.8086853937007872
21
-3.742945433070866
0
LINE
8
BLACK
6
CONTINUOUS
10
3.8086853937007872
20
-3.742945433070866
11
3.8086851968503934
21
-3.7429457874015748
0
LINE
8
BLACK
6
CONTINUOUS
10
3.8086851968503934
20
-3.7429457874015748
11
3.8078273228346458
21
-3.7450169685039367
0
LINE
8
BLACK
6
CONTINUOUS
10
3.8078273228346458
20
-3.7450169685039367
11
3.8061012992125982
21
-3.7471588188976379
0
LINE
8
BLACK
6
CONTINUOUS
10
3.8061012992125982
20
-3.7471588188976379
11
3.8034912992125984
21
-3.7480275196850394
0
LINE
8
BLACK
6
CONTINUOUS
10
3.8034912992125984
20
-3.7480275196850394
11
3.8008259448818897
21
-3.7473472440944882
0
LINE
8
BLACK
6
CONTINUOUS
10
3.8008259448818897
20
-3.7473472440944882
11
3.7991620078740156
21
-3.7457116929133858
0
LINE
8
BLACK
6
CONTINUOUS
10
3.7991620078740156
20
-3.7457116929133858
11
3.7990969291338583
21
-3.745606181102362
0
LINE
8
BLACK
6
CONTINUOUS
10
3.7990969291338583
20
-3.745606181102362
11
3.7989256692913385
21
-3.7453285039370079
0
LINE
8
BLACK
6
CONTINUOUS
10
3.7989256692913385
20
-3.7453285039370079
11
3.7940415748031495
21
-3.740444409448819
0
LINE
8
BLACK
6
CONTINUOUS
10
3.7940415748031495
20
-3.740444409448819
11
3.7881627559055118
21
-3.7368183464566926
0
LINE
8
BLACK
6
CONTINUOUS
10
3.7881627559055118
20
-3.7368183464566926
11
3.781606181102362
21
-3.7346457086614171
0
LINE
8
BLACK
6
CONTINUOUS
10
3.781606181102362
20
-3.7346457086614171
11
3.7816061023622045
21
-3.7346456692913383
0
LINE
8
BLACK
6
CONTINUOUS
10
3.7816061023622045
20
-3.7346456692913383
11
3.7775594488188977
21
-3.7342322834645669
0
LINE
8
BLACK
6
CONTINUOUS
10
3.7775594488188977
20
-3.7342322834645669
11
3.7539369291338582
21
-3.7342322834645669
0
LINE
8
BLACK
6
CONTINUOUS
10
3.7539369291338582
20
-3.7342322834645669
11
3.7539362204724407
21
-3.7342323228346457
0
LINE
8
BLACK
6
CONTINUOUS
10
3.7539362204724407
20
-3.7342323228346457
11
3.7498898818897639
21
-3.7346456692913383
0
LINE
8
BLACK
6
CONTINUOUS
10
3.7498898818897639
20
-3.7346456692913383
11
3.7498897637795277
21
-3.7346457086614171
0
LINE
8
BLACK
6
CONTINUOUS
10
3.7498897637795277
20
-3.7346457086614171
11
3.7433333858267717
21
-3.7368183070866139
0
LINE
8
BLACK
6
CONTINUOUS
10
3.7433333858267717
20
-3.7368183070866139
11
3.7433331889763779
21
-3.7368183858267714
0
LINE
8
BLACK
6
CONTINUOUS
10
3.7433331889763779
20
-3.7368183858267714
11
3.7374544094488189
21
-3.7404444488188977
0
LINE
8
BLACK
6
CONTINUOUS
10
3.7374544094488189
20
-3.7404444488188977
11
3.7325704330708662
21
-3.7453284251968504
0
LINE
8
BLACK
6
CONTINUOUS
10
3.7325704330708662
20
-3.7453284251968504
11
3.7289443700787399
21
-3.7512072047244094
0
LINE
8
BLACK
6
CONTINUOUS
10
3.7289443700787399
20
-3.7512072047244094
11
3.7289443307086612
21
-3.7512073228346456
0
LINE
8
BLACK
6
CONTINUOUS
10
3.7289443307086612
20
-3.7512073228346456
11
3.7267716929133856
21
-3.7577638976377954
0
LINE
8
BLACK
6
CONTINUOUS
10
3.7267716929133856
20
-3.7577638976377954
11
3.7267716929133856
21
-3.7577639370078741
0
LINE
8
BLACK
6
CONTINUOUS
10
3.7267716929133856
20
-3.7577639370078741
11
3.7267716535433069
21
-3.7577639370078741
0
LINE
8
BLACK
6
CONTINUOUS
10
3.7267716535433069
20
-3.7577639370078741
11
3.7263582677165354
21
-3.7618103543307084
0
LINE
8
BLACK
6
CONTINUOUS
10
3.7263582677165354
20
-3.7618103543307084
11
3.7263582677165354
21
-3.8562992519685038
0
LINE
8
BLACK
6
CONTINUOUS
10
3.7263582677165354
20
-3.8562992519685038
11
3.7263583070866142
21
-3.8562999212598426
0
LINE
8
BLACK
6
CONTINUOUS
10
3.7263583070866142
20
-3.8562999212598426
11
3.7267716535433069
21
-3.8603462992125985
0
LINE
8
BLACK
6
CONTINUOUS
10
3.7267716535433069
20
-3.8603462992125985
11
3.7267716929133856
21
-3.8603464173228343
0
LINE
8
BLACK
6
CONTINUOUS
10
3.7267716929133856
20
-3.8603464173228343
11
3.7282126377952753
21
-3.8646948425196848
0
LINE
8
BLACK
6
CONTINUOUS
10
3.7282126377952753
20
-3.8646948425196848
11
3.7289443307086612
21
-3.8669029133858266
0
LINE
8
BLACK
6
CONTINUOUS
10
3.7289443307086612
20
-3.8669029133858266
11
3.7325703937007875
21
-3.8727817322834643
0
LINE
8
BLACK
6
CONTINUOUS
10
3.7325703937007875
20
-3.8727817322834643
11
3.7374544881889764
21
-3.8776658267716533
0
LINE
8
BLACK
6
CONTINUOUS
10
3.7374544881889764
20
-3.8776658267716533
11
3.7433333070866142
21
-3.8812918897637796
0
LINE
8
BLACK
6
CONTINUOUS
10
3.7433333070866142
20
-3.8812918897637796
11
3.7498898818897639
21
-3.8834645275590551
0
LINE
8
BLACK
6
CONTINUOUS
10
3.7498898818897639
20
-3.8834645275590551
11
3.753936653543307
21
-3.8838779527559053
0
LINE
8
BLACK
6
CONTINUOUS
10
3.753936653543307
20
-3.8838779527559053
11
3.7775593700787402
21
-3.8838779133858266
0
LINE
8
BLACK
6
CONTINUOUS
10
3.7775593700787402
20
-3.8838779133858266
11
3.7775596850393698
21
-3.8838778740157478
0
LINE
8
BLACK
6
CONTINUOUS
10
3.7775596850393698
20
-3.8838778740157478
11
3.777559803149606
21
-3.8838778740157478
0
LINE
8
BLACK
6
CONTINUOUS
10
3.777559803149606
20
-3.8838778740157478
11
3.7797756692913387
21
-3.883651496062992
0
LINE
8
BLACK
6
CONTINUOUS
10
3.7797756692913387
20
-3.883651496062992
11
3.781606181102362
21
-3.8834645275590551
0
LINE
8
BLACK
6
CONTINUOUS
10
3.781606181102362
20
-3.8834645275590551
11
3.7881627559055118
21
-3.8812918897637796
0
LINE
8
BLACK
6
CONTINUOUS
10
3.7881627559055118
20
-3.8812918897637796
11
3.7940415748031495
21
-3.8776658267716533
0
LINE
8
BLACK
6
CONTINUOUS
10
3.7940415748031495
20
-3.8776658267716533
11
3.7989256692913385
21
-3.8727817322834643
0
LINE
8
BLACK
6
CONTINUOUS
10
3.7989256692913385
20
-3.8727817322834643
11
3.8025517322834643
21
-3.8669029133858266
0
LINE
8
BLACK
6
CONTINUOUS
10
3.8025517322834643
20
-3.8669029133858266
11
3.8047243700787399
21
-3.8603463385826773
0
LINE
8
BLACK
6
CONTINUOUS
10
3.8047243700787399
20
-3.8603463385826773
11
3.8051377952755905
21
-3.8562995669291338
0
LINE
8
BLACK
6
CONTINUOUS
10
3.8051377952755905
20
-3.8562995669291338
11
3.8051377559055117
21
-3.7827535039370077
0
LINE
8
BLACK
6
CONTINUOUS
10
3.8051377559055117
20
-3.7827535039370077
11
3.8059127559055117
21
-3.7801142125984253
0
LINE
8
BLACK
6
CONTINUOUS
10
3.8059127559055117
20
-3.7801142125984253
11
3.8079916141732282
21
-3.7783128346456691
0
LINE
8
BLACK
6
CONTINUOUS
10
3.8079916141732282
20
-3.7783128346456691
11
3.8107144094488188
21
-3.7779213385826771
0
LINE
8
BLACK
6
CONTINUOUS
10
3.8107144094488188
20
-3.7779213385826771
11
3.8132166141732284
21
-3.7790640551181101
0
LINE
8
BLACK
6
CONTINUOUS
10
3.8132166141732284
20
-3.7790640551181101
11
3.8134716535433069
21
-3.7793015354330706
0
LINE
8
BLACK
6
CONTINUOUS
10
3.8134716535433069
20
-3.7793015354330706
11
3.8165238976377953
21
-3.782353779527559
0
LINE
8
BLACK
6
CONTINUOUS
10
3.8165238976377953
20
-3.782353779527559
11
3.8165240551181103
21
-3.7823538976377953
0
LINE
8
BLACK
6
CONTINUOUS
10
3.8165240551181103
20
-3.7823538976377953
11
3.8216855905511808
21
-3.7858027559055119
0
LINE
8
BLACK
6
CONTINUOUS
10
3.8216855905511808
20
-3.7858027559055119
11
3.8216861023622046
21
-3.7858030314960631
0
LINE
8
BLACK
6
CONTINUOUS
10
3.8216861023622046
20
-3.7858030314960631
11
3.8269289370078741
21
-3.7879746456692911
0
LINE
8
BLACK
6
CONTINUOUS
10
3.8269289370078741
20
-3.7879746456692911
11
3.8274213779527559
21
-3.7881786220472442
0
LINE
8
BLACK
6
CONTINUOUS
10
3.8274213779527559
20
-3.7881786220472442
11
3.8335099606299212
21
-3.7893897244094488
0
LINE
8
BLACK
6
CONTINUOUS
10
3.8335099606299212
20
-3.7893897244094488
11
3.8335100787401575
21
-3.7893897637795275
0
LINE
8
BLACK
6
CONTINUOUS
10
3.8335100787401575
20
-3.7893897637795275
11
3.833510157480315
21
-3.7893897637795275
0
LINE
8
BLACK
6
CONTINUOUS
10
3.833510157480315
20
-3.7893897637795275
11
3.8397182677165351
21
-3.7893897637795275
0
LINE
8
BLACK
6
CONTINUOUS
10
3.8397182677165351
20
-3.7893897637795275
11
3.8397183070866139
21
-3.7893897244094488
0
LINE
8
BLACK
6
CONTINUOUS
10
3.8397183070866139
20
-3.7893897244094488
11
3.8458069685039371
21
-3.7881786220472442
0
LINE
8
BLACK
6
CONTINUOUS
10
3.8458069685039371
20
-3.7881786220472442
11
3.8515424803149605
21
-3.7858029133858269
0
LINE
8
BLACK
6
CONTINUOUS
10
3.8515424803149605
20
-3.7858029133858269
11
3.8565594094488187
21
-3.7824507086614174
0
LINE
8
BLACK
6
CONTINUOUS
10
3.8565594094488187
20
-3.7824507086614174
11
3.8591844881889763
21
-3.7816287401574802
0
LINE
8
BLACK
6
CONTINUOUS
10
3.8591844881889763
20
-3.7816287401574802
11
3.8618372440944881
21
-3.7823564566929133
0
LINE
8
BLACK
6
CONTINUOUS
10
3.8618372440944881
20
-3.7823564566929133
11
3.8636754724409448
21
-3.7844028740157478
0
LINE
8
BLACK
6
CONTINUOUS
10
3.8636754724409448
20
-3.7844028740157478
11
3.8641535433070864
21
-3.7865098425196848
0
LINE
8
BLACK
6
CONTINUOUS
10
3.8641535433070864
20
-3.7865098425196848
11
3.8641535433070864
21
-3.8229657480314958
0
LINE
8
BLACK
6
CONTINUOUS
10
3.8641535433070864
20
-3.8229657480314958
11
3.8641535039370076
21
-3.8229664566929134
0
LINE
8
BLACK
6
CONTINUOUS
10
3.8641535039370076
20
-3.8229664566929134
11
3.8641535039370076
21
-3.8294903149606299
0
LINE
8
BLACK
6
CONTINUOUS
10
3.8641535039370076
20
-3.8294903149606299
11
3.8641534645669289
21
-3.8294903149606299
0
LINE
8
BLACK
6
CONTINUOUS
10
3.8641534645669289
20
-3.8294903149606299
11
3.8657646850393701
21
-3.8355033464566928
0
LINE
8
BLACK
6
CONTINUOUS
10
3.8657646850393701
20
-3.8355033464566928
11
3.8669038582677167
21
-3.8374763779527559
0
LINE
8
BLACK
6
CONTINUOUS
10
3.8669038582677167
20
-3.8374763779527559
11
3.8669038976377954
21
-3.8374765354330709
0
LINE
8
BLACK
6
CONTINUOUS
10
3.8669038976377954
20
-3.8374765354330709
11
3.8669039370078737
21
-3.8374765354330709
0
LINE
8
BLACK
6
CONTINUOUS
10
3.8669039370078737
20
-3.8374765354330709
11
3.8688771259842518
21
-3.8408942519685039
0
LINE
8
BLACK
6
CONTINUOUS
10
3.8688771259842518
20
-3.8408942519685039
11
3.8688772047244093
21
-3.8408943700787401
0
LINE
8
BLACK
6
CONTINUOUS
10
3.8688772047244093
20
-3.8408943700787401
11
3.8735570472440943
21
-3.8455742125984251
0
LINE
8
BLACK
6
CONTINUOUS
10
3.8735570472440943
20
-3.8455742125984251
11
3.8735572834645668
21
-3.8455744094488189
0
LINE
8
BLACK
6
CONTINUOUS
10
3.8735572834645668
20
-3.8455744094488189
11
3.9276842913385828
21
-3.8997014173228344
0
LINE
8
BLACK
6
CONTINUOUS
10
3.9276842913385828
20
-3.8997014173228344
11
3.9290025984251966
21
-3.9021157086614173
0
LINE
8
BLACK
6
CONTINUOUS
10
3.9290025984251966
20
-3.9021157086614173
11
3.9291141732283466
21
-3.9031534251968503
0
LINE
8
BLACK
6
CONTINUOUS
10
3.9291141732283466
20
-3.9031534251968503
11
3.9291141732283466
21
-3.9847767716535434
0
LINE
8
BLACK
6
CONTINUOUS
10
3.9291141732283466
20
-3.9847767716535434
11
3.9291141338582678
21
-3.9847774803149605
0
LINE
8
BLACK
6
CONTINUOUS
10
3.9291141338582678
20
-3.9847774803149605
11
3.9291141338582678
21
-3.991301338582677
0
LINE
8
BLACK
6
CONTINUOUS
10
3.9291141338582678
20
-3.991301338582677
11
3.929114094488189
21
-3.991301338582677
0
LINE
8
BLACK
6
CONTINUOUS
10
3.929114094488189
20
-3.991301338582677
11
3.9307253543307086
21
-3.9973145275590549
0
LINE
8
BLACK
6
CONTINUOUS
10
3.9307253543307086
20
-3.9973145275590549
11
3.9307253937007873
21
-3.9973145669291337
0
LINE
8
BLACK
6
CONTINUOUS
10
3.9307253937007873
20
-3.9973145669291337
11
3.9314927559055115
21
-3.9986436220472439
0
LINE
8
BLACK
6
CONTINUOUS
10
3.9314927559055115
20
-3.9986436220472439
11
3.9316153937007874
21
-3.998856023622047
0
LINE
8
BLACK
6
CONTINUOUS
10
3.9316153937007874
20
-3.998856023622047
11
3.9338377952755903
21
-4.0027053543307085
0
LINE
8
BLACK
6
CONTINUOUS
10
3.9338377952755903
20
-4.0027053543307085
11
3.934028307086614
21
-4.0028958661417322
0
LINE
8
BLACK
6
CONTINUOUS
10
3.934028307086614
20
-4.0028958661417322
11
3.9343292913385826
21
-4.0033999212598426
0
LINE
8
BLACK
6
CONTINUOUS
10
3.9343292913385826
20
-4.0033999212598426
11
3.9346049999999999
21
-4.0044677559055115
0
LINE
8
BLACK
6
CONTINUOUS
10
3.9346049999999999
20
-4.0044677559055115
11
3.9350027165354331
21
-4.0054962992125986
0
LINE
8
BLACK
6
CONTINUOUS
10
3.9350027165354331
20
-4.0054962992125986
11
3.9350196850393702
21
-4.0059027559055114
0
LINE
8
BLACK
6
CONTINUOUS
10
3.9350196850393702
20
-4.0059027559055114
11
3.9350196850393702
21
-4.0070411811023625
0
LINE
8
BLACK
6
CONTINUOUS
10
3.9350196850393702
20
-4.0070411811023625
11
3.936230748031496
21
-4.0131294881889765
0
LINE
8
BLACK
6
CONTINUOUS
10
3.936230748031496
20
-4.0131294881889765
11
3.9362308661417322
21
-4.0131299606299216
0
LINE
8
BLACK
6
CONTINUOUS
10
3.9362308661417322
20
-4.0131299606299216
11
3.9386063779527558
21
-4.0188650393700787
0
LINE
8
BLACK
6
CONTINUOUS
10
3.9386063779527558
20
-4.0188650393700787
11
3.9386066535433071
21
-4.0188655511811024
0
LINE
8
BLACK
6
CONTINUOUS
10
3.9386066535433071
20
-4.0188655511811024
11
3.9420555118110236
21
-4.024027086614173
0
LINE
8
BLACK
6
CONTINUOUS
10
3.9420555118110236
20
-4.024027086614173
11
3.9420556299212599
21
-4.024027244094488
0
LINE
8
BLACK
6
CONTINUOUS
10
3.9420556299212599
20
-4.024027244094488
11
3.9464451574803148
21
-4.0284167716535428
0
LINE
8
BLACK
6
CONTINUOUS
10
3.9464451574803148
20
-4.0284167716535428
11
3.9464453149606298
21
-4.0284168897637791
0
LINE
8
BLACK
6
CONTINUOUS
10
3.9464453149606298
20
-4.0284168897637791
11
3.9516068503937007
21
-4.0318657480314961
0
LINE
8
BLACK
6
CONTINUOUS
10
3.9516068503937007
20
-4.0318657480314961
11
3.9516073622047245
21
-4.0318660236220474
0
LINE
8
BLACK
6
CONTINUOUS
10
3.9516073622047245
20
-4.0318660236220474
11
3.954533937007874
21
-4.033078228346457
0
LINE
8
BLACK
6
CONTINUOUS
10
3.954533937007874
20
-4.033078228346457
11
3.9573426377952754
21
-4.0342416141732285
0
LINE
8
BLACK
6
CONTINUOUS
10
3.9573426377952754
20
-4.0342416141732285
11
3.9594246456692912
21
-4.0346557480314962
0
LINE
8
BLACK
6
CONTINUOUS
10
3.9594246456692912
20
-4.0346557480314962
11
3.9618620472440944
21
-4.0359307086614171
0
LINE
8
BLACK
6
CONTINUOUS
10
3.9618620472440944
20
-4.0359307086614171
11
3.9632232283464566
21
-4.0383211023622048
0
LINE
8
BLACK
6
CONTINUOUS
10
3.9632232283464566
20
-4.0383211023622048
11
3.963076023622047
21
-4.0410679133858265
0
LINE
8
BLACK
6
CONTINUOUS
10
3.963076023622047
20
-4.0410679133858265
11
3.9626272834645668
21
-4.0420066535433072
0
LINE
8
BLACK
6
CONTINUOUS
10
3.9626272834645668
20
-4.0420066535433072
11
3.9592594488188975
21
-4.0474668897637791
0
LINE
8
BLACK
6
CONTINUOUS
10
3.9592594488188975
20
-4.0474668897637791
11
3.9592592913385825
21
-4.0474671653543304
0
LINE
8
BLACK
6
CONTINUOUS
10
3.9592592913385825
20
-4.0474671653543304
11
3.9570866535433069
21
-4.0540237401574801
0
LINE
8
BLACK
6
CONTINUOUS
10
3.9570866535433069
20
-4.0540237401574801
11
3.9570866535433069
21
-4.0540237795275589
0
LINE
8
BLACK
6
CONTINUOUS
10
3.9570866535433069
20
-4.0540237795275589
11
3.9570866141732282
21
-4.0540237795275589
0
LINE
8
BLACK
6
CONTINUOUS
10
3.9570866141732282
20
-4.0540237795275589
11
3.9566732283464567
21
-4.0580701968503936
0
LINE
8
BLACK
6
CONTINUOUS
10
3.9566732283464567
20
-4.0580701968503936
11
3.9566732283464567
21
-4.099409488188976
0
LINE
8
BLACK
6
CONTINUOUS
10
3.9566732283464567
20
-4.099409488188976
11
3.9566732677165355
21
-4.0994101968503935
0
LINE
8
BLACK
6
CONTINUOUS
10
3.9566732677165355
20
-4.0994101968503935
11
3.9570866141732282
21
-4.1034565354330708
0
LINE
8
BLACK
6
CONTINUOUS
10
3.9570866141732282
20
-4.1034565354330708
11
3.9570866535433069
21
-4.103456653543307
0
LINE
8
BLACK
6
CONTINUOUS
10
3.9570866535433069
20
-4.103456653543307
11
3.9592592519685037
21
-4.110013031496063
0
LINE
8
BLACK
6
CONTINUOUS
10
3.9592592519685037
20
-4.110013031496063
11
3.9592593307086612
21
-4.1100132283464568
0
LINE
8
BLACK
6
CONTINUOUS
10
3.9592593307086612
20
-4.1100132283464568
11
3.9598761811023619
21
-4.1110133070866137
0
LINE
8
BLACK
6
CONTINUOUS
10
3.9598761811023619
20
-4.1110133070866137
11
3.9628853543307088
21
-4.115891968503937
0
LINE
8
BLACK
6
CONTINUOUS
10
3.9628853543307088
20
-4.115891968503937
11
3.9677694488188977
21
-4.1207760629921255
0
LINE
8
BLACK
6
CONTINUOUS
10
3.9677694488188977
20
-4.1207760629921255
11
3.9736482677165355
21
-4.1244021259842523
0
LINE
8
BLACK
6
CONTINUOUS
10
3.9736482677165355
20
-4.1244021259842523
11
3.9802048425196848
21
-4.1265747637795274
0
LINE
8
BLACK
6
CONTINUOUS
10
3.9802048425196848
20
-4.1265747637795274
11
3.9842516141732283
21
-4.1269881889763775
0
LINE
8
BLACK
6
CONTINUOUS
10
3.9842516141732283
20
-4.1269881889763775
11
4.0078743307086615
21
-4.1269881496062988
0
LINE
8
BLACK
6
CONTINUOUS
10
4.0078743307086615
20
-4.1269881496062988
11
4.0078746456692915
21
-4.12698811023622
0
LINE
8
BLACK
6
CONTINUOUS
10
4.0078746456692915
20
-4.12698811023622
11
4.0078747637795278
21
-4.12698811023622
0
LINE
8
BLACK
6
CONTINUOUS
10
4.0078747637795278
20
-4.12698811023622
11
4.0106523622047243
21
-4.1267043700787402
0
LINE
8
BLACK
6
CONTINUOUS
10
4.0106523622047243
20
-4.1267043700787402
11
4.0119211417322838
21
-4.1265747637795274
0
LINE
8
BLACK
6
CONTINUOUS
10
4.0119211417322838
20
-4.1265747637795274
11
4.0184777165354326
21
-4.1244021259842523
0
LINE
8
BLACK
6
CONTINUOUS
10
4.0184777165354326
20
-4.1244021259842523
11
4.0243565354330704
21
-4.1207760629921255
0
LINE
8
BLACK
6
CONTINUOUS
10
4.0243565354330704
20
-4.1207760629921255
11
4.0292406299212598
21
-4.115891968503937
0
LINE
8
BLACK
6
CONTINUOUS
10
4.0292406299212598
20
-4.115891968503937
11
4.0324496850393698
21
-4.1106891732283461
0
LINE
8
BLACK
6
CONTINUOUS
10
4.0324496850393698
20
-4.1106891732283461
11
4.034494803149606
21
-4.1088496850393703
0
LINE
8
BLACK
6
CONTINUOUS
10
4.034494803149606
20
-4.1088496850393703
11
4.0372098818897637
21
-4.1084078346456696
0
LINE
8
BLACK
6
CONTINUOUS
10
4.0372098818897637
20
-4.1084078346456696
11
4.038472913385827
21
-4.1087418110236218
0
LINE
8
BLACK
6
CONTINUOUS
10
4.038472913385827
20
-4.1087418110236218
11
4.0439566141732284
21
-4.1110131889763775
0
LINE
8
BLACK
6
CONTINUOUS
10
4.0439566141732284
20
-4.1110131889763775
11
4.0439568110236221
21
-4.111013267716535
0
LINE
8
BLACK
6
CONTINUOUS
10
4.0439568110236221
20
-4.111013267716535
11
4.0500453937007874
21
-4.1122243700787404
0
LINE
8
BLACK
6
CONTINUOUS
10
4.0500453937007874
20
-4.1122243700787404
11
4.0500455118110237
21
-4.1122244094488192
0
LINE
8
BLACK
6
CONTINUOUS
10
4.0500455118110237
20
-4.1122244094488192
11
4.0500455905511812
21
-4.1122244094488192
0
LINE
8
BLACK
6
CONTINUOUS
10
4.0500455905511812
20
-4.1122244094488192
11
4.0562537007874013
21
-4.1122244094488192
0
LINE
8
BLACK
6
CONTINUOUS
10
4.0562537007874013
20
-4.1122244094488192
11
4.0562537401574801
21
-4.1122243700787404
0
LINE
8
BLACK
6
CONTINUOUS
10
4.0562537401574801
20
-4.1122243700787404
11
4.0623424015748029
21
-4.111013267716535
0
LINE
8
BLACK
6
CONTINUOUS
10
4.0623424015748029
20
-4.111013267716535
11
4.0680779133858262
21
-4.1086375590551176
0
LINE
8
BLACK
6
CONTINUOUS
10
4.0680779133858262
20
-4.1086375590551176
11
4.0732397244094489
21
-4.1051885433070865
0
LINE
8
BLACK
6
CONTINUOUS
10
4.0732397244094489
20
-4.1051885433070865
11
4.0776294881889763
21
-4.1007987795275591
0
LINE
8
BLACK
6
CONTINUOUS
10
4.0776294881889763
20
-4.1007987795275591
11
4.0810785039370074
21
-4.0956369685039373
0
LINE
8
BLACK
6
CONTINUOUS
10
4.0810785039370074
20
-4.0956369685039373
11
4.0834542125984248
21
-4.0899014566929131
0
LINE
8
BLACK
6
CONTINUOUS
10
4.0834542125984248
20
-4.0899014566929131
11
4.084665354330709
21
-4.083812677165354
0
LINE
8
BLACK
6
CONTINUOUS
10
4.084665354330709
20
-4.083812677165354
11
4.084665354330709
21
-4.0776046456692914
0
LINE
8
BLACK
6
CONTINUOUS
10
4.084665354330709
20
-4.0776046456692914
11
4.084665354330709
21
-4.0776045275590551
0
LINE
8
BLACK
6
CONTINUOUS
10
4.084665354330709
20
-4.0776045275590551
11
4.0846653149606302
21
-4.0776044488188976
0
LINE
8
BLACK
6
CONTINUOUS
10
4.0846653149606302
20
-4.0776044488188976
11
4.0834542519685035
21
-4.0715161417322836
0
LINE
8
BLACK
6
CONTINUOUS
10
4.0834542519685035
20
-4.0715161417322836
11
4.0834542125984248
21
-4.0715158661417323
0
LINE
8
BLACK
6
CONTINUOUS
10
4.0834542125984248
20
-4.0715158661417323
11
4.0813396062992124
21
-4.066410708661417
0
LINE
8
BLACK
6
CONTINUOUS
10
4.0813396062992124
20
-4.066410708661417
11
4.0810786220472437
21
-4.0657805905511806
0
LINE
8
BLACK
6
CONTINUOUS
10
4.0810786220472437
20
-4.0657805905511806
11
4.0810783464566924
21
-4.0657800787401577
0
LINE
8
BLACK
6
CONTINUOUS
10
4.0810783464566924
20
-4.0657800787401577
11
4.0776294881889763
21
-4.0606185433070863
0
LINE
8
BLACK
6
CONTINUOUS
10
4.0776294881889763
20
-4.0606185433070863
11
4.07762937007874
21
-4.0606183858267713
0
LINE
8
BLACK
6
CONTINUOUS
10
4.07762937007874
20
-4.0606183858267713
11
4.0732398425196852
21
-4.0562288582677164
0
LINE
8
BLACK
6
CONTINUOUS
10
4.0732398425196852
20
-4.0562288582677164
11
4.0732396850393702
21
-4.0562287401574801
0
LINE
8
BLACK
6
CONTINUOUS
10
4.0732396850393702
20
-4.0562287401574801
11
4.0680781496062988
21
-4.052779881889764
0
LINE
8
BLACK
6
CONTINUOUS
10
4.0680781496062988
20
-4.052779881889764
11
4.0680776377952759
21
-4.0527796062992127
0
LINE
8
BLACK
6
CONTINUOUS
10
4.0680776377952759
20
-4.0527796062992127
11
4.0623425590551179
21
-4.0504040944881892
0
LINE
8
BLACK
6
CONTINUOUS
10
4.0623425590551179
20
-4.0504040944881892
11
4.0623420866141728
21
-4.0504039763779529
0
LINE
8
BLACK
6
CONTINUOUS
10
4.0623420866141728
20
-4.0504039763779529
11
4.0562537401574801
21
-4.0491929133858271
0
LINE
8
BLACK
6
CONTINUOUS
10
4.0562537401574801
20
-4.0491929133858271
11
4.0562536220472438
21
-4.0491929133858271
0
LINE
8
BLACK
6
CONTINUOUS
10
4.0562536220472438
20
-4.0491929133858271
11
4.0500455905511812
21
-4.0491929133858271
0
LINE
8
BLACK
6
CONTINUOUS
10
4.0500455905511812
20
-4.0491929133858271
11
4.0500454724409449
21
-4.0491929133858271
0
LINE
8
BLACK
6
CONTINUOUS
10
4.0500454724409449
20
-4.0491929133858271
11
4.0439570866141734
21
-4.0504039763779529
0
LINE
8
BLACK
6
CONTINUOUS
10
4.0439570866141734
20
-4.0504039763779529
11
4.0439566141732284
21
-4.0504040944881892
0
LINE
8
BLACK
6
CONTINUOUS
10
4.0439566141732284
20
-4.0504040944881892
11
4.0399116535433066
21
-4.0520795669291338
0
LINE
8
BLACK
6
CONTINUOUS
10
4.0399116535433066
20
-4.0520795669291338
11
4.0371766141732284
21
-4.0523736220472442
0
LINE
8
BLACK
6
CONTINUOUS
10
4.0371766141732284
20
-4.0523736220472442
11
4.034716811023622
21
-4.051142283464567
0
LINE
8
BLACK
6
CONTINUOUS
10
4.034716811023622
20
-4.051142283464567
11
4.0334093700787399
21
-4.0491048818897637
0
LINE
8
BLACK
6
CONTINUOUS
10
4.0334093700787399
20
-4.0491048818897637
11
4.0328666929133856
21
-4.0474671653543304
0
LINE
8
BLACK
6
CONTINUOUS
10
4.0328666929133856
20
-4.0474671653543304
11
4.0292406299212598
21
-4.0415883464566926
0
LINE
8
BLACK
6
CONTINUOUS
10
4.0292406299212598
20
-4.0415883464566926
11
4.0243565354330704
21
-4.0367042519685041
0
LINE
8
BLACK
6
CONTINUOUS
10
4.0243565354330704
20
-4.0367042519685041
11
4.0203639370078736
21
-4.0342416141732285
0
LINE
8
BLACK
6
CONTINUOUS
10
4.0203639370078736
20
-4.0342416141732285
11
4.0184777952755901
21
-4.033078228346457
0
LINE
8
BLACK
6
CONTINUOUS
10
4.0184777952755901
20
-4.033078228346457
11
4.0184775984251964
21
-4.0330781496062995
0
LINE
8
BLACK
6
CONTINUOUS
10
4.0184775984251964
20
-4.0330781496062995
11
4.0184197637795274
21
-4.0330589763779523
0
LINE
8
BLACK
6
CONTINUOUS
10
4.0184197637795274
20
-4.0330589763779523
11
4.0119211417322838
21
-4.0309055511811023
0
LINE
8
BLACK
6
CONTINUOUS
10
4.0119211417322838
20
-4.0309055511811023
11
4.0119210629921263
21
-4.0309055118110235
0
LINE
8
BLACK
6
CONTINUOUS
10
4.0119210629921263
20
-4.0309055118110235
11
4.0078746456692915
21
-4.0304921259842521
0
LINE
8
BLACK
6
CONTINUOUS
10
4.0078746456692915
20
-4.0304921259842521
11
3.9958288976377951
21
-4.0304921259842521
0
LINE
8
BLACK
6
CONTINUOUS
10
3.9958288976377951
20
-4.0304921259842521
11
3.993189566929134
21
-4.0297171259842521
0
LINE
8
BLACK
6
CONTINUOUS
10
3.993189566929134
20
-4.0297171259842521
11
3.9913881889763778
21
-4.0276382283464569
0
LINE
8
BLACK
6
CONTINUOUS
10
3.9913881889763778
20
-4.0276382283464569
11
3.9909966929133858
21
-4.0249154724409451
0
LINE
8
BLACK
6
CONTINUOUS
10
3.9909966929133858
20
-4.0249154724409451
11
3.9917697637795273
21
-4.0228979921259844
0
LINE
8
BLACK
6
CONTINUOUS
10
3.9917697637795273
20
-4.0228979921259844
11
3.9944643307086611
21
-4.0188653149606299
0
LINE
8
BLACK
6
CONTINUOUS
10
3.9944643307086611
20
-4.0188653149606299
11
3.9968400393700785
21
-4.0131298031496065
0
LINE
8
BLACK
6
CONTINUOUS
10
3.9968400393700785
20
-4.0131298031496065
11
3.9980511811023622
21
-4.0070410236220475
0
LINE
8
BLACK
6
CONTINUOUS
10
3.9980511811023622
20
-4.0070410236220475
11
3.9980511811023622
21
-4.000832992125984
0
LINE
8
BLACK
6
CONTINUOUS
10
3.9980511811023622
20
-4.000832992125984
11
3.9980511811023622
21
-4.0008328740157477
0
LINE
8
BLACK
6
CONTINUOUS
10
3.9980511811023622
20
-4.0008328740157477
11
3.9980511417322835
21
-4.0008327952755902
0
LINE
8
BLACK
6
CONTINUOUS
10
3.9980511417322835
20
-4.0008327952755902
11
3.9968400393700785
21
-3.9947442125984249
0
LINE
8
BLACK
6
CONTINUOUS
10
3.9968400393700785
20
-3.9947442125984249
11
3.9954139763779528
21
-3.991301338582677
0
LINE
8
BLACK
6
CONTINUOUS
10
3.9954139763779528
20
-3.991301338582677
11
3.9944644488188974
21
-3.9890089370078741
0
LINE
8
BLACK
6
CONTINUOUS
10
3.9944644488188974
20
-3.9890089370078741
11
3.9944641732283466
21
-3.9890084251968503
0
LINE
8
BLACK
6
CONTINUOUS
10
3.9944641732283466
20
-3.9890084251968503
11
3.9915214960629921
21
-3.9846044094488189
0
LINE
8
BLACK
6
CONTINUOUS
10
3.9915214960629921
20
-3.9846044094488189
11
3.9906995275590549
21
-3.9819792913385825
0
LINE
8
BLACK
6
CONTINUOUS
10
3.9906995275590549
20
-3.9819792913385825
11
3.9914272834645668
21
-3.9793265354330707
0
LINE
8
BLACK
6
CONTINUOUS
10
3.9914272834645668
20
-3.9793265354330707
11
3.993473661417323
21
-3.9774883464566928
0
LINE
8
BLACK
6
CONTINUOUS
10
3.993473661417323
20
-3.9774883464566928
11
3.9937124409448819
21
-3.9773818897637794
0
LINE
8
BLACK
6
CONTINUOUS
10
3.9937124409448819
20
-3.9773818897637794
11
3.995243031496063
21
-3.9767479133858266
0
LINE
8
BLACK
6
CONTINUOUS
10
3.995243031496063
20
-3.9767479133858266
11
3.9952431496062992
21
-3.9767478346456691
0
LINE
8
BLACK
6
CONTINUOUS
10
3.9952431496062992
20
-3.9767478346456691
11
3.9952432677165355
21
-3.9767477952755903
0
LINE
8
BLACK
6
CONTINUOUS
10
3.9952432677165355
20
-3.9767477952755903
11
4.0004050787401573
21
-3.9732987795275592
0
LINE
8
BLACK
6
CONTINUOUS
10
4.0004050787401573
20
-3.9732987795275592
11
4.0047948425196847
21
-3.9689090157480313
0
LINE
8
BLACK
6
CONTINUOUS
10
4.0047948425196847
20
-3.9689090157480313
11
4.0082438582677167
21
-3.9637472047244096
0
LINE
8
BLACK
6
CONTINUOUS
10
4.0082438582677167
20
-3.9637472047244096
11
4.010619566929134
21
-3.9580116929133857
0
LINE
8
BLACK
6
CONTINUOUS
10
4.010619566929134
20
-3.9580116929133857
11
4.0118307086614173
21
-3.9519229133858267
0
LINE
8
BLACK
6
CONTINUOUS
10
4.0118307086614173
20
-3.9519229133858267
11
4.0118307086614173
21
-3.9457148818897636
0
LINE
8
BLACK
6
CONTINUOUS
10
4.0118307086614173
20
-3.9457148818897636
11
4.0118307086614173
21
-3.9457147637795273
0
LINE
8
BLACK
6
CONTINUOUS
10
4.0118307086614173
20
-3.9457147637795273
11
4.0118306692913386
21
-3.9457146850393698
0
LINE
8
BLACK
6
CONTINUOUS
10
4.0118306692913386
20
-3.9457146850393698
11
4.0116134251968507
21
-3.9446225196850393
0
LINE
8
BLACK
6
CONTINUOUS
10
4.0116134251968507
20
-3.9446225196850393
11
4.010619566929134
21
-3.9396261023622046
0
LINE
8
BLACK
6
CONTINUOUS
10
4.010619566929134
20
-3.9396261023622046
11
4.0106194881889765
21
-3.9396259055118108
0
LINE
8
BLACK
6
CONTINUOUS
10
4.0106194881889765
20
-3.9396259055118108
11
4.0082439763779529
21
-3.9338908267716532
0
LINE
8
BLACK
6
CONTINUOUS
10
4.0082439763779529
20
-3.9338908267716532
11
4.0082437007874017
21
-3.9338903149606299
0
LINE
8
BLACK
6
CONTINUOUS
10
4.0082437007874017
20
-3.9338903149606299
11
4.0047794488188977
21
-3.9287057086614174
0
LINE
8
BLACK
6
CONTINUOUS
10
4.0047794488188977
20
-3.9287057086614174
11
4.0039574803149609
21
-3.9260805905511811
0
LINE
8
BLACK
6
CONTINUOUS
10
4.0039574803149609
20
-3.9260805905511811
11
4.0039566929133859
21
-3.925993464566929
0
LINE
8
BLACK
6
CONTINUOUS
10
4.0039566929133859
20
-3.925993464566929
11
4.0039566929133859
21
-3.9000771259842519
0
LINE
8
BLACK
6
CONTINUOUS
10
4.0039566929133859
20
-3.9000771259842519
11
4.0039567322834646
21
-3.9000766141732282
0
LINE
8
BLACK
6
CONTINUOUS
10
4.0039567322834646
20
-3.9000766141732282
11
4.0039567322834646
21
-3.8934584645669292
0
LINE
8
BLACK
6
CONTINUOUS
10
4.0039567322834646
20
-3.8934584645669292
11
4.0039567322834646
21
-3.8934583858267717
0
LINE
8
BLACK
6
CONTINUOUS
10
4.0039567322834646
20
-3.8934583858267717
11
4.0023455511811026
21
-3.8874454724409446
0
LINE
8
BLACK
6
CONTINUOUS
10
4.0023455511811026
20
-3.8874454724409446
11
4.0002858267716537
21
-3.8838779527559053
0
LINE
8
BLACK
6
CONTINUOUS
10
4.0002858267716537
20
-3.8838779527559053
11
3.9992330708661417
21
-3.8820544881889765
0
LINE
8
BLACK
6
CONTINUOUS
10
3.9992330708661417
20
-3.8820544881889765
11
3.994831338582677
21
-3.8776527559055118
0
LINE
8
BLACK
6
CONTINUOUS
10
3.994831338582677
20
-3.8776527559055118
11
3.9948312204724408
21
-3.8776526771653543
0
LINE
8
BLACK
6
CONTINUOUS
10
3.9948312204724408
20
-3.8776526771653543
11
3.9620794881889765
21
-3.8449009448818896
0
LINE
8
BLACK
6
CONTINUOUS
10
3.9620794881889765
20
-3.8449009448818896
11
3.9607611811023622
21
-3.8424866535433071
0
LINE
8
BLACK
6
CONTINUOUS
10
3.9607611811023622
20
-3.8424866535433071
11
3.9606496062992127
21
-3.8414489370078737
0
LINE
8
BLACK
6
CONTINUOUS
10
3.9606496062992127
20
-3.8414489370078737
11
3.9606496062992127
21
-3.7924153543307084
0
LINE
8
BLACK
6
CONTINUOUS
10
3.9606496062992127
20
-3.7924153543307084
11
3.9614246062992127
21
-3.7897760236220472
0
LINE
8
BLACK
6
CONTINUOUS
10
3.9614246062992127
20
-3.7897760236220472
11
3.9635035039370079
21
-3.7879746456692911
0
LINE
8
BLACK
6
CONTINUOUS
10
3.9635035039370079
20
-3.7879746456692911
11
3.9662262598425198
21
-3.787583149606299
0
LINE
8
BLACK
6
CONTINUOUS
10
3.9662262598425198
20
-3.787583149606299
11
3.9682437401574804
21
-3.788356220472441
0
LINE
8
BLACK
6
CONTINUOUS
10
3.9682437401574804
20
-3.788356220472441
11
3.9732603937007873
21
-3.7917082677165355
0
LINE
8
BLACK
6
CONTINUOUS
10
3.9732603937007873
20
-3.7917082677165355
11
3.9732609055118111
21
-3.7917085433070867
0
LINE
8
BLACK
6
CONTINUOUS
10
3.9732609055118111
20
-3.7917085433070867
11
3.9789959842519682
21
-3.7940840551181103
0
LINE
8
BLACK
6
CONTINUOUS
10
3.9789959842519682
20
-3.7940840551181103
11
3.978996181102362
21
-3.7940841338582678
0
LINE
8
BLACK
6
CONTINUOUS
10
3.978996181102362
20
-3.7940841338582678
11
3.9850847637795273
21
-3.7952952362204724
0
LINE
8
BLACK
6
CONTINUOUS
10
3.9850847637795273
20
-3.7952952362204724
11
3.9850848818897635
21
-3.7952952755905511
0
LINE
8
BLACK
6
CONTINUOUS
10
3.9850848818897635
20
-3.7952952755905511
11
3.985084960629921
21
-3.7952952755905511
0
LINE
8
BLACK
6
CONTINUOUS
10
3.985084960629921
20
-3.7952952755905511
11
3.9912930708661416
21
-3.7952952755905511
0
LINE
8
BLACK
6
CONTINUOUS
10
3.9912930708661416
20
-3.7952952755905511
11
3.9912931102362204
21
-3.7952952362204724
0
LINE
8
BLACK
6
CONTINUOUS
10
3.9912931102362204
20
-3.7952952362204724
11
3.9973817716535431
21
-3.7940841338582678
0
LINE
8
BLACK
6
CONTINUOUS
10
3.9973817716535431
20
-3.7940841338582678
11
4.003117283464567
21
-3.7917084251968505
0
LINE
8
BLACK
6
CONTINUOUS
10
4.003117283464567
20
-3.7917084251968505
11
4.0082790944881888
21
-3.7882594094488189
0
LINE
8
BLACK
6
CONTINUOUS
10
4.0082790944881888
20
-3.7882594094488189
11
4.0126688582677161
21
-3.7838696456692911
0
LINE
8
BLACK
6
CONTINUOUS
10
4.0126688582677161
20
-3.7838696456692911
11
4.0161178740157482
21
-3.7787078346456693
0
LINE
8
BLACK
6
CONTINUOUS
10
4.0161178740157482
20
-3.7787078346456693
11
4.0184935826771655
21
-3.7729723228346455
0
LINE
8
BLACK
6
CONTINUOUS
10
4.0184935826771655
20
-3.7729723228346455
11
4.0197047244094488
21
-3.7668835433070864
0
LINE
8
BLACK
6
CONTINUOUS
10
4.0197047244094488
20
-3.7668835433070864
11
4.0197047244094488
21
-3.7618103543307084
0
LINE
8
BLACK
6
CONTINUOUS
10
4.0197047244094488
20
-3.7618103543307084
11
4.0197047244094488
21
-3.7606755118110233
0
LINE
8
BLACK
6
CONTINUOUS
10
4.0197047244094488
20
-3.7606755118110233
11
4.0197047244094488
21
-3.7606753937007875
0
LINE
8
BLACK
6
CONTINUOUS
10
4.0197047244094488
20
-3.7606753937007875
11
4.0197046850393701
21
-3.76067531496063
0
LINE
8
BLACK
6
CONTINUOUS
10
4.0197046850393701
20
-3.76067531496063
11
4.0194197637795277
21
-3.7592429527559053
0
LINE
8
BLACK
6
CONTINUOUS
10
4.0194197637795277
20
-3.7592429527559053
11
4.0184935826771655
21
-3.7545867322834643
0
LINE
8
BLACK
6
CONTINUOUS
10
4.0184935826771655
20
-3.7545867322834643
11
4.018493503937008
21
-3.754586535433071
0
LINE
8
BLACK
6
CONTINUOUS
10
4.018493503937008
20
-3.754586535433071
11
4.0161179921259844
21
-3.7488514566929134
0
LINE
8
BLACK
6
CONTINUOUS
10
4.0161179921259844
20
-3.7488514566929134
11
4.0161177165354331
21
-3.7488509448818896
0
LINE
8
BLACK
6
CONTINUOUS
10
4.0161177165354331
20
-3.7488509448818896
11
4.0126688582677161
21
-3.7436894094488187
0
LINE
8
BLACK
6
CONTINUOUS
10
4.0126688582677161
20
-3.7436894094488187
11
4.0126687401574799
21
-3.7436892519685037
0
LINE
8
BLACK
6
CONTINUOUS
10
4.0126687401574799
20
-3.7436892519685037
11
4.0112920866141728
21
-3.7423125984251966
0
LINE
8
BLACK
6
CONTINUOUS
10
4.0112920866141728
20
-3.7423125984251966
11
4.0099737795275594
21
-3.7398983070866141
0
LINE
8
BLACK
6
CONTINUOUS
10
4.0099737795275594
20
-3.7398983070866141
11
4.009862204724409
21
-3.7388605905511811
0
LINE
8
BLACK
6
CONTINUOUS
10
4.009862204724409
20
-3.7388605905511811
11
4.009862204724409
21
-3.7252286614173227
0
LINE
8
BLACK
6
CONTINUOUS
10
4.009862204724409
20
-3.7252286614173227
11
4.010637204724409
21
-3.7225893307086615
0
LINE
8
BLACK
6
CONTINUOUS
10
4.010637204724409
20
-3.7225893307086615
11
4.0112921259842516
21
-3.7217766141732285
0
LINE
8
BLACK
6
CONTINUOUS
10
4.0112921259842516
20
-3.7217766141732285
11
4.0125226771653546
21
-3.7205460629921259
0
LINE
8
BLACK
6
CONTINUOUS
10
4.0125226771653546
20
-3.7205460629921259
11
4.0125228740157484
21
-3.7205458661417321
0
LINE
8
BLACK
6
CONTINUOUS
10
4.0125228740157484
20
-3.7205458661417321
11
4.0158166929133854
21
-3.7149762992125983
0
LINE
8
BLACK
6
CONTINUOUS
10
4.0158166929133854
20
-3.7149762992125983
11
4.0176219685039367
21
-3.7087625590551179
0
LINE
8
BLACK
6
CONTINUOUS
10
4.0176219685039367
20
-3.7087625590551179
11
4.0177362204724405
21
-3.7073107874015747
0
LINE
8
BLACK
6
CONTINUOUS
10
4.0177362204724405
20
-3.7073107874015747
11
4.0177362204724405
21
-3.6470199212598424
0
LINE
8
BLACK
6
CONTINUOUS
10
4.0177362204724405
20
-3.6470199212598424
11
4.0177361023622042
21
-3.6470185826771653
0
LINE
8
BLACK
6
CONTINUOUS
10
4.0177361023622042
20
-3.6470185826771653
11
4.017735984251968
21
-3.6470166141732281
0
LINE
8
BLACK
6
CONTINUOUS
10
4.017735984251968
20
-3.6470166141732281
11
4.0177360629921255
21
-3.647016220472441
0
LINE
8
BLACK
6
CONTINUOUS
10
4.0177360629921255
20
-3.647016220472441
11
4.017732440944882
21
-3.6469239370078741
0
LINE
8
BLACK
6
CONTINUOUS
10
4.017732440944882
20
-3.6469239370078741
11
4.0177556299212593
21
-3.646922992125984
0
LINE
8
BLACK
6
CONTINUOUS
10
4.0177556299212593
20
-3.646922992125984
11
4.0183016535433067
21
-3.6443246062992127
0
LINE
8
BLACK
6
CONTINUOUS
10
4.0183016535433067
20
-3.6443246062992127
11
4.0202329133858266
21
-3.6423657874015749
0
LINE
8
BLACK
6
CONTINUOUS
10
4.0202329133858266
20
-3.6423657874015749
11
4.022602834645669
21
-3.6417519685039368
0
LINE
8
BLACK
6
CONTINUOUS
10
4.022602834645669
20
-3.6417519685039368
11
4.0501578346456695
21
-3.6417519685039368
0
LINE
8
BLACK
6
CONTINUOUS
10
4.0501578346456695
20
-3.6417519685039368
11
4.0527971653543302
21
-3.6425269685039368
0
LINE
8
BLACK
6
CONTINUOUS
10
3.7785236220472438
20
-4.1357612992125983
11
3.7785236614173225
21
-4.1357620078740158
0
LINE
8
BLACK
6
CONTINUOUS
10
3.7785236614173225
20
-4.1357620078740158
11
3.7789232283464567
21
-4.1396735039370078
0
LINE
8
BLACK
6
CONTINUOUS
10
3.7789232283464567
20
-4.1396735039370078
11
3.7789232677165354
21
-4.1396736220472441
0
LINE
8
BLACK
6
CONTINUOUS
10
3.7789232677165354
20
-4.1396736220472441
11
3.7810234645669292
21
-4.1460115748031496
0
LINE
8
BLACK
6
CONTINUOUS
10
3.7810234645669292
20
-4.1460115748031496
11
3.7810236614173229
21
-4.1460120078740159
0
LINE
8
BLACK
6
CONTINUOUS
10
3.7810236614173229
20
-4.1460120078740159
11
3.7845287007874013
21
-4.1516944881889764
0
LINE
8
BLACK
6
CONTINUOUS
10
3.7845287007874013
20
-4.1516944881889764
11
3.7845288188976376
21
-4.1516946456692914
0
LINE
8
BLACK
6
CONTINUOUS
10
3.7845288188976376
20
-4.1516946456692914
11
3.7892501968503938
21
-4.1564160236220475
0
LINE
8
BLACK
6
CONTINUOUS
10
3.7892501968503938
20
-4.1564160236220475
11
3.7892503543307088
21
-4.1564161417322838
0
LINE
8
BLACK
6
CONTINUOUS
10
3.7892503543307088
20
-4.1564161417322838
11
3.7949328346456692
21
-4.1599211811023622
0
LINE
8
BLACK
6
CONTINUOUS
10
3.7949328346456692
20
-4.1599211811023622
11
3.7949329527559055
21
-4.159921220472441
0
LINE
8
BLACK
6
CONTINUOUS
10
3.7949329527559055
20
-4.159921220472441
11
3.794933188976378
21
-4.159921377952756
0
LINE
8
BLACK
6
CONTINUOUS
10
3.794933188976378
20
-4.159921377952756
11
3.8012713385826773
21
-4.162021614173228
0
LINE
8
BLACK
6
CONTINUOUS
10
3.8012713385826773
20
-4.162021614173228
11
3.8051832677165351
21
-4.1624212598425192
0
LINE
8
BLACK
6
CONTINUOUS
10
3.8051832677165351
20
-4.1624212598425192
11
3.8280503149606298
21
-4.1624212204724405
0
LINE
8
BLACK
6
CONTINUOUS
10
3.8280503149606298
20
-4.1624212204724405
11
3.8306896456692914
21
-4.1631961811023617
0
LINE
8
BLACK
6
CONTINUOUS
10
3.8306896456692914
20
-4.1631961811023617
11
3.8307623622047244
21
-4.1632438188976373
0
LINE
8
BLACK
6
CONTINUOUS
10
3.8307623622047244
20
-4.1632438188976373
11
3.8315283858267715
21
-4.1637556692913389
0
LINE
8
BLACK
6
CONTINUOUS
10
3.8315283858267715
20
-4.1637556692913389
11
3.8372638976377953
21
-4.1661313779527562
0
LINE
8
BLACK
6
CONTINUOUS
10
3.8372638976377953
20
-4.1661313779527562
11
3.8433524803149606
21
-4.1673424803149608
0
LINE
8
BLACK
6
CONTINUOUS
10
3.8433524803149606
20
-4.1673424803149608
11
3.8433525984251968
21
-4.1673425196850395
0
LINE
8
BLACK
6
CONTINUOUS
10
3.8433525984251968
20
-4.1673425196850395
11
3.8433526771653543
21
-4.1673425196850395
0
LINE
8
BLACK
6
CONTINUOUS
10
3.8433526771653543
20
-4.1673425196850395
11
3.8495607874015749
21
-4.1673425196850395
0
LINE
8
BLACK
6
CONTINUOUS
10
3.8495607874015749
20
-4.1673425196850395
11
3.8495608267716537
21
-4.1673424803149608
0
LINE
8
BLACK
6
CONTINUOUS
10
3.8495608267716537
20
-4.1673424803149608
11
3.8556494881889765
21
-4.1661313779527562
0
LINE
8
BLACK
6
CONTINUOUS
10
3.8556494881889765
20
-4.1661313779527562
11
3.8613849999999998
21
-4.1637556692913389
0
LINE
8
BLACK
6
CONTINUOUS
10
3.8613849999999998
20
-4.1637556692913389
11
3.8665468110236221
21
-4.1603066535433069
0
LINE
8
BLACK
6
CONTINUOUS
10
3.8665468110236221
20
-4.1603066535433069
11
3.8709365748031495
21
-4.1559168897637795
0
LINE
8
BLACK
6
CONTINUOUS
10
3.8709365748031495
20
-4.1559168897637795
11
3.874385590551181
21
-4.1507550787401577
0
LINE
8
BLACK
6
CONTINUOUS
10
3.874385590551181
20
-4.1507550787401577
11
3.8767612992125984
21
-4.1450195669291334
0
LINE
8
BLACK
6
CONTINUOUS
10
3.8767612992125984
20
-4.1450195669291334
11
3.8779724409448817
21
-4.1389307874015744
0
LINE
8
BLACK
6
CONTINUOUS
10
3.8779724409448817
20
-4.1389307874015744
11
3.8779724409448817
21
-4.1327227559055117
0
LINE
8
BLACK
6
CONTINUOUS
10
3.8779724409448817
20
-4.1327227559055117
11
3.8779724409448817
21
-4.1327226377952755
0
LINE
8
BLACK
6
CONTINUOUS
10
3.8779724409448817
20
-4.1327226377952755
11
3.8779724015748029
21
-4.132722559055118
0
LINE
8
BLACK
6
CONTINUOUS
10
3.8779724015748029
20
-4.132722559055118
11
3.8767612992125984
21
-4.1266339763779527
0
LINE
8
BLACK
6
CONTINUOUS
10
3.8767612992125984
20
-4.1266339763779527
11
3.8754156692913386
21
-4.1233852755905511
0
LINE
8
BLACK
6
CONTINUOUS
10
3.8754156692913386
20
-4.1233852755905511
11
3.8743857086614173
21
-4.1208987007874018
0
LINE
8
BLACK
6
CONTINUOUS
10
3.8743857086614173
20
-4.1208987007874018
11
3.874385433070866
21
-4.1208981889763781
0
LINE
8
BLACK
6
CONTINUOUS
10
3.874385433070866
20
-4.1208981889763781
11
3.8709365748031495
21
-4.1157366535433066
0
LINE
8
BLACK
6
CONTINUOUS
10
3.8709365748031495
20
-4.1157366535433066
11
3.8709364566929132
21
-4.1157364960629916
0
LINE
8
BLACK
6
CONTINUOUS
10
3.8709364566929132
20
-4.1157364960629916
11
3.8687252755905512
21
-4.1135253149606301
0
LINE
8
BLACK
6
CONTINUOUS
10
3.8687252755905512
20
-4.1135253149606301
11
3.8674069685039369
21
-4.1111110236220467
0
LINE
8
BLACK
6
CONTINUOUS
10
3.8674069685039369
20
-4.1111110236220467
11
3.867603188976378
21
-4.1083672440944881
0
LINE
8
BLACK
6
CONTINUOUS
10
3.867603188976378
20
-4.1083672440944881
11
3.8692516929133856
21
-4.1061651574803149
0
LINE
8
BLACK
6
CONTINUOUS
10
3.8692516929133856
20
-4.1061651574803149
11
3.8718290157480313
21
-4.1052038582677168
0
LINE
8
BLACK
6
CONTINUOUS
10
3.8718290157480313
20
-4.1052038582677168
11
3.8721772834645667
21
-4.1051914173228345
0
LINE
8
BLACK
6
CONTINUOUS
10
3.8721772834645667
20
-4.1051914173228345
11
3.8779527559055116
21
-4.1051914173228345
0
LINE
8
BLACK
6
CONTINUOUS
10
3.8779527559055116
20
-4.1051914173228345
11
3.8779527559055116
21
-4.0610236220472444
0
LINE
8
BLACK
6
CONTINUOUS
10
3.8779527559055116
20
-4.0610236220472444
11
3.8575248425196849
21
-4.0610236220472444
0
LINE
8
BLACK
6
CONTINUOUS
10
3.8575248425196849
20
-4.0610236220472444
11
3.8573686614173228
21
-4.0616064960629918
0
LINE
8
BLACK
6
CONTINUOUS
10
3.8573686614173228
20
-4.0616064960629918
11
3.8558270078740158
21
-4.0642766929133858
0
LINE
8
BLACK
6
CONTINUOUS
10
3.8558270078740158
20
-4.0642766929133858
11
3.8536467716535432
21
-4.0664569291338584
0
LINE
8
BLACK
6
CONTINUOUS
10
3.8536467716535432
20
-4.0664569291338584
11
3.8509765748031497
21
-4.0679985826771654
0
LINE
8
BLACK
6
CONTINUOUS
10
3.8509765748031497
20
-4.0679985826771654
11
3.8479983464566927
21
-4.0687965748031498
0
LINE
8
BLACK
6
CONTINUOUS
10
3.8479983464566927
20
-4.0687965748031498
11
3.8449150393700786
21
-4.0687965748031498
0
LINE
8
BLACK
6
CONTINUOUS
10
3.8449150393700786
20
-4.0687965748031498
11
3.8419368110236221
21
-4.0679985826771654
0
LINE
8
BLACK
6
CONTINUOUS
10
3.8419368110236221
20
-4.0679985826771654
11
3.8392666141732281
21
-4.0664569291338584
0
LINE
8
BLACK
6
CONTINUOUS
10
3.8392666141732281
20
-4.0664569291338584
11
3.837086377952756
21
-4.0642766929133858
0
LINE
8
BLACK
6
CONTINUOUS
10
3.837086377952756
20
-4.0642766929133858
11
3.8356299212598426
21
-4.0617540551181097
0
LINE
8
BLACK
6
CONTINUOUS
10
3.8356299212598426
20
-4.0617540551181097
11
3.8356299212598426
21
-4.0728346456692917
0
LINE
8
BLACK
6
CONTINUOUS
10
3.8356299212598426
20
-4.0728346456692917
11
3.8349556299212599
21
-4.0762245669291337
0
LINE
8
BLACK
6
CONTINUOUS
10
3.8349556299212599
20
-4.0762245669291337
11
3.8330353937007873
21
-4.0790983858267715
0
LINE
8
BLACK
6
CONTINUOUS
10
3.8330353937007873
20
-4.0790983858267715
11
3.8301615748031494
21
-4.0810186220472442
0
LINE
8
BLACK
6
CONTINUOUS
10
3.8301615748031494
20
-4.0810186220472442
11
3.826771653543307
21
-4.0816929133858268
0
LINE
8
BLACK
6
CONTINUOUS
10
3.826771653543307
20
-4.0816929133858268
11
3.8070866141732282
21
-4.0816929133858268
0
LINE
8
BLACK
6
CONTINUOUS
10
3.8070866141732282
20
-4.0816929133858268
11
3.8036966929133857
21
-4.0810186220472442
0
LINE
8
BLACK
6
CONTINUOUS
10
3.8036966929133857
20
-4.0810186220472442
11
3.8008228740157479
21
-4.0790983858267715
0
LINE
8
BLACK
6
CONTINUOUS
10
3.8008228740157479
20
-4.0790983858267715
11
3.7989026377952757
21
-4.0762245669291337
0
LINE
8
BLACK
6
CONTINUOUS
10
3.7989026377952757
20
-4.0762245669291337
11
3.7982283464566926
21
-4.0728346456692917
0
LINE
8
BLACK
6
CONTINUOUS
10
3.7982283464566926
20
-4.0728346456692917
11
3.7982283464566926
21
-4.0551181102362204
0
LINE
8
BLACK
6
CONTINUOUS
10
3.7982283464566926
20
-4.0551181102362204
11
3.7989026377952757
21
-4.0517281889763774
0
LINE
8
BLACK
6
CONTINUOUS
10
3.7989026377952757
20
-4.0517281889763774
11
3.8008228740157479
21
-4.0488543700787405
0
LINE
8
BLACK
6
CONTINUOUS
10
3.8008228740157479
20
-4.0488543700787405
11
3.8036966929133857
21
-4.0469341338582678
0
LINE
8
BLACK
6
CONTINUOUS
10
3.8036966929133857
20
-4.0469341338582678
11
3.8070866141732282
21
-4.0462598425196852
0
LINE
8
BLACK
6
CONTINUOUS
10
3.8070866141732282
20
-4.0462598425196852
11
3.826771653543307
21
-4.0462598425196852
0
LINE
8
BLACK
6
CONTINUOUS
10
3.826771653543307
20
-4.0462598425196852
11
3.8301615748031494
21
-4.0469341338582678
0
LINE
8
BLACK
6
CONTINUOUS
10
3.8301615748031494
20
-4.0469341338582678
11
3.8330353937007873
21
-4.0488543700787405
0
LINE
8
BLACK
6
CONTINUOUS
10
3.8330353937007873
20
-4.0488543700787405
11
3.8349556299212599
21
-4.0517281889763774
0
LINE
8
BLACK
6
CONTINUOUS
10
3.8349556299212599
20
-4.0517281889763774
11
3.835238346456693
21
-4.0531496062992129
0
LINE
8
BLACK
6
CONTINUOUS
10
3.835238346456693
20
-4.0531496062992129
11
3.8353885433070865
21
-4.0531496062992129
0
LINE
8
BLACK
6
CONTINUOUS
10
3.8353885433070865
20
-4.0531496062992129
11
3.8355447244094489
21
-4.0525667322834646
0
LINE
8
BLACK
6
CONTINUOUS
10
3.8355447244094489
20
-4.0525667322834646
11
3.837086377952756
21
-4.0498965354330707
0
LINE
8
BLACK
6
CONTINUOUS
10
3.837086377952756
20
-4.0498965354330707
11
3.8392666141732281
21
-4.0477162992125981
0
LINE
8
BLACK
6
CONTINUOUS
10
3.8392666141732281
20
-4.0477162992125981
11
3.8419368110236221
21
-4.0461746456692911
0
LINE
8
BLACK
6
CONTINUOUS
10
3.8419368110236221
20
-4.0461746456692911
11
3.8449150393700786
21
-4.0453766535433067
0
LINE
8
BLACK
6
CONTINUOUS
10
3.8449150393700786
20
-4.0453766535433067
11
3.8479983464566927
21
-4.0453766535433067
0
LINE
8
BLACK
6
CONTINUOUS
10
3.8479983464566927
20
-4.0453766535433067
11
3.8509765748031497
21
-4.0461746456692911
0
LINE
8
BLACK
6
CONTINUOUS
10
3.8509765748031497
20
-4.0461746456692911
11
3.8536467716535432
21
-4.0477162992125981
0
LINE
8
BLACK
6
CONTINUOUS
10
3.8536467716535432
20
-4.0477162992125981
11
3.8558270078740158
21
-4.0498965354330707
0
LINE
8
BLACK
6
CONTINUOUS
10
3.8558270078740158
20
-4.0498965354330707
11
3.8573686614173228
21
-4.0525667322834646
0
LINE
8
BLACK
6
CONTINUOUS
10
3.8573686614173228
20
-4.0525667322834646
11
3.8575248425196849
21
-4.0531496062992129
0
LINE
8
BLACK
6
CONTINUOUS
10
3.8575248425196849
20
-4.0531496062992129
11
3.8779527559055116
21
-4.0531496062992129
0
LINE
8
BLACK
6
CONTINUOUS
10
3.8779527559055116
20
-4.0531496062992129
11
3.8779527559055116
21
-3.9929866929133859
0
LINE
8
BLACK
6
CONTINUOUS
10
3.8779527559055116
20
-3.9929866929133859
11
3.7893700787401574
21
-3.9929866929133859
0
LINE
8
BLACK
6
CONTINUOUS
10
3.7893700787401574
20
-3.9929866929133859
11
3.7893700787401574
21
-4.0914419291338584
0
LINE
8
BLACK
6
CONTINUOUS
10
3.7893700787401574
20
-4.0914419291338584
11
3.7885950787401574
21
-4.09408125984252
0
LINE
8
BLACK
6
CONTINUOUS
10
3.7885950787401574
20
-4.09408125984252
11
3.7879402362204724
21
-4.0948939370078739
0
LINE
8
BLACK
6
CONTINUOUS
10
3.7879402362204724
20
-4.0948939370078739
11
3.7845287007874013
21
-4.0983054724409449
0
LINE
8
BLACK
6
CONTINUOUS
10
3.7845287007874013
20
-4.0983054724409449
11
3.7810236614173229
21
-4.1039879527559053
0
LINE
8
BLACK
6
CONTINUOUS
10
3.7810236614173229
20
-4.1039879527559053
11
3.7810234645669292
21
-4.1039883858267716
0
LINE
8
BLACK
6
CONTINUOUS
10
3.7810234645669292
20
-4.1039883858267716
11
3.7789232677165354
21
-4.1103263779527559
0
LINE
8
BLACK
6
CONTINUOUS
10
3.7789232677165354
20
-4.1103263779527559
11
3.7785236220472438
21
-4.1142380708661417
0
LINE
8
BLACK
6
CONTINUOUS
10
3.7785236220472438
20
-4.1142380708661417
11
3.7785236220472438
21
-4.1357612992125983
0
LINE
8
BLACK
6
CONTINUOUS
10
4.0688779527559058
20
-3.8562992519685038
11
4.0688779921259846
21
-3.8562999212598426
0
LINE
8
BLACK
6
CONTINUOUS
10
4.0688779921259846
20
-3.8562999212598426
11
4.0692913385826772
21
-3.8603462992125985
0
LINE
8
BLACK
6
CONTINUOUS
10
4.0692913385826772
20
-3.8603462992125985
11
4.069291377952756
21
-3.8603464173228343
0
LINE
8
BLACK
6
CONTINUOUS
10
4.069291377952756
20
-3.8603464173228343
11
4.0707323228346457
21
-3.8646948425196848
0
LINE
8
BLACK
6
CONTINUOUS
10
4.0707323228346457
20
-3.8646948425196848
11
4.0714640157480311
21
-3.8669029133858266
0
LINE
8
BLACK
6
CONTINUOUS
10
4.0714640157480311
20
-3.8669029133858266
11
4.0750900787401578
21
-3.8727817322834643
0
LINE
8
BLACK
6
CONTINUOUS
10
4.0750900787401578
20
-3.8727817322834643
11
4.0799741732283463
21
-3.8776658267716533
0
LINE
8
BLACK
6
CONTINUOUS
10
4.0799741732283463
20
-3.8776658267716533
11
4.0858529921259841
21
-3.8812918897637796
0
LINE
8
BLACK
6
CONTINUOUS
10
4.0858529921259841
20
-3.8812918897637796
11
4.0924095669291338
21
-3.8834645275590551
0
LINE
8
BLACK
6
CONTINUOUS
10
4.0924095669291338
20
-3.8834645275590551
11
4.0964563385826773
21
-3.8838779527559053
0
LINE
8
BLACK
6
CONTINUOUS
10
4.0964563385826773
20
-3.8838779527559053
11
4.1200790551181106
21
-3.8838779133858266
0
LINE
8
BLACK
6
CONTINUOUS
10
4.1200790551181106
20
-3.8838779133858266
11
4.1200793700787397
21
-3.8838778740157478
0
LINE
8
BLACK
6
CONTINUOUS
10
4.1200793700787397
20
-3.8838778740157478
11
4.120079488188976
21
-3.8838778740157478
0
LINE
8
BLACK
6
CONTINUOUS
10
4.120079488188976
20
-3.8838778740157478
11
4.1222953543307082
21
-3.883651496062992
0
LINE
8
BLACK
6
CONTINUOUS
10
4.1222953543307082
20
-3.883651496062992
11
4.1241258661417319
21
-3.8834645275590551
0
LINE
8
BLACK
6
CONTINUOUS
10
4.1241258661417319
20
-3.8834645275590551
11
4.1306824409448817
21
-3.8812918897637796
0
LINE
8
BLACK
6
CONTINUOUS
10
4.1306824409448817
20
-3.8812918897637796
11
4.1365612598425194
21
-3.8776658267716533
0
LINE
8
BLACK
6
CONTINUOUS
10
4.1365612598425194
20
-3.8776658267716533
11
4.1414453543307088
21
-3.8727817322834643
0
LINE
8
BLACK
6
CONTINUOUS
10
4.1414453543307088
20
-3.8727817322834643
11
4.1450714173228347
21
-3.8669029133858266
0
LINE
8
BLACK
6
CONTINUOUS
10
4.1450714173228347
20
-3.8669029133858266
11
4.1472440551181098
21
-3.8603463385826773
0
LINE
8
BLACK
6
CONTINUOUS
10
4.1472440551181098
20
-3.8603463385826773
11
4.1476574803149608
21
-3.8562995669291338
0
LINE
8
BLACK
6
CONTINUOUS
10
4.1476574803149608
20
-3.8562995669291338
11
4.1476574409448821
21
-3.7618107086614172
0
LINE
8
BLACK
6
CONTINUOUS
10
4.1476574409448821
20
-3.7618107086614172
11
4.1472440551181098
21
-3.7577638976377954
0
LINE
8
BLACK
6
CONTINUOUS
10
4.1472440551181098
20
-3.7577638976377954
11
4.1450714173228347
21
-3.7512073228346456
0
LINE
8
BLACK
6
CONTINUOUS
10
4.1450714173228347
20
-3.7512073228346456
11
4.1414453543307088
21
-3.7453285039370079
0
LINE
8
BLACK
6
CONTINUOUS
10
4.1414453543307088
20
-3.7453285039370079
11
4.1365612598425194
21
-3.740444409448819
0
LINE
8
BLACK
6
CONTINUOUS
10
4.1365612598425194
20
-3.740444409448819
11
4.1306824409448817
21
-3.7368183464566926
0
LINE
8
BLACK
6
CONTINUOUS
10
4.1306824409448817
20
-3.7368183464566926
11
4.1241258661417319
21
-3.7346457086614171
0
LINE
8
BLACK
6
CONTINUOUS
10
4.1241258661417319
20
-3.7346457086614171
11
4.1241257874015744
21
-3.7346456692913383
0
LINE
8
BLACK
6
CONTINUOUS
10
4.1241257874015744
20
-3.7346456692913383
11
4.1200791338582672
21
-3.7342322834645669
0
LINE
8
BLACK
6
CONTINUOUS
10
4.1200791338582672
20
-3.7342322834645669
11
4.0964566141732286
21
-3.7342322834645669
0
LINE
8
BLACK
6
CONTINUOUS
10
4.0964566141732286
20
-3.7342322834645669
11
4.096455905511811
21
-3.7342323228346457
0
LINE
8
BLACK
6
CONTINUOUS
10
4.096455905511811
20
-3.7342323228346457
11
4.0924095669291338
21
-3.7346456692913383
0
LINE
8
BLACK
6
CONTINUOUS
10
4.0924095669291338
20
-3.7346456692913383
11
4.0924094488188976
21
-3.7346457086614171
0
LINE
8
BLACK
6
CONTINUOUS
10
4.0924094488188976
20
-3.7346457086614171
11
4.0858530708661416
21
-3.7368183070866139
0
LINE
8
BLACK
6
CONTINUOUS
10
4.0858530708661416
20
-3.7368183070866139
11
4.0858528740157478
21
-3.7368183858267714
0
LINE
8
BLACK
6
CONTINUOUS
10
4.0858528740157478
20
-3.7368183858267714
11
4.0799740944881888
21
-3.7404444488188977
0
LINE
8
BLACK
6
CONTINUOUS
10
4.0799740944881888
20
-3.7404444488188977
11
4.0750901181102357
21
-3.7453284251968504
0
LINE
8
BLACK
6
CONTINUOUS
10
4.0750901181102357
20
-3.7453284251968504
11
4.0714640551181098
21
-3.7512072047244094
0
LINE
8
BLACK
6
CONTINUOUS
10
4.0714640551181098
20
-3.7512072047244094
11
4.0714640157480311
21
-3.7512073228346456
0
LINE
8
BLACK
6
CONTINUOUS
10
4.0714640157480311
20
-3.7512073228346456
11
4.069291377952756
21
-3.7577638976377954
0
LINE
8
BLACK
6
CONTINUOUS
10
4.069291377952756
20
-3.7577638976377954
11
4.069291377952756
21
-3.7577639370078741
0
LINE
8
BLACK
6
CONTINUOUS
10
4.069291377952756
20
-3.7577639370078741
11
4.0692913385826772
21
-3.7577639370078741
0
LINE
8
BLACK
6
CONTINUOUS
10
4.0692913385826772
20
-3.7577639370078741
11
4.0688779527559058
21
-3.7618103543307084
0
LINE
8
BLACK
6
CONTINUOUS
10
4.0688779527559058
20
-3.7618103543307084
11
4.0688779527559058
21
-3.8562992519685038
0
LINE
8
BLACK
6
CONTINUOUS
10
4.0096720866141728
20
-4.0509460629921259
11
4.0128652362204722
21
-4.0530796456692917
0
LINE
8
BLACK
6
CONTINUOUS
10
4.0128652362204722
20
-4.0530796456692917
11
4.014998818897638
21
-4.0562727952755901
0
LINE
8
BLACK
6
CONTINUOUS
10
4.014998818897638
20
-4.0562727952755901
11
4.015748031496063
21
-4.0600393700787398
0
LINE
8
BLACK
6
CONTINUOUS
10
4.015748031496063
20
-4.0600393700787398
11
4.015748031496063
21
-4.0748031496062991
0
LINE
8
BLACK
6
CONTINUOUS
10
4.015748031496063
20
-4.0748031496062991
11
4.0430376377952753
21
-4.0748031496062991
0
LINE
8
BLACK
6
CONTINUOUS
10
4.0430376377952753
20
-4.0748031496062991
11
4.0437792913385824
21
-4.0735185826771652
0
LINE
8
BLACK
6
CONTINUOUS
10
4.0437792913385824
20
-4.0735185826771652
11
4.045959527559055
21
-4.0713383464566926
0
LINE
8
BLACK
6
CONTINUOUS
10
4.045959527559055
20
-4.0713383464566926
11
4.0486297244094489
21
-4.0697966929133855
0
LINE
8
BLACK
6
CONTINUOUS
10
4.0486297244094489
20
-4.0697966929133855
11
4.051607952755905
21
-4.0689987007874011
0
LINE
8
BLACK
6
CONTINUOUS
10
4.051607952755905
20
-4.0689987007874011
11
4.05469125984252
21
-4.0689987007874011
0
LINE
8
BLACK
6
CONTINUOUS
10
4.05469125984252
20
-4.0689987007874011
11
4.0576694881889761
21
-4.0697966929133855
0
LINE
8
BLACK
6
CONTINUOUS
10
4.0576694881889761
20
-4.0697966929133855
11
4.06033968503937
21
-4.0713383464566926
0
LINE
8
BLACK
6
CONTINUOUS
10
4.06033968503937
20
-4.0713383464566926
11
4.0625199212598426
21
-4.0735185826771652
0
LINE
8
BLACK
6
CONTINUOUS
10
4.0625199212598426
20
-4.0735185826771652
11
4.0640615748031497
21
-4.0761887795275591
0
LINE
8
BLACK
6
CONTINUOUS
10
4.0640615748031497
20
-4.0761887795275591
11
4.0648595669291341
21
-4.0791670078740161
0
LINE
8
BLACK
6
CONTINUOUS
10
4.0648595669291341
20
-4.0791670078740161
11
4.0648595669291341
21
-4.0822503149606302
0
LINE
8
BLACK
6
CONTINUOUS
10
4.0648595669291341
20
-4.0822503149606302
11
4.0640615748031497
21
-4.0852285433070863
0
LINE
8
BLACK
6
CONTINUOUS
10
4.0640615748031497
20
-4.0852285433070863
11
4.0625199212598426
21
-4.0878987401574802
0
LINE
8
BLACK
6
CONTINUOUS
10
4.0625199212598426
20
-4.0878987401574802
11
4.06033968503937
21
-4.0900789763779528
0
LINE
8
BLACK
6
CONTINUOUS
10
4.06033968503937
20
-4.0900789763779528
11
4.0576694881889761
21
-4.0916206299212599
0
LINE
8
BLACK
6
CONTINUOUS
10
4.0576694881889761
20
-4.0916206299212599
11
4.05469125984252
21
-4.0924186220472443
0
LINE
8
BLACK
6
CONTINUOUS
10
4.05469125984252
20
-4.0924186220472443
11
4.051607952755905
21
-4.0924186220472443
0
LINE
8
BLACK
6
CONTINUOUS
10
4.051607952755905
20
-4.0924186220472443
11
4.0486297244094489
21
-4.0916206299212599
0
LINE
8
BLACK
6
CONTINUOUS
10
4.0486297244094489
20
-4.0916206299212599
11
4.045959527559055
21
-4.0900789763779528
0
LINE
8
BLACK
6
CONTINUOUS
10
4.045959527559055
20
-4.0900789763779528
11
4.0437792913385824
21
-4.0878987401574802
0
LINE
8
BLACK
6
CONTINUOUS
10
4.0437792913385824
20
-4.0878987401574802
11
4.0422376377952753
21
-4.0852285433070863
0
LINE
8
BLACK
6
CONTINUOUS
10
4.0422376377952753
20
-4.0852285433070863
11
4.041554015748031
21
-4.0826771653543306
0
LINE
8
BLACK
6
CONTINUOUS
10
4.041554015748031
20
-4.0826771653543306
11
4.015748031496063
21
-4.0826771653543306
0
LINE
8
BLACK
6
CONTINUOUS
10
4.015748031496063
20
-4.0826771653543306
11
4.015748031496063
21
-4.0974409448818898
0
LINE
8
BLACK
6
CONTINUOUS
10
4.015748031496063
20
-4.0974409448818898
11
4.014998818897638
21
-4.1012075196850395
0
LINE
8
BLACK
6
CONTINUOUS
10
4.014998818897638
20
-4.1012075196850395
11
4.0128652362204722
21
-4.1044006692913388
0
LINE
8
BLACK
6
CONTINUOUS
10
4.0128652362204722
20
-4.1044006692913388
11
4.0096720866141728
21
-4.1065342519685037
0
LINE
8
BLACK
6
CONTINUOUS
10
4.0096720866141728
20
-4.1065342519685037
11
4.0059055118110232
21
-4.1072834645669287
0
LINE
8
BLACK
6
CONTINUOUS
10
4.0059055118110232
20
-4.1072834645669287
11
3.9862204724409449
21
-4.1072834645669287
0
LINE
8
BLACK
6
CONTINUOUS
10
3.9862204724409449
20
-4.1072834645669287
11
3.9824538976377952
21
-4.1065342519685037
0
LINE
8
BLACK
6
CONTINUOUS
10
3.9824538976377952
20
-4.1065342519685037
11
3.9792607480314959
21
-4.1044006692913388
0
LINE
8
BLACK
6
CONTINUOUS
10
3.9792607480314959
20
-4.1044006692913388
11
3.9771271653543305
21
-4.1012075196850395
0
LINE
8
BLACK
6
CONTINUOUS
10
3.9771271653543305
20
-4.1012075196850395
11
3.9763779527559056
21
-4.0974409448818898
0
LINE
8
BLACK
6
CONTINUOUS
10
3.9763779527559056
20
-4.0974409448818898
11
3.9763779527559056
21
-4.0600393700787398
0
LINE
8
BLACK
6
CONTINUOUS
10
3.9763779527559056
20
-4.0600393700787398
11
3.9771271653543305
21
-4.0562727952755901
0
LINE
8
BLACK
6
CONTINUOUS
10
3.9771271653543305
20
-4.0562727952755901
11
3.9792607480314959
21
-4.0530796456692917
0
LINE
8
BLACK
6
CONTINUOUS
10
3.9792607480314959
20
-4.0530796456692917
11
3.9824538976377952
21
-4.0509460629921259
0
LINE
8
BLACK
6
CONTINUOUS
10
3.9824538976377952
20
-4.0509460629921259
11
3.9862204724409449
21
-4.0501968503937009
0
LINE
8
BLACK
6
CONTINUOUS
10
3.9862204724409449
20
-4.0501968503937009
11
4.0059055118110232
21
-4.0501968503937009
0
LINE
8
BLACK
6
CONTINUOUS
10
4.0059055118110232
20
-4.0501968503937009
11
4.0096720866141728
21
-4.0509460629921259
0
LINE
8
BLACK
6
CONTINUOUS
10
3.8959607480314959
20
-3.6441503149606298
11
3.8978766141732284
21
-3.6454304724409448
0
LINE
8
BLACK
6
CONTINUOUS
10
3.8978766141732284
20
-3.6454304724409448
11
3.8991567716535434
21
-3.6473463385826772
0
LINE
8
BLACK
6
CONTINUOUS
10
3.8991567716535434
20
-3.6473463385826772
11
3.8996062992125982
21
-3.6496062992125982
0
LINE
8
BLACK
6
CONTINUOUS
10
3.8996062992125982
20
-3.6496062992125982
11
3.8996062992125982
21
-3.704724409448819
0
LINE
8
BLACK
6
CONTINUOUS
10
3.8996062992125982
20
-3.704724409448819
11
3.8991567716535434
21
-3.7069843700787399
0
LINE
8
BLACK
6
CONTINUOUS
10
3.8991567716535434
20
-3.7069843700787399
11
3.8978766141732284
21
-3.7089002362204724
0
LINE
8
BLACK
6
CONTINUOUS
10
3.8978766141732284
20
-3.7089002362204724
11
3.8959607480314959
21
-3.7101803937007873
0
LINE
8
BLACK
6
CONTINUOUS
10
3.8959607480314959
20
-3.7101803937007873
11
3.8937007874015745
21
-3.7106299212598426
0
LINE
8
BLACK
6
CONTINUOUS
10
3.8937007874015745
20
-3.7106299212598426
11
3.8917322834645667
21
-3.7106299212598426
0
LINE
8
BLACK
6
CONTINUOUS
10
3.8917322834645667
20
-3.7106299212598426
11
3.8917322834645667
21
-3.8247471653543306
0
LINE
8
BLACK
6
CONTINUOUS
10
3.8917322834645667
20
-3.8247471653543306
11
3.9555397637795275
21
-3.8885546850393702
0
LINE
8
BLACK
6
CONTINUOUS
10
3.9555397637795275
20
-3.8885546850393702
11
3.9560294094488189
21
-3.8891512598425195
0
LINE
8
BLACK
6
CONTINUOUS
10
3.9560294094488189
20
-3.8891512598425195
11
3.9560294094488189
21
-3.8891512992125983
0
LINE
8
BLACK
6
CONTINUOUS
10
3.9560294094488189
20
-3.8891512992125983
11
3.956617283464567
21
-3.8905705118110236
0
LINE
8
BLACK
6
CONTINUOUS
10
3.956617283464567
20
-3.8905705118110236
11
3.9566929133858268
21
-3.8913385826771654
0
LINE
8
BLACK
6
CONTINUOUS
10
3.9566929133858268
20
-3.8913385826771654
11
3.9566929133858268
21
-3.9865581889763777
0
LINE
8
BLACK
6
CONTINUOUS
10
3.9566929133858268
20
-3.9865581889763777
11
3.9629179133858266
21
-3.9927832283464566
0
LINE
8
BLACK
6
CONTINUOUS
10
3.9629179133858266
20
-3.9927832283464566
11
3.9649937795275592
21
-3.9922270472440946
0
LINE
8
BLACK
6
CONTINUOUS
10
3.9649937795275592
20
-3.9922270472440946
11
3.9680770866141732
21
-3.9922270472440946
0
LINE
8
BLACK
6
CONTINUOUS
10
3.9680770866141732
20
-3.9922270472440946
11
3.9710553149606298
21
-3.9930250393700786
0
LINE
8
BLACK
6
CONTINUOUS
10
3.9710553149606298
20
-3.9930250393700786
11
3.9737255118110237
21
-3.9945666929133856
0
LINE
8
BLACK
6
CONTINUOUS
10
3.9737255118110237
20
-3.9945666929133856
11
3.9759057480314959
21
-3.9967469291338582
0
LINE
8
BLACK
6
CONTINUOUS
10
3.9759057480314959
20
-3.9967469291338582
11
3.9774474015748029
21
-3.9994171259842517
0
LINE
8
BLACK
6
CONTINUOUS
10
3.9774474015748029
20
-3.9994171259842517
11
3.9782453937007873
21
-4.0023953543307087
0
LINE
8
BLACK
6
CONTINUOUS
10
3.9782453937007873
20
-4.0023953543307087
11
3.9782453937007873
21
-4.0054786614173228
0
LINE
8
BLACK
6
CONTINUOUS
10
3.9782453937007873
20
-4.0054786614173228
11
3.9774474015748029
21
-4.0084568897637798
0
LINE
8
BLACK
6
CONTINUOUS
10
3.9774474015748029
20
-4.0084568897637798
11
3.9759057480314959
21
-4.0111270866141728
0
LINE
8
BLACK
6
CONTINUOUS
10
3.9759057480314959
20
-4.0111270866141728
11
3.9737255118110237
21
-4.0133073228346454
0
LINE
8
BLACK
6
CONTINUOUS
10
3.9737255118110237
20
-4.0133073228346454
11
3.9710553149606298
21
-4.0148489763779525
0
LINE
8
BLACK
6
CONTINUOUS
10
3.9710553149606298
20
-4.0148489763779525
11
3.9680770866141732
21
-4.0156469685039369
0
LINE
8
BLACK
6
CONTINUOUS
10
3.9680770866141732
20
-4.0156469685039369
11
3.9649937795275592
21
-4.0156469685039369
0
LINE
8
BLACK
6
CONTINUOUS
10
3.9649937795275592
20
-4.0156469685039369
11
3.9620155511811022
21
-4.0148489763779525
0
LINE
8
BLACK
6
CONTINUOUS
10
3.9620155511811022
20
-4.0148489763779525
11
3.9593453543307087
21
-4.0133073228346454
0
LINE
8
BLACK
6
CONTINUOUS
10
3.9593453543307087
20
-4.0133073228346454
11
3.9571651181102361
21
-4.0111270866141728
0
LINE
8
BLACK
6
CONTINUOUS
10
3.9571651181102361
20
-4.0111270866141728
11
3.955623464566929
21
-4.0084568897637798
0
LINE
8
BLACK
6
CONTINUOUS
10
3.955623464566929
20
-4.0084568897637798
11
3.9548254724409446
21
-4.0054786614173228
0
LINE
8
BLACK
6
CONTINUOUS
10
3.9548254724409446
20
-4.0054786614173228
11
3.9548254724409446
21
-4.0023953543307087
0
LINE
8
BLACK
6
CONTINUOUS
10
3.9548254724409446
20
-4.0023953543307087
11
3.955623464566929
21
-3.9994171259842517
0
LINE
8
BLACK
6
CONTINUOUS
10
3.955623464566929
20
-3.9994171259842517
11
3.9566457086614171
21
-3.9976465354330708
0
LINE
8
BLACK
6
CONTINUOUS
10
3.9566457086614171
20
-3.9976465354330708
11
3.9499720078740155
21
-3.990972874015748
0
LINE
8
BLACK
6
CONTINUOUS
10
3.9499720078740155
20
-3.990972874015748
11
3.9494824015748029
21
-3.9903762598425194
0
LINE
8
BLACK
6
CONTINUOUS
10
3.9494824015748029
20
-3.9903762598425194
11
3.9488945275590552
21
-3.9889570472440945
0
LINE
8
BLACK
6
CONTINUOUS
10
3.9488945275590552
20
-3.9889570472440945
11
3.9488188976377954
21
-3.9881889763779528
0
LINE
8
BLACK
6
CONTINUOUS
10
3.9488188976377954
20
-3.9881889763779528
11
3.9488188976377954
21
-3.8929693307086612
0
LINE
8
BLACK
6
CONTINUOUS
10
3.9488188976377954
20
-3.8929693307086612
11
3.8850113779527558
21
-3.8291618503937008
0
LINE
8
BLACK
6
CONTINUOUS
10
3.8850113779527558
20
-3.8291618503937008
11
3.8845217716535432
21
-3.8285652362204723
0
LINE
8
BLACK
6
CONTINUOUS
10
3.8845217716535432
20
-3.8285652362204723
11
3.8839338976377951
21
-3.8271460236220474
0
LINE
8
BLACK
6
CONTINUOUS
10
3.8839338976377951
20
-3.8271460236220474
11
3.8838582677165352
21
-3.8263779527559056
0
LINE
8
BLACK
6
CONTINUOUS
10
3.8838582677165352
20
-3.8263779527559056
11
3.8838582677165352
21
-3.7106299212598426
0
LINE
8
BLACK
6
CONTINUOUS
10
3.8838582677165352
20
-3.7106299212598426
11
3.8818897637795273
21
-3.7106299212598426
0
LINE
8
BLACK
6
CONTINUOUS
10
3.8818897637795273
20
-3.7106299212598426
11
3.8796298031496064
21
-3.7101803937007873
0
LINE
8
BLACK
6
CONTINUOUS
10
3.8796298031496064
20
-3.7101803937007873
11
3.8777139370078739
21
-3.7089002362204724
0
LINE
8
BLACK
6
CONTINUOUS
10
3.8777139370078739
20
-3.7089002362204724
11
3.876433779527559
21
-3.7069843700787399
0
LINE
8
BLACK
6
CONTINUOUS
10
3.876433779527559
20
-3.7069843700787399
11
3.8759842519685037
21
-3.704724409448819
0
LINE
8
BLACK
6
CONTINUOUS
10
3.8759842519685037
20
-3.704724409448819
11
3.8759842519685037
21
-3.6496062992125982
0
LINE
8
BLACK
6
CONTINUOUS
10
3.8759842519685037
20
-3.6496062992125982
11
3.876433779527559
21
-3.6473463385826772
0
LINE
8
BLACK
6
CONTINUOUS
10
3.876433779527559
20
-3.6473463385826772
11
3.8777139370078739
21
-3.6454304724409448
0
LINE
8
BLACK
6
CONTINUOUS
10
3.8777139370078739
20
-3.6454304724409448
11
3.8796298031496064
21
-3.6441503149606298
0
LINE
8
BLACK
6
CONTINUOUS
10
3.8796298031496064
20
-3.6441503149606298
11
3.8818897637795273
21
-3.6437007874015745
0
LINE
8
BLACK
6
CONTINUOUS
10
3.8818897637795273
20
-3.6437007874015745
11
3.8937007874015745
21
-3.6437007874015745
0
LINE
8
BLACK
6
CONTINUOUS
10
3.8937007874015745
20
-3.6437007874015745
11
3.8959607480314959
21
-3.6441503149606298
0
LINE
8
BLACK
6
CONTINUOUS
10
3.9451733464566927
20
-3.6441503149606298
11
3.9470892125984252
21
-3.6454304724409448
0
LINE
8
BLACK
6
CONTINUOUS
10
3.9470892125984252
20
-3.6454304724409448
11
3.9483693700787401
21
-3.6473463385826772
0
LINE
8
BLACK
6
CONTINUOUS
10
3.9483693700787401
20
-3.6473463385826772
11
3.9488188976377954
21
-3.6496062992125982
0
LINE
8
BLACK
6
CONTINUOUS
10
3.9488188976377954
20
-3.6496062992125982
11
3.9488188976377954
21
-3.704724409448819
0
LINE
8
BLACK
6
CONTINUOUS
10
3.9488188976377954
20
-3.704724409448819
11
3.9483693700787401
21
-3.7069843700787399
0
LINE
8
BLACK
6
CONTINUOUS
10
3.9483693700787401
20
-3.7069843700787399
11
3.9470892125984252
21
-3.7089002362204724
0
LINE
8
BLACK
6
CONTINUOUS
10
3.9470892125984252
20
-3.7089002362204724
11
3.9451733464566927
21
-3.7101803937007873
0
LINE
8
BLACK
6
CONTINUOUS
10
3.9451733464566927
20
-3.7101803937007873
11
3.9429133858267718
21
-3.7106299212598426
0
LINE
8
BLACK
6
CONTINUOUS
10
3.9429133858267718
20
-3.7106299212598426
11
3.9409448818897639
21
-3.7106299212598426
0
LINE
8
BLACK
6
CONTINUOUS
10
3.9409448818897639
20
-3.7106299212598426
11
3.9409448818897639
21
-3.851632992125984
0
LINE
8
BLACK
6
CONTINUOUS
10
3.9409448818897639
20
-3.851632992125984
11
3.9830988582677165
21
-3.893786968503937
0
LINE
8
BLACK
6
CONTINUOUS
10
3.9830988582677165
20
-3.893786968503937
11
3.9835884645669291
21
-3.8943835826771651
0
LINE
8
BLACK
6
CONTINUOUS
10
3.9835884645669291
20
-3.8943835826771651
11
3.9841763385826772
21
-3.8958027952755905
0
LINE
8
BLACK
6
CONTINUOUS
10
3.9841763385826772
20
-3.8958027952755905
11
3.984251968503937
21
-3.8965708661417322
0
LINE
8
BLACK
6
CONTINUOUS
10
3.984251968503937
20
-3.8965708661417322
11
3.984251968503937
21
-3.9377507480314962
0
LINE
8
BLACK
6
CONTINUOUS
10
3.984251968503937
20
-3.9377507480314962
11
3.9848348425196849
21
-3.9379069291338582
0
LINE
8
BLACK
6
CONTINUOUS
10
3.9848348425196849
20
-3.9379069291338582
11
3.9875050393700788
21
-3.9394485826771652
0
LINE
8
BLACK
6
CONTINUOUS
10
3.9875050393700788
20
-3.9394485826771652
11
3.989685275590551
21
-3.9416288188976378
0
LINE
8
BLACK
6
CONTINUOUS
10
3.989685275590551
20
-3.9416288188976378
11
3.991226929133858
21
-3.9442990157480313
0
LINE
8
BLACK
6
CONTINUOUS
10
3.991226929133858
20
-3.9442990157480313
11
3.9920249212598424
21
-3.9472772440944879
0
LINE
8
BLACK
6
CONTINUOUS
10
3.9920249212598424
20
-3.9472772440944879
11
3.9920249212598424
21
-3.9503605511811024
0
LINE
8
BLACK
6
CONTINUOUS
10
3.9920249212598424
20
-3.9503605511811024
11
3.991226929133858
21
-3.953338779527559
0
LINE
8
BLACK
6
CONTINUOUS
10
3.991226929133858
20
-3.953338779527559
11
3.989685275590551
21
-3.9560089763779525
0
LINE
8
BLACK
6
CONTINUOUS
10
3.989685275590551
20
-3.9560089763779525
11
3.9875050393700788
21
-3.958189212598425
0
LINE
8
BLACK
6
CONTINUOUS
10
3.9875050393700788
20
-3.958189212598425
11
3.9848348425196849
21
-3.9597308661417321
0
LINE
8
BLACK
6
CONTINUOUS
10
3.9848348425196849
20
-3.9597308661417321
11
3.9818566141732283
21
-3.9605288582677165
0
LINE
8
BLACK
6
CONTINUOUS
10
3.9818566141732283
20
-3.9605288582677165
11
3.9787733070866143
21
-3.9605288582677165
0
LINE
8
BLACK
6
CONTINUOUS
10
3.9787733070866143
20
-3.9605288582677165
11
3.9757950787401573
21
-3.9597308661417321
0
LINE
8
BLACK
6
CONTINUOUS
10
3.9757950787401573
20
-3.9597308661417321
11
3.9731248818897638
21
-3.958189212598425
0
LINE
8
BLACK
6
CONTINUOUS
10
3.9731248818897638
20
-3.958189212598425
11
3.9709446456692912
21
-3.9560089763779525
0
LINE
8
BLACK
6
CONTINUOUS
10
3.9709446456692912
20
-3.9560089763779525
11
3.9694029921259841
21
-3.953338779527559
0
LINE
8
BLACK
6
CONTINUOUS
10
3.9694029921259841
20
-3.953338779527559
11
3.9686049999999997
21
-3.9503605511811024
0
LINE
8
BLACK
6
CONTINUOUS
10
3.9686049999999997
20
-3.9503605511811024
11
3.9686049999999997
21
-3.9472772440944879
0
LINE
8
BLACK
6
CONTINUOUS
10
3.9686049999999997
20
-3.9472772440944879
11
3.9694029921259841
21
-3.9442990157480313
0
LINE
8
BLACK
6
CONTINUOUS
10
3.9694029921259841
20
-3.9442990157480313
11
3.9705480708661418
21
-3.9423156692913386
0
LINE
8
BLACK
6
CONTINUOUS
10
3.9705480708661418
20
-3.9423156692913386
11
3.9705480708661418
21
-3.94214531496063
0
LINE
8
BLACK
6
CONTINUOUS
10
3.9705480708661418
20
-3.94214531496063
11
3.9711359448818895
21
-3.9407261023622047
0
LINE
8
BLACK
6
CONTINUOUS
10
3.9711359448818895
20
-3.9407261023622047
11
3.9722221653543306
21
-3.9396398818897636
0
LINE
8
BLACK
6
CONTINUOUS
10
3.9722221653543306
20
-3.9396398818897636
11
3.973641377952756
21
-3.9390520078740154
0
LINE
8
BLACK
6
CONTINUOUS
10
3.973641377952756
20
-3.9390520078740154
11
3.9738117716535433
21
-3.9390520078740154
0
LINE
8
BLACK
6
CONTINUOUS
10
3.9738117716535433
20
-3.9390520078740154
11
3.9757950787401573
21
-3.9379069291338582
0
LINE
8
BLACK
6
CONTINUOUS
10
3.9757950787401573
20
-3.9379069291338582
11
3.9763779527559056
21
-3.9377507480314962
0
LINE
8
BLACK
6
CONTINUOUS
10
3.9763779527559056
20
-3.9377507480314962
11
3.9763779527559056
21
-3.8982016535433068
0
LINE
8
BLACK
6
CONTINUOUS
10
3.9763779527559056
20
-3.8982016535433068
11
3.9342239763779525
21
-3.8560476771653542
0
LINE
8
BLACK
6
CONTINUOUS
10
3.9342239763779525
20
-3.8560476771653542
11
3.9337343700787399
21
-3.8554510629921257
0
LINE
8
BLACK
6
CONTINUOUS
10
3.9337343700787399
20
-3.8554510629921257
11
3.9331464960629918
21
-3.8540318503937008
0
LINE
8
BLACK
6
CONTINUOUS
10
3.9331464960629918
20
-3.8540318503937008
11
3.9330708661417324
21
-3.8532637795275591
0
LINE
8
BLACK
6
CONTINUOUS
10
3.9330708661417324
20
-3.8532637795275591
11
3.9330708661417324
21
-3.7106299212598426
0
LINE
8
BLACK
6
CONTINUOUS
10
3.9330708661417324
20
-3.7106299212598426
11
3.9311023622047245
21
-3.7106299212598426
0
LINE
8
BLACK
6
CONTINUOUS
10
3.9311023622047245
20
-3.7106299212598426
11
3.9288424015748031
21
-3.7101803937007873
0
LINE
8
BLACK
6
CONTINUOUS
10
3.9288424015748031
20
-3.7101803937007873
11
3.9269265354330707
21
-3.7089002362204724
0
LINE
8
BLACK
6
CONTINUOUS
10
3.9269265354330707
20
-3.7089002362204724
11
3.9256463779527557
21
-3.7069843700787399
0
LINE
8
BLACK
6
CONTINUOUS
10
3.9256463779527557
20
-3.7069843700787399
11
3.9251968503937005
21
-3.704724409448819
0
LINE
8
BLACK
6
CONTINUOUS
10
3.9251968503937005
20
-3.704724409448819
11
3.9251968503937005
21
-3.6496062992125982
0
LINE
8
BLACK
6
CONTINUOUS
10
3.9251968503937005
20
-3.6496062992125982
11
3.9256463779527557
21
-3.6473463385826772
0
LINE
8
BLACK
6
CONTINUOUS
10
3.9256463779527557
20
-3.6473463385826772
11
3.9269265354330707
21
-3.6454304724409448
0
LINE
8
BLACK
6
CONTINUOUS
10
3.9269265354330707
20
-3.6454304724409448
11
3.9288424015748031
21
-3.6441503149606298
0
LINE
8
BLACK
6
CONTINUOUS
10
3.9288424015748031
20
-3.6441503149606298
11
3.9311023622047245
21
-3.6437007874015745
0
LINE
8
BLACK
6
CONTINUOUS
10
3.9311023622047245
20
-3.6437007874015745
11
3.9429133858267718
21
-3.6437007874015745
0
LINE
8
BLACK
6
CONTINUOUS
10
3.9429133858267718
20
-3.6437007874015745
11
3.9451733464566927
21
-3.6441503149606298
0
LINE
8
BLACK
6
CONTINUOUS
10
3.779357125984252
20
-3.7546862204724407
11
3.7825502755905509
21
-3.7568198031496061
0
LINE
8
BLACK
6
CONTINUOUS
10
3.7825502755905509
20
-3.7568198031496061
11
3.7846838582677162
21
-3.7600129527559054
0
LINE
8
BLACK
6
CONTINUOUS
10
3.7846838582677162
20
-3.7600129527559054
11
3.7854330708661417
21
-3.7637795275590551
0
LINE
8
BLACK
6
CONTINUOUS
10
3.7854330708661417
20
-3.7637795275590551
11
3.7854330708661417
21
-3.8543307086614171
0
LINE
8
BLACK
6
CONTINUOUS
10
3.7854330708661417
20
-3.8543307086614171
11
3.7846838582677162
21
-3.8580972834645668
0
LINE
8
BLACK
6
CONTINUOUS
10
3.7846838582677162
20
-3.8580972834645668
11
3.7825502755905509
21
-3.8612904330708662
0
LINE
8
BLACK
6
CONTINUOUS
10
3.7825502755905509
20
-3.8612904330708662
11
3.779357125984252
21
-3.8634240157480315
0
LINE
8
BLACK
6
CONTINUOUS
10
3.779357125984252
20
-3.8634240157480315
11
3.7755905511811023
21
-3.8641732283464565
0
LINE
8
BLACK
6
CONTINUOUS
10
3.7755905511811023
20
-3.8641732283464565
11
3.7559055118110236
21
-3.8641732283464565
0
LINE
8
BLACK
6
CONTINUOUS
10
3.7559055118110236
20
-3.8641732283464565
11
3.7521389370078739
21
-3.8634240157480315
0
LINE
8
BLACK
6
CONTINUOUS
10
3.7521389370078739
20
-3.8634240157480315
11
3.7489457874015746
21
-3.8612904330708662
0
LINE
8
BLACK
6
CONTINUOUS
10
3.7489457874015746
20
-3.8612904330708662
11
3.7468122047244092
21
-3.8580972834645668
0
LINE
8
BLACK
6
CONTINUOUS
10
3.7468122047244092
20
-3.8580972834645668
11
3.7460629921259843
21
-3.8543307086614171
0
LINE
8
BLACK
6
CONTINUOUS
10
3.7460629921259843
20
-3.8543307086614171
11
3.7460629921259843
21
-3.7637795275590551
0
LINE
8
BLACK
6
CONTINUOUS
10
3.7460629921259843
20
-3.7637795275590551
11
3.7468122047244092
21
-3.7600129527559054
0
LINE
8
BLACK
6
CONTINUOUS
10
3.7468122047244092
20
-3.7600129527559054
11
3.7489457874015746
21
-3.7568198031496061
0
LINE
8
BLACK
6
CONTINUOUS
10
3.7489457874015746
20
-3.7568198031496061
11
3.7521389370078739
21
-3.7546862204724407
0
LINE
8
BLACK
6
CONTINUOUS
10
3.7521389370078739
20
-3.7546862204724407
11
3.7559055118110236
21
-3.7539370078740157
0
LINE
8
BLACK
6
CONTINUOUS
10
3.7559055118110236
20
-3.7539370078740157
11
3.7755905511811023
21
-3.7539370078740157
0
LINE
8
BLACK
6
CONTINUOUS
10
3.7755905511811023
20
-3.7539370078740157
11
3.779357125984252
21
-3.7546862204724407
0
LINE
8
BLACK
6
CONTINUOUS
10
3.9943859448818895
20
-3.6441503149606298
11
3.9963018110236219
21
-3.6454304724409448
0
LINE
8
BLACK
6
CONTINUOUS
10
3.9963018110236219
20
-3.6454304724409448
11
3.9975819685039369
21
-3.6473463385826772
0
LINE
8
BLACK
6
CONTINUOUS
10
3.9975819685039369
20
-3.6473463385826772
11
3.9980314960629921
21
-3.6496062992125982
0
LINE
8
BLACK
6
CONTINUOUS
10
3.9980314960629921
20
-3.6496062992125982
11
3.9980314960629921
21
-3.704724409448819
0
LINE
8
BLACK
6
CONTINUOUS
10
3.9980314960629921
20
-3.704724409448819
11
3.9975819685039369
21
-3.7069843700787399
0
LINE
8
BLACK
6
CONTINUOUS
10
3.9975819685039369
20
-3.7069843700787399
11
3.9963018110236219
21
-3.7089002362204724
0
LINE
8
BLACK
6
CONTINUOUS
10
3.9963018110236219
20
-3.7089002362204724
11
3.9943859448818895
21
-3.7101803937007873
0
LINE
8
BLACK
6
CONTINUOUS
10
3.9943859448818895
20
-3.7101803937007873
11
3.9921259842519685
21
-3.7106299212598426
0
LINE
8
BLACK
6
CONTINUOUS
10
3.9921259842519685
20
-3.7106299212598426
11
3.9901574803149606
21
-3.7106299212598426
0
LINE
8
BLACK
6
CONTINUOUS
10
3.9901574803149606
20
-3.7106299212598426
11
3.9901574803149606
21
-3.752183937007874
0
LINE
8
BLACK
6
CONTINUOUS
10
3.9901574803149606
20
-3.752183937007874
11
3.9927088582677164
21
-3.7528675590551179
0
LINE
8
BLACK
6
CONTINUOUS
10
3.9927088582677164
20
-3.7528675590551179
11
3.9953790551181103
21
-3.754409212598425
0
LINE
8
BLACK
6
CONTINUOUS
10
3.9953790551181103
20
-3.754409212598425
11
3.9975592913385825
21
-3.7565894488188976
0
LINE
8
BLACK
6
CONTINUOUS
10
3.9975592913385825
20
-3.7565894488188976
11
3.9991009448818895
21
-3.7592596456692911
0
LINE
8
BLACK
6
CONTINUOUS
10
3.9991009448818895
20
-3.7592596456692911
11
3.9998989370078739
21
-3.7622378740157481
0
LINE
8
BLACK
6
CONTINUOUS
10
3.9998989370078739
20
-3.7622378740157481
11
3.9998989370078739
21
-3.7653211811023621
0
LINE
8
BLACK
6
CONTINUOUS
10
3.9998989370078739
20
-3.7653211811023621
11
3.9991009448818895
21
-3.7682994094488187
0
LINE
8
BLACK
6
CONTINUOUS
10
3.9991009448818895
20
-3.7682994094488187
11
3.9975592913385825
21
-3.7709696062992126
0
LINE
8
BLACK
6
CONTINUOUS
10
3.9975592913385825
20
-3.7709696062992126
11
3.9953790551181103
21
-3.7731498425196848
0
LINE
8
BLACK
6
CONTINUOUS
10
3.9953790551181103
20
-3.7731498425196848
11
3.9927088582677164
21
-3.7746914960629923
0
LINE
8
BLACK
6
CONTINUOUS
10
3.9927088582677164
20
-3.7746914960629923
11
3.9897306299212598
21
-3.7754894881889762
0
LINE
8
BLACK
6
CONTINUOUS
10
3.9897306299212598
20
-3.7754894881889762
11
3.9866473228346457
21
-3.7754894881889762
0
LINE
8
BLACK
6
CONTINUOUS
10
3.9866473228346457
20
-3.7754894881889762
11
3.9836690944881887
21
-3.7746914960629923
0
LINE
8
BLACK
6
CONTINUOUS
10
3.9836690944881887
20
-3.7746914960629923
11
3.9809988976377952
21
-3.7731498425196848
0
LINE
8
BLACK
6
CONTINUOUS
10
3.9809988976377952
20
-3.7731498425196848
11
3.9788186614173227
21
-3.7709696062992126
0
LINE
8
BLACK
6
CONTINUOUS
10
3.9788186614173227
20
-3.7709696062992126
11
3.9772770078740156
21
-3.7682994094488187
0
LINE
8
BLACK
6
CONTINUOUS
10
3.9772770078740156
20
-3.7682994094488187
11
3.9764790157480312
21
-3.7653211811023621
0
LINE
8
BLACK
6
CONTINUOUS
10
3.9764790157480312
20
-3.7653211811023621
11
3.9764790157480312
21
-3.7622378740157481
0
LINE
8
BLACK
6
CONTINUOUS
10
3.9764790157480312
20
-3.7622378740157481
11
3.9772770078740156
21
-3.7592596456692911
0
LINE
8
BLACK
6
CONTINUOUS
10
3.9772770078740156
20
-3.7592596456692911
11
3.9788186614173227
21
-3.7565894488188976
0
LINE
8
BLACK
6
CONTINUOUS
10
3.9788186614173227
20
-3.7565894488188976
11
3.9809988976377952
21
-3.754409212598425
0
LINE
8
BLACK
6
CONTINUOUS
10
3.9809988976377952
20
-3.754409212598425
11
3.9822834645669292
21
-3.7536675590551178
0
LINE
8
BLACK
6
CONTINUOUS
10
3.9822834645669292
20
-3.7536675590551178
11
3.9822834645669292
21
-3.7106299212598426
0
LINE
8
BLACK
6
CONTINUOUS
10
3.9822834645669292
20
-3.7106299212598426
11
3.9803149606299213
21
-3.7106299212598426
0
LINE
8
BLACK
6
CONTINUOUS
10
3.9803149606299213
20
-3.7106299212598426
11
3.9780549999999999
21
-3.7101803937007873
0
LINE
8
BLACK
6
CONTINUOUS
10
3.9780549999999999
20
-3.7101803937007873
11
3.9761391338582674
21
-3.7089002362204724
0
LINE
8
BLACK
6
CONTINUOUS
10
3.9761391338582674
20
-3.7089002362204724
11
3.9748589763779525
21
-3.7069843700787399
0
LINE
8
BLACK
6
CONTINUOUS
10
3.9748589763779525
20
-3.7069843700787399
11
3.9744094488188977
21
-3.704724409448819
0
LINE
8
BLACK
6
CONTINUOUS
10
3.9744094488188977
20
-3.704724409448819
11
3.9744094488188977
21
-3.6496062992125982
0
LINE
8
BLACK
6
CONTINUOUS
10
3.9744094488188977
20
-3.6496062992125982
11
3.9748589763779525
21
-3.6473463385826772
0
LINE
8
BLACK
6
CONTINUOUS
10
3.9748589763779525
20
-3.6473463385826772
11
3.9761391338582674
21
-3.6454304724409448
0
LINE
8
BLACK
6
CONTINUOUS
10
3.9761391338582674
20
-3.6454304724409448
11
3.9780549999999999
21
-3.6441503149606298
0
LINE
8
BLACK
6
CONTINUOUS
10
3.9780549999999999
20
-3.6441503149606298
11
3.9803149606299213
21
-3.6437007874015745
0
LINE
8
BLACK
6
CONTINUOUS
10
3.9803149606299213
20
-3.6437007874015745
11
3.9921259842519685
21
-3.6437007874015745
0
LINE
8
BLACK
6
CONTINUOUS
10
3.9921259842519685
20
-3.6437007874015745
11
3.9943859448818895
21
-3.6441503149606298
0
LINE
8
BLACK
6
CONTINUOUS
10
3.8467481496062992
20
-3.6441503149606298
11
3.8486640157480316
21
-3.6454304724409448
0
LINE
8
BLACK
6
CONTINUOUS
10
3.8486640157480316
20
-3.6454304724409448
11
3.8499441732283466
21
-3.6473463385826772
0
LINE
8
BLACK
6
CONTINUOUS
10
3.8499441732283466
20
-3.6473463385826772
11
3.8503937007874014
21
-3.6496062992125982
0
LINE
8
BLACK
6
CONTINUOUS
10
3.8503937007874014
20
-3.6496062992125982
11
3.8503937007874014
21
-3.704724409448819
0
LINE
8
BLACK
6
CONTINUOUS
10
3.8503937007874014
20
-3.704724409448819
11
3.8499441732283466
21
-3.7069843700787399
0
LINE
8
BLACK
6
CONTINUOUS
10
3.8499441732283466
20
-3.7069843700787399
11
3.8486640157480316
21
-3.7089002362204724
0
LINE
8
BLACK
6
CONTINUOUS
10
3.8486640157480316
20
-3.7089002362204724
11
3.8467481496062992
21
-3.7101803937007873
0
LINE
8
BLACK
6
CONTINUOUS
10
3.8467481496062992
20
-3.7101803937007873
11
3.8444881889763778
21
-3.7106299212598426
0
LINE
8
BLACK
6
CONTINUOUS
10
3.8444881889763778
20
-3.7106299212598426
11
3.8425196850393699
21
-3.7106299212598426
0
LINE
8
BLACK
6
CONTINUOUS
10
3.8425196850393699
20
-3.7106299212598426
11
3.8425196850393699
21
-3.7477620472440942
0
LINE
8
BLACK
6
CONTINUOUS
10
3.8425196850393699
20
-3.7477620472440942
11
3.8438042519685038
21
-3.7485037007874014
0
LINE
8
BLACK
6
CONTINUOUS
10
3.8438042519685038
20
-3.7485037007874014
11
3.8459844881889764
21
-3.7506839370078739
0
LINE
8
BLACK
6
CONTINUOUS
10
3.8459844881889764
20
-3.7506839370078739
11
3.8475261417322835
21
-3.7533541338582674
0
LINE
8
BLACK
6
CONTINUOUS
10
3.8475261417322835
20
-3.7533541338582674
11
3.8483241338582674
21
-3.7563323622047244
0
LINE
8
BLACK
6
CONTINUOUS
10
3.8483241338582674
20
-3.7563323622047244
11
3.8483241338582674
21
-3.7594156692913385
0
LINE
8
BLACK
6
CONTINUOUS
10
3.8483241338582674
20
-3.7594156692913385
11
3.8475261417322835
21
-3.7623938976377951
0
LINE
8
BLACK
6
CONTINUOUS
10
3.8475261417322835
20
-3.7623938976377951
11
3.8459844881889764
21
-3.765064094488189
0
LINE
8
BLACK
6
CONTINUOUS
10
3.8459844881889764
20
-3.765064094488189
11
3.8438042519685038
21
-3.7672443307086612
0
LINE
8
BLACK
6
CONTINUOUS
10
3.8438042519685038
20
-3.7672443307086612
11
3.8411340551181103
21
-3.7687859842519682
0
LINE
8
BLACK
6
CONTINUOUS
10
3.8411340551181103
20
-3.7687859842519682
11
3.8381558267716533
21
-3.7695839763779526
0
LINE
8
BLACK
6
CONTINUOUS
10
3.8381558267716533
20
-3.7695839763779526
11
3.8350725196850393
21
-3.7695839763779526
0
LINE
8
BLACK
6
CONTINUOUS
10
3.8350725196850393
20
-3.7695839763779526
11
3.8320942913385827
21
-3.7687859842519682
0
LINE
8
BLACK
6
CONTINUOUS
10
3.8320942913385827
20
-3.7687859842519682
11
3.8294240944881888
21
-3.7672443307086612
0
LINE
8
BLACK
6
CONTINUOUS
10
3.8294240944881888
20
-3.7672443307086612
11
3.8272438582677166
21
-3.765064094488189
0
LINE
8
BLACK
6
CONTINUOUS
10
3.8272438582677166
20
-3.765064094488189
11
3.8257022047244096
21
-3.7623938976377951
0
LINE
8
BLACK
6
CONTINUOUS
10
3.8257022047244096
20
-3.7623938976377951
11
3.8249042125984252
21
-3.7594156692913385
0
LINE
8
BLACK
6
CONTINUOUS
10
3.8249042125984252
20
-3.7594156692913385
11
3.8249042125984252
21
-3.7563323622047244
0
LINE
8
BLACK
6
CONTINUOUS
10
3.8249042125984252
20
-3.7563323622047244
11
3.8257022047244096
21
-3.7533541338582674
0
LINE
8
BLACK
6
CONTINUOUS
10
3.8257022047244096
20
-3.7533541338582674
11
3.8272438582677166
21
-3.7506839370078739
0
LINE
8
BLACK
6
CONTINUOUS
10
3.8272438582677166
20
-3.7506839370078739
11
3.8294240944881888
21
-3.7485037007874014
0
LINE
8
BLACK
6
CONTINUOUS
10
3.8294240944881888
20
-3.7485037007874014
11
3.8320942913385827
21
-3.7469620472440943
0
LINE
8
BLACK
6
CONTINUOUS
10
3.8320942913385827
20
-3.7469620472440943
11
3.8346456692913384
21
-3.7462784251968504
0
LINE
8
BLACK
6
CONTINUOUS
10
3.8346456692913384
20
-3.7462784251968504
11
3.8346456692913384
21
-3.7106299212598426
0
LINE
8
BLACK
6
CONTINUOUS
10
3.8346456692913384
20
-3.7106299212598426
11
3.8326771653543306
21
-3.7106299212598426
0
LINE
8
BLACK
6
CONTINUOUS
10
3.8326771653543306
20
-3.7106299212598426
11
3.8304172047244092
21
-3.7101803937007873
0
LINE
8
BLACK
6
CONTINUOUS
10
3.8304172047244092
20
-3.7101803937007873
11
3.8285013385826772
21
-3.7089002362204724
0
LINE
8
BLACK
6
CONTINUOUS
10
3.8285013385826772
20
-3.7089002362204724
11
3.8272211811023622
21
-3.7069843700787399
0
LINE
8
BLACK
6
CONTINUOUS
10
3.8272211811023622
20
-3.7069843700787399
11
3.826771653543307
21
-3.704724409448819
0
LINE
8
BLACK
6
CONTINUOUS
10
3.826771653543307
20
-3.704724409448819
11
3.826771653543307
21
-3.6496062992125982
0
LINE
8
BLACK
6
CONTINUOUS
10
3.826771653543307
20
-3.6496062992125982
11
3.8272211811023622
21
-3.6473463385826772
0
LINE
8
BLACK
6
CONTINUOUS
10
3.8272211811023622
20
-3.6473463385826772
11
3.8285013385826772
21
-3.6454304724409448
0
LINE
8
BLACK
6
CONTINUOUS
10
3.8285013385826772
20
-3.6454304724409448
11
3.8304172047244092
21
-3.6441503149606298
0
LINE
8
BLACK
6
CONTINUOUS
10
3.8304172047244092
20
-3.6441503149606298
11
3.8326771653543306
21
-3.6437007874015745
0
LINE
8
BLACK
6
CONTINUOUS
10
3.8326771653543306
20
-3.6437007874015745
11
3.8444881889763778
21
-3.6437007874015745
0
LINE
8
BLACK
6
CONTINUOUS
10
3.8444881889763778
20
-3.6437007874015745
11
3.8467481496062992
21
-3.6441503149606298
0
CIRCLE
8
BLACK
10
3.8464566929133857
20
-4.0570866141732287
40
0.0059055118110236
0
CIRCLE
8
BLACK
10
4.0531496062992129
20
-4.0807086614173231
40
0.0059055118110236
0
CIRCLE
8
BLACK
10
3.8366141732283463
20
-3.7578740157480315
40
0.0059055118110236
0
CIRCLE
8
BLACK
10
3.8464566929133857
20
-4.1358267716535435
40
0.0059055118110236
0
CIRCLE
8
BLACK
10
3.9881889763779528
20
-3.7637795275590551
40
0.0059055118110236
0
CIRCLE
8
BLACK
10
3.9803149606299213
20
-3.9488188976377954
40
0.0059055118110236
0
CIRCLE
8
BLACK
10
3.9665354330708662
20
-4.0039370078740157
40
0.0059055118110236
  0
ENDSEC
  0
EOF
