  0
SECTION
  2
HEADER
  9
$ANGBASE
  50
0.0
  9
$ANGDIR
  70
1
  9
$MEASUREMENT
  70
0
  0
ENDSEC
  0
SECTION
  2
TABLES
  0
TABLE
  2
LTYPE
  70
4
  0
LTYPE
  5
40F
  2
CONTINUOUS
  70
0
  3
Solid line
  72
65
  73
0
  40
0.0
  0
LTYPE
  5
410
  2
DASHDOT
 70
0
  3
Dash Dot ____ _ ____ _
 72
65
 73
4
 40
2.0
 49
1.25
 49
-0.25
 49
0.25
 49
-0.25
  0
LTYPE
  5
411
  2
DASHED
 70
0
  3
Dashed __ __ __ __ __
 72
65
 73
2
 40
0.75
 49
0.5
 49
-0.25
  0
LTYPE
  5
43B
  2
DOTTED
 70
0
  3
Dotted .  .  .  .
 72
65
 73
2
 40
0.2
 49
0.0
 49
-0.2
  0
ENDTAB
  0
TABLE
  2
STYLE
  70
4
  0
STYLE
  2
KICAD
  70
0
  40
0
  41
1
  42
1
  50
0
  71
0
  3
isocp.shx
  0
STYLE
  2
KICADB
  70
0
  40
0
  41
1
  42
1
  50
0
  71
0
  3
isocp.shx
  0
STYLE
  2
KICADI
  70
0
  40
0
  41
1
  42
1
  50
15
  71
0
  3
isocp.shx
  0
STYLE
  2
KICADBI
  70
0
  40
0
  41
1
  42
1
  50
15
  71
0
  3
isocp.shx
  0
ENDTAB
  0
TABLE
  2
LAYER
  70
1
  0
LAYER
  2
BLACK
  70
0
  62
7
  6
CONTINUOUS
  0
ENDTAB
  0
ENDSEC
  0
SECTION
  2
ENTITIES
0
LINE
8
BLACK
6
CONTINUOUS
10
3.8664331889763779
20
-4.0006463779527559
11
3.8683490551181103
21
-4.0019265354330704
0
LINE
8
BLACK
6
CONTINUOUS
10
3.8683490551181103
20
-4.0019265354330704
11
3.8696292125984253
21
-4.0038424015748033
0
LINE
8
BLACK
6
CONTINUOUS
10
3.8696292125984253
20
-4.0038424015748033
11
3.8700787401574801
21
-4.0061023622047243
0
LINE
8
BLACK
6
CONTINUOUS
10
3.8700787401574801
20
-4.0061023622047243
11
3.8700787401574801
21
-4.0179133858267715
0
LINE
8
BLACK
6
CONTINUOUS
10
3.8700787401574801
20
-4.0179133858267715
11
3.8696292125984253
21
-4.0201733464566924
0
LINE
8
BLACK
6
CONTINUOUS
10
3.8696292125984253
20
-4.0201733464566924
11
3.8683490551181103
21
-4.0220892125984253
0
LINE
8
BLACK
6
CONTINUOUS
10
3.8683490551181103
20
-4.0220892125984253
11
3.8664331889763779
21
-4.0233693700787398
0
LINE
8
BLACK
6
CONTINUOUS
10
3.8664331889763779
20
-4.0233693700787398
11
3.8641732283464565
21
-4.0238188976377955
0
LINE
8
BLACK
6
CONTINUOUS
10
3.8641732283464565
20
-4.0238188976377955
11
3.8070866141732282
21
-4.0238188976377955
0
LINE
8
BLACK
6
CONTINUOUS
10
3.8070866141732282
20
-4.0238188976377955
11
3.8048266535433068
21
-4.0233693700787398
0
LINE
8
BLACK
6
CONTINUOUS
10
3.8048266535433068
20
-4.0233693700787398
11
3.8029107874015748
21
-4.0220892125984253
0
LINE
8
BLACK
6
CONTINUOUS
10
3.8029107874015748
20
-4.0220892125984253
11
3.8016306299212599
21
-4.0201733464566924
0
LINE
8
BLACK
6
CONTINUOUS
10
3.8016306299212599
20
-4.0201733464566924
11
3.8011811023622046
21
-4.0179133858267715
0
LINE
8
BLACK
6
CONTINUOUS
10
3.8011811023622046
20
-4.0179133858267715
11
3.8011811023622046
21
-4.0061023622047243
0
LINE
8
BLACK
6
CONTINUOUS
10
3.8011811023622046
20
-4.0061023622047243
11
3.8016306299212599
21
-4.0038424015748033
0
LINE
8
BLACK
6
CONTINUOUS
10
3.8016306299212599
20
-4.0038424015748033
11
3.8029107874015748
21
-4.0019265354330704
0
LINE
8
BLACK
6
CONTINUOUS
10
3.8029107874015748
20
-4.0019265354330704
11
3.8048266535433068
21
-4.0006463779527559
0
LINE
8
BLACK
6
CONTINUOUS
10
3.8048266535433068
20
-4.0006463779527559
11
3.8070866141732282
21
-4.0001968503937011
0
LINE
8
BLACK
6
CONTINUOUS
10
3.8070866141732282
20
-4.0001968503937011
11
3.8641732283464565
21
-4.0001968503937011
0
LINE
8
BLACK
6
CONTINUOUS
10
3.8641732283464565
20
-4.0001968503937011
11
3.8664331889763779
21
-4.0006463779527559
0
LINE
8
BLACK
6
CONTINUOUS
10
4.0691890944881886
20
-4.0006463779527559
11
4.0711049606299214
21
-4.0019265354330704
0
LINE
8
BLACK
6
CONTINUOUS
10
4.0711049606299214
20
-4.0019265354330704
11
4.072385118110236
21
-4.0038424015748033
0
LINE
8
BLACK
6
CONTINUOUS
10
4.072385118110236
20
-4.0038424015748033
11
4.0728346456692917
21
-4.0061023622047243
0
LINE
8
BLACK
6
CONTINUOUS
10
4.0728346456692917
20
-4.0061023622047243
11
4.0728346456692917
21
-4.0179133858267715
0
LINE
8
BLACK
6
CONTINUOUS
10
4.0728346456692917
20
-4.0179133858267715
11
4.072385118110236
21
-4.0201733464566924
0
LINE
8
BLACK
6
CONTINUOUS
10
4.072385118110236
20
-4.0201733464566924
11
4.0711049606299214
21
-4.0220892125984253
0
LINE
8
BLACK
6
CONTINUOUS
10
4.0711049606299214
20
-4.0220892125984253
11
4.0691890944881886
21
-4.0233693700787398
0
LINE
8
BLACK
6
CONTINUOUS
10
4.0691890944881886
20
-4.0233693700787398
11
4.0669291338582676
21
-4.0238188976377955
0
LINE
8
BLACK
6
CONTINUOUS
10
4.0669291338582676
20
-4.0238188976377955
11
4.0098425196850389
21
-4.0238188976377955
0
LINE
8
BLACK
6
CONTINUOUS
10
4.0098425196850389
20
-4.0238188976377955
11
4.007582559055118
21
-4.0233693700787398
0
LINE
8
BLACK
6
CONTINUOUS
10
4.007582559055118
20
-4.0233693700787398
11
4.005666692913386
21
-4.0220892125984253
0
LINE
8
BLACK
6
CONTINUOUS
10
4.005666692913386
20
-4.0220892125984253
11
4.0043865354330705
21
-4.0201733464566924
0
LINE
8
BLACK
6
CONTINUOUS
10
4.0043865354330705
20
-4.0201733464566924
11
4.0039370078740157
21
-4.0179133858267715
0
LINE
8
BLACK
6
CONTINUOUS
10
4.0039370078740157
20
-4.0179133858267715
11
4.0039370078740157
21
-4.0061023622047243
0
LINE
8
BLACK
6
CONTINUOUS
10
4.0039370078740157
20
-4.0061023622047243
11
4.0043865354330705
21
-4.0038424015748033
0
LINE
8
BLACK
6
CONTINUOUS
10
4.0043865354330705
20
-4.0038424015748033
11
4.005666692913386
21
-4.0019265354330704
0
LINE
8
BLACK
6
CONTINUOUS
10
4.005666692913386
20
-4.0019265354330704
11
4.007582559055118
21
-4.0006463779527559
0
LINE
8
BLACK
6
CONTINUOUS
10
4.007582559055118
20
-4.0006463779527559
11
4.0098425196850389
21
-4.0001968503937011
0
LINE
8
BLACK
6
CONTINUOUS
10
4.0098425196850389
20
-4.0001968503937011
11
4.0669291338582676
21
-4.0001968503937011
0
LINE
8
BLACK
6
CONTINUOUS
10
4.0669291338582676
20
-4.0001968503937011
11
4.0691890944881886
21
-4.0006463779527559
0
LINE
8
BLACK
6
CONTINUOUS
10
3.8664331889763779
20
-3.9506463779527556
11
3.8683490551181103
21
-3.9519265354330706
0
LINE
8
BLACK
6
CONTINUOUS
10
3.8683490551181103
20
-3.9519265354330706
11
3.8696292125984253
21
-3.953842401574803
0
LINE
8
BLACK
6
CONTINUOUS
10
3.8696292125984253
20
-3.953842401574803
11
3.8700787401574801
21
-3.9561023622047244
0
LINE
8
BLACK
6
CONTINUOUS
10
3.8700787401574801
20
-3.9561023622047244
11
3.8700787401574801
21
-3.9679133858267717
0
LINE
8
BLACK
6
CONTINUOUS
10
3.8700787401574801
20
-3.9679133858267717
11
3.8696292125984253
21
-3.9701733464566926
0
LINE
8
BLACK
6
CONTINUOUS
10
3.8696292125984253
20
-3.9701733464566926
11
3.8683490551181103
21
-3.9720892125984251
0
LINE
8
BLACK
6
CONTINUOUS
10
3.8683490551181103
20
-3.9720892125984251
11
3.8664331889763779
21
-3.97336937007874
0
LINE
8
BLACK
6
CONTINUOUS
10
3.8664331889763779
20
-3.97336937007874
11
3.8641732283464565
21
-3.9738188976377953
0
LINE
8
BLACK
6
CONTINUOUS
10
3.8641732283464565
20
-3.9738188976377953
11
3.8070866141732282
21
-3.9738188976377953
0
LINE
8
BLACK
6
CONTINUOUS
10
3.8070866141732282
20
-3.9738188976377953
11
3.8048266535433068
21
-3.97336937007874
0
LINE
8
BLACK
6
CONTINUOUS
10
3.8048266535433068
20
-3.97336937007874
11
3.8029107874015748
21
-3.9720892125984251
0
LINE
8
BLACK
6
CONTINUOUS
10
3.8029107874015748
20
-3.9720892125984251
11
3.8016306299212599
21
-3.9701733464566926
0
LINE
8
BLACK
6
CONTINUOUS
10
3.8016306299212599
20
-3.9701733464566926
11
3.8011811023622046
21
-3.9679133858267717
0
LINE
8
BLACK
6
CONTINUOUS
10
3.8011811023622046
20
-3.9679133858267717
11
3.8011811023622046
21
-3.9561023622047244
0
LINE
8
BLACK
6
CONTINUOUS
10
3.8011811023622046
20
-3.9561023622047244
11
3.8016306299212599
21
-3.953842401574803
0
LINE
8
BLACK
6
CONTINUOUS
10
3.8016306299212599
20
-3.953842401574803
11
3.8029107874015748
21
-3.9519265354330706
0
LINE
8
BLACK
6
CONTINUOUS
10
3.8029107874015748
20
-3.9519265354330706
11
3.8048266535433068
21
-3.9506463779527556
0
LINE
8
BLACK
6
CONTINUOUS
10
3.8048266535433068
20
-3.9506463779527556
11
3.8070866141732282
21
-3.9501968503937008
0
LINE
8
BLACK
6
CONTINUOUS
10
3.8070866141732282
20
-3.9501968503937008
11
3.8641732283464565
21
-3.9501968503937008
0
LINE
8
BLACK
6
CONTINUOUS
10
3.8641732283464565
20
-3.9501968503937008
11
3.8664331889763779
21
-3.9506463779527556
0
LINE
8
BLACK
6
CONTINUOUS
10
4.0691890944881886
20
-3.9506463779527556
11
4.0711049606299214
21
-3.9519265354330706
0
LINE
8
BLACK
6
CONTINUOUS
10
4.0711049606299214
20
-3.9519265354330706
11
4.072385118110236
21
-3.953842401574803
0
LINE
8
BLACK
6
CONTINUOUS
10
4.072385118110236
20
-3.953842401574803
11
4.0728346456692917
21
-3.9561023622047244
0
LINE
8
BLACK
6
CONTINUOUS
10
4.0728346456692917
20
-3.9561023622047244
11
4.0728346456692917
21
-3.9679133858267717
0
LINE
8
BLACK
6
CONTINUOUS
10
4.0728346456692917
20
-3.9679133858267717
11
4.072385118110236
21
-3.9701733464566926
0
LINE
8
BLACK
6
CONTINUOUS
10
4.072385118110236
20
-3.9701733464566926
11
4.0711049606299214
21
-3.9720892125984251
0
LINE
8
BLACK
6
CONTINUOUS
10
4.0711049606299214
20
-3.9720892125984251
11
4.0691890944881886
21
-3.97336937007874
0
LINE
8
BLACK
6
CONTINUOUS
10
4.0691890944881886
20
-3.97336937007874
11
4.0669291338582676
21
-3.9738188976377953
0
LINE
8
BLACK
6
CONTINUOUS
10
4.0669291338582676
20
-3.9738188976377953
11
4.0098425196850389
21
-3.9738188976377953
0
LINE
8
BLACK
6
CONTINUOUS
10
4.0098425196850389
20
-3.9738188976377953
11
4.007582559055118
21
-3.97336937007874
0
LINE
8
BLACK
6
CONTINUOUS
10
4.007582559055118
20
-3.97336937007874
11
4.005666692913386
21
-3.9720892125984251
0
LINE
8
BLACK
6
CONTINUOUS
10
4.005666692913386
20
-3.9720892125984251
11
4.0043865354330705
21
-3.9701733464566926
0
LINE
8
BLACK
6
CONTINUOUS
10
4.0043865354330705
20
-3.9701733464566926
11
4.0039370078740157
21
-3.9679133858267717
0
LINE
8
BLACK
6
CONTINUOUS
10
4.0039370078740157
20
-3.9679133858267717
11
4.0039370078740157
21
-3.9561023622047244
0
LINE
8
BLACK
6
CONTINUOUS
10
4.0039370078740157
20
-3.9561023622047244
11
4.0043865354330705
21
-3.953842401574803
0
LINE
8
BLACK
6
CONTINUOUS
10
4.0043865354330705
20
-3.953842401574803
11
4.005666692913386
21
-3.9519265354330706
0
LINE
8
BLACK
6
CONTINUOUS
10
4.005666692913386
20
-3.9519265354330706
11
4.007582559055118
21
-3.9506463779527556
0
LINE
8
BLACK
6
CONTINUOUS
10
4.007582559055118
20
-3.9506463779527556
11
4.0098425196850389
21
-3.9501968503937008
0
LINE
8
BLACK
6
CONTINUOUS
10
4.0098425196850389
20
-3.9501968503937008
11
4.0669291338582676
21
-3.9501968503937008
0
LINE
8
BLACK
6
CONTINUOUS
10
4.0669291338582676
20
-3.9501968503937008
11
4.0691890944881886
21
-3.9506463779527556
0
LINE
8
BLACK
6
CONTINUOUS
10
3.8664331889763779
20
-3.9006463779527558
11
3.8683490551181103
21
-3.9019265354330708
0
LINE
8
BLACK
6
CONTINUOUS
10
3.8683490551181103
20
-3.9019265354330708
11
3.8696292125984253
21
-3.9038424015748032
0
LINE
8
BLACK
6
CONTINUOUS
10
3.8696292125984253
20
-3.9038424015748032
11
3.8700787401574801
21
-3.9061023622047242
0
LINE
8
BLACK
6
CONTINUOUS
10
3.8700787401574801
20
-3.9061023622047242
11
3.8700787401574801
21
-3.9179133858267714
0
LINE
8
BLACK
6
CONTINUOUS
10
3.8700787401574801
20
-3.9179133858267714
11
3.8696292125984253
21
-3.9201733464566928
0
LINE
8
BLACK
6
CONTINUOUS
10
3.8696292125984253
20
-3.9201733464566928
11
3.8683490551181103
21
-3.9220892125984252
0
LINE
8
BLACK
6
CONTINUOUS
10
3.8683490551181103
20
-3.9220892125984252
11
3.8664331889763779
21
-3.9233693700787402
0
LINE
8
BLACK
6
CONTINUOUS
10
3.8664331889763779
20
-3.9233693700787402
11
3.8641732283464565
21
-3.923818897637795
0
LINE
8
BLACK
6
CONTINUOUS
10
3.8641732283464565
20
-3.923818897637795
11
3.8070866141732282
21
-3.923818897637795
0
LINE
8
BLACK
6
CONTINUOUS
10
3.8070866141732282
20
-3.923818897637795
11
3.8048266535433068
21
-3.9233693700787402
0
LINE
8
BLACK
6
CONTINUOUS
10
3.8048266535433068
20
-3.9233693700787402
11
3.8029107874015748
21
-3.9220892125984252
0
LINE
8
BLACK
6
CONTINUOUS
10
3.8029107874015748
20
-3.9220892125984252
11
3.8016306299212599
21
-3.9201733464566928
0
LINE
8
BLACK
6
CONTINUOUS
10
3.8016306299212599
20
-3.9201733464566928
11
3.8011811023622046
21
-3.9179133858267714
0
LINE
8
BLACK
6
CONTINUOUS
10
3.8011811023622046
20
-3.9179133858267714
11
3.8011811023622046
21
-3.9061023622047242
0
LINE
8
BLACK
6
CONTINUOUS
10
3.8011811023622046
20
-3.9061023622047242
11
3.8016306299212599
21
-3.9038424015748032
0
LINE
8
BLACK
6
CONTINUOUS
10
3.8016306299212599
20
-3.9038424015748032
11
3.8029107874015748
21
-3.9019265354330708
0
LINE
8
BLACK
6
CONTINUOUS
10
3.8029107874015748
20
-3.9019265354330708
11
3.8048266535433068
21
-3.9006463779527558
0
LINE
8
BLACK
6
CONTINUOUS
10
3.8048266535433068
20
-3.9006463779527558
11
3.8070866141732282
21
-3.9001968503937006
0
LINE
8
BLACK
6
CONTINUOUS
10
3.8070866141732282
20
-3.9001968503937006
11
3.8641732283464565
21
-3.9001968503937006
0
LINE
8
BLACK
6
CONTINUOUS
10
3.8641732283464565
20
-3.9001968503937006
11
3.8664331889763779
21
-3.9006463779527558
0
LINE
8
BLACK
6
CONTINUOUS
10
4.0691890944881886
20
-3.9006463779527558
11
4.0711049606299214
21
-3.9019265354330708
0
LINE
8
BLACK
6
CONTINUOUS
10
4.0711049606299214
20
-3.9019265354330708
11
4.072385118110236
21
-3.9038424015748032
0
LINE
8
BLACK
6
CONTINUOUS
10
4.072385118110236
20
-3.9038424015748032
11
4.0728346456692917
21
-3.9061023622047242
0
LINE
8
BLACK
6
CONTINUOUS
10
4.0728346456692917
20
-3.9061023622047242
11
4.0728346456692917
21
-3.9179133858267714
0
LINE
8
BLACK
6
CONTINUOUS
10
4.0728346456692917
20
-3.9179133858267714
11
4.072385118110236
21
-3.9201733464566928
0
LINE
8
BLACK
6
CONTINUOUS
10
4.072385118110236
20
-3.9201733464566928
11
4.0711049606299214
21
-3.9220892125984252
0
LINE
8
BLACK
6
CONTINUOUS
10
4.0711049606299214
20
-3.9220892125984252
11
4.0691890944881886
21
-3.9233693700787402
0
LINE
8
BLACK
6
CONTINUOUS
10
4.0691890944881886
20
-3.9233693700787402
11
4.0669291338582676
21
-3.923818897637795
0
LINE
8
BLACK
6
CONTINUOUS
10
4.0669291338582676
20
-3.923818897637795
11
4.0098425196850389
21
-3.923818897637795
0
LINE
8
BLACK
6
CONTINUOUS
10
4.0098425196850389
20
-3.923818897637795
11
4.007582559055118
21
-3.9233693700787402
0
LINE
8
BLACK
6
CONTINUOUS
10
4.007582559055118
20
-3.9233693700787402
11
4.005666692913386
21
-3.9220892125984252
0
LINE
8
BLACK
6
CONTINUOUS
10
4.005666692913386
20
-3.9220892125984252
11
4.0043865354330705
21
-3.9201733464566928
0
LINE
8
BLACK
6
CONTINUOUS
10
4.0043865354330705
20
-3.9201733464566928
11
4.0039370078740157
21
-3.9179133858267714
0
LINE
8
BLACK
6
CONTINUOUS
10
4.0039370078740157
20
-3.9179133858267714
11
4.0039370078740157
21
-3.9061023622047242
0
LINE
8
BLACK
6
CONTINUOUS
10
4.0039370078740157
20
-3.9061023622047242
11
4.0043865354330705
21
-3.9038424015748032
0
LINE
8
BLACK
6
CONTINUOUS
10
4.0043865354330705
20
-3.9038424015748032
11
4.005666692913386
21
-3.9019265354330708
0
LINE
8
BLACK
6
CONTINUOUS
10
4.005666692913386
20
-3.9019265354330708
11
4.007582559055118
21
-3.9006463779527558
0
LINE
8
BLACK
6
CONTINUOUS
10
4.007582559055118
20
-3.9006463779527558
11
4.0098425196850389
21
-3.9001968503937006
0
LINE
8
BLACK
6
CONTINUOUS
10
4.0098425196850389
20
-3.9001968503937006
11
4.0669291338582676
21
-3.9001968503937006
0
LINE
8
BLACK
6
CONTINUOUS
10
4.0669291338582676
20
-3.9001968503937006
11
4.0691890944881886
21
-3.9006463779527558
0
LINE
8
BLACK
6
CONTINUOUS
10
3.8664331889763779
20
-3.850646377952756
11
3.8683490551181103
21
-3.851926535433071
0
LINE
8
BLACK
6
CONTINUOUS
10
3.8683490551181103
20
-3.851926535433071
11
3.8696292125984253
21
-3.853842401574803
0
LINE
8
BLACK
6
CONTINUOUS
10
3.8696292125984253
20
-3.853842401574803
11
3.8700787401574801
21
-3.8561023622047244
0
LINE
8
BLACK
6
CONTINUOUS
10
3.8700787401574801
20
-3.8561023622047244
11
3.8700787401574801
21
-3.8679133858267716
0
LINE
8
BLACK
6
CONTINUOUS
10
3.8700787401574801
20
-3.8679133858267716
11
3.8696292125984253
21
-3.870173346456693
0
LINE
8
BLACK
6
CONTINUOUS
10
3.8696292125984253
20
-3.870173346456693
11
3.8683490551181103
21
-3.872089212598425
0
LINE
8
BLACK
6
CONTINUOUS
10
3.8683490551181103
20
-3.872089212598425
11
3.8664331889763779
21
-3.8733693700787399
0
LINE
8
BLACK
6
CONTINUOUS
10
3.8664331889763779
20
-3.8733693700787399
11
3.8641732283464565
21
-3.8738188976377952
0
LINE
8
BLACK
6
CONTINUOUS
10
3.8641732283464565
20
-3.8738188976377952
11
3.8070866141732282
21
-3.8738188976377952
0
LINE
8
BLACK
6
CONTINUOUS
10
3.8070866141732282
20
-3.8738188976377952
11
3.8048266535433068
21
-3.8733693700787399
0
LINE
8
BLACK
6
CONTINUOUS
10
3.8048266535433068
20
-3.8733693700787399
11
3.8029107874015748
21
-3.872089212598425
0
LINE
8
BLACK
6
CONTINUOUS
10
3.8029107874015748
20
-3.872089212598425
11
3.8016306299212599
21
-3.870173346456693
0
LINE
8
BLACK
6
CONTINUOUS
10
3.8016306299212599
20
-3.870173346456693
11
3.8011811023622046
21
-3.8679133858267716
0
LINE
8
BLACK
6
CONTINUOUS
10
3.8011811023622046
20
-3.8679133858267716
11
3.8011811023622046
21
-3.8561023622047244
0
LINE
8
BLACK
6
CONTINUOUS
10
3.8011811023622046
20
-3.8561023622047244
11
3.8016306299212599
21
-3.853842401574803
0
LINE
8
BLACK
6
CONTINUOUS
10
3.8016306299212599
20
-3.853842401574803
11
3.8029107874015748
21
-3.851926535433071
0
LINE
8
BLACK
6
CONTINUOUS
10
3.8029107874015748
20
-3.851926535433071
11
3.8048266535433068
21
-3.850646377952756
0
LINE
8
BLACK
6
CONTINUOUS
10
3.8048266535433068
20
-3.850646377952756
11
3.8070866141732282
21
-3.8501968503937007
0
LINE
8
BLACK
6
CONTINUOUS
10
3.8070866141732282
20
-3.8501968503937007
11
3.8641732283464565
21
-3.8501968503937007
0
LINE
8
BLACK
6
CONTINUOUS
10
3.8641732283464565
20
-3.8501968503937007
11
3.8664331889763779
21
-3.850646377952756
0
LINE
8
BLACK
6
CONTINUOUS
10
4.0691890944881886
20
-3.850646377952756
11
4.0711049606299214
21
-3.851926535433071
0
LINE
8
BLACK
6
CONTINUOUS
10
4.0711049606299214
20
-3.851926535433071
11
4.072385118110236
21
-3.853842401574803
0
LINE
8
BLACK
6
CONTINUOUS
10
4.072385118110236
20
-3.853842401574803
11
4.0728346456692917
21
-3.8561023622047244
0
LINE
8
BLACK
6
CONTINUOUS
10
4.0728346456692917
20
-3.8561023622047244
11
4.0728346456692917
21
-3.8679133858267716
0
LINE
8
BLACK
6
CONTINUOUS
10
4.0728346456692917
20
-3.8679133858267716
11
4.072385118110236
21
-3.870173346456693
0
LINE
8
BLACK
6
CONTINUOUS
10
4.072385118110236
20
-3.870173346456693
11
4.0711049606299214
21
-3.872089212598425
0
LINE
8
BLACK
6
CONTINUOUS
10
4.0711049606299214
20
-3.872089212598425
11
4.0691890944881886
21
-3.8733693700787399
0
LINE
8
BLACK
6
CONTINUOUS
10
4.0691890944881886
20
-3.8733693700787399
11
4.0669291338582676
21
-3.8738188976377952
0
LINE
8
BLACK
6
CONTINUOUS
10
4.0669291338582676
20
-3.8738188976377952
11
4.0098425196850389
21
-3.8738188976377952
0
LINE
8
BLACK
6
CONTINUOUS
10
4.0098425196850389
20
-3.8738188976377952
11
4.007582559055118
21
-3.8733693700787399
0
LINE
8
BLACK
6
CONTINUOUS
10
4.007582559055118
20
-3.8733693700787399
11
4.005666692913386
21
-3.872089212598425
0
LINE
8
BLACK
6
CONTINUOUS
10
4.005666692913386
20
-3.872089212598425
11
4.0043865354330705
21
-3.870173346456693
0
LINE
8
BLACK
6
CONTINUOUS
10
4.0043865354330705
20
-3.870173346456693
11
4.0039370078740157
21
-3.8679133858267716
0
LINE
8
BLACK
6
CONTINUOUS
10
4.0039370078740157
20
-3.8679133858267716
11
4.0039370078740157
21
-3.8561023622047244
0
LINE
8
BLACK
6
CONTINUOUS
10
4.0039370078740157
20
-3.8561023622047244
11
4.0043865354330705
21
-3.853842401574803
0
LINE
8
BLACK
6
CONTINUOUS
10
4.0043865354330705
20
-3.853842401574803
11
4.005666692913386
21
-3.851926535433071
0
LINE
8
BLACK
6
CONTINUOUS
10
4.005666692913386
20
-3.851926535433071
11
4.007582559055118
21
-3.850646377952756
0
LINE
8
BLACK
6
CONTINUOUS
10
4.007582559055118
20
-3.850646377952756
11
4.0098425196850389
21
-3.8501968503937007
0
LINE
8
BLACK
6
CONTINUOUS
10
4.0098425196850389
20
-3.8501968503937007
11
4.0669291338582676
21
-3.8501968503937007
0
LINE
8
BLACK
6
CONTINUOUS
10
4.0669291338582676
20
-3.8501968503937007
11
4.0691890944881886
21
-3.850646377952756
  0
ENDSEC
  0
EOF
