  0
SECTION
  2
HEADER
  9
$ANGBASE
  50
0.0
  9
$ANGDIR
  70
1
  9
$MEASUREMENT
  70
0
  0
ENDSEC
  0
SECTION
  2
TABLES
  0
TABLE
  2
LTYPE
  70
4
  0
LTYPE
  5
40F
  2
CONTINUOUS
  70
0
  3
Solid line
  72
65
  73
0
  40
0.0
  0
LTYPE
  5
410
  2
DASHDOT
 70
0
  3
Dash Dot ____ _ ____ _
 72
65
 73
4
 40
2.0
 49
1.25
 49
-0.25
 49
0.25
 49
-0.25
  0
LTYPE
  5
411
  2
DASHED
 70
0
  3
Dashed __ __ __ __ __
 72
65
 73
2
 40
0.75
 49
0.5
 49
-0.25
  0
LTYPE
  5
43B
  2
DOTTED
 70
0
  3
Dotted .  .  .  .
 72
65
 73
2
 40
0.2
 49
0.0
 49
-0.2
  0
ENDTAB
  0
TABLE
  2
STYLE
  70
4
  0
STYLE
  2
KICAD
  70
0
  40
0
  41
1
  42
1
  50
0
  71
0
  3
isocp.shx
  0
STYLE
  2
KICADB
  70
0
  40
0
  41
1
  42
1
  50
0
  71
0
  3
isocp.shx
  0
STYLE
  2
KICADI
  70
0
  40
0
  41
1
  42
1
  50
15
  71
0
  3
isocp.shx
  0
STYLE
  2
KICADBI
  70
0
  40
0
  41
1
  42
1
  50
15
  71
0
  3
isocp.shx
  0
ENDTAB
  0
TABLE
  2
LAYER
  70
1
  0
LAYER
  2
BLACK
  70
0
  62
7
  6
CONTINUOUS
  0
ENDTAB
  0
ENDSEC
  0
SECTION
  2
ENTITIES
0
LINE
8
BLACK
6
CONTINUOUS
10
4.0751211023622043
20
-3.6211379133858266
11
4.0756537795275589
21
-3.6216705905511812
0
LINE
8
BLACK
6
CONTINUOUS
10
4.0756537795275589
20
-3.6216705905511812
11
4.0757287007874012
21
-3.622047244094488
0
LINE
8
BLACK
6
CONTINUOUS
10
4.0757287007874012
20
-3.622047244094488
11
4.0757287007874012
21
-3.6484756692913387
0
LINE
8
BLACK
6
CONTINUOUS
10
4.0757287007874012
20
-3.6484756692913387
11
4.0947849212598424
21
-3.6584145275590552
0
LINE
8
BLACK
6
CONTINUOUS
10
4.0947849212598424
20
-3.6584145275590552
11
4.1136473622047243
21
-3.6699754330708663
0
LINE
8
BLACK
6
CONTINUOUS
10
4.1136473622047243
20
-3.6699754330708663
11
4.1316664173228341
21
-3.6828112992125983
0
LINE
8
BLACK
6
CONTINUOUS
10
4.1316664173228341
20
-3.6828112992125983
11
4.1487559842519683
21
-3.6968608661417321
0
LINE
8
BLACK
6
CONTINUOUS
10
4.1487559842519683
20
-3.6968608661417321
11
4.1648345669291338
21
-3.7120570866141733
0
LINE
8
BLACK
6
CONTINUOUS
10
4.1648345669291338
20
-3.7120570866141733
11
4.1798253149606301
21
-3.7283274015748029
0
LINE
8
BLACK
6
CONTINUOUS
10
4.1798253149606301
20
-3.7283274015748029
11
4.1936566535433073
21
-3.7455940944881889
0
LINE
8
BLACK
6
CONTINUOUS
10
4.1936566535433073
20
-3.7455940944881889
11
4.2062625984251971
21
-3.7637747244094486
0
LINE
8
BLACK
6
CONTINUOUS
10
4.2062625984251971
20
-3.7637747244094486
11
4.2175829527559054
21
-3.7827824803149603
0
LINE
8
BLACK
6
CONTINUOUS
10
4.2175829527559054
20
-3.7827824803149603
11
4.2275636220472439
21
-3.8025266141732281
0
LINE
8
BLACK
6
CONTINUOUS
10
4.2275636220472439
20
-3.8025266141732281
11
4.2361569685039369
21
-3.8229128740157479
0
LINE
8
BLACK
6
CONTINUOUS
10
4.2361569685039369
20
-3.8229128740157479
11
4.2433219685039365
21
-3.8438438976377953
0
LINE
8
BLACK
6
CONTINUOUS
10
4.2433219685039365
20
-3.8438438976377953
11
4.2490244094488192
21
-3.8652197637795274
0
LINE
8
BLACK
6
CONTINUOUS
10
4.2490244094488192
20
-3.8652197637795274
11
4.2532370472440943
21
-3.8869383858267716
0
LINE
8
BLACK
6
CONTINUOUS
10
4.2532370472440943
20
-3.8869383858267716
11
4.2559398031496061
21
-3.9088961023622044
0
LINE
8
BLACK
6
CONTINUOUS
10
4.2559398031496061
20
-3.9088961023622044
11
4.2571197244094483
21
-3.9309880314960628
0
LINE
8
BLACK
6
CONTINUOUS
10
4.2571197244094483
20
-3.9309880314960628
11
4.2567712204724408
21
-3.9531086614173225
0
LINE
8
BLACK
6
CONTINUOUS
10
4.2567712204724408
20
-3.9531086614173225
11
4.2548959448818895
21
-3.975152440944882
0
LINE
8
BLACK
6
CONTINUOUS
10
4.2548959448818895
20
-3.975152440944882
11
4.2515028740157481
21
-3.9970141338582676
0
LINE
8
BLACK
6
CONTINUOUS
10
4.2515028740157481
20
-3.9970141338582676
11
4.2466081496062991
21
-4.0185892519685043
0
LINE
8
BLACK
6
CONTINUOUS
10
4.2466081496062991
20
-4.0185892519685043
11
4.2402351574803152
21
-4.0397748818897634
0
LINE
8
BLACK
6
CONTINUOUS
10
4.2402351574803152
20
-4.0397748818897634
11
4.2324143700787404
21
-4.0604698031496058
0
LINE
8
BLACK
6
CONTINUOUS
10
4.2324143700787404
20
-4.0604698031496058
11
4.223183070866142
21
-4.0805752362204721
0
LINE
8
BLACK
6
CONTINUOUS
10
4.223183070866142
20
-4.0805752362204721
11
4.2125853937007873
21
-4.0999951968503936
0
LINE
8
BLACK
6
CONTINUOUS
10
4.2125853937007873
20
-4.0999951968503936
11
4.2006719291338586
21
-4.1186369291338583
0
LINE
8
BLACK
6
CONTINUOUS
10
4.2006719291338586
20
-4.1186369291338583
11
4.187499527559055
21
-4.1364114173228348
0
LINE
8
BLACK
6
CONTINUOUS
10
4.187499527559055
20
-4.1364114173228348
11
4.1731311023622046
21
-4.1532338582677166
0
LINE
8
BLACK
6
CONTINUOUS
10
4.1731311023622046
20
-4.1532338582677166
11
4.1576352362204725
21
-4.1690238188976378
0
LINE
8
BLACK
6
CONTINUOUS
10
4.1576352362204725
20
-4.1690238188976378
11
4.1410859842519683
21
-4.1837060236220474
0
LINE
8
BLACK
6
CONTINUOUS
10
4.1410859842519683
20
-4.1837060236220474
11
4.1235622834645671
21
-4.1972102755905514
0
LINE
8
BLACK
6
CONTINUOUS
10
4.1235622834645671
20
-4.1972102755905514
11
4.1051478346456696
21
-4.209472165354331
0
LINE
8
BLACK
6
CONTINUOUS
10
4.1051478346456696
20
-4.209472165354331
11
4.0859305905511807
21
-4.22043311023622
0
LINE
8
BLACK
6
CONTINUOUS
10
4.0859305905511807
20
-4.22043311023622
11
4.0660022834645666
21
-4.2300407874015749
0
LINE
8
BLACK
6
CONTINUOUS
10
4.0660022834645666
20
-4.2300407874015749
11
4.0454580314960626
21
-4.2382493307086611
0
LINE
8
BLACK
6
CONTINUOUS
10
4.0454580314960626
20
-4.2382493307086611
11
4.0243959842519681
21
-4.2450194881889765
0
LINE
8
BLACK
6
CONTINUOUS
10
4.0243959842519681
20
-4.2450194881889765
11
4.0029166929133861
21
-4.2503190157480315
0
LINE
8
BLACK
6
CONTINUOUS
10
4.0029166929133861
20
-4.2503190157480315
11
3.9811227165354328
21
-4.2541225590551184
0
LINE
8
BLACK
6
CONTINUOUS
10
3.9811227165354328
20
-4.2541225590551184
11
3.9591180708661415
21
-4.2564119685039365
0
LINE
8
BLACK
6
CONTINUOUS
10
3.9591180708661415
20
-4.2564119685039365
11
3.9370078740157481
21
-4.2571763385826769
0
LINE
8
BLACK
6
CONTINUOUS
10
3.9370078740157481
20
-4.2571763385826769
11
3.9148976771653543
21
-4.2564119685039365
0
LINE
8
BLACK
6
CONTINUOUS
10
3.9148976771653543
20
-4.2564119685039365
11
3.8928930708661418
21
-4.2541225590551184
0
LINE
8
BLACK
6
CONTINUOUS
10
3.8928930708661418
20
-4.2541225590551184
11
3.8710990551181101
21
-4.2503190157480315
0
LINE
8
BLACK
6
CONTINUOUS
10
3.8710990551181101
20
-4.2503190157480315
11
3.8496197637795273
21
-4.2450194881889765
0
LINE
8
BLACK
6
CONTINUOUS
10
3.8496197637795273
20
-4.2450194881889765
11
3.8285577165354332
21
-4.2382493307086611
0
LINE
8
BLACK
6
CONTINUOUS
10
3.8285577165354332
20
-4.2382493307086611
11
3.808013503937008
21
-4.2300407874015749
0
LINE
8
BLACK
6
CONTINUOUS
10
3.808013503937008
20
-4.2300407874015749
11
3.7880851574803147
21
-4.22043311023622
0
LINE
8
BLACK
6
CONTINUOUS
10
3.7880851574803147
20
-4.22043311023622
11
3.7688679133858267
21
-4.209472165354331
0
LINE
8
BLACK
6
CONTINUOUS
10
3.7688679133858267
20
-4.209472165354331
11
3.7504534645669292
21
-4.1972103149606301
0
LINE
8
BLACK
6
CONTINUOUS
10
3.7504534645669292
20
-4.1972103149606301
11
3.7329298031496063
21
-4.1837060236220474
0
LINE
8
BLACK
6
CONTINUOUS
10
3.7329298031496063
20
-4.1837060236220474
11
3.7163805118110234
21
-4.1690238582677166
0
LINE
8
BLACK
6
CONTINUOUS
10
3.7163805118110234
20
-4.1690238582677166
11
3.7008846456692912
21
-4.1532338582677166
0
LINE
8
BLACK
6
CONTINUOUS
10
3.7008846456692912
20
-4.1532338582677166
11
3.6865162204724409
21
-4.1364114566929135
0
LINE
8
BLACK
6
CONTINUOUS
10
3.6865162204724409
20
-4.1364114566929135
11
3.6733438188976377
21
-4.1186369291338583
0
LINE
8
BLACK
6
CONTINUOUS
10
3.6733438188976377
20
-4.1186369291338583
11
3.6614303543307085
21
-4.0999951968503936
0
LINE
8
BLACK
6
CONTINUOUS
10
3.6614303543307085
20
-4.0999951968503936
11
3.6508326771653543
21
-4.0805752755905509
0
LINE
8
BLACK
6
CONTINUOUS
10
3.6508326771653543
20
-4.0805752755905509
11
3.6416013779527558
21
-4.0604698425196846
0
LINE
8
BLACK
6
CONTINUOUS
10
3.6416013779527558
20
-4.0604698425196846
11
3.6337805905511811
21
-4.0397748818897634
0
LINE
8
BLACK
6
CONTINUOUS
10
3.6337805905511811
20
-4.0397748818897634
11
3.6274075984251968
21
-4.018589291338583
0
LINE
8
BLACK
6
CONTINUOUS
10
3.6274075984251968
20
-4.018589291338583
11
3.6225128740157477
21
-3.9970141338582676
0
LINE
8
BLACK
6
CONTINUOUS
10
3.6225128740157477
20
-3.9970141338582676
11
3.6191198031496064
21
-3.9751524803149607
0
LINE
8
BLACK
6
CONTINUOUS
10
3.6191198031496064
20
-3.9751524803149607
11
3.617244527559055
21
-3.9531087007874013
0
LINE
8
BLACK
6
CONTINUOUS
10
3.617244527559055
20
-3.9531087007874013
11
3.6168960236220471
21
-3.9309880314960628
0
LINE
8
BLACK
6
CONTINUOUS
10
3.6168960236220471
20
-3.9309880314960628
11
3.6180759448818898
21
-3.9088961023622044
0
LINE
8
BLACK
6
CONTINUOUS
10
3.6180759448818898
20
-3.9088961023622044
11
3.6207787007874015
21
-3.8869384251968504
0
LINE
8
BLACK
6
CONTINUOUS
10
3.6207787007874015
20
-3.8869384251968504
11
3.6249913385826771
21
-3.8652198031496061
0
LINE
8
BLACK
6
CONTINUOUS
10
3.6249913385826771
20
-3.8652198031496061
11
3.6306937795275589
21
-3.8438439370078741
0
LINE
8
BLACK
6
CONTINUOUS
10
3.6306937795275589
20
-3.8438439370078741
11
3.637858779527559
21
-3.8229129133858266
0
LINE
8
BLACK
6
CONTINUOUS
10
3.637858779527559
20
-3.8229129133858266
11
3.6464521259842519
21
-3.8025266535433069
0
LINE
8
BLACK
6
CONTINUOUS
10
3.6464521259842519
20
-3.8025266535433069
11
3.6564327952755904
21
-3.7827824803149603
0
LINE
8
BLACK
6
CONTINUOUS
10
3.6564327952755904
20
-3.7827824803149603
11
3.6677531102362204
21
-3.7637747244094486
0
LINE
8
BLACK
6
CONTINUOUS
10
3.6677531102362204
20
-3.7637747244094486
11
3.6803590551181102
21
-3.7455940944881889
0
LINE
8
BLACK
6
CONTINUOUS
10
3.6803590551181102
20
-3.7455940944881889
11
3.6941904330708661
21
-3.7283274015748029
0
LINE
8
BLACK
6
CONTINUOUS
10
3.6941904330708661
20
-3.7283274015748029
11
3.7091811811023621
21
-3.7120571259842521
0
LINE
8
BLACK
6
CONTINUOUS
10
3.7091811811023621
20
-3.7120571259842521
11
3.7252597244094487
21
-3.6968609055118109
0
LINE
8
BLACK
6
CONTINUOUS
10
3.7252597244094487
20
-3.6968609055118109
11
3.7423493307086613
21
-3.6828112992125983
0
LINE
8
BLACK
6
CONTINUOUS
10
3.7423493307086613
20
-3.6828112992125983
11
3.7603683464566928
21
-3.6699754330708663
0
LINE
8
BLACK
6
CONTINUOUS
10
3.7603683464566928
20
-3.6699754330708663
11
3.7792307874015747
21
-3.6584145669291339
0
LINE
8
BLACK
6
CONTINUOUS
10
3.7792307874015747
20
-3.6584145669291339
11
3.7982870472440946
21
-3.6484757086614175
0
LINE
8
BLACK
6
CONTINUOUS
10
3.7982870472440946
20
-3.6484757086614175
11
3.7982870472440946
21
-3.622047244094488
0
LINE
8
BLACK
6
CONTINUOUS
10
3.7982870472440946
20
-3.622047244094488
11
3.7983619685039369
21
-3.6216705905511812
0
LINE
8
BLACK
6
CONTINUOUS
10
3.7983619685039369
20
-3.6216705905511812
11
3.7988946456692911
21
-3.6211379133858266
0
LINE
8
BLACK
6
CONTINUOUS
10
3.7988946456692911
20
-3.6211379133858266
11
3.7992712992125983
21
-3.6210629921259843
0
LINE
8
BLACK
6
CONTINUOUS
10
3.7992712992125983
20
-3.6210629921259843
11
4.0747444488188975
21
-3.6210629921259843
0
LINE
8
BLACK
6
CONTINUOUS
10
4.0747444488188975
20
-3.6210629921259843
11
4.0751211023622043
21
-3.6211379133858266
0
LINE
8
BLACK
6
CONTINUOUS
10
3.8002555511811025
20
-3.6230314960629921
11
3.8002555511811025
21
-3.649071771653543
0
LINE
8
BLACK
6
CONTINUOUS
10
3.8002555511811025
20
-3.649071771653543
11
3.8001806299212597
21
-3.6494484251968502
0
LINE
8
BLACK
6
CONTINUOUS
10
3.8001806299212597
20
-3.6494484251968502
11
3.8001476771653544
21
-3.6494813385826772
0
LINE
8
BLACK
6
CONTINUOUS
10
3.8001476771653544
20
-3.6494813385826772
11
3.8001368110236218
21
-3.6495404330708658
0
LINE
8
BLACK
6
CONTINUOUS
10
3.8001368110236218
20
-3.6495404330708658
11
3.7996960236220469
21
-3.6499596850393701
0
LINE
8
BLACK
6
CONTINUOUS
10
3.7996960236220469
20
-3.6499596850393701
11
3.7897728740157479
21
-3.6547068897637796
0
LINE
8
BLACK
6
CONTINUOUS
10
3.7897728740157479
20
-3.6547068897637796
11
3.7706292125984251
21
-3.6655486220472442
0
LINE
8
BLACK
6
CONTINUOUS
10
3.7706292125984251
20
-3.6655486220472442
11
3.7522799999999998
21
-3.6776864566929133
0
LINE
8
BLACK
6
CONTINUOUS
10
3.7522799999999998
20
-3.6776864566929133
11
3.7348127559055118
21
-3.6910624803149608
0
LINE
8
BLACK
6
CONTINUOUS
10
3.7348127559055118
20
-3.6910624803149608
11
3.7183109842519686
21
-3.7056128346456694
0
LINE
8
BLACK
6
CONTINUOUS
10
3.7183109842519686
20
-3.7056128346456694
11
3.7028534251968503
21
-3.7212680314960629
0
LINE
8
BLACK
6
CONTINUOUS
10
3.7028534251968503
20
-3.7212680314960629
11
3.6885138582677164
21
-3.737953307086614
0
LINE
8
BLACK
6
CONTINUOUS
10
3.6885138582677164
20
-3.737953307086614
11
3.6753607874015746
21
-3.7555890551181101
0
LINE
8
BLACK
6
CONTINUOUS
10
3.6753607874015746
20
-3.7555890551181101
11
3.6634570078740158
21
-3.7740909842519685
0
LINE
8
BLACK
6
CONTINUOUS
10
3.6634570078740158
20
-3.7740909842519685
11
3.6528593307086612
21
-3.7933707874015745
0
LINE
8
BLACK
6
CONTINUOUS
10
3.6528593307086612
20
-3.7933707874015745
11
3.6436184251968502
21
-3.8133364566929133
0
LINE
8
BLACK
6
CONTINUOUS
10
3.6436184251968502
20
-3.8133364566929133
11
3.6357783464566928
21
-3.8338925984251966
0
LINE
8
BLACK
6
CONTINUOUS
10
3.6357783464566928
20
-3.8338925984251966
11
3.6293765354330709
21
-3.8549410629921259
0
LINE
8
BLACK
6
CONTINUOUS
10
3.6293765354330709
20
-3.8549410629921259
11
3.6244436220472438
21
-3.8763814173228344
0
LINE
8
BLACK
6
CONTINUOUS
10
3.6244436220472438
20
-3.8763814173228344
11
3.6210030708661418
21
-3.8981112204724409
0
LINE
8
BLACK
6
CONTINUOUS
10
3.6210030708661418
20
-3.8981112204724409
11
3.6190713385826769
21
-3.9200267322834645
0
LINE
8
BLACK
6
CONTINUOUS
10
3.6190713385826769
20
-3.9200267322834645
11
3.6186576771653542
21
-3.9420233464566929
0
LINE
8
BLACK
6
CONTINUOUS
10
3.6186576771653542
20
-3.9420233464566929
11
3.6197640551181101
21
-3.9639960236220473
0
LINE
8
BLACK
6
CONTINUOUS
10
3.6197640551181101
20
-3.9639960236220473
11
3.6223851968503937
21
-3.9858398031496063
0
LINE
8
BLACK
6
CONTINUOUS
10
3.6223851968503937
20
-3.9858398031496063
11
3.6265085433070867
21
-4.0074504330708658
0
LINE
8
BLACK
6
CONTINUOUS
10
3.6265085433070867
20
-4.0074504330708658
11
3.6321144488188977
21
-4.0287247244094484
0
LINE
8
BLACK
6
CONTINUOUS
10
3.6321144488188977
20
-4.0287247244094484
11
3.6391761023622045
21
-4.0495611023622047
0
LINE
8
BLACK
6
CONTINUOUS
10
3.6391761023622045
20
-4.0495611023622047
11
3.6476598425196851
21
-4.0698600787401578
0
LINE
8
BLACK
6
CONTINUOUS
10
3.6476598425196851
20
-4.0698600787401578
11
3.657525118110236
21
-4.0895247244094488
0
LINE
8
BLACK
6
CONTINUOUS
10
3.657525118110236
20
-4.0895247244094488
11
3.6687248818897635
21
-4.1084611417322829
0
LINE
8
BLACK
6
CONTINUOUS
10
3.6687248818897635
20
-4.1084611417322829
11
3.6812055905511811
21
-4.1265788976377955
0
LINE
8
BLACK
6
CONTINUOUS
10
3.6812055905511811
20
-4.1265788976377955
11
3.6949076771653542
21
-4.1437915354330705
0
LINE
8
BLACK
6
CONTINUOUS
10
3.6949076771653542
20
-4.1437915354330705
11
3.7097657086614171
21
-4.1600168110236222
0
LINE
8
BLACK
6
CONTINUOUS
10
3.7097657086614171
20
-4.1600168110236222
11
3.725708779527559
21
-4.1751773228346458
0
LINE
8
BLACK
6
CONTINUOUS
10
3.725708779527559
20
-4.1751773228346458
11
3.7426607480314962
21
-4.1892006299212596
0
LINE
8
BLACK
6
CONTINUOUS
10
3.7426607480314962
20
-4.1892006299212596
11
3.7605406299212598
21
-4.2020197637795276
0
LINE
8
BLACK
6
CONTINUOUS
10
3.7605406299212598
20
-4.2020197637795276
11
3.7792631102362204
21
-4.2135735826771654
0
LINE
8
BLACK
6
CONTINUOUS
10
3.7792631102362204
20
-4.2135735826771654
11
3.7987388188976379
21
-4.223806850393701
0
LINE
8
BLACK
6
CONTINUOUS
10
3.7987388188976379
20
-4.223806850393701
11
3.8188746850393698
21
-4.232670748031496
0
LINE
8
BLACK
6
CONTINUOUS
10
3.8188746850393698
20
-4.232670748031496
11
3.8395745669291337
21
-4.2401229527559057
0
LINE
8
BLACK
6
CONTINUOUS
10
3.8395745669291337
20
-4.2401229527559057
11
3.8607397244094486
21
-4.2461278346456695
0
LINE
8
BLACK
6
CONTINUOUS
10
3.8607397244094486
20
-4.2461278346456695
11
3.8822690157480313
21
-4.2506568110236218
0
LINE
8
BLACK
6
CONTINUOUS
10
3.8822690157480313
20
-4.2506568110236218
11
3.9040596456692911
21
-4.2536881496062993
0
LINE
8
BLACK
6
CONTINUOUS
10
3.9040596456692911
20
-4.2536881496062993
11
3.9260076377952755
21
-4.2552074803149607
0
LINE
8
BLACK
6
CONTINUOUS
10
3.9260076377952755
20
-4.2552074803149607
11
3.9480081496062991
21
-4.2552074803149607
0
LINE
8
BLACK
6
CONTINUOUS
10
3.9480081496062991
20
-4.2552074803149607
11
3.9699561023622048
21
-4.2536881496062993
0
LINE
8
BLACK
6
CONTINUOUS
10
3.9699561023622048
20
-4.2536881496062993
11
3.9917467716535433
21
-4.2506568110236218
0
LINE
8
BLACK
6
CONTINUOUS
10
3.9917467716535433
20
-4.2506568110236218
11
4.0132760629921256
21
-4.2461278346456695
0
LINE
8
BLACK
6
CONTINUOUS
10
4.0132760629921256
20
-4.2461278346456695
11
4.0344411811023617
21
-4.2401229527559057
0
LINE
8
BLACK
6
CONTINUOUS
10
4.0344411811023617
20
-4.2401229527559057
11
4.0551411023622048
21
-4.232670748031496
0
LINE
8
BLACK
6
CONTINUOUS
10
4.0551411023622048
20
-4.232670748031496
11
4.0752769685039372
21
-4.223806850393701
0
LINE
8
BLACK
6
CONTINUOUS
10
4.0752769685039372
20
-4.223806850393701
11
4.0947526377952759
21
-4.2135735826771654
0
LINE
8
BLACK
6
CONTINUOUS
10
4.0947526377952759
20
-4.2135735826771654
11
4.1134751181102365
21
-4.2020197637795276
0
LINE
8
BLACK
6
CONTINUOUS
10
4.1134751181102365
20
-4.2020197637795276
11
4.1313550393700789
21
-4.1892005905511809
0
LINE
8
BLACK
6
CONTINUOUS
10
4.1313550393700789
20
-4.1892005905511809
11
4.1483069685039373
21
-4.1751773228346458
0
LINE
8
BLACK
6
CONTINUOUS
10
4.1483069685039373
20
-4.1751773228346458
11
4.1642500393700788
21
-4.1600168110236222
0
LINE
8
BLACK
6
CONTINUOUS
10
4.1642500393700788
20
-4.1600168110236222
11
4.1791081102362204
21
-4.1437915354330705
0
LINE
8
BLACK
6
CONTINUOUS
10
4.1791081102362204
20
-4.1437915354330705
11
4.1928101968503935
21
-4.1265788976377955
0
LINE
8
BLACK
6
CONTINUOUS
10
4.1928101968503935
20
-4.1265788976377955
11
4.2052909055118111
21
-4.1084611023622042
0
LINE
8
BLACK
6
CONTINUOUS
10
4.2052909055118111
20
-4.1084611023622042
11
4.2164906299212594
21
-4.0895247244094488
0
LINE
8
BLACK
6
CONTINUOUS
10
4.2164906299212594
20
-4.0895247244094488
11
4.2263559055118112
21
-4.0698600787401578
0
LINE
8
BLACK
6
CONTINUOUS
10
4.2263559055118112
20
-4.0698600787401578
11
4.2348396456692914
21
-4.0495611023622047
0
LINE
8
BLACK
6
CONTINUOUS
10
4.2348396456692914
20
-4.0495611023622047
11
4.2419012992125982
21
-4.0287247244094484
0
LINE
8
BLACK
6
CONTINUOUS
10
4.2419012992125982
20
-4.0287247244094484
11
4.2475072047244096
21
-4.0074504330708658
0
LINE
8
BLACK
6
CONTINUOUS
10
4.2475072047244096
20
-4.0074504330708658
11
4.2516305511811021
21
-3.9858398031496063
0
LINE
8
BLACK
6
CONTINUOUS
10
4.2516305511811021
20
-3.9858398031496063
11
4.2542516929133853
21
-3.9639959842519685
0
LINE
8
BLACK
6
CONTINUOUS
10
4.2542516929133853
20
-3.9639959842519685
11
4.2553580708661416
21
-3.9420233464566929
0
LINE
8
BLACK
6
CONTINUOUS
10
4.2553580708661416
20
-3.9420233464566929
11
4.2549444094488189
21
-3.9200267322834645
0
LINE
8
BLACK
6
CONTINUOUS
10
4.2549444094488189
20
-3.9200267322834645
11
4.253012677165354
21
-3.8981112204724409
0
LINE
8
BLACK
6
CONTINUOUS
10
4.253012677165354
20
-3.8981112204724409
11
4.249572125984252
21
-3.8763813779527556
0
LINE
8
BLACK
6
CONTINUOUS
10
4.249572125984252
20
-3.8763813779527556
11
4.2446392125984254
21
-3.8549410629921259
0
LINE
8
BLACK
6
CONTINUOUS
10
4.2446392125984254
20
-3.8549410629921259
11
4.2382374015748034
21
-3.8338925590551178
0
LINE
8
BLACK
6
CONTINUOUS
10
4.2382374015748034
20
-3.8338925590551178
11
4.2303973228346452
21
-3.8133364566929133
0
LINE
8
BLACK
6
CONTINUOUS
10
4.2303973228346452
20
-3.8133364566929133
11
4.2211563779527559
21
-3.7933707874015745
0
LINE
8
BLACK
6
CONTINUOUS
10
4.2211563779527559
20
-3.7933707874015745
11
4.21055874015748
21
-3.7740909842519685
0
LINE
8
BLACK
6
CONTINUOUS
10
4.21055874015748
20
-3.7740909842519685
11
4.1986549606299208
21
-3.7555890157480314
0
LINE
8
BLACK
6
CONTINUOUS
10
4.1986549606299208
20
-3.7555890157480314
11
4.1855018897637795
21
-3.737953307086614
0
LINE
8
BLACK
6
CONTINUOUS
10
4.1855018897637795
20
-3.737953307086614
11
4.1711623228346459
21
-3.7212680314960629
0
LINE
8
BLACK
6
CONTINUOUS
10
4.1711623228346459
20
-3.7212680314960629
11
4.1557047637795277
21
-3.7056128346456694
0
LINE
8
BLACK
6
CONTINUOUS
10
4.1557047637795277
20
-3.7056128346456694
11
4.1392029527559053
21
-3.6910624803149608
0
LINE
8
BLACK
6
CONTINUOUS
10
4.1392029527559053
20
-3.6910624803149608
11
4.1217357480314956
21
-3.6776864566929133
0
LINE
8
BLACK
6
CONTINUOUS
10
4.1217357480314956
20
-3.6776864566929133
11
4.103386496062992
21
-3.6655485826771654
0
LINE
8
BLACK
6
CONTINUOUS
10
4.103386496062992
20
-3.6655485826771654
11
4.0842428740157484
21
-3.6547068897637796
0
LINE
8
BLACK
6
CONTINUOUS
10
4.0842428740157484
20
-3.6547068897637796
11
4.0743196850393701
21
-3.6499596456692913
0
LINE
8
BLACK
6
CONTINUOUS
10
4.0743196850393701
20
-3.6499596456692913
11
4.0743197244094489
21
-3.6499596456692913
0
LINE
8
BLACK
6
CONTINUOUS
10
4.0743197244094489
20
-3.6499596456692913
11
4.0738789370078736
21
-3.6495403937007875
0
LINE
8
BLACK
6
CONTINUOUS
10
4.0738789370078736
20
-3.6495403937007875
11
4.0738680314960627
21
-3.6494812992125985
0
LINE
8
BLACK
6
CONTINUOUS
10
4.0738680314960627
20
-3.6494812992125985
11
4.0738351181102361
21
-3.6494483858267714
0
LINE
8
BLACK
6
CONTINUOUS
10
4.0738351181102361
20
-3.6494483858267714
11
4.0737601968503938
21
-3.6490717322834643
0
LINE
8
BLACK
6
CONTINUOUS
10
4.0737601968503938
20
-3.6490717322834643
11
4.0737601968503938
21
-3.6230314960629921
0
LINE
8
BLACK
6
CONTINUOUS
10
4.0737601968503938
20
-3.6230314960629921
11
3.8002555511811025
21
-3.6230314960629921
  0
ENDSEC
  0
EOF
