  0
SECTION
  2
HEADER
  9
$ANGBASE
  50
0.0
  9
$ANGDIR
  70
1
  9
$MEASUREMENT
  70
0
  0
ENDSEC
  0
SECTION
  2
TABLES
  0
TABLE
  2
LTYPE
  70
4
  0
LTYPE
  5
40F
  2
CONTINUOUS
  70
0
  3
Solid line
  72
65
  73
0
  40
0.0
  0
LTYPE
  5
410
  2
DASHDOT
 70
0
  3
Dash Dot ____ _ ____ _
 72
65
 73
4
 40
2.0
 49
1.25
 49
-0.25
 49
0.25
 49
-0.25
  0
LTYPE
  5
411
  2
DASHED
 70
0
  3
Dashed __ __ __ __ __
 72
65
 73
2
 40
0.75
 49
0.5
 49
-0.25
  0
LTYPE
  5
43B
  2
DOTTED
 70
0
  3
Dotted .  .  .  .
 72
65
 73
2
 40
0.2
 49
0.0
 49
-0.2
  0
ENDTAB
  0
TABLE
  2
STYLE
  70
4
  0
STYLE
  2
KICAD
  70
0
  40
0
  41
1
  42
1
  50
0
  71
0
  3
isocp.shx
  0
STYLE
  2
KICADB
  70
0
  40
0
  41
1
  42
1
  50
0
  71
0
  3
isocp.shx
  0
STYLE
  2
KICADI
  70
0
  40
0
  41
1
  42
1
  50
15
  71
0
  3
isocp.shx
  0
STYLE
  2
KICADBI
  70
0
  40
0
  41
1
  42
1
  50
15
  71
0
  3
isocp.shx
  0
ENDTAB
  0
TABLE
  2
LAYER
  70
1
  0
LAYER
  2
BLACK
  70
0
  62
7
  6
CONTINUOUS
  0
ENDTAB
  0
ENDSEC
  0
SECTION
  2
ENTITIES
0
LINE
8
BLACK
6
CONTINUOUS
10
3.7696850393700787
20
-4.372047244094488
11
3.7027559055118111
21
-4.372047244094488
0
LINE
8
BLACK
6
CONTINUOUS
10
3.7027559055118111
20
-4.372047244094488
11
3.7027559055118111
21
-4.3051181102362204
0
LINE
8
BLACK
6
CONTINUOUS
10
3.7027559055118111
20
-4.3051181102362204
11
3.7696850393700787
21
-4.3051181102362204
0
LINE
8
BLACK
6
CONTINUOUS
10
3.7696850393700787
20
-4.3051181102362204
11
3.7696850393700787
21
-4.372047244094488
0
LINE
8
BLACK
6
CONTINUOUS
10
3.8459347244094486
20
-4.3065590944881889
11
3.8519955511811022
21
-4.3090695669291339
0
LINE
8
BLACK
6
CONTINUOUS
10
3.8519955511811022
20
-4.3090695669291339
11
3.8574501574803151
21
-4.3127142125984248
0
LINE
8
BLACK
6
CONTINUOUS
10
3.8574501574803151
20
-4.3127142125984248
11
3.8620889370078739
21
-4.3173529921259846
0
LINE
8
BLACK
6
CONTINUOUS
10
3.8620889370078739
20
-4.3173529921259846
11
3.8657335826771653
21
-4.3228075984251966
0
LINE
8
BLACK
6
CONTINUOUS
10
3.8657335826771653
20
-4.3228075984251966
11
3.8682440551181103
21
-4.3288684251968501
0
LINE
8
BLACK
6
CONTINUOUS
10
3.8682440551181103
20
-4.3288684251968501
11
3.8695238976377953
21
-4.3353025590551182
0
LINE
8
BLACK
6
CONTINUOUS
10
3.8695238976377953
20
-4.3353025590551182
11
3.8695238976377953
21
-4.3418627952755902
0
LINE
8
BLACK
6
CONTINUOUS
10
3.8695238976377953
20
-4.3418627952755902
11
3.8682440551181103
21
-4.3482969291338582
0
LINE
8
BLACK
6
CONTINUOUS
10
3.8682440551181103
20
-4.3482969291338582
11
3.8657335826771653
21
-4.3543577559055118
0
LINE
8
BLACK
6
CONTINUOUS
10
3.8657335826771653
20
-4.3543577559055118
11
3.8620889370078739
21
-4.3598123622047247
0
LINE
8
BLACK
6
CONTINUOUS
10
3.8620889370078739
20
-4.3598123622047247
11
3.8574501574803151
21
-4.3644511417322835
0
LINE
8
BLACK
6
CONTINUOUS
10
3.8574501574803151
20
-4.3644511417322835
11
3.8519955511811022
21
-4.3680957874015744
0
LINE
8
BLACK
6
CONTINUOUS
10
3.8519955511811022
20
-4.3680957874015744
11
3.8459347244094486
21
-4.3706062598425195
0
LINE
8
BLACK
6
CONTINUOUS
10
3.8459347244094486
20
-4.3706062598425195
11
3.839500590551181
21
-4.3718861023622049
0
LINE
8
BLACK
6
CONTINUOUS
10
3.839500590551181
20
-4.3718861023622049
11
3.8329403543307086
21
-4.3718861023622049
0
LINE
8
BLACK
6
CONTINUOUS
10
3.8329403543307086
20
-4.3718861023622049
11
3.8265062204724409
21
-4.3706062598425195
0
LINE
8
BLACK
6
CONTINUOUS
10
3.8265062204724409
20
-4.3706062598425195
11
3.8204453937007874
21
-4.3680957874015744
0
LINE
8
BLACK
6
CONTINUOUS
10
3.8204453937007874
20
-4.3680957874015744
11
3.8149907874015749
21
-4.3644511417322835
0
LINE
8
BLACK
6
CONTINUOUS
10
3.8149907874015749
20
-4.3644511417322835
11
3.8103520078740156
21
-4.3598123622047247
0
LINE
8
BLACK
6
CONTINUOUS
10
3.8103520078740156
20
-4.3598123622047247
11
3.8067073622047243
21
-4.3543577559055118
0
LINE
8
BLACK
6
CONTINUOUS
10
3.8067073622047243
20
-4.3543577559055118
11
3.8041968897637792
21
-4.3482969291338582
0
LINE
8
BLACK
6
CONTINUOUS
10
3.8041968897637792
20
-4.3482969291338582
11
3.8029170472440943
21
-4.3418627952755902
0
LINE
8
BLACK
6
CONTINUOUS
10
3.8029170472440943
20
-4.3418627952755902
11
3.8029170472440943
21
-4.3353025590551182
0
LINE
8
BLACK
6
CONTINUOUS
10
3.8029170472440943
20
-4.3353025590551182
11
3.8041968897637792
21
-4.3288684251968501
0
LINE
8
BLACK
6
CONTINUOUS
10
3.8041968897637792
20
-4.3288684251968501
11
3.8067073622047243
21
-4.3228075984251966
0
LINE
8
BLACK
6
CONTINUOUS
10
3.8067073622047243
20
-4.3228075984251966
11
3.8103520078740156
21
-4.3173529921259846
0
LINE
8
BLACK
6
CONTINUOUS
10
3.8103520078740156
20
-4.3173529921259846
11
3.8149907874015749
21
-4.3127142125984248
0
LINE
8
BLACK
6
CONTINUOUS
10
3.8149907874015749
20
-4.3127142125984248
11
3.8204453937007874
21
-4.3090695669291339
0
LINE
8
BLACK
6
CONTINUOUS
10
3.8204453937007874
20
-4.3090695669291339
11
3.8265062204724409
21
-4.3065590944881889
0
LINE
8
BLACK
6
CONTINUOUS
10
3.8265062204724409
20
-4.3065590944881889
11
3.8329403543307086
21
-4.3052792519685035
0
LINE
8
BLACK
6
CONTINUOUS
10
3.8329403543307086
20
-4.3052792519685035
11
3.839500590551181
21
-4.3052792519685035
0
LINE
8
BLACK
6
CONTINUOUS
10
3.839500590551181
20
-4.3052792519685035
11
3.8459347244094486
21
-4.3065590944881889
0
LINE
8
BLACK
6
CONTINUOUS
10
3.9459347244094487
20
-4.3065590944881889
11
3.9519955511811022
21
-4.3090695669291339
0
LINE
8
BLACK
6
CONTINUOUS
10
3.9519955511811022
20
-4.3090695669291339
11
3.9574501574803147
21
-4.3127142125984248
0
LINE
8
BLACK
6
CONTINUOUS
10
3.9574501574803147
20
-4.3127142125984248
11
3.962088937007874
21
-4.3173529921259846
0
LINE
8
BLACK
6
CONTINUOUS
10
3.962088937007874
20
-4.3173529921259846
11
3.9657335826771654
21
-4.3228075984251966
0
LINE
8
BLACK
6
CONTINUOUS
10
3.9657335826771654
20
-4.3228075984251966
11
3.96824405511811
21
-4.3288684251968501
0
LINE
8
BLACK
6
CONTINUOUS
10
3.96824405511811
20
-4.3288684251968501
11
3.9695238976377953
21
-4.3353025590551182
0
LINE
8
BLACK
6
CONTINUOUS
10
3.9695238976377953
20
-4.3353025590551182
11
3.9695238976377953
21
-4.3418627952755902
0
LINE
8
BLACK
6
CONTINUOUS
10
3.9695238976377953
20
-4.3418627952755902
11
3.96824405511811
21
-4.3482969291338582
0
LINE
8
BLACK
6
CONTINUOUS
10
3.96824405511811
20
-4.3482969291338582
11
3.9657335826771654
21
-4.3543577559055118
0
LINE
8
BLACK
6
CONTINUOUS
10
3.9657335826771654
20
-4.3543577559055118
11
3.962088937007874
21
-4.3598123622047247
0
LINE
8
BLACK
6
CONTINUOUS
10
3.962088937007874
20
-4.3598123622047247
11
3.9574501574803147
21
-4.3644511417322835
0
LINE
8
BLACK
6
CONTINUOUS
10
3.9574501574803147
20
-4.3644511417322835
11
3.9519955511811022
21
-4.3680957874015744
0
LINE
8
BLACK
6
CONTINUOUS
10
3.9519955511811022
20
-4.3680957874015744
11
3.9459347244094487
21
-4.3706062598425195
0
LINE
8
BLACK
6
CONTINUOUS
10
3.9459347244094487
20
-4.3706062598425195
11
3.9395005905511811
21
-4.3718861023622049
0
LINE
8
BLACK
6
CONTINUOUS
10
3.9395005905511811
20
-4.3718861023622049
11
3.9329403543307087
21
-4.3718861023622049
0
LINE
8
BLACK
6
CONTINUOUS
10
3.9329403543307087
20
-4.3718861023622049
11
3.926506220472441
21
-4.3706062598425195
0
LINE
8
BLACK
6
CONTINUOUS
10
3.926506220472441
20
-4.3706062598425195
11
3.9204453937007875
21
-4.3680957874015744
0
LINE
8
BLACK
6
CONTINUOUS
10
3.9204453937007875
20
-4.3680957874015744
11
3.9149907874015746
21
-4.3644511417322835
0
LINE
8
BLACK
6
CONTINUOUS
10
3.9149907874015746
20
-4.3644511417322835
11
3.9103520078740157
21
-4.3598123622047247
0
LINE
8
BLACK
6
CONTINUOUS
10
3.9103520078740157
20
-4.3598123622047247
11
3.9067073622047244
21
-4.3543577559055118
0
LINE
8
BLACK
6
CONTINUOUS
10
3.9067073622047244
20
-4.3543577559055118
11
3.9041968897637793
21
-4.3482969291338582
0
LINE
8
BLACK
6
CONTINUOUS
10
3.9041968897637793
20
-4.3482969291338582
11
3.9029170472440944
21
-4.3418627952755902
0
LINE
8
BLACK
6
CONTINUOUS
10
3.9029170472440944
20
-4.3418627952755902
11
3.9029170472440944
21
-4.3353025590551182
0
LINE
8
BLACK
6
CONTINUOUS
10
3.9029170472440944
20
-4.3353025590551182
11
3.9041968897637793
21
-4.3288684251968501
0
LINE
8
BLACK
6
CONTINUOUS
10
3.9041968897637793
20
-4.3288684251968501
11
3.9067073622047244
21
-4.3228075984251966
0
LINE
8
BLACK
6
CONTINUOUS
10
3.9067073622047244
20
-4.3228075984251966
11
3.9103520078740157
21
-4.3173529921259846
0
LINE
8
BLACK
6
CONTINUOUS
10
3.9103520078740157
20
-4.3173529921259846
11
3.9149907874015746
21
-4.3127142125984248
0
LINE
8
BLACK
6
CONTINUOUS
10
3.9149907874015746
20
-4.3127142125984248
11
3.9204453937007875
21
-4.3090695669291339
0
LINE
8
BLACK
6
CONTINUOUS
10
3.9204453937007875
20
-4.3090695669291339
11
3.926506220472441
21
-4.3065590944881889
0
LINE
8
BLACK
6
CONTINUOUS
10
3.926506220472441
20
-4.3065590944881889
11
3.9329403543307087
21
-4.3052792519685035
0
LINE
8
BLACK
6
CONTINUOUS
10
3.9329403543307087
20
-4.3052792519685035
11
3.9395005905511811
21
-4.3052792519685035
0
LINE
8
BLACK
6
CONTINUOUS
10
3.9395005905511811
20
-4.3052792519685035
11
3.9459347244094487
21
-4.3065590944881889
0
LINE
8
BLACK
6
CONTINUOUS
10
4.0459347244094488
20
-4.3065590944881889
11
4.0519955511811023
21
-4.3090695669291339
0
LINE
8
BLACK
6
CONTINUOUS
10
4.0519955511811023
20
-4.3090695669291339
11
4.0574501574803152
21
-4.3127142125984248
0
LINE
8
BLACK
6
CONTINUOUS
10
4.0574501574803152
20
-4.3127142125984248
11
4.0620889370078741
21
-4.3173529921259846
0
LINE
8
BLACK
6
CONTINUOUS
10
4.0620889370078741
20
-4.3173529921259846
11
4.065733582677165
21
-4.3228075984251966
0
LINE
8
BLACK
6
CONTINUOUS
10
4.065733582677165
20
-4.3228075984251966
11
4.06824405511811
21
-4.3288684251968501
0
LINE
8
BLACK
6
CONTINUOUS
10
4.06824405511811
20
-4.3288684251968501
11
4.0695238976377954
21
-4.3353025590551182
0
LINE
8
BLACK
6
CONTINUOUS
10
4.0695238976377954
20
-4.3353025590551182
11
4.0695238976377954
21
-4.3418627952755902
0
LINE
8
BLACK
6
CONTINUOUS
10
4.0695238976377954
20
-4.3418627952755902
11
4.06824405511811
21
-4.3482969291338582
0
LINE
8
BLACK
6
CONTINUOUS
10
4.06824405511811
20
-4.3482969291338582
11
4.065733582677165
21
-4.3543577559055118
0
LINE
8
BLACK
6
CONTINUOUS
10
4.065733582677165
20
-4.3543577559055118
11
4.0620889370078741
21
-4.3598123622047247
0
LINE
8
BLACK
6
CONTINUOUS
10
4.0620889370078741
20
-4.3598123622047247
11
4.0574501574803152
21
-4.3644511417322835
0
LINE
8
BLACK
6
CONTINUOUS
10
4.0574501574803152
20
-4.3644511417322835
11
4.0519955511811023
21
-4.3680957874015744
0
LINE
8
BLACK
6
CONTINUOUS
10
4.0519955511811023
20
-4.3680957874015744
11
4.0459347244094488
21
-4.3706062598425195
0
LINE
8
BLACK
6
CONTINUOUS
10
4.0459347244094488
20
-4.3706062598425195
11
4.0395005905511807
21
-4.3718861023622049
0
LINE
8
BLACK
6
CONTINUOUS
10
4.0395005905511807
20
-4.3718861023622049
11
4.0329403543307087
21
-4.3718861023622049
0
LINE
8
BLACK
6
CONTINUOUS
10
4.0329403543307087
20
-4.3718861023622049
11
4.0265062204724407
21
-4.3706062598425195
0
LINE
8
BLACK
6
CONTINUOUS
10
4.0265062204724407
20
-4.3706062598425195
11
4.0204453937007871
21
-4.3680957874015744
0
LINE
8
BLACK
6
CONTINUOUS
10
4.0204453937007871
20
-4.3680957874015744
11
4.0149907874015751
21
-4.3644511417322835
0
LINE
8
BLACK
6
CONTINUOUS
10
4.0149907874015751
20
-4.3644511417322835
11
4.0103520078740154
21
-4.3598123622047247
0
LINE
8
BLACK
6
CONTINUOUS
10
4.0103520078740154
20
-4.3598123622047247
11
4.0067073622047245
21
-4.3543577559055118
0
LINE
8
BLACK
6
CONTINUOUS
10
4.0067073622047245
20
-4.3543577559055118
11
4.0041968897637794
21
-4.3482969291338582
0
LINE
8
BLACK
6
CONTINUOUS
10
4.0041968897637794
20
-4.3482969291338582
11
4.002917047244094
21
-4.3418627952755902
0
LINE
8
BLACK
6
CONTINUOUS
10
4.002917047244094
20
-4.3418627952755902
11
4.002917047244094
21
-4.3353025590551182
0
LINE
8
BLACK
6
CONTINUOUS
10
4.002917047244094
20
-4.3353025590551182
11
4.0041968897637794
21
-4.3288684251968501
0
LINE
8
BLACK
6
CONTINUOUS
10
4.0041968897637794
20
-4.3288684251968501
11
4.0067073622047245
21
-4.3228075984251966
0
LINE
8
BLACK
6
CONTINUOUS
10
4.0067073622047245
20
-4.3228075984251966
11
4.0103520078740154
21
-4.3173529921259846
0
LINE
8
BLACK
6
CONTINUOUS
10
4.0103520078740154
20
-4.3173529921259846
11
4.0149907874015751
21
-4.3127142125984248
0
LINE
8
BLACK
6
CONTINUOUS
10
4.0149907874015751
20
-4.3127142125984248
11
4.0204453937007871
21
-4.3090695669291339
0
LINE
8
BLACK
6
CONTINUOUS
10
4.0204453937007871
20
-4.3090695669291339
11
4.0265062204724407
21
-4.3065590944881889
0
LINE
8
BLACK
6
CONTINUOUS
10
4.0265062204724407
20
-4.3065590944881889
11
4.0329403543307087
21
-4.3052792519685035
0
LINE
8
BLACK
6
CONTINUOUS
10
4.0329403543307087
20
-4.3052792519685035
11
4.0395005905511807
21
-4.3052792519685035
0
LINE
8
BLACK
6
CONTINUOUS
10
4.0395005905511807
20
-4.3052792519685035
11
4.0459347244094488
21
-4.3065590944881889
0
LINE
8
BLACK
6
CONTINUOUS
10
4.1459347244094484
20
-4.3065590944881889
11
4.151995551181102
21
-4.3090695669291339
0
LINE
8
BLACK
6
CONTINUOUS
10
4.151995551181102
20
-4.3090695669291339
11
4.1574501574803149
21
-4.3127142125984248
0
LINE
8
BLACK
6
CONTINUOUS
10
4.1574501574803149
20
-4.3127142125984248
11
4.1620889370078737
21
-4.3173529921259846
0
LINE
8
BLACK
6
CONTINUOUS
10
4.1620889370078737
20
-4.3173529921259846
11
4.1657335826771655
21
-4.3228075984251966
0
LINE
8
BLACK
6
CONTINUOUS
10
4.1657335826771655
20
-4.3228075984251966
11
4.1682440551181106
21
-4.3288684251968501
0
LINE
8
BLACK
6
CONTINUOUS
10
4.1682440551181106
20
-4.3288684251968501
11
4.1695238976377951
21
-4.3353025590551182
0
LINE
8
BLACK
6
CONTINUOUS
10
4.1695238976377951
20
-4.3353025590551182
11
4.1695238976377951
21
-4.3418627952755902
0
LINE
8
BLACK
6
CONTINUOUS
10
4.1695238976377951
20
-4.3418627952755902
11
4.1682440551181106
21
-4.3482969291338582
0
LINE
8
BLACK
6
CONTINUOUS
10
4.1682440551181106
20
-4.3482969291338582
11
4.1657335826771655
21
-4.3543577559055118
0
LINE
8
BLACK
6
CONTINUOUS
10
4.1657335826771655
20
-4.3543577559055118
11
4.1620889370078737
21
-4.3598123622047247
0
LINE
8
BLACK
6
CONTINUOUS
10
4.1620889370078737
20
-4.3598123622047247
11
4.1574501574803149
21
-4.3644511417322835
0
LINE
8
BLACK
6
CONTINUOUS
10
4.1574501574803149
20
-4.3644511417322835
11
4.151995551181102
21
-4.3680957874015744
0
LINE
8
BLACK
6
CONTINUOUS
10
4.151995551181102
20
-4.3680957874015744
11
4.1459347244094484
21
-4.3706062598425195
0
LINE
8
BLACK
6
CONTINUOUS
10
4.1459347244094484
20
-4.3706062598425195
11
4.1395005905511812
21
-4.3718861023622049
0
LINE
8
BLACK
6
CONTINUOUS
10
4.1395005905511812
20
-4.3718861023622049
11
4.1329403543307084
21
-4.3718861023622049
0
LINE
8
BLACK
6
CONTINUOUS
10
4.1329403543307084
20
-4.3718861023622049
11
4.1265062204724412
21
-4.3706062598425195
0
LINE
8
BLACK
6
CONTINUOUS
10
4.1265062204724412
20
-4.3706062598425195
11
4.1204453937007877
21
-4.3680957874015744
0
LINE
8
BLACK
6
CONTINUOUS
10
4.1204453937007877
20
-4.3680957874015744
11
4.1149907874015748
21
-4.3644511417322835
0
LINE
8
BLACK
6
CONTINUOUS
10
4.1149907874015748
20
-4.3644511417322835
11
4.1103520078740159
21
-4.3598123622047247
0
LINE
8
BLACK
6
CONTINUOUS
10
4.1103520078740159
20
-4.3598123622047247
11
4.1067073622047241
21
-4.3543577559055118
0
LINE
8
BLACK
6
CONTINUOUS
10
4.1067073622047241
20
-4.3543577559055118
11
4.1041968897637791
21
-4.3482969291338582
0
LINE
8
BLACK
6
CONTINUOUS
10
4.1041968897637791
20
-4.3482969291338582
11
4.1029170472440946
21
-4.3418627952755902
0
LINE
8
BLACK
6
CONTINUOUS
10
4.1029170472440946
20
-4.3418627952755902
11
4.1029170472440946
21
-4.3353025590551182
0
LINE
8
BLACK
6
CONTINUOUS
10
4.1029170472440946
20
-4.3353025590551182
11
4.1041968897637791
21
-4.3288684251968501
0
LINE
8
BLACK
6
CONTINUOUS
10
4.1041968897637791
20
-4.3288684251968501
11
4.1067073622047241
21
-4.3228075984251966
0
LINE
8
BLACK
6
CONTINUOUS
10
4.1067073622047241
20
-4.3228075984251966
11
4.1103520078740159
21
-4.3173529921259846
0
LINE
8
BLACK
6
CONTINUOUS
10
4.1103520078740159
20
-4.3173529921259846
11
4.1149907874015748
21
-4.3127142125984248
0
LINE
8
BLACK
6
CONTINUOUS
10
4.1149907874015748
20
-4.3127142125984248
11
4.1204453937007877
21
-4.3090695669291339
0
LINE
8
BLACK
6
CONTINUOUS
10
4.1204453937007877
20
-4.3090695669291339
11
4.1265062204724412
21
-4.3065590944881889
0
LINE
8
BLACK
6
CONTINUOUS
10
4.1265062204724412
20
-4.3065590944881889
11
4.1329403543307084
21
-4.3052792519685035
0
LINE
8
BLACK
6
CONTINUOUS
10
4.1329403543307084
20
-4.3052792519685035
11
4.1395005905511812
21
-4.3052792519685035
0
LINE
8
BLACK
6
CONTINUOUS
10
4.1395005905511812
20
-4.3052792519685035
11
4.1459347244094484
21
-4.3065590944881889
0
LINE
8
BLACK
6
CONTINUOUS
10
3.8664331889763779
20
-4.0006463779527559
11
3.8683490551181103
21
-4.0019265354330704
0
LINE
8
BLACK
6
CONTINUOUS
10
3.8683490551181103
20
-4.0019265354330704
11
3.8696292125984253
21
-4.0038424015748033
0
LINE
8
BLACK
6
CONTINUOUS
10
3.8696292125984253
20
-4.0038424015748033
11
3.8700787401574801
21
-4.0061023622047243
0
LINE
8
BLACK
6
CONTINUOUS
10
3.8700787401574801
20
-4.0061023622047243
11
3.8700787401574801
21
-4.0179133858267715
0
LINE
8
BLACK
6
CONTINUOUS
10
3.8700787401574801
20
-4.0179133858267715
11
3.8696292125984253
21
-4.0201733464566924
0
LINE
8
BLACK
6
CONTINUOUS
10
3.8696292125984253
20
-4.0201733464566924
11
3.8683490551181103
21
-4.0220892125984253
0
LINE
8
BLACK
6
CONTINUOUS
10
3.8683490551181103
20
-4.0220892125984253
11
3.8664331889763779
21
-4.0233693700787398
0
LINE
8
BLACK
6
CONTINUOUS
10
3.8664331889763779
20
-4.0233693700787398
11
3.8641732283464565
21
-4.0238188976377955
0
LINE
8
BLACK
6
CONTINUOUS
10
3.8641732283464565
20
-4.0238188976377955
11
3.8395669291338583
21
-4.0238188976377955
0
LINE
8
BLACK
6
CONTINUOUS
10
3.8395669291338583
20
-4.0238188976377955
11
3.8395669291338583
21
-4.0446290551181105
0
LINE
8
BLACK
6
CONTINUOUS
10
3.8395669291338583
20
-4.0446290551181105
11
3.841414212598425
21
-4.0464763385826767
0
LINE
8
BLACK
6
CONTINUOUS
10
3.841414212598425
20
-4.0464763385826767
11
3.8419368110236221
21
-4.0461746456692911
0
LINE
8
BLACK
6
CONTINUOUS
10
3.8419368110236221
20
-4.0461746456692911
11
3.8449150393700786
21
-4.0453766535433067
0
LINE
8
BLACK
6
CONTINUOUS
10
3.8449150393700786
20
-4.0453766535433067
11
3.8479983464566927
21
-4.0453766535433067
0
LINE
8
BLACK
6
CONTINUOUS
10
3.8479983464566927
20
-4.0453766535433067
11
3.8509765748031497
21
-4.0461746456692911
0
LINE
8
BLACK
6
CONTINUOUS
10
3.8509765748031497
20
-4.0461746456692911
11
3.8536467716535432
21
-4.0477162992125981
0
LINE
8
BLACK
6
CONTINUOUS
10
3.8536467716535432
20
-4.0477162992125981
11
3.8558270078740158
21
-4.0498965354330707
0
LINE
8
BLACK
6
CONTINUOUS
10
3.8558270078740158
20
-4.0498965354330707
11
3.8573686614173228
21
-4.0525667322834646
0
LINE
8
BLACK
6
CONTINUOUS
10
3.8573686614173228
20
-4.0525667322834646
11
3.8581666535433068
21
-4.0555449606299208
0
LINE
8
BLACK
6
CONTINUOUS
10
3.8581666535433068
20
-4.0555449606299208
11
3.8581666535433068
21
-4.0586282677165357
0
LINE
8
BLACK
6
CONTINUOUS
10
3.8581666535433068
20
-4.0586282677165357
11
3.8573686614173228
21
-4.0616064960629918
0
LINE
8
BLACK
6
CONTINUOUS
10
3.8573686614173228
20
-4.0616064960629918
11
3.8558270078740158
21
-4.0642766929133858
0
LINE
8
BLACK
6
CONTINUOUS
10
3.8558270078740158
20
-4.0642766929133858
11
3.8536467716535432
21
-4.0664569291338584
0
LINE
8
BLACK
6
CONTINUOUS
10
3.8536467716535432
20
-4.0664569291338584
11
3.8509765748031497
21
-4.0679985826771654
0
LINE
8
BLACK
6
CONTINUOUS
10
3.8509765748031497
20
-4.0679985826771654
11
3.8479983464566927
21
-4.0687965748031498
0
LINE
8
BLACK
6
CONTINUOUS
10
3.8479983464566927
20
-4.0687965748031498
11
3.8449150393700786
21
-4.0687965748031498
0
LINE
8
BLACK
6
CONTINUOUS
10
3.8449150393700786
20
-4.0687965748031498
11
3.8419368110236221
21
-4.0679985826771654
0
LINE
8
BLACK
6
CONTINUOUS
10
3.8419368110236221
20
-4.0679985826771654
11
3.8392666141732281
21
-4.0664569291338584
0
LINE
8
BLACK
6
CONTINUOUS
10
3.8392666141732281
20
-4.0664569291338584
11
3.837086377952756
21
-4.0642766929133858
0
LINE
8
BLACK
6
CONTINUOUS
10
3.837086377952756
20
-4.0642766929133858
11
3.8355447244094489
21
-4.0616064960629918
0
LINE
8
BLACK
6
CONTINUOUS
10
3.8355447244094489
20
-4.0616064960629918
11
3.8347467322834645
21
-4.0586282677165357
0
LINE
8
BLACK
6
CONTINUOUS
10
3.8347467322834645
20
-4.0586282677165357
11
3.8347467322834645
21
-4.0555449606299208
0
LINE
8
BLACK
6
CONTINUOUS
10
3.8347467322834645
20
-4.0555449606299208
11
3.8355447244094489
21
-4.0525667322834646
0
LINE
8
BLACK
6
CONTINUOUS
10
3.8355447244094489
20
-4.0525667322834646
11
3.8358464173228346
21
-4.052044133858268
0
LINE
8
BLACK
6
CONTINUOUS
10
3.8358464173228346
20
-4.052044133858268
11
3.832846023622047
21
-4.0490437401574804
0
LINE
8
BLACK
6
CONTINUOUS
10
3.832846023622047
20
-4.0490437401574804
11
3.8323564173228344
21
-4.0484471259842518
0
LINE
8
BLACK
6
CONTINUOUS
10
3.8323564173228344
20
-4.0484471259842518
11
3.8317685433070867
21
-4.0470279133858265
0
LINE
8
BLACK
6
CONTINUOUS
10
3.8317685433070867
20
-4.0470279133858265
11
3.8316929133858268
21
-4.0462598425196852
0
LINE
8
BLACK
6
CONTINUOUS
10
3.8316929133858268
20
-4.0462598425196852
11
3.8316929133858268
21
-4.0238188976377955
0
LINE
8
BLACK
6
CONTINUOUS
10
3.8316929133858268
20
-4.0238188976377955
11
3.8070866141732282
21
-4.0238188976377955
0
LINE
8
BLACK
6
CONTINUOUS
10
3.8070866141732282
20
-4.0238188976377955
11
3.8048266535433068
21
-4.0233693700787398
0
LINE
8
BLACK
6
CONTINUOUS
10
3.8048266535433068
20
-4.0233693700787398
11
3.8029107874015748
21
-4.0220892125984253
0
LINE
8
BLACK
6
CONTINUOUS
10
3.8029107874015748
20
-4.0220892125984253
11
3.8016306299212599
21
-4.0201733464566924
0
LINE
8
BLACK
6
CONTINUOUS
10
3.8016306299212599
20
-4.0201733464566924
11
3.8011811023622046
21
-4.0179133858267715
0
LINE
8
BLACK
6
CONTINUOUS
10
3.8011811023622046
20
-4.0179133858267715
11
3.8011811023622046
21
-4.0061023622047243
0
LINE
8
BLACK
6
CONTINUOUS
10
3.8011811023622046
20
-4.0061023622047243
11
3.8016306299212599
21
-4.0038424015748033
0
LINE
8
BLACK
6
CONTINUOUS
10
3.8016306299212599
20
-4.0038424015748033
11
3.8029107874015748
21
-4.0019265354330704
0
LINE
8
BLACK
6
CONTINUOUS
10
3.8029107874015748
20
-4.0019265354330704
11
3.8048266535433068
21
-4.0006463779527559
0
LINE
8
BLACK
6
CONTINUOUS
10
3.8048266535433068
20
-4.0006463779527559
11
3.8070866141732282
21
-4.0001968503937011
0
LINE
8
BLACK
6
CONTINUOUS
10
3.8070866141732282
20
-4.0001968503937011
11
3.8641732283464565
21
-4.0001968503937011
0
LINE
8
BLACK
6
CONTINUOUS
10
3.8641732283464565
20
-4.0001968503937011
11
3.8664331889763779
21
-4.0006463779527559
0
LINE
8
BLACK
6
CONTINUOUS
10
3.8664331889763779
20
-3.9506463779527556
11
3.8683490551181103
21
-3.9519265354330706
0
LINE
8
BLACK
6
CONTINUOUS
10
3.8683490551181103
20
-3.9519265354330706
11
3.8696292125984253
21
-3.953842401574803
0
LINE
8
BLACK
6
CONTINUOUS
10
3.8696292125984253
20
-3.953842401574803
11
3.8700787401574801
21
-3.9561023622047244
0
LINE
8
BLACK
6
CONTINUOUS
10
3.8700787401574801
20
-3.9561023622047244
11
3.8700787401574801
21
-3.9679133858267717
0
LINE
8
BLACK
6
CONTINUOUS
10
3.8700787401574801
20
-3.9679133858267717
11
3.8696292125984253
21
-3.9701733464566926
0
LINE
8
BLACK
6
CONTINUOUS
10
3.8696292125984253
20
-3.9701733464566926
11
3.8683490551181103
21
-3.9720892125984251
0
LINE
8
BLACK
6
CONTINUOUS
10
3.8683490551181103
20
-3.9720892125984251
11
3.8664331889763779
21
-3.97336937007874
0
LINE
8
BLACK
6
CONTINUOUS
10
3.8664331889763779
20
-3.97336937007874
11
3.8641732283464565
21
-3.9738188976377953
0
LINE
8
BLACK
6
CONTINUOUS
10
3.8641732283464565
20
-3.9738188976377953
11
3.8070866141732282
21
-3.9738188976377953
0
LINE
8
BLACK
6
CONTINUOUS
10
3.8070866141732282
20
-3.9738188976377953
11
3.8048266535433068
21
-3.97336937007874
0
LINE
8
BLACK
6
CONTINUOUS
10
3.8048266535433068
20
-3.97336937007874
11
3.8029107874015748
21
-3.9720892125984251
0
LINE
8
BLACK
6
CONTINUOUS
10
3.8029107874015748
20
-3.9720892125984251
11
3.8016306299212599
21
-3.9701733464566926
0
LINE
8
BLACK
6
CONTINUOUS
10
3.8016306299212599
20
-3.9701733464566926
11
3.8011811023622046
21
-3.9679133858267717
0
LINE
8
BLACK
6
CONTINUOUS
10
3.8011811023622046
20
-3.9679133858267717
11
3.8011811023622046
21
-3.9561023622047244
0
LINE
8
BLACK
6
CONTINUOUS
10
3.8011811023622046
20
-3.9561023622047244
11
3.8016306299212599
21
-3.953842401574803
0
LINE
8
BLACK
6
CONTINUOUS
10
3.8016306299212599
20
-3.953842401574803
11
3.8029107874015748
21
-3.9519265354330706
0
LINE
8
BLACK
6
CONTINUOUS
10
3.8029107874015748
20
-3.9519265354330706
11
3.8048266535433068
21
-3.9506463779527556
0
LINE
8
BLACK
6
CONTINUOUS
10
3.8048266535433068
20
-3.9506463779527556
11
3.8070866141732282
21
-3.9501968503937008
0
LINE
8
BLACK
6
CONTINUOUS
10
3.8070866141732282
20
-3.9501968503937008
11
3.8641732283464565
21
-3.9501968503937008
0
LINE
8
BLACK
6
CONTINUOUS
10
3.8641732283464565
20
-3.9501968503937008
11
3.8664331889763779
21
-3.9506463779527556
0
LINE
8
BLACK
6
CONTINUOUS
10
3.8664331889763779
20
-3.9006463779527558
11
3.8683490551181103
21
-3.9019265354330708
0
LINE
8
BLACK
6
CONTINUOUS
10
3.8683490551181103
20
-3.9019265354330708
11
3.8696292125984253
21
-3.9038424015748032
0
LINE
8
BLACK
6
CONTINUOUS
10
3.8696292125984253
20
-3.9038424015748032
11
3.8700787401574801
21
-3.9061023622047242
0
LINE
8
BLACK
6
CONTINUOUS
10
3.8700787401574801
20
-3.9061023622047242
11
3.8700787401574801
21
-3.9179133858267714
0
LINE
8
BLACK
6
CONTINUOUS
10
3.8700787401574801
20
-3.9179133858267714
11
3.8696292125984253
21
-3.9201733464566928
0
LINE
8
BLACK
6
CONTINUOUS
10
3.8696292125984253
20
-3.9201733464566928
11
3.8683490551181103
21
-3.9220892125984252
0
LINE
8
BLACK
6
CONTINUOUS
10
3.8683490551181103
20
-3.9220892125984252
11
3.8664331889763779
21
-3.9233693700787402
0
LINE
8
BLACK
6
CONTINUOUS
10
3.8664331889763779
20
-3.9233693700787402
11
3.8641732283464565
21
-3.923818897637795
0
LINE
8
BLACK
6
CONTINUOUS
10
3.8641732283464565
20
-3.923818897637795
11
3.8070866141732282
21
-3.923818897637795
0
LINE
8
BLACK
6
CONTINUOUS
10
3.8070866141732282
20
-3.923818897637795
11
3.8048266535433068
21
-3.9233693700787402
0
LINE
8
BLACK
6
CONTINUOUS
10
3.8048266535433068
20
-3.9233693700787402
11
3.8029107874015748
21
-3.9220892125984252
0
LINE
8
BLACK
6
CONTINUOUS
10
3.8029107874015748
20
-3.9220892125984252
11
3.8016306299212599
21
-3.9201733464566928
0
LINE
8
BLACK
6
CONTINUOUS
10
3.8016306299212599
20
-3.9201733464566928
11
3.8011811023622046
21
-3.9179133858267714
0
LINE
8
BLACK
6
CONTINUOUS
10
3.8011811023622046
20
-3.9179133858267714
11
3.8011811023622046
21
-3.9061023622047242
0
LINE
8
BLACK
6
CONTINUOUS
10
3.8011811023622046
20
-3.9061023622047242
11
3.8016306299212599
21
-3.9038424015748032
0
LINE
8
BLACK
6
CONTINUOUS
10
3.8016306299212599
20
-3.9038424015748032
11
3.8029107874015748
21
-3.9019265354330708
0
LINE
8
BLACK
6
CONTINUOUS
10
3.8029107874015748
20
-3.9019265354330708
11
3.8048266535433068
21
-3.9006463779527558
0
LINE
8
BLACK
6
CONTINUOUS
10
3.8048266535433068
20
-3.9006463779527558
11
3.8070866141732282
21
-3.9001968503937006
0
LINE
8
BLACK
6
CONTINUOUS
10
3.8070866141732282
20
-3.9001968503937006
11
3.8641732283464565
21
-3.9001968503937006
0
LINE
8
BLACK
6
CONTINUOUS
10
3.8641732283464565
20
-3.9001968503937006
11
3.8664331889763779
21
-3.9006463779527558
0
LINE
8
BLACK
6
CONTINUOUS
10
3.9710553149606298
20
-3.9930250393700786
11
3.9737255118110237
21
-3.9945666929133856
0
LINE
8
BLACK
6
CONTINUOUS
10
3.9737255118110237
20
-3.9945666929133856
11
3.9759057480314959
21
-3.9967469291338582
0
LINE
8
BLACK
6
CONTINUOUS
10
3.9759057480314959
20
-3.9967469291338582
11
3.9774474015748029
21
-3.9994171259842517
0
LINE
8
BLACK
6
CONTINUOUS
10
3.9774474015748029
20
-3.9994171259842517
11
3.9782453937007873
21
-4.0023953543307087
0
LINE
8
BLACK
6
CONTINUOUS
10
3.9782453937007873
20
-4.0023953543307087
11
3.9782453937007873
21
-4.0054786614173228
0
LINE
8
BLACK
6
CONTINUOUS
10
3.9782453937007873
20
-4.0054786614173228
11
3.9776891732283466
21
-4.0075544488188974
0
LINE
8
BLACK
6
CONTINUOUS
10
3.9776891732283466
20
-4.0075544488188974
11
3.9782055905511808
21
-4.0080708661417326
0
LINE
8
BLACK
6
CONTINUOUS
10
3.9782055905511808
20
-4.0080708661417326
11
4.0039370078740157
21
-4.0080708661417326
0
LINE
8
BLACK
6
CONTINUOUS
10
4.0039370078740157
20
-4.0080708661417326
11
4.0039370078740157
21
-4.0061023622047243
0
LINE
8
BLACK
6
CONTINUOUS
10
4.0039370078740157
20
-4.0061023622047243
11
4.0043865354330705
21
-4.0038424015748033
0
LINE
8
BLACK
6
CONTINUOUS
10
4.0043865354330705
20
-4.0038424015748033
11
4.005666692913386
21
-4.0019265354330704
0
LINE
8
BLACK
6
CONTINUOUS
10
4.005666692913386
20
-4.0019265354330704
11
4.007582559055118
21
-4.0006463779527559
0
LINE
8
BLACK
6
CONTINUOUS
10
4.007582559055118
20
-4.0006463779527559
11
4.0098425196850389
21
-4.0001968503937011
0
LINE
8
BLACK
6
CONTINUOUS
10
4.0098425196850389
20
-4.0001968503937011
11
4.0669291338582676
21
-4.0001968503937011
0
LINE
8
BLACK
6
CONTINUOUS
10
4.0669291338582676
20
-4.0001968503937011
11
4.0691890944881886
21
-4.0006463779527559
0
LINE
8
BLACK
6
CONTINUOUS
10
4.0691890944881886
20
-4.0006463779527559
11
4.0711049606299214
21
-4.0019265354330704
0
LINE
8
BLACK
6
CONTINUOUS
10
4.0711049606299214
20
-4.0019265354330704
11
4.072385118110236
21
-4.0038424015748033
0
LINE
8
BLACK
6
CONTINUOUS
10
4.072385118110236
20
-4.0038424015748033
11
4.0728346456692917
21
-4.0061023622047243
0
LINE
8
BLACK
6
CONTINUOUS
10
4.0728346456692917
20
-4.0061023622047243
11
4.0728346456692917
21
-4.0179133858267715
0
LINE
8
BLACK
6
CONTINUOUS
10
4.0728346456692917
20
-4.0179133858267715
11
4.072385118110236
21
-4.0201733464566924
0
LINE
8
BLACK
6
CONTINUOUS
10
4.072385118110236
20
-4.0201733464566924
11
4.0711049606299214
21
-4.0220892125984253
0
LINE
8
BLACK
6
CONTINUOUS
10
4.0711049606299214
20
-4.0220892125984253
11
4.0691890944881886
21
-4.0233693700787398
0
LINE
8
BLACK
6
CONTINUOUS
10
4.0691890944881886
20
-4.0233693700787398
11
4.0669291338582676
21
-4.0238188976377955
0
LINE
8
BLACK
6
CONTINUOUS
10
4.0669291338582676
20
-4.0238188976377955
11
4.0098425196850389
21
-4.0238188976377955
0
LINE
8
BLACK
6
CONTINUOUS
10
4.0098425196850389
20
-4.0238188976377955
11
4.007582559055118
21
-4.0233693700787398
0
LINE
8
BLACK
6
CONTINUOUS
10
4.007582559055118
20
-4.0233693700787398
11
4.005666692913386
21
-4.0220892125984253
0
LINE
8
BLACK
6
CONTINUOUS
10
4.005666692913386
20
-4.0220892125984253
11
4.0043865354330705
21
-4.0201733464566924
0
LINE
8
BLACK
6
CONTINUOUS
10
4.0043865354330705
20
-4.0201733464566924
11
4.0039370078740157
21
-4.0179133858267715
0
LINE
8
BLACK
6
CONTINUOUS
10
4.0039370078740157
20
-4.0179133858267715
11
4.0039370078740157
21
-4.0159448818897641
0
LINE
8
BLACK
6
CONTINUOUS
10
4.0039370078740157
20
-4.0159448818897641
11
3.9765748031496062
21
-4.0159448818897641
0
LINE
8
BLACK
6
CONTINUOUS
10
3.9765748031496062
20
-4.0159448818897641
11
3.9758067322834645
21
-4.0158692519685042
0
LINE
8
BLACK
6
CONTINUOUS
10
3.9758067322834645
20
-4.0158692519685042
11
3.9743875196850391
21
-4.0152813779527561
0
LINE
8
BLACK
6
CONTINUOUS
10
3.9743875196850391
20
-4.0152813779527561
11
3.973790905511811
21
-4.0147917716535435
0
LINE
8
BLACK
6
CONTINUOUS
10
3.973790905511811
20
-4.0147917716535435
11
3.9728258661417324
21
-4.0138267322834649
0
LINE
8
BLACK
6
CONTINUOUS
10
3.9728258661417324
20
-4.0138267322834649
11
3.9710553149606298
21
-4.0148489763779525
0
LINE
8
BLACK
6
CONTINUOUS
10
3.9710553149606298
20
-4.0148489763779525
11
3.9680770866141732
21
-4.0156469685039369
0
LINE
8
BLACK
6
CONTINUOUS
10
3.9680770866141732
20
-4.0156469685039369
11
3.9649937795275592
21
-4.0156469685039369
0
LINE
8
BLACK
6
CONTINUOUS
10
3.9649937795275592
20
-4.0156469685039369
11
3.9620155511811022
21
-4.0148489763779525
0
LINE
8
BLACK
6
CONTINUOUS
10
3.9620155511811022
20
-4.0148489763779525
11
3.9593453543307087
21
-4.0133073228346454
0
LINE
8
BLACK
6
CONTINUOUS
10
3.9593453543307087
20
-4.0133073228346454
11
3.9571651181102361
21
-4.0111270866141728
0
LINE
8
BLACK
6
CONTINUOUS
10
3.9571651181102361
20
-4.0111270866141728
11
3.955623464566929
21
-4.0084568897637798
0
LINE
8
BLACK
6
CONTINUOUS
10
3.955623464566929
20
-4.0084568897637798
11
3.9548254724409446
21
-4.0054786614173228
0
LINE
8
BLACK
6
CONTINUOUS
10
3.9548254724409446
20
-4.0054786614173228
11
3.9548254724409446
21
-4.0023953543307087
0
LINE
8
BLACK
6
CONTINUOUS
10
3.9548254724409446
20
-4.0023953543307087
11
3.955623464566929
21
-3.9994171259842517
0
LINE
8
BLACK
6
CONTINUOUS
10
3.955623464566929
20
-3.9994171259842517
11
3.9571651181102361
21
-3.9967469291338582
0
LINE
8
BLACK
6
CONTINUOUS
10
3.9571651181102361
20
-3.9967469291338582
11
3.9593453543307087
21
-3.9945666929133856
0
LINE
8
BLACK
6
CONTINUOUS
10
3.9593453543307087
20
-3.9945666929133856
11
3.9620155511811022
21
-3.9930250393700786
0
LINE
8
BLACK
6
CONTINUOUS
10
3.9620155511811022
20
-3.9930250393700786
11
3.9649937795275592
21
-3.9922270472440946
0
LINE
8
BLACK
6
CONTINUOUS
10
3.9649937795275592
20
-3.9922270472440946
11
3.9680770866141732
21
-3.9922270472440946
0
LINE
8
BLACK
6
CONTINUOUS
10
3.9680770866141732
20
-3.9922270472440946
11
3.9710553149606298
21
-3.9930250393700786
0
LINE
8
BLACK
6
CONTINUOUS
10
3.9848348425196849
20
-3.9379069291338582
11
3.9875050393700788
21
-3.9394485826771652
0
LINE
8
BLACK
6
CONTINUOUS
10
3.9875050393700788
20
-3.9394485826771652
11
3.989685275590551
21
-3.9416288188976378
0
LINE
8
BLACK
6
CONTINUOUS
10
3.989685275590551
20
-3.9416288188976378
11
3.991226929133858
21
-3.9442990157480313
0
LINE
8
BLACK
6
CONTINUOUS
10
3.991226929133858
20
-3.9442990157480313
11
3.9920249212598424
21
-3.9472772440944879
0
LINE
8
BLACK
6
CONTINUOUS
10
3.9920249212598424
20
-3.9472772440944879
11
3.9920249212598424
21
-3.9503605511811024
0
LINE
8
BLACK
6
CONTINUOUS
10
3.9920249212598424
20
-3.9503605511811024
11
3.991226929133858
21
-3.953338779527559
0
LINE
8
BLACK
6
CONTINUOUS
10
3.991226929133858
20
-3.953338779527559
11
3.9909251968503936
21
-3.9538613385826769
0
LINE
8
BLACK
6
CONTINUOUS
10
3.9909251968503936
20
-3.9538613385826769
11
3.9951346850393699
21
-3.9580708661417323
0
LINE
8
BLACK
6
CONTINUOUS
10
3.9951346850393699
20
-3.9580708661417323
11
4.0039370078740157
21
-3.9580708661417323
0
LINE
8
BLACK
6
CONTINUOUS
10
4.0039370078740157
20
-3.9580708661417323
11
4.0039370078740157
21
-3.9561023622047244
0
LINE
8
BLACK
6
CONTINUOUS
10
4.0039370078740157
20
-3.9561023622047244
11
4.0043865354330705
21
-3.953842401574803
0
LINE
8
BLACK
6
CONTINUOUS
10
4.0043865354330705
20
-3.953842401574803
11
4.005666692913386
21
-3.9519265354330706
0
LINE
8
BLACK
6
CONTINUOUS
10
4.005666692913386
20
-3.9519265354330706
11
4.007582559055118
21
-3.9506463779527556
0
LINE
8
BLACK
6
CONTINUOUS
10
4.007582559055118
20
-3.9506463779527556
11
4.0098425196850389
21
-3.9501968503937008
0
LINE
8
BLACK
6
CONTINUOUS
10
4.0098425196850389
20
-3.9501968503937008
11
4.0669291338582676
21
-3.9501968503937008
0
LINE
8
BLACK
6
CONTINUOUS
10
4.0669291338582676
20
-3.9501968503937008
11
4.0691890944881886
21
-3.9506463779527556
0
LINE
8
BLACK
6
CONTINUOUS
10
4.0691890944881886
20
-3.9506463779527556
11
4.0711049606299214
21
-3.9519265354330706
0
LINE
8
BLACK
6
CONTINUOUS
10
4.0711049606299214
20
-3.9519265354330706
11
4.072385118110236
21
-3.953842401574803
0
LINE
8
BLACK
6
CONTINUOUS
10
4.072385118110236
20
-3.953842401574803
11
4.0728346456692917
21
-3.9561023622047244
0
LINE
8
BLACK
6
CONTINUOUS
10
4.0728346456692917
20
-3.9561023622047244
11
4.0728346456692917
21
-3.9679133858267717
0
LINE
8
BLACK
6
CONTINUOUS
10
4.0728346456692917
20
-3.9679133858267717
11
4.072385118110236
21
-3.9701733464566926
0
LINE
8
BLACK
6
CONTINUOUS
10
4.072385118110236
20
-3.9701733464566926
11
4.0711049606299214
21
-3.9720892125984251
0
LINE
8
BLACK
6
CONTINUOUS
10
4.0711049606299214
20
-3.9720892125984251
11
4.0691890944881886
21
-3.97336937007874
0
LINE
8
BLACK
6
CONTINUOUS
10
4.0691890944881886
20
-3.97336937007874
11
4.0669291338582676
21
-3.9738188976377953
0
LINE
8
BLACK
6
CONTINUOUS
10
4.0669291338582676
20
-3.9738188976377953
11
4.0098425196850389
21
-3.9738188976377953
0
LINE
8
BLACK
6
CONTINUOUS
10
4.0098425196850389
20
-3.9738188976377953
11
4.007582559055118
21
-3.97336937007874
0
LINE
8
BLACK
6
CONTINUOUS
10
4.007582559055118
20
-3.97336937007874
11
4.005666692913386
21
-3.9720892125984251
0
LINE
8
BLACK
6
CONTINUOUS
10
4.005666692913386
20
-3.9720892125984251
11
4.0043865354330705
21
-3.9701733464566926
0
LINE
8
BLACK
6
CONTINUOUS
10
4.0043865354330705
20
-3.9701733464566926
11
4.0039370078740157
21
-3.9679133858267717
0
LINE
8
BLACK
6
CONTINUOUS
10
4.0039370078740157
20
-3.9679133858267717
11
4.0039370078740157
21
-3.9659448818897638
0
LINE
8
BLACK
6
CONTINUOUS
10
4.0039370078740157
20
-3.9659448818897638
11
3.993503937007874
21
-3.9659448818897638
0
LINE
8
BLACK
6
CONTINUOUS
10
3.993503937007874
20
-3.9659448818897638
11
3.9927358661417323
21
-3.9658692519685039
0
LINE
8
BLACK
6
CONTINUOUS
10
3.9927358661417323
20
-3.9658692519685039
11
3.9913166535433069
21
-3.9652814173228346
0
LINE
8
BLACK
6
CONTINUOUS
10
3.9913166535433069
20
-3.9652814173228346
11
3.9907200787401576
21
-3.9647917716535432
0
LINE
8
BLACK
6
CONTINUOUS
10
3.9907200787401576
20
-3.9647917716535432
11
3.9853574015748032
21
-3.9594291338582677
0
LINE
8
BLACK
6
CONTINUOUS
10
3.9853574015748032
20
-3.9594291338582677
11
3.9848348425196849
21
-3.9597308661417321
0
LINE
8
BLACK
6
CONTINUOUS
10
3.9848348425196849
20
-3.9597308661417321
11
3.9818566141732283
21
-3.9605288582677165
0
LINE
8
BLACK
6
CONTINUOUS
10
3.9818566141732283
20
-3.9605288582677165
11
3.9787733070866143
21
-3.9605288582677165
0
LINE
8
BLACK
6
CONTINUOUS
10
3.9787733070866143
20
-3.9605288582677165
11
3.9757950787401573
21
-3.9597308661417321
0
LINE
8
BLACK
6
CONTINUOUS
10
3.9757950787401573
20
-3.9597308661417321
11
3.9731248818897638
21
-3.958189212598425
0
LINE
8
BLACK
6
CONTINUOUS
10
3.9731248818897638
20
-3.958189212598425
11
3.9709446456692912
21
-3.9560089763779525
0
LINE
8
BLACK
6
CONTINUOUS
10
3.9709446456692912
20
-3.9560089763779525
11
3.9694029921259841
21
-3.953338779527559
0
LINE
8
BLACK
6
CONTINUOUS
10
3.9694029921259841
20
-3.953338779527559
11
3.9686049999999997
21
-3.9503605511811024
0
LINE
8
BLACK
6
CONTINUOUS
10
3.9686049999999997
20
-3.9503605511811024
11
3.9686049999999997
21
-3.9472772440944879
0
LINE
8
BLACK
6
CONTINUOUS
10
3.9686049999999997
20
-3.9472772440944879
11
3.9694029921259841
21
-3.9442990157480313
0
LINE
8
BLACK
6
CONTINUOUS
10
3.9694029921259841
20
-3.9442990157480313
11
3.9709446456692912
21
-3.9416288188976378
0
LINE
8
BLACK
6
CONTINUOUS
10
3.9709446456692912
20
-3.9416288188976378
11
3.9731248818897638
21
-3.9394485826771652
0
LINE
8
BLACK
6
CONTINUOUS
10
3.9731248818897638
20
-3.9394485826771652
11
3.9757950787401573
21
-3.9379069291338582
0
LINE
8
BLACK
6
CONTINUOUS
10
3.9757950787401573
20
-3.9379069291338582
11
3.9787733070866143
21
-3.9371089370078738
0
LINE
8
BLACK
6
CONTINUOUS
10
3.9787733070866143
20
-3.9371089370078738
11
3.9818566141732283
21
-3.9371089370078738
0
LINE
8
BLACK
6
CONTINUOUS
10
3.9818566141732283
20
-3.9371089370078738
11
3.9848348425196849
21
-3.9379069291338582
0
LINE
8
BLACK
6
CONTINUOUS
10
3.9927088582677164
20
-3.7528675590551179
11
3.9953790551181103
21
-3.754409212598425
0
LINE
8
BLACK
6
CONTINUOUS
10
3.9953790551181103
20
-3.754409212598425
11
3.9975592913385825
21
-3.7565894488188976
0
LINE
8
BLACK
6
CONTINUOUS
10
3.9975592913385825
20
-3.7565894488188976
11
3.9991009448818895
21
-3.7592596456692911
0
LINE
8
BLACK
6
CONTINUOUS
10
3.9991009448818895
20
-3.7592596456692911
11
3.9998989370078739
21
-3.7622378740157481
0
LINE
8
BLACK
6
CONTINUOUS
10
3.9998989370078739
20
-3.7622378740157481
11
3.9998989370078739
21
-3.7653211811023621
0
LINE
8
BLACK
6
CONTINUOUS
10
3.9998989370078739
20
-3.7653211811023621
11
3.9991009448818895
21
-3.7682994094488187
0
LINE
8
BLACK
6
CONTINUOUS
10
3.9991009448818895
20
-3.7682994094488187
11
3.9975592913385825
21
-3.7709696062992126
0
LINE
8
BLACK
6
CONTINUOUS
10
3.9975592913385825
20
-3.7709696062992126
11
3.9953790551181103
21
-3.7731498425196848
0
LINE
8
BLACK
6
CONTINUOUS
10
3.9953790551181103
20
-3.7731498425196848
11
3.9927088582677164
21
-3.7746914960629923
0
LINE
8
BLACK
6
CONTINUOUS
10
3.9927088582677164
20
-3.7746914960629923
11
3.9921259842519685
21
-3.7748476377952755
0
LINE
8
BLACK
6
CONTINUOUS
10
3.9921259842519685
20
-3.7748476377952755
11
3.9921259842519685
21
-3.8699033858267717
0
LINE
8
BLACK
6
CONTINUOUS
10
3.9921259842519685
20
-3.8699033858267717
11
4.0224194488188978
21
-3.9001968503937006
0
LINE
8
BLACK
6
CONTINUOUS
10
4.0224194488188978
20
-3.9001968503937006
11
4.0669291338582676
21
-3.9001968503937006
0
LINE
8
BLACK
6
CONTINUOUS
10
4.0669291338582676
20
-3.9001968503937006
11
4.0691890944881886
21
-3.9006463779527558
0
LINE
8
BLACK
6
CONTINUOUS
10
4.0691890944881886
20
-3.9006463779527558
11
4.0711049606299214
21
-3.9019265354330708
0
LINE
8
BLACK
6
CONTINUOUS
10
4.0711049606299214
20
-3.9019265354330708
11
4.072385118110236
21
-3.9038424015748032
0
LINE
8
BLACK
6
CONTINUOUS
10
4.072385118110236
20
-3.9038424015748032
11
4.0728346456692917
21
-3.9061023622047242
0
LINE
8
BLACK
6
CONTINUOUS
10
4.0728346456692917
20
-3.9061023622047242
11
4.0728346456692917
21
-3.9179133858267714
0
LINE
8
BLACK
6
CONTINUOUS
10
4.0728346456692917
20
-3.9179133858267714
11
4.072385118110236
21
-3.9201733464566928
0
LINE
8
BLACK
6
CONTINUOUS
10
4.072385118110236
20
-3.9201733464566928
11
4.0711049606299214
21
-3.9220892125984252
0
LINE
8
BLACK
6
CONTINUOUS
10
4.0711049606299214
20
-3.9220892125984252
11
4.0691890944881886
21
-3.9233693700787402
0
LINE
8
BLACK
6
CONTINUOUS
10
4.0691890944881886
20
-3.9233693700787402
11
4.0669291338582676
21
-3.923818897637795
0
LINE
8
BLACK
6
CONTINUOUS
10
4.0669291338582676
20
-3.923818897637795
11
4.0098425196850389
21
-3.923818897637795
0
LINE
8
BLACK
6
CONTINUOUS
10
4.0098425196850389
20
-3.923818897637795
11
4.007582559055118
21
-3.9233693700787402
0
LINE
8
BLACK
6
CONTINUOUS
10
4.007582559055118
20
-3.9233693700787402
11
4.005666692913386
21
-3.9220892125984252
0
LINE
8
BLACK
6
CONTINUOUS
10
4.005666692913386
20
-3.9220892125984252
11
4.0043865354330705
21
-3.9201733464566928
0
LINE
8
BLACK
6
CONTINUOUS
10
4.0043865354330705
20
-3.9201733464566928
11
4.0039370078740157
21
-3.9179133858267714
0
LINE
8
BLACK
6
CONTINUOUS
10
4.0039370078740157
20
-3.9179133858267714
11
4.0039370078740157
21
-3.9061023622047242
0
LINE
8
BLACK
6
CONTINUOUS
10
4.0039370078740157
20
-3.9061023622047242
11
4.0043865354330705
21
-3.9038424015748032
0
LINE
8
BLACK
6
CONTINUOUS
10
4.0043865354330705
20
-3.9038424015748032
11
4.005666692913386
21
-3.9019265354330708
0
LINE
8
BLACK
6
CONTINUOUS
10
4.005666692913386
20
-3.9019265354330708
11
4.007582559055118
21
-3.9006463779527558
0
LINE
8
BLACK
6
CONTINUOUS
10
4.007582559055118
20
-3.9006463779527558
11
4.0098425196850389
21
-3.9001968503937006
0
LINE
8
BLACK
6
CONTINUOUS
10
4.0098425196850389
20
-3.9001968503937006
11
4.0112838582677162
21
-3.9001968503937006
0
LINE
8
BLACK
6
CONTINUOUS
10
4.0112838582677162
20
-3.9001968503937006
11
3.9854050787401576
21
-3.8743180708661416
0
LINE
8
BLACK
6
CONTINUOUS
10
3.9854050787401576
20
-3.8743180708661416
11
3.9849154724409446
21
-3.8737214566929135
0
LINE
8
BLACK
6
CONTINUOUS
10
3.9849154724409446
20
-3.8737214566929135
11
3.9843275984251969
21
-3.8723022440944881
0
LINE
8
BLACK
6
CONTINUOUS
10
3.9843275984251969
20
-3.8723022440944881
11
3.984251968503937
21
-3.8715341732283464
0
LINE
8
BLACK
6
CONTINUOUS
10
3.984251968503937
20
-3.8715341732283464
11
3.984251968503937
21
-3.7748476377952755
0
LINE
8
BLACK
6
CONTINUOUS
10
3.984251968503937
20
-3.7748476377952755
11
3.9836690944881887
21
-3.7746914960629923
0
LINE
8
BLACK
6
CONTINUOUS
10
3.9836690944881887
20
-3.7746914960629923
11
3.9809988976377952
21
-3.7731498425196848
0
LINE
8
BLACK
6
CONTINUOUS
10
3.9809988976377952
20
-3.7731498425196848
11
3.9788186614173227
21
-3.7709696062992126
0
LINE
8
BLACK
6
CONTINUOUS
10
3.9788186614173227
20
-3.7709696062992126
11
3.9772770078740156
21
-3.7682994094488187
0
LINE
8
BLACK
6
CONTINUOUS
10
3.9772770078740156
20
-3.7682994094488187
11
3.9764790157480312
21
-3.7653211811023621
0
LINE
8
BLACK
6
CONTINUOUS
10
3.9764790157480312
20
-3.7653211811023621
11
3.9764790157480312
21
-3.7622378740157481
0
LINE
8
BLACK
6
CONTINUOUS
10
3.9764790157480312
20
-3.7622378740157481
11
3.9772770078740156
21
-3.7592596456692911
0
LINE
8
BLACK
6
CONTINUOUS
10
3.9772770078740156
20
-3.7592596456692911
11
3.9788186614173227
21
-3.7565894488188976
0
LINE
8
BLACK
6
CONTINUOUS
10
3.9788186614173227
20
-3.7565894488188976
11
3.9809988976377952
21
-3.754409212598425
0
LINE
8
BLACK
6
CONTINUOUS
10
3.9809988976377952
20
-3.754409212598425
11
3.9836690944881887
21
-3.7528675590551179
0
LINE
8
BLACK
6
CONTINUOUS
10
3.9836690944881887
20
-3.7528675590551179
11
3.9866473228346457
21
-3.752069566929134
0
LINE
8
BLACK
6
CONTINUOUS
10
3.9866473228346457
20
-3.752069566929134
11
3.9897306299212598
21
-3.752069566929134
0
LINE
8
BLACK
6
CONTINUOUS
10
3.9897306299212598
20
-3.752069566929134
11
3.9927088582677164
21
-3.7528675590551179
0
LINE
8
BLACK
6
CONTINUOUS
10
4.0691890944881886
20
-3.850646377952756
11
4.0711049606299214
21
-3.851926535433071
0
LINE
8
BLACK
6
CONTINUOUS
10
4.0711049606299214
20
-3.851926535433071
11
4.072385118110236
21
-3.853842401574803
0
LINE
8
BLACK
6
CONTINUOUS
10
4.072385118110236
20
-3.853842401574803
11
4.0728346456692917
21
-3.8561023622047244
0
LINE
8
BLACK
6
CONTINUOUS
10
4.0728346456692917
20
-3.8561023622047244
11
4.0728346456692917
21
-3.8679133858267716
0
LINE
8
BLACK
6
CONTINUOUS
10
4.0728346456692917
20
-3.8679133858267716
11
4.072385118110236
21
-3.870173346456693
0
LINE
8
BLACK
6
CONTINUOUS
10
4.072385118110236
20
-3.870173346456693
11
4.0711049606299214
21
-3.872089212598425
0
LINE
8
BLACK
6
CONTINUOUS
10
4.0711049606299214
20
-3.872089212598425
11
4.0691890944881886
21
-3.8733693700787399
0
LINE
8
BLACK
6
CONTINUOUS
10
4.0691890944881886
20
-3.8733693700787399
11
4.0669291338582676
21
-3.8738188976377952
0
LINE
8
BLACK
6
CONTINUOUS
10
4.0669291338582676
20
-3.8738188976377952
11
4.0098425196850389
21
-3.8738188976377952
0
LINE
8
BLACK
6
CONTINUOUS
10
4.0098425196850389
20
-3.8738188976377952
11
4.007582559055118
21
-3.8733693700787399
0
LINE
8
BLACK
6
CONTINUOUS
10
4.007582559055118
20
-3.8733693700787399
11
4.005666692913386
21
-3.872089212598425
0
LINE
8
BLACK
6
CONTINUOUS
10
4.005666692913386
20
-3.872089212598425
11
4.0043865354330705
21
-3.870173346456693
0
LINE
8
BLACK
6
CONTINUOUS
10
4.0043865354330705
20
-3.870173346456693
11
4.0039370078740157
21
-3.8679133858267716
0
LINE
8
BLACK
6
CONTINUOUS
10
4.0039370078740157
20
-3.8679133858267716
11
4.0039370078740157
21
-3.8561023622047244
0
LINE
8
BLACK
6
CONTINUOUS
10
4.0039370078740157
20
-3.8561023622047244
11
4.0043865354330705
21
-3.853842401574803
0
LINE
8
BLACK
6
CONTINUOUS
10
4.0043865354330705
20
-3.853842401574803
11
4.005666692913386
21
-3.851926535433071
0
LINE
8
BLACK
6
CONTINUOUS
10
4.005666692913386
20
-3.851926535433071
11
4.007582559055118
21
-3.850646377952756
0
LINE
8
BLACK
6
CONTINUOUS
10
4.007582559055118
20
-3.850646377952756
11
4.0098425196850389
21
-3.8501968503937007
0
LINE
8
BLACK
6
CONTINUOUS
10
4.0098425196850389
20
-3.8501968503937007
11
4.0669291338582676
21
-3.8501968503937007
0
LINE
8
BLACK
6
CONTINUOUS
10
4.0669291338582676
20
-3.8501968503937007
11
4.0691890944881886
21
-3.850646377952756
0
LINE
8
BLACK
6
CONTINUOUS
10
4.0527971653543302
20
-3.6425269685039368
11
4.0545985433070868
21
-3.644605866141732
0
LINE
8
BLACK
6
CONTINUOUS
10
4.0545985433070868
20
-3.644605866141732
11
4.0550397244094487
21
-3.6466338582677165
0
LINE
8
BLACK
6
CONTINUOUS
10
4.0550397244094487
20
-3.6466338582677165
11
4.0550397244094487
21
-3.6467985826771652
0
LINE
8
BLACK
6
CONTINUOUS
10
4.0550397244094487
20
-3.6467985826771652
11
4.0549569685039373
21
-3.6476935826771655
0
LINE
8
BLACK
6
CONTINUOUS
10
4.0549569685039373
20
-3.6476935826771655
11
4.0548981102362207
21
-3.6480090157480314
0
LINE
8
BLACK
6
CONTINUOUS
10
4.0548981102362207
20
-3.6480090157480314
11
4.0548981102362207
21
-3.6480092125984251
0
LINE
8
BLACK
6
CONTINUOUS
10
4.0548981102362207
20
-3.6480092125984251
11
4.0550397244094487
21
-3.6498348031496062
0
LINE
8
BLACK
6
CONTINUOUS
10
4.0550397244094487
20
-3.6498348031496062
11
4.0550397244094487
21
-3.6516659055118108
0
LINE
8
BLACK
6
CONTINUOUS
10
4.0550397244094487
20
-3.6516659055118108
11
4.0552396062992129
21
-3.6524119685039369
0
LINE
8
BLACK
6
CONTINUOUS
10
4.0552396062992129
20
-3.6524119685039369
11
4.0552745275590549
21
-3.6528620078740155
0
LINE
8
BLACK
6
CONTINUOUS
10
4.0552745275590549
20
-3.6528620078740155
11
4.0552744881889762
21
-3.652862086614173
0
LINE
8
BLACK
6
CONTINUOUS
10
4.0552744881889762
20
-3.652862086614173
11
4.0552992913385824
21
-3.6531817322834645
0
LINE
8
BLACK
6
CONTINUOUS
10
4.0552992913385824
20
-3.6531817322834645
11
4.0552993307086611
21
-3.6531819685039371
0
LINE
8
BLACK
6
CONTINUOUS
10
4.0552993307086611
20
-3.6531819685039371
11
4.0558457086614172
21
-3.6547305511811023
0
LINE
8
BLACK
6
CONTINUOUS
10
4.0558457086614172
20
-3.6547305511811023
11
4.0559574409448818
21
-3.6550911023622046
0
LINE
8
BLACK
6
CONTINUOUS
10
4.0559574409448818
20
-3.6550911023622046
11
4.0563825984251967
21
-3.6566775590551179
0
LINE
8
BLACK
6
CONTINUOUS
10
4.0563825984251967
20
-3.6566775590551179
11
4.0565431496062994
21
-3.6569557086614171
0
LINE
8
BLACK
6
CONTINUOUS
10
4.0565431496062994
20
-3.6569557086614171
11
4.0569187795275585
21
-3.6577716929133857
0
LINE
8
BLACK
6
CONTINUOUS
10
4.0569187795275585
20
-3.6577716929133857
11
4.0570256299212595
21
-3.6580745275590552
0
LINE
8
BLACK
6
CONTINUOUS
10
4.0570256299212595
20
-3.6580745275590552
11
4.0570257874015745
21
-3.6580748425196852
0
LINE
8
BLACK
6
CONTINUOUS
10
4.0570257874015745
20
-3.6580748425196852
11
4.0579543700787397
21
-3.6594292125984249
0
LINE
8
BLACK
6
CONTINUOUS
10
4.0579543700787397
20
-3.6594292125984249
11
4.0580613779527557
21
-3.6595852755905511
0
LINE
8
BLACK
6
CONTINUOUS
10
4.0580613779527557
20
-3.6595852755905511
11
4.0589767322834645
21
-3.6611707086614174
0
LINE
8
BLACK
6
CONTINUOUS
10
4.0589767322834645
20
-3.6611707086614174
11
4.0595227952755906
21
-3.661716771653543
0
LINE
8
BLACK
6
CONTINUOUS
10
4.0595227952755906
20
-3.661716771653543
11
4.0595228346456693
21
-3.6617168503937005
0
LINE
8
BLACK
6
CONTINUOUS
10
4.0595228346456693
20
-3.6617168503937005
11
4.0599596456692915
21
-3.6623538976377952
0
LINE
8
BLACK
6
CONTINUOUS
10
4.0599596456692915
20
-3.6623538976377952
11
4.061207440944882
21
-3.6634220472440946
0
LINE
8
BLACK
6
CONTINUOUS
10
4.061207440944882
20
-3.6634220472440946
11
4.0612074015748032
21
-3.6634220472440946
0
LINE
8
BLACK
6
CONTINUOUS
10
4.0612074015748032
20
-3.6634220472440946
11
4.0613509448818901
21
-3.6635449212598425
0
LINE
8
BLACK
6
CONTINUOUS
10
4.0613509448818901
20
-3.6635449212598425
11
4.0626454724409449
21
-3.6648394488188973
0
LINE
8
BLACK
6
CONTINUOUS
10
4.0626454724409449
20
-3.6648394488188973
11
4.0633142913385827
21
-3.6652255905511808
0
LINE
8
BLACK
6
CONTINUOUS
10
4.0633142913385827
20
-3.6652255905511808
11
4.0639011023622045
21
-3.6657279133858265
0
LINE
8
BLACK
6
CONTINUOUS
10
4.0639011023622045
20
-3.6657279133858265
11
4.0653843307086612
21
-3.6664374015748029
0
LINE
8
BLACK
6
CONTINUOUS
10
4.0653843307086612
20
-3.6664374015748029
11
4.0654919685039372
21
-3.6664905511811021
0
LINE
8
BLACK
6
CONTINUOUS
10
4.0654919685039372
20
-3.6664905511811021
11
4.0656051181102359
21
-3.6665481889763778
0
LINE
8
BLACK
6
CONTINUOUS
10
4.0656051181102359
20
-3.6665481889763778
11
4.0671387007874014
21
-3.6674336220472439
0
LINE
8
BLACK
6
CONTINUOUS
10
4.0671387007874014
20
-3.6674336220472439
11
4.0675692125984249
21
-3.667548937007874
0
LINE
8
BLACK
6
CONTINUOUS
10
4.0675692125984249
20
-3.667548937007874
11
4.0680264566929134
21
-3.667781929133858
0
LINE
8
BLACK
6
CONTINUOUS
10
4.0680264566929134
20
-3.667781929133858
11
4.0680371653543306
21
-3.6677920472440944
0
LINE
8
BLACK
6
CONTINUOUS
10
4.0680371653543306
20
-3.6677920472440944
11
4.0680736614173227
21
-3.6678062992125984
0
LINE
8
BLACK
6
CONTINUOUS
10
4.0680736614173227
20
-3.6678062992125984
11
4.0851538582677165
21
-3.6767445669291337
0
LINE
8
BLACK
6
CONTINUOUS
10
4.0851538582677165
20
-3.6767445669291337
11
4.0854586614173227
21
-3.676918307086614
0
LINE
8
BLACK
6
CONTINUOUS
10
4.0854586614173227
20
-3.676918307086614
11
4.1034624015748031
21
-3.6880558661417324
0
LINE
8
BLACK
6
CONTINUOUS
10
4.1034624015748031
20
-3.6880558661417324
11
4.1037538976377954
21
-3.6882510236220472
0
LINE
8
BLACK
6
CONTINUOUS
10
4.1037538976377954
20
-3.6882510236220472
11
4.1209112992125982
21
-3.7006527559055118
0
LINE
8
BLACK
6
CONTINUOUS
10
4.1209112992125982
20
-3.7006527559055118
11
4.1211877165354327
21
-3.7008680314960629
0
LINE
8
BLACK
6
CONTINUOUS
10
4.1211877165354327
20
-3.7008680314960629
11
4.1374112204724405
21
-3.7144708267716533
0
LINE
8
BLACK
6
CONTINUOUS
10
4.1374112204724405
20
-3.7144708267716533
11
4.1376701968503937
21
-3.7147043307086611
0
LINE
8
BLACK
6
CONTINUOUS
10
4.1376701968503937
20
-3.7147043307086611
11
4.1452590944881891
21
-3.7220576377952757
0
LINE
8
BLACK
6
CONTINUOUS
10
4.1452590944881891
20
-3.7220576377952757
11
4.1528744881889761
21
-3.7294366141732285
0
LINE
8
BLACK
6
CONTINUOUS
10
4.1528744881889761
20
-3.7294366141732285
11
4.1531175196850389
21
-3.7296896456692914
0
LINE
8
BLACK
6
CONTINUOUS
10
4.1531175196850389
20
-3.7296896456692914
11
4.1672241732283464
21
-3.7454754330708662
0
LINE
8
BLACK
6
CONTINUOUS
10
4.1672241732283464
20
-3.7454754330708662
11
4.1674483858267717
21
-3.7457452755905511
0
LINE
8
BLACK
6
CONTINUOUS
10
4.1674483858267717
20
-3.7457452755905511
11
4.173916456692913
21
-3.7541240551181101
0
LINE
8
BLACK
6
CONTINUOUS
10
4.173916456692913
20
-3.7541240551181101
11
4.1778680708661415
21
-3.759242992125984
0
LINE
8
BLACK
6
CONTINUOUS
10
4.1778680708661415
20
-3.759242992125984
11
4.180384566929134
21
-3.762502834645669
0
LINE
8
BLACK
6
CONTINUOUS
10
4.180384566929134
20
-3.762502834645669
11
4.1805888188976379
21
-3.7627880708661419
0
LINE
8
BLACK
6
CONTINUOUS
10
4.1805888188976379
20
-3.7627880708661419
11
4.1922883464566931
21
-3.7804317322834646
0
LINE
8
BLACK
6
CONTINUOUS
10
4.1922883464566931
20
-3.7804317322834646
11
4.1924715748031494
21
-3.7807307874015748
0
LINE
8
BLACK
6
CONTINUOUS
10
4.1924715748031494
20
-3.7807307874015748
11
4.1957855118110237
21
-3.7866049212598423
0
LINE
8
BLACK
6
CONTINUOUS
10
4.1957855118110237
20
-3.7866049212598423
11
4.2028740157480318
21
-3.7991695275590551
0
LINE
8
BLACK
6
CONTINUOUS
10
4.2028740157480318
20
-3.7991695275590551
11
4.2030352755905511
21
-3.7994810629921258
0
LINE
8
BLACK
6
CONTINUOUS
10
4.2030352755905511
20
-3.7994810629921258
11
4.2120864173228343
21
-3.8186186220472442
0
LINE
8
BLACK
6
CONTINUOUS
10
4.2120864173228343
20
-3.8186186220472442
11
4.2122249212598426
21
-3.8189409842519684
0
LINE
8
BLACK
6
CONTINUOUS
10
4.2122249212598426
20
-3.8189409842519684
11
4.2198782283464569
21
-3.8386790157480313
0
LINE
8
BLACK
6
CONTINUOUS
10
4.2198782283464569
20
-3.8386790157480313
11
4.219993228346457
21
-3.8390104330708659
0
LINE
8
BLACK
6
CONTINUOUS
10
4.219993228346457
20
-3.8390104330708659
11
4.2262094094488187
21
-3.8592474803149606
0
LINE
8
BLACK
6
CONTINUOUS
10
4.2262094094488187
20
-3.8592474803149606
11
4.2263003149606302
21
-3.8595863385826772
0
LINE
8
BLACK
6
CONTINUOUS
10
4.2263003149606302
20
-3.8595863385826772
11
4.2310472047244092
21
-3.8802179133858266
0
LINE
8
BLACK
6
CONTINUOUS
10
4.2310472047244092
20
-3.8802179133858266
11
4.2311135039370074
21
-3.880562401574803
0
LINE
8
BLACK
6
CONTINUOUS
10
4.2311135039370074
20
-3.880562401574803
11
4.2343662992125983
21
-3.9014807874015749
0
LINE
8
BLACK
6
CONTINUOUS
10
4.2343662992125983
20
-3.9014807874015749
11
4.2344077165354328
21
-3.9018291732283465
0
LINE
8
BLACK
6
CONTINUOUS
10
4.2344077165354328
20
-3.9018291732283465
11
4.2348435433070861
21
-3.9071073622047243
0
LINE
8
BLACK
6
CONTINUOUS
10
4.2348435433070861
20
-3.9071073622047243
11
4.2342883858267717
21
-3.9098015354330706
0
LINE
8
BLACK
6
CONTINUOUS
10
4.2342883858267717
20
-3.9098015354330706
11
4.2323648031496059
21
-3.911767874015748
0
LINE
8
BLACK
6
CONTINUOUS
10
4.2323648031496059
20
-3.911767874015748
11
4.2296834645669295
21
-3.9123820866141732
0
LINE
8
BLACK
6
CONTINUOUS
10
4.2296834645669295
20
-3.9123820866141732
11
4.2270957086614169
21
-3.9114491338582678
0
LINE
8
BLACK
6
CONTINUOUS
10
4.2270957086614169
20
-3.9114491338582678
11
4.2256284251968506
21
-3.9097253937007874
0
LINE
8
BLACK
6
CONTINUOUS
10
4.2256284251968506
20
-3.9097253937007874
11
4.2237537007874018
21
-3.9060459842519686
0
LINE
8
BLACK
6
CONTINUOUS
10
4.2237537007874018
20
-3.9060459842519686
11
4.2229325984251966
21
-3.904915866141732
0
LINE
8
BLACK
6
CONTINUOUS
10
4.2229325984251966
20
-3.904915866141732
11
4.2182880708661417
21
-3.8985232283464568
0
LINE
8
BLACK
6
CONTINUOUS
10
4.2182880708661417
20
-3.8985232283464568
11
4.2117129921259844
21
-3.8919481496062991
0
LINE
8
BLACK
6
CONTINUOUS
10
4.2117129921259844
20
-3.8919481496062991
11
4.2041902755905509
21
-3.8864825590551182
0
LINE
8
BLACK
6
CONTINUOUS
10
4.2041902755905509
20
-3.8864825590551182
11
4.2033424015748029
21
-3.8860505511811021
0
LINE
8
BLACK
6
CONTINUOUS
10
4.2033424015748029
20
-3.8860505511811021
11
4.1959053543307085
21
-3.8822611417322834
0
LINE
8
BLACK
6
CONTINUOUS
10
4.1959053543307085
20
-3.8822611417322834
11
4.1870617322834649
21
-3.8793876377952756
0
LINE
8
BLACK
6
CONTINUOUS
10
4.1870617322834649
20
-3.8793876377952756
11
4.1778778346456695
21
-3.8779330708661415
0
LINE
8
BLACK
6
CONTINUOUS
10
4.1778778346456695
20
-3.8779330708661415
11
4.1778776377952758
21
-3.8779330708661415
0
LINE
8
BLACK
6
CONTINUOUS
10
4.1778776377952758
20
-3.8779330708661415
11
4.1685790551181103
21
-3.8779330708661415
0
LINE
8
BLACK
6
CONTINUOUS
10
4.1685790551181103
20
-3.8779330708661415
11
4.1685788582677166
21
-3.8779330708661415
0
LINE
8
BLACK
6
CONTINUOUS
10
4.1685788582677166
20
-3.8779330708661415
11
4.1593949212598424
21
-3.8793876377952756
0
LINE
8
BLACK
6
CONTINUOUS
10
4.1593949212598424
20
-3.8793876377952756
11
4.1505512992125979
21
-3.8822611417322834
0
LINE
8
BLACK
6
CONTINUOUS
10
4.1505512992125979
20
-3.8822611417322834
11
4.1422663779527555
21
-3.8864825590551182
0
LINE
8
BLACK
6
CONTINUOUS
10
4.1422663779527555
20
-3.8864825590551182
11
4.1379744094488187
21
-3.8896008661417323
0
LINE
8
BLACK
6
CONTINUOUS
10
4.1379744094488187
20
-3.8896008661417323
11
4.1347437007874017
21
-3.8919481496062991
0
LINE
8
BLACK
6
CONTINUOUS
10
4.1347437007874017
20
-3.8919481496062991
11
4.1347436220472442
21
-3.8919482283464566
0
LINE
8
BLACK
6
CONTINUOUS
10
4.1347436220472442
20
-3.8919482283464566
11
4.1347435826771655
21
-3.8919482283464566
0
LINE
8
BLACK
6
CONTINUOUS
10
4.1347435826771655
20
-3.8919482283464566
11
4.1281687007874011
21
-3.8985231102362206
0
LINE
8
BLACK
6
CONTINUOUS
10
4.1281687007874011
20
-3.8985231102362206
11
4.1281687007874011
21
-3.8985231496062993
0
LINE
8
BLACK
6
CONTINUOUS
10
4.1281687007874011
20
-3.8985231496062993
11
4.1281686220472444
21
-3.8985232283464568
0
LINE
8
BLACK
6
CONTINUOUS
10
4.1281686220472444
20
-3.8985232283464568
11
4.1266103149606295
21
-3.9006680314960631
0
LINE
8
BLACK
6
CONTINUOUS
10
4.1266103149606295
20
-3.9006680314960631
11
4.1227030314960631
21
-3.9060459055118111
0
LINE
8
BLACK
6
CONTINUOUS
10
4.1227030314960631
20
-3.9060459055118111
11
4.1184816141732279
21
-3.9143308267716534
0
LINE
8
BLACK
6
CONTINUOUS
10
4.1184816141732279
20
-3.9143308267716534
11
4.1156081102362201
21
-3.9231744488188975
0
LINE
8
BLACK
6
CONTINUOUS
10
4.1156081102362201
20
-3.9231744488188975
11
4.1141535433070864
21
-3.9323583464566929
0
LINE
8
BLACK
6
CONTINUOUS
10
4.1141535433070864
20
-3.9323583464566929
11
4.1141535433070864
21
-3.9416573622047242
0
LINE
8
BLACK
6
CONTINUOUS
10
4.1141535433070864
20
-3.9416573622047242
11
4.1156081102362201
21
-3.9508412598425195
0
LINE
8
BLACK
6
CONTINUOUS
10
4.1156081102362201
20
-3.9508412598425195
11
4.1184816141732279
21
-3.9596848818897636
0
LINE
8
BLACK
6
CONTINUOUS
10
4.1184816141732279
20
-3.9596848818897636
11
4.1217519685039372
21
-3.9661032283464568
0
LINE
8
BLACK
6
CONTINUOUS
10
4.1217519685039372
20
-3.9661032283464568
11
4.1227030314960631
21
-3.967969803149606
0
LINE
8
BLACK
6
CONTINUOUS
10
4.1227030314960631
20
-3.967969803149606
11
4.1281686220472444
21
-3.9754925196850395
0
LINE
8
BLACK
6
CONTINUOUS
10
4.1281686220472444
20
-3.9754925196850395
11
4.1347437007874017
21
-3.9820675984251968
0
LINE
8
BLACK
6
CONTINUOUS
10
4.1347437007874017
20
-3.9820675984251968
11
4.1422664173228343
21
-3.9875331889763777
0
LINE
8
BLACK
6
CONTINUOUS
10
4.1422664173228343
20
-3.9875331889763777
11
4.1445837795275589
21
-3.9887139370078741
0
LINE
8
BLACK
6
CONTINUOUS
10
4.1445837795275589
20
-3.9887139370078741
11
4.1505512992125979
21
-3.9917545669291337
0
LINE
8
BLACK
6
CONTINUOUS
10
4.1505512992125979
20
-3.9917545669291337
11
4.1505513779527554
21
-3.9917545669291337
0
LINE
8
BLACK
6
CONTINUOUS
10
4.1505513779527554
20
-3.9917545669291337
11
4.1505514960629917
21
-3.9917546456692912
0
LINE
8
BLACK
6
CONTINUOUS
10
4.1505514960629917
20
-3.9917546456692912
11
4.1552918110236217
21
-3.9932948425196848
0
LINE
8
BLACK
6
CONTINUOUS
10
4.1552918110236217
20
-3.9932948425196848
11
4.1593949212598424
21
-3.9946280708661415
0
LINE
8
BLACK
6
CONTINUOUS
10
4.1593949212598424
20
-3.9946280708661415
11
4.1685788582677166
21
-3.9960826771653544
0
LINE
8
BLACK
6
CONTINUOUS
10
4.1685788582677166
20
-3.9960826771653544
11
4.1685790551181103
21
-3.9960826771653544
0
LINE
8
BLACK
6
CONTINUOUS
10
4.1685790551181103
20
-3.9960826771653544
11
4.1778778346456695
21
-3.9960826771653544
0
LINE
8
BLACK
6
CONTINUOUS
10
4.1778778346456695
20
-3.9960826771653544
11
4.1870617322834649
21
-3.9946280708661415
0
LINE
8
BLACK
6
CONTINUOUS
10
4.1870617322834649
20
-3.9946280708661415
11
4.1959051968503935
21
-3.9917546456692912
0
LINE
8
BLACK
6
CONTINUOUS
10
4.1959051968503935
20
-3.9917546456692912
11
4.2041902755905509
21
-3.9875331889763777
0
LINE
8
BLACK
6
CONTINUOUS
10
4.2041902755905509
20
-3.9875331889763777
11
4.2117129921259844
21
-3.9820675984251968
0
LINE
8
BLACK
6
CONTINUOUS
10
4.2117129921259844
20
-3.9820675984251968
11
4.2182880708661417
21
-3.9754925196850395
0
LINE
8
BLACK
6
CONTINUOUS
10
4.2182880708661417
20
-3.9754925196850395
11
4.223753661417323
21
-3.967969803149606
0
LINE
8
BLACK
6
CONTINUOUS
10
4.223753661417323
20
-3.967969803149606
11
4.225781496062992
21
-3.9639898425196849
0
LINE
8
BLACK
6
CONTINUOUS
10
4.225781496062992
20
-3.9639898425196849
11
4.2276701968503936
21
-3.9619901181102359
0
LINE
8
BLACK
6
CONTINUOUS
10
4.2276701968503936
20
-3.9619901181102359
11
4.2303402755905513
21
-3.9613288582677164
0
LINE
8
BLACK
6
CONTINUOUS
10
4.2303402755905513
20
-3.9613288582677164
11
4.2329440157480311
21
-3.9622161417322834
0
LINE
8
BLACK
6
CONTINUOUS
10
4.2329440157480311
20
-3.9622161417322834
11
4.2346547637795275
21
-3.9643702362204722
0
LINE
8
BLACK
6
CONTINUOUS
10
4.2346547637795275
20
-3.9643702362204722
11
4.2349698818897634
21
-3.9668548425196848
0
LINE
8
BLACK
6
CONTINUOUS
10
4.2349698818897634
20
-3.9668548425196848
11
4.2322347637795277
21
-3.9872601181102363
0
LINE
8
BLACK
6
CONTINUOUS
10
4.2322347637795277
20
-3.9872601181102363
11
4.2321756692913386
21
-3.9876059055118107
0
LINE
8
BLACK
6
CONTINUOUS
10
4.2321756692913386
20
-3.9876059055118107
11
4.2278636614173228
21
-4.0083317322834642
0
LINE
8
BLACK
6
CONTINUOUS
10
4.2278636614173228
20
-4.0083317322834642
11
4.2277799212598426
21
-4.0086724015748034
0
LINE
8
BLACK
6
CONTINUOUS
10
4.2277799212598426
20
-4.0086724015748034
11
4.2219905511811024
21
-4.0290354330708658
0
LINE
8
BLACK
6
CONTINUOUS
10
4.2219905511811024
20
-4.0290354330708658
11
4.2218825590551177
21
-4.0293692519685038
0
LINE
8
BLACK
6
CONTINUOUS
10
4.2218825590551177
20
-4.0293692519685038
11
4.2146455511811025
21
-4.0492643307086613
0
LINE
8
BLACK
6
CONTINUOUS
10
4.2146455511811025
20
-4.0492643307086613
11
4.2145138582677166
21
-4.0495894881889765
0
LINE
8
BLACK
6
CONTINUOUS
10
4.2145138582677166
20
-4.0495894881889765
11
4.2058667716535432
21
-4.0689135433070867
0
LINE
8
BLACK
6
CONTINUOUS
10
4.2058667716535432
20
-4.0689135433070867
11
4.2057121653543303
21
-4.0692281496062988
0
LINE
8
BLACK
6
CONTINUOUS
10
4.2057121653543303
20
-4.0692281496062988
11
4.2014455905511809
21
-4.0771767322834647
0
LINE
8
BLACK
6
CONTINUOUS
10
4.2014455905511809
20
-4.0771767322834647
11
4.1957000393700783
21
-4.0878805511811018
0
LINE
8
BLACK
6
CONTINUOUS
10
4.1957000393700783
20
-4.0878805511811018
11
4.1955231496062995
21
-4.0881834645669288
0
LINE
8
BLACK
6
CONTINUOUS
10
4.1955231496062995
20
-4.0881834645669288
11
4.1841969291338579
21
-4.1060693700787398
0
LINE
8
BLACK
6
CONTINUOUS
10
4.1841969291338579
20
-4.1060693700787398
11
4.1839987007874013
21
-4.1063588582677166
0
LINE
8
BLACK
6
CONTINUOUS
10
4.1839987007874013
20
-4.1063588582677166
11
4.1714170866141735
21
-4.1233852755905511
0
LINE
8
BLACK
6
CONTINUOUS
10
4.1714170866141735
20
-4.1233852755905511
11
4.1711985826771656
21
-4.1236597244094488
0
LINE
8
BLACK
6
CONTINUOUS
10
4.1711985826771656
20
-4.1236597244094488
11
4.1574272440944879
21
-4.1397379921259843
0
LINE
8
BLACK
6
CONTINUOUS
10
4.1574272440944879
20
-4.1397379921259843
11
4.1571896062992124
21
-4.1399960629921262
0
LINE
8
BLACK
6
CONTINUOUS
10
4.1571896062992124
20
-4.1399960629921262
11
4.1422990551181105
21
-4.155043937007874
0
LINE
8
BLACK
6
CONTINUOUS
10
4.1422990551181105
20
-4.155043937007874
11
4.1420435039370078
21
-4.1552842913385826
0
LINE
8
BLACK
6
CONTINUOUS
10
4.1420435039370078
20
-4.1552842913385826
11
4.1261101968503935
21
-4.1692244094488187
0
LINE
8
BLACK
6
CONTINUOUS
10
4.1261101968503935
20
-4.1692244094488187
11
4.1258380314960625
21
-4.1694457874015747
0
LINE
8
BLACK
6
CONTINUOUS
10
4.1258380314960625
20
-4.1694457874015747
11
4.1089453149606294
21
-4.1822051968503935
0
LINE
8
BLACK
6
CONTINUOUS
10
4.1089453149606294
20
-4.1822051968503935
11
4.1086583070866141
21
-4.1824062204724406
0
LINE
8
BLACK
6
CONTINUOUS
10
4.1086583070866141
20
-4.1824062204724406
11
4.0908922440944879
21
-4.1939199212598428
0
LINE
8
BLACK
6
CONTINUOUS
10
4.0908922440944879
20
-4.1939199212598428
11
4.0905911417322836
21
-4.1940999999999997
0
LINE
8
BLACK
6
CONTINUOUS
10
4.0905911417322836
20
-4.1940999999999997
11
4.0720442913385826
21
-4.2043079921259841
0
LINE
8
BLACK
6
CONTINUOUS
10
4.0720442913385826
20
-4.2043079921259841
11
4.0717311023622047
21
-4.2044659842519687
0
LINE
8
BLACK
6
CONTINUOUS
10
4.0717311023622047
20
-4.2044659842519687
11
4.0647757480314963
21
-4.2076665354330709
0
LINE
8
BLACK
6
CONTINUOUS
10
4.0647757480314963
20
-4.2076665354330709
11
4.0627035039370076
21
-4.2081134251968502
0
LINE
8
BLACK
6
CONTINUOUS
10
4.0627035039370076
20
-4.2081134251968502
11
3.8076734251968505
21
-4.2064680314960627
0
LINE
8
BLACK
6
CONTINUOUS
10
3.8076734251968505
20
-4.2064680314960627
11
3.8056642125984252
21
-4.2060211417322835
0
LINE
8
BLACK
6
CONTINUOUS
10
3.8056642125984252
20
-4.2060211417322835
11
3.8022843700787399
21
-4.2044659055118112
0
LINE
8
BLACK
6
CONTINUOUS
10
3.8022843700787399
20
-4.2044659055118112
11
3.801971181102362
21
-4.2043079133858265
0
LINE
8
BLACK
6
CONTINUOUS
10
3.801971181102362
20
-4.2043079133858265
11
3.783424409448819
21
-4.194099960629921
0
LINE
8
BLACK
6
CONTINUOUS
10
3.783424409448819
20
-4.194099960629921
11
3.7831233070866142
21
-4.1939198425196853
0
LINE
8
BLACK
6
CONTINUOUS
10
3.7831233070866142
20
-4.1939198425196853
11
3.7653577952755906
21
-4.1824064566929131
0
LINE
8
BLACK
6
CONTINUOUS
10
3.7653577952755906
20
-4.1824064566929131
11
3.765070905511811
21
-4.1822055511811023
0
LINE
8
BLACK
6
CONTINUOUS
10
3.765070905511811
20
-4.1822055511811023
11
3.748177283464567
21
-4.1694454724409447
0
LINE
8
BLACK
6
CONTINUOUS
10
3.748177283464567
20
-4.1694454724409447
11
3.7479055118110236
21
-4.1692244094488187
0
LINE
8
BLACK
6
CONTINUOUS
10
3.7479055118110236
20
-4.1692244094488187
11
3.7319722047244093
21
-4.1552842913385826
0
LINE
8
BLACK
6
CONTINUOUS
10
3.7319722047244093
20
-4.1552842913385826
11
3.7317166535433071
21
-4.155043937007874
0
LINE
8
BLACK
6
CONTINUOUS
10
3.7317166535433071
20
-4.155043937007874
11
3.7168261023622047
21
-4.1399960629921262
0
LINE
8
BLACK
6
CONTINUOUS
10
3.7168261023622047
20
-4.1399960629921262
11
3.7165884645669292
21
-4.1397379921259843
0
LINE
8
BLACK
6
CONTINUOUS
10
3.7165884645669292
20
-4.1397379921259843
11
3.7028169291338582
21
-4.1236594488188976
0
LINE
8
BLACK
6
CONTINUOUS
10
3.7028169291338582
20
-4.1236594488188976
11
3.7025984251968502
21
-4.1233849606299211
0
LINE
8
BLACK
6
CONTINUOUS
10
3.7025984251968502
20
-4.1233849606299211
11
3.690016968503937
21
-4.1063587007874016
0
LINE
8
BLACK
6
CONTINUOUS
10
3.690016968503937
20
-4.1063587007874016
11
3.6898187795275588
21
-4.1060692519685036
0
LINE
8
BLACK
6
CONTINUOUS
10
3.6898187795275588
20
-4.1060692519685036
11
3.6784928346456693
21
-4.0881838976377951
0
LINE
8
BLACK
6
CONTINUOUS
10
3.6784928346456693
20
-4.0881838976377951
11
3.6783159055118109
21
-4.0878809448818894
0
LINE
8
BLACK
6
CONTINUOUS
10
3.6783159055118109
20
-4.0878809448818894
11
3.6683037007874013
21
-4.0692283858267713
0
LINE
8
BLACK
6
CONTINUOUS
10
3.6683037007874013
20
-4.0692283858267713
11
3.6681489763779527
21
-4.0689135433070867
0
LINE
8
BLACK
6
CONTINUOUS
10
3.6681489763779527
20
-4.0689135433070867
11
3.6595018503937009
21
-4.0495894881889765
0
LINE
8
BLACK
6
CONTINUOUS
10
3.6595018503937009
20
-4.0495894881889765
11
3.659370157480315
21
-4.0492643307086613
0
LINE
8
BLACK
6
CONTINUOUS
10
3.659370157480315
20
-4.0492643307086613
11
3.6578237401574802
21
-4.0450131496062989
0
LINE
8
BLACK
6
CONTINUOUS
10
3.6578237401574802
20
-4.0450131496062989
11
3.6521329527559052
21
-4.0293686614173225
0
LINE
8
BLACK
6
CONTINUOUS
10
3.6521329527559052
20
-4.0293686614173225
11
3.6520253543307084
21
-4.029036023622047
0
LINE
8
BLACK
6
CONTINUOUS
10
3.6520253543307084
20
-4.029036023622047
11
3.6462357874015745
21
-4.0086724015748034
0
LINE
8
BLACK
6
CONTINUOUS
10
3.6462357874015745
20
-4.0086724015748034
11
3.6461520472440943
21
-4.0083317322834642
0
LINE
8
BLACK
6
CONTINUOUS
10
3.6461520472440943
20
-4.0083317322834642
11
3.6448480708661415
21
-4.0020642125984249
0
LINE
8
BLACK
6
CONTINUOUS
10
3.6448480708661415
20
-4.0020642125984249
11
3.6418399999999997
21
-3.9876058661417324
0
LINE
8
BLACK
6
CONTINUOUS
10
3.6418399999999997
20
-3.9876058661417324
11
3.6417809448818899
21
-3.9872601181102363
0
LINE
8
BLACK
6
CONTINUOUS
10
3.6417809448818899
20
-3.9872601181102363
11
3.6407350393700786
21
-3.9794572047244094
0
LINE
8
BLACK
6
CONTINUOUS
10
3.6407350393700786
20
-3.9794572047244094
11
3.6390457874015749
21
-3.9668547244094485
0
LINE
8
BLACK
6
CONTINUOUS
10
3.6390457874015749
20
-3.9668547244094485
11
3.6394632677165353
21
-3.9641359055118111
0
LINE
8
BLACK
6
CONTINUOUS
10
3.6394632677165353
20
-3.9641359055118111
11
3.6412844094488186
21
-3.9620743307086612
0
LINE
8
BLACK
6
CONTINUOUS
10
3.6412844094488186
20
-3.9620743307086612
11
3.6439310236220472
21
-3.9613246062992125
0
LINE
8
BLACK
6
CONTINUOUS
10
3.6439310236220472
20
-3.9613246062992125
11
3.6465628740157481
21
-3.9621247637795274
0
LINE
8
BLACK
6
CONTINUOUS
10
3.6465628740157481
20
-3.9621247637795274
11
3.6482341732283463
21
-3.9639899212598424
0
LINE
8
BLACK
6
CONTINUOUS
10
3.6482341732283463
20
-3.9639899212598424
11
3.6502619291338583
21
-3.9679696062992127
0
LINE
8
BLACK
6
CONTINUOUS
10
3.6502619291338583
20
-3.9679696062992127
11
3.6502620866141733
21
-3.967969803149606
0
LINE
8
BLACK
6
CONTINUOUS
10
3.6502620866141733
20
-3.967969803149606
11
3.6557276771653542
21
-3.9754925196850395
0
LINE
8
BLACK
6
CONTINUOUS
10
3.6557276771653542
20
-3.9754925196850395
11
3.6623027559055119
21
-3.9820675984251968
0
LINE
8
BLACK
6
CONTINUOUS
10
3.6623027559055119
20
-3.9820675984251968
11
3.6698254724409449
21
-3.9875331889763777
0
LINE
8
BLACK
6
CONTINUOUS
10
3.6698254724409449
20
-3.9875331889763777
11
3.672142834645669
21
-3.9887139370078741
0
LINE
8
BLACK
6
CONTINUOUS
10
3.672142834645669
20
-3.9887139370078741
11
3.6781103543307085
21
-3.9917545669291337
0
LINE
8
BLACK
6
CONTINUOUS
10
3.6781103543307085
20
-3.9917545669291337
11
3.678110433070866
21
-3.9917545669291337
0
LINE
8
BLACK
6
CONTINUOUS
10
3.678110433070866
20
-3.9917545669291337
11
3.6781105511811023
21
-3.9917546456692912
0
LINE
8
BLACK
6
CONTINUOUS
10
3.6781105511811023
20
-3.9917546456692912
11
3.6828508661417323
21
-3.9932948425196848
0
LINE
8
BLACK
6
CONTINUOUS
10
3.6828508661417323
20
-3.9932948425196848
11
3.6869539763779526
21
-3.9946280708661415
0
LINE
8
BLACK
6
CONTINUOUS
10
3.6869539763779526
20
-3.9946280708661415
11
3.6961379133858268
21
-3.9960826771653544
0
LINE
8
BLACK
6
CONTINUOUS
10
3.6961379133858268
20
-3.9960826771653544
11
3.6961381102362205
21
-3.9960826771653544
0
LINE
8
BLACK
6
CONTINUOUS
10
3.6961381102362205
20
-3.9960826771653544
11
3.7054368897637793
21
-3.9960826771653544
0
LINE
8
BLACK
6
CONTINUOUS
10
3.7054368897637793
20
-3.9960826771653544
11
3.7146207874015746
21
-3.9946280708661415
0
LINE
8
BLACK
6
CONTINUOUS
10
3.7146207874015746
20
-3.9946280708661415
11
3.7234642519685037
21
-3.9917546456692912
0
LINE
8
BLACK
6
CONTINUOUS
10
3.7234642519685037
20
-3.9917546456692912
11
3.7317493307086615
21
-3.9875331889763777
0
LINE
8
BLACK
6
CONTINUOUS
10
3.7317493307086615
20
-3.9875331889763777
11
3.7392720472440946
21
-3.9820675984251968
0
LINE
8
BLACK
6
CONTINUOUS
10
3.7392720472440946
20
-3.9820675984251968
11
3.7458471259842518
21
-3.9754925196850395
0
LINE
8
BLACK
6
CONTINUOUS
10
3.7458471259842518
20
-3.9754925196850395
11
3.7513127165354332
21
-3.967969803149606
0
LINE
8
BLACK
6
CONTINUOUS
10
3.7513127165354332
20
-3.967969803149606
11
3.7555341732283463
21
-3.9596847244094486
0
LINE
8
BLACK
6
CONTINUOUS
10
3.7555341732283463
20
-3.9596847244094486
11
3.7584075984251966
21
-3.9508412598425195
0
LINE
8
BLACK
6
CONTINUOUS
10
3.7584075984251966
20
-3.9508412598425195
11
3.7591980314960627
21
-3.9458506299212597
0
LINE
8
BLACK
6
CONTINUOUS
10
3.7591980314960627
20
-3.9458506299212597
11
3.7598622047244095
21
-3.9416573622047242
0
LINE
8
BLACK
6
CONTINUOUS
10
3.7598622047244095
20
-3.9416573622047242
11
3.7598622047244095
21
-3.9323583464566929
0
LINE
8
BLACK
6
CONTINUOUS
10
3.7598622047244095
20
-3.9323583464566929
11
3.7584075984251966
21
-3.9231744488188975
0
LINE
8
BLACK
6
CONTINUOUS
10
3.7584075984251966
20
-3.9231744488188975
11
3.7563594488188974
21
-3.9168709448818895
0
LINE
8
BLACK
6
CONTINUOUS
10
3.7563594488188974
20
-3.9168709448818895
11
3.7555341732283463
21
-3.9143310236220472
0
LINE
8
BLACK
6
CONTINUOUS
10
3.7555341732283463
20
-3.9143310236220472
11
3.7555340944881888
21
-3.914330905511811
0
LINE
8
BLACK
6
CONTINUOUS
10
3.7555340944881888
20
-3.914330905511811
11
3.7555340944881888
21
-3.9143308267716534
0
LINE
8
BLACK
6
CONTINUOUS
10
3.7555340944881888
20
-3.9143308267716534
11
3.7525602362204724
21
-3.9084943700787402
0
LINE
8
BLACK
6
CONTINUOUS
10
3.7525602362204724
20
-3.9084943700787402
11
3.7513127165354332
21
-3.9060459448818898
0
LINE
8
BLACK
6
CONTINUOUS
10
3.7513127165354332
20
-3.9060459448818898
11
3.7494743700787403
21
-3.9035156692913384
0
LINE
8
BLACK
6
CONTINUOUS
10
3.7494743700787403
20
-3.9035156692913384
11
3.7458471259842518
21
-3.8985232283464568
0
LINE
8
BLACK
6
CONTINUOUS
10
3.7458471259842518
20
-3.8985232283464568
11
3.7392720472440946
21
-3.8919481496062991
0
LINE
8
BLACK
6
CONTINUOUS
10
3.7392720472440946
20
-3.8919481496062991
11
3.7317493307086615
21
-3.8864825590551182
0
LINE
8
BLACK
6
CONTINUOUS
10
3.7317493307086615
20
-3.8864825590551182
11
3.7309014566929135
21
-3.8860505511811021
0
LINE
8
BLACK
6
CONTINUOUS
10
3.7309014566929135
20
-3.8860505511811021
11
3.7234644094488187
21
-3.8822611417322834
0
LINE
8
BLACK
6
CONTINUOUS
10
3.7234644094488187
20
-3.8822611417322834
11
3.7146207874015746
21
-3.8793876377952756
0
LINE
8
BLACK
6
CONTINUOUS
10
3.7146207874015746
20
-3.8793876377952756
11
3.7054368897637793
21
-3.8779330708661415
0
LINE
8
BLACK
6
CONTINUOUS
10
3.7054368897637793
20
-3.8779330708661415
11
3.705436692913386
21
-3.8779330708661415
0
LINE
8
BLACK
6
CONTINUOUS
10
3.705436692913386
20
-3.8779330708661415
11
3.6961381102362205
21
-3.8779330708661415
0
LINE
8
BLACK
6
CONTINUOUS
10
3.6961381102362205
20
-3.8779330708661415
11
3.6961379133858268
21
-3.8779330708661415
0
LINE
8
BLACK
6
CONTINUOUS
10
3.6961379133858268
20
-3.8779330708661415
11
3.6869539763779526
21
-3.8793876377952756
0
LINE
8
BLACK
6
CONTINUOUS
10
3.6869539763779526
20
-3.8793876377952756
11
3.6781103543307085
21
-3.8822611417322834
0
LINE
8
BLACK
6
CONTINUOUS
10
3.6781103543307085
20
-3.8822611417322834
11
3.6698254330708662
21
-3.8864825590551182
0
LINE
8
BLACK
6
CONTINUOUS
10
3.6698254330708662
20
-3.8864825590551182
11
3.6655334645669289
21
-3.8896008661417323
0
LINE
8
BLACK
6
CONTINUOUS
10
3.6655334645669289
20
-3.8896008661417323
11
3.6623027559055119
21
-3.8919481496062991
0
LINE
8
BLACK
6
CONTINUOUS
10
3.6623027559055119
20
-3.8919481496062991
11
3.6623026771653544
21
-3.8919482283464566
0
LINE
8
BLACK
6
CONTINUOUS
10
3.6623026771653544
20
-3.8919482283464566
11
3.6623026377952757
21
-3.8919482283464566
0
LINE
8
BLACK
6
CONTINUOUS
10
3.6623026377952757
20
-3.8919482283464566
11
3.6557277559055117
21
-3.8985231102362206
0
LINE
8
BLACK
6
CONTINUOUS
10
3.6557277559055117
20
-3.8985231102362206
11
3.6557277559055117
21
-3.8985231496062993
0
LINE
8
BLACK
6
CONTINUOUS
10
3.6557277559055117
20
-3.8985231496062993
11
3.6557276771653542
21
-3.8985232283464568
0
LINE
8
BLACK
6
CONTINUOUS
10
3.6557276771653542
20
-3.8985232283464568
11
3.6541693700787401
21
-3.9006680314960631
0
LINE
8
BLACK
6
CONTINUOUS
10
3.6541693700787401
20
-3.9006680314960631
11
3.6502620078740158
21
-3.9060459842519686
0
LINE
8
BLACK
6
CONTINUOUS
10
3.6502620078740158
20
-3.9060459842519686
11
3.6483872047244095
21
-3.9097255118110237
0
LINE
8
BLACK
6
CONTINUOUS
10
3.6483872047244095
20
-3.9097255118110237
11
3.6480761417322833
21
-3.9100548425196848
0
LINE
8
BLACK
6
CONTINUOUS
10
3.6480761417322833
20
-3.9100548425196848
11
3.6479131889763781
21
-3.9104775196850392
0
LINE
8
BLACK
6
CONTINUOUS
10
3.6479131889763781
20
-3.9104775196850392
11
3.647148779527559
21
-3.911036692913386
0
LINE
8
BLACK
6
CONTINUOUS
10
3.647148779527559
20
-3.911036692913386
11
3.6464984645669292
21
-3.9117253149606297
0
LINE
8
BLACK
6
CONTINUOUS
10
3.6464984645669292
20
-3.9117253149606297
11
3.6460587007874015
21
-3.9118341732283466
0
LINE
8
BLACK
6
CONTINUOUS
10
3.6460587007874015
20
-3.9118341732283466
11
3.6456931102362202
21
-3.9121016929133856
0
LINE
8
BLACK
6
CONTINUOUS
10
3.6456931102362202
20
-3.9121016929133856
11
3.6447476771653542
21
-3.9121588582677163
0
LINE
8
BLACK
6
CONTINUOUS
10
3.6447476771653542
20
-3.9121588582677163
11
3.6438283464566927
21
-3.9123865354330709
0
LINE
8
BLACK
6
CONTINUOUS
10
3.6438283464566927
20
-3.9123865354330709
11
3.6433995275590552
21
-3.9122403937007872
0
LINE
8
BLACK
6
CONTINUOUS
10
3.6433995275590552
20
-3.9122403937007872
11
3.6429473622047244
21
-3.9122677559055119
0
LINE
8
BLACK
6
CONTINUOUS
10
3.6429473622047244
20
-3.9122677559055119
11
3.6421211023622044
21
-3.9118047244094489
0
LINE
8
BLACK
6
CONTINUOUS
10
3.6421211023622044
20
-3.9118047244094489
11
3.6412246062992124
21
-3.9114992125984251
0
LINE
8
BLACK
6
CONTINUOUS
10
3.6412246062992124
20
-3.9114992125984251
11
3.6409428740157481
21
-3.9111444488188973
0
LINE
8
BLACK
6
CONTINUOUS
10
3.6409428740157481
20
-3.9111444488188973
11
3.6405476771653542
21
-3.9109229921259843
0
LINE
8
BLACK
6
CONTINUOUS
10
3.6405476771653542
20
-3.9109229921259843
11
3.6401028740157479
21
-3.910086692913386
0
LINE
8
BLACK
6
CONTINUOUS
10
3.6401028740157479
20
-3.910086692913386
11
3.639513937007874
21
-3.9093450787401576
0
LINE
8
BLACK
6
CONTINUOUS
10
3.639513937007874
20
-3.9093450787401576
11
3.6394355511811023
21
-3.9088320078740155
0
LINE
8
BLACK
6
CONTINUOUS
10
3.6394355511811023
20
-3.9088320078740155
11
3.6392559842519683
21
-3.9084943700787402
0
LINE
8
BLACK
6
CONTINUOUS
10
3.6392559842519683
20
-3.9084943700787402
11
3.6391721259842518
21
-3.9071075984251968
0
LINE
8
BLACK
6
CONTINUOUS
10
3.6391721259842518
20
-3.9071075984251968
11
3.6396079921259843
21
-3.901828937007874
0
LINE
8
BLACK
6
CONTINUOUS
10
3.6396079921259843
20
-3.901828937007874
11
3.6396494094488188
21
-3.9014808267716536
0
LINE
8
BLACK
6
CONTINUOUS
10
3.6396494094488188
20
-3.9014808267716536
11
3.6401093307086612
21
-3.8985231102362206
0
LINE
8
BLACK
6
CONTINUOUS
10
3.6401093307086612
20
-3.8985231102362206
11
3.6429023228346455
21
-3.8805617716535434
0
LINE
8
BLACK
6
CONTINUOUS
10
3.6429023228346455
20
-3.8805617716535434
11
3.6429683464566929
21
-3.8802185826771654
0
LINE
8
BLACK
6
CONTINUOUS
10
3.6429683464566929
20
-3.8802185826771654
11
3.6477156299212599
21
-3.8595852755905513
0
LINE
8
BLACK
6
CONTINUOUS
10
3.6477156299212599
20
-3.8595852755905513
11
3.6478059842519683
21
-3.8592485433070864
0
LINE
8
BLACK
6
CONTINUOUS
10
3.6478059842519683
20
-3.8592485433070864
11
3.6540225984251968
21
-3.8390100393700788
0
LINE
8
BLACK
6
CONTINUOUS
10
3.6540225984251968
20
-3.8390100393700788
11
3.6541374803149607
21
-3.8386790157480313
0
LINE
8
BLACK
6
CONTINUOUS
10
3.6541374803149607
20
-3.8386790157480313
11
3.655290472440945
21
-3.835705472440945
0
LINE
8
BLACK
6
CONTINUOUS
10
3.655290472440945
20
-3.835705472440945
11
3.6617912204724408
21
-3.8189399212598425
0
LINE
8
BLACK
6
CONTINUOUS
10
3.6617912204724408
20
-3.8189399212598425
11
3.6619289763779528
21
-3.8186192913385826
0
LINE
8
BLACK
6
CONTINUOUS
10
3.6619289763779528
20
-3.8186192913385826
11
3.6709809448818898
21
-3.7994799606299212
0
LINE
8
BLACK
6
CONTINUOUS
10
3.6709809448818898
20
-3.7994799606299212
11
3.6711412598425195
21
-3.7991702362204722
0
LINE
8
BLACK
6
CONTINUOUS
10
3.6711412598425195
20
-3.7991702362204722
11
3.6815446850393698
21
-3.7807299212598426
0
LINE
8
BLACK
6
CONTINUOUS
10
3.6815446850393698
20
-3.7807299212598426
11
3.6817265354330706
21
-3.7804329527559055
0
LINE
8
BLACK
6
CONTINUOUS
10
3.6817265354330706
20
-3.7804329527559055
11
3.6934275196850392
21
-3.762787086614173
0
LINE
8
BLACK
6
CONTINUOUS
10
3.6934275196850392
20
-3.762787086614173
11
3.6936300787401573
21
-3.7625042519685037
0
LINE
8
BLACK
6
CONTINUOUS
10
3.6936300787401573
20
-3.7625042519685037
11
3.7065676771653542
21
-3.7457448031496061
0
LINE
8
BLACK
6
CONTINUOUS
10
3.7065676771653542
20
-3.7457448031496061
11
3.7067911417322832
21
-3.745475866141732
0
LINE
8
BLACK
6
CONTINUOUS
10
3.7067911417322832
20
-3.745475866141732
11
3.7208988976377952
21
-3.7296888582677163
0
LINE
8
BLACK
6
CONTINUOUS
10
3.7208988976377952
20
-3.7296888582677163
11
3.7211403937007872
21
-3.7294374409448818
0
LINE
8
BLACK
6
CONTINUOUS
10
3.7211403937007872
20
-3.7294374409448818
11
3.7363455118110234
21
-3.7147043307086611
0
LINE
8
BLACK
6
CONTINUOUS
10
3.7363455118110234
20
-3.7147043307086611
11
3.7366051181102362
21
-3.71447031496063
0
LINE
8
BLACK
6
CONTINUOUS
10
3.7366051181102362
20
-3.71447031496063
11
3.7528278346456694
21
-3.7008681889763779
0
LINE
8
BLACK
6
CONTINUOUS
10
3.7528278346456694
20
-3.7008681889763779
11
3.7531043700787401
21
-3.7006527559055118
0
LINE
8
BLACK
6
CONTINUOUS
10
3.7531043700787401
20
-3.7006527559055118
11
3.7702622834645667
21
-3.6882506299212596
0
LINE
8
BLACK
6
CONTINUOUS
10
3.7702622834645667
20
-3.6882506299212596
11
3.7705527559055119
21
-3.688056181102362
0
LINE
8
BLACK
6
CONTINUOUS
10
3.7705527559055119
20
-3.688056181102362
11
3.7885583858267715
21
-3.6769174803149607
0
LINE
8
BLACK
6
CONTINUOUS
10
3.7885583858267715
20
-3.6769174803149607
11
3.7888611811023623
21
-3.6767449212598424
0
LINE
8
BLACK
6
CONTINUOUS
10
3.7888611811023623
20
-3.6767449212598424
11
3.8059470472440946
21
-3.6678036220472441
0
LINE
8
BLACK
6
CONTINUOUS
10
3.8059470472440946
20
-3.6678036220472441
11
3.8059889763779529
21
-3.6677820078740155
0
LINE
8
BLACK
6
CONTINUOUS
10
3.8059889763779529
20
-3.6677820078740155
11
3.806446062992126
21
-3.667549094488189
0
LINE
8
BLACK
6
CONTINUOUS
10
3.806446062992126
20
-3.667549094488189
11
3.8068770472440945
21
-3.6674336614173226
0
LINE
8
BLACK
6
CONTINUOUS
10
3.8068770472440945
20
-3.6674336614173226
11
3.8084102755905511
21
-3.6665483858267716
0
LINE
8
BLACK
6
CONTINUOUS
10
3.8084102755905511
20
-3.6665483858267716
11
3.8085241732283466
21
-3.6664903937007871
0
LINE
8
BLACK
6
CONTINUOUS
10
3.8085241732283466
20
-3.6664903937007871
11
3.8085347637795275
21
-3.6664883858267716
0
LINE
8
BLACK
6
CONTINUOUS
10
3.8085347637795275
20
-3.6664883858267716
11
3.8086325196850392
21
-3.6664368503937008
0
LINE
8
BLACK
6
CONTINUOUS
10
3.8086325196850392
20
-3.6664368503937008
11
3.8101146456692914
21
-3.6657279527559052
0
LINE
8
BLACK
6
CONTINUOUS
10
3.8101146456692914
20
-3.6657279527559052
11
3.8103582677165355
21
-3.6655193307086615
0
LINE
8
BLACK
6
CONTINUOUS
10
3.8103582677165355
20
-3.6655193307086615
11
3.8110921259842518
21
-3.6650000393700788
0
LINE
8
BLACK
6
CONTINUOUS
10
3.8110921259842518
20
-3.6650000393700788
11
3.811370275590551
21
-3.6648394881889761
0
LINE
8
BLACK
6
CONTINUOUS
10
3.811370275590551
20
-3.6648394881889761
11
3.8126649606299212
21
-3.6635447637795275
0
LINE
8
BLACK
6
CONTINUOUS
10
3.8126649606299212
20
-3.6635447637795275
11
3.8140561023622048
21
-3.6623539370078739
0
LINE
8
BLACK
6
CONTINUOUS
10
3.8140561023622048
20
-3.6623539370078739
11
3.8144928740157478
21
-3.6617168503937005
0
LINE
8
BLACK
6
CONTINUOUS
10
3.8144928740157478
20
-3.6617168503937005
11
3.8150390157480314
21
-3.6611707480314961
0
LINE
8
BLACK
6
CONTINUOUS
10
3.8150390157480314
20
-3.6611707480314961
11
3.8158601574803148
21
-3.6597483858267714
0
LINE
8
BLACK
6
CONTINUOUS
10
3.8158601574803148
20
-3.6597483858267714
11
3.8160608661417323
21
-3.6594298818897637
0
LINE
8
BLACK
6
CONTINUOUS
10
3.8160608661417323
20
-3.6594298818897637
11
3.8169900000000001
21
-3.6580748031496064
0
LINE
8
BLACK
6
CONTINUOUS
10
3.8169900000000001
20
-3.6580748031496064
11
3.8172470078740157
21
-3.6573463779527557
0
LINE
8
BLACK
6
CONTINUOUS
10
3.8172470078740157
20
-3.6573463779527557
11
3.8176331889763779
21
-3.6566775196850392
0
LINE
8
BLACK
6
CONTINUOUS
10
3.8176331889763779
20
-3.6566775196850392
11
3.8181070866141731
21
-3.6549088188976375
0
LINE
8
BLACK
6
CONTINUOUS
10
3.8181070866141731
20
-3.6549088188976375
11
3.818716377952756
21
-3.6531820866141733
0
LINE
8
BLACK
6
CONTINUOUS
10
3.818716377952756
20
-3.6531820866141733
11
3.8187761023622047
21
-3.6524120078740157
0
LINE
8
BLACK
6
CONTINUOUS
10
3.8187761023622047
20
-3.6524120078740157
11
3.8189760236220471
21
-3.6516659448818896
0
LINE
8
BLACK
6
CONTINUOUS
10
3.8189760236220471
20
-3.6516659448818896
11
3.8189760236220471
21
-3.6498348425196849
0
LINE
8
BLACK
6
CONTINUOUS
10
3.8189760236220471
20
-3.6498348425196849
11
3.8191176377952756
21
-3.6480092519685039
0
LINE
8
BLACK
6
CONTINUOUS
10
3.8191176377952756
20
-3.6480092519685039
11
3.819058779527559
21
-3.6476935826771655
0
LINE
8
BLACK
6
CONTINUOUS
10
3.819058779527559
20
-3.6476935826771655
11
3.8189760236220471
21
-3.6467986220472439
0
LINE
8
BLACK
6
CONTINUOUS
10
3.8189760236220471
20
-3.6467986220472439
11
3.8189760236220471
21
-3.6466338582677165
0
LINE
8
BLACK
6
CONTINUOUS
10
3.8189760236220471
20
-3.6466338582677165
11
3.8197510236220471
21
-3.6439945275590548
0
LINE
8
BLACK
6
CONTINUOUS
10
3.8197510236220471
20
-3.6439945275590548
11
3.8218299212598423
21
-3.6421931496062991
0
LINE
8
BLACK
6
CONTINUOUS
10
3.8218299212598423
20
-3.6421931496062991
11
3.8238579133858268
21
-3.6417519685039368
0
LINE
8
BLACK
6
CONTINUOUS
10
3.8238579133858268
20
-3.6417519685039368
11
4.0501578346456695
21
-3.6417519685039368
0
LINE
8
BLACK
6
CONTINUOUS
10
4.0501578346456695
20
-3.6417519685039368
11
4.0527971653543302
21
-3.6425269685039368
0
LINE
8
BLACK
6
CONTINUOUS
10
3.7814763779527558
20
-3.9205000393700788
11
3.7815905905511809
21
-3.9219514566929132
0
LINE
8
BLACK
6
CONTINUOUS
10
3.7815905905511809
20
-3.9219514566929132
11
3.7815906299212596
21
-3.9219516929133857
0
LINE
8
BLACK
6
CONTINUOUS
10
3.7815906299212596
20
-3.9219516929133857
11
3.7833958267716534
21
-3.9281650787401574
0
LINE
8
BLACK
6
CONTINUOUS
10
3.7833958267716534
20
-3.9281650787401574
11
3.7833958661417322
21
-3.9281651968503937
0
LINE
8
BLACK
6
CONTINUOUS
10
3.7833958661417322
20
-3.9281651968503937
11
3.7866896456692913
21
-3.9337347244094487
0
LINE
8
BLACK
6
CONTINUOUS
10
3.7866896456692913
20
-3.9337347244094487
11
3.7868780314960628
21
-3.9339775984251966
0
LINE
8
BLACK
6
CONTINUOUS
10
3.7868780314960628
20
-3.9339775984251966
11
3.7867817322834645
21
-3.9340522440944881
0
LINE
8
BLACK
6
CONTINUOUS
10
3.7867817322834645
20
-3.9340522440944881
11
3.7878290157480312
21
-3.9359701574803148
0
LINE
8
BLACK
6
CONTINUOUS
10
3.7878290157480312
20
-3.9359701574803148
11
3.7876327952755906
21
-3.9387139370078739
0
LINE
8
BLACK
6
CONTINUOUS
10
3.7876327952755906
20
-3.9387139370078739
11
3.7868137401574802
21
-3.939988307086614
0
LINE
8
BLACK
6
CONTINUOUS
10
3.7868137401574802
20
-3.939988307086614
11
3.7868780314960628
21
-3.9400381496062993
0
LINE
8
BLACK
6
CONTINUOUS
10
3.7868780314960628
20
-3.9400381496062993
11
3.7866896456692913
21
-3.9402809842519684
0
LINE
8
BLACK
6
CONTINUOUS
10
3.7866896456692913
20
-3.9402809842519684
11
3.7833958661417322
21
-3.9458505118110234
0
LINE
8
BLACK
6
CONTINUOUS
10
3.7833958661417322
20
-3.9458505118110234
11
3.7833958267716534
21
-3.9458506299212597
0
LINE
8
BLACK
6
CONTINUOUS
10
3.7833958267716534
20
-3.9458506299212597
11
3.7815906299212596
21
-3.9520640157480313
0
LINE
8
BLACK
6
CONTINUOUS
10
3.7815906299212596
20
-3.9520640157480313
11
3.7815905905511809
21
-3.9520642519685039
0
LINE
8
BLACK
6
CONTINUOUS
10
3.7815905905511809
20
-3.9520642519685039
11
3.7814763779527558
21
-3.9535156692913387
0
LINE
8
BLACK
6
CONTINUOUS
10
3.7814763779527558
20
-3.9535156692913387
11
3.7814763779527558
21
-3.9705000393700787
0
LINE
8
BLACK
6
CONTINUOUS
10
3.7814763779527558
20
-3.9705000393700787
11
3.7815905905511809
21
-3.9719514566929135
0
LINE
8
BLACK
6
CONTINUOUS
10
3.7815905905511809
20
-3.9719514566929135
11
3.7815906299212596
21
-3.9719516929133856
0
LINE
8
BLACK
6
CONTINUOUS
10
3.7815906299212596
20
-3.9719516929133856
11
3.7833958267716534
21
-3.9781650787401572
0
LINE
8
BLACK
6
CONTINUOUS
10
3.7833958267716534
20
-3.9781650787401572
11
3.7833958661417322
21
-3.9781651968503935
0
LINE
8
BLACK
6
CONTINUOUS
10
3.7833958661417322
20
-3.9781651968503935
11
3.7833959055118109
21
-3.978165275590551
0
LINE
8
BLACK
6
CONTINUOUS
10
3.7833959055118109
20
-3.978165275590551
11
3.7841599606299212
21
-3.9794572047244094
0
LINE
8
BLACK
6
CONTINUOUS
10
3.7841599606299212
20
-3.9794572047244094
11
3.7866896456692913
21
-3.9837347244094485
0
LINE
8
BLACK
6
CONTINUOUS
10
3.7866896456692913
20
-3.9837347244094485
11
3.7868780314960628
21
-3.9839775984251968
0
LINE
8
BLACK
6
CONTINUOUS
10
3.7868780314960628
20
-3.9839775984251968
11
3.7867817322834645
21
-3.9840522440944879
0
LINE
8
BLACK
6
CONTINUOUS
10
3.7867817322834645
20
-3.9840522440944879
11
3.7878290157480312
21
-3.985970157480315
0
LINE
8
BLACK
6
CONTINUOUS
10
3.7878290157480312
20
-3.985970157480315
11
3.7876327952755906
21
-3.9887139370078741
0
LINE
8
BLACK
6
CONTINUOUS
10
3.7876327952755906
20
-3.9887139370078741
11
3.7868137401574802
21
-3.9899883070866142
0
LINE
8
BLACK
6
CONTINUOUS
10
3.7868137401574802
20
-3.9899883070866142
11
3.7868780314960628
21
-3.9900381496062991
0
LINE
8
BLACK
6
CONTINUOUS
10
3.7868780314960628
20
-3.9900381496062991
11
3.7866896456692913
21
-3.9902809842519682
0
LINE
8
BLACK
6
CONTINUOUS
10
3.7866896456692913
20
-3.9902809842519682
11
3.7833958661417322
21
-3.9958505118110237
0
LINE
8
BLACK
6
CONTINUOUS
10
3.7833958661417322
20
-3.9958505118110237
11
3.7833958267716534
21
-3.9958506299212599
0
LINE
8
BLACK
6
CONTINUOUS
10
3.7833958267716534
20
-3.9958506299212599
11
3.7815906299212596
21
-4.0020640157480312
0
LINE
8
BLACK
6
CONTINUOUS
10
3.7815906299212596
20
-4.0020640157480312
11
3.7815905905511809
21
-4.0020642519685037
0
LINE
8
BLACK
6
CONTINUOUS
10
3.7815905905511809
20
-4.0020642519685037
11
3.7814763779527558
21
-4.0035156692913381
0
LINE
8
BLACK
6
CONTINUOUS
10
3.7814763779527558
20
-4.0035156692913381
11
3.7814763779527558
21
-4.0205000393700789
0
LINE
8
BLACK
6
CONTINUOUS
10
3.7814763779527558
20
-4.0205000393700789
11
3.7815905905511809
21
-4.0219514566929133
0
LINE
8
BLACK
6
CONTINUOUS
10
3.7815905905511809
20
-4.0219514566929133
11
3.7815906299212596
21
-4.0219516929133858
0
LINE
8
BLACK
6
CONTINUOUS
10
3.7815906299212596
20
-4.0219516929133858
11
3.7833958267716534
21
-4.0281650787401571
0
LINE
8
BLACK
6
CONTINUOUS
10
3.7833958267716534
20
-4.0281650787401571
11
3.7833958661417322
21
-4.0281651968503933
0
LINE
8
BLACK
6
CONTINUOUS
10
3.7833958661417322
20
-4.0281651968503933
11
3.7833959055118109
21
-4.0281652755905508
0
LINE
8
BLACK
6
CONTINUOUS
10
3.7833959055118109
20
-4.0281652755905508
11
3.7848693307086614
21
-4.0306567322834645
0
LINE
8
BLACK
6
CONTINUOUS
10
3.7848693307086614
20
-4.0306567322834645
11
3.7866896456692913
21
-4.0337347244094488
0
LINE
8
BLACK
6
CONTINUOUS
10
3.7866896456692913
20
-4.0337347244094488
11
3.7866898818897639
21
-4.0337350393700788
0
LINE
8
BLACK
6
CONTINUOUS
10
3.7866898818897639
20
-4.0337350393700788
11
3.7912649212598426
21
-4.0383100787401576
0
LINE
8
BLACK
6
CONTINUOUS
10
3.7912649212598426
20
-4.0383100787401576
11
3.7912650787401576
21
-4.0383101968503938
0
LINE
8
BLACK
6
CONTINUOUS
10
3.7912650787401576
20
-4.0383101968503938
11
3.7912651574803147
21
-4.0383102755905513
0
LINE
8
BLACK
6
CONTINUOUS
10
3.7912651574803147
20
-4.0383102755905513
11
3.7968347244094489
21
-4.0416040944881892
0
LINE
8
BLACK
6
CONTINUOUS
10
3.7968347244094489
20
-4.0416040944881892
11
3.7984733858267714
21
-4.0420801574803145
0
LINE
8
BLACK
6
CONTINUOUS
10
3.7984733858267714
20
-4.0420801574803145
11
3.8030482677165351
21
-4.0434093307086609
0
LINE
8
BLACK
6
CONTINUOUS
10
3.8030482677165351
20
-4.0434093307086609
11
3.8030483858267714
21
-4.0434093307086609
0
LINE
8
BLACK
6
CONTINUOUS
10
3.8030483858267714
20
-4.0434093307086609
11
3.8030484645669289
21
-4.0434093700787397
0
LINE
8
BLACK
6
CONTINUOUS
10
3.8030484645669289
20
-4.0434093700787397
11
3.8045002362204725
21
-4.0435236220472444
0
LINE
8
BLACK
6
CONTINUOUS
10
3.8045002362204725
20
-4.0435236220472444
11
3.8071062598425196
21
-4.0435236220472444
0
LINE
8
BLACK
6
CONTINUOUS
10
3.8071062598425196
20
-4.0435236220472444
11
3.8097455905511812
21
-4.0442986220472443
0
LINE
8
BLACK
6
CONTINUOUS
10
3.8097455905511812
20
-4.0442986220472443
11
3.8115469685039369
21
-4.0463775196850396
0
LINE
8
BLACK
6
CONTINUOUS
10
3.8115469685039369
20
-4.0463775196850396
11
3.8119881496062993
21
-4.0484055118110236
0
LINE
8
BLACK
6
CONTINUOUS
10
3.8119881496062993
20
-4.0484055118110236
11
3.8119881496062993
21
-4.049372204724409
0
LINE
8
BLACK
6
CONTINUOUS
10
3.8119881496062993
20
-4.049372204724409
11
3.8119881102362205
21
-4.049372204724409
0
LINE
8
BLACK
6
CONTINUOUS
10
3.8119881102362205
20
-4.049372204724409
11
3.8119881496062993
21
-4.0493723228346452
0
LINE
8
BLACK
6
CONTINUOUS
10
3.8119881496062993
20
-4.0493723228346452
11
3.8135993307086613
21
-4.0553852362204728
0
LINE
8
BLACK
6
CONTINUOUS
10
3.8135993307086613
20
-4.0553852362204728
11
3.8142868503937009
21
-4.0565760236220472
0
LINE
8
BLACK
6
CONTINUOUS
10
3.8142868503937009
20
-4.0565760236220472
11
3.8149409448818896
21
-4.059017007874016
0
LINE
8
BLACK
6
CONTINUOUS
10
3.8149409448818896
20
-4.059017007874016
11
3.8149409448818896
21
-4.0601907874015746
0
LINE
8
BLACK
6
CONTINUOUS
10
3.8149409448818896
20
-4.0601907874015746
11
3.8161520078740159
21
-4.0662790944881886
0
LINE
8
BLACK
6
CONTINUOUS
10
3.8161520078740159
20
-4.0662790944881886
11
3.8161521259842517
21
-4.0662795669291336
0
LINE
8
BLACK
6
CONTINUOUS
10
3.8161521259842517
20
-4.0662795669291336
11
3.8185276377952757
21
-4.0720146456692916
0
LINE
8
BLACK
6
CONTINUOUS
10
3.8185276377952757
20
-4.0720146456692916
11
3.8185279133858265
21
-4.0720151574803145
0
LINE
8
BLACK
6
CONTINUOUS
10
3.8185279133858265
20
-4.0720151574803145
11
3.8219767716535431
21
-4.0771766929133859
0
LINE
8
BLACK
6
CONTINUOUS
10
3.8219767716535431
20
-4.0771766929133859
11
3.8219768897637794
21
-4.0771768503937009
0
LINE
8
BLACK
6
CONTINUOUS
10
3.8219768897637794
20
-4.0771768503937009
11
3.8263664173228347
21
-4.0815663779527558
0
LINE
8
BLACK
6
CONTINUOUS
10
3.8263664173228347
20
-4.0815663779527558
11
3.8263665748031497
21
-4.081566496062992
0
LINE
8
BLACK
6
CONTINUOUS
10
3.8263665748031497
20
-4.081566496062992
11
3.8315281102362202
21
-4.0850153543307082
0
LINE
8
BLACK
6
CONTINUOUS
10
3.8315281102362202
20
-4.0850153543307082
11
3.831528622047244
21
-4.0850156299212594
0
LINE
8
BLACK
6
CONTINUOUS
10
3.831528622047244
20
-4.0850156299212594
11
3.8372637007874015
21
-4.087391141732283
0
LINE
8
BLACK
6
CONTINUOUS
10
3.8372637007874015
20
-4.087391141732283
11
3.8372638976377953
21
-4.0873912204724405
0
LINE
8
BLACK
6
CONTINUOUS
10
3.8372638976377953
20
-4.0873912204724405
11
3.8412489370078737
21
-4.0881838976377951
0
LINE
8
BLACK
6
CONTINUOUS
10
3.8412489370078737
20
-4.0881838976377951
11
3.8433524803149606
21
-4.088602322834646
0
LINE
8
BLACK
6
CONTINUOUS
10
3.8433524803149606
20
-4.088602322834646
11
3.8433525984251968
21
-4.0886023622047247
0
LINE
8
BLACK
6
CONTINUOUS
10
3.8433525984251968
20
-4.0886023622047247
11
3.8433526771653543
21
-4.0886023622047247
0
LINE
8
BLACK
6
CONTINUOUS
10
3.8433526771653543
20
-4.0886023622047247
11
3.8495607874015749
21
-4.0886023622047247
0
LINE
8
BLACK
6
CONTINUOUS
10
3.8495607874015749
20
-4.0886023622047247
11
3.8495608267716537
21
-4.088602322834646
0
LINE
8
BLACK
6
CONTINUOUS
10
3.8495608267716537
20
-4.088602322834646
11
3.8556494881889765
21
-4.0873912204724405
0
LINE
8
BLACK
6
CONTINUOUS
10
3.8556494881889765
20
-4.0873912204724405
11
3.8613849999999998
21
-4.0850155118110232
0
LINE
8
BLACK
6
CONTINUOUS
10
3.8613849999999998
20
-4.0850155118110232
11
3.8665468110236221
21
-4.081566496062992
0
LINE
8
BLACK
6
CONTINUOUS
10
3.8665468110236221
20
-4.081566496062992
11
3.8709365748031495
21
-4.0771767322834647
0
LINE
8
BLACK
6
CONTINUOUS
10
3.8709365748031495
20
-4.0771767322834647
11
3.874385590551181
21
-4.072014921259842
0
LINE
8
BLACK
6
CONTINUOUS
10
3.874385590551181
20
-4.072014921259842
11
3.8767612992125984
21
-4.0662794094488186
0
LINE
8
BLACK
6
CONTINUOUS
10
3.8767612992125984
20
-4.0662794094488186
11
3.8779724409448817
21
-4.0601906299212596
0
LINE
8
BLACK
6
CONTINUOUS
10
3.8779724409448817
20
-4.0601906299212596
11
3.8779724409448817
21
-4.0539825984251969
0
LINE
8
BLACK
6
CONTINUOUS
10
3.8779724409448817
20
-4.0539825984251969
11
3.8779724409448817
21
-4.0539824803149607
0
LINE
8
BLACK
6
CONTINUOUS
10
3.8779724409448817
20
-4.0539824803149607
11
3.8779724015748029
21
-4.0539824015748032
0
LINE
8
BLACK
6
CONTINUOUS
10
3.8779724015748029
20
-4.0539824015748032
11
3.8767613385826771
21
-4.0478940944881892
0
LINE
8
BLACK
6
CONTINUOUS
10
3.8767613385826771
20
-4.0478940944881892
11
3.8767612992125984
21
-4.0478938188976379
0
LINE
8
BLACK
6
CONTINUOUS
10
3.8767612992125984
20
-4.0478938188976379
11
3.8758301181102359
21
-4.045645708661417
0
LINE
8
BLACK
6
CONTINUOUS
10
3.8758301181102359
20
-4.045645708661417
11
3.8755360629921261
21
-4.0429107086614176
0
LINE
8
BLACK
6
CONTINUOUS
10
3.8755360629921261
20
-4.0429107086614176
11
3.8767673622047245
21
-4.0404509055118112
0
LINE
8
BLACK
6
CONTINUOUS
10
3.8767673622047245
20
-4.0404509055118112
11
3.8778551574803148
21
-4.0395755511811027
0
LINE
8
BLACK
6
CONTINUOUS
10
3.8778551574803148
20
-4.0395755511811027
11
3.8799946850393701
21
-4.0383102755905513
0
LINE
8
BLACK
6
CONTINUOUS
10
3.8799946850393701
20
-4.0383102755905513
11
3.8845701181102363
21
-4.0337348425196851
0
LINE
8
BLACK
6
CONTINUOUS
10
3.8845701181102363
20
-4.0337348425196851
11
3.8878639370078738
21
-4.0281652755905508
0
LINE
8
BLACK
6
CONTINUOUS
10
3.8878639370078738
20
-4.0281652755905508
11
3.8896692125984251
21
-4.0219515354330708
0
LINE
8
BLACK
6
CONTINUOUS
10
3.8896692125984251
20
-4.0219515354330708
11
3.8897834645669289
21
-4.0204997637795277
0
LINE
8
BLACK
6
CONTINUOUS
10
3.8897834645669289
20
-4.0204997637795277
11
3.8897834645669289
21
-4.0035159842519681
0
LINE
8
BLACK
6
CONTINUOUS
10
3.8897834645669289
20
-4.0035159842519681
11
3.8896692125984251
21
-4.0020642125984249
0
LINE
8
BLACK
6
CONTINUOUS
10
3.8896692125984251
20
-4.0020642125984249
11
3.8896374803149607
21
-4.001954960629921
0
LINE
8
BLACK
6
CONTINUOUS
10
3.8896374803149607
20
-4.001954960629921
11
3.8896374803149607
21
-4.0019548818897634
0
LINE
8
BLACK
6
CONTINUOUS
10
3.8896374803149607
20
-4.0019548818897634
11
3.8893114960629922
21
-4.0008327952755902
0
LINE
8
BLACK
6
CONTINUOUS
10
3.8893114960629922
20
-4.0008327952755902
11
3.8878640157480313
21
-3.9958506299212599
0
LINE
8
BLACK
6
CONTINUOUS
10
3.8878640157480313
20
-3.9958506299212599
11
3.8878639370078738
21
-3.9958505118110237
0
LINE
8
BLACK
6
CONTINUOUS
10
3.8878639370078738
20
-3.9958505118110237
11
3.8878639370078738
21
-3.9958504724409449
0
LINE
8
BLACK
6
CONTINUOUS
10
3.8878639370078738
20
-3.9958504724409449
11
3.8845701181102363
21
-3.9902809055118111
0
LINE
8
BLACK
6
CONTINUOUS
10
3.8845701181102363
20
-3.9902809055118111
11
3.8845700000000001
21
-3.9902807874015749
0
LINE
8
BLACK
6
CONTINUOUS
10
3.8845700000000001
20
-3.9902807874015749
11
3.8843818110236219
21
-3.9900381496062991
0
LINE
8
BLACK
6
CONTINUOUS
10
3.8843818110236219
20
-3.9900381496062991
11
3.8844783464566928
21
-3.9899632283464568
0
LINE
8
BLACK
6
CONTINUOUS
10
3.8844783464566928
20
-3.9899632283464568
11
3.8834312992125986
21
-3.9880480708661414
0
LINE
8
BLACK
6
CONTINUOUS
10
3.8834312992125986
20
-3.9880480708661414
11
3.8836261417322833
21
-3.9853041732283465
0
LINE
8
BLACK
6
CONTINUOUS
10
3.8836261417322833
20
-3.9853041732283465
11
3.8844464566929133
21
-3.984027716535433
0
LINE
8
BLACK
6
CONTINUOUS
10
3.8844464566929133
20
-3.984027716535433
11
3.8843818110236219
21
-3.9839775984251968
0
LINE
8
BLACK
6
CONTINUOUS
10
3.8843818110236219
20
-3.9839775984251968
11
3.8845698818897638
21
-3.9837350393700786
0
LINE
8
BLACK
6
CONTINUOUS
10
3.8845698818897638
20
-3.9837350393700786
11
3.8845701181102363
21
-3.9837348425196848
0
LINE
8
BLACK
6
CONTINUOUS
10
3.8845701181102363
20
-3.9837348425196848
11
3.8878639370078738
21
-3.978165275590551
0
LINE
8
BLACK
6
CONTINUOUS
10
3.8878639370078738
20
-3.978165275590551
11
3.8896692125984251
21
-3.9719515354330706
0
LINE
8
BLACK
6
CONTINUOUS
10
3.8896692125984251
20
-3.9719515354330706
11
3.8897834645669289
21
-3.9704997637795274
0
LINE
8
BLACK
6
CONTINUOUS
10
3.8897834645669289
20
-3.9704997637795274
11
3.8897834645669289
21
-3.9535159842519683
0
LINE
8
BLACK
6
CONTINUOUS
10
3.8897834645669289
20
-3.9535159842519683
11
3.8896692125984251
21
-3.9520642125984251
0
LINE
8
BLACK
6
CONTINUOUS
10
3.8896692125984251
20
-3.9520642125984251
11
3.8896281889763777
21
-3.9519230708661417
0
LINE
8
BLACK
6
CONTINUOUS
10
3.8896281889763777
20
-3.9519230708661417
11
3.8878639763779526
21
-3.9458506299212597
0
LINE
8
BLACK
6
CONTINUOUS
10
3.8878639763779526
20
-3.9458506299212597
11
3.8878639370078738
21
-3.9458505118110234
0
LINE
8
BLACK
6
CONTINUOUS
10
3.8878639370078738
20
-3.9458505118110234
11
3.8878639370078738
21
-3.9458504724409447
0
LINE
8
BLACK
6
CONTINUOUS
10
3.8878639370078738
20
-3.9458504724409447
11
3.8845701181102363
21
-3.9402809055118109
0
LINE
8
BLACK
6
CONTINUOUS
10
3.8845701181102363
20
-3.9402809055118109
11
3.8845700000000001
21
-3.9402807874015746
0
LINE
8
BLACK
6
CONTINUOUS
10
3.8845700000000001
20
-3.9402807874015746
11
3.8843818110236219
21
-3.9400381496062993
0
LINE
8
BLACK
6
CONTINUOUS
10
3.8843818110236219
20
-3.9400381496062993
11
3.8844783464566928
21
-3.9399632283464565
0
LINE
8
BLACK
6
CONTINUOUS
10
3.8844783464566928
20
-3.9399632283464565
11
3.8834312992125986
21
-3.9380480708661416
0
LINE
8
BLACK
6
CONTINUOUS
10
3.8834312992125986
20
-3.9380480708661416
11
3.8836261417322833
21
-3.9353041732283462
0
LINE
8
BLACK
6
CONTINUOUS
10
3.8836261417322833
20
-3.9353041732283462
11
3.8844464566929133
21
-3.9340277165354332
0
LINE
8
BLACK
6
CONTINUOUS
10
3.8844464566929133
20
-3.9340277165354332
11
3.8843818110236219
21
-3.9339775984251966
0
LINE
8
BLACK
6
CONTINUOUS
10
3.8843818110236219
20
-3.9339775984251966
11
3.8845698818897638
21
-3.9337350393700787
0
LINE
8
BLACK
6
CONTINUOUS
10
3.8845698818897638
20
-3.9337350393700787
11
3.8845701181102363
21
-3.933734842519685
0
LINE
8
BLACK
6
CONTINUOUS
10
3.8845701181102363
20
-3.933734842519685
11
3.8878639370078738
21
-3.9281652755905512
0
LINE
8
BLACK
6
CONTINUOUS
10
3.8878639370078738
20
-3.9281652755905512
11
3.8896692125984251
21
-3.9219515354330707
0
LINE
8
BLACK
6
CONTINUOUS
10
3.8896692125984251
20
-3.9219515354330707
11
3.8897834645669289
21
-3.9204997637795276
0
LINE
8
BLACK
6
CONTINUOUS
10
3.8897834645669289
20
-3.9204997637795276
11
3.8897834645669289
21
-3.9035159842519684
0
LINE
8
BLACK
6
CONTINUOUS
10
3.8897834645669289
20
-3.9035159842519684
11
3.8896692125984251
21
-3.9020642125984253
0
LINE
8
BLACK
6
CONTINUOUS
10
3.8896692125984251
20
-3.9020642125984253
11
3.8896556299212599
21
-3.9020175196850393
0
LINE
8
BLACK
6
CONTINUOUS
10
3.8896556299212599
20
-3.9020175196850393
11
3.8878639763779526
21
-3.8958506299212599
0
LINE
8
BLACK
6
CONTINUOUS
10
3.8878639763779526
20
-3.8958506299212599
11
3.8878639370078738
21
-3.8958505118110236
0
LINE
8
BLACK
6
CONTINUOUS
10
3.8878639370078738
20
-3.8958505118110236
11
3.8878639370078738
21
-3.8958504724409448
0
LINE
8
BLACK
6
CONTINUOUS
10
3.8878639370078738
20
-3.8958504724409448
11
3.8845701181102363
21
-3.890280905511811
0
LINE
8
BLACK
6
CONTINUOUS
10
3.8845701181102363
20
-3.890280905511811
11
3.8845700393700788
21
-3.8902808267716535
0
LINE
8
BLACK
6
CONTINUOUS
10
3.8845700393700788
20
-3.8902808267716535
11
3.8845699212598426
21
-3.8902806692913385
0
LINE
8
BLACK
6
CONTINUOUS
10
3.8845699212598426
20
-3.8902806692913385
11
3.8799948818897638
21
-3.8857056299212598
0
LINE
8
BLACK
6
CONTINUOUS
10
3.8799948818897638
20
-3.8857056299212598
11
3.8799945669291338
21
-3.8857053937007873
0
LINE
8
BLACK
6
CONTINUOUS
10
3.8799945669291338
20
-3.8857053937007873
11
3.8744250393700788
21
-3.8824116141732281
0
LINE
8
BLACK
6
CONTINUOUS
10
3.8744250393700788
20
-3.8824116141732281
11
3.8744249212598425
21
-3.8824115748031494
0
LINE
8
BLACK
6
CONTINUOUS
10
3.8744249212598425
20
-3.8824115748031494
11
3.8682115354330708
21
-3.880606377952756
0
LINE
8
BLACK
6
CONTINUOUS
10
3.8682115354330708
20
-3.880606377952756
11
3.8682112992125983
21
-3.8806063385826772
0
LINE
8
BLACK
6
CONTINUOUS
10
3.8682112992125983
20
-3.8806063385826772
11
3.8667598818897635
21
-3.8804921259842518
0
LINE
8
BLACK
6
CONTINUOUS
10
3.8667598818897635
20
-3.8804921259842518
11
3.8667596062992127
21
-3.8804921259842518
0
LINE
8
BLACK
6
CONTINUOUS
10
3.8667596062992127
20
-3.8804921259842518
11
3.8045002362204725
21
-3.8804921259842518
0
LINE
8
BLACK
6
CONTINUOUS
10
3.8045002362204725
20
-3.8804921259842518
11
3.8044999212598425
21
-3.8804921259842518
0
LINE
8
BLACK
6
CONTINUOUS
10
3.8044999212598425
20
-3.8804921259842518
11
3.8030485039370077
21
-3.8806063385826772
0
LINE
8
BLACK
6
CONTINUOUS
10
3.8030485039370077
20
-3.8806063385826772
11
3.8030482677165351
21
-3.880606377952756
0
LINE
8
BLACK
6
CONTINUOUS
10
3.8030482677165351
20
-3.880606377952756
11
3.7968348818897635
21
-3.8824115748031494
0
LINE
8
BLACK
6
CONTINUOUS
10
3.7968348818897635
20
-3.8824115748031494
11
3.7968347637795277
21
-3.8824116141732281
0
LINE
8
BLACK
6
CONTINUOUS
10
3.7968347637795277
20
-3.8824116141732281
11
3.7912652362204722
21
-3.8857053937007873
0
LINE
8
BLACK
6
CONTINUOUS
10
3.7912652362204722
20
-3.8857053937007873
11
3.7912649212598426
21
-3.8857056299212598
0
LINE
8
BLACK
6
CONTINUOUS
10
3.7912649212598426
20
-3.8857056299212598
11
3.7866898818897639
21
-3.8902806692913385
0
LINE
8
BLACK
6
CONTINUOUS
10
3.7866898818897639
20
-3.8902806692913385
11
3.7866896456692913
21
-3.8902809842519686
0
LINE
8
BLACK
6
CONTINUOUS
10
3.7866896456692913
20
-3.8902809842519686
11
3.7833958661417322
21
-3.8958505118110236
0
LINE
8
BLACK
6
CONTINUOUS
10
3.7833958661417322
20
-3.8958505118110236
11
3.7833958267716534
21
-3.8958506299212599
0
LINE
8
BLACK
6
CONTINUOUS
10
3.7833958267716534
20
-3.8958506299212599
11
3.7815906299212596
21
-3.9020640157480315
0
LINE
8
BLACK
6
CONTINUOUS
10
3.7815906299212596
20
-3.9020640157480315
11
3.7815905905511809
21
-3.902064251968504
0
LINE
8
BLACK
6
CONTINUOUS
10
3.7815905905511809
20
-3.902064251968504
11
3.7814763779527558
21
-3.9035156692913384
0
LINE
8
BLACK
6
CONTINUOUS
10
3.7814763779527558
20
-3.9035156692913384
11
3.7814763779527558
21
-3.9205000393700788
0
LINE
8
BLACK
6
CONTINUOUS
10
3.9350196850393702
20
-4.0070411811023625
11
3.936230748031496
21
-4.0131294881889765
0
LINE
8
BLACK
6
CONTINUOUS
10
3.936230748031496
20
-4.0131294881889765
11
3.9362308661417322
21
-4.0131299606299216
0
LINE
8
BLACK
6
CONTINUOUS
10
3.9362308661417322
20
-4.0131299606299216
11
3.9386063779527558
21
-4.0188650393700787
0
LINE
8
BLACK
6
CONTINUOUS
10
3.9386063779527558
20
-4.0188650393700787
11
3.9386066535433071
21
-4.0188655511811024
0
LINE
8
BLACK
6
CONTINUOUS
10
3.9386066535433071
20
-4.0188655511811024
11
3.9420555118110236
21
-4.024027086614173
0
LINE
8
BLACK
6
CONTINUOUS
10
3.9420555118110236
20
-4.024027086614173
11
3.9420556299212599
21
-4.024027244094488
0
LINE
8
BLACK
6
CONTINUOUS
10
3.9420556299212599
20
-4.024027244094488
11
3.9464451574803148
21
-4.0284167716535428
0
LINE
8
BLACK
6
CONTINUOUS
10
3.9464451574803148
20
-4.0284167716535428
11
3.9464453149606298
21
-4.0284168897637791
0
LINE
8
BLACK
6
CONTINUOUS
10
3.9464453149606298
20
-4.0284168897637791
11
3.9516068503937007
21
-4.0318657480314961
0
LINE
8
BLACK
6
CONTINUOUS
10
3.9516068503937007
20
-4.0318657480314961
11
3.9516073622047245
21
-4.0318660236220474
0
LINE
8
BLACK
6
CONTINUOUS
10
3.9516073622047245
20
-4.0318660236220474
11
3.9561191732283465
21
-4.0337348425196851
0
LINE
8
BLACK
6
CONTINUOUS
10
3.9561191732283465
20
-4.0337348425196851
11
3.9573426377952754
21
-4.0342416141732285
0
LINE
8
BLACK
6
CONTINUOUS
10
3.9573426377952754
20
-4.0342416141732285
11
3.9627755118110235
21
-4.0353222834645672
0
LINE
8
BLACK
6
CONTINUOUS
10
3.9627755118110235
20
-4.0353222834645672
11
3.9634312204724407
21
-4.035452716535433
0
LINE
8
BLACK
6
CONTINUOUS
10
3.9634312204724407
20
-4.035452716535433
11
3.9634313385826769
21
-4.0354527559055118
0
LINE
8
BLACK
6
CONTINUOUS
10
3.9634313385826769
20
-4.0354527559055118
11
3.9634314173228344
21
-4.0354527559055118
0
LINE
8
BLACK
6
CONTINUOUS
10
3.9634314173228344
20
-4.0354527559055118
11
3.96963937007874
21
-4.0354527559055118
0
LINE
8
BLACK
6
CONTINUOUS
10
3.96963937007874
20
-4.0354527559055118
11
3.9696394488188975
21
-4.0354527559055118
0
LINE
8
BLACK
6
CONTINUOUS
10
3.9696394488188975
20
-4.0354527559055118
11
3.970295433070866
21
-4.0353222440944885
0
LINE
8
BLACK
6
CONTINUOUS
10
3.970295433070866
20
-4.0353222440944885
11
3.9714827559055119
21
-4.0352341338582676
0
LINE
8
BLACK
6
CONTINUOUS
10
3.9714827559055119
20
-4.0352341338582676
11
3.9720056692913386
21
-4.0352593307086613
0
LINE
8
BLACK
6
CONTINUOUS
10
3.9720056692913386
20
-4.0352593307086613
11
3.9734623228346457
21
-4.0356496456692916
0
LINE
8
BLACK
6
CONTINUOUS
10
3.9734623228346457
20
-4.0356496456692916
11
3.9796873228346454
21
-4.0356496456692916
0
LINE
8
BLACK
6
CONTINUOUS
10
3.9796873228346454
20
-4.0356496456692916
11
3.9796874803149604
21
-4.0356496062992129
0
LINE
8
BLACK
6
CONTINUOUS
10
3.9796874803149604
20
-4.0356496062992129
11
3.9893382677165352
21
-4.0356496062992129
0
LINE
8
BLACK
6
CONTINUOUS
10
3.9893382677165352
20
-4.0356496062992129
11
3.9919775984251968
21
-4.0364246062992128
0
LINE
8
BLACK
6
CONTINUOUS
10
3.9919775984251968
20
-4.0364246062992128
11
3.9927903149606299
21
-4.0370795275590554
0
LINE
8
BLACK
6
CONTINUOUS
10
3.9927903149606299
20
-4.0370795275590554
11
3.9940208267716533
21
-4.0383100787401576
0
LINE
8
BLACK
6
CONTINUOUS
10
3.9940208267716533
20
-4.0383100787401576
11
3.9940209842519683
21
-4.0383101968503938
0
LINE
8
BLACK
6
CONTINUOUS
10
3.9940209842519683
20
-4.0383101968503938
11
3.9940210629921258
21
-4.0383102755905513
0
LINE
8
BLACK
6
CONTINUOUS
10
3.9940210629921258
20
-4.0383102755905513
11
3.9995906299212596
21
-4.0416040944881892
0
LINE
8
BLACK
6
CONTINUOUS
10
3.9995906299212596
20
-4.0416040944881892
11
4.001229291338583
21
-4.0420801574803145
0
LINE
8
BLACK
6
CONTINUOUS
10
4.001229291338583
20
-4.0420801574803145
11
4.0058041732283467
21
-4.0434093307086609
0
LINE
8
BLACK
6
CONTINUOUS
10
4.0058041732283467
20
-4.0434093307086609
11
4.005804291338583
21
-4.0434093307086609
0
LINE
8
BLACK
6
CONTINUOUS
10
4.005804291338583
20
-4.0434093307086609
11
4.0058043700787405
21
-4.0434093700787397
0
LINE
8
BLACK
6
CONTINUOUS
10
4.0058043700787405
20
-4.0434093700787397
11
4.0072561417322836
21
-4.0435236220472444
0
LINE
8
BLACK
6
CONTINUOUS
10
4.0072561417322836
20
-4.0435236220472444
11
4.0072564566929136
21
-4.0435236220472444
0
LINE
8
BLACK
6
CONTINUOUS
10
4.0072564566929136
20
-4.0435236220472444
11
4.0695151968503938
21
-4.0435236220472444
0
LINE
8
BLACK
6
CONTINUOUS
10
4.0695151968503938
20
-4.0435236220472444
11
4.0695155118110238
21
-4.0435236220472444
0
LINE
8
BLACK
6
CONTINUOUS
10
4.0695155118110238
20
-4.0435236220472444
11
4.0709672834645669
21
-4.0434093700787397
0
LINE
8
BLACK
6
CONTINUOUS
10
4.0709672834645669
20
-4.0434093700787397
11
4.0709673622047244
21
-4.0434093307086609
0
LINE
8
BLACK
6
CONTINUOUS
10
4.0709673622047244
20
-4.0434093307086609
11
4.0709674409448819
21
-4.0434093307086609
0
LINE
8
BLACK
6
CONTINUOUS
10
4.0709674409448819
20
-4.0434093307086609
11
4.0726836614173223
21
-4.0429107086614176
0
LINE
8
BLACK
6
CONTINUOUS
10
4.0726836614173223
20
-4.0429107086614176
11
4.0771810236220469
21
-4.0416040944881892
0
LINE
8
BLACK
6
CONTINUOUS
10
4.0771810236220469
20
-4.0416040944881892
11
4.0827505905511812
21
-4.0383102755905513
0
LINE
8
BLACK
6
CONTINUOUS
10
4.0827505905511812
20
-4.0383102755905513
11
4.0873260236220474
21
-4.0337348425196851
0
LINE
8
BLACK
6
CONTINUOUS
10
4.0873260236220474
20
-4.0337348425196851
11
4.0906198425196854
21
-4.0281652755905508
0
LINE
8
BLACK
6
CONTINUOUS
10
4.0906198425196854
20
-4.0281652755905508
11
4.0924251181102358
21
-4.0219515354330708
0
LINE
8
BLACK
6
CONTINUOUS
10
4.0924251181102358
20
-4.0219515354330708
11
4.0925393700787405
21
-4.0204997637795277
0
LINE
8
BLACK
6
CONTINUOUS
10
4.0925393700787405
20
-4.0204997637795277
11
4.0925393700787405
21
-4.0035159842519681
0
LINE
8
BLACK
6
CONTINUOUS
10
4.0925393700787405
20
-4.0035159842519681
11
4.0924251181102358
21
-4.0020642125984249
0
LINE
8
BLACK
6
CONTINUOUS
10
4.0924251181102358
20
-4.0020642125984249
11
4.0923933858267718
21
-4.0019549999999997
0
LINE
8
BLACK
6
CONTINUOUS
10
4.0923933858267718
20
-4.0019549999999997
11
4.0910959055118106
21
-3.9974891338582674
0
LINE
8
BLACK
6
CONTINUOUS
10
4.0910959055118106
20
-3.9974891338582674
11
4.0906198425196854
21
-3.9958504724409449
0
LINE
8
BLACK
6
CONTINUOUS
10
4.0906198425196854
20
-3.9958504724409449
11
4.0873260236220474
21
-3.9902809055118111
0
LINE
8
BLACK
6
CONTINUOUS
10
4.0873260236220474
20
-3.9902809055118111
11
4.0873259055118112
21
-3.9902807874015749
0
LINE
8
BLACK
6
CONTINUOUS
10
4.0873259055118112
20
-3.9902807874015749
11
4.087137716535433
21
-3.9900381496062991
0
LINE
8
BLACK
6
CONTINUOUS
10
4.087137716535433
20
-3.9900381496062991
11
4.0872342519685034
21
-3.9899632283464568
0
LINE
8
BLACK
6
CONTINUOUS
10
4.0872342519685034
20
-3.9899632283464568
11
4.0861872047244097
21
-3.9880480708661414
0
LINE
8
BLACK
6
CONTINUOUS
10
4.0861872047244097
20
-3.9880480708661414
11
4.0863820472440944
21
-3.9853041732283465
0
LINE
8
BLACK
6
CONTINUOUS
10
4.0863820472440944
20
-3.9853041732283465
11
4.0872023622047244
21
-3.984027716535433
0
LINE
8
BLACK
6
CONTINUOUS
10
4.0872023622047244
20
-3.984027716535433
11
4.087137716535433
21
-3.9839775984251968
0
LINE
8
BLACK
6
CONTINUOUS
10
4.087137716535433
20
-3.9839775984251968
11
4.0873257874015749
21
-3.9837350393700786
0
LINE
8
BLACK
6
CONTINUOUS
10
4.0873257874015749
20
-3.9837350393700786
11
4.0873260236220474
21
-3.9837348425196848
0
LINE
8
BLACK
6
CONTINUOUS
10
4.0873260236220474
20
-3.9837348425196848
11
4.0906198425196854
21
-3.978165275590551
0
LINE
8
BLACK
6
CONTINUOUS
10
4.0906198425196854
20
-3.978165275590551
11
4.0924251181102358
21
-3.9719515354330706
0
LINE
8
BLACK
6
CONTINUOUS
10
4.0924251181102358
20
-3.9719515354330706
11
4.0925393700787405
21
-3.9704997637795274
0
LINE
8
BLACK
6
CONTINUOUS
10
4.0925393700787405
20
-3.9704997637795274
11
4.0925393700787405
21
-3.9535159842519683
0
LINE
8
BLACK
6
CONTINUOUS
10
4.0925393700787405
20
-3.9535159842519683
11
4.0924251181102358
21
-3.9520642125984251
0
LINE
8
BLACK
6
CONTINUOUS
10
4.0924251181102358
20
-3.9520642125984251
11
4.0923840944881889
21
-3.9519230708661417
0
LINE
8
BLACK
6
CONTINUOUS
10
4.0923840944881889
20
-3.9519230708661417
11
4.0906198818897641
21
-3.9458506299212597
0
LINE
8
BLACK
6
CONTINUOUS
10
4.0906198818897641
20
-3.9458506299212597
11
4.0906198425196854
21
-3.9458505118110234
0
LINE
8
BLACK
6
CONTINUOUS
10
4.0906198425196854
20
-3.9458505118110234
11
4.0906198425196854
21
-3.9458504724409447
0
LINE
8
BLACK
6
CONTINUOUS
10
4.0906198425196854
20
-3.9458504724409447
11
4.0873260236220474
21
-3.9402809055118109
0
LINE
8
BLACK
6
CONTINUOUS
10
4.0873260236220474
20
-3.9402809055118109
11
4.0873259055118112
21
-3.9402807874015746
0
LINE
8
BLACK
6
CONTINUOUS
10
4.0873259055118112
20
-3.9402807874015746
11
4.087137716535433
21
-3.9400381496062993
0
LINE
8
BLACK
6
CONTINUOUS
10
4.087137716535433
20
-3.9400381496062993
11
4.0872342519685034
21
-3.9399632283464565
0
LINE
8
BLACK
6
CONTINUOUS
10
4.0872342519685034
20
-3.9399632283464565
11
4.0861872047244097
21
-3.9380480708661416
0
LINE
8
BLACK
6
CONTINUOUS
10
4.0861872047244097
20
-3.9380480708661416
11
4.0863820472440944
21
-3.9353041732283462
0
LINE
8
BLACK
6
CONTINUOUS
10
4.0863820472440944
20
-3.9353041732283462
11
4.0872023622047244
21
-3.9340277165354332
0
LINE
8
BLACK
6
CONTINUOUS
10
4.0872023622047244
20
-3.9340277165354332
11
4.087137716535433
21
-3.9339775984251966
0
LINE
8
BLACK
6
CONTINUOUS
10
4.087137716535433
20
-3.9339775984251966
11
4.0873257874015749
21
-3.9337350393700787
0
LINE
8
BLACK
6
CONTINUOUS
10
4.0873257874015749
20
-3.9337350393700787
11
4.0873260236220474
21
-3.933734842519685
0
LINE
8
BLACK
6
CONTINUOUS
10
4.0873260236220474
20
-3.933734842519685
11
4.0906198425196854
21
-3.9281652755905512
0
LINE
8
BLACK
6
CONTINUOUS
10
4.0906198425196854
20
-3.9281652755905512
11
4.0924251181102358
21
-3.9219515354330707
0
LINE
8
BLACK
6
CONTINUOUS
10
4.0924251181102358
20
-3.9219515354330707
11
4.0925393700787405
21
-3.9204997637795276
0
LINE
8
BLACK
6
CONTINUOUS
10
4.0925393700787405
20
-3.9204997637795276
11
4.0925393700787405
21
-3.9035159842519684
0
LINE
8
BLACK
6
CONTINUOUS
10
4.0925393700787405
20
-3.9035159842519684
11
4.0924251181102358
21
-3.9020642125984253
0
LINE
8
BLACK
6
CONTINUOUS
10
4.0924251181102358
20
-3.9020642125984253
11
4.0924115354330706
21
-3.9020175196850393
0
LINE
8
BLACK
6
CONTINUOUS
10
4.0924115354330706
20
-3.9020175196850393
11
4.0906198818897641
21
-3.8958506299212599
0
LINE
8
BLACK
6
CONTINUOUS
10
4.0906198818897641
20
-3.8958506299212599
11
4.0906198425196854
21
-3.8958505118110236
0
LINE
8
BLACK
6
CONTINUOUS
10
4.0906198425196854
20
-3.8958505118110236
11
4.0906198425196854
21
-3.8958504724409448
0
LINE
8
BLACK
6
CONTINUOUS
10
4.0906198425196854
20
-3.8958504724409448
11
4.0873260236220474
21
-3.890280905511811
0
LINE
8
BLACK
6
CONTINUOUS
10
4.0873260236220474
20
-3.890280905511811
11
4.0873259055118112
21
-3.8902807874015748
0
LINE
8
BLACK
6
CONTINUOUS
10
4.0873259055118112
20
-3.8902807874015748
11
4.087137716535433
21
-3.890038149606299
0
LINE
8
BLACK
6
CONTINUOUS
10
4.087137716535433
20
-3.890038149606299
11
4.0872342519685034
21
-3.8899632283464567
0
LINE
8
BLACK
6
CONTINUOUS
10
4.0872342519685034
20
-3.8899632283464567
11
4.0861872047244097
21
-3.8880480708661418
0
LINE
8
BLACK
6
CONTINUOUS
10
4.0861872047244097
20
-3.8880480708661418
11
4.0863820472440944
21
-3.8853041732283464
0
LINE
8
BLACK
6
CONTINUOUS
10
4.0863820472440944
20
-3.8853041732283464
11
4.0872023622047244
21
-3.8840277165354329
0
LINE
8
BLACK
6
CONTINUOUS
10
4.0872023622047244
20
-3.8840277165354329
11
4.087137716535433
21
-3.8839775984251967
0
LINE
8
BLACK
6
CONTINUOUS
10
4.087137716535433
20
-3.8839775984251967
11
4.0873257874015749
21
-3.8837350393700785
0
LINE
8
BLACK
6
CONTINUOUS
10
4.0873257874015749
20
-3.8837350393700785
11
4.0873260236220474
21
-3.8837348425196851
0
LINE
8
BLACK
6
CONTINUOUS
10
4.0873260236220474
20
-3.8837348425196851
11
4.0906198425196854
21
-3.8781652755905509
0
LINE
8
BLACK
6
CONTINUOUS
10
4.0906198425196854
20
-3.8781652755905509
11
4.0924251181102358
21
-3.8719515354330709
0
LINE
8
BLACK
6
CONTINUOUS
10
4.0924251181102358
20
-3.8719515354330709
11
4.0925393700787405
21
-3.8704997637795273
0
LINE
8
BLACK
6
CONTINUOUS
10
4.0925393700787405
20
-3.8704997637795273
11
4.0925393700787405
21
-3.8535159842519686
0
LINE
8
BLACK
6
CONTINUOUS
10
4.0925393700787405
20
-3.8535159842519686
11
4.0924251181102358
21
-3.852064212598425
0
LINE
8
BLACK
6
CONTINUOUS
10
4.0924251181102358
20
-3.852064212598425
11
4.0906198425196854
21
-3.8458504724409446
0
LINE
8
BLACK
6
CONTINUOUS
10
4.0906198425196854
20
-3.8458504724409446
11
4.0873260236220474
21
-3.8402809055118108
0
LINE
8
BLACK
6
CONTINUOUS
10
4.0873260236220474
20
-3.8402809055118108
11
4.0873259448818899
21
-3.8402808267716533
0
LINE
8
BLACK
6
CONTINUOUS
10
4.0873259448818899
20
-3.8402808267716533
11
4.0873258267716537
21
-3.8402806692913387
0
LINE
8
BLACK
6
CONTINUOUS
10
4.0873258267716537
20
-3.8402806692913387
11
4.0827507874015749
21
-3.83570562992126
0
LINE
8
BLACK
6
CONTINUOUS
10
4.0827507874015749
20
-3.83570562992126
11
4.0827504724409449
21
-3.8357053937007874
0
LINE
8
BLACK
6
CONTINUOUS
10
4.0827504724409449
20
-3.8357053937007874
11
4.0771809448818894
21
-3.8324116141732283
0
LINE
8
BLACK
6
CONTINUOUS
10
4.0771809448818894
20
-3.8324116141732283
11
4.0771808267716532
21
-3.8324115748031495
0
LINE
8
BLACK
6
CONTINUOUS
10
4.0771808267716532
20
-3.8324115748031495
11
4.0709674409448819
21
-3.8306063779527557
0
LINE
8
BLACK
6
CONTINUOUS
10
4.0709674409448819
20
-3.8306063779527557
11
4.0709672047244094
21
-3.830606338582677
0
LINE
8
BLACK
6
CONTINUOUS
10
4.0709672047244094
20
-3.830606338582677
11
4.069515787401575
21
-3.8304921259842519
0
LINE
8
BLACK
6
CONTINUOUS
10
4.069515787401575
20
-3.8304921259842519
11
4.0695155118110238
21
-3.8304921259842519
0
LINE
8
BLACK
6
CONTINUOUS
10
4.0695155118110238
20
-3.8304921259842519
11
4.0167125984251966
21
-3.8304921259842519
0
LINE
8
BLACK
6
CONTINUOUS
10
4.0167125984251966
20
-3.8304921259842519
11
4.0140732677165349
21
-3.829717125984252
0
LINE
8
BLACK
6
CONTINUOUS
10
4.0140732677165349
20
-3.829717125984252
11
4.0122718897637792
21
-3.8276382283464567
0
LINE
8
BLACK
6
CONTINUOUS
10
4.0122718897637792
20
-3.8276382283464567
11
4.0118307086614173
21
-3.8256102362204722
0
LINE
8
BLACK
6
CONTINUOUS
10
4.0118307086614173
20
-3.8256102362204722
11
4.0118307086614173
21
-3.7866049212598423
0
LINE
8
BLACK
6
CONTINUOUS
10
4.0118307086614173
20
-3.7866049212598423
11
4.0126057086614173
21
-3.7839655905511811
0
LINE
8
BLACK
6
CONTINUOUS
10
4.0126057086614173
20
-3.7839655905511811
11
4.0126534645669292
21
-3.7838926771653543
0
LINE
8
BLACK
6
CONTINUOUS
10
4.0126534645669292
20
-3.7838926771653543
11
4.0161177165354331
21
-3.7787080708661418
0
LINE
8
BLACK
6
CONTINUOUS
10
4.0161177165354331
20
-3.7787080708661418
11
4.0161177165354331
21
-3.778708031496063
0
LINE
8
BLACK
6
CONTINUOUS
10
4.0161177165354331
20
-3.778708031496063
11
4.0161178740157482
21
-3.7787078346456693
0
LINE
8
BLACK
6
CONTINUOUS
10
4.0161178740157482
20
-3.7787078346456693
11
4.0184935826771655
21
-3.7729723228346455
0
LINE
8
BLACK
6
CONTINUOUS
10
4.0184935826771655
20
-3.7729723228346455
11
4.0197047244094488
21
-3.7668835433070864
0
LINE
8
BLACK
6
CONTINUOUS
10
4.0197047244094488
20
-3.7668835433070864
11
4.0197047244094488
21
-3.7606755118110233
0
LINE
8
BLACK
6
CONTINUOUS
10
4.0197047244094488
20
-3.7606755118110233
11
4.0197047244094488
21
-3.7606753937007875
0
LINE
8
BLACK
6
CONTINUOUS
10
4.0197047244094488
20
-3.7606753937007875
11
4.0197046850393701
21
-3.76067531496063
0
LINE
8
BLACK
6
CONTINUOUS
10
4.0197046850393701
20
-3.76067531496063
11
4.0184936220472443
21
-3.7545870078740156
0
LINE
8
BLACK
6
CONTINUOUS
10
4.0184936220472443
20
-3.7545870078740156
11
4.0184935826771655
21
-3.7545867322834643
0
LINE
8
BLACK
6
CONTINUOUS
10
4.0184935826771655
20
-3.7545867322834643
11
4.018493503937008
21
-3.754586535433071
0
LINE
8
BLACK
6
CONTINUOUS
10
4.018493503937008
20
-3.754586535433071
11
4.0161179921259844
21
-3.7488514566929134
0
LINE
8
BLACK
6
CONTINUOUS
10
4.0161179921259844
20
-3.7488514566929134
11
4.0161177165354331
21
-3.7488509448818896
0
LINE
8
BLACK
6
CONTINUOUS
10
4.0161177165354331
20
-3.7488509448818896
11
4.0126688582677161
21
-3.7436894094488187
0
LINE
8
BLACK
6
CONTINUOUS
10
4.0126688582677161
20
-3.7436894094488187
11
4.0126687401574799
21
-3.7436892519685037
0
LINE
8
BLACK
6
CONTINUOUS
10
4.0126687401574799
20
-3.7436892519685037
11
4.008279212598425
21
-3.7392997244094488
0
LINE
8
BLACK
6
CONTINUOUS
10
4.008279212598425
20
-3.7392997244094488
11
4.00827905511811
21
-3.7392996062992125
0
LINE
8
BLACK
6
CONTINUOUS
10
4.00827905511811
20
-3.7392996062992125
11
4.0031175196850395
21
-3.735850748031496
0
LINE
8
BLACK
6
CONTINUOUS
10
4.0031175196850395
20
-3.735850748031496
11
4.0031170078740157
21
-3.7358504724409447
0
LINE
8
BLACK
6
CONTINUOUS
10
4.0031170078740157
20
-3.7358504724409447
11
3.9973819291338581
21
-3.7334749606299211
0
LINE
8
BLACK
6
CONTINUOUS
10
3.9973819291338581
20
-3.7334749606299211
11
3.9973814566929131
21
-3.7334748425196849
0
LINE
8
BLACK
6
CONTINUOUS
10
3.9973814566929131
20
-3.7334748425196849
11
3.9912931102362204
21
-3.7322637795275591
0
LINE
8
BLACK
6
CONTINUOUS
10
3.9912931102362204
20
-3.7322637795275591
11
3.9912929921259841
21
-3.7322637795275591
0
LINE
8
BLACK
6
CONTINUOUS
10
3.9912929921259841
20
-3.7322637795275591
11
3.985084960629921
21
-3.7322637795275591
0
LINE
8
BLACK
6
CONTINUOUS
10
3.985084960629921
20
-3.7322637795275591
11
3.9850848425196848
21
-3.7322637795275591
0
LINE
8
BLACK
6
CONTINUOUS
10
3.9850848425196848
20
-3.7322637795275591
11
3.9789964566929132
21
-3.7334748425196849
0
LINE
8
BLACK
6
CONTINUOUS
10
3.9789964566929132
20
-3.7334748425196849
11
3.9789959842519682
21
-3.7334749606299211
0
LINE
8
BLACK
6
CONTINUOUS
10
3.9789959842519682
20
-3.7334749606299211
11
3.9732609055118111
21
-3.7358504724409447
0
LINE
8
BLACK
6
CONTINUOUS
10
3.9732609055118111
20
-3.7358504724409447
11
3.9732603937007873
21
-3.735850748031496
0
LINE
8
BLACK
6
CONTINUOUS
10
3.9732603937007873
20
-3.735850748031496
11
3.9680988582677164
21
-3.7392996062992125
0
LINE
8
BLACK
6
CONTINUOUS
10
3.9680988582677164
20
-3.7392996062992125
11
3.9680987007874013
21
-3.7392997244094488
0
LINE
8
BLACK
6
CONTINUOUS
10
3.9680987007874013
20
-3.7392997244094488
11
3.9637091732283465
21
-3.7436892519685037
0
LINE
8
BLACK
6
CONTINUOUS
10
3.9637091732283465
20
-3.7436892519685037
11
3.9637090551181102
21
-3.7436894094488187
0
LINE
8
BLACK
6
CONTINUOUS
10
3.9637090551181102
20
-3.7436894094488187
11
3.9602601968503937
21
-3.7488509448818896
0
LINE
8
BLACK
6
CONTINUOUS
10
3.9602601968503937
20
-3.7488509448818896
11
3.9602599212598424
21
-3.7488514566929134
0
LINE
8
BLACK
6
CONTINUOUS
10
3.9602599212598424
20
-3.7488514566929134
11
3.9578844094488188
21
-3.754586535433071
0
LINE
8
BLACK
6
CONTINUOUS
10
3.9578844094488188
20
-3.754586535433071
11
3.9578842913385825
21
-3.7545870078740156
0
LINE
8
BLACK
6
CONTINUOUS
10
3.9578842913385825
20
-3.7545870078740156
11
3.9566732283464567
21
-3.76067531496063
0
LINE
8
BLACK
6
CONTINUOUS
10
3.9566732283464567
20
-3.76067531496063
11
3.9566732283464567
21
-3.7668837007874014
0
LINE
8
BLACK
6
CONTINUOUS
10
3.9566732283464567
20
-3.7668837007874014
11
3.9578842913385825
21
-3.7729720078740159
0
LINE
8
BLACK
6
CONTINUOUS
10
3.9578842913385825
20
-3.7729720078740159
11
3.9578844094488188
21
-3.7729724803149605
0
LINE
8
BLACK
6
CONTINUOUS
10
3.9578844094488188
20
-3.7729724803149605
11
3.9602599212598424
21
-3.778707559055118
0
LINE
8
BLACK
6
CONTINUOUS
10
3.9602599212598424
20
-3.778707559055118
11
3.9602601968503937
21
-3.7787080708661418
0
LINE
8
BLACK
6
CONTINUOUS
10
3.9602601968503937
20
-3.7787080708661418
11
3.9637244881889764
21
-3.7838926771653543
0
LINE
8
BLACK
6
CONTINUOUS
10
3.9637244881889764
20
-3.7838926771653543
11
3.9645464566929132
21
-3.7865177559055119
0
LINE
8
BLACK
6
CONTINUOUS
10
3.9645464566929132
20
-3.7865177559055119
11
3.9645472440944882
21
-3.7866049212598423
0
LINE
8
BLACK
6
CONTINUOUS
10
3.9645472440944882
20
-3.7866049212598423
11
3.9645472440944882
21
-3.868121968503937
0
LINE
8
BLACK
6
CONTINUOUS
10
3.9645472440944882
20
-3.868121968503937
11
3.9645472047244095
21
-3.8681226771653541
0
LINE
8
BLACK
6
CONTINUOUS
10
3.9645472047244095
20
-3.8681226771653541
11
3.9645472047244095
21
-3.8746465354330706
0
LINE
8
BLACK
6
CONTINUOUS
10
3.9645472047244095
20
-3.8746465354330706
11
3.9645471653543307
21
-3.8746465354330706
0
LINE
8
BLACK
6
CONTINUOUS
10
3.9645471653543307
20
-3.8746465354330706
11
3.9645472047244095
21
-3.8746466535433068
0
LINE
8
BLACK
6
CONTINUOUS
10
3.9645472047244095
20
-3.8746466535433068
11
3.9661583858267715
21
-3.8806595669291339
0
LINE
8
BLACK
6
CONTINUOUS
10
3.9661583858267715
20
-3.8806595669291339
11
3.9670830314960628
21
-3.8822611023622047
0
LINE
8
BLACK
6
CONTINUOUS
10
3.9670830314960628
20
-3.8822611023622047
11
3.9692707480314962
21
-3.8860503937007875
0
LINE
8
BLACK
6
CONTINUOUS
10
3.9692707480314962
20
-3.8860503937007875
11
3.9692709055118107
21
-3.8860505905511808
0
LINE
8
BLACK
6
CONTINUOUS
10
3.9692709055118107
20
-3.8860505905511808
11
3.9739507480314962
21
-3.8907304330708659
0
LINE
8
BLACK
6
CONTINUOUS
10
3.9739507480314962
20
-3.8907304330708659
11
3.9739509842519682
21
-3.8907306299212596
0
LINE
8
BLACK
6
CONTINUOUS
10
3.9739509842519682
20
-3.8907306299212596
11
3.9828235433070867
21
-3.8996032283464568
0
LINE
8
BLACK
6
CONTINUOUS
10
3.9828235433070867
20
-3.8996032283464568
11
3.9834049606299211
21
-3.9006680314960631
0
LINE
8
BLACK
6
CONTINUOUS
10
3.9834049606299211
20
-3.9006680314960631
11
3.984058779527559
21
-3.9016904330708662
0
LINE
8
BLACK
6
CONTINUOUS
10
3.984058779527559
20
-3.9016904330708662
11
3.9840809055118109
21
-3.9019059448818898
0
LINE
8
BLACK
6
CONTINUOUS
10
3.9840809055118109
20
-3.9019059448818898
11
3.9841418503937005
21
-3.9020175196850393
0
LINE
8
BLACK
6
CONTINUOUS
10
3.9841418503937005
20
-3.9020175196850393
11
3.9842534251968504
21
-3.9030662598425194
0
LINE
8
BLACK
6
CONTINUOUS
10
3.9842534251968504
20
-3.9030662598425194
11
3.9842529921259842
21
-3.9032526771653542
0
LINE
8
BLACK
6
CONTINUOUS
10
3.9842529921259842
20
-3.9032526771653542
11
3.9842322834645669
21
-3.9035159842519684
0
LINE
8
BLACK
6
CONTINUOUS
10
3.9842322834645669
20
-3.9035159842519684
11
3.9842322834645669
21
-3.9124322834645668
0
LINE
8
BLACK
6
CONTINUOUS
10
3.9842322834645669
20
-3.9124322834645668
11
3.9838405511811024
21
-3.9137551968503934
0
LINE
8
BLACK
6
CONTINUOUS
10
3.9838405511811024
20
-3.9137551968503934
11
3.983457283464567
21
-3.9150605905511808
0
LINE
8
BLACK
6
CONTINUOUS
10
3.983457283464567
20
-3.9150605905511808
11
3.9834529527559055
21
-3.9150642913385827
0
LINE
8
BLACK
6
CONTINUOUS
10
3.9834529527559055
20
-3.9150642913385827
11
3.9834513385826771
21
-3.9150698818897638
0
LINE
8
BLACK
6
CONTINUOUS
10
3.9834513385826771
20
-3.9150698818897638
11
3.9824045275590549
21
-3.9159727559055115
0
LINE
8
BLACK
6
CONTINUOUS
10
3.9824045275590549
20
-3.9159727559055115
11
3.9813783858267717
21
-3.916861968503937
0
LINE
8
BLACK
6
CONTINUOUS
10
3.9813783858267717
20
-3.916861968503937
11
3.9813720866141731
21
-3.9168633070866141
0
LINE
8
BLACK
6
CONTINUOUS
10
3.9813720866141731
20
-3.9168633070866141
11
3.9813683858267717
21
-3.916866535433071
0
LINE
8
BLACK
6
CONTINUOUS
10
3.9813683858267717
20
-3.916866535433071
11
3.9813369291338581
21
-3.9168709448818895
0
LINE
8
BLACK
6
CONTINUOUS
10
3.9813369291338581
20
-3.9168709448818895
11
3.9793503937007872
21
-3.9173031496062993
0
LINE
8
BLACK
6
CONTINUOUS
10
3.9793503937007872
20
-3.9173031496062993
11
3.9772108267716533
21
-3.9173031496062993
0
LINE
8
BLACK
6
CONTINUOUS
10
3.9772108267716533
20
-3.9173031496062993
11
3.9711224409448818
21
-3.9185142125984251
0
LINE
8
BLACK
6
CONTINUOUS
10
3.9711224409448818
20
-3.9185142125984251
11
3.9711219685039367
21
-3.9185143307086614
0
LINE
8
BLACK
6
CONTINUOUS
10
3.9711219685039367
20
-3.9185143307086614
11
3.9653868897637796
21
-3.920889842519685
0
LINE
8
BLACK
6
CONTINUOUS
10
3.9653868897637796
20
-3.920889842519685
11
3.9653863779527558
21
-3.9208901181102362
0
LINE
8
BLACK
6
CONTINUOUS
10
3.9653863779527558
20
-3.9208901181102362
11
3.9602248425196849
21
-3.9243389763779528
0
LINE
8
BLACK
6
CONTINUOUS
10
3.9602248425196849
20
-3.9243389763779528
11
3.9602246850393699
21
-3.9243390944881891
0
LINE
8
BLACK
6
CONTINUOUS
10
3.9602246850393699
20
-3.9243390944881891
11
3.955835157480315
21
-3.9287286220472439
0
LINE
8
BLACK
6
CONTINUOUS
10
3.955835157480315
20
-3.9287286220472439
11
3.9558350393700787
21
-3.9287287795275589
0
LINE
8
BLACK
6
CONTINUOUS
10
3.9558350393700787
20
-3.9287287795275589
11
3.9523861811023622
21
-3.9338903149606299
0
LINE
8
BLACK
6
CONTINUOUS
10
3.9523861811023622
20
-3.9338903149606299
11
3.9523859055118109
21
-3.9338908267716532
0
LINE
8
BLACK
6
CONTINUOUS
10
3.9523859055118109
20
-3.9338908267716532
11
3.9500103937007873
21
-3.9396259055118108
0
LINE
8
BLACK
6
CONTINUOUS
10
3.9500103937007873
20
-3.9396259055118108
11
3.9500102755905511
21
-3.9396263779527558
0
LINE
8
BLACK
6
CONTINUOUS
10
3.9500102755905511
20
-3.9396263779527558
11
3.9487992125984253
21
-3.9457146850393698
0
LINE
8
BLACK
6
CONTINUOUS
10
3.9487992125984253
20
-3.9457146850393698
11
3.9487992125984253
21
-3.9519230708661417
0
LINE
8
BLACK
6
CONTINUOUS
10
3.9487992125984253
20
-3.9519230708661417
11
3.9500102755905511
21
-3.9580113779527557
0
LINE
8
BLACK
6
CONTINUOUS
10
3.9500102755905511
20
-3.9580113779527557
11
3.9500103937007873
21
-3.9580118503937007
0
LINE
8
BLACK
6
CONTINUOUS
10
3.9500103937007873
20
-3.9580118503937007
11
3.9523859055118109
21
-3.9637469291338583
0
LINE
8
BLACK
6
CONTINUOUS
10
3.9523859055118109
20
-3.9637469291338583
11
3.9523861811023622
21
-3.9637474015748029
0
LINE
8
BLACK
6
CONTINUOUS
10
3.9523861811023622
20
-3.9637474015748029
11
3.9553288976377954
21
-3.9681514566929135
0
LINE
8
BLACK
6
CONTINUOUS
10
3.9553288976377954
20
-3.9681514566929135
11
3.9561508661417322
21
-3.9707765354330706
0
LINE
8
BLACK
6
CONTINUOUS
10
3.9561508661417322
20
-3.9707765354330706
11
3.955423149606299
21
-3.9734292913385825
0
LINE
8
BLACK
6
CONTINUOUS
10
3.955423149606299
20
-3.9734292913385825
11
3.9533767322834645
21
-3.9752675196850391
0
LINE
8
BLACK
6
CONTINUOUS
10
3.9533767322834645
20
-3.9752675196850391
11
3.9531380314960627
21
-3.9753739763779525
0
LINE
8
BLACK
6
CONTINUOUS
10
3.9531380314960627
20
-3.9753739763779525
11
3.951607125984252
21
-3.9760081102362204
0
LINE
8
BLACK
6
CONTINUOUS
10
3.951607125984252
20
-3.9760081102362204
11
3.9516068503937007
21
-3.9760082283464566
0
LINE
8
BLACK
6
CONTINUOUS
10
3.9516068503937007
20
-3.9760082283464566
11
3.9464453149606298
21
-3.9794570866141732
0
LINE
8
BLACK
6
CONTINUOUS
10
3.9464453149606298
20
-3.9794570866141732
11
3.9464451574803148
21
-3.9794572047244094
0
LINE
8
BLACK
6
CONTINUOUS
10
3.9464451574803148
20
-3.9794572047244094
11
3.9420556299212599
21
-3.9838467322834643
0
LINE
8
BLACK
6
CONTINUOUS
10
3.9420556299212599
20
-3.9838467322834643
11
3.9420555118110236
21
-3.9838468897637793
0
LINE
8
BLACK
6
CONTINUOUS
10
3.9420555118110236
20
-3.9838468897637793
11
3.9386066535433071
21
-3.9890084251968503
0
LINE
8
BLACK
6
CONTINUOUS
10
3.9386066535433071
20
-3.9890084251968503
11
3.9386063779527558
21
-3.9890089370078741
0
LINE
8
BLACK
6
CONTINUOUS
10
3.9386063779527558
20
-3.9890089370078741
11
3.9362308661417322
21
-3.9947440157480316
0
LINE
8
BLACK
6
CONTINUOUS
10
3.9362308661417322
20
-3.9947440157480316
11
3.936230748031496
21
-3.9947444881889762
0
LINE
8
BLACK
6
CONTINUOUS
10
3.936230748031496
20
-3.9947444881889762
11
3.9350196850393702
21
-4.0008327952755902
0
LINE
8
BLACK
6
CONTINUOUS
10
3.9350196850393702
20
-4.0008327952755902
11
3.9350196850393702
21
-4.0070411811023625
0
CIRCLE
8
BLACK
10
3.8464566929133857
20
-4.0570866141732287
40
0.0059055118110236
0
CIRCLE
8
BLACK
10
4.0531496062992129
20
-4.0807086614173231
40
0.0059055118110236
0
CIRCLE
8
BLACK
10
3.8366141732283463
20
-3.7578740157480315
40
0.0059055118110236
0
CIRCLE
8
BLACK
10
3.8464566929133857
20
-4.1358267716535435
40
0.0059055118110236
0
CIRCLE
8
BLACK
10
3.9881889763779528
20
-3.7637795275590551
40
0.0059055118110236
0
CIRCLE
8
BLACK
10
3.9803149606299213
20
-3.9488188976377954
40
0.0059055118110236
0
CIRCLE
8
BLACK
10
3.9665354330708662
20
-4.0039370078740157
40
0.0059055118110236
  0
ENDSEC
  0
EOF
