  0
SECTION
  2
HEADER
  9
$ANGBASE
  50
0.0
  9
$ANGDIR
  70
1
  9
$MEASUREMENT
  70
0
  0
ENDSEC
  0
SECTION
  2
TABLES
  0
TABLE
  2
LTYPE
  70
4
  0
LTYPE
  5
40F
  2
CONTINUOUS
  70
0
  3
Solid line
  72
65
  73
0
  40
0.0
  0
LTYPE
  5
410
  2
DASHDOT
 70
0
  3
Dash Dot ____ _ ____ _
 72
65
 73
4
 40
2.0
 49
1.25
 49
-0.25
 49
0.25
 49
-0.25
  0
LTYPE
  5
411
  2
DASHED
 70
0
  3
Dashed __ __ __ __ __
 72
65
 73
2
 40
0.75
 49
0.5
 49
-0.25
  0
LTYPE
  5
43B
  2
DOTTED
 70
0
  3
Dotted .  .  .  .
 72
65
 73
2
 40
0.2
 49
0.0
 49
-0.2
  0
ENDTAB
  0
TABLE
  2
STYLE
  70
4
  0
STYLE
  2
KICAD
  70
0
  40
0
  41
1
  42
1
  50
0
  71
0
  3
isocp.shx
  0
STYLE
  2
KICADB
  70
0
  40
0
  41
1
  42
1
  50
0
  71
0
  3
isocp.shx
  0
STYLE
  2
KICADI
  70
0
  40
0
  41
1
  42
1
  50
15
  71
0
  3
isocp.shx
  0
STYLE
  2
KICADBI
  70
0
  40
0
  41
1
  42
1
  50
15
  71
0
  3
isocp.shx
  0
ENDTAB
  0
TABLE
  2
LAYER
  70
1
  0
LAYER
  2
BLACK
  70
0
  62
7
  6
CONTINUOUS
  0
ENDTAB
  0
ENDSEC
  0
SECTION
  2
ENTITIES
0
LINE
8
BLACK
6
CONTINUOUS
10
3.7696850393700787
20
-4.372047244094488
11
3.7027559055118111
21
-4.372047244094488
0
LINE
8
BLACK
6
CONTINUOUS
10
3.7027559055118111
20
-4.372047244094488
11
3.7027559055118111
21
-4.3051181102362204
0
LINE
8
BLACK
6
CONTINUOUS
10
3.7027559055118111
20
-4.3051181102362204
11
3.7696850393700787
21
-4.3051181102362204
0
LINE
8
BLACK
6
CONTINUOUS
10
3.7696850393700787
20
-4.3051181102362204
11
3.7696850393700787
21
-4.372047244094488
0
LINE
8
BLACK
6
CONTINUOUS
10
3.8459347244094486
20
-4.3065590944881889
11
3.8519955511811022
21
-4.3090695669291339
0
LINE
8
BLACK
6
CONTINUOUS
10
3.8519955511811022
20
-4.3090695669291339
11
3.8574501574803151
21
-4.3127142125984248
0
LINE
8
BLACK
6
CONTINUOUS
10
3.8574501574803151
20
-4.3127142125984248
11
3.8620889370078739
21
-4.3173529921259846
0
LINE
8
BLACK
6
CONTINUOUS
10
3.8620889370078739
20
-4.3173529921259846
11
3.8657335826771653
21
-4.3228075984251966
0
LINE
8
BLACK
6
CONTINUOUS
10
3.8657335826771653
20
-4.3228075984251966
11
3.8682440551181103
21
-4.3288684251968501
0
LINE
8
BLACK
6
CONTINUOUS
10
3.8682440551181103
20
-4.3288684251968501
11
3.8695238976377953
21
-4.3353025590551182
0
LINE
8
BLACK
6
CONTINUOUS
10
3.8695238976377953
20
-4.3353025590551182
11
3.8695238976377953
21
-4.3418627952755902
0
LINE
8
BLACK
6
CONTINUOUS
10
3.8695238976377953
20
-4.3418627952755902
11
3.8682440551181103
21
-4.3482969291338582
0
LINE
8
BLACK
6
CONTINUOUS
10
3.8682440551181103
20
-4.3482969291338582
11
3.8657335826771653
21
-4.3543577559055118
0
LINE
8
BLACK
6
CONTINUOUS
10
3.8657335826771653
20
-4.3543577559055118
11
3.8620889370078739
21
-4.3598123622047247
0
LINE
8
BLACK
6
CONTINUOUS
10
3.8620889370078739
20
-4.3598123622047247
11
3.8574501574803151
21
-4.3644511417322835
0
LINE
8
BLACK
6
CONTINUOUS
10
3.8574501574803151
20
-4.3644511417322835
11
3.8519955511811022
21
-4.3680957874015744
0
LINE
8
BLACK
6
CONTINUOUS
10
3.8519955511811022
20
-4.3680957874015744
11
3.8459347244094486
21
-4.3706062598425195
0
LINE
8
BLACK
6
CONTINUOUS
10
3.8459347244094486
20
-4.3706062598425195
11
3.839500590551181
21
-4.3718861023622049
0
LINE
8
BLACK
6
CONTINUOUS
10
3.839500590551181
20
-4.3718861023622049
11
3.8329403543307086
21
-4.3718861023622049
0
LINE
8
BLACK
6
CONTINUOUS
10
3.8329403543307086
20
-4.3718861023622049
11
3.8265062204724409
21
-4.3706062598425195
0
LINE
8
BLACK
6
CONTINUOUS
10
3.8265062204724409
20
-4.3706062598425195
11
3.8204453937007874
21
-4.3680957874015744
0
LINE
8
BLACK
6
CONTINUOUS
10
3.8204453937007874
20
-4.3680957874015744
11
3.8149907874015749
21
-4.3644511417322835
0
LINE
8
BLACK
6
CONTINUOUS
10
3.8149907874015749
20
-4.3644511417322835
11
3.8103520078740156
21
-4.3598123622047247
0
LINE
8
BLACK
6
CONTINUOUS
10
3.8103520078740156
20
-4.3598123622047247
11
3.8067073622047243
21
-4.3543577559055118
0
LINE
8
BLACK
6
CONTINUOUS
10
3.8067073622047243
20
-4.3543577559055118
11
3.8041968897637792
21
-4.3482969291338582
0
LINE
8
BLACK
6
CONTINUOUS
10
3.8041968897637792
20
-4.3482969291338582
11
3.8029170472440943
21
-4.3418627952755902
0
LINE
8
BLACK
6
CONTINUOUS
10
3.8029170472440943
20
-4.3418627952755902
11
3.8029170472440943
21
-4.3353025590551182
0
LINE
8
BLACK
6
CONTINUOUS
10
3.8029170472440943
20
-4.3353025590551182
11
3.8041968897637792
21
-4.3288684251968501
0
LINE
8
BLACK
6
CONTINUOUS
10
3.8041968897637792
20
-4.3288684251968501
11
3.8067073622047243
21
-4.3228075984251966
0
LINE
8
BLACK
6
CONTINUOUS
10
3.8067073622047243
20
-4.3228075984251966
11
3.8103520078740156
21
-4.3173529921259846
0
LINE
8
BLACK
6
CONTINUOUS
10
3.8103520078740156
20
-4.3173529921259846
11
3.8149907874015749
21
-4.3127142125984248
0
LINE
8
BLACK
6
CONTINUOUS
10
3.8149907874015749
20
-4.3127142125984248
11
3.8204453937007874
21
-4.3090695669291339
0
LINE
8
BLACK
6
CONTINUOUS
10
3.8204453937007874
20
-4.3090695669291339
11
3.8265062204724409
21
-4.3065590944881889
0
LINE
8
BLACK
6
CONTINUOUS
10
3.8265062204724409
20
-4.3065590944881889
11
3.8329403543307086
21
-4.3052792519685035
0
LINE
8
BLACK
6
CONTINUOUS
10
3.8329403543307086
20
-4.3052792519685035
11
3.839500590551181
21
-4.3052792519685035
0
LINE
8
BLACK
6
CONTINUOUS
10
3.839500590551181
20
-4.3052792519685035
11
3.8459347244094486
21
-4.3065590944881889
0
LINE
8
BLACK
6
CONTINUOUS
10
3.9459347244094487
20
-4.3065590944881889
11
3.9519955511811022
21
-4.3090695669291339
0
LINE
8
BLACK
6
CONTINUOUS
10
3.9519955511811022
20
-4.3090695669291339
11
3.9574501574803147
21
-4.3127142125984248
0
LINE
8
BLACK
6
CONTINUOUS
10
3.9574501574803147
20
-4.3127142125984248
11
3.962088937007874
21
-4.3173529921259846
0
LINE
8
BLACK
6
CONTINUOUS
10
3.962088937007874
20
-4.3173529921259846
11
3.9657335826771654
21
-4.3228075984251966
0
LINE
8
BLACK
6
CONTINUOUS
10
3.9657335826771654
20
-4.3228075984251966
11
3.96824405511811
21
-4.3288684251968501
0
LINE
8
BLACK
6
CONTINUOUS
10
3.96824405511811
20
-4.3288684251968501
11
3.9695238976377953
21
-4.3353025590551182
0
LINE
8
BLACK
6
CONTINUOUS
10
3.9695238976377953
20
-4.3353025590551182
11
3.9695238976377953
21
-4.3418627952755902
0
LINE
8
BLACK
6
CONTINUOUS
10
3.9695238976377953
20
-4.3418627952755902
11
3.96824405511811
21
-4.3482969291338582
0
LINE
8
BLACK
6
CONTINUOUS
10
3.96824405511811
20
-4.3482969291338582
11
3.9657335826771654
21
-4.3543577559055118
0
LINE
8
BLACK
6
CONTINUOUS
10
3.9657335826771654
20
-4.3543577559055118
11
3.962088937007874
21
-4.3598123622047247
0
LINE
8
BLACK
6
CONTINUOUS
10
3.962088937007874
20
-4.3598123622047247
11
3.9574501574803147
21
-4.3644511417322835
0
LINE
8
BLACK
6
CONTINUOUS
10
3.9574501574803147
20
-4.3644511417322835
11
3.9519955511811022
21
-4.3680957874015744
0
LINE
8
BLACK
6
CONTINUOUS
10
3.9519955511811022
20
-4.3680957874015744
11
3.9459347244094487
21
-4.3706062598425195
0
LINE
8
BLACK
6
CONTINUOUS
10
3.9459347244094487
20
-4.3706062598425195
11
3.9395005905511811
21
-4.3718861023622049
0
LINE
8
BLACK
6
CONTINUOUS
10
3.9395005905511811
20
-4.3718861023622049
11
3.9329403543307087
21
-4.3718861023622049
0
LINE
8
BLACK
6
CONTINUOUS
10
3.9329403543307087
20
-4.3718861023622049
11
3.926506220472441
21
-4.3706062598425195
0
LINE
8
BLACK
6
CONTINUOUS
10
3.926506220472441
20
-4.3706062598425195
11
3.9204453937007875
21
-4.3680957874015744
0
LINE
8
BLACK
6
CONTINUOUS
10
3.9204453937007875
20
-4.3680957874015744
11
3.9149907874015746
21
-4.3644511417322835
0
LINE
8
BLACK
6
CONTINUOUS
10
3.9149907874015746
20
-4.3644511417322835
11
3.9103520078740157
21
-4.3598123622047247
0
LINE
8
BLACK
6
CONTINUOUS
10
3.9103520078740157
20
-4.3598123622047247
11
3.9067073622047244
21
-4.3543577559055118
0
LINE
8
BLACK
6
CONTINUOUS
10
3.9067073622047244
20
-4.3543577559055118
11
3.9041968897637793
21
-4.3482969291338582
0
LINE
8
BLACK
6
CONTINUOUS
10
3.9041968897637793
20
-4.3482969291338582
11
3.9029170472440944
21
-4.3418627952755902
0
LINE
8
BLACK
6
CONTINUOUS
10
3.9029170472440944
20
-4.3418627952755902
11
3.9029170472440944
21
-4.3353025590551182
0
LINE
8
BLACK
6
CONTINUOUS
10
3.9029170472440944
20
-4.3353025590551182
11
3.9041968897637793
21
-4.3288684251968501
0
LINE
8
BLACK
6
CONTINUOUS
10
3.9041968897637793
20
-4.3288684251968501
11
3.9067073622047244
21
-4.3228075984251966
0
LINE
8
BLACK
6
CONTINUOUS
10
3.9067073622047244
20
-4.3228075984251966
11
3.9103520078740157
21
-4.3173529921259846
0
LINE
8
BLACK
6
CONTINUOUS
10
3.9103520078740157
20
-4.3173529921259846
11
3.9149907874015746
21
-4.3127142125984248
0
LINE
8
BLACK
6
CONTINUOUS
10
3.9149907874015746
20
-4.3127142125984248
11
3.9204453937007875
21
-4.3090695669291339
0
LINE
8
BLACK
6
CONTINUOUS
10
3.9204453937007875
20
-4.3090695669291339
11
3.926506220472441
21
-4.3065590944881889
0
LINE
8
BLACK
6
CONTINUOUS
10
3.926506220472441
20
-4.3065590944881889
11
3.9329403543307087
21
-4.3052792519685035
0
LINE
8
BLACK
6
CONTINUOUS
10
3.9329403543307087
20
-4.3052792519685035
11
3.9395005905511811
21
-4.3052792519685035
0
LINE
8
BLACK
6
CONTINUOUS
10
3.9395005905511811
20
-4.3052792519685035
11
3.9459347244094487
21
-4.3065590944881889
0
LINE
8
BLACK
6
CONTINUOUS
10
4.0459347244094488
20
-4.3065590944881889
11
4.0519955511811023
21
-4.3090695669291339
0
LINE
8
BLACK
6
CONTINUOUS
10
4.0519955511811023
20
-4.3090695669291339
11
4.0574501574803152
21
-4.3127142125984248
0
LINE
8
BLACK
6
CONTINUOUS
10
4.0574501574803152
20
-4.3127142125984248
11
4.0620889370078741
21
-4.3173529921259846
0
LINE
8
BLACK
6
CONTINUOUS
10
4.0620889370078741
20
-4.3173529921259846
11
4.065733582677165
21
-4.3228075984251966
0
LINE
8
BLACK
6
CONTINUOUS
10
4.065733582677165
20
-4.3228075984251966
11
4.06824405511811
21
-4.3288684251968501
0
LINE
8
BLACK
6
CONTINUOUS
10
4.06824405511811
20
-4.3288684251968501
11
4.0695238976377954
21
-4.3353025590551182
0
LINE
8
BLACK
6
CONTINUOUS
10
4.0695238976377954
20
-4.3353025590551182
11
4.0695238976377954
21
-4.3418627952755902
0
LINE
8
BLACK
6
CONTINUOUS
10
4.0695238976377954
20
-4.3418627952755902
11
4.06824405511811
21
-4.3482969291338582
0
LINE
8
BLACK
6
CONTINUOUS
10
4.06824405511811
20
-4.3482969291338582
11
4.065733582677165
21
-4.3543577559055118
0
LINE
8
BLACK
6
CONTINUOUS
10
4.065733582677165
20
-4.3543577559055118
11
4.0620889370078741
21
-4.3598123622047247
0
LINE
8
BLACK
6
CONTINUOUS
10
4.0620889370078741
20
-4.3598123622047247
11
4.0574501574803152
21
-4.3644511417322835
0
LINE
8
BLACK
6
CONTINUOUS
10
4.0574501574803152
20
-4.3644511417322835
11
4.0519955511811023
21
-4.3680957874015744
0
LINE
8
BLACK
6
CONTINUOUS
10
4.0519955511811023
20
-4.3680957874015744
11
4.0459347244094488
21
-4.3706062598425195
0
LINE
8
BLACK
6
CONTINUOUS
10
4.0459347244094488
20
-4.3706062598425195
11
4.0395005905511807
21
-4.3718861023622049
0
LINE
8
BLACK
6
CONTINUOUS
10
4.0395005905511807
20
-4.3718861023622049
11
4.0329403543307087
21
-4.3718861023622049
0
LINE
8
BLACK
6
CONTINUOUS
10
4.0329403543307087
20
-4.3718861023622049
11
4.0265062204724407
21
-4.3706062598425195
0
LINE
8
BLACK
6
CONTINUOUS
10
4.0265062204724407
20
-4.3706062598425195
11
4.0204453937007871
21
-4.3680957874015744
0
LINE
8
BLACK
6
CONTINUOUS
10
4.0204453937007871
20
-4.3680957874015744
11
4.0149907874015751
21
-4.3644511417322835
0
LINE
8
BLACK
6
CONTINUOUS
10
4.0149907874015751
20
-4.3644511417322835
11
4.0103520078740154
21
-4.3598123622047247
0
LINE
8
BLACK
6
CONTINUOUS
10
4.0103520078740154
20
-4.3598123622047247
11
4.0067073622047245
21
-4.3543577559055118
0
LINE
8
BLACK
6
CONTINUOUS
10
4.0067073622047245
20
-4.3543577559055118
11
4.0041968897637794
21
-4.3482969291338582
0
LINE
8
BLACK
6
CONTINUOUS
10
4.0041968897637794
20
-4.3482969291338582
11
4.002917047244094
21
-4.3418627952755902
0
LINE
8
BLACK
6
CONTINUOUS
10
4.002917047244094
20
-4.3418627952755902
11
4.002917047244094
21
-4.3353025590551182
0
LINE
8
BLACK
6
CONTINUOUS
10
4.002917047244094
20
-4.3353025590551182
11
4.0041968897637794
21
-4.3288684251968501
0
LINE
8
BLACK
6
CONTINUOUS
10
4.0041968897637794
20
-4.3288684251968501
11
4.0067073622047245
21
-4.3228075984251966
0
LINE
8
BLACK
6
CONTINUOUS
10
4.0067073622047245
20
-4.3228075984251966
11
4.0103520078740154
21
-4.3173529921259846
0
LINE
8
BLACK
6
CONTINUOUS
10
4.0103520078740154
20
-4.3173529921259846
11
4.0149907874015751
21
-4.3127142125984248
0
LINE
8
BLACK
6
CONTINUOUS
10
4.0149907874015751
20
-4.3127142125984248
11
4.0204453937007871
21
-4.3090695669291339
0
LINE
8
BLACK
6
CONTINUOUS
10
4.0204453937007871
20
-4.3090695669291339
11
4.0265062204724407
21
-4.3065590944881889
0
LINE
8
BLACK
6
CONTINUOUS
10
4.0265062204724407
20
-4.3065590944881889
11
4.0329403543307087
21
-4.3052792519685035
0
LINE
8
BLACK
6
CONTINUOUS
10
4.0329403543307087
20
-4.3052792519685035
11
4.0395005905511807
21
-4.3052792519685035
0
LINE
8
BLACK
6
CONTINUOUS
10
4.0395005905511807
20
-4.3052792519685035
11
4.0459347244094488
21
-4.3065590944881889
0
LINE
8
BLACK
6
CONTINUOUS
10
4.1459347244094484
20
-4.3065590944881889
11
4.151995551181102
21
-4.3090695669291339
0
LINE
8
BLACK
6
CONTINUOUS
10
4.151995551181102
20
-4.3090695669291339
11
4.1574501574803149
21
-4.3127142125984248
0
LINE
8
BLACK
6
CONTINUOUS
10
4.1574501574803149
20
-4.3127142125984248
11
4.1620889370078737
21
-4.3173529921259846
0
LINE
8
BLACK
6
CONTINUOUS
10
4.1620889370078737
20
-4.3173529921259846
11
4.1657335826771655
21
-4.3228075984251966
0
LINE
8
BLACK
6
CONTINUOUS
10
4.1657335826771655
20
-4.3228075984251966
11
4.1682440551181106
21
-4.3288684251968501
0
LINE
8
BLACK
6
CONTINUOUS
10
4.1682440551181106
20
-4.3288684251968501
11
4.1695238976377951
21
-4.3353025590551182
0
LINE
8
BLACK
6
CONTINUOUS
10
4.1695238976377951
20
-4.3353025590551182
11
4.1695238976377951
21
-4.3418627952755902
0
LINE
8
BLACK
6
CONTINUOUS
10
4.1695238976377951
20
-4.3418627952755902
11
4.1682440551181106
21
-4.3482969291338582
0
LINE
8
BLACK
6
CONTINUOUS
10
4.1682440551181106
20
-4.3482969291338582
11
4.1657335826771655
21
-4.3543577559055118
0
LINE
8
BLACK
6
CONTINUOUS
10
4.1657335826771655
20
-4.3543577559055118
11
4.1620889370078737
21
-4.3598123622047247
0
LINE
8
BLACK
6
CONTINUOUS
10
4.1620889370078737
20
-4.3598123622047247
11
4.1574501574803149
21
-4.3644511417322835
0
LINE
8
BLACK
6
CONTINUOUS
10
4.1574501574803149
20
-4.3644511417322835
11
4.151995551181102
21
-4.3680957874015744
0
LINE
8
BLACK
6
CONTINUOUS
10
4.151995551181102
20
-4.3680957874015744
11
4.1459347244094484
21
-4.3706062598425195
0
LINE
8
BLACK
6
CONTINUOUS
10
4.1459347244094484
20
-4.3706062598425195
11
4.1395005905511812
21
-4.3718861023622049
0
LINE
8
BLACK
6
CONTINUOUS
10
4.1395005905511812
20
-4.3718861023622049
11
4.1329403543307084
21
-4.3718861023622049
0
LINE
8
BLACK
6
CONTINUOUS
10
4.1329403543307084
20
-4.3718861023622049
11
4.1265062204724412
21
-4.3706062598425195
0
LINE
8
BLACK
6
CONTINUOUS
10
4.1265062204724412
20
-4.3706062598425195
11
4.1204453937007877
21
-4.3680957874015744
0
LINE
8
BLACK
6
CONTINUOUS
10
4.1204453937007877
20
-4.3680957874015744
11
4.1149907874015748
21
-4.3644511417322835
0
LINE
8
BLACK
6
CONTINUOUS
10
4.1149907874015748
20
-4.3644511417322835
11
4.1103520078740159
21
-4.3598123622047247
0
LINE
8
BLACK
6
CONTINUOUS
10
4.1103520078740159
20
-4.3598123622047247
11
4.1067073622047241
21
-4.3543577559055118
0
LINE
8
BLACK
6
CONTINUOUS
10
4.1067073622047241
20
-4.3543577559055118
11
4.1041968897637791
21
-4.3482969291338582
0
LINE
8
BLACK
6
CONTINUOUS
10
4.1041968897637791
20
-4.3482969291338582
11
4.1029170472440946
21
-4.3418627952755902
0
LINE
8
BLACK
6
CONTINUOUS
10
4.1029170472440946
20
-4.3418627952755902
11
4.1029170472440946
21
-4.3353025590551182
0
LINE
8
BLACK
6
CONTINUOUS
10
4.1029170472440946
20
-4.3353025590551182
11
4.1041968897637791
21
-4.3288684251968501
0
LINE
8
BLACK
6
CONTINUOUS
10
4.1041968897637791
20
-4.3288684251968501
11
4.1067073622047241
21
-4.3228075984251966
0
LINE
8
BLACK
6
CONTINUOUS
10
4.1067073622047241
20
-4.3228075984251966
11
4.1103520078740159
21
-4.3173529921259846
0
LINE
8
BLACK
6
CONTINUOUS
10
4.1103520078740159
20
-4.3173529921259846
11
4.1149907874015748
21
-4.3127142125984248
0
LINE
8
BLACK
6
CONTINUOUS
10
4.1149907874015748
20
-4.3127142125984248
11
4.1204453937007877
21
-4.3090695669291339
0
LINE
8
BLACK
6
CONTINUOUS
10
4.1204453937007877
20
-4.3090695669291339
11
4.1265062204724412
21
-4.3065590944881889
0
LINE
8
BLACK
6
CONTINUOUS
10
4.1265062204724412
20
-4.3065590944881889
11
4.1329403543307084
21
-4.3052792519685035
0
LINE
8
BLACK
6
CONTINUOUS
10
4.1329403543307084
20
-4.3052792519685035
11
4.1395005905511812
21
-4.3052792519685035
0
LINE
8
BLACK
6
CONTINUOUS
10
4.1395005905511812
20
-4.3052792519685035
11
4.1459347244094484
21
-4.3065590944881889
0
LINE
8
BLACK
6
CONTINUOUS
10
3.8301615748031494
20
-4.1079577559055114
11
3.8330353937007873
21
-4.109877992125984
0
LINE
8
BLACK
6
CONTINUOUS
10
3.8330353937007873
20
-4.109877992125984
11
3.8349556299212599
21
-4.1127518110236219
0
LINE
8
BLACK
6
CONTINUOUS
10
3.8349556299212599
20
-4.1127518110236219
11
3.8356299212598426
21
-4.1161417322834648
0
LINE
8
BLACK
6
CONTINUOUS
10
3.8356299212598426
20
-4.1161417322834648
11
3.8356299212598426
21
-4.1338582677165352
0
LINE
8
BLACK
6
CONTINUOUS
10
3.8356299212598426
20
-4.1338582677165352
11
3.8349556299212599
21
-4.1372481889763781
0
LINE
8
BLACK
6
CONTINUOUS
10
3.8349556299212599
20
-4.1372481889763781
11
3.8330353937007873
21
-4.140122007874016
0
LINE
8
BLACK
6
CONTINUOUS
10
3.8330353937007873
20
-4.140122007874016
11
3.8301615748031494
21
-4.1420422440944877
0
LINE
8
BLACK
6
CONTINUOUS
10
3.8301615748031494
20
-4.1420422440944877
11
3.826771653543307
21
-4.1427165354330704
0
LINE
8
BLACK
6
CONTINUOUS
10
3.826771653543307
20
-4.1427165354330704
11
3.8070866141732282
21
-4.1427165354330704
0
LINE
8
BLACK
6
CONTINUOUS
10
3.8070866141732282
20
-4.1427165354330704
11
3.8036966929133857
21
-4.1420422440944877
0
LINE
8
BLACK
6
CONTINUOUS
10
3.8036966929133857
20
-4.1420422440944877
11
3.8008228740157479
21
-4.140122007874016
0
LINE
8
BLACK
6
CONTINUOUS
10
3.8008228740157479
20
-4.140122007874016
11
3.7989026377952757
21
-4.1372481889763781
0
LINE
8
BLACK
6
CONTINUOUS
10
3.7989026377952757
20
-4.1372481889763781
11
3.7982283464566926
21
-4.1338582677165352
0
LINE
8
BLACK
6
CONTINUOUS
10
3.7982283464566926
20
-4.1338582677165352
11
3.7982283464566926
21
-4.1161417322834648
0
LINE
8
BLACK
6
CONTINUOUS
10
3.7982283464566926
20
-4.1161417322834648
11
3.7989026377952757
21
-4.1127518110236219
0
LINE
8
BLACK
6
CONTINUOUS
10
3.7989026377952757
20
-4.1127518110236219
11
3.8008228740157479
21
-4.109877992125984
0
LINE
8
BLACK
6
CONTINUOUS
10
3.8008228740157479
20
-4.109877992125984
11
3.8036966929133857
21
-4.1079577559055114
0
LINE
8
BLACK
6
CONTINUOUS
10
3.8036966929133857
20
-4.1079577559055114
11
3.8070866141732282
21
-4.1072834645669287
0
LINE
8
BLACK
6
CONTINUOUS
10
3.8070866141732282
20
-4.1072834645669287
11
3.826771653543307
21
-4.1072834645669287
0
LINE
8
BLACK
6
CONTINUOUS
10
3.826771653543307
20
-4.1072834645669287
11
3.8301615748031494
21
-4.1079577559055114
0
LINE
8
BLACK
6
CONTINUOUS
10
3.9348689370078738
20
-4.0509460629921259
11
3.9380620866141731
21
-4.0530796456692917
0
LINE
8
BLACK
6
CONTINUOUS
10
3.9380620866141731
20
-4.0530796456692917
11
3.9401956692913385
21
-4.0562727952755901
0
LINE
8
BLACK
6
CONTINUOUS
10
3.9401956692913385
20
-4.0562727952755901
11
3.9409448818897639
21
-4.0600393700787398
0
LINE
8
BLACK
6
CONTINUOUS
10
3.9409448818897639
20
-4.0600393700787398
11
3.9409448818897639
21
-4.0974409448818898
0
LINE
8
BLACK
6
CONTINUOUS
10
3.9409448818897639
20
-4.0974409448818898
11
3.9401956692913385
21
-4.1012075196850395
0
LINE
8
BLACK
6
CONTINUOUS
10
3.9401956692913385
20
-4.1012075196850395
11
3.9380620866141731
21
-4.1044006692913388
0
LINE
8
BLACK
6
CONTINUOUS
10
3.9380620866141731
20
-4.1044006692913388
11
3.9348689370078738
21
-4.1065342519685037
0
LINE
8
BLACK
6
CONTINUOUS
10
3.9348689370078738
20
-4.1065342519685037
11
3.9311023622047245
21
-4.1072834645669287
0
LINE
8
BLACK
6
CONTINUOUS
10
3.9311023622047245
20
-4.1072834645669287
11
3.9114173228346454
21
-4.1072834645669287
0
LINE
8
BLACK
6
CONTINUOUS
10
3.9114173228346454
20
-4.1072834645669287
11
3.9076507480314961
21
-4.1065342519685037
0
LINE
8
BLACK
6
CONTINUOUS
10
3.9076507480314961
20
-4.1065342519685037
11
3.9044575984251968
21
-4.1044006692913388
0
LINE
8
BLACK
6
CONTINUOUS
10
3.9044575984251968
20
-4.1044006692913388
11
3.9023240157480314
21
-4.1012075196850395
0
LINE
8
BLACK
6
CONTINUOUS
10
3.9023240157480314
20
-4.1012075196850395
11
3.901574803149606
21
-4.0974409448818898
0
LINE
8
BLACK
6
CONTINUOUS
10
3.901574803149606
20
-4.0974409448818898
11
3.901574803149606
21
-4.0600393700787398
0
LINE
8
BLACK
6
CONTINUOUS
10
3.901574803149606
20
-4.0600393700787398
11
3.9023240157480314
21
-4.0562727952755901
0
LINE
8
BLACK
6
CONTINUOUS
10
3.9023240157480314
20
-4.0562727952755901
11
3.9044575984251968
21
-4.0530796456692917
0
LINE
8
BLACK
6
CONTINUOUS
10
3.9044575984251968
20
-4.0530796456692917
11
3.9076507480314961
21
-4.0509460629921259
0
LINE
8
BLACK
6
CONTINUOUS
10
3.9076507480314961
20
-4.0509460629921259
11
3.9114173228346454
21
-4.0501968503937009
0
LINE
8
BLACK
6
CONTINUOUS
10
3.9114173228346454
20
-4.0501968503937009
11
3.9311023622047245
21
-4.0501968503937009
0
LINE
8
BLACK
6
CONTINUOUS
10
3.9311023622047245
20
-4.0501968503937009
11
3.9348689370078738
21
-4.0509460629921259
0
LINE
8
BLACK
6
CONTINUOUS
10
4.0096720866141728
20
-4.0509460629921259
11
4.0128652362204722
21
-4.0530796456692917
0
LINE
8
BLACK
6
CONTINUOUS
10
4.0128652362204722
20
-4.0530796456692917
11
4.014998818897638
21
-4.0562727952755901
0
LINE
8
BLACK
6
CONTINUOUS
10
4.014998818897638
20
-4.0562727952755901
11
4.015748031496063
21
-4.0600393700787398
0
LINE
8
BLACK
6
CONTINUOUS
10
4.015748031496063
20
-4.0600393700787398
11
4.015748031496063
21
-4.0974409448818898
0
LINE
8
BLACK
6
CONTINUOUS
10
4.015748031496063
20
-4.0974409448818898
11
4.014998818897638
21
-4.1012075196850395
0
LINE
8
BLACK
6
CONTINUOUS
10
4.014998818897638
20
-4.1012075196850395
11
4.0128652362204722
21
-4.1044006692913388
0
LINE
8
BLACK
6
CONTINUOUS
10
4.0128652362204722
20
-4.1044006692913388
11
4.0096720866141728
21
-4.1065342519685037
0
LINE
8
BLACK
6
CONTINUOUS
10
4.0096720866141728
20
-4.1065342519685037
11
4.0059055118110232
21
-4.1072834645669287
0
LINE
8
BLACK
6
CONTINUOUS
10
4.0059055118110232
20
-4.1072834645669287
11
3.9862204724409449
21
-4.1072834645669287
0
LINE
8
BLACK
6
CONTINUOUS
10
3.9862204724409449
20
-4.1072834645669287
11
3.9824538976377952
21
-4.1065342519685037
0
LINE
8
BLACK
6
CONTINUOUS
10
3.9824538976377952
20
-4.1065342519685037
11
3.9792607480314959
21
-4.1044006692913388
0
LINE
8
BLACK
6
CONTINUOUS
10
3.9792607480314959
20
-4.1044006692913388
11
3.9771271653543305
21
-4.1012075196850395
0
LINE
8
BLACK
6
CONTINUOUS
10
3.9771271653543305
20
-4.1012075196850395
11
3.9763779527559056
21
-4.0974409448818898
0
LINE
8
BLACK
6
CONTINUOUS
10
3.9763779527559056
20
-4.0974409448818898
11
3.9763779527559056
21
-4.0600393700787398
0
LINE
8
BLACK
6
CONTINUOUS
10
3.9763779527559056
20
-4.0600393700787398
11
3.9771271653543305
21
-4.0562727952755901
0
LINE
8
BLACK
6
CONTINUOUS
10
3.9771271653543305
20
-4.0562727952755901
11
3.9792607480314959
21
-4.0530796456692917
0
LINE
8
BLACK
6
CONTINUOUS
10
3.9792607480314959
20
-4.0530796456692917
11
3.9824538976377952
21
-4.0509460629921259
0
LINE
8
BLACK
6
CONTINUOUS
10
3.9824538976377952
20
-4.0509460629921259
11
3.9862204724409449
21
-4.0501968503937009
0
LINE
8
BLACK
6
CONTINUOUS
10
3.9862204724409449
20
-4.0501968503937009
11
4.0059055118110232
21
-4.0501968503937009
0
LINE
8
BLACK
6
CONTINUOUS
10
4.0059055118110232
20
-4.0501968503937009
11
4.0096720866141728
21
-4.0509460629921259
0
LINE
8
BLACK
6
CONTINUOUS
10
3.8301615748031494
20
-4.0469341338582678
11
3.8330353937007873
21
-4.0488543700787405
0
LINE
8
BLACK
6
CONTINUOUS
10
3.8330353937007873
20
-4.0488543700787405
11
3.8349556299212599
21
-4.0517281889763774
0
LINE
8
BLACK
6
CONTINUOUS
10
3.8349556299212599
20
-4.0517281889763774
11
3.8356299212598426
21
-4.0551181102362204
0
LINE
8
BLACK
6
CONTINUOUS
10
3.8356299212598426
20
-4.0551181102362204
11
3.8356299212598426
21
-4.0728346456692917
0
LINE
8
BLACK
6
CONTINUOUS
10
3.8356299212598426
20
-4.0728346456692917
11
3.8349556299212599
21
-4.0762245669291337
0
LINE
8
BLACK
6
CONTINUOUS
10
3.8349556299212599
20
-4.0762245669291337
11
3.8330353937007873
21
-4.0790983858267715
0
LINE
8
BLACK
6
CONTINUOUS
10
3.8330353937007873
20
-4.0790983858267715
11
3.8301615748031494
21
-4.0810186220472442
0
LINE
8
BLACK
6
CONTINUOUS
10
3.8301615748031494
20
-4.0810186220472442
11
3.826771653543307
21
-4.0816929133858268
0
LINE
8
BLACK
6
CONTINUOUS
10
3.826771653543307
20
-4.0816929133858268
11
3.8070866141732282
21
-4.0816929133858268
0
LINE
8
BLACK
6
CONTINUOUS
10
3.8070866141732282
20
-4.0816929133858268
11
3.8036966929133857
21
-4.0810186220472442
0
LINE
8
BLACK
6
CONTINUOUS
10
3.8036966929133857
20
-4.0810186220472442
11
3.8008228740157479
21
-4.0790983858267715
0
LINE
8
BLACK
6
CONTINUOUS
10
3.8008228740157479
20
-4.0790983858267715
11
3.7989026377952757
21
-4.0762245669291337
0
LINE
8
BLACK
6
CONTINUOUS
10
3.7989026377952757
20
-4.0762245669291337
11
3.7982283464566926
21
-4.0728346456692917
0
LINE
8
BLACK
6
CONTINUOUS
10
3.7982283464566926
20
-4.0728346456692917
11
3.7982283464566926
21
-4.0551181102362204
0
LINE
8
BLACK
6
CONTINUOUS
10
3.7982283464566926
20
-4.0551181102362204
11
3.7989026377952757
21
-4.0517281889763774
0
LINE
8
BLACK
6
CONTINUOUS
10
3.7989026377952757
20
-4.0517281889763774
11
3.8008228740157479
21
-4.0488543700787405
0
LINE
8
BLACK
6
CONTINUOUS
10
3.8008228740157479
20
-4.0488543700787405
11
3.8036966929133857
21
-4.0469341338582678
0
LINE
8
BLACK
6
CONTINUOUS
10
3.8036966929133857
20
-4.0469341338582678
11
3.8070866141732282
21
-4.0462598425196852
0
LINE
8
BLACK
6
CONTINUOUS
10
3.8070866141732282
20
-4.0462598425196852
11
3.826771653543307
21
-4.0462598425196852
0
LINE
8
BLACK
6
CONTINUOUS
10
3.826771653543307
20
-4.0462598425196852
11
3.8301615748031494
21
-4.0469341338582678
0
LINE
8
BLACK
6
CONTINUOUS
10
3.7122758661417321
20
-3.8891550393700784
11
3.7196202362204724
21
-3.8915413779527559
0
LINE
8
BLACK
6
CONTINUOUS
10
3.7196202362204724
20
-3.8915413779527559
11
3.726500905511811
21
-3.8950472440944881
0
LINE
8
BLACK
6
CONTINUOUS
10
3.726500905511811
20
-3.8950472440944881
11
3.7327484251968501
21
-3.8995863385826772
0
LINE
8
BLACK
6
CONTINUOUS
10
3.7327484251968501
20
-3.8995863385826772
11
3.7382089370078737
21
-3.9050468503937008
0
LINE
8
BLACK
6
CONTINUOUS
10
3.7382089370078737
20
-3.9050468503937008
11
3.7427480314960628
21
-3.9112943700787399
0
LINE
8
BLACK
6
CONTINUOUS
10
3.7427480314960628
20
-3.9112943700787399
11
3.746253897637795
21
-3.9181750393700785
0
LINE
8
BLACK
6
CONTINUOUS
10
3.746253897637795
20
-3.9181750393700785
11
3.7486402362204725
21
-3.9255194094488188
0
LINE
8
BLACK
6
CONTINUOUS
10
3.7486402362204725
20
-3.9255194094488188
11
3.749848307086614
21
-3.9331466929133856
0
LINE
8
BLACK
6
CONTINUOUS
10
3.749848307086614
20
-3.9331466929133856
11
3.749848307086614
21
-3.9408690551181103
0
LINE
8
BLACK
6
CONTINUOUS
10
3.749848307086614
20
-3.9408690551181103
11
3.7486402362204725
21
-3.948496338582677
0
LINE
8
BLACK
6
CONTINUOUS
10
3.7486402362204725
20
-3.948496338582677
11
3.746253897637795
21
-3.9558407086614173
0
LINE
8
BLACK
6
CONTINUOUS
10
3.746253897637795
20
-3.9558407086614173
11
3.7427480314960628
21
-3.9627213779527559
0
LINE
8
BLACK
6
CONTINUOUS
10
3.7427480314960628
20
-3.9627213779527559
11
3.7382089370078737
21
-3.968968897637795
0
LINE
8
BLACK
6
CONTINUOUS
10
3.7382089370078737
20
-3.968968897637795
11
3.7327484251968501
21
-3.9744294094488186
0
LINE
8
BLACK
6
CONTINUOUS
10
3.7327484251968501
20
-3.9744294094488186
11
3.726500905511811
21
-3.9789685039370077
0
LINE
8
BLACK
6
CONTINUOUS
10
3.726500905511811
20
-3.9789685039370077
11
3.7196202362204724
21
-3.9824743700787399
0
LINE
8
BLACK
6
CONTINUOUS
10
3.7196202362204724
20
-3.9824743700787399
11
3.7122758661417321
21
-3.9848607086614174
0
LINE
8
BLACK
6
CONTINUOUS
10
3.7122758661417321
20
-3.9848607086614174
11
3.7046485826771653
21
-3.9860687795275589
0
LINE
8
BLACK
6
CONTINUOUS
10
3.7046485826771653
20
-3.9860687795275589
11
3.6969262204724407
21
-3.9860687795275589
0
LINE
8
BLACK
6
CONTINUOUS
10
3.6969262204724407
20
-3.9860687795275589
11
3.6892989370078739
21
-3.9848607086614174
0
LINE
8
BLACK
6
CONTINUOUS
10
3.6892989370078739
20
-3.9848607086614174
11
3.6819545669291336
21
-3.9824743700787399
0
LINE
8
BLACK
6
CONTINUOUS
10
3.6819545669291336
20
-3.9824743700787399
11
3.675073897637795
21
-3.9789685039370077
0
LINE
8
BLACK
6
CONTINUOUS
10
3.675073897637795
20
-3.9789685039370077
11
3.6688263779527559
21
-3.9744294094488186
0
LINE
8
BLACK
6
CONTINUOUS
10
3.6688263779527559
20
-3.9744294094488186
11
3.6633658661417323
21
-3.968968897637795
0
LINE
8
BLACK
6
CONTINUOUS
10
3.6633658661417323
20
-3.968968897637795
11
3.6588267716535432
21
-3.9627213779527559
0
LINE
8
BLACK
6
CONTINUOUS
10
3.6588267716535432
20
-3.9627213779527559
11
3.655320905511811
21
-3.9558407086614173
0
LINE
8
BLACK
6
CONTINUOUS
10
3.655320905511811
20
-3.9558407086614173
11
3.652934566929134
21
-3.948496338582677
0
LINE
8
BLACK
6
CONTINUOUS
10
3.652934566929134
20
-3.948496338582677
11
3.651726496062992
21
-3.9408690551181103
0
LINE
8
BLACK
6
CONTINUOUS
10
3.651726496062992
20
-3.9408690551181103
11
3.651726496062992
21
-3.9331466929133856
0
LINE
8
BLACK
6
CONTINUOUS
10
3.651726496062992
20
-3.9331466929133856
11
3.652934566929134
21
-3.9255194094488188
0
LINE
8
BLACK
6
CONTINUOUS
10
3.652934566929134
20
-3.9255194094488188
11
3.655320905511811
21
-3.9181750393700785
0
LINE
8
BLACK
6
CONTINUOUS
10
3.655320905511811
20
-3.9181750393700785
11
3.6588267716535432
21
-3.9112943700787399
0
LINE
8
BLACK
6
CONTINUOUS
10
3.6588267716535432
20
-3.9112943700787399
11
3.6633658661417323
21
-3.9050468503937008
0
LINE
8
BLACK
6
CONTINUOUS
10
3.6633658661417323
20
-3.9050468503937008
11
3.6688263779527559
21
-3.8995863385826772
0
LINE
8
BLACK
6
CONTINUOUS
10
3.6688263779527559
20
-3.8995863385826772
11
3.675073897637795
21
-3.8950472440944881
0
LINE
8
BLACK
6
CONTINUOUS
10
3.675073897637795
20
-3.8950472440944881
11
3.6819545669291336
21
-3.8915413779527559
0
LINE
8
BLACK
6
CONTINUOUS
10
3.6819545669291336
20
-3.8915413779527559
11
3.6892989370078739
21
-3.8891550393700784
0
LINE
8
BLACK
6
CONTINUOUS
10
3.6892989370078739
20
-3.8891550393700784
11
3.6969262204724407
21
-3.887946968503937
0
LINE
8
BLACK
6
CONTINUOUS
10
3.6969262204724407
20
-3.887946968503937
11
3.7046485826771653
21
-3.887946968503937
0
LINE
8
BLACK
6
CONTINUOUS
10
3.7046485826771653
20
-3.887946968503937
11
3.7122758661417321
21
-3.8891550393700784
0
LINE
8
BLACK
6
CONTINUOUS
10
4.1847168110236224
20
-3.8891550393700784
11
4.1920611811023623
21
-3.8915413779527559
0
LINE
8
BLACK
6
CONTINUOUS
10
4.1920611811023623
20
-3.8915413779527559
11
4.1989418503937008
21
-3.8950472440944881
0
LINE
8
BLACK
6
CONTINUOUS
10
4.1989418503937008
20
-3.8950472440944881
11
4.2051893700787399
21
-3.8995863385826772
0
LINE
8
BLACK
6
CONTINUOUS
10
4.2051893700787399
20
-3.8995863385826772
11
4.210649881889764
21
-3.9050468503937008
0
LINE
8
BLACK
6
CONTINUOUS
10
4.210649881889764
20
-3.9050468503937008
11
4.2151889763779531
21
-3.9112943700787399
0
LINE
8
BLACK
6
CONTINUOUS
10
4.2151889763779531
20
-3.9112943700787399
11
4.2186948425196853
21
-3.9181750393700785
0
LINE
8
BLACK
6
CONTINUOUS
10
4.2186948425196853
20
-3.9181750393700785
11
4.2210811811023623
21
-3.9255194094488188
0
LINE
8
BLACK
6
CONTINUOUS
10
4.2210811811023623
20
-3.9255194094488188
11
4.2222892519685038
21
-3.9331466929133856
0
LINE
8
BLACK
6
CONTINUOUS
10
4.2222892519685038
20
-3.9331466929133856
11
4.2222892519685038
21
-3.9408690551181103
0
LINE
8
BLACK
6
CONTINUOUS
10
4.2222892519685038
20
-3.9408690551181103
11
4.2210811811023623
21
-3.948496338582677
0
LINE
8
BLACK
6
CONTINUOUS
10
4.2210811811023623
20
-3.948496338582677
11
4.2186948425196853
21
-3.9558407086614173
0
LINE
8
BLACK
6
CONTINUOUS
10
4.2186948425196853
20
-3.9558407086614173
11
4.2151889763779531
21
-3.9627213779527559
0
LINE
8
BLACK
6
CONTINUOUS
10
4.2151889763779531
20
-3.9627213779527559
11
4.210649881889764
21
-3.968968897637795
0
LINE
8
BLACK
6
CONTINUOUS
10
4.210649881889764
20
-3.968968897637795
11
4.2051893700787399
21
-3.9744294094488186
0
LINE
8
BLACK
6
CONTINUOUS
10
4.2051893700787399
20
-3.9744294094488186
11
4.1989418503937008
21
-3.9789685039370077
0
LINE
8
BLACK
6
CONTINUOUS
10
4.1989418503937008
20
-3.9789685039370077
11
4.1920611811023623
21
-3.9824743700787399
0
LINE
8
BLACK
6
CONTINUOUS
10
4.1920611811023623
20
-3.9824743700787399
11
4.1847168110236224
21
-3.9848607086614174
0
LINE
8
BLACK
6
CONTINUOUS
10
4.1847168110236224
20
-3.9848607086614174
11
4.1770895275590547
21
-3.9860687795275589
0
LINE
8
BLACK
6
CONTINUOUS
10
4.1770895275590547
20
-3.9860687795275589
11
4.1693671653543305
21
-3.9860687795275589
0
LINE
8
BLACK
6
CONTINUOUS
10
4.1693671653543305
20
-3.9860687795275589
11
4.1617398818897637
21
-3.9848607086614174
0
LINE
8
BLACK
6
CONTINUOUS
10
4.1617398818897637
20
-3.9848607086614174
11
4.1543955118110238
21
-3.9824743700787399
0
LINE
8
BLACK
6
CONTINUOUS
10
4.1543955118110238
20
-3.9824743700787399
11
4.1475148425196853
21
-3.9789685039370077
0
LINE
8
BLACK
6
CONTINUOUS
10
4.1475148425196853
20
-3.9789685039370077
11
4.1412673228346453
21
-3.9744294094488186
0
LINE
8
BLACK
6
CONTINUOUS
10
4.1412673228346453
20
-3.9744294094488186
11
4.1358068110236221
21
-3.968968897637795
0
LINE
8
BLACK
6
CONTINUOUS
10
4.1358068110236221
20
-3.968968897637795
11
4.131267716535433
21
-3.9627213779527559
0
LINE
8
BLACK
6
CONTINUOUS
10
4.131267716535433
20
-3.9627213779527559
11
4.1277618503937008
21
-3.9558407086614173
0
LINE
8
BLACK
6
CONTINUOUS
10
4.1277618503937008
20
-3.9558407086614173
11
4.1253755118110238
21
-3.948496338582677
0
LINE
8
BLACK
6
CONTINUOUS
10
4.1253755118110238
20
-3.948496338582677
11
4.1241674409448814
21
-3.9408690551181103
0
LINE
8
BLACK
6
CONTINUOUS
10
4.1241674409448814
20
-3.9408690551181103
11
4.1241674409448814
21
-3.9331466929133856
0
LINE
8
BLACK
6
CONTINUOUS
10
4.1241674409448814
20
-3.9331466929133856
11
4.1253755118110238
21
-3.9255194094488188
0
LINE
8
BLACK
6
CONTINUOUS
10
4.1253755118110238
20
-3.9255194094488188
11
4.1277618503937008
21
-3.9181750393700785
0
LINE
8
BLACK
6
CONTINUOUS
10
4.1277618503937008
20
-3.9181750393700785
11
4.131267716535433
21
-3.9112943700787399
0
LINE
8
BLACK
6
CONTINUOUS
10
4.131267716535433
20
-3.9112943700787399
11
4.1358068110236221
21
-3.9050468503937008
0
LINE
8
BLACK
6
CONTINUOUS
10
4.1358068110236221
20
-3.9050468503937008
11
4.1412673228346453
21
-3.8995863385826772
0
LINE
8
BLACK
6
CONTINUOUS
10
4.1412673228346453
20
-3.8995863385826772
11
4.1475148425196853
21
-3.8950472440944881
0
LINE
8
BLACK
6
CONTINUOUS
10
4.1475148425196853
20
-3.8950472440944881
11
4.1543955118110238
21
-3.8915413779527559
0
LINE
8
BLACK
6
CONTINUOUS
10
4.1543955118110238
20
-3.8915413779527559
11
4.1617398818897637
21
-3.8891550393700784
0
LINE
8
BLACK
6
CONTINUOUS
10
4.1617398818897637
20
-3.8891550393700784
11
4.1693671653543305
21
-3.887946968503937
0
LINE
8
BLACK
6
CONTINUOUS
10
4.1693671653543305
20
-3.887946968503937
11
4.1770895275590547
21
-3.887946968503937
0
LINE
8
BLACK
6
CONTINUOUS
10
4.1770895275590547
20
-3.887946968503937
11
4.1847168110236224
21
-3.8891550393700784
0
LINE
8
BLACK
6
CONTINUOUS
10
3.779357125984252
20
-3.7546862204724407
11
3.7825502755905509
21
-3.7568198031496061
0
LINE
8
BLACK
6
CONTINUOUS
10
3.7825502755905509
20
-3.7568198031496061
11
3.7846838582677162
21
-3.7600129527559054
0
LINE
8
BLACK
6
CONTINUOUS
10
3.7846838582677162
20
-3.7600129527559054
11
3.7854330708661417
21
-3.7637795275590551
0
LINE
8
BLACK
6
CONTINUOUS
10
3.7854330708661417
20
-3.7637795275590551
11
3.7854330708661417
21
-3.8543307086614171
0
LINE
8
BLACK
6
CONTINUOUS
10
3.7854330708661417
20
-3.8543307086614171
11
3.7846838582677162
21
-3.8580972834645668
0
LINE
8
BLACK
6
CONTINUOUS
10
3.7846838582677162
20
-3.8580972834645668
11
3.7825502755905509
21
-3.8612904330708662
0
LINE
8
BLACK
6
CONTINUOUS
10
3.7825502755905509
20
-3.8612904330708662
11
3.779357125984252
21
-3.8634240157480315
0
LINE
8
BLACK
6
CONTINUOUS
10
3.779357125984252
20
-3.8634240157480315
11
3.7755905511811023
21
-3.8641732283464565
0
LINE
8
BLACK
6
CONTINUOUS
10
3.7755905511811023
20
-3.8641732283464565
11
3.7559055118110236
21
-3.8641732283464565
0
LINE
8
BLACK
6
CONTINUOUS
10
3.7559055118110236
20
-3.8641732283464565
11
3.7521389370078739
21
-3.8634240157480315
0
LINE
8
BLACK
6
CONTINUOUS
10
3.7521389370078739
20
-3.8634240157480315
11
3.7489457874015746
21
-3.8612904330708662
0
LINE
8
BLACK
6
CONTINUOUS
10
3.7489457874015746
20
-3.8612904330708662
11
3.7468122047244092
21
-3.8580972834645668
0
LINE
8
BLACK
6
CONTINUOUS
10
3.7468122047244092
20
-3.8580972834645668
11
3.7460629921259843
21
-3.8543307086614171
0
LINE
8
BLACK
6
CONTINUOUS
10
3.7460629921259843
20
-3.8543307086614171
11
3.7460629921259843
21
-3.7637795275590551
0
LINE
8
BLACK
6
CONTINUOUS
10
3.7460629921259843
20
-3.7637795275590551
11
3.7468122047244092
21
-3.7600129527559054
0
LINE
8
BLACK
6
CONTINUOUS
10
3.7468122047244092
20
-3.7600129527559054
11
3.7489457874015746
21
-3.7568198031496061
0
LINE
8
BLACK
6
CONTINUOUS
10
3.7489457874015746
20
-3.7568198031496061
11
3.7521389370078739
21
-3.7546862204724407
0
LINE
8
BLACK
6
CONTINUOUS
10
3.7521389370078739
20
-3.7546862204724407
11
3.7559055118110236
21
-3.7539370078740157
0
LINE
8
BLACK
6
CONTINUOUS
10
3.7559055118110236
20
-3.7539370078740157
11
3.7755905511811023
21
-3.7539370078740157
0
LINE
8
BLACK
6
CONTINUOUS
10
3.7755905511811023
20
-3.7539370078740157
11
3.779357125984252
21
-3.7546862204724407
0
LINE
8
BLACK
6
CONTINUOUS
10
4.1218768110236219
20
-3.7546862204724407
11
4.1250699606299213
21
-3.7568198031496061
0
LINE
8
BLACK
6
CONTINUOUS
10
4.1250699606299213
20
-3.7568198031496061
11
4.1272035433070862
21
-3.7600129527559054
0
LINE
8
BLACK
6
CONTINUOUS
10
4.1272035433070862
20
-3.7600129527559054
11
4.127952755905512
21
-3.7637795275590551
0
LINE
8
BLACK
6
CONTINUOUS
10
4.127952755905512
20
-3.7637795275590551
11
4.127952755905512
21
-3.8543307086614171
0
LINE
8
BLACK
6
CONTINUOUS
10
4.127952755905512
20
-3.8543307086614171
11
4.1272035433070862
21
-3.8580972834645668
0
LINE
8
BLACK
6
CONTINUOUS
10
4.1272035433070862
20
-3.8580972834645668
11
4.1250699606299213
21
-3.8612904330708662
0
LINE
8
BLACK
6
CONTINUOUS
10
4.1250699606299213
20
-3.8612904330708662
11
4.1218768110236219
21
-3.8634240157480315
0
LINE
8
BLACK
6
CONTINUOUS
10
4.1218768110236219
20
-3.8634240157480315
11
4.1181102362204722
21
-3.8641732283464565
0
LINE
8
BLACK
6
CONTINUOUS
10
4.1181102362204722
20
-3.8641732283464565
11
4.0984251968503935
21
-3.8641732283464565
0
LINE
8
BLACK
6
CONTINUOUS
10
4.0984251968503935
20
-3.8641732283464565
11
4.0946586220472438
21
-3.8634240157480315
0
LINE
8
BLACK
6
CONTINUOUS
10
4.0946586220472438
20
-3.8634240157480315
11
4.0914654724409445
21
-3.8612904330708662
0
LINE
8
BLACK
6
CONTINUOUS
10
4.0914654724409445
20
-3.8612904330708662
11
4.0893318897637796
21
-3.8580972834645668
0
LINE
8
BLACK
6
CONTINUOUS
10
4.0893318897637796
20
-3.8580972834645668
11
4.0885826771653546
21
-3.8543307086614171
0
LINE
8
BLACK
6
CONTINUOUS
10
4.0885826771653546
20
-3.8543307086614171
11
4.0885826771653546
21
-3.7637795275590551
0
LINE
8
BLACK
6
CONTINUOUS
10
4.0885826771653546
20
-3.7637795275590551
11
4.0893318897637796
21
-3.7600129527559054
0
LINE
8
BLACK
6
CONTINUOUS
10
4.0893318897637796
20
-3.7600129527559054
11
4.0914654724409445
21
-3.7568198031496061
0
LINE
8
BLACK
6
CONTINUOUS
10
4.0914654724409445
20
-3.7568198031496061
11
4.0946586220472438
21
-3.7546862204724407
0
LINE
8
BLACK
6
CONTINUOUS
10
4.0946586220472438
20
-3.7546862204724407
11
4.0984251968503935
21
-3.7539370078740157
0
LINE
8
BLACK
6
CONTINUOUS
10
4.0984251968503935
20
-3.7539370078740157
11
4.1181102362204722
21
-3.7539370078740157
0
LINE
8
BLACK
6
CONTINUOUS
10
4.1181102362204722
20
-3.7539370078740157
11
4.1218768110236219
21
-3.7546862204724407
0
LINE
8
BLACK
6
CONTINUOUS
10
3.8467481496062992
20
-3.6441503149606298
11
3.8486640157480316
21
-3.6454304724409448
0
LINE
8
BLACK
6
CONTINUOUS
10
3.8486640157480316
20
-3.6454304724409448
11
3.8499441732283466
21
-3.6473463385826772
0
LINE
8
BLACK
6
CONTINUOUS
10
3.8499441732283466
20
-3.6473463385826772
11
3.8503937007874014
21
-3.6496062992125982
0
LINE
8
BLACK
6
CONTINUOUS
10
3.8503937007874014
20
-3.6496062992125982
11
3.8503937007874014
21
-3.704724409448819
0
LINE
8
BLACK
6
CONTINUOUS
10
3.8503937007874014
20
-3.704724409448819
11
3.8499441732283466
21
-3.7069843700787399
0
LINE
8
BLACK
6
CONTINUOUS
10
3.8499441732283466
20
-3.7069843700787399
11
3.8486640157480316
21
-3.7089002362204724
0
LINE
8
BLACK
6
CONTINUOUS
10
3.8486640157480316
20
-3.7089002362204724
11
3.8467481496062992
21
-3.7101803937007873
0
LINE
8
BLACK
6
CONTINUOUS
10
3.8467481496062992
20
-3.7101803937007873
11
3.8444881889763778
21
-3.7106299212598426
0
LINE
8
BLACK
6
CONTINUOUS
10
3.8444881889763778
20
-3.7106299212598426
11
3.8326771653543306
21
-3.7106299212598426
0
LINE
8
BLACK
6
CONTINUOUS
10
3.8326771653543306
20
-3.7106299212598426
11
3.8304172047244092
21
-3.7101803937007873
0
LINE
8
BLACK
6
CONTINUOUS
10
3.8304172047244092
20
-3.7101803937007873
11
3.8285013385826772
21
-3.7089002362204724
0
LINE
8
BLACK
6
CONTINUOUS
10
3.8285013385826772
20
-3.7089002362204724
11
3.8272211811023622
21
-3.7069843700787399
0
LINE
8
BLACK
6
CONTINUOUS
10
3.8272211811023622
20
-3.7069843700787399
11
3.826771653543307
21
-3.704724409448819
0
LINE
8
BLACK
6
CONTINUOUS
10
3.826771653543307
20
-3.704724409448819
11
3.826771653543307
21
-3.6496062992125982
0
LINE
8
BLACK
6
CONTINUOUS
10
3.826771653543307
20
-3.6496062992125982
11
3.8272211811023622
21
-3.6473463385826772
0
LINE
8
BLACK
6
CONTINUOUS
10
3.8272211811023622
20
-3.6473463385826772
11
3.8285013385826772
21
-3.6454304724409448
0
LINE
8
BLACK
6
CONTINUOUS
10
3.8285013385826772
20
-3.6454304724409448
11
3.8304172047244092
21
-3.6441503149606298
0
LINE
8
BLACK
6
CONTINUOUS
10
3.8304172047244092
20
-3.6441503149606298
11
3.8326771653543306
21
-3.6437007874015745
0
LINE
8
BLACK
6
CONTINUOUS
10
3.8326771653543306
20
-3.6437007874015745
11
3.8444881889763778
21
-3.6437007874015745
0
LINE
8
BLACK
6
CONTINUOUS
10
3.8444881889763778
20
-3.6437007874015745
11
3.8467481496062992
21
-3.6441503149606298
0
LINE
8
BLACK
6
CONTINUOUS
10
3.8959607480314959
20
-3.6441503149606298
11
3.8978766141732284
21
-3.6454304724409448
0
LINE
8
BLACK
6
CONTINUOUS
10
3.8978766141732284
20
-3.6454304724409448
11
3.8991567716535434
21
-3.6473463385826772
0
LINE
8
BLACK
6
CONTINUOUS
10
3.8991567716535434
20
-3.6473463385826772
11
3.8996062992125982
21
-3.6496062992125982
0
LINE
8
BLACK
6
CONTINUOUS
10
3.8996062992125982
20
-3.6496062992125982
11
3.8996062992125982
21
-3.704724409448819
0
LINE
8
BLACK
6
CONTINUOUS
10
3.8996062992125982
20
-3.704724409448819
11
3.8991567716535434
21
-3.7069843700787399
0
LINE
8
BLACK
6
CONTINUOUS
10
3.8991567716535434
20
-3.7069843700787399
11
3.8978766141732284
21
-3.7089002362204724
0
LINE
8
BLACK
6
CONTINUOUS
10
3.8978766141732284
20
-3.7089002362204724
11
3.8959607480314959
21
-3.7101803937007873
0
LINE
8
BLACK
6
CONTINUOUS
10
3.8959607480314959
20
-3.7101803937007873
11
3.8937007874015745
21
-3.7106299212598426
0
LINE
8
BLACK
6
CONTINUOUS
10
3.8937007874015745
20
-3.7106299212598426
11
3.8818897637795273
21
-3.7106299212598426
0
LINE
8
BLACK
6
CONTINUOUS
10
3.8818897637795273
20
-3.7106299212598426
11
3.8796298031496064
21
-3.7101803937007873
0
LINE
8
BLACK
6
CONTINUOUS
10
3.8796298031496064
20
-3.7101803937007873
11
3.8777139370078739
21
-3.7089002362204724
0
LINE
8
BLACK
6
CONTINUOUS
10
3.8777139370078739
20
-3.7089002362204724
11
3.876433779527559
21
-3.7069843700787399
0
LINE
8
BLACK
6
CONTINUOUS
10
3.876433779527559
20
-3.7069843700787399
11
3.8759842519685037
21
-3.704724409448819
0
LINE
8
BLACK
6
CONTINUOUS
10
3.8759842519685037
20
-3.704724409448819
11
3.8759842519685037
21
-3.6496062992125982
0
LINE
8
BLACK
6
CONTINUOUS
10
3.8759842519685037
20
-3.6496062992125982
11
3.876433779527559
21
-3.6473463385826772
0
LINE
8
BLACK
6
CONTINUOUS
10
3.876433779527559
20
-3.6473463385826772
11
3.8777139370078739
21
-3.6454304724409448
0
LINE
8
BLACK
6
CONTINUOUS
10
3.8777139370078739
20
-3.6454304724409448
11
3.8796298031496064
21
-3.6441503149606298
0
LINE
8
BLACK
6
CONTINUOUS
10
3.8796298031496064
20
-3.6441503149606298
11
3.8818897637795273
21
-3.6437007874015745
0
LINE
8
BLACK
6
CONTINUOUS
10
3.8818897637795273
20
-3.6437007874015745
11
3.8937007874015745
21
-3.6437007874015745
0
LINE
8
BLACK
6
CONTINUOUS
10
3.8937007874015745
20
-3.6437007874015745
11
3.8959607480314959
21
-3.6441503149606298
0
LINE
8
BLACK
6
CONTINUOUS
10
3.9451733464566927
20
-3.6441503149606298
11
3.9470892125984252
21
-3.6454304724409448
0
LINE
8
BLACK
6
CONTINUOUS
10
3.9470892125984252
20
-3.6454304724409448
11
3.9483693700787401
21
-3.6473463385826772
0
LINE
8
BLACK
6
CONTINUOUS
10
3.9483693700787401
20
-3.6473463385826772
11
3.9488188976377954
21
-3.6496062992125982
0
LINE
8
BLACK
6
CONTINUOUS
10
3.9488188976377954
20
-3.6496062992125982
11
3.9488188976377954
21
-3.704724409448819
0
LINE
8
BLACK
6
CONTINUOUS
10
3.9488188976377954
20
-3.704724409448819
11
3.9483693700787401
21
-3.7069843700787399
0
LINE
8
BLACK
6
CONTINUOUS
10
3.9483693700787401
20
-3.7069843700787399
11
3.9470892125984252
21
-3.7089002362204724
0
LINE
8
BLACK
6
CONTINUOUS
10
3.9470892125984252
20
-3.7089002362204724
11
3.9451733464566927
21
-3.7101803937007873
0
LINE
8
BLACK
6
CONTINUOUS
10
3.9451733464566927
20
-3.7101803937007873
11
3.9429133858267718
21
-3.7106299212598426
0
LINE
8
BLACK
6
CONTINUOUS
10
3.9429133858267718
20
-3.7106299212598426
11
3.9311023622047245
21
-3.7106299212598426
0
LINE
8
BLACK
6
CONTINUOUS
10
3.9311023622047245
20
-3.7106299212598426
11
3.9288424015748031
21
-3.7101803937007873
0
LINE
8
BLACK
6
CONTINUOUS
10
3.9288424015748031
20
-3.7101803937007873
11
3.9269265354330707
21
-3.7089002362204724
0
LINE
8
BLACK
6
CONTINUOUS
10
3.9269265354330707
20
-3.7089002362204724
11
3.9256463779527557
21
-3.7069843700787399
0
LINE
8
BLACK
6
CONTINUOUS
10
3.9256463779527557
20
-3.7069843700787399
11
3.9251968503937005
21
-3.704724409448819
0
LINE
8
BLACK
6
CONTINUOUS
10
3.9251968503937005
20
-3.704724409448819
11
3.9251968503937005
21
-3.6496062992125982
0
LINE
8
BLACK
6
CONTINUOUS
10
3.9251968503937005
20
-3.6496062992125982
11
3.9256463779527557
21
-3.6473463385826772
0
LINE
8
BLACK
6
CONTINUOUS
10
3.9256463779527557
20
-3.6473463385826772
11
3.9269265354330707
21
-3.6454304724409448
0
LINE
8
BLACK
6
CONTINUOUS
10
3.9269265354330707
20
-3.6454304724409448
11
3.9288424015748031
21
-3.6441503149606298
0
LINE
8
BLACK
6
CONTINUOUS
10
3.9288424015748031
20
-3.6441503149606298
11
3.9311023622047245
21
-3.6437007874015745
0
LINE
8
BLACK
6
CONTINUOUS
10
3.9311023622047245
20
-3.6437007874015745
11
3.9429133858267718
21
-3.6437007874015745
0
LINE
8
BLACK
6
CONTINUOUS
10
3.9429133858267718
20
-3.6437007874015745
11
3.9451733464566927
21
-3.6441503149606298
0
LINE
8
BLACK
6
CONTINUOUS
10
3.9943859448818895
20
-3.6441503149606298
11
3.9963018110236219
21
-3.6454304724409448
0
LINE
8
BLACK
6
CONTINUOUS
10
3.9963018110236219
20
-3.6454304724409448
11
3.9975819685039369
21
-3.6473463385826772
0
LINE
8
BLACK
6
CONTINUOUS
10
3.9975819685039369
20
-3.6473463385826772
11
3.9980314960629921
21
-3.6496062992125982
0
LINE
8
BLACK
6
CONTINUOUS
10
3.9980314960629921
20
-3.6496062992125982
11
3.9980314960629921
21
-3.704724409448819
0
LINE
8
BLACK
6
CONTINUOUS
10
3.9980314960629921
20
-3.704724409448819
11
3.9975819685039369
21
-3.7069843700787399
0
LINE
8
BLACK
6
CONTINUOUS
10
3.9975819685039369
20
-3.7069843700787399
11
3.9963018110236219
21
-3.7089002362204724
0
LINE
8
BLACK
6
CONTINUOUS
10
3.9963018110236219
20
-3.7089002362204724
11
3.9943859448818895
21
-3.7101803937007873
0
LINE
8
BLACK
6
CONTINUOUS
10
3.9943859448818895
20
-3.7101803937007873
11
3.9921259842519685
21
-3.7106299212598426
0
LINE
8
BLACK
6
CONTINUOUS
10
3.9921259842519685
20
-3.7106299212598426
11
3.9803149606299213
21
-3.7106299212598426
0
LINE
8
BLACK
6
CONTINUOUS
10
3.9803149606299213
20
-3.7106299212598426
11
3.9780549999999999
21
-3.7101803937007873
0
LINE
8
BLACK
6
CONTINUOUS
10
3.9780549999999999
20
-3.7101803937007873
11
3.9761391338582674
21
-3.7089002362204724
0
LINE
8
BLACK
6
CONTINUOUS
10
3.9761391338582674
20
-3.7089002362204724
11
3.9748589763779525
21
-3.7069843700787399
0
LINE
8
BLACK
6
CONTINUOUS
10
3.9748589763779525
20
-3.7069843700787399
11
3.9744094488188977
21
-3.704724409448819
0
LINE
8
BLACK
6
CONTINUOUS
10
3.9744094488188977
20
-3.704724409448819
11
3.9744094488188977
21
-3.6496062992125982
0
LINE
8
BLACK
6
CONTINUOUS
10
3.9744094488188977
20
-3.6496062992125982
11
3.9748589763779525
21
-3.6473463385826772
0
LINE
8
BLACK
6
CONTINUOUS
10
3.9748589763779525
20
-3.6473463385826772
11
3.9761391338582674
21
-3.6454304724409448
0
LINE
8
BLACK
6
CONTINUOUS
10
3.9761391338582674
20
-3.6454304724409448
11
3.9780549999999999
21
-3.6441503149606298
0
LINE
8
BLACK
6
CONTINUOUS
10
3.9780549999999999
20
-3.6441503149606298
11
3.9803149606299213
21
-3.6437007874015745
0
LINE
8
BLACK
6
CONTINUOUS
10
3.9803149606299213
20
-3.6437007874015745
11
3.9921259842519685
21
-3.6437007874015745
0
LINE
8
BLACK
6
CONTINUOUS
10
3.9921259842519685
20
-3.6437007874015745
11
3.9943859448818895
21
-3.6441503149606298
0
LINE
8
BLACK
6
CONTINUOUS
10
4.0435985433070867
20
-3.6441503149606298
11
4.0455144094488187
21
-3.6454304724409448
0
LINE
8
BLACK
6
CONTINUOUS
10
4.0455144094488187
20
-3.6454304724409448
11
4.0467945669291341
21
-3.6473463385826772
0
LINE
8
BLACK
6
CONTINUOUS
10
4.0467945669291341
20
-3.6473463385826772
11
4.0472440944881889
21
-3.6496062992125982
0
LINE
8
BLACK
6
CONTINUOUS
10
4.0472440944881889
20
-3.6496062992125982
11
4.0472440944881889
21
-3.704724409448819
0
LINE
8
BLACK
6
CONTINUOUS
10
4.0472440944881889
20
-3.704724409448819
11
4.0467945669291341
21
-3.7069843700787399
0
LINE
8
BLACK
6
CONTINUOUS
10
4.0467945669291341
20
-3.7069843700787399
11
4.0455144094488187
21
-3.7089002362204724
0
LINE
8
BLACK
6
CONTINUOUS
10
4.0455144094488187
20
-3.7089002362204724
11
4.0435985433070867
21
-3.7101803937007873
0
LINE
8
BLACK
6
CONTINUOUS
10
4.0435985433070867
20
-3.7101803937007873
11
4.0413385826771648
21
-3.7106299212598426
0
LINE
8
BLACK
6
CONTINUOUS
10
4.0413385826771648
20
-3.7106299212598426
11
4.0295275590551176
21
-3.7106299212598426
0
LINE
8
BLACK
6
CONTINUOUS
10
4.0295275590551176
20
-3.7106299212598426
11
4.0272675984251967
21
-3.7101803937007873
0
LINE
8
BLACK
6
CONTINUOUS
10
4.0272675984251967
20
-3.7101803937007873
11
4.0253517322834647
21
-3.7089002362204724
0
LINE
8
BLACK
6
CONTINUOUS
10
4.0253517322834647
20
-3.7089002362204724
11
4.0240715748031493
21
-3.7069843700787399
0
LINE
8
BLACK
6
CONTINUOUS
10
4.0240715748031493
20
-3.7069843700787399
11
4.0236220472440944
21
-3.704724409448819
0
LINE
8
BLACK
6
CONTINUOUS
10
4.0236220472440944
20
-3.704724409448819
11
4.0236220472440944
21
-3.6496062992125982
0
LINE
8
BLACK
6
CONTINUOUS
10
4.0236220472440944
20
-3.6496062992125982
11
4.0240715748031493
21
-3.6473463385826772
0
LINE
8
BLACK
6
CONTINUOUS
10
4.0240715748031493
20
-3.6473463385826772
11
4.0253517322834647
21
-3.6454304724409448
0
LINE
8
BLACK
6
CONTINUOUS
10
4.0253517322834647
20
-3.6454304724409448
11
4.0272675984251967
21
-3.6441503149606298
0
LINE
8
BLACK
6
CONTINUOUS
10
4.0272675984251967
20
-3.6441503149606298
11
4.0295275590551176
21
-3.6437007874015745
0
LINE
8
BLACK
6
CONTINUOUS
10
4.0295275590551176
20
-3.6437007874015745
11
4.0413385826771648
21
-3.6437007874015745
0
LINE
8
BLACK
6
CONTINUOUS
10
4.0413385826771648
20
-3.6437007874015745
11
4.0435985433070867
21
-3.6441503149606298
  0
ENDSEC
  0
EOF
