  0
SECTION
  2
HEADER
  9
$ANGBASE
  50
0.0
  9
$ANGDIR
  70
1
  9
$MEASUREMENT
  70
0
  0
ENDSEC
  0
SECTION
  2
TABLES
  0
TABLE
  2
LTYPE
  70
4
  0
LTYPE
  5
40F
  2
CONTINUOUS
  70
0
  3
Solid line
  72
65
  73
0
  40
0.0
  0
LTYPE
  5
410
  2
DASHDOT
 70
0
  3
Dash Dot ____ _ ____ _
 72
65
 73
4
 40
2.0
 49
1.25
 49
-0.25
 49
0.25
 49
-0.25
  0
LTYPE
  5
411
  2
DASHED
 70
0
  3
Dashed __ __ __ __ __
 72
65
 73
2
 40
0.75
 49
0.5
 49
-0.25
  0
LTYPE
  5
43B
  2
DOTTED
 70
0
  3
Dotted .  .  .  .
 72
65
 73
2
 40
0.2
 49
0.0
 49
-0.2
  0
ENDTAB
  0
TABLE
  2
STYLE
  70
4
  0
STYLE
  2
KICAD
  70
0
  40
0
  41
1
  42
1
  50
0
  71
0
  3
isocp.shx
  0
STYLE
  2
KICADB
  70
0
  40
0
  41
1
  42
1
  50
0
  71
0
  3
isocp.shx
  0
STYLE
  2
KICADI
  70
0
  40
0
  41
1
  42
1
  50
15
  71
0
  3
isocp.shx
  0
STYLE
  2
KICADBI
  70
0
  40
0
  41
1
  42
1
  50
15
  71
0
  3
isocp.shx
  0
ENDTAB
  0
TABLE
  2
LAYER
  70
1
  0
LAYER
  2
BLACK
  70
0
  62
7
  6
CONTINUOUS
  0
ENDTAB
  0
ENDSEC
  0
SECTION
  2
ENTITIES
0
LINE
8
BLACK
6
CONTINUOUS
10
3.7696850393700787
20
-4.372047244094488
11
3.7027559055118111
21
-4.372047244094488
0
LINE
8
BLACK
6
CONTINUOUS
10
3.7027559055118111
20
-4.372047244094488
11
3.7027559055118111
21
-4.3051181102362204
0
LINE
8
BLACK
6
CONTINUOUS
10
3.7027559055118111
20
-4.3051181102362204
11
3.7696850393700787
21
-4.3051181102362204
0
LINE
8
BLACK
6
CONTINUOUS
10
3.7696850393700787
20
-4.3051181102362204
11
3.7696850393700787
21
-4.372047244094488
0
LINE
8
BLACK
6
CONTINUOUS
10
3.8459347244094486
20
-4.3065590944881889
11
3.8519955511811022
21
-4.3090695669291339
0
LINE
8
BLACK
6
CONTINUOUS
10
3.8519955511811022
20
-4.3090695669291339
11
3.8574501574803151
21
-4.3127142125984248
0
LINE
8
BLACK
6
CONTINUOUS
10
3.8574501574803151
20
-4.3127142125984248
11
3.8620889370078739
21
-4.3173529921259846
0
LINE
8
BLACK
6
CONTINUOUS
10
3.8620889370078739
20
-4.3173529921259846
11
3.8657335826771653
21
-4.3228075984251966
0
LINE
8
BLACK
6
CONTINUOUS
10
3.8657335826771653
20
-4.3228075984251966
11
3.8682440551181103
21
-4.3288684251968501
0
LINE
8
BLACK
6
CONTINUOUS
10
3.8682440551181103
20
-4.3288684251968501
11
3.8695238976377953
21
-4.3353025590551182
0
LINE
8
BLACK
6
CONTINUOUS
10
3.8695238976377953
20
-4.3353025590551182
11
3.8695238976377953
21
-4.3418627952755902
0
LINE
8
BLACK
6
CONTINUOUS
10
3.8695238976377953
20
-4.3418627952755902
11
3.8682440551181103
21
-4.3482969291338582
0
LINE
8
BLACK
6
CONTINUOUS
10
3.8682440551181103
20
-4.3482969291338582
11
3.8657335826771653
21
-4.3543577559055118
0
LINE
8
BLACK
6
CONTINUOUS
10
3.8657335826771653
20
-4.3543577559055118
11
3.8620889370078739
21
-4.3598123622047247
0
LINE
8
BLACK
6
CONTINUOUS
10
3.8620889370078739
20
-4.3598123622047247
11
3.8574501574803151
21
-4.3644511417322835
0
LINE
8
BLACK
6
CONTINUOUS
10
3.8574501574803151
20
-4.3644511417322835
11
3.8519955511811022
21
-4.3680957874015744
0
LINE
8
BLACK
6
CONTINUOUS
10
3.8519955511811022
20
-4.3680957874015744
11
3.8459347244094486
21
-4.3706062598425195
0
LINE
8
BLACK
6
CONTINUOUS
10
3.8459347244094486
20
-4.3706062598425195
11
3.839500590551181
21
-4.3718861023622049
0
LINE
8
BLACK
6
CONTINUOUS
10
3.839500590551181
20
-4.3718861023622049
11
3.8329403543307086
21
-4.3718861023622049
0
LINE
8
BLACK
6
CONTINUOUS
10
3.8329403543307086
20
-4.3718861023622049
11
3.8265062204724409
21
-4.3706062598425195
0
LINE
8
BLACK
6
CONTINUOUS
10
3.8265062204724409
20
-4.3706062598425195
11
3.8204453937007874
21
-4.3680957874015744
0
LINE
8
BLACK
6
CONTINUOUS
10
3.8204453937007874
20
-4.3680957874015744
11
3.8149907874015749
21
-4.3644511417322835
0
LINE
8
BLACK
6
CONTINUOUS
10
3.8149907874015749
20
-4.3644511417322835
11
3.8103520078740156
21
-4.3598123622047247
0
LINE
8
BLACK
6
CONTINUOUS
10
3.8103520078740156
20
-4.3598123622047247
11
3.8067073622047243
21
-4.3543577559055118
0
LINE
8
BLACK
6
CONTINUOUS
10
3.8067073622047243
20
-4.3543577559055118
11
3.8041968897637792
21
-4.3482969291338582
0
LINE
8
BLACK
6
CONTINUOUS
10
3.8041968897637792
20
-4.3482969291338582
11
3.8029170472440943
21
-4.3418627952755902
0
LINE
8
BLACK
6
CONTINUOUS
10
3.8029170472440943
20
-4.3418627952755902
11
3.8029170472440943
21
-4.3353025590551182
0
LINE
8
BLACK
6
CONTINUOUS
10
3.8029170472440943
20
-4.3353025590551182
11
3.8041968897637792
21
-4.3288684251968501
0
LINE
8
BLACK
6
CONTINUOUS
10
3.8041968897637792
20
-4.3288684251968501
11
3.8067073622047243
21
-4.3228075984251966
0
LINE
8
BLACK
6
CONTINUOUS
10
3.8067073622047243
20
-4.3228075984251966
11
3.8103520078740156
21
-4.3173529921259846
0
LINE
8
BLACK
6
CONTINUOUS
10
3.8103520078740156
20
-4.3173529921259846
11
3.8149907874015749
21
-4.3127142125984248
0
LINE
8
BLACK
6
CONTINUOUS
10
3.8149907874015749
20
-4.3127142125984248
11
3.8204453937007874
21
-4.3090695669291339
0
LINE
8
BLACK
6
CONTINUOUS
10
3.8204453937007874
20
-4.3090695669291339
11
3.8265062204724409
21
-4.3065590944881889
0
LINE
8
BLACK
6
CONTINUOUS
10
3.8265062204724409
20
-4.3065590944881889
11
3.8329403543307086
21
-4.3052792519685035
0
LINE
8
BLACK
6
CONTINUOUS
10
3.8329403543307086
20
-4.3052792519685035
11
3.839500590551181
21
-4.3052792519685035
0
LINE
8
BLACK
6
CONTINUOUS
10
3.839500590551181
20
-4.3052792519685035
11
3.8459347244094486
21
-4.3065590944881889
0
LINE
8
BLACK
6
CONTINUOUS
10
3.9459347244094487
20
-4.3065590944881889
11
3.9519955511811022
21
-4.3090695669291339
0
LINE
8
BLACK
6
CONTINUOUS
10
3.9519955511811022
20
-4.3090695669291339
11
3.9574501574803147
21
-4.3127142125984248
0
LINE
8
BLACK
6
CONTINUOUS
10
3.9574501574803147
20
-4.3127142125984248
11
3.962088937007874
21
-4.3173529921259846
0
LINE
8
BLACK
6
CONTINUOUS
10
3.962088937007874
20
-4.3173529921259846
11
3.9657335826771654
21
-4.3228075984251966
0
LINE
8
BLACK
6
CONTINUOUS
10
3.9657335826771654
20
-4.3228075984251966
11
3.96824405511811
21
-4.3288684251968501
0
LINE
8
BLACK
6
CONTINUOUS
10
3.96824405511811
20
-4.3288684251968501
11
3.9695238976377953
21
-4.3353025590551182
0
LINE
8
BLACK
6
CONTINUOUS
10
3.9695238976377953
20
-4.3353025590551182
11
3.9695238976377953
21
-4.3418627952755902
0
LINE
8
BLACK
6
CONTINUOUS
10
3.9695238976377953
20
-4.3418627952755902
11
3.96824405511811
21
-4.3482969291338582
0
LINE
8
BLACK
6
CONTINUOUS
10
3.96824405511811
20
-4.3482969291338582
11
3.9657335826771654
21
-4.3543577559055118
0
LINE
8
BLACK
6
CONTINUOUS
10
3.9657335826771654
20
-4.3543577559055118
11
3.962088937007874
21
-4.3598123622047247
0
LINE
8
BLACK
6
CONTINUOUS
10
3.962088937007874
20
-4.3598123622047247
11
3.9574501574803147
21
-4.3644511417322835
0
LINE
8
BLACK
6
CONTINUOUS
10
3.9574501574803147
20
-4.3644511417322835
11
3.9519955511811022
21
-4.3680957874015744
0
LINE
8
BLACK
6
CONTINUOUS
10
3.9519955511811022
20
-4.3680957874015744
11
3.9459347244094487
21
-4.3706062598425195
0
LINE
8
BLACK
6
CONTINUOUS
10
3.9459347244094487
20
-4.3706062598425195
11
3.9395005905511811
21
-4.3718861023622049
0
LINE
8
BLACK
6
CONTINUOUS
10
3.9395005905511811
20
-4.3718861023622049
11
3.9329403543307087
21
-4.3718861023622049
0
LINE
8
BLACK
6
CONTINUOUS
10
3.9329403543307087
20
-4.3718861023622049
11
3.926506220472441
21
-4.3706062598425195
0
LINE
8
BLACK
6
CONTINUOUS
10
3.926506220472441
20
-4.3706062598425195
11
3.9204453937007875
21
-4.3680957874015744
0
LINE
8
BLACK
6
CONTINUOUS
10
3.9204453937007875
20
-4.3680957874015744
11
3.9149907874015746
21
-4.3644511417322835
0
LINE
8
BLACK
6
CONTINUOUS
10
3.9149907874015746
20
-4.3644511417322835
11
3.9103520078740157
21
-4.3598123622047247
0
LINE
8
BLACK
6
CONTINUOUS
10
3.9103520078740157
20
-4.3598123622047247
11
3.9067073622047244
21
-4.3543577559055118
0
LINE
8
BLACK
6
CONTINUOUS
10
3.9067073622047244
20
-4.3543577559055118
11
3.9041968897637793
21
-4.3482969291338582
0
LINE
8
BLACK
6
CONTINUOUS
10
3.9041968897637793
20
-4.3482969291338582
11
3.9029170472440944
21
-4.3418627952755902
0
LINE
8
BLACK
6
CONTINUOUS
10
3.9029170472440944
20
-4.3418627952755902
11
3.9029170472440944
21
-4.3353025590551182
0
LINE
8
BLACK
6
CONTINUOUS
10
3.9029170472440944
20
-4.3353025590551182
11
3.9041968897637793
21
-4.3288684251968501
0
LINE
8
BLACK
6
CONTINUOUS
10
3.9041968897637793
20
-4.3288684251968501
11
3.9067073622047244
21
-4.3228075984251966
0
LINE
8
BLACK
6
CONTINUOUS
10
3.9067073622047244
20
-4.3228075984251966
11
3.9103520078740157
21
-4.3173529921259846
0
LINE
8
BLACK
6
CONTINUOUS
10
3.9103520078740157
20
-4.3173529921259846
11
3.9149907874015746
21
-4.3127142125984248
0
LINE
8
BLACK
6
CONTINUOUS
10
3.9149907874015746
20
-4.3127142125984248
11
3.9204453937007875
21
-4.3090695669291339
0
LINE
8
BLACK
6
CONTINUOUS
10
3.9204453937007875
20
-4.3090695669291339
11
3.926506220472441
21
-4.3065590944881889
0
LINE
8
BLACK
6
CONTINUOUS
10
3.926506220472441
20
-4.3065590944881889
11
3.9329403543307087
21
-4.3052792519685035
0
LINE
8
BLACK
6
CONTINUOUS
10
3.9329403543307087
20
-4.3052792519685035
11
3.9395005905511811
21
-4.3052792519685035
0
LINE
8
BLACK
6
CONTINUOUS
10
3.9395005905511811
20
-4.3052792519685035
11
3.9459347244094487
21
-4.3065590944881889
0
LINE
8
BLACK
6
CONTINUOUS
10
4.0459347244094488
20
-4.3065590944881889
11
4.0519955511811023
21
-4.3090695669291339
0
LINE
8
BLACK
6
CONTINUOUS
10
4.0519955511811023
20
-4.3090695669291339
11
4.0574501574803152
21
-4.3127142125984248
0
LINE
8
BLACK
6
CONTINUOUS
10
4.0574501574803152
20
-4.3127142125984248
11
4.0620889370078741
21
-4.3173529921259846
0
LINE
8
BLACK
6
CONTINUOUS
10
4.0620889370078741
20
-4.3173529921259846
11
4.065733582677165
21
-4.3228075984251966
0
LINE
8
BLACK
6
CONTINUOUS
10
4.065733582677165
20
-4.3228075984251966
11
4.06824405511811
21
-4.3288684251968501
0
LINE
8
BLACK
6
CONTINUOUS
10
4.06824405511811
20
-4.3288684251968501
11
4.0695238976377954
21
-4.3353025590551182
0
LINE
8
BLACK
6
CONTINUOUS
10
4.0695238976377954
20
-4.3353025590551182
11
4.0695238976377954
21
-4.3418627952755902
0
LINE
8
BLACK
6
CONTINUOUS
10
4.0695238976377954
20
-4.3418627952755902
11
4.06824405511811
21
-4.3482969291338582
0
LINE
8
BLACK
6
CONTINUOUS
10
4.06824405511811
20
-4.3482969291338582
11
4.065733582677165
21
-4.3543577559055118
0
LINE
8
BLACK
6
CONTINUOUS
10
4.065733582677165
20
-4.3543577559055118
11
4.0620889370078741
21
-4.3598123622047247
0
LINE
8
BLACK
6
CONTINUOUS
10
4.0620889370078741
20
-4.3598123622047247
11
4.0574501574803152
21
-4.3644511417322835
0
LINE
8
BLACK
6
CONTINUOUS
10
4.0574501574803152
20
-4.3644511417322835
11
4.0519955511811023
21
-4.3680957874015744
0
LINE
8
BLACK
6
CONTINUOUS
10
4.0519955511811023
20
-4.3680957874015744
11
4.0459347244094488
21
-4.3706062598425195
0
LINE
8
BLACK
6
CONTINUOUS
10
4.0459347244094488
20
-4.3706062598425195
11
4.0395005905511807
21
-4.3718861023622049
0
LINE
8
BLACK
6
CONTINUOUS
10
4.0395005905511807
20
-4.3718861023622049
11
4.0329403543307087
21
-4.3718861023622049
0
LINE
8
BLACK
6
CONTINUOUS
10
4.0329403543307087
20
-4.3718861023622049
11
4.0265062204724407
21
-4.3706062598425195
0
LINE
8
BLACK
6
CONTINUOUS
10
4.0265062204724407
20
-4.3706062598425195
11
4.0204453937007871
21
-4.3680957874015744
0
LINE
8
BLACK
6
CONTINUOUS
10
4.0204453937007871
20
-4.3680957874015744
11
4.0149907874015751
21
-4.3644511417322835
0
LINE
8
BLACK
6
CONTINUOUS
10
4.0149907874015751
20
-4.3644511417322835
11
4.0103520078740154
21
-4.3598123622047247
0
LINE
8
BLACK
6
CONTINUOUS
10
4.0103520078740154
20
-4.3598123622047247
11
4.0067073622047245
21
-4.3543577559055118
0
LINE
8
BLACK
6
CONTINUOUS
10
4.0067073622047245
20
-4.3543577559055118
11
4.0041968897637794
21
-4.3482969291338582
0
LINE
8
BLACK
6
CONTINUOUS
10
4.0041968897637794
20
-4.3482969291338582
11
4.002917047244094
21
-4.3418627952755902
0
LINE
8
BLACK
6
CONTINUOUS
10
4.002917047244094
20
-4.3418627952755902
11
4.002917047244094
21
-4.3353025590551182
0
LINE
8
BLACK
6
CONTINUOUS
10
4.002917047244094
20
-4.3353025590551182
11
4.0041968897637794
21
-4.3288684251968501
0
LINE
8
BLACK
6
CONTINUOUS
10
4.0041968897637794
20
-4.3288684251968501
11
4.0067073622047245
21
-4.3228075984251966
0
LINE
8
BLACK
6
CONTINUOUS
10
4.0067073622047245
20
-4.3228075984251966
11
4.0103520078740154
21
-4.3173529921259846
0
LINE
8
BLACK
6
CONTINUOUS
10
4.0103520078740154
20
-4.3173529921259846
11
4.0149907874015751
21
-4.3127142125984248
0
LINE
8
BLACK
6
CONTINUOUS
10
4.0149907874015751
20
-4.3127142125984248
11
4.0204453937007871
21
-4.3090695669291339
0
LINE
8
BLACK
6
CONTINUOUS
10
4.0204453937007871
20
-4.3090695669291339
11
4.0265062204724407
21
-4.3065590944881889
0
LINE
8
BLACK
6
CONTINUOUS
10
4.0265062204724407
20
-4.3065590944881889
11
4.0329403543307087
21
-4.3052792519685035
0
LINE
8
BLACK
6
CONTINUOUS
10
4.0329403543307087
20
-4.3052792519685035
11
4.0395005905511807
21
-4.3052792519685035
0
LINE
8
BLACK
6
CONTINUOUS
10
4.0395005905511807
20
-4.3052792519685035
11
4.0459347244094488
21
-4.3065590944881889
0
LINE
8
BLACK
6
CONTINUOUS
10
4.1459347244094484
20
-4.3065590944881889
11
4.151995551181102
21
-4.3090695669291339
0
LINE
8
BLACK
6
CONTINUOUS
10
4.151995551181102
20
-4.3090695669291339
11
4.1574501574803149
21
-4.3127142125984248
0
LINE
8
BLACK
6
CONTINUOUS
10
4.1574501574803149
20
-4.3127142125984248
11
4.1620889370078737
21
-4.3173529921259846
0
LINE
8
BLACK
6
CONTINUOUS
10
4.1620889370078737
20
-4.3173529921259846
11
4.1657335826771655
21
-4.3228075984251966
0
LINE
8
BLACK
6
CONTINUOUS
10
4.1657335826771655
20
-4.3228075984251966
11
4.1682440551181106
21
-4.3288684251968501
0
LINE
8
BLACK
6
CONTINUOUS
10
4.1682440551181106
20
-4.3288684251968501
11
4.1695238976377951
21
-4.3353025590551182
0
LINE
8
BLACK
6
CONTINUOUS
10
4.1695238976377951
20
-4.3353025590551182
11
4.1695238976377951
21
-4.3418627952755902
0
LINE
8
BLACK
6
CONTINUOUS
10
4.1695238976377951
20
-4.3418627952755902
11
4.1682440551181106
21
-4.3482969291338582
0
LINE
8
BLACK
6
CONTINUOUS
10
4.1682440551181106
20
-4.3482969291338582
11
4.1657335826771655
21
-4.3543577559055118
0
LINE
8
BLACK
6
CONTINUOUS
10
4.1657335826771655
20
-4.3543577559055118
11
4.1620889370078737
21
-4.3598123622047247
0
LINE
8
BLACK
6
CONTINUOUS
10
4.1620889370078737
20
-4.3598123622047247
11
4.1574501574803149
21
-4.3644511417322835
0
LINE
8
BLACK
6
CONTINUOUS
10
4.1574501574803149
20
-4.3644511417322835
11
4.151995551181102
21
-4.3680957874015744
0
LINE
8
BLACK
6
CONTINUOUS
10
4.151995551181102
20
-4.3680957874015744
11
4.1459347244094484
21
-4.3706062598425195
0
LINE
8
BLACK
6
CONTINUOUS
10
4.1459347244094484
20
-4.3706062598425195
11
4.1395005905511812
21
-4.3718861023622049
0
LINE
8
BLACK
6
CONTINUOUS
10
4.1395005905511812
20
-4.3718861023622049
11
4.1329403543307084
21
-4.3718861023622049
0
LINE
8
BLACK
6
CONTINUOUS
10
4.1329403543307084
20
-4.3718861023622049
11
4.1265062204724412
21
-4.3706062598425195
0
LINE
8
BLACK
6
CONTINUOUS
10
4.1265062204724412
20
-4.3706062598425195
11
4.1204453937007877
21
-4.3680957874015744
0
LINE
8
BLACK
6
CONTINUOUS
10
4.1204453937007877
20
-4.3680957874015744
11
4.1149907874015748
21
-4.3644511417322835
0
LINE
8
BLACK
6
CONTINUOUS
10
4.1149907874015748
20
-4.3644511417322835
11
4.1103520078740159
21
-4.3598123622047247
0
LINE
8
BLACK
6
CONTINUOUS
10
4.1103520078740159
20
-4.3598123622047247
11
4.1067073622047241
21
-4.3543577559055118
0
LINE
8
BLACK
6
CONTINUOUS
10
4.1067073622047241
20
-4.3543577559055118
11
4.1041968897637791
21
-4.3482969291338582
0
LINE
8
BLACK
6
CONTINUOUS
10
4.1041968897637791
20
-4.3482969291338582
11
4.1029170472440946
21
-4.3418627952755902
0
LINE
8
BLACK
6
CONTINUOUS
10
4.1029170472440946
20
-4.3418627952755902
11
4.1029170472440946
21
-4.3353025590551182
0
LINE
8
BLACK
6
CONTINUOUS
10
4.1029170472440946
20
-4.3353025590551182
11
4.1041968897637791
21
-4.3288684251968501
0
LINE
8
BLACK
6
CONTINUOUS
10
4.1041968897637791
20
-4.3288684251968501
11
4.1067073622047241
21
-4.3228075984251966
0
LINE
8
BLACK
6
CONTINUOUS
10
4.1067073622047241
20
-4.3228075984251966
11
4.1103520078740159
21
-4.3173529921259846
0
LINE
8
BLACK
6
CONTINUOUS
10
4.1103520078740159
20
-4.3173529921259846
11
4.1149907874015748
21
-4.3127142125984248
0
LINE
8
BLACK
6
CONTINUOUS
10
4.1149907874015748
20
-4.3127142125984248
11
4.1204453937007877
21
-4.3090695669291339
0
LINE
8
BLACK
6
CONTINUOUS
10
4.1204453937007877
20
-4.3090695669291339
11
4.1265062204724412
21
-4.3065590944881889
0
LINE
8
BLACK
6
CONTINUOUS
10
4.1265062204724412
20
-4.3065590944881889
11
4.1329403543307084
21
-4.3052792519685035
0
LINE
8
BLACK
6
CONTINUOUS
10
4.1329403543307084
20
-4.3052792519685035
11
4.1395005905511812
21
-4.3052792519685035
0
LINE
8
BLACK
6
CONTINUOUS
10
4.1395005905511812
20
-4.3052792519685035
11
4.1459347244094484
21
-4.3065590944881889
0
LINE
8
BLACK
6
CONTINUOUS
10
3.8664331889763779
20
-4.0006463779527559
11
3.8683490551181103
21
-4.0019265354330704
0
LINE
8
BLACK
6
CONTINUOUS
10
3.8683490551181103
20
-4.0019265354330704
11
3.8696292125984253
21
-4.0038424015748033
0
LINE
8
BLACK
6
CONTINUOUS
10
3.8696292125984253
20
-4.0038424015748033
11
3.8700787401574801
21
-4.0061023622047243
0
LINE
8
BLACK
6
CONTINUOUS
10
3.8700787401574801
20
-4.0061023622047243
11
3.8700787401574801
21
-4.0179133858267715
0
LINE
8
BLACK
6
CONTINUOUS
10
3.8700787401574801
20
-4.0179133858267715
11
3.8696292125984253
21
-4.0201733464566924
0
LINE
8
BLACK
6
CONTINUOUS
10
3.8696292125984253
20
-4.0201733464566924
11
3.8683490551181103
21
-4.0220892125984253
0
LINE
8
BLACK
6
CONTINUOUS
10
3.8683490551181103
20
-4.0220892125984253
11
3.8664331889763779
21
-4.0233693700787398
0
LINE
8
BLACK
6
CONTINUOUS
10
3.8664331889763779
20
-4.0233693700787398
11
3.8641732283464565
21
-4.0238188976377955
0
LINE
8
BLACK
6
CONTINUOUS
10
3.8641732283464565
20
-4.0238188976377955
11
3.8070866141732282
21
-4.0238188976377955
0
LINE
8
BLACK
6
CONTINUOUS
10
3.8070866141732282
20
-4.0238188976377955
11
3.8048266535433068
21
-4.0233693700787398
0
LINE
8
BLACK
6
CONTINUOUS
10
3.8048266535433068
20
-4.0233693700787398
11
3.8029107874015748
21
-4.0220892125984253
0
LINE
8
BLACK
6
CONTINUOUS
10
3.8029107874015748
20
-4.0220892125984253
11
3.8016306299212599
21
-4.0201733464566924
0
LINE
8
BLACK
6
CONTINUOUS
10
3.8016306299212599
20
-4.0201733464566924
11
3.8011811023622046
21
-4.0179133858267715
0
LINE
8
BLACK
6
CONTINUOUS
10
3.8011811023622046
20
-4.0179133858267715
11
3.8011811023622046
21
-4.0061023622047243
0
LINE
8
BLACK
6
CONTINUOUS
10
3.8011811023622046
20
-4.0061023622047243
11
3.8016306299212599
21
-4.0038424015748033
0
LINE
8
BLACK
6
CONTINUOUS
10
3.8016306299212599
20
-4.0038424015748033
11
3.8029107874015748
21
-4.0019265354330704
0
LINE
8
BLACK
6
CONTINUOUS
10
3.8029107874015748
20
-4.0019265354330704
11
3.8048266535433068
21
-4.0006463779527559
0
LINE
8
BLACK
6
CONTINUOUS
10
3.8048266535433068
20
-4.0006463779527559
11
3.8070866141732282
21
-4.0001968503937011
0
LINE
8
BLACK
6
CONTINUOUS
10
3.8070866141732282
20
-4.0001968503937011
11
3.8641732283464565
21
-4.0001968503937011
0
LINE
8
BLACK
6
CONTINUOUS
10
3.8641732283464565
20
-4.0001968503937011
11
3.8664331889763779
21
-4.0006463779527559
0
LINE
8
BLACK
6
CONTINUOUS
10
4.0691890944881886
20
-4.0006463779527559
11
4.0711049606299214
21
-4.0019265354330704
0
LINE
8
BLACK
6
CONTINUOUS
10
4.0711049606299214
20
-4.0019265354330704
11
4.072385118110236
21
-4.0038424015748033
0
LINE
8
BLACK
6
CONTINUOUS
10
4.072385118110236
20
-4.0038424015748033
11
4.0728346456692917
21
-4.0061023622047243
0
LINE
8
BLACK
6
CONTINUOUS
10
4.0728346456692917
20
-4.0061023622047243
11
4.0728346456692917
21
-4.0179133858267715
0
LINE
8
BLACK
6
CONTINUOUS
10
4.0728346456692917
20
-4.0179133858267715
11
4.072385118110236
21
-4.0201733464566924
0
LINE
8
BLACK
6
CONTINUOUS
10
4.072385118110236
20
-4.0201733464566924
11
4.0711049606299214
21
-4.0220892125984253
0
LINE
8
BLACK
6
CONTINUOUS
10
4.0711049606299214
20
-4.0220892125984253
11
4.0691890944881886
21
-4.0233693700787398
0
LINE
8
BLACK
6
CONTINUOUS
10
4.0691890944881886
20
-4.0233693700787398
11
4.0669291338582676
21
-4.0238188976377955
0
LINE
8
BLACK
6
CONTINUOUS
10
4.0669291338582676
20
-4.0238188976377955
11
4.0098425196850389
21
-4.0238188976377955
0
LINE
8
BLACK
6
CONTINUOUS
10
4.0098425196850389
20
-4.0238188976377955
11
4.007582559055118
21
-4.0233693700787398
0
LINE
8
BLACK
6
CONTINUOUS
10
4.007582559055118
20
-4.0233693700787398
11
4.005666692913386
21
-4.0220892125984253
0
LINE
8
BLACK
6
CONTINUOUS
10
4.005666692913386
20
-4.0220892125984253
11
4.0043865354330705
21
-4.0201733464566924
0
LINE
8
BLACK
6
CONTINUOUS
10
4.0043865354330705
20
-4.0201733464566924
11
4.0039370078740157
21
-4.0179133858267715
0
LINE
8
BLACK
6
CONTINUOUS
10
4.0039370078740157
20
-4.0179133858267715
11
4.0039370078740157
21
-4.0061023622047243
0
LINE
8
BLACK
6
CONTINUOUS
10
4.0039370078740157
20
-4.0061023622047243
11
4.0043865354330705
21
-4.0038424015748033
0
LINE
8
BLACK
6
CONTINUOUS
10
4.0043865354330705
20
-4.0038424015748033
11
4.005666692913386
21
-4.0019265354330704
0
LINE
8
BLACK
6
CONTINUOUS
10
4.005666692913386
20
-4.0019265354330704
11
4.007582559055118
21
-4.0006463779527559
0
LINE
8
BLACK
6
CONTINUOUS
10
4.007582559055118
20
-4.0006463779527559
11
4.0098425196850389
21
-4.0001968503937011
0
LINE
8
BLACK
6
CONTINUOUS
10
4.0098425196850389
20
-4.0001968503937011
11
4.0669291338582676
21
-4.0001968503937011
0
LINE
8
BLACK
6
CONTINUOUS
10
4.0669291338582676
20
-4.0001968503937011
11
4.0691890944881886
21
-4.0006463779527559
0
LINE
8
BLACK
6
CONTINUOUS
10
3.7122758661417321
20
-3.8891550393700784
11
3.7196202362204724
21
-3.8915413779527559
0
LINE
8
BLACK
6
CONTINUOUS
10
3.7196202362204724
20
-3.8915413779527559
11
3.726500905511811
21
-3.8950472440944881
0
LINE
8
BLACK
6
CONTINUOUS
10
3.726500905511811
20
-3.8950472440944881
11
3.7327484251968501
21
-3.8995863385826772
0
LINE
8
BLACK
6
CONTINUOUS
10
3.7327484251968501
20
-3.8995863385826772
11
3.7382089370078737
21
-3.9050468503937008
0
LINE
8
BLACK
6
CONTINUOUS
10
3.7382089370078737
20
-3.9050468503937008
11
3.7427480314960628
21
-3.9112943700787399
0
LINE
8
BLACK
6
CONTINUOUS
10
3.7427480314960628
20
-3.9112943700787399
11
3.746253897637795
21
-3.9181750393700785
0
LINE
8
BLACK
6
CONTINUOUS
10
3.746253897637795
20
-3.9181750393700785
11
3.7486402362204725
21
-3.9255194094488188
0
LINE
8
BLACK
6
CONTINUOUS
10
3.7486402362204725
20
-3.9255194094488188
11
3.749848307086614
21
-3.9331466929133856
0
LINE
8
BLACK
6
CONTINUOUS
10
3.749848307086614
20
-3.9331466929133856
11
3.749848307086614
21
-3.9408690551181103
0
LINE
8
BLACK
6
CONTINUOUS
10
3.749848307086614
20
-3.9408690551181103
11
3.7486402362204725
21
-3.948496338582677
0
LINE
8
BLACK
6
CONTINUOUS
10
3.7486402362204725
20
-3.948496338582677
11
3.746253897637795
21
-3.9558407086614173
0
LINE
8
BLACK
6
CONTINUOUS
10
3.746253897637795
20
-3.9558407086614173
11
3.7427480314960628
21
-3.9627213779527559
0
LINE
8
BLACK
6
CONTINUOUS
10
3.7427480314960628
20
-3.9627213779527559
11
3.7382089370078737
21
-3.968968897637795
0
LINE
8
BLACK
6
CONTINUOUS
10
3.7382089370078737
20
-3.968968897637795
11
3.7327484251968501
21
-3.9744294094488186
0
LINE
8
BLACK
6
CONTINUOUS
10
3.7327484251968501
20
-3.9744294094488186
11
3.726500905511811
21
-3.9789685039370077
0
LINE
8
BLACK
6
CONTINUOUS
10
3.726500905511811
20
-3.9789685039370077
11
3.7196202362204724
21
-3.9824743700787399
0
LINE
8
BLACK
6
CONTINUOUS
10
3.7196202362204724
20
-3.9824743700787399
11
3.7122758661417321
21
-3.9848607086614174
0
LINE
8
BLACK
6
CONTINUOUS
10
3.7122758661417321
20
-3.9848607086614174
11
3.7046485826771653
21
-3.9860687795275589
0
LINE
8
BLACK
6
CONTINUOUS
10
3.7046485826771653
20
-3.9860687795275589
11
3.6969262204724407
21
-3.9860687795275589
0
LINE
8
BLACK
6
CONTINUOUS
10
3.6969262204724407
20
-3.9860687795275589
11
3.6892989370078739
21
-3.9848607086614174
0
LINE
8
BLACK
6
CONTINUOUS
10
3.6892989370078739
20
-3.9848607086614174
11
3.6819545669291336
21
-3.9824743700787399
0
LINE
8
BLACK
6
CONTINUOUS
10
3.6819545669291336
20
-3.9824743700787399
11
3.675073897637795
21
-3.9789685039370077
0
LINE
8
BLACK
6
CONTINUOUS
10
3.675073897637795
20
-3.9789685039370077
11
3.6688263779527559
21
-3.9744294094488186
0
LINE
8
BLACK
6
CONTINUOUS
10
3.6688263779527559
20
-3.9744294094488186
11
3.6633658661417323
21
-3.968968897637795
0
LINE
8
BLACK
6
CONTINUOUS
10
3.6633658661417323
20
-3.968968897637795
11
3.6588267716535432
21
-3.9627213779527559
0
LINE
8
BLACK
6
CONTINUOUS
10
3.6588267716535432
20
-3.9627213779527559
11
3.655320905511811
21
-3.9558407086614173
0
LINE
8
BLACK
6
CONTINUOUS
10
3.655320905511811
20
-3.9558407086614173
11
3.652934566929134
21
-3.948496338582677
0
LINE
8
BLACK
6
CONTINUOUS
10
3.652934566929134
20
-3.948496338582677
11
3.651726496062992
21
-3.9408690551181103
0
LINE
8
BLACK
6
CONTINUOUS
10
3.651726496062992
20
-3.9408690551181103
11
3.651726496062992
21
-3.9331466929133856
0
LINE
8
BLACK
6
CONTINUOUS
10
3.651726496062992
20
-3.9331466929133856
11
3.652934566929134
21
-3.9255194094488188
0
LINE
8
BLACK
6
CONTINUOUS
10
3.652934566929134
20
-3.9255194094488188
11
3.655320905511811
21
-3.9181750393700785
0
LINE
8
BLACK
6
CONTINUOUS
10
3.655320905511811
20
-3.9181750393700785
11
3.6588267716535432
21
-3.9112943700787399
0
LINE
8
BLACK
6
CONTINUOUS
10
3.6588267716535432
20
-3.9112943700787399
11
3.6633658661417323
21
-3.9050468503937008
0
LINE
8
BLACK
6
CONTINUOUS
10
3.6633658661417323
20
-3.9050468503937008
11
3.6688263779527559
21
-3.8995863385826772
0
LINE
8
BLACK
6
CONTINUOUS
10
3.6688263779527559
20
-3.8995863385826772
11
3.675073897637795
21
-3.8950472440944881
0
LINE
8
BLACK
6
CONTINUOUS
10
3.675073897637795
20
-3.8950472440944881
11
3.6819545669291336
21
-3.8915413779527559
0
LINE
8
BLACK
6
CONTINUOUS
10
3.6819545669291336
20
-3.8915413779527559
11
3.6892989370078739
21
-3.8891550393700784
0
LINE
8
BLACK
6
CONTINUOUS
10
3.6892989370078739
20
-3.8891550393700784
11
3.6969262204724407
21
-3.887946968503937
0
LINE
8
BLACK
6
CONTINUOUS
10
3.6969262204724407
20
-3.887946968503937
11
3.7046485826771653
21
-3.887946968503937
0
LINE
8
BLACK
6
CONTINUOUS
10
3.7046485826771653
20
-3.887946968503937
11
3.7122758661417321
21
-3.8891550393700784
0
LINE
8
BLACK
6
CONTINUOUS
10
4.1847168110236224
20
-3.8891550393700784
11
4.1920611811023623
21
-3.8915413779527559
0
LINE
8
BLACK
6
CONTINUOUS
10
4.1920611811023623
20
-3.8915413779527559
11
4.1989418503937008
21
-3.8950472440944881
0
LINE
8
BLACK
6
CONTINUOUS
10
4.1989418503937008
20
-3.8950472440944881
11
4.2051893700787399
21
-3.8995863385826772
0
LINE
8
BLACK
6
CONTINUOUS
10
4.2051893700787399
20
-3.8995863385826772
11
4.210649881889764
21
-3.9050468503937008
0
LINE
8
BLACK
6
CONTINUOUS
10
4.210649881889764
20
-3.9050468503937008
11
4.2151889763779531
21
-3.9112943700787399
0
LINE
8
BLACK
6
CONTINUOUS
10
4.2151889763779531
20
-3.9112943700787399
11
4.2186948425196853
21
-3.9181750393700785
0
LINE
8
BLACK
6
CONTINUOUS
10
4.2186948425196853
20
-3.9181750393700785
11
4.2210811811023623
21
-3.9255194094488188
0
LINE
8
BLACK
6
CONTINUOUS
10
4.2210811811023623
20
-3.9255194094488188
11
4.2222892519685038
21
-3.9331466929133856
0
LINE
8
BLACK
6
CONTINUOUS
10
4.2222892519685038
20
-3.9331466929133856
11
4.2222892519685038
21
-3.9408690551181103
0
LINE
8
BLACK
6
CONTINUOUS
10
4.2222892519685038
20
-3.9408690551181103
11
4.2210811811023623
21
-3.948496338582677
0
LINE
8
BLACK
6
CONTINUOUS
10
4.2210811811023623
20
-3.948496338582677
11
4.2186948425196853
21
-3.9558407086614173
0
LINE
8
BLACK
6
CONTINUOUS
10
4.2186948425196853
20
-3.9558407086614173
11
4.2151889763779531
21
-3.9627213779527559
0
LINE
8
BLACK
6
CONTINUOUS
10
4.2151889763779531
20
-3.9627213779527559
11
4.210649881889764
21
-3.968968897637795
0
LINE
8
BLACK
6
CONTINUOUS
10
4.210649881889764
20
-3.968968897637795
11
4.2051893700787399
21
-3.9744294094488186
0
LINE
8
BLACK
6
CONTINUOUS
10
4.2051893700787399
20
-3.9744294094488186
11
4.1989418503937008
21
-3.9789685039370077
0
LINE
8
BLACK
6
CONTINUOUS
10
4.1989418503937008
20
-3.9789685039370077
11
4.1920611811023623
21
-3.9824743700787399
0
LINE
8
BLACK
6
CONTINUOUS
10
4.1920611811023623
20
-3.9824743700787399
11
4.1847168110236224
21
-3.9848607086614174
0
LINE
8
BLACK
6
CONTINUOUS
10
4.1847168110236224
20
-3.9848607086614174
11
4.1770895275590547
21
-3.9860687795275589
0
LINE
8
BLACK
6
CONTINUOUS
10
4.1770895275590547
20
-3.9860687795275589
11
4.1693671653543305
21
-3.9860687795275589
0
LINE
8
BLACK
6
CONTINUOUS
10
4.1693671653543305
20
-3.9860687795275589
11
4.1617398818897637
21
-3.9848607086614174
0
LINE
8
BLACK
6
CONTINUOUS
10
4.1617398818897637
20
-3.9848607086614174
11
4.1543955118110238
21
-3.9824743700787399
0
LINE
8
BLACK
6
CONTINUOUS
10
4.1543955118110238
20
-3.9824743700787399
11
4.1475148425196853
21
-3.9789685039370077
0
LINE
8
BLACK
6
CONTINUOUS
10
4.1475148425196853
20
-3.9789685039370077
11
4.1412673228346453
21
-3.9744294094488186
0
LINE
8
BLACK
6
CONTINUOUS
10
4.1412673228346453
20
-3.9744294094488186
11
4.1358068110236221
21
-3.968968897637795
0
LINE
8
BLACK
6
CONTINUOUS
10
4.1358068110236221
20
-3.968968897637795
11
4.131267716535433
21
-3.9627213779527559
0
LINE
8
BLACK
6
CONTINUOUS
10
4.131267716535433
20
-3.9627213779527559
11
4.1277618503937008
21
-3.9558407086614173
0
LINE
8
BLACK
6
CONTINUOUS
10
4.1277618503937008
20
-3.9558407086614173
11
4.1253755118110238
21
-3.948496338582677
0
LINE
8
BLACK
6
CONTINUOUS
10
4.1253755118110238
20
-3.948496338582677
11
4.1241674409448814
21
-3.9408690551181103
0
LINE
8
BLACK
6
CONTINUOUS
10
4.1241674409448814
20
-3.9408690551181103
11
4.1241674409448814
21
-3.9331466929133856
0
LINE
8
BLACK
6
CONTINUOUS
10
4.1241674409448814
20
-3.9331466929133856
11
4.1253755118110238
21
-3.9255194094488188
0
LINE
8
BLACK
6
CONTINUOUS
10
4.1253755118110238
20
-3.9255194094488188
11
4.1277618503937008
21
-3.9181750393700785
0
LINE
8
BLACK
6
CONTINUOUS
10
4.1277618503937008
20
-3.9181750393700785
11
4.131267716535433
21
-3.9112943700787399
0
LINE
8
BLACK
6
CONTINUOUS
10
4.131267716535433
20
-3.9112943700787399
11
4.1358068110236221
21
-3.9050468503937008
0
LINE
8
BLACK
6
CONTINUOUS
10
4.1358068110236221
20
-3.9050468503937008
11
4.1412673228346453
21
-3.8995863385826772
0
LINE
8
BLACK
6
CONTINUOUS
10
4.1412673228346453
20
-3.8995863385826772
11
4.1475148425196853
21
-3.8950472440944881
0
LINE
8
BLACK
6
CONTINUOUS
10
4.1475148425196853
20
-3.8950472440944881
11
4.1543955118110238
21
-3.8915413779527559
0
LINE
8
BLACK
6
CONTINUOUS
10
4.1543955118110238
20
-3.8915413779527559
11
4.1617398818897637
21
-3.8891550393700784
0
LINE
8
BLACK
6
CONTINUOUS
10
4.1617398818897637
20
-3.8891550393700784
11
4.1693671653543305
21
-3.887946968503937
0
LINE
8
BLACK
6
CONTINUOUS
10
4.1693671653543305
20
-3.887946968503937
11
4.1770895275590547
21
-3.887946968503937
0
LINE
8
BLACK
6
CONTINUOUS
10
4.1770895275590547
20
-3.887946968503937
11
4.1847168110236224
21
-3.8891550393700784
0
LINE
8
BLACK
6
CONTINUOUS
10
3.8664331889763779
20
-3.9506463779527556
11
3.8683490551181103
21
-3.9519265354330706
0
LINE
8
BLACK
6
CONTINUOUS
10
3.8683490551181103
20
-3.9519265354330706
11
3.8696292125984253
21
-3.953842401574803
0
LINE
8
BLACK
6
CONTINUOUS
10
3.8696292125984253
20
-3.953842401574803
11
3.8700787401574801
21
-3.9561023622047244
0
LINE
8
BLACK
6
CONTINUOUS
10
3.8700787401574801
20
-3.9561023622047244
11
3.8700787401574801
21
-3.9679133858267717
0
LINE
8
BLACK
6
CONTINUOUS
10
3.8700787401574801
20
-3.9679133858267717
11
3.8696292125984253
21
-3.9701733464566926
0
LINE
8
BLACK
6
CONTINUOUS
10
3.8696292125984253
20
-3.9701733464566926
11
3.8683490551181103
21
-3.9720892125984251
0
LINE
8
BLACK
6
CONTINUOUS
10
3.8683490551181103
20
-3.9720892125984251
11
3.8664331889763779
21
-3.97336937007874
0
LINE
8
BLACK
6
CONTINUOUS
10
3.8664331889763779
20
-3.97336937007874
11
3.8641732283464565
21
-3.9738188976377953
0
LINE
8
BLACK
6
CONTINUOUS
10
3.8641732283464565
20
-3.9738188976377953
11
3.8070866141732282
21
-3.9738188976377953
0
LINE
8
BLACK
6
CONTINUOUS
10
3.8070866141732282
20
-3.9738188976377953
11
3.8048266535433068
21
-3.97336937007874
0
LINE
8
BLACK
6
CONTINUOUS
10
3.8048266535433068
20
-3.97336937007874
11
3.8029107874015748
21
-3.9720892125984251
0
LINE
8
BLACK
6
CONTINUOUS
10
3.8029107874015748
20
-3.9720892125984251
11
3.8016306299212599
21
-3.9701733464566926
0
LINE
8
BLACK
6
CONTINUOUS
10
3.8016306299212599
20
-3.9701733464566926
11
3.8011811023622046
21
-3.9679133858267717
0
LINE
8
BLACK
6
CONTINUOUS
10
3.8011811023622046
20
-3.9679133858267717
11
3.8011811023622046
21
-3.9561023622047244
0
LINE
8
BLACK
6
CONTINUOUS
10
3.8011811023622046
20
-3.9561023622047244
11
3.8016306299212599
21
-3.953842401574803
0
LINE
8
BLACK
6
CONTINUOUS
10
3.8016306299212599
20
-3.953842401574803
11
3.8029107874015748
21
-3.9519265354330706
0
LINE
8
BLACK
6
CONTINUOUS
10
3.8029107874015748
20
-3.9519265354330706
11
3.8048266535433068
21
-3.9506463779527556
0
LINE
8
BLACK
6
CONTINUOUS
10
3.8048266535433068
20
-3.9506463779527556
11
3.8070866141732282
21
-3.9501968503937008
0
LINE
8
BLACK
6
CONTINUOUS
10
3.8070866141732282
20
-3.9501968503937008
11
3.8641732283464565
21
-3.9501968503937008
0
LINE
8
BLACK
6
CONTINUOUS
10
3.8641732283464565
20
-3.9501968503937008
11
3.8664331889763779
21
-3.9506463779527556
0
LINE
8
BLACK
6
CONTINUOUS
10
4.0691890944881886
20
-3.9506463779527556
11
4.0711049606299214
21
-3.9519265354330706
0
LINE
8
BLACK
6
CONTINUOUS
10
4.0711049606299214
20
-3.9519265354330706
11
4.072385118110236
21
-3.953842401574803
0
LINE
8
BLACK
6
CONTINUOUS
10
4.072385118110236
20
-3.953842401574803
11
4.0728346456692917
21
-3.9561023622047244
0
LINE
8
BLACK
6
CONTINUOUS
10
4.0728346456692917
20
-3.9561023622047244
11
4.0728346456692917
21
-3.9679133858267717
0
LINE
8
BLACK
6
CONTINUOUS
10
4.0728346456692917
20
-3.9679133858267717
11
4.072385118110236
21
-3.9701733464566926
0
LINE
8
BLACK
6
CONTINUOUS
10
4.072385118110236
20
-3.9701733464566926
11
4.0711049606299214
21
-3.9720892125984251
0
LINE
8
BLACK
6
CONTINUOUS
10
4.0711049606299214
20
-3.9720892125984251
11
4.0691890944881886
21
-3.97336937007874
0
LINE
8
BLACK
6
CONTINUOUS
10
4.0691890944881886
20
-3.97336937007874
11
4.0669291338582676
21
-3.9738188976377953
0
LINE
8
BLACK
6
CONTINUOUS
10
4.0669291338582676
20
-3.9738188976377953
11
4.0098425196850389
21
-3.9738188976377953
0
LINE
8
BLACK
6
CONTINUOUS
10
4.0098425196850389
20
-3.9738188976377953
11
4.007582559055118
21
-3.97336937007874
0
LINE
8
BLACK
6
CONTINUOUS
10
4.007582559055118
20
-3.97336937007874
11
4.005666692913386
21
-3.9720892125984251
0
LINE
8
BLACK
6
CONTINUOUS
10
4.005666692913386
20
-3.9720892125984251
11
4.0043865354330705
21
-3.9701733464566926
0
LINE
8
BLACK
6
CONTINUOUS
10
4.0043865354330705
20
-3.9701733464566926
11
4.0039370078740157
21
-3.9679133858267717
0
LINE
8
BLACK
6
CONTINUOUS
10
4.0039370078740157
20
-3.9679133858267717
11
4.0039370078740157
21
-3.9561023622047244
0
LINE
8
BLACK
6
CONTINUOUS
10
4.0039370078740157
20
-3.9561023622047244
11
4.0043865354330705
21
-3.953842401574803
0
LINE
8
BLACK
6
CONTINUOUS
10
4.0043865354330705
20
-3.953842401574803
11
4.005666692913386
21
-3.9519265354330706
0
LINE
8
BLACK
6
CONTINUOUS
10
4.005666692913386
20
-3.9519265354330706
11
4.007582559055118
21
-3.9506463779527556
0
LINE
8
BLACK
6
CONTINUOUS
10
4.007582559055118
20
-3.9506463779527556
11
4.0098425196850389
21
-3.9501968503937008
0
LINE
8
BLACK
6
CONTINUOUS
10
4.0098425196850389
20
-3.9501968503937008
11
4.0669291338582676
21
-3.9501968503937008
0
LINE
8
BLACK
6
CONTINUOUS
10
4.0669291338582676
20
-3.9501968503937008
11
4.0691890944881886
21
-3.9506463779527556
0
LINE
8
BLACK
6
CONTINUOUS
10
3.8664331889763779
20
-3.9006463779527558
11
3.8683490551181103
21
-3.9019265354330708
0
LINE
8
BLACK
6
CONTINUOUS
10
3.8683490551181103
20
-3.9019265354330708
11
3.8696292125984253
21
-3.9038424015748032
0
LINE
8
BLACK
6
CONTINUOUS
10
3.8696292125984253
20
-3.9038424015748032
11
3.8700787401574801
21
-3.9061023622047242
0
LINE
8
BLACK
6
CONTINUOUS
10
3.8700787401574801
20
-3.9061023622047242
11
3.8700787401574801
21
-3.9179133858267714
0
LINE
8
BLACK
6
CONTINUOUS
10
3.8700787401574801
20
-3.9179133858267714
11
3.8696292125984253
21
-3.9201733464566928
0
LINE
8
BLACK
6
CONTINUOUS
10
3.8696292125984253
20
-3.9201733464566928
11
3.8683490551181103
21
-3.9220892125984252
0
LINE
8
BLACK
6
CONTINUOUS
10
3.8683490551181103
20
-3.9220892125984252
11
3.8664331889763779
21
-3.9233693700787402
0
LINE
8
BLACK
6
CONTINUOUS
10
3.8664331889763779
20
-3.9233693700787402
11
3.8641732283464565
21
-3.923818897637795
0
LINE
8
BLACK
6
CONTINUOUS
10
3.8641732283464565
20
-3.923818897637795
11
3.8070866141732282
21
-3.923818897637795
0
LINE
8
BLACK
6
CONTINUOUS
10
3.8070866141732282
20
-3.923818897637795
11
3.8048266535433068
21
-3.9233693700787402
0
LINE
8
BLACK
6
CONTINUOUS
10
3.8048266535433068
20
-3.9233693700787402
11
3.8029107874015748
21
-3.9220892125984252
0
LINE
8
BLACK
6
CONTINUOUS
10
3.8029107874015748
20
-3.9220892125984252
11
3.8016306299212599
21
-3.9201733464566928
0
LINE
8
BLACK
6
CONTINUOUS
10
3.8016306299212599
20
-3.9201733464566928
11
3.8011811023622046
21
-3.9179133858267714
0
LINE
8
BLACK
6
CONTINUOUS
10
3.8011811023622046
20
-3.9179133858267714
11
3.8011811023622046
21
-3.9061023622047242
0
LINE
8
BLACK
6
CONTINUOUS
10
3.8011811023622046
20
-3.9061023622047242
11
3.8016306299212599
21
-3.9038424015748032
0
LINE
8
BLACK
6
CONTINUOUS
10
3.8016306299212599
20
-3.9038424015748032
11
3.8029107874015748
21
-3.9019265354330708
0
LINE
8
BLACK
6
CONTINUOUS
10
3.8029107874015748
20
-3.9019265354330708
11
3.8048266535433068
21
-3.9006463779527558
0
LINE
8
BLACK
6
CONTINUOUS
10
3.8048266535433068
20
-3.9006463779527558
11
3.8070866141732282
21
-3.9001968503937006
0
LINE
8
BLACK
6
CONTINUOUS
10
3.8070866141732282
20
-3.9001968503937006
11
3.8641732283464565
21
-3.9001968503937006
0
LINE
8
BLACK
6
CONTINUOUS
10
3.8641732283464565
20
-3.9001968503937006
11
3.8664331889763779
21
-3.9006463779527558
0
LINE
8
BLACK
6
CONTINUOUS
10
4.0691890944881886
20
-3.9006463779527558
11
4.0711049606299214
21
-3.9019265354330708
0
LINE
8
BLACK
6
CONTINUOUS
10
4.0711049606299214
20
-3.9019265354330708
11
4.072385118110236
21
-3.9038424015748032
0
LINE
8
BLACK
6
CONTINUOUS
10
4.072385118110236
20
-3.9038424015748032
11
4.0728346456692917
21
-3.9061023622047242
0
LINE
8
BLACK
6
CONTINUOUS
10
4.0728346456692917
20
-3.9061023622047242
11
4.0728346456692917
21
-3.9179133858267714
0
LINE
8
BLACK
6
CONTINUOUS
10
4.0728346456692917
20
-3.9179133858267714
11
4.072385118110236
21
-3.9201733464566928
0
LINE
8
BLACK
6
CONTINUOUS
10
4.072385118110236
20
-3.9201733464566928
11
4.0711049606299214
21
-3.9220892125984252
0
LINE
8
BLACK
6
CONTINUOUS
10
4.0711049606299214
20
-3.9220892125984252
11
4.0691890944881886
21
-3.9233693700787402
0
LINE
8
BLACK
6
CONTINUOUS
10
4.0691890944881886
20
-3.9233693700787402
11
4.0669291338582676
21
-3.923818897637795
0
LINE
8
BLACK
6
CONTINUOUS
10
4.0669291338582676
20
-3.923818897637795
11
4.0098425196850389
21
-3.923818897637795
0
LINE
8
BLACK
6
CONTINUOUS
10
4.0098425196850389
20
-3.923818897637795
11
4.007582559055118
21
-3.9233693700787402
0
LINE
8
BLACK
6
CONTINUOUS
10
4.007582559055118
20
-3.9233693700787402
11
4.005666692913386
21
-3.9220892125984252
0
LINE
8
BLACK
6
CONTINUOUS
10
4.005666692913386
20
-3.9220892125984252
11
4.0043865354330705
21
-3.9201733464566928
0
LINE
8
BLACK
6
CONTINUOUS
10
4.0043865354330705
20
-3.9201733464566928
11
4.0039370078740157
21
-3.9179133858267714
0
LINE
8
BLACK
6
CONTINUOUS
10
4.0039370078740157
20
-3.9179133858267714
11
4.0039370078740157
21
-3.9061023622047242
0
LINE
8
BLACK
6
CONTINUOUS
10
4.0039370078740157
20
-3.9061023622047242
11
4.0043865354330705
21
-3.9038424015748032
0
LINE
8
BLACK
6
CONTINUOUS
10
4.0043865354330705
20
-3.9038424015748032
11
4.005666692913386
21
-3.9019265354330708
0
LINE
8
BLACK
6
CONTINUOUS
10
4.005666692913386
20
-3.9019265354330708
11
4.007582559055118
21
-3.9006463779527558
0
LINE
8
BLACK
6
CONTINUOUS
10
4.007582559055118
20
-3.9006463779527558
11
4.0098425196850389
21
-3.9001968503937006
0
LINE
8
BLACK
6
CONTINUOUS
10
4.0098425196850389
20
-3.9001968503937006
11
4.0669291338582676
21
-3.9001968503937006
0
LINE
8
BLACK
6
CONTINUOUS
10
4.0669291338582676
20
-3.9001968503937006
11
4.0691890944881886
21
-3.9006463779527558
0
LINE
8
BLACK
6
CONTINUOUS
10
3.8664331889763779
20
-3.850646377952756
11
3.8683490551181103
21
-3.851926535433071
0
LINE
8
BLACK
6
CONTINUOUS
10
3.8683490551181103
20
-3.851926535433071
11
3.8696292125984253
21
-3.853842401574803
0
LINE
8
BLACK
6
CONTINUOUS
10
3.8696292125984253
20
-3.853842401574803
11
3.8700787401574801
21
-3.8561023622047244
0
LINE
8
BLACK
6
CONTINUOUS
10
3.8700787401574801
20
-3.8561023622047244
11
3.8700787401574801
21
-3.8679133858267716
0
LINE
8
BLACK
6
CONTINUOUS
10
3.8700787401574801
20
-3.8679133858267716
11
3.8696292125984253
21
-3.870173346456693
0
LINE
8
BLACK
6
CONTINUOUS
10
3.8696292125984253
20
-3.870173346456693
11
3.8683490551181103
21
-3.872089212598425
0
LINE
8
BLACK
6
CONTINUOUS
10
3.8683490551181103
20
-3.872089212598425
11
3.8664331889763779
21
-3.8733693700787399
0
LINE
8
BLACK
6
CONTINUOUS
10
3.8664331889763779
20
-3.8733693700787399
11
3.8641732283464565
21
-3.8738188976377952
0
LINE
8
BLACK
6
CONTINUOUS
10
3.8641732283464565
20
-3.8738188976377952
11
3.8070866141732282
21
-3.8738188976377952
0
LINE
8
BLACK
6
CONTINUOUS
10
3.8070866141732282
20
-3.8738188976377952
11
3.8048266535433068
21
-3.8733693700787399
0
LINE
8
BLACK
6
CONTINUOUS
10
3.8048266535433068
20
-3.8733693700787399
11
3.8029107874015748
21
-3.872089212598425
0
LINE
8
BLACK
6
CONTINUOUS
10
3.8029107874015748
20
-3.872089212598425
11
3.8016306299212599
21
-3.870173346456693
0
LINE
8
BLACK
6
CONTINUOUS
10
3.8016306299212599
20
-3.870173346456693
11
3.8011811023622046
21
-3.8679133858267716
0
LINE
8
BLACK
6
CONTINUOUS
10
3.8011811023622046
20
-3.8679133858267716
11
3.8011811023622046
21
-3.8561023622047244
0
LINE
8
BLACK
6
CONTINUOUS
10
3.8011811023622046
20
-3.8561023622047244
11
3.8016306299212599
21
-3.853842401574803
0
LINE
8
BLACK
6
CONTINUOUS
10
3.8016306299212599
20
-3.853842401574803
11
3.8029107874015748
21
-3.851926535433071
0
LINE
8
BLACK
6
CONTINUOUS
10
3.8029107874015748
20
-3.851926535433071
11
3.8048266535433068
21
-3.850646377952756
0
LINE
8
BLACK
6
CONTINUOUS
10
3.8048266535433068
20
-3.850646377952756
11
3.8070866141732282
21
-3.8501968503937007
0
LINE
8
BLACK
6
CONTINUOUS
10
3.8070866141732282
20
-3.8501968503937007
11
3.8641732283464565
21
-3.8501968503937007
0
LINE
8
BLACK
6
CONTINUOUS
10
3.8641732283464565
20
-3.8501968503937007
11
3.8664331889763779
21
-3.850646377952756
0
LINE
8
BLACK
6
CONTINUOUS
10
4.0691890944881886
20
-3.850646377952756
11
4.0711049606299214
21
-3.851926535433071
0
LINE
8
BLACK
6
CONTINUOUS
10
4.0711049606299214
20
-3.851926535433071
11
4.072385118110236
21
-3.853842401574803
0
LINE
8
BLACK
6
CONTINUOUS
10
4.072385118110236
20
-3.853842401574803
11
4.0728346456692917
21
-3.8561023622047244
0
LINE
8
BLACK
6
CONTINUOUS
10
4.0728346456692917
20
-3.8561023622047244
11
4.0728346456692917
21
-3.8679133858267716
0
LINE
8
BLACK
6
CONTINUOUS
10
4.0728346456692917
20
-3.8679133858267716
11
4.072385118110236
21
-3.870173346456693
0
LINE
8
BLACK
6
CONTINUOUS
10
4.072385118110236
20
-3.870173346456693
11
4.0711049606299214
21
-3.872089212598425
0
LINE
8
BLACK
6
CONTINUOUS
10
4.0711049606299214
20
-3.872089212598425
11
4.0691890944881886
21
-3.8733693700787399
0
LINE
8
BLACK
6
CONTINUOUS
10
4.0691890944881886
20
-3.8733693700787399
11
4.0669291338582676
21
-3.8738188976377952
0
LINE
8
BLACK
6
CONTINUOUS
10
4.0669291338582676
20
-3.8738188976377952
11
4.0098425196850389
21
-3.8738188976377952
0
LINE
8
BLACK
6
CONTINUOUS
10
4.0098425196850389
20
-3.8738188976377952
11
4.007582559055118
21
-3.8733693700787399
0
LINE
8
BLACK
6
CONTINUOUS
10
4.007582559055118
20
-3.8733693700787399
11
4.005666692913386
21
-3.872089212598425
0
LINE
8
BLACK
6
CONTINUOUS
10
4.005666692913386
20
-3.872089212598425
11
4.0043865354330705
21
-3.870173346456693
0
LINE
8
BLACK
6
CONTINUOUS
10
4.0043865354330705
20
-3.870173346456693
11
4.0039370078740157
21
-3.8679133858267716
0
LINE
8
BLACK
6
CONTINUOUS
10
4.0039370078740157
20
-3.8679133858267716
11
4.0039370078740157
21
-3.8561023622047244
0
LINE
8
BLACK
6
CONTINUOUS
10
4.0039370078740157
20
-3.8561023622047244
11
4.0043865354330705
21
-3.853842401574803
0
LINE
8
BLACK
6
CONTINUOUS
10
4.0043865354330705
20
-3.853842401574803
11
4.005666692913386
21
-3.851926535433071
0
LINE
8
BLACK
6
CONTINUOUS
10
4.005666692913386
20
-3.851926535433071
11
4.007582559055118
21
-3.850646377952756
0
LINE
8
BLACK
6
CONTINUOUS
10
4.007582559055118
20
-3.850646377952756
11
4.0098425196850389
21
-3.8501968503937007
0
LINE
8
BLACK
6
CONTINUOUS
10
4.0098425196850389
20
-3.8501968503937007
11
4.0669291338582676
21
-3.8501968503937007
0
LINE
8
BLACK
6
CONTINUOUS
10
4.0669291338582676
20
-3.8501968503937007
11
4.0691890944881886
21
-3.850646377952756
  0
ENDSEC
  0
EOF
