  0
SECTION
  2
HEADER
  9
$ANGBASE
  50
0.0
  9
$ANGDIR
  70
1
  9
$MEASUREMENT
  70
0
  0
ENDSEC
  0
SECTION
  2
TABLES
  0
TABLE
  2
LTYPE
  70
4
  0
LTYPE
  5
40F
  2
CONTINUOUS
  70
0
  3
Solid line
  72
65
  73
0
  40
0.0
  0
LTYPE
  5
410
  2
DASHDOT
 70
0
  3
Dash Dot ____ _ ____ _
 72
65
 73
4
 40
2.0
 49
1.25
 49
-0.25
 49
0.25
 49
-0.25
  0
LTYPE
  5
411
  2
DASHED
 70
0
  3
Dashed __ __ __ __ __
 72
65
 73
2
 40
0.75
 49
0.5
 49
-0.25
  0
LTYPE
  5
43B
  2
DOTTED
 70
0
  3
Dotted .  .  .  .
 72
65
 73
2
 40
0.2
 49
0.0
 49
-0.2
  0
ENDTAB
  0
TABLE
  2
STYLE
  70
4
  0
STYLE
  2
KICAD
  70
0
  40
0
  41
1
  42
1
  50
0
  71
0
  3
isocp.shx
  0
STYLE
  2
KICADB
  70
0
  40
0
  41
1
  42
1
  50
0
  71
0
  3
isocp.shx
  0
STYLE
  2
KICADI
  70
0
  40
0
  41
1
  42
1
  50
15
  71
0
  3
isocp.shx
  0
STYLE
  2
KICADBI
  70
0
  40
0
  41
1
  42
1
  50
15
  71
0
  3
isocp.shx
  0
ENDTAB
  0
TABLE
  2
LAYER
  70
1
  0
LAYER
  2
BLACK
  70
0
  62
7
  6
CONTINUOUS
  0
ENDTAB
  0
ENDSEC
  0
SECTION
  2
ENTITIES
0
LINE
8
BLACK
6
CONTINUOUS
10
1.6781666141732283
20
-2.8967338188976379
11
1.6783464173228346
21
-2.8976377952755903
0
LINE
8
BLACK
6
CONTINUOUS
10
1.6783464173228346
20
-2.8976377952755903
11
1.6783464173228346
21
-2.9496062992125984
0
LINE
8
BLACK
6
CONTINUOUS
10
1.6783464173228346
20
-2.9496062992125984
11
1.7303149212598425
21
-2.9496062992125984
0
LINE
8
BLACK
6
CONTINUOUS
10
1.7303149212598425
20
-2.9496062992125984
11
1.7312188976377951
21
-2.9497861023622045
0
LINE
8
BLACK
6
CONTINUOUS
10
1.7312188976377951
20
-2.9497861023622045
11
1.7324973228346456
21
-2.9510645275590552
0
LINE
8
BLACK
6
CONTINUOUS
10
1.7324973228346456
20
-2.9510645275590552
11
1.7324973228346456
21
-2.9528724803149604
0
LINE
8
BLACK
6
CONTINUOUS
10
1.7324973228346456
20
-2.9528724803149604
11
1.7312188976377951
21
-2.9541509055118111
0
LINE
8
BLACK
6
CONTINUOUS
10
1.7312188976377951
20
-2.9541509055118111
11
1.7303149212598425
21
-2.9543307086614172
0
LINE
8
BLACK
6
CONTINUOUS
10
1.7303149212598425
20
-2.9543307086614172
11
1.6759842125984252
21
-2.9543307086614172
0
LINE
8
BLACK
6
CONTINUOUS
10
1.6759842125984252
20
-2.9543307086614172
11
1.6750802362204724
21
-2.9541509055118111
0
LINE
8
BLACK
6
CONTINUOUS
10
1.6750802362204724
20
-2.9541509055118111
11
1.6738018110236219
21
-2.9528724803149604
0
LINE
8
BLACK
6
CONTINUOUS
10
1.6738018110236219
20
-2.9528724803149604
11
1.6736220078740156
21
-2.9519685039370076
0
LINE
8
BLACK
6
CONTINUOUS
10
1.6736220078740156
20
-2.9519685039370076
11
1.6736220078740156
21
-2.8976377952755903
0
LINE
8
BLACK
6
CONTINUOUS
10
1.6736220078740156
20
-2.8976377952755903
11
1.6738018110236219
21
-2.8967338188976379
0
LINE
8
BLACK
6
CONTINUOUS
10
1.6738018110236219
20
-2.8967338188976379
11
1.6750802362204724
21
-2.8954553937007872
0
LINE
8
BLACK
6
CONTINUOUS
10
1.6750802362204724
20
-2.8954553937007872
11
1.6768881889763778
21
-2.8954553937007872
0
LINE
8
BLACK
6
CONTINUOUS
10
1.6768881889763778
20
-2.8954553937007872
11
1.6781666141732283
21
-2.8967338188976379
0
LINE
8
BLACK
6
CONTINUOUS
10
2.1855496062992126
20
-2.8411246850393699
11
2.1868280314960629
21
-2.8424031102362206
0
LINE
8
BLACK
6
CONTINUOUS
10
2.1868280314960629
20
-2.8424031102362206
11
2.1870078346456694
21
-2.843307086614173
0
LINE
8
BLACK
6
CONTINUOUS
10
2.1870078346456694
20
-2.843307086614173
11
2.1870078346456694
21
-2.9519685039370076
0
LINE
8
BLACK
6
CONTINUOUS
10
2.1870078346456694
20
-2.9519685039370076
11
2.1868280314960629
21
-2.9528724803149604
0
LINE
8
BLACK
6
CONTINUOUS
10
2.1868280314960629
20
-2.9528724803149604
11
2.1855496062992126
21
-2.9541509055118111
0
LINE
8
BLACK
6
CONTINUOUS
10
2.1855496062992126
20
-2.9541509055118111
11
2.1846456299212598
21
-2.9543307086614172
0
LINE
8
BLACK
6
CONTINUOUS
10
2.1846456299212598
20
-2.9543307086614172
11
1.7803149212598426
21
-2.9543307086614172
0
LINE
8
BLACK
6
CONTINUOUS
10
1.7803149212598426
20
-2.9543307086614172
11
1.7794109448818898
21
-2.9541509055118111
0
LINE
8
BLACK
6
CONTINUOUS
10
1.7794109448818898
20
-2.9541509055118111
11
1.7781325196850393
21
-2.9528724803149604
0
LINE
8
BLACK
6
CONTINUOUS
10
1.7781325196850393
20
-2.9528724803149604
11
1.777952716535433
21
-2.9519685039370076
0
LINE
8
BLACK
6
CONTINUOUS
10
1.777952716535433
20
-2.9519685039370076
11
1.777952716535433
21
-2.843307086614173
0
LINE
8
BLACK
6
CONTINUOUS
10
1.777952716535433
20
-2.843307086614173
11
1.7781325196850393
21
-2.8424031102362206
0
LINE
8
BLACK
6
CONTINUOUS
10
1.7781325196850393
20
-2.8424031102362206
11
1.7794109448818898
21
-2.8411246850393699
0
LINE
8
BLACK
6
CONTINUOUS
10
1.7794109448818898
20
-2.8411246850393699
11
1.7803149212598426
21
-2.8409448818897638
0
LINE
8
BLACK
6
CONTINUOUS
10
1.7803149212598426
20
-2.8409448818897638
11
2.1846456299212598
21
-2.8409448818897638
0
LINE
8
BLACK
6
CONTINUOUS
10
2.1846456299212598
20
-2.8409448818897638
11
2.1855496062992126
21
-2.8411246850393699
0
LINE
8
BLACK
6
CONTINUOUS
10
1.782677125984252
20
-2.8456692913385826
11
1.782677125984252
21
-2.9496062992125984
0
LINE
8
BLACK
6
CONTINUOUS
10
1.782677125984252
20
-2.9496062992125984
11
2.1822834251968501
21
-2.9496062992125984
0
LINE
8
BLACK
6
CONTINUOUS
10
2.1822834251968501
20
-2.9496062992125984
11
2.1822834251968501
21
-2.8456692913385826
0
LINE
8
BLACK
6
CONTINUOUS
10
2.1822834251968501
20
-2.8456692913385826
11
1.782677125984252
21
-2.8456692913385826
0
LINE
8
BLACK
6
CONTINUOUS
10
2.6017886220472439
20
-1.7893530314960631
11
2.6030670472440942
21
-1.7906314566929133
0
LINE
8
BLACK
6
CONTINUOUS
10
2.6030670472440942
20
-1.7906314566929133
11
2.6030670472440942
21
-1.792439409448819
0
LINE
8
BLACK
6
CONTINUOUS
10
2.6030670472440942
20
-1.792439409448819
11
2.6017886220472439
21
-1.7937178346456693
0
LINE
8
BLACK
6
CONTINUOUS
10
2.6017886220472439
20
-1.7937178346456693
11
2.6008846456692911
21
-1.7938976377952756
0
LINE
8
BLACK
6
CONTINUOUS
10
2.6008846456692911
20
-1.7938976377952756
11
2.5779527559055118
21
-1.7938976377952756
0
LINE
8
BLACK
6
CONTINUOUS
10
2.5779527559055118
20
-1.7938976377952756
11
2.5779527559055118
21
-1.9938976377952755
0
LINE
8
BLACK
6
CONTINUOUS
10
2.5779527559055118
20
-1.9938976377952755
11
2.6008846456692911
21
-1.9938976377952755
0
LINE
8
BLACK
6
CONTINUOUS
10
2.6008846456692911
20
-1.9938976377952755
11
2.6017886220472439
21
-1.9940774409448818
0
LINE
8
BLACK
6
CONTINUOUS
10
2.6017886220472439
20
-1.9940774409448818
11
2.6030670472440942
21
-1.9953558661417323
0
LINE
8
BLACK
6
CONTINUOUS
10
2.6030670472440942
20
-1.9953558661417323
11
2.6030670472440942
21
-1.9971638188976377
0
LINE
8
BLACK
6
CONTINUOUS
10
2.6030670472440942
20
-1.9971638188976377
11
2.6017886220472439
21
-1.9984422440944882
0
LINE
8
BLACK
6
CONTINUOUS
10
2.6017886220472439
20
-1.9984422440944882
11
2.6008846456692911
21
-1.9986220472440945
0
LINE
8
BLACK
6
CONTINUOUS
10
2.6008846456692911
20
-1.9986220472440945
11
2.5755905511811021
21
-1.9986220472440945
0
LINE
8
BLACK
6
CONTINUOUS
10
2.5755905511811021
20
-1.9986220472440945
11
2.5746865748031493
21
-1.9984422440944882
0
LINE
8
BLACK
6
CONTINUOUS
10
2.5746865748031493
20
-1.9984422440944882
11
2.573408149606299
21
-1.9971638188976377
0
LINE
8
BLACK
6
CONTINUOUS
10
2.573408149606299
20
-1.9971638188976377
11
2.573228346456693
21
-1.9962598425196849
0
LINE
8
BLACK
6
CONTINUOUS
10
2.573228346456693
20
-1.9962598425196849
11
2.573228346456693
21
-1.7915354330708662
0
LINE
8
BLACK
6
CONTINUOUS
10
2.573228346456693
20
-1.7915354330708662
11
2.573408149606299
21
-1.7906314566929133
0
LINE
8
BLACK
6
CONTINUOUS
10
2.573408149606299
20
-1.7906314566929133
11
2.5746865748031493
21
-1.7893530314960631
0
LINE
8
BLACK
6
CONTINUOUS
10
2.5746865748031493
20
-1.7893530314960631
11
2.5755905511811021
21
-1.7891732283464568
0
LINE
8
BLACK
6
CONTINUOUS
10
2.5755905511811021
20
-1.7891732283464568
11
2.6008846456692911
21
-1.7891732283464568
0
LINE
8
BLACK
6
CONTINUOUS
10
2.6008846456692911
20
-1.7891732283464568
11
2.6017886220472439
21
-1.7893530314960631
0
LINE
8
BLACK
6
CONTINUOUS
10
2.6517886220472442
20
-1.9940774409448818
11
2.6530670472440945
21
-1.9953558661417323
0
LINE
8
BLACK
6
CONTINUOUS
10
2.6530670472440945
20
-1.9953558661417323
11
2.6530670472440945
21
-1.9971638188976377
0
LINE
8
BLACK
6
CONTINUOUS
10
2.6530670472440945
20
-1.9971638188976377
11
2.6517886220472442
21
-1.9984422440944882
0
LINE
8
BLACK
6
CONTINUOUS
10
2.6517886220472442
20
-1.9984422440944882
11
2.6508846456692914
21
-1.9986220472440945
0
LINE
8
BLACK
6
CONTINUOUS
10
2.6508846456692914
20
-1.9986220472440945
11
2.6250996062992127
21
-1.9986220472440945
0
LINE
8
BLACK
6
CONTINUOUS
10
2.6250996062992127
20
-1.9986220472440945
11
2.6241956299212599
21
-1.9984422440944882
0
LINE
8
BLACK
6
CONTINUOUS
10
2.6241956299212599
20
-1.9984422440944882
11
2.6229172047244096
21
-1.9971638188976377
0
LINE
8
BLACK
6
CONTINUOUS
10
2.6229172047244096
20
-1.9971638188976377
11
2.6229172047244096
21
-1.9953558661417323
0
LINE
8
BLACK
6
CONTINUOUS
10
2.6229172047244096
20
-1.9953558661417323
11
2.6241956299212599
21
-1.9940774409448818
0
LINE
8
BLACK
6
CONTINUOUS
10
2.6241956299212599
20
-1.9940774409448818
11
2.6250996062992127
21
-1.9938976377952755
0
LINE
8
BLACK
6
CONTINUOUS
10
2.6250996062992127
20
-1.9938976377952755
11
2.6508846456692914
21
-1.9938976377952755
0
LINE
8
BLACK
6
CONTINUOUS
10
2.6508846456692914
20
-1.9938976377952755
11
2.6517886220472442
21
-1.9940774409448818
0
LINE
8
BLACK
6
CONTINUOUS
10
2.7012976771653543
20
-1.8417152362204725
11
2.7025761023622046
21
-1.8429936614173228
0
LINE
8
BLACK
6
CONTINUOUS
10
2.7025761023622046
20
-1.8429936614173228
11
2.7027559055118111
21
-1.8438976377952756
0
LINE
8
BLACK
6
CONTINUOUS
10
2.7027559055118111
20
-1.8438976377952756
11
2.7027559055118111
21
-1.9962598425196849
0
LINE
8
BLACK
6
CONTINUOUS
10
2.7027559055118111
20
-1.9962598425196849
11
2.7025761023622046
21
-1.9971638188976377
0
LINE
8
BLACK
6
CONTINUOUS
10
2.7025761023622046
20
-1.9971638188976377
11
2.7012976771653543
21
-1.9984422440944882
0
LINE
8
BLACK
6
CONTINUOUS
10
2.7012976771653543
20
-1.9984422440944882
11
2.7003937007874015
21
-1.9986220472440945
0
LINE
8
BLACK
6
CONTINUOUS
10
2.7003937007874015
20
-1.9986220472440945
11
2.6750996062992125
21
-1.9986220472440945
0
LINE
8
BLACK
6
CONTINUOUS
10
2.6750996062992125
20
-1.9986220472440945
11
2.6741956299212597
21
-1.9984422440944882
0
LINE
8
BLACK
6
CONTINUOUS
10
2.6741956299212597
20
-1.9984422440944882
11
2.6729172047244094
21
-1.9971638188976377
0
LINE
8
BLACK
6
CONTINUOUS
10
2.6729172047244094
20
-1.9971638188976377
11
2.6729172047244094
21
-1.9953558661417323
0
LINE
8
BLACK
6
CONTINUOUS
10
2.6729172047244094
20
-1.9953558661417323
11
2.6741956299212597
21
-1.9940774409448818
0
LINE
8
BLACK
6
CONTINUOUS
10
2.6741956299212597
20
-1.9940774409448818
11
2.6750996062992125
21
-1.9938976377952755
0
LINE
8
BLACK
6
CONTINUOUS
10
2.6750996062992125
20
-1.9938976377952755
11
2.6980314960629919
21
-1.9938976377952755
0
LINE
8
BLACK
6
CONTINUOUS
10
2.6980314960629919
20
-1.9938976377952755
11
2.6980314960629919
21
-1.846259842519685
0
LINE
8
BLACK
6
CONTINUOUS
10
2.6980314960629919
20
-1.846259842519685
11
2.6929133858267718
21
-1.846259842519685
0
LINE
8
BLACK
6
CONTINUOUS
10
2.6929133858267718
20
-1.846259842519685
11
2.6920094094488189
21
-1.8460800393700787
0
LINE
8
BLACK
6
CONTINUOUS
10
2.6920094094488189
20
-1.8460800393700787
11
2.6907309842519687
21
-1.8448016141732284
0
LINE
8
BLACK
6
CONTINUOUS
10
2.6907309842519687
20
-1.8448016141732284
11
2.6907309842519687
21
-1.8429936614173228
0
LINE
8
BLACK
6
CONTINUOUS
10
2.6907309842519687
20
-1.8429936614173228
11
2.6920094094488189
21
-1.8417152362204725
0
LINE
8
BLACK
6
CONTINUOUS
10
2.6920094094488189
20
-1.8417152362204725
11
2.6929133858267718
21
-1.8415354330708662
0
LINE
8
BLACK
6
CONTINUOUS
10
2.6929133858267718
20
-1.8415354330708662
11
2.7003937007874015
21
-1.8415354330708662
0
LINE
8
BLACK
6
CONTINUOUS
10
2.7003937007874015
20
-1.8415354330708662
11
2.7012976771653543
21
-1.8417152362204725
0
LINE
8
BLACK
6
CONTINUOUS
10
2.7012976771653543
20
-1.7867939763779528
11
2.7025761023622046
21
-1.7880724015748031
0
LINE
8
BLACK
6
CONTINUOUS
10
2.7025761023622046
20
-1.7880724015748031
11
2.7027559055118111
21
-1.7889763779527559
0
LINE
8
BLACK
6
CONTINUOUS
10
2.7027559055118111
20
-1.7889763779527559
11
2.7027559055118111
21
-1.8188976377952755
0
LINE
8
BLACK
6
CONTINUOUS
10
2.7027559055118111
20
-1.8188976377952755
11
2.7025761023622046
21
-1.8198016141732283
0
LINE
8
BLACK
6
CONTINUOUS
10
2.7025761023622046
20
-1.8198016141732283
11
2.7012976771653543
21
-1.8210800393700788
0
LINE
8
BLACK
6
CONTINUOUS
10
2.7012976771653543
20
-1.8210800393700788
11
2.6994897244094487
21
-1.8210800393700788
0
LINE
8
BLACK
6
CONTINUOUS
10
2.6994897244094487
20
-1.8210800393700788
11
2.6982112992125984
21
-1.8198016141732283
0
LINE
8
BLACK
6
CONTINUOUS
10
2.6982112992125984
20
-1.8198016141732283
11
2.6980314960629919
21
-1.8188976377952755
0
LINE
8
BLACK
6
CONTINUOUS
10
2.6980314960629919
20
-1.8188976377952755
11
2.6980314960629919
21
-1.7913385826771653
0
LINE
8
BLACK
6
CONTINUOUS
10
2.6980314960629919
20
-1.7913385826771653
11
2.6629921259842519
21
-1.7913385826771653
0
LINE
8
BLACK
6
CONTINUOUS
10
2.6629921259842519
20
-1.7913385826771653
11
2.6620881496062991
21
-1.791158779527559
0
LINE
8
BLACK
6
CONTINUOUS
10
2.6620881496062991
20
-1.791158779527559
11
2.6608097244094489
21
-1.7898803543307087
0
LINE
8
BLACK
6
CONTINUOUS
10
2.6608097244094489
20
-1.7898803543307087
11
2.6608097244094489
21
-1.7880724015748031
0
LINE
8
BLACK
6
CONTINUOUS
10
2.6608097244094489
20
-1.7880724015748031
11
2.6620881496062991
21
-1.7867939763779528
0
LINE
8
BLACK
6
CONTINUOUS
10
2.6620881496062991
20
-1.7867939763779528
11
2.6629921259842519
21
-1.7866141732283465
0
LINE
8
BLACK
6
CONTINUOUS
10
2.6629921259842519
20
-1.7866141732283465
11
2.7003937007874015
21
-1.7866141732283465
0
LINE
8
BLACK
6
CONTINUOUS
10
2.7003937007874015
20
-1.7866141732283465
11
2.7012976771653543
21
-1.7867939763779528
0
LINE
8
BLACK
6
CONTINUOUS
10
2.6339748425196849
20
-1.7893530314960631
11
2.6352532677165352
21
-1.7906314566929133
0
LINE
8
BLACK
6
CONTINUOUS
10
2.6352532677165352
20
-1.7906314566929133
11
2.6352532677165352
21
-1.792439409448819
0
LINE
8
BLACK
6
CONTINUOUS
10
2.6352532677165352
20
-1.792439409448819
11
2.6339748425196849
21
-1.7937178346456693
0
LINE
8
BLACK
6
CONTINUOUS
10
2.6339748425196849
20
-1.7937178346456693
11
2.6330708661417321
21
-1.7938976377952756
0
LINE
8
BLACK
6
CONTINUOUS
10
2.6330708661417321
20
-1.7938976377952756
11
2.6250996062992127
21
-1.7938976377952756
0
LINE
8
BLACK
6
CONTINUOUS
10
2.6250996062992127
20
-1.7938976377952756
11
2.6241956299212599
21
-1.7937178346456693
0
LINE
8
BLACK
6
CONTINUOUS
10
2.6241956299212599
20
-1.7937178346456693
11
2.6229172047244096
21
-1.792439409448819
0
LINE
8
BLACK
6
CONTINUOUS
10
2.6229172047244096
20
-1.792439409448819
11
2.6229172047244096
21
-1.7906314566929133
0
LINE
8
BLACK
6
CONTINUOUS
10
2.6229172047244096
20
-1.7906314566929133
11
2.6241956299212599
21
-1.7893530314960631
0
LINE
8
BLACK
6
CONTINUOUS
10
2.6241956299212599
20
-1.7893530314960631
11
2.6250996062992127
21
-1.7891732283464568
0
LINE
8
BLACK
6
CONTINUOUS
10
2.6250996062992127
20
-1.7891732283464568
11
2.6330708661417321
21
-1.7891732283464568
0
LINE
8
BLACK
6
CONTINUOUS
10
2.6330708661417321
20
-1.7891732283464568
11
2.6339748425196849
21
-1.7893530314960631
0
LINE
8
BLACK
6
CONTINUOUS
10
2.6265092125984251
20
-1.7109235826771654
11
2.6273238582677165
21
-1.7117382283464566
0
LINE
8
BLACK
6
CONTINUOUS
10
2.6273238582677165
20
-1.7117382283464566
11
2.6277647637795276
21
-1.7128026377952756
0
LINE
8
BLACK
6
CONTINUOUS
10
2.6277647637795276
20
-1.7128026377952756
11
2.627821496062992
21
-1.7133787007874015
0
LINE
8
BLACK
6
CONTINUOUS
10
2.627821496062992
20
-1.7133787007874015
11
2.627821496062992
21
-1.7415001574803148
0
LINE
8
BLACK
6
CONTINUOUS
10
2.627821496062992
20
-1.7415001574803148
11
2.6277927559055119
21
-1.7417917322834646
0
LINE
8
BLACK
6
CONTINUOUS
10
2.6277927559055119
20
-1.7417917322834646
11
2.6277983070866142
21
-1.7418694881889762
0
LINE
8
BLACK
6
CONTINUOUS
10
2.6277983070866142
20
-1.7418694881889762
11
2.6277750393700785
21
-1.7419717322834645
0
LINE
8
BLACK
6
CONTINUOUS
10
2.6277750393700785
20
-1.7419717322834645
11
2.6277647637795276
21
-1.7420762204724409
0
LINE
8
BLACK
6
CONTINUOUS
10
2.6277647637795276
20
-1.7420762204724409
11
2.6277348818897637
21
-1.7421482677165354
0
LINE
8
BLACK
6
CONTINUOUS
10
2.6277348818897637
20
-1.7421482677165354
11
2.6276699606299214
21
-1.7424339370078741
0
LINE
8
BLACK
6
CONTINUOUS
10
2.6276699606299214
20
-1.7424339370078741
11
2.6257951968503934
21
-1.748058188976378
0
LINE
8
BLACK
6
CONTINUOUS
10
2.6257951968503934
20
-1.748058188976378
11
2.6255592125984251
21
-1.7485867716535433
0
LINE
8
BLACK
6
CONTINUOUS
10
2.6255592125984251
20
-1.7485867716535433
11
2.6254896850393701
21
-1.7486668897637796
0
LINE
8
BLACK
6
CONTINUOUS
10
2.6254896850393701
20
-1.7486668897637796
11
2.6254491338582677
21
-1.7487648818897636
0
LINE
8
BLACK
6
CONTINUOUS
10
2.6254491338582677
20
-1.7487648818897636
11
2.6250819291338581
21
-1.7492123228346457
0
LINE
8
BLACK
6
CONTINUOUS
10
2.6250819291338581
20
-1.7492123228346457
11
2.6213323622047242
21
-1.7529619291338583
0
LINE
8
BLACK
6
CONTINUOUS
10
2.6213323622047242
20
-1.7529619291338583
11
2.6208849212598424
21
-1.7533291338582677
0
LINE
8
BLACK
6
CONTINUOUS
10
2.6208849212598424
20
-1.7533291338582677
11
2.6207868503937006
21
-1.7533697244094488
0
LINE
8
BLACK
6
CONTINUOUS
10
2.6207868503937006
20
-1.7533697244094488
11
2.6207067322834643
21
-1.7534392519685038
0
LINE
8
BLACK
6
CONTINUOUS
10
2.6207067322834643
20
-1.7534392519685038
11
2.6201781889763778
21
-1.7536752362204724
0
LINE
8
BLACK
6
CONTINUOUS
10
2.6201781889763778
20
-1.7536752362204724
11
2.6145538976377951
21
-1.7555499999999999
0
LINE
8
BLACK
6
CONTINUOUS
10
2.6145538976377951
20
-1.7555499999999999
11
2.614268307086614
21
-1.7556149212598424
0
LINE
8
BLACK
6
CONTINUOUS
10
2.614268307086614
20
-1.7556149212598424
11
2.6141962204724409
21
-1.7556448031496064
0
LINE
8
BLACK
6
CONTINUOUS
10
2.6141962204724409
20
-1.7556448031496064
11
2.6140916929133859
21
-1.7556550787401575
0
LINE
8
BLACK
6
CONTINUOUS
10
2.6140916929133859
20
-1.7556550787401575
11
2.6139894488188977
21
-1.755678346456693
0
LINE
8
BLACK
6
CONTINUOUS
10
2.6139894488188977
20
-1.755678346456693
11
2.6139116929133857
21
-1.7556727952755906
0
LINE
8
BLACK
6
CONTINUOUS
10
2.6139116929133857
20
-1.7556727952755906
11
2.6136201574803151
21
-1.7557015354330707
0
LINE
8
BLACK
6
CONTINUOUS
10
2.6136201574803151
20
-1.7557015354330707
11
2.60987062992126
21
-1.7557015354330707
0
LINE
8
BLACK
6
CONTINUOUS
10
2.60987062992126
20
-1.7557015354330707
11
2.6092945669291336
21
-1.7556448031496064
0
LINE
8
BLACK
6
CONTINUOUS
10
2.6092945669291336
20
-1.7556448031496064
11
2.6082301574803148
21
-1.7552038976377953
0
LINE
8
BLACK
6
CONTINUOUS
10
2.6082301574803148
20
-1.7552038976377953
11
2.6074155118110234
21
-1.7543892519685038
0
LINE
8
BLACK
6
CONTINUOUS
10
2.6074155118110234
20
-1.7543892519685038
11
2.6069746062992127
21
-1.753324842519685
0
LINE
8
BLACK
6
CONTINUOUS
10
2.6069746062992127
20
-1.753324842519685
11
2.6069746062992127
21
-1.7521727165354331
0
LINE
8
BLACK
6
CONTINUOUS
10
2.6069746062992127
20
-1.7521727165354331
11
2.6074155118110234
21
-1.751108307086614
0
LINE
8
BLACK
6
CONTINUOUS
10
2.6074155118110234
20
-1.751108307086614
11
2.6082301574803148
21
-1.7502936614173228
0
LINE
8
BLACK
6
CONTINUOUS
10
2.6082301574803148
20
-1.7502936614173228
11
2.6092945669291336
21
-1.7498527559055117
0
LINE
8
BLACK
6
CONTINUOUS
10
2.6092945669291336
20
-1.7498527559055117
11
2.60987062992126
21
-1.7497960236220471
0
LINE
8
BLACK
6
CONTINUOUS
10
2.60987062992126
20
-1.7497960236220471
11
2.6131410236220471
21
-1.7497960236220471
0
LINE
8
BLACK
6
CONTINUOUS
10
2.6131410236220471
20
-1.7497960236220471
11
2.617649409448819
21
-1.748293188976378
0
LINE
8
BLACK
6
CONTINUOUS
10
2.617649409448819
20
-1.748293188976378
11
2.620413149606299
21
-1.745529409448819
0
LINE
8
BLACK
6
CONTINUOUS
10
2.620413149606299
20
-1.745529409448819
11
2.6219159842519684
21
-1.7410210236220471
0
LINE
8
BLACK
6
CONTINUOUS
10
2.6219159842519684
20
-1.7410210236220471
11
2.6219159842519684
21
-1.7133787007874015
0
LINE
8
BLACK
6
CONTINUOUS
10
2.6219159842519684
20
-1.7133787007874015
11
2.6219727165354332
21
-1.7128026377952756
0
LINE
8
BLACK
6
CONTINUOUS
10
2.6219727165354332
20
-1.7128026377952756
11
2.6224136220472438
21
-1.7117382283464566
0
LINE
8
BLACK
6
CONTINUOUS
10
2.6224136220472438
20
-1.7117382283464566
11
2.6232282677165353
21
-1.7109235826771654
0
LINE
8
BLACK
6
CONTINUOUS
10
2.6232282677165353
20
-1.7109235826771654
11
2.6242926771653541
21
-1.7104826771653543
0
LINE
8
BLACK
6
CONTINUOUS
10
2.6242926771653541
20
-1.7104826771653543
11
2.6254448031496063
21
-1.7104826771653543
0
LINE
8
BLACK
6
CONTINUOUS
10
2.6254448031496063
20
-1.7104826771653543
11
2.6265092125984251
21
-1.7109235826771654
0
LINE
8
BLACK
6
CONTINUOUS
10
2.6573158267716535
20
-1.7104826771653543
11
2.6574138188976377
21
-1.7105232677165354
0
LINE
8
BLACK
6
CONTINUOUS
10
2.6574138188976377
20
-1.7105232677165354
11
2.6575196456692911
21
-1.7105307874015747
0
LINE
8
BLACK
6
CONTINUOUS
10
2.6575196456692911
20
-1.7105307874015747
11
2.6580602755905511
21
-1.7107376771653542
0
LINE
8
BLACK
6
CONTINUOUS
10
2.6580602755905511
20
-1.7107376771653542
11
2.6618098031496062
21
-1.7126124409448817
0
LINE
8
BLACK
6
CONTINUOUS
10
2.6618098031496062
20
-1.7126124409448817
11
2.6620577952755906
21
-1.7127685039370077
0
LINE
8
BLACK
6
CONTINUOUS
10
2.6620577952755906
20
-1.7127685039370077
11
2.6621297637795274
21
-1.7127983464566929
0
LINE
8
BLACK
6
CONTINUOUS
10
2.6621297637795274
20
-1.7127983464566929
11
2.6622107086614171
21
-1.7128648031496063
0
LINE
8
BLACK
6
CONTINUOUS
10
2.6622107086614171
20
-1.7128648031496063
11
2.6622996850393701
21
-1.7129207874015748
0
LINE
8
BLACK
6
CONTINUOUS
10
2.6622996850393701
20
-1.7129207874015748
11
2.6623508267716534
21
-1.7129797637795274
0
LINE
8
BLACK
6
CONTINUOUS
10
2.6623508267716534
20
-1.7129797637795274
11
2.6625772047244092
21
-1.7131655511811024
0
LINE
8
BLACK
6
CONTINUOUS
10
2.6625772047244092
20
-1.7131655511811024
11
2.6644519685039367
21
-1.7150403149606299
0
LINE
8
BLACK
6
CONTINUOUS
10
2.6644519685039367
20
-1.7150403149606299
11
2.6646377165354331
21
-1.715266653543307
0
LINE
8
BLACK
6
CONTINUOUS
10
2.6646377165354331
20
-1.715266653543307
11
2.6646967322834647
21
-1.7153178346456692
0
LINE
8
BLACK
6
CONTINUOUS
10
2.6646967322834647
20
-1.7153178346456692
11
2.6647526771653545
21
-1.7154067716535433
0
LINE
8
BLACK
6
CONTINUOUS
10
2.6647526771653545
20
-1.7154067716535433
11
2.6648191732283464
21
-1.7154877559055117
0
LINE
8
BLACK
6
CONTINUOUS
10
2.6648191732283464
20
-1.7154877559055117
11
2.6648489763779528
21
-1.71555968503937
0
LINE
8
BLACK
6
CONTINUOUS
10
2.6648489763779528
20
-1.71555968503937
11
2.6650050787401574
21
-1.7158077165354331
0
LINE
8
BLACK
6
CONTINUOUS
10
2.6650050787401574
20
-1.7158077165354331
11
2.6668798425196849
21
-1.7195572440944882
0
LINE
8
BLACK
6
CONTINUOUS
10
2.6668798425196849
20
-1.7195572440944882
11
2.6670867322834644
21
-1.7200978346456692
0
LINE
8
BLACK
6
CONTINUOUS
10
2.6670867322834644
20
-1.7200978346456692
11
2.6670942519685039
21
-1.7202037007874016
0
LINE
8
BLACK
6
CONTINUOUS
10
2.6670942519685039
20
-1.7202037007874016
11
2.667134842519685
21
-1.7203016929133859
0
LINE
8
BLACK
6
CONTINUOUS
10
2.667134842519685
20
-1.7203016929133859
11
2.6671915748031494
21
-1.7208777559055117
0
LINE
8
BLACK
6
CONTINUOUS
10
2.6671915748031494
20
-1.7208777559055117
11
2.6671915748031494
21
-1.7246272834645668
0
LINE
8
BLACK
6
CONTINUOUS
10
2.6671915748031494
20
-1.7246272834645668
11
2.6671628346456693
21
-1.7249188582677164
0
LINE
8
BLACK
6
CONTINUOUS
10
2.6671628346456693
20
-1.7249188582677164
11
2.6671683858267716
21
-1.7249966141732282
0
LINE
8
BLACK
6
CONTINUOUS
10
2.6671683858267716
20
-1.7249966141732282
11
2.6671451181102364
21
-1.7250988582677165
0
LINE
8
BLACK
6
CONTINUOUS
10
2.6671451181102364
20
-1.7250988582677165
11
2.667134842519685
21
-1.7252033464566929
0
LINE
8
BLACK
6
CONTINUOUS
10
2.667134842519685
20
-1.7252033464566929
11
2.6671049606299211
21
-1.7252753937007874
0
LINE
8
BLACK
6
CONTINUOUS
10
2.6671049606299211
20
-1.7252753937007874
11
2.6670400393700788
21
-1.7255610629921259
0
LINE
8
BLACK
6
CONTINUOUS
10
2.6670400393700788
20
-1.7255610629921259
11
2.6651652755905513
21
-1.7311853149606298
0
LINE
8
BLACK
6
CONTINUOUS
10
2.6651652755905513
20
-1.7311853149606298
11
2.6649292913385825
21
-1.7317138976377953
0
LINE
8
BLACK
6
CONTINUOUS
10
2.6649292913385825
20
-1.7317138976377953
11
2.6648598031496062
21
-1.7317939763779526
0
LINE
8
BLACK
6
CONTINUOUS
10
2.6648598031496062
20
-1.7317939763779526
11
2.6648192125984251
21
-1.7318920472440944
0
LINE
8
BLACK
6
CONTINUOUS
10
2.6648192125984251
20
-1.7318920472440944
11
2.6644519685039367
21
-1.7323394881889764
0
LINE
8
BLACK
6
CONTINUOUS
10
2.6644519685039367
20
-1.7323394881889764
11
2.646995472440945
21
-1.7497960236220471
0
LINE
8
BLACK
6
CONTINUOUS
10
2.646995472440945
20
-1.7497960236220471
11
2.6642388188976378
21
-1.7497960236220471
0
LINE
8
BLACK
6
CONTINUOUS
10
2.6642388188976378
20
-1.7497960236220471
11
2.6648148818897637
21
-1.7498527559055117
0
LINE
8
BLACK
6
CONTINUOUS
10
2.6648148818897637
20
-1.7498527559055117
11
2.6658792913385825
21
-1.7502936614173228
0
LINE
8
BLACK
6
CONTINUOUS
10
2.6658792913385825
20
-1.7502936614173228
11
2.6666939370078739
21
-1.751108307086614
0
LINE
8
BLACK
6
CONTINUOUS
10
2.6666939370078739
20
-1.751108307086614
11
2.667134842519685
21
-1.7521727165354331
0
LINE
8
BLACK
6
CONTINUOUS
10
2.667134842519685
20
-1.7521727165354331
11
2.667134842519685
21
-1.753324842519685
0
LINE
8
BLACK
6
CONTINUOUS
10
2.667134842519685
20
-1.753324842519685
11
2.6666939370078739
21
-1.7543892519685038
0
LINE
8
BLACK
6
CONTINUOUS
10
2.6666939370078739
20
-1.7543892519685038
11
2.6658792913385825
21
-1.7552038976377953
0
LINE
8
BLACK
6
CONTINUOUS
10
2.6658792913385825
20
-1.7552038976377953
11
2.6648148818897637
21
-1.7556448031496064
0
LINE
8
BLACK
6
CONTINUOUS
10
2.6648148818897637
20
-1.7556448031496064
11
2.6642388188976378
21
-1.7557015354330707
0
LINE
8
BLACK
6
CONTINUOUS
10
2.6642388188976378
20
-1.7557015354330707
11
2.6398668897637796
21
-1.7557015354330707
0
LINE
8
BLACK
6
CONTINUOUS
10
2.6398668897637796
20
-1.7557015354330707
11
2.6392908267716533
21
-1.7556448031496064
0
LINE
8
BLACK
6
CONTINUOUS
10
2.6392908267716533
20
-1.7556448031496064
11
2.6382264173228345
21
-1.7552038976377953
0
LINE
8
BLACK
6
CONTINUOUS
10
2.6382264173228345
20
-1.7552038976377953
11
2.6374117716535435
21
-1.7543892519685038
0
LINE
8
BLACK
6
CONTINUOUS
10
2.6374117716535435
20
-1.7543892519685038
11
2.6369708661417324
21
-1.753324842519685
0
LINE
8
BLACK
6
CONTINUOUS
10
2.6369708661417324
20
-1.753324842519685
11
2.6369708661417324
21
-1.7521727165354331
0
LINE
8
BLACK
6
CONTINUOUS
10
2.6369708661417324
20
-1.7521727165354331
11
2.6374117716535435
21
-1.751108307086614
0
LINE
8
BLACK
6
CONTINUOUS
10
2.6374117716535435
20
-1.751108307086614
11
2.6377789763779527
21
-1.7506608661417322
0
LINE
8
BLACK
6
CONTINUOUS
10
2.6377789763779527
20
-1.7506608661417322
11
2.6597832283464564
21
-1.7286565354330707
0
LINE
8
BLACK
6
CONTINUOUS
10
2.6597832283464564
20
-1.7286565354330707
11
2.6612860629921258
21
-1.7241481496062991
0
LINE
8
BLACK
6
CONTINUOUS
10
2.6612860629921258
20
-1.7241481496062991
11
2.6612860629921258
21
-1.7215748031496063
0
LINE
8
BLACK
6
CONTINUOUS
10
2.6612860629921258
20
-1.7215748031496063
11
2.6599373228346455
21
-1.7188773228346457
0
LINE
8
BLACK
6
CONTINUOUS
10
2.6599373228346455
20
-1.7188773228346457
11
2.6587401968503936
21
-1.7176801968503936
0
LINE
8
BLACK
6
CONTINUOUS
10
2.6587401968503936
20
-1.7176801968503936
11
2.656042716535433
21
-1.7163314566929133
0
LINE
8
BLACK
6
CONTINUOUS
10
2.656042716535433
20
-1.7163314566929133
11
2.6480629921259844
21
-1.7163314566929133
0
LINE
8
BLACK
6
CONTINUOUS
10
2.6480629921259844
20
-1.7163314566929133
11
2.6453655118110238
21
-1.7176801968503936
0
LINE
8
BLACK
6
CONTINUOUS
10
2.6453655118110238
20
-1.7176801968503936
11
2.6438295669291336
21
-1.7192161417322833
0
LINE
8
BLACK
6
CONTINUOUS
10
2.6438295669291336
20
-1.7192161417322833
11
2.6433821259842518
21
-1.719583346456693
0
LINE
8
BLACK
6
CONTINUOUS
10
2.6433821259842518
20
-1.719583346456693
11
2.6423176771653543
21
-1.7200242519685038
0
LINE
8
BLACK
6
CONTINUOUS
10
2.6423176771653543
20
-1.7200242519685038
11
2.6411656299212596
21
-1.7200242519685038
0
LINE
8
BLACK
6
CONTINUOUS
10
2.6411656299212596
20
-1.7200242519685038
11
2.640101181102362
21
-1.719583346456693
0
LINE
8
BLACK
6
CONTINUOUS
10
2.640101181102362
20
-1.719583346456693
11
2.639286535433071
21
-1.7187687007874015
0
LINE
8
BLACK
6
CONTINUOUS
10
2.639286535433071
20
-1.7187687007874015
11
2.6388456299212599
21
-1.717704251968504
0
LINE
8
BLACK
6
CONTINUOUS
10
2.6388456299212599
20
-1.717704251968504
11
2.6388456299212599
21
-1.7165522047244095
0
LINE
8
BLACK
6
CONTINUOUS
10
2.6388456299212599
20
-1.7165522047244095
11
2.639286535433071
21
-1.7154877559055117
0
LINE
8
BLACK
6
CONTINUOUS
10
2.639286535433071
20
-1.7154877559055117
11
2.6396537401574802
21
-1.7150403149606299
0
LINE
8
BLACK
6
CONTINUOUS
10
2.6396537401574802
20
-1.7150403149606299
11
2.6415285039370078
21
-1.7131655511811024
0
LINE
8
BLACK
6
CONTINUOUS
10
2.6415285039370078
20
-1.7131655511811024
11
2.6417548425196848
21
-1.7129797637795274
0
LINE
8
BLACK
6
CONTINUOUS
10
2.6417548425196848
20
-1.7129797637795274
11
2.6418060236220473
21
-1.7129207874015748
0
LINE
8
BLACK
6
CONTINUOUS
10
2.6418060236220473
20
-1.7129207874015748
11
2.6418949606299211
21
-1.7128648031496063
0
LINE
8
BLACK
6
CONTINUOUS
10
2.6418949606299211
20
-1.7128648031496063
11
2.6419759448818896
21
-1.7127983464566929
0
LINE
8
BLACK
6
CONTINUOUS
10
2.6419759448818896
20
-1.7127983464566929
11
2.642047874015748
21
-1.7127685039370077
0
LINE
8
BLACK
6
CONTINUOUS
10
2.642047874015748
20
-1.7127685039370077
11
2.6422959055118111
21
-1.7126124409448817
0
LINE
8
BLACK
6
CONTINUOUS
10
2.6422959055118111
20
-1.7126124409448817
11
2.6460454330708663
21
-1.7107376771653542
0
LINE
8
BLACK
6
CONTINUOUS
10
2.6460454330708663
20
-1.7107376771653542
11
2.6465860236220471
21
-1.7105307874015747
0
LINE
8
BLACK
6
CONTINUOUS
10
2.6465860236220471
20
-1.7105307874015747
11
2.6466918897637797
21
-1.7105232283464566
0
LINE
8
BLACK
6
CONTINUOUS
10
2.6466918897637797
20
-1.7105232283464566
11
2.6467898818897639
21
-1.7104826771653543
0
LINE
8
BLACK
6
CONTINUOUS
10
2.6467898818897639
20
-1.7104826771653543
11
2.6473659448818898
21
-1.7104259448818897
0
LINE
8
BLACK
6
CONTINUOUS
10
2.6473659448818898
20
-1.7104259448818897
11
2.6567397637795276
21
-1.7104259448818897
0
LINE
8
BLACK
6
CONTINUOUS
10
2.6567397637795276
20
-1.7104259448818897
11
2.6573158267716535
21
-1.7104826771653543
0
LINE
8
BLACK
6
CONTINUOUS
10
1.6598084251968503
20
-1.2907010236220473
11
1.660873779527559
21
-1.291766377952756
0
LINE
8
BLACK
6
CONTINUOUS
10
1.660873779527559
20
-1.291766377952756
11
1.6610236220472441
21
-1.2925196850393701
0
LINE
8
BLACK
6
CONTINUOUS
10
1.6610236220472441
20
-1.2925196850393701
11
1.6610236220472441
21
-1.4303149606299213
0
LINE
8
BLACK
6
CONTINUOUS
10
1.6610236220472441
20
-1.4303149606299213
11
1.660873779527559
21
-1.4310682677165354
0
LINE
8
BLACK
6
CONTINUOUS
10
1.660873779527559
20
-1.4310682677165354
11
1.6598084251968503
21
-1.432133622047244
0
LINE
8
BLACK
6
CONTINUOUS
10
1.6598084251968503
20
-1.432133622047244
11
1.6590551181102362
21
-1.4322834645669291
0
LINE
8
BLACK
6
CONTINUOUS
10
1.6590551181102362
20
-1.4322834645669291
11
1.5114173228346457
21
-1.4322834645669291
0
LINE
8
BLACK
6
CONTINUOUS
10
1.5114173228346457
20
-1.4322834645669291
11
1.5106640157480316
21
-1.432133622047244
0
LINE
8
BLACK
6
CONTINUOUS
10
1.5106640157480316
20
-1.432133622047244
11
1.5095986614173229
21
-1.4310682677165354
0
LINE
8
BLACK
6
CONTINUOUS
10
1.5095986614173229
20
-1.4310682677165354
11
1.5094488188976378
21
-1.4303149606299213
0
LINE
8
BLACK
6
CONTINUOUS
10
1.5094488188976378
20
-1.4303149606299213
11
1.5094488188976378
21
-1.2925196850393701
0
LINE
8
BLACK
6
CONTINUOUS
10
1.5094488188976378
20
-1.2925196850393701
11
1.5095986614173229
21
-1.291766377952756
0
LINE
8
BLACK
6
CONTINUOUS
10
1.5095986614173229
20
-1.291766377952756
11
1.5106640157480316
21
-1.2907010236220473
0
LINE
8
BLACK
6
CONTINUOUS
10
1.5106640157480316
20
-1.2907010236220473
11
1.5114173228346457
21
-1.2905511811023622
0
LINE
8
BLACK
6
CONTINUOUS
10
1.5114173228346457
20
-1.2905511811023622
11
1.6590551181102362
21
-1.2905511811023622
0
LINE
8
BLACK
6
CONTINUOUS
10
1.6590551181102362
20
-1.2905511811023622
11
1.6598084251968503
21
-1.2907010236220473
0
LINE
8
BLACK
6
CONTINUOUS
10
1.5133858267716536
20
-1.294488188976378
11
1.5133858267716536
21
-1.4283464566929134
0
LINE
8
BLACK
6
CONTINUOUS
10
1.5133858267716536
20
-1.4283464566929134
11
1.6570866141732283
21
-1.4283464566929134
0
LINE
8
BLACK
6
CONTINUOUS
10
1.6570866141732283
20
-1.4283464566929134
11
1.6570866141732283
21
-1.294488188976378
0
LINE
8
BLACK
6
CONTINUOUS
10
1.6570866141732283
20
-1.294488188976378
11
1.5133858267716536
21
-1.294488188976378
0
LINE
8
BLACK
6
CONTINUOUS
10
1.8598084251968503
20
-1.2907010236220473
11
1.8608737795275589
21
-1.291766377952756
0
LINE
8
BLACK
6
CONTINUOUS
10
1.8608737795275589
20
-1.291766377952756
11
1.861023622047244
21
-1.2925196850393701
0
LINE
8
BLACK
6
CONTINUOUS
10
1.861023622047244
20
-1.2925196850393701
11
1.861023622047244
21
-1.4303149606299213
0
LINE
8
BLACK
6
CONTINUOUS
10
1.861023622047244
20
-1.4303149606299213
11
1.8608737795275589
21
-1.4310682677165354
0
LINE
8
BLACK
6
CONTINUOUS
10
1.8608737795275589
20
-1.4310682677165354
11
1.8598084251968503
21
-1.432133622047244
0
LINE
8
BLACK
6
CONTINUOUS
10
1.8598084251968503
20
-1.432133622047244
11
1.8590551181102362
21
-1.4322834645669291
0
LINE
8
BLACK
6
CONTINUOUS
10
1.8590551181102362
20
-1.4322834645669291
11
1.7114173228346456
21
-1.4322834645669291
0
LINE
8
BLACK
6
CONTINUOUS
10
1.7114173228346456
20
-1.4322834645669291
11
1.7106640157480315
21
-1.432133622047244
0
LINE
8
BLACK
6
CONTINUOUS
10
1.7106640157480315
20
-1.432133622047244
11
1.7095986614173229
21
-1.4310682677165354
0
LINE
8
BLACK
6
CONTINUOUS
10
1.7095986614173229
20
-1.4310682677165354
11
1.7094488188976378
21
-1.4303149606299213
0
LINE
8
BLACK
6
CONTINUOUS
10
1.7094488188976378
20
-1.4303149606299213
11
1.7094488188976378
21
-1.2925196850393701
0
LINE
8
BLACK
6
CONTINUOUS
10
1.7094488188976378
20
-1.2925196850393701
11
1.7095986614173229
21
-1.291766377952756
0
LINE
8
BLACK
6
CONTINUOUS
10
1.7095986614173229
20
-1.291766377952756
11
1.7106640157480315
21
-1.2907010236220473
0
LINE
8
BLACK
6
CONTINUOUS
10
1.7106640157480315
20
-1.2907010236220473
11
1.7114173228346456
21
-1.2905511811023622
0
LINE
8
BLACK
6
CONTINUOUS
10
1.7114173228346456
20
-1.2905511811023622
11
1.8590551181102362
21
-1.2905511811023622
0
LINE
8
BLACK
6
CONTINUOUS
10
1.8590551181102362
20
-1.2905511811023622
11
1.8598084251968503
21
-1.2907010236220473
0
LINE
8
BLACK
6
CONTINUOUS
10
1.7133858267716535
20
-1.294488188976378
11
1.7133858267716535
21
-1.4283464566929134
0
LINE
8
BLACK
6
CONTINUOUS
10
1.7133858267716535
20
-1.4283464566929134
11
1.8570866141732283
21
-1.4283464566929134
0
LINE
8
BLACK
6
CONTINUOUS
10
1.8570866141732283
20
-1.4283464566929134
11
1.8570866141732283
21
-1.294488188976378
0
LINE
8
BLACK
6
CONTINUOUS
10
1.8570866141732283
20
-1.294488188976378
11
1.7133858267716535
21
-1.294488188976378
0
LINE
8
BLACK
6
CONTINUOUS
10
2.0598084251968505
20
-1.2907010236220473
11
2.0608737795275589
21
-1.291766377952756
0
LINE
8
BLACK
6
CONTINUOUS
10
2.0608737795275589
20
-1.291766377952756
11
2.061023622047244
21
-1.2925196850393701
0
LINE
8
BLACK
6
CONTINUOUS
10
2.061023622047244
20
-1.2925196850393701
11
2.061023622047244
21
-1.4303149606299213
0
LINE
8
BLACK
6
CONTINUOUS
10
2.061023622047244
20
-1.4303149606299213
11
2.0608737795275589
21
-1.4310682677165354
0
LINE
8
BLACK
6
CONTINUOUS
10
2.0608737795275589
20
-1.4310682677165354
11
2.0598084251968505
21
-1.432133622047244
0
LINE
8
BLACK
6
CONTINUOUS
10
2.0598084251968505
20
-1.432133622047244
11
2.0590551181102361
21
-1.4322834645669291
0
LINE
8
BLACK
6
CONTINUOUS
10
2.0590551181102361
20
-1.4322834645669291
11
1.9114173228346456
21
-1.4322834645669291
0
LINE
8
BLACK
6
CONTINUOUS
10
1.9114173228346456
20
-1.4322834645669291
11
1.9106640157480315
21
-1.432133622047244
0
LINE
8
BLACK
6
CONTINUOUS
10
1.9106640157480315
20
-1.432133622047244
11
1.9095986614173228
21
-1.4310682677165354
0
LINE
8
BLACK
6
CONTINUOUS
10
1.9095986614173228
20
-1.4310682677165354
11
1.9094488188976377
21
-1.4303149606299213
0
LINE
8
BLACK
6
CONTINUOUS
10
1.9094488188976377
20
-1.4303149606299213
11
1.9094488188976377
21
-1.2925196850393701
0
LINE
8
BLACK
6
CONTINUOUS
10
1.9094488188976377
20
-1.2925196850393701
11
1.9095986614173228
21
-1.291766377952756
0
LINE
8
BLACK
6
CONTINUOUS
10
1.9095986614173228
20
-1.291766377952756
11
1.9106640157480315
21
-1.2907010236220473
0
LINE
8
BLACK
6
CONTINUOUS
10
1.9106640157480315
20
-1.2907010236220473
11
1.9114173228346456
21
-1.2905511811023622
0
LINE
8
BLACK
6
CONTINUOUS
10
1.9114173228346456
20
-1.2905511811023622
11
2.0590551181102361
21
-1.2905511811023622
0
LINE
8
BLACK
6
CONTINUOUS
10
2.0590551181102361
20
-1.2905511811023622
11
2.0598084251968505
21
-1.2907010236220473
0
LINE
8
BLACK
6
CONTINUOUS
10
1.9133858267716535
20
-1.294488188976378
11
1.9133858267716535
21
-1.4283464566929134
0
LINE
8
BLACK
6
CONTINUOUS
10
1.9133858267716535
20
-1.4283464566929134
11
2.0570866141732282
21
-1.4283464566929134
0
LINE
8
BLACK
6
CONTINUOUS
10
2.0570866141732282
20
-1.4283464566929134
11
2.0570866141732282
21
-1.294488188976378
0
LINE
8
BLACK
6
CONTINUOUS
10
2.0570866141732282
20
-1.294488188976378
11
1.9133858267716535
21
-1.294488188976378
0
LINE
8
BLACK
6
CONTINUOUS
10
2.2598084251968502
20
-1.2907010236220473
11
2.2608737795275591
21
-1.291766377952756
0
LINE
8
BLACK
6
CONTINUOUS
10
2.2608737795275591
20
-1.291766377952756
11
2.2610236220472442
21
-1.2925196850393701
0
LINE
8
BLACK
6
CONTINUOUS
10
2.2610236220472442
20
-1.2925196850393701
11
2.2610236220472442
21
-1.4303149606299213
0
LINE
8
BLACK
6
CONTINUOUS
10
2.2610236220472442
20
-1.4303149606299213
11
2.2608737795275591
21
-1.4310682677165354
0
LINE
8
BLACK
6
CONTINUOUS
10
2.2608737795275591
20
-1.4310682677165354
11
2.2598084251968502
21
-1.432133622047244
0
LINE
8
BLACK
6
CONTINUOUS
10
2.2598084251968502
20
-1.432133622047244
11
2.2590551181102363
21
-1.4322834645669291
0
LINE
8
BLACK
6
CONTINUOUS
10
2.2590551181102363
20
-1.4322834645669291
11
2.1114173228346456
21
-1.4322834645669291
0
LINE
8
BLACK
6
CONTINUOUS
10
2.1114173228346456
20
-1.4322834645669291
11
2.1106640157480316
21
-1.432133622047244
0
LINE
8
BLACK
6
CONTINUOUS
10
2.1106640157480316
20
-1.432133622047244
11
2.1095986614173228
21
-1.4310682677165354
0
LINE
8
BLACK
6
CONTINUOUS
10
2.1095986614173228
20
-1.4310682677165354
11
2.1094488188976377
21
-1.4303149606299213
0
LINE
8
BLACK
6
CONTINUOUS
10
2.1094488188976377
20
-1.4303149606299213
11
2.1094488188976377
21
-1.2925196850393701
0
LINE
8
BLACK
6
CONTINUOUS
10
2.1094488188976377
20
-1.2925196850393701
11
2.1095986614173228
21
-1.291766377952756
0
LINE
8
BLACK
6
CONTINUOUS
10
2.1095986614173228
20
-1.291766377952756
11
2.1106640157480316
21
-1.2907010236220473
0
LINE
8
BLACK
6
CONTINUOUS
10
2.1106640157480316
20
-1.2907010236220473
11
2.1114173228346456
21
-1.2905511811023622
0
LINE
8
BLACK
6
CONTINUOUS
10
2.1114173228346456
20
-1.2905511811023622
11
2.2590551181102363
21
-1.2905511811023622
0
LINE
8
BLACK
6
CONTINUOUS
10
2.2590551181102363
20
-1.2905511811023622
11
2.2598084251968502
21
-1.2907010236220473
0
LINE
8
BLACK
6
CONTINUOUS
10
2.1133858267716534
20
-1.294488188976378
11
2.1133858267716534
21
-1.4283464566929134
0
LINE
8
BLACK
6
CONTINUOUS
10
2.1133858267716534
20
-1.4283464566929134
11
2.2570866141732284
21
-1.4283464566929134
0
LINE
8
BLACK
6
CONTINUOUS
10
2.2570866141732284
20
-1.4283464566929134
11
2.2570866141732284
21
-1.294488188976378
0
LINE
8
BLACK
6
CONTINUOUS
10
2.2570866141732284
20
-1.294488188976378
11
2.1133858267716534
21
-1.294488188976378
0
LINE
8
BLACK
6
CONTINUOUS
10
2.4598084251968504
20
-1.2907010236220473
11
2.4608737795275588
21
-1.291766377952756
0
LINE
8
BLACK
6
CONTINUOUS
10
2.4608737795275588
20
-1.291766377952756
11
2.4610236220472439
21
-1.2925196850393701
0
LINE
8
BLACK
6
CONTINUOUS
10
2.4610236220472439
20
-1.2925196850393701
11
2.4610236220472439
21
-1.4303149606299213
0
LINE
8
BLACK
6
CONTINUOUS
10
2.4610236220472439
20
-1.4303149606299213
11
2.4608737795275588
21
-1.4310682677165354
0
LINE
8
BLACK
6
CONTINUOUS
10
2.4608737795275588
20
-1.4310682677165354
11
2.4598084251968504
21
-1.432133622047244
0
LINE
8
BLACK
6
CONTINUOUS
10
2.4598084251968504
20
-1.432133622047244
11
2.459055118110236
21
-1.4322834645669291
0
LINE
8
BLACK
6
CONTINUOUS
10
2.459055118110236
20
-1.4322834645669291
11
2.3114173228346457
21
-1.4322834645669291
0
LINE
8
BLACK
6
CONTINUOUS
10
2.3114173228346457
20
-1.4322834645669291
11
2.3106640157480314
21
-1.432133622047244
0
LINE
8
BLACK
6
CONTINUOUS
10
2.3106640157480314
20
-1.432133622047244
11
2.309598661417323
21
-1.4310682677165354
0
LINE
8
BLACK
6
CONTINUOUS
10
2.309598661417323
20
-1.4310682677165354
11
2.3094488188976379
21
-1.4303149606299213
0
LINE
8
BLACK
6
CONTINUOUS
10
2.3094488188976379
20
-1.4303149606299213
11
2.3094488188976379
21
-1.2925196850393701
0
LINE
8
BLACK
6
CONTINUOUS
10
2.3094488188976379
20
-1.2925196850393701
11
2.309598661417323
21
-1.291766377952756
0
LINE
8
BLACK
6
CONTINUOUS
10
2.309598661417323
20
-1.291766377952756
11
2.3106640157480314
21
-1.2907010236220473
0
LINE
8
BLACK
6
CONTINUOUS
10
2.3106640157480314
20
-1.2907010236220473
11
2.3114173228346457
21
-1.2905511811023622
0
LINE
8
BLACK
6
CONTINUOUS
10
2.3114173228346457
20
-1.2905511811023622
11
2.459055118110236
21
-1.2905511811023622
0
LINE
8
BLACK
6
CONTINUOUS
10
2.459055118110236
20
-1.2905511811023622
11
2.4598084251968504
21
-1.2907010236220473
0
LINE
8
BLACK
6
CONTINUOUS
10
2.3133858267716536
20
-1.294488188976378
11
2.3133858267716536
21
-1.4283464566929134
0
LINE
8
BLACK
6
CONTINUOUS
10
2.3133858267716536
20
-1.4283464566929134
11
2.4570866141732282
21
-1.4283464566929134
0
LINE
8
BLACK
6
CONTINUOUS
10
2.4570866141732282
20
-1.4283464566929134
11
2.4570866141732282
21
-1.294488188976378
0
LINE
8
BLACK
6
CONTINUOUS
10
2.4570866141732282
20
-1.294488188976378
11
2.3133858267716536
21
-1.294488188976378
0
LINE
8
BLACK
6
CONTINUOUS
10
1.6818556692913385
20
-1.0365671653543307
11
1.6829210236220471
21
-1.0376325196850393
0
LINE
8
BLACK
6
CONTINUOUS
10
1.6829210236220471
20
-1.0376325196850393
11
1.6830708661417322
21
-1.0383858267716535
0
LINE
8
BLACK
6
CONTINUOUS
10
1.6830708661417322
20
-1.0383858267716535
11
1.6830708661417322
21
-1.2057086614173229
0
LINE
8
BLACK
6
CONTINUOUS
10
1.6830708661417322
20
-1.2057086614173229
11
1.6829210236220471
21
-1.2064619685039371
0
LINE
8
BLACK
6
CONTINUOUS
10
1.6829210236220471
20
-1.2064619685039371
11
1.6818556692913385
21
-1.2075273228346457
0
LINE
8
BLACK
6
CONTINUOUS
10
1.6818556692913385
20
-1.2075273228346457
11
1.6811023622047243
21
-1.2076771653543308
0
LINE
8
BLACK
6
CONTINUOUS
10
1.6811023622047243
20
-1.2076771653543308
11
1.515748031496063
21
-1.2076771653543308
0
LINE
8
BLACK
6
CONTINUOUS
10
1.515748031496063
20
-1.2076771653543308
11
1.5149947244094488
21
-1.2075273228346457
0
LINE
8
BLACK
6
CONTINUOUS
10
1.5149947244094488
20
-1.2075273228346457
11
1.5139293700787402
21
-1.2064619685039371
0
LINE
8
BLACK
6
CONTINUOUS
10
1.5139293700787402
20
-1.2064619685039371
11
1.5137795275590551
21
-1.2057086614173229
0
LINE
8
BLACK
6
CONTINUOUS
10
1.5137795275590551
20
-1.2057086614173229
11
1.5137795275590551
21
-1.0383858267716535
0
LINE
8
BLACK
6
CONTINUOUS
10
1.5137795275590551
20
-1.0383858267716535
11
1.5139293700787402
21
-1.0376325196850393
0
LINE
8
BLACK
6
CONTINUOUS
10
1.5139293700787402
20
-1.0376325196850393
11
1.5149947244094488
21
-1.0365671653543307
0
LINE
8
BLACK
6
CONTINUOUS
10
1.5149947244094488
20
-1.0365671653543307
11
1.515748031496063
21
-1.0364173228346456
0
LINE
8
BLACK
6
CONTINUOUS
10
1.515748031496063
20
-1.0364173228346456
11
1.6811023622047243
21
-1.0364173228346456
0
LINE
8
BLACK
6
CONTINUOUS
10
1.6811023622047243
20
-1.0364173228346456
11
1.6818556692913385
21
-1.0365671653543307
0
LINE
8
BLACK
6
CONTINUOUS
10
1.5177165354330708
20
-1.0403543307086613
11
1.5177165354330708
21
-1.203740157480315
0
LINE
8
BLACK
6
CONTINUOUS
10
1.5177165354330708
20
-1.203740157480315
11
1.6791338582677164
21
-1.203740157480315
0
LINE
8
BLACK
6
CONTINUOUS
10
1.6791338582677164
20
-1.203740157480315
11
1.6791338582677164
21
-1.0403543307086613
0
LINE
8
BLACK
6
CONTINUOUS
10
1.6791338582677164
20
-1.0403543307086613
11
1.5177165354330708
21
-1.0403543307086613
0
LINE
8
BLACK
6
CONTINUOUS
10
2.0637454330708662
20
-1.0365671653543307
11
2.0648107874015746
21
-1.0376325196850393
0
LINE
8
BLACK
6
CONTINUOUS
10
2.0648107874015746
20
-1.0376325196850393
11
2.0649606299212597
21
-1.0383858267716535
0
LINE
8
BLACK
6
CONTINUOUS
10
2.0649606299212597
20
-1.0383858267716535
11
2.0649606299212597
21
-1.2057086614173229
0
LINE
8
BLACK
6
CONTINUOUS
10
2.0649606299212597
20
-1.2057086614173229
11
2.0648107874015746
21
-1.2064619685039371
0
LINE
8
BLACK
6
CONTINUOUS
10
2.0648107874015746
20
-1.2064619685039371
11
2.0637454330708662
21
-1.2075273228346457
0
LINE
8
BLACK
6
CONTINUOUS
10
2.0637454330708662
20
-1.2075273228346457
11
2.0629921259842519
21
-1.2076771653543308
0
LINE
8
BLACK
6
CONTINUOUS
10
2.0629921259842519
20
-1.2076771653543308
11
1.8976377952755905
21
-1.2076771653543308
0
LINE
8
BLACK
6
CONTINUOUS
10
1.8976377952755905
20
-1.2076771653543308
11
1.8968844881889764
21
-1.2075273228346457
0
LINE
8
BLACK
6
CONTINUOUS
10
1.8968844881889764
20
-1.2075273228346457
11
1.8958191338582677
21
-1.2064619685039371
0
LINE
8
BLACK
6
CONTINUOUS
10
1.8958191338582677
20
-1.2064619685039371
11
1.8956692913385826
21
-1.2057086614173229
0
LINE
8
BLACK
6
CONTINUOUS
10
1.8956692913385826
20
-1.2057086614173229
11
1.8956692913385826
21
-1.0383858267716535
0
LINE
8
BLACK
6
CONTINUOUS
10
1.8956692913385826
20
-1.0383858267716535
11
1.8958191338582677
21
-1.0376325196850393
0
LINE
8
BLACK
6
CONTINUOUS
10
1.8958191338582677
20
-1.0376325196850393
11
1.8968844881889764
21
-1.0365671653543307
0
LINE
8
BLACK
6
CONTINUOUS
10
1.8968844881889764
20
-1.0365671653543307
11
1.8976377952755905
21
-1.0364173228346456
0
LINE
8
BLACK
6
CONTINUOUS
10
1.8976377952755905
20
-1.0364173228346456
11
2.0629921259842519
21
-1.0364173228346456
0
LINE
8
BLACK
6
CONTINUOUS
10
2.0629921259842519
20
-1.0364173228346456
11
2.0637454330708662
21
-1.0365671653543307
0
LINE
8
BLACK
6
CONTINUOUS
10
1.8996062992125984
20
-1.0403543307086613
11
1.8996062992125984
21
-1.203740157480315
0
LINE
8
BLACK
6
CONTINUOUS
10
1.8996062992125984
20
-1.203740157480315
11
2.061023622047244
21
-1.203740157480315
0
LINE
8
BLACK
6
CONTINUOUS
10
2.061023622047244
20
-1.203740157480315
11
2.061023622047244
21
-1.0403543307086613
0
LINE
8
BLACK
6
CONTINUOUS
10
2.061023622047244
20
-1.0403543307086613
11
1.8996062992125984
21
-1.0403543307086613
0
LINE
8
BLACK
6
CONTINUOUS
10
2.4637454330708661
20
-1.0365671653543307
11
2.4648107874015746
21
-1.0376325196850393
0
LINE
8
BLACK
6
CONTINUOUS
10
2.4648107874015746
20
-1.0376325196850393
11
2.4649606299212596
21
-1.0383858267716535
0
LINE
8
BLACK
6
CONTINUOUS
10
2.4649606299212596
20
-1.0383858267716535
11
2.4649606299212596
21
-1.2057086614173229
0
LINE
8
BLACK
6
CONTINUOUS
10
2.4649606299212596
20
-1.2057086614173229
11
2.4648107874015746
21
-1.2064619685039371
0
LINE
8
BLACK
6
CONTINUOUS
10
2.4648107874015746
20
-1.2064619685039371
11
2.4637454330708661
21
-1.2075273228346457
0
LINE
8
BLACK
6
CONTINUOUS
10
2.4637454330708661
20
-1.2075273228346457
11
2.4629921259842518
21
-1.2076771653543308
0
LINE
8
BLACK
6
CONTINUOUS
10
2.4629921259842518
20
-1.2076771653543308
11
2.2976377952755906
21
-1.2076771653543308
0
LINE
8
BLACK
6
CONTINUOUS
10
2.2976377952755906
20
-1.2076771653543308
11
2.2968844881889763
21
-1.2075273228346457
0
LINE
8
BLACK
6
CONTINUOUS
10
2.2968844881889763
20
-1.2075273228346457
11
2.2958191338582679
21
-1.2064619685039371
0
LINE
8
BLACK
6
CONTINUOUS
10
2.2958191338582679
20
-1.2064619685039371
11
2.2956692913385828
21
-1.2057086614173229
0
LINE
8
BLACK
6
CONTINUOUS
10
2.2956692913385828
20
-1.2057086614173229
11
2.2956692913385828
21
-1.0383858267716535
0
LINE
8
BLACK
6
CONTINUOUS
10
2.2956692913385828
20
-1.0383858267716535
11
2.2958191338582679
21
-1.0376325196850393
0
LINE
8
BLACK
6
CONTINUOUS
10
2.2958191338582679
20
-1.0376325196850393
11
2.2968844881889763
21
-1.0365671653543307
0
LINE
8
BLACK
6
CONTINUOUS
10
2.2968844881889763
20
-1.0365671653543307
11
2.2976377952755906
21
-1.0364173228346456
0
LINE
8
BLACK
6
CONTINUOUS
10
2.2976377952755906
20
-1.0364173228346456
11
2.4629921259842518
21
-1.0364173228346456
0
LINE
8
BLACK
6
CONTINUOUS
10
2.4629921259842518
20
-1.0364173228346456
11
2.4637454330708661
21
-1.0365671653543307
0
LINE
8
BLACK
6
CONTINUOUS
10
2.2996062992125985
20
-1.0403543307086613
11
2.2996062992125985
21
-1.203740157480315
0
LINE
8
BLACK
6
CONTINUOUS
10
2.2996062992125985
20
-1.203740157480315
11
2.4610236220472439
21
-1.203740157480315
0
LINE
8
BLACK
6
CONTINUOUS
10
2.4610236220472439
20
-1.203740157480315
11
2.4610236220472439
21
-1.0403543307086613
0
LINE
8
BLACK
6
CONTINUOUS
10
2.4610236220472439
20
-1.0403543307086613
11
2.2996062992125985
21
-1.0403543307086613
0
LINE
8
BLACK
6
CONTINUOUS
10
1.7637794881889763
20
-2.9311023622047245
11
1.6968503543307085
21
-2.9311023622047245
0
LINE
8
BLACK
6
CONTINUOUS
10
1.6968503543307085
20
-2.9311023622047245
11
1.6968503543307085
21
-2.8641732283464565
0
LINE
8
BLACK
6
CONTINUOUS
10
1.6968503543307085
20
-2.8641732283464565
11
1.7637794881889763
21
-2.8641732283464565
0
LINE
8
BLACK
6
CONTINUOUS
10
1.7637794881889763
20
-2.8641732283464565
11
1.7637794881889763
21
-2.9311023622047245
0
LINE
8
BLACK
6
CONTINUOUS
10
1.8400291732283465
20
-2.865614212598425
11
1.84609
21
-2.86812468503937
0
LINE
8
BLACK
6
CONTINUOUS
10
1.84609
20
-2.86812468503937
11
1.8515446062992125
21
-2.8717693307086614
0
LINE
8
BLACK
6
CONTINUOUS
10
1.8515446062992125
20
-2.8717693307086614
11
1.8561833858267716
21
-2.8764081102362202
0
LINE
8
BLACK
6
CONTINUOUS
10
1.8561833858267716
20
-2.8764081102362202
11
1.8598280314960629
21
-2.8818627165354331
0
LINE
8
BLACK
6
CONTINUOUS
10
1.8598280314960629
20
-2.8818627165354331
11
1.8623385039370077
21
-2.8879235433070867
0
LINE
8
BLACK
6
CONTINUOUS
10
1.8623385039370077
20
-2.8879235433070867
11
1.8636183464566929
21
-2.8943576771653543
0
LINE
8
BLACK
6
CONTINUOUS
10
1.8636183464566929
20
-2.8943576771653543
11
1.8636183464566929
21
-2.9009179133858267
0
LINE
8
BLACK
6
CONTINUOUS
10
1.8636183464566929
20
-2.9009179133858267
11
1.8623385039370077
21
-2.9073520472440944
0
LINE
8
BLACK
6
CONTINUOUS
10
1.8623385039370077
20
-2.9073520472440944
11
1.8598280314960629
21
-2.9134128740157479
0
LINE
8
BLACK
6
CONTINUOUS
10
1.8598280314960629
20
-2.9134128740157479
11
1.8561833858267716
21
-2.9188674803149603
0
LINE
8
BLACK
6
CONTINUOUS
10
1.8561833858267716
20
-2.9188674803149603
11
1.8515446062992125
21
-2.9235062598425197
0
LINE
8
BLACK
6
CONTINUOUS
10
1.8515446062992125
20
-2.9235062598425197
11
1.84609
21
-2.927150905511811
0
LINE
8
BLACK
6
CONTINUOUS
10
1.84609
20
-2.927150905511811
11
1.8400291732283465
21
-2.9296613779527561
0
LINE
8
BLACK
6
CONTINUOUS
10
1.8400291732283465
20
-2.9296613779527561
11
1.8335950393700786
21
-2.930941220472441
0
LINE
8
BLACK
6
CONTINUOUS
10
1.8335950393700786
20
-2.930941220472441
11
1.8270348031496062
21
-2.930941220472441
0
LINE
8
BLACK
6
CONTINUOUS
10
1.8270348031496062
20
-2.930941220472441
11
1.8206006692913386
21
-2.9296613779527561
0
LINE
8
BLACK
6
CONTINUOUS
10
1.8206006692913386
20
-2.9296613779527561
11
1.814539842519685
21
-2.927150905511811
0
LINE
8
BLACK
6
CONTINUOUS
10
1.814539842519685
20
-2.927150905511811
11
1.8090852362204723
21
-2.9235062598425197
0
LINE
8
BLACK
6
CONTINUOUS
10
1.8090852362204723
20
-2.9235062598425197
11
1.8044464566929133
21
-2.9188674803149603
0
LINE
8
BLACK
6
CONTINUOUS
10
1.8044464566929133
20
-2.9188674803149603
11
1.8008018110236219
21
-2.9134128740157479
0
LINE
8
BLACK
6
CONTINUOUS
10
1.8008018110236219
20
-2.9134128740157479
11
1.7982913385826771
21
-2.9073520472440944
0
LINE
8
BLACK
6
CONTINUOUS
10
1.7982913385826771
20
-2.9073520472440944
11
1.7970114960629922
21
-2.9009179133858267
0
LINE
8
BLACK
6
CONTINUOUS
10
1.7970114960629922
20
-2.9009179133858267
11
1.7970114960629922
21
-2.8943576771653543
0
LINE
8
BLACK
6
CONTINUOUS
10
1.7970114960629922
20
-2.8943576771653543
11
1.7982913385826771
21
-2.8879235433070867
0
LINE
8
BLACK
6
CONTINUOUS
10
1.7982913385826771
20
-2.8879235433070867
11
1.8008018110236219
21
-2.8818627165354331
0
LINE
8
BLACK
6
CONTINUOUS
10
1.8008018110236219
20
-2.8818627165354331
11
1.8044464566929133
21
-2.8764081102362202
0
LINE
8
BLACK
6
CONTINUOUS
10
1.8044464566929133
20
-2.8764081102362202
11
1.8090852362204723
21
-2.8717693307086614
0
LINE
8
BLACK
6
CONTINUOUS
10
1.8090852362204723
20
-2.8717693307086614
11
1.814539842519685
21
-2.86812468503937
0
LINE
8
BLACK
6
CONTINUOUS
10
1.814539842519685
20
-2.86812468503937
11
1.8206006692913386
21
-2.865614212598425
0
LINE
8
BLACK
6
CONTINUOUS
10
1.8206006692913386
20
-2.865614212598425
11
1.8270348031496062
21
-2.86433437007874
0
LINE
8
BLACK
6
CONTINUOUS
10
1.8270348031496062
20
-2.86433437007874
11
1.8335950393700786
21
-2.86433437007874
0
LINE
8
BLACK
6
CONTINUOUS
10
1.8335950393700786
20
-2.86433437007874
11
1.8400291732283465
21
-2.865614212598425
0
LINE
8
BLACK
6
CONTINUOUS
10
1.9400291732283463
20
-2.865614212598425
11
1.9460899999999999
21
-2.86812468503937
0
LINE
8
BLACK
6
CONTINUOUS
10
1.9460899999999999
20
-2.86812468503937
11
1.9515446062992126
21
-2.8717693307086614
0
LINE
8
BLACK
6
CONTINUOUS
10
1.9515446062992126
20
-2.8717693307086614
11
1.9561833858267716
21
-2.8764081102362202
0
LINE
8
BLACK
6
CONTINUOUS
10
1.9561833858267716
20
-2.8764081102362202
11
1.959828031496063
21
-2.8818627165354331
0
LINE
8
BLACK
6
CONTINUOUS
10
1.959828031496063
20
-2.8818627165354331
11
1.9623385039370078
21
-2.8879235433070867
0
LINE
8
BLACK
6
CONTINUOUS
10
1.9623385039370078
20
-2.8879235433070867
11
1.963618346456693
21
-2.8943576771653543
0
LINE
8
BLACK
6
CONTINUOUS
10
1.963618346456693
20
-2.8943576771653543
11
1.963618346456693
21
-2.9009179133858267
0
LINE
8
BLACK
6
CONTINUOUS
10
1.963618346456693
20
-2.9009179133858267
11
1.9623385039370078
21
-2.9073520472440944
0
LINE
8
BLACK
6
CONTINUOUS
10
1.9623385039370078
20
-2.9073520472440944
11
1.959828031496063
21
-2.9134128740157479
0
LINE
8
BLACK
6
CONTINUOUS
10
1.959828031496063
20
-2.9134128740157479
11
1.9561833858267716
21
-2.9188674803149603
0
LINE
8
BLACK
6
CONTINUOUS
10
1.9561833858267716
20
-2.9188674803149603
11
1.9515446062992126
21
-2.9235062598425197
0
LINE
8
BLACK
6
CONTINUOUS
10
1.9515446062992126
20
-2.9235062598425197
11
1.9460899999999999
21
-2.927150905511811
0
LINE
8
BLACK
6
CONTINUOUS
10
1.9460899999999999
20
-2.927150905511811
11
1.9400291732283463
21
-2.9296613779527561
0
LINE
8
BLACK
6
CONTINUOUS
10
1.9400291732283463
20
-2.9296613779527561
11
1.9335950393700787
21
-2.930941220472441
0
LINE
8
BLACK
6
CONTINUOUS
10
1.9335950393700787
20
-2.930941220472441
11
1.9270348031496063
21
-2.930941220472441
0
LINE
8
BLACK
6
CONTINUOUS
10
1.9270348031496063
20
-2.930941220472441
11
1.9206006692913384
21
-2.9296613779527561
0
LINE
8
BLACK
6
CONTINUOUS
10
1.9206006692913384
20
-2.9296613779527561
11
1.9145398425196849
21
-2.927150905511811
0
LINE
8
BLACK
6
CONTINUOUS
10
1.9145398425196849
20
-2.927150905511811
11
1.9090852362204724
21
-2.9235062598425197
0
LINE
8
BLACK
6
CONTINUOUS
10
1.9090852362204724
20
-2.9235062598425197
11
1.9044464566929133
21
-2.9188674803149603
0
LINE
8
BLACK
6
CONTINUOUS
10
1.9044464566929133
20
-2.9188674803149603
11
1.900801811023622
21
-2.9134128740157479
0
LINE
8
BLACK
6
CONTINUOUS
10
1.900801811023622
20
-2.9134128740157479
11
1.8982913385826772
21
-2.9073520472440944
0
LINE
8
BLACK
6
CONTINUOUS
10
1.8982913385826772
20
-2.9073520472440944
11
1.897011496062992
21
-2.9009179133858267
0
LINE
8
BLACK
6
CONTINUOUS
10
1.897011496062992
20
-2.9009179133858267
11
1.897011496062992
21
-2.8943576771653543
0
LINE
8
BLACK
6
CONTINUOUS
10
1.897011496062992
20
-2.8943576771653543
11
1.8982913385826772
21
-2.8879235433070867
0
LINE
8
BLACK
6
CONTINUOUS
10
1.8982913385826772
20
-2.8879235433070867
11
1.900801811023622
21
-2.8818627165354331
0
LINE
8
BLACK
6
CONTINUOUS
10
1.900801811023622
20
-2.8818627165354331
11
1.9044464566929133
21
-2.8764081102362202
0
LINE
8
BLACK
6
CONTINUOUS
10
1.9044464566929133
20
-2.8764081102362202
11
1.9090852362204724
21
-2.8717693307086614
0
LINE
8
BLACK
6
CONTINUOUS
10
1.9090852362204724
20
-2.8717693307086614
11
1.9145398425196849
21
-2.86812468503937
0
LINE
8
BLACK
6
CONTINUOUS
10
1.9145398425196849
20
-2.86812468503937
11
1.9206006692913384
21
-2.865614212598425
0
LINE
8
BLACK
6
CONTINUOUS
10
1.9206006692913384
20
-2.865614212598425
11
1.9270348031496063
21
-2.86433437007874
0
LINE
8
BLACK
6
CONTINUOUS
10
1.9270348031496063
20
-2.86433437007874
11
1.9335950393700787
21
-2.86433437007874
0
LINE
8
BLACK
6
CONTINUOUS
10
1.9335950393700787
20
-2.86433437007874
11
1.9400291732283463
21
-2.865614212598425
0
LINE
8
BLACK
6
CONTINUOUS
10
2.0400291732283464
20
-2.865614212598425
11
2.04609
21
-2.86812468503937
0
LINE
8
BLACK
6
CONTINUOUS
10
2.04609
20
-2.86812468503937
11
2.0515446062992124
21
-2.8717693307086614
0
LINE
8
BLACK
6
CONTINUOUS
10
2.0515446062992124
20
-2.8717693307086614
11
2.0561833858267717
21
-2.8764081102362202
0
LINE
8
BLACK
6
CONTINUOUS
10
2.0561833858267717
20
-2.8764081102362202
11
2.0598280314960631
21
-2.8818627165354331
0
LINE
8
BLACK
6
CONTINUOUS
10
2.0598280314960631
20
-2.8818627165354331
11
2.0623385039370077
21
-2.8879235433070867
0
LINE
8
BLACK
6
CONTINUOUS
10
2.0623385039370077
20
-2.8879235433070867
11
2.0636183464566931
21
-2.8943576771653543
0
LINE
8
BLACK
6
CONTINUOUS
10
2.0636183464566931
20
-2.8943576771653543
11
2.0636183464566931
21
-2.9009179133858267
0
LINE
8
BLACK
6
CONTINUOUS
10
2.0636183464566931
20
-2.9009179133858267
11
2.0623385039370077
21
-2.9073520472440944
0
LINE
8
BLACK
6
CONTINUOUS
10
2.0623385039370077
20
-2.9073520472440944
11
2.0598280314960631
21
-2.9134128740157479
0
LINE
8
BLACK
6
CONTINUOUS
10
2.0598280314960631
20
-2.9134128740157479
11
2.0561833858267717
21
-2.9188674803149603
0
LINE
8
BLACK
6
CONTINUOUS
10
2.0561833858267717
20
-2.9188674803149603
11
2.0515446062992124
21
-2.9235062598425197
0
LINE
8
BLACK
6
CONTINUOUS
10
2.0515446062992124
20
-2.9235062598425197
11
2.04609
21
-2.927150905511811
0
LINE
8
BLACK
6
CONTINUOUS
10
2.04609
20
-2.927150905511811
11
2.0400291732283464
21
-2.9296613779527561
0
LINE
8
BLACK
6
CONTINUOUS
10
2.0400291732283464
20
-2.9296613779527561
11
2.0335950393700788
21
-2.930941220472441
0
LINE
8
BLACK
6
CONTINUOUS
10
2.0335950393700788
20
-2.930941220472441
11
2.0270348031496064
21
-2.930941220472441
0
LINE
8
BLACK
6
CONTINUOUS
10
2.0270348031496064
20
-2.930941220472441
11
2.0206006692913387
21
-2.9296613779527561
0
LINE
8
BLACK
6
CONTINUOUS
10
2.0206006692913387
20
-2.9296613779527561
11
2.0145398425196852
21
-2.927150905511811
0
LINE
8
BLACK
6
CONTINUOUS
10
2.0145398425196852
20
-2.927150905511811
11
2.0090852362204723
21
-2.9235062598425197
0
LINE
8
BLACK
6
CONTINUOUS
10
2.0090852362204723
20
-2.9235062598425197
11
2.0044464566929134
21
-2.9188674803149603
0
LINE
8
BLACK
6
CONTINUOUS
10
2.0044464566929134
20
-2.9188674803149603
11
2.0008018110236221
21
-2.9134128740157479
0
LINE
8
BLACK
6
CONTINUOUS
10
2.0008018110236221
20
-2.9134128740157479
11
1.998291338582677
21
-2.9073520472440944
0
LINE
8
BLACK
6
CONTINUOUS
10
1.998291338582677
20
-2.9073520472440944
11
1.9970114960629921
21
-2.9009179133858267
0
LINE
8
BLACK
6
CONTINUOUS
10
1.9970114960629921
20
-2.9009179133858267
11
1.9970114960629921
21
-2.8943576771653543
0
LINE
8
BLACK
6
CONTINUOUS
10
1.9970114960629921
20
-2.8943576771653543
11
1.998291338582677
21
-2.8879235433070867
0
LINE
8
BLACK
6
CONTINUOUS
10
1.998291338582677
20
-2.8879235433070867
11
2.0008018110236221
21
-2.8818627165354331
0
LINE
8
BLACK
6
CONTINUOUS
10
2.0008018110236221
20
-2.8818627165354331
11
2.0044464566929134
21
-2.8764081102362202
0
LINE
8
BLACK
6
CONTINUOUS
10
2.0044464566929134
20
-2.8764081102362202
11
2.0090852362204723
21
-2.8717693307086614
0
LINE
8
BLACK
6
CONTINUOUS
10
2.0090852362204723
20
-2.8717693307086614
11
2.0145398425196852
21
-2.86812468503937
0
LINE
8
BLACK
6
CONTINUOUS
10
2.0145398425196852
20
-2.86812468503937
11
2.0206006692913387
21
-2.865614212598425
0
LINE
8
BLACK
6
CONTINUOUS
10
2.0206006692913387
20
-2.865614212598425
11
2.0270348031496064
21
-2.86433437007874
0
LINE
8
BLACK
6
CONTINUOUS
10
2.0270348031496064
20
-2.86433437007874
11
2.0335950393700788
21
-2.86433437007874
0
LINE
8
BLACK
6
CONTINUOUS
10
2.0335950393700788
20
-2.86433437007874
11
2.0400291732283464
21
-2.865614212598425
0
LINE
8
BLACK
6
CONTINUOUS
10
2.1400291732283465
20
-2.865614212598425
11
2.1460900000000001
21
-2.86812468503937
0
LINE
8
BLACK
6
CONTINUOUS
10
2.1460900000000001
20
-2.86812468503937
11
2.1515446062992125
21
-2.8717693307086614
0
LINE
8
BLACK
6
CONTINUOUS
10
2.1515446062992125
20
-2.8717693307086614
11
2.1561833858267718
21
-2.8764081102362202
0
LINE
8
BLACK
6
CONTINUOUS
10
2.1561833858267718
20
-2.8764081102362202
11
2.1598280314960627
21
-2.8818627165354331
0
LINE
8
BLACK
6
CONTINUOUS
10
2.1598280314960627
20
-2.8818627165354331
11
2.1623385039370078
21
-2.8879235433070867
0
LINE
8
BLACK
6
CONTINUOUS
10
2.1623385039370078
20
-2.8879235433070867
11
2.1636183464566927
21
-2.8943576771653543
0
LINE
8
BLACK
6
CONTINUOUS
10
2.1636183464566927
20
-2.8943576771653543
11
2.1636183464566927
21
-2.9009179133858267
0
LINE
8
BLACK
6
CONTINUOUS
10
2.1636183464566927
20
-2.9009179133858267
11
2.1623385039370078
21
-2.9073520472440944
0
LINE
8
BLACK
6
CONTINUOUS
10
2.1623385039370078
20
-2.9073520472440944
11
2.1598280314960627
21
-2.9134128740157479
0
LINE
8
BLACK
6
CONTINUOUS
10
2.1598280314960627
20
-2.9134128740157479
11
2.1561833858267718
21
-2.9188674803149603
0
LINE
8
BLACK
6
CONTINUOUS
10
2.1561833858267718
20
-2.9188674803149603
11
2.1515446062992125
21
-2.9235062598425197
0
LINE
8
BLACK
6
CONTINUOUS
10
2.1515446062992125
20
-2.9235062598425197
11
2.1460900000000001
21
-2.927150905511811
0
LINE
8
BLACK
6
CONTINUOUS
10
2.1460900000000001
20
-2.927150905511811
11
2.1400291732283465
21
-2.9296613779527561
0
LINE
8
BLACK
6
CONTINUOUS
10
2.1400291732283465
20
-2.9296613779527561
11
2.1335950393700789
21
-2.930941220472441
0
LINE
8
BLACK
6
CONTINUOUS
10
2.1335950393700789
20
-2.930941220472441
11
2.1270348031496065
21
-2.930941220472441
0
LINE
8
BLACK
6
CONTINUOUS
10
2.1270348031496065
20
-2.930941220472441
11
2.1206006692913384
21
-2.9296613779527561
0
LINE
8
BLACK
6
CONTINUOUS
10
2.1206006692913384
20
-2.9296613779527561
11
2.1145398425196849
21
-2.927150905511811
0
LINE
8
BLACK
6
CONTINUOUS
10
2.1145398425196849
20
-2.927150905511811
11
2.1090852362204724
21
-2.9235062598425197
0
LINE
8
BLACK
6
CONTINUOUS
10
2.1090852362204724
20
-2.9235062598425197
11
2.1044464566929135
21
-2.9188674803149603
0
LINE
8
BLACK
6
CONTINUOUS
10
2.1044464566929135
20
-2.9188674803149603
11
2.1008018110236222
21
-2.9134128740157479
0
LINE
8
BLACK
6
CONTINUOUS
10
2.1008018110236222
20
-2.9134128740157479
11
2.0982913385826771
21
-2.9073520472440944
0
LINE
8
BLACK
6
CONTINUOUS
10
2.0982913385826771
20
-2.9073520472440944
11
2.0970114960629922
21
-2.9009179133858267
0
LINE
8
BLACK
6
CONTINUOUS
10
2.0970114960629922
20
-2.9009179133858267
11
2.0970114960629922
21
-2.8943576771653543
0
LINE
8
BLACK
6
CONTINUOUS
10
2.0970114960629922
20
-2.8943576771653543
11
2.0982913385826771
21
-2.8879235433070867
0
LINE
8
BLACK
6
CONTINUOUS
10
2.0982913385826771
20
-2.8879235433070867
11
2.1008018110236222
21
-2.8818627165354331
0
LINE
8
BLACK
6
CONTINUOUS
10
2.1008018110236222
20
-2.8818627165354331
11
2.1044464566929135
21
-2.8764081102362202
0
LINE
8
BLACK
6
CONTINUOUS
10
2.1044464566929135
20
-2.8764081102362202
11
2.1090852362204724
21
-2.8717693307086614
0
LINE
8
BLACK
6
CONTINUOUS
10
2.1090852362204724
20
-2.8717693307086614
11
2.1145398425196849
21
-2.86812468503937
0
LINE
8
BLACK
6
CONTINUOUS
10
2.1145398425196849
20
-2.86812468503937
11
2.1206006692913384
21
-2.865614212598425
0
LINE
8
BLACK
6
CONTINUOUS
10
2.1206006692913384
20
-2.865614212598425
11
2.1270348031496065
21
-2.86433437007874
0
LINE
8
BLACK
6
CONTINUOUS
10
2.1270348031496065
20
-2.86433437007874
11
2.1335950393700789
21
-2.86433437007874
0
LINE
8
BLACK
6
CONTINUOUS
10
2.1335950393700789
20
-2.86433437007874
11
2.1400291732283465
21
-2.865614212598425
0
LINE
8
BLACK
6
CONTINUOUS
10
2.620525275590551
20
-1.9507110236220473
11
2.6249756299212597
21
-1.9532804330708662
0
LINE
8
BLACK
6
CONTINUOUS
10
2.6249756299212597
20
-1.9532804330708662
11
2.6286093307086613
21
-1.9569141338582676
0
LINE
8
BLACK
6
CONTINUOUS
10
2.6286093307086613
20
-1.9569141338582676
11
2.6311787401574804
21
-1.9613644881889762
0
LINE
8
BLACK
6
CONTINUOUS
10
2.6311787401574804
20
-1.9613644881889762
11
2.6325087401574803
21
-1.9663282283464567
0
LINE
8
BLACK
6
CONTINUOUS
10
2.6325087401574803
20
-1.9663282283464567
11
2.6325087401574803
21
-1.9714670472440945
0
LINE
8
BLACK
6
CONTINUOUS
10
2.6325087401574803
20
-1.9714670472440945
11
2.6311787401574804
21
-1.9764307874015747
0
LINE
8
BLACK
6
CONTINUOUS
10
2.6311787401574804
20
-1.9764307874015747
11
2.6286093307086613
21
-1.9808811417322834
0
LINE
8
BLACK
6
CONTINUOUS
10
2.6286093307086613
20
-1.9808811417322834
11
2.6249756299212597
21
-1.984514842519685
0
LINE
8
BLACK
6
CONTINUOUS
10
2.6249756299212597
20
-1.984514842519685
11
2.620525275590551
21
-1.9870842519685039
0
LINE
8
BLACK
6
CONTINUOUS
10
2.620525275590551
20
-1.9870842519685039
11
2.6155615354330708
21
-1.988414251968504
0
LINE
8
BLACK
6
CONTINUOUS
10
2.6155615354330708
20
-1.988414251968504
11
2.610422716535433
21
-1.988414251968504
0
LINE
8
BLACK
6
CONTINUOUS
10
2.610422716535433
20
-1.988414251968504
11
2.6054589763779528
21
-1.9870842519685039
0
LINE
8
BLACK
6
CONTINUOUS
10
2.6054589763779528
20
-1.9870842519685039
11
2.6010086220472441
21
-1.984514842519685
0
LINE
8
BLACK
6
CONTINUOUS
10
2.6010086220472441
20
-1.984514842519685
11
2.5973749212598425
21
-1.9808811417322834
0
LINE
8
BLACK
6
CONTINUOUS
10
2.5973749212598425
20
-1.9808811417322834
11
2.5948055118110234
21
-1.9764307874015747
0
LINE
8
BLACK
6
CONTINUOUS
10
2.5948055118110234
20
-1.9764307874015747
11
2.5934755118110235
21
-1.9714670472440945
0
LINE
8
BLACK
6
CONTINUOUS
10
2.5934755118110235
20
-1.9714670472440945
11
2.5934755118110235
21
-1.9663282283464567
0
LINE
8
BLACK
6
CONTINUOUS
10
2.5934755118110235
20
-1.9663282283464567
11
2.5948055118110234
21
-1.9613644881889762
0
LINE
8
BLACK
6
CONTINUOUS
10
2.5948055118110234
20
-1.9613644881889762
11
2.5973749212598425
21
-1.9569141338582676
0
LINE
8
BLACK
6
CONTINUOUS
10
2.5973749212598425
20
-1.9569141338582676
11
2.6010086220472441
21
-1.9532804330708662
0
LINE
8
BLACK
6
CONTINUOUS
10
2.6010086220472441
20
-1.9532804330708662
11
2.6054589763779528
21
-1.9507110236220473
0
LINE
8
BLACK
6
CONTINUOUS
10
2.6054589763779528
20
-1.9507110236220473
11
2.610422716535433
21
-1.9493810236220472
0
LINE
8
BLACK
6
CONTINUOUS
10
2.610422716535433
20
-1.9493810236220472
11
2.6155615354330708
21
-1.9493810236220472
0
LINE
8
BLACK
6
CONTINUOUS
10
2.6155615354330708
20
-1.9493810236220472
11
2.620525275590551
21
-1.9507110236220473
0
LINE
8
BLACK
6
CONTINUOUS
10
2.6705252755905513
20
-1.9507110236220473
11
2.6749756299212599
21
-1.9532804330708662
0
LINE
8
BLACK
6
CONTINUOUS
10
2.6749756299212599
20
-1.9532804330708662
11
2.6786093307086611
21
-1.9569141338582676
0
LINE
8
BLACK
6
CONTINUOUS
10
2.6786093307086611
20
-1.9569141338582676
11
2.6811787401574803
21
-1.9613644881889762
0
LINE
8
BLACK
6
CONTINUOUS
10
2.6811787401574803
20
-1.9613644881889762
11
2.6825087401574801
21
-1.9663282283464567
0
LINE
8
BLACK
6
CONTINUOUS
10
2.6825087401574801
20
-1.9663282283464567
11
2.6825087401574801
21
-1.9714670472440945
0
LINE
8
BLACK
6
CONTINUOUS
10
2.6825087401574801
20
-1.9714670472440945
11
2.6811787401574803
21
-1.9764307874015747
0
LINE
8
BLACK
6
CONTINUOUS
10
2.6811787401574803
20
-1.9764307874015747
11
2.6786093307086611
21
-1.9808811417322834
0
LINE
8
BLACK
6
CONTINUOUS
10
2.6786093307086611
20
-1.9808811417322834
11
2.6749756299212599
21
-1.984514842519685
0
LINE
8
BLACK
6
CONTINUOUS
10
2.6749756299212599
20
-1.984514842519685
11
2.6705252755905513
21
-1.9870842519685039
0
LINE
8
BLACK
6
CONTINUOUS
10
2.6705252755905513
20
-1.9870842519685039
11
2.6655615354330706
21
-1.988414251968504
0
LINE
8
BLACK
6
CONTINUOUS
10
2.6655615354330706
20
-1.988414251968504
11
2.6604227165354328
21
-1.988414251968504
0
LINE
8
BLACK
6
CONTINUOUS
10
2.6604227165354328
20
-1.988414251968504
11
2.6554589763779526
21
-1.9870842519685039
0
LINE
8
BLACK
6
CONTINUOUS
10
2.6554589763779526
20
-1.9870842519685039
11
2.651008622047244
21
-1.984514842519685
0
LINE
8
BLACK
6
CONTINUOUS
10
2.651008622047244
20
-1.984514842519685
11
2.6473749212598423
21
-1.9808811417322834
0
LINE
8
BLACK
6
CONTINUOUS
10
2.6473749212598423
20
-1.9808811417322834
11
2.6448055118110236
21
-1.9764307874015747
0
LINE
8
BLACK
6
CONTINUOUS
10
2.6448055118110236
20
-1.9764307874015747
11
2.6434755118110234
21
-1.9714670472440945
0
LINE
8
BLACK
6
CONTINUOUS
10
2.6434755118110234
20
-1.9714670472440945
11
2.6434755118110234
21
-1.9663282283464567
0
LINE
8
BLACK
6
CONTINUOUS
10
2.6434755118110234
20
-1.9663282283464567
11
2.6448055118110236
21
-1.9613644881889762
0
LINE
8
BLACK
6
CONTINUOUS
10
2.6448055118110236
20
-1.9613644881889762
11
2.6473749212598423
21
-1.9569141338582676
0
LINE
8
BLACK
6
CONTINUOUS
10
2.6473749212598423
20
-1.9569141338582676
11
2.651008622047244
21
-1.9532804330708662
0
LINE
8
BLACK
6
CONTINUOUS
10
2.651008622047244
20
-1.9532804330708662
11
2.6554589763779526
21
-1.9507110236220473
0
LINE
8
BLACK
6
CONTINUOUS
10
2.6554589763779526
20
-1.9507110236220473
11
2.6604227165354328
21
-1.9493810236220472
0
LINE
8
BLACK
6
CONTINUOUS
10
2.6604227165354328
20
-1.9493810236220472
11
2.6655615354330706
21
-1.9493810236220472
0
LINE
8
BLACK
6
CONTINUOUS
10
2.6655615354330706
20
-1.9493810236220472
11
2.6705252755905513
21
-1.9507110236220473
0
LINE
8
BLACK
6
CONTINUOUS
10
2.620525275590551
20
-1.9007110236220472
11
2.6249756299212597
21
-1.9032804330708661
0
LINE
8
BLACK
6
CONTINUOUS
10
2.6249756299212597
20
-1.9032804330708661
11
2.6286093307086613
21
-1.9069141338582676
0
LINE
8
BLACK
6
CONTINUOUS
10
2.6286093307086613
20
-1.9069141338582676
11
2.6311787401574804
21
-1.9113644881889764
0
LINE
8
BLACK
6
CONTINUOUS
10
2.6311787401574804
20
-1.9113644881889764
11
2.6325087401574803
21
-1.9163282283464567
0
LINE
8
BLACK
6
CONTINUOUS
10
2.6325087401574803
20
-1.9163282283464567
11
2.6325087401574803
21
-1.9214670472440945
0
LINE
8
BLACK
6
CONTINUOUS
10
2.6325087401574803
20
-1.9214670472440945
11
2.6311787401574804
21
-1.9264307874015747
0
LINE
8
BLACK
6
CONTINUOUS
10
2.6311787401574804
20
-1.9264307874015747
11
2.6286093307086613
21
-1.9308811417322833
0
LINE
8
BLACK
6
CONTINUOUS
10
2.6286093307086613
20
-1.9308811417322833
11
2.6249756299212597
21
-1.934514842519685
0
LINE
8
BLACK
6
CONTINUOUS
10
2.6249756299212597
20
-1.934514842519685
11
2.620525275590551
21
-1.9370842519685039
0
LINE
8
BLACK
6
CONTINUOUS
10
2.620525275590551
20
-1.9370842519685039
11
2.6155615354330708
21
-1.9384142519685039
0
LINE
8
BLACK
6
CONTINUOUS
10
2.6155615354330708
20
-1.9384142519685039
11
2.610422716535433
21
-1.9384142519685039
0
LINE
8
BLACK
6
CONTINUOUS
10
2.610422716535433
20
-1.9384142519685039
11
2.6054589763779528
21
-1.9370842519685039
0
LINE
8
BLACK
6
CONTINUOUS
10
2.6054589763779528
20
-1.9370842519685039
11
2.6010086220472441
21
-1.934514842519685
0
LINE
8
BLACK
6
CONTINUOUS
10
2.6010086220472441
20
-1.934514842519685
11
2.5973749212598425
21
-1.9308811417322833
0
LINE
8
BLACK
6
CONTINUOUS
10
2.5973749212598425
20
-1.9308811417322833
11
2.5948055118110234
21
-1.9264307874015747
0
LINE
8
BLACK
6
CONTINUOUS
10
2.5948055118110234
20
-1.9264307874015747
11
2.5934755118110235
21
-1.9214670472440945
0
LINE
8
BLACK
6
CONTINUOUS
10
2.5934755118110235
20
-1.9214670472440945
11
2.5934755118110235
21
-1.9163282283464567
0
LINE
8
BLACK
6
CONTINUOUS
10
2.5934755118110235
20
-1.9163282283464567
11
2.5948055118110234
21
-1.9113644881889764
0
LINE
8
BLACK
6
CONTINUOUS
10
2.5948055118110234
20
-1.9113644881889764
11
2.5973749212598425
21
-1.9069141338582676
0
LINE
8
BLACK
6
CONTINUOUS
10
2.5973749212598425
20
-1.9069141338582676
11
2.6010086220472441
21
-1.9032804330708661
0
LINE
8
BLACK
6
CONTINUOUS
10
2.6010086220472441
20
-1.9032804330708661
11
2.6054589763779528
21
-1.9007110236220472
0
LINE
8
BLACK
6
CONTINUOUS
10
2.6054589763779528
20
-1.9007110236220472
11
2.610422716535433
21
-1.8993810236220472
0
LINE
8
BLACK
6
CONTINUOUS
10
2.610422716535433
20
-1.8993810236220472
11
2.6155615354330708
21
-1.8993810236220472
0
LINE
8
BLACK
6
CONTINUOUS
10
2.6155615354330708
20
-1.8993810236220472
11
2.620525275590551
21
-1.9007110236220472
0
LINE
8
BLACK
6
CONTINUOUS
10
2.6705252755905513
20
-1.9007110236220472
11
2.6749756299212599
21
-1.9032804330708661
0
LINE
8
BLACK
6
CONTINUOUS
10
2.6749756299212599
20
-1.9032804330708661
11
2.6786093307086611
21
-1.9069141338582676
0
LINE
8
BLACK
6
CONTINUOUS
10
2.6786093307086611
20
-1.9069141338582676
11
2.6811787401574803
21
-1.9113644881889764
0
LINE
8
BLACK
6
CONTINUOUS
10
2.6811787401574803
20
-1.9113644881889764
11
2.6825087401574801
21
-1.9163282283464567
0
LINE
8
BLACK
6
CONTINUOUS
10
2.6825087401574801
20
-1.9163282283464567
11
2.6825087401574801
21
-1.9214670472440945
0
LINE
8
BLACK
6
CONTINUOUS
10
2.6825087401574801
20
-1.9214670472440945
11
2.6811787401574803
21
-1.9264307874015747
0
LINE
8
BLACK
6
CONTINUOUS
10
2.6811787401574803
20
-1.9264307874015747
11
2.6786093307086611
21
-1.9308811417322833
0
LINE
8
BLACK
6
CONTINUOUS
10
2.6786093307086611
20
-1.9308811417322833
11
2.6749756299212599
21
-1.934514842519685
0
LINE
8
BLACK
6
CONTINUOUS
10
2.6749756299212599
20
-1.934514842519685
11
2.6705252755905513
21
-1.9370842519685039
0
LINE
8
BLACK
6
CONTINUOUS
10
2.6705252755905513
20
-1.9370842519685039
11
2.6655615354330706
21
-1.9384142519685039
0
LINE
8
BLACK
6
CONTINUOUS
10
2.6655615354330706
20
-1.9384142519685039
11
2.6604227165354328
21
-1.9384142519685039
0
LINE
8
BLACK
6
CONTINUOUS
10
2.6604227165354328
20
-1.9384142519685039
11
2.6554589763779526
21
-1.9370842519685039
0
LINE
8
BLACK
6
CONTINUOUS
10
2.6554589763779526
20
-1.9370842519685039
11
2.651008622047244
21
-1.934514842519685
0
LINE
8
BLACK
6
CONTINUOUS
10
2.651008622047244
20
-1.934514842519685
11
2.6473749212598423
21
-1.9308811417322833
0
LINE
8
BLACK
6
CONTINUOUS
10
2.6473749212598423
20
-1.9308811417322833
11
2.6448055118110236
21
-1.9264307874015747
0
LINE
8
BLACK
6
CONTINUOUS
10
2.6448055118110236
20
-1.9264307874015747
11
2.6434755118110234
21
-1.9214670472440945
0
LINE
8
BLACK
6
CONTINUOUS
10
2.6434755118110234
20
-1.9214670472440945
11
2.6434755118110234
21
-1.9163282283464567
0
LINE
8
BLACK
6
CONTINUOUS
10
2.6434755118110234
20
-1.9163282283464567
11
2.6448055118110236
21
-1.9113644881889764
0
LINE
8
BLACK
6
CONTINUOUS
10
2.6448055118110236
20
-1.9113644881889764
11
2.6473749212598423
21
-1.9069141338582676
0
LINE
8
BLACK
6
CONTINUOUS
10
2.6473749212598423
20
-1.9069141338582676
11
2.651008622047244
21
-1.9032804330708661
0
LINE
8
BLACK
6
CONTINUOUS
10
2.651008622047244
20
-1.9032804330708661
11
2.6554589763779526
21
-1.9007110236220472
0
LINE
8
BLACK
6
CONTINUOUS
10
2.6554589763779526
20
-1.9007110236220472
11
2.6604227165354328
21
-1.8993810236220472
0
LINE
8
BLACK
6
CONTINUOUS
10
2.6604227165354328
20
-1.8993810236220472
11
2.6655615354330706
21
-1.8993810236220472
0
LINE
8
BLACK
6
CONTINUOUS
10
2.6655615354330706
20
-1.8993810236220472
11
2.6705252755905513
21
-1.9007110236220472
0
LINE
8
BLACK
6
CONTINUOUS
10
2.620525275590551
20
-1.8507110236220472
11
2.6249756299212597
21
-1.8532804330708661
0
LINE
8
BLACK
6
CONTINUOUS
10
2.6249756299212597
20
-1.8532804330708661
11
2.6286093307086613
21
-1.8569141338582678
0
LINE
8
BLACK
6
CONTINUOUS
10
2.6286093307086613
20
-1.8569141338582678
11
2.6311787401574804
21
-1.8613644881889764
0
LINE
8
BLACK
6
CONTINUOUS
10
2.6311787401574804
20
-1.8613644881889764
11
2.6325087401574803
21
-1.8663282283464566
0
LINE
8
BLACK
6
CONTINUOUS
10
2.6325087401574803
20
-1.8663282283464566
11
2.6325087401574803
21
-1.8714670472440944
0
LINE
8
BLACK
6
CONTINUOUS
10
2.6325087401574803
20
-1.8714670472440944
11
2.6311787401574804
21
-1.8764307874015747
0
LINE
8
BLACK
6
CONTINUOUS
10
2.6311787401574804
20
-1.8764307874015747
11
2.6286093307086613
21
-1.8808811417322835
0
LINE
8
BLACK
6
CONTINUOUS
10
2.6286093307086613
20
-1.8808811417322835
11
2.6249756299212597
21
-1.8845148425196849
0
LINE
8
BLACK
6
CONTINUOUS
10
2.6249756299212597
20
-1.8845148425196849
11
2.620525275590551
21
-1.8870842519685038
0
LINE
8
BLACK
6
CONTINUOUS
10
2.620525275590551
20
-1.8870842519685038
11
2.6155615354330708
21
-1.8884142519685039
0
LINE
8
BLACK
6
CONTINUOUS
10
2.6155615354330708
20
-1.8884142519685039
11
2.610422716535433
21
-1.8884142519685039
0
LINE
8
BLACK
6
CONTINUOUS
10
2.610422716535433
20
-1.8884142519685039
11
2.6054589763779528
21
-1.8870842519685038
0
LINE
8
BLACK
6
CONTINUOUS
10
2.6054589763779528
20
-1.8870842519685038
11
2.6010086220472441
21
-1.8845148425196849
0
LINE
8
BLACK
6
CONTINUOUS
10
2.6010086220472441
20
-1.8845148425196849
11
2.5973749212598425
21
-1.8808811417322835
0
LINE
8
BLACK
6
CONTINUOUS
10
2.5973749212598425
20
-1.8808811417322835
11
2.5948055118110234
21
-1.8764307874015747
0
LINE
8
BLACK
6
CONTINUOUS
10
2.5948055118110234
20
-1.8764307874015747
11
2.5934755118110235
21
-1.8714670472440944
0
LINE
8
BLACK
6
CONTINUOUS
10
2.5934755118110235
20
-1.8714670472440944
11
2.5934755118110235
21
-1.8663282283464566
0
LINE
8
BLACK
6
CONTINUOUS
10
2.5934755118110235
20
-1.8663282283464566
11
2.5948055118110234
21
-1.8613644881889764
0
LINE
8
BLACK
6
CONTINUOUS
10
2.5948055118110234
20
-1.8613644881889764
11
2.5973749212598425
21
-1.8569141338582678
0
LINE
8
BLACK
6
CONTINUOUS
10
2.5973749212598425
20
-1.8569141338582678
11
2.6010086220472441
21
-1.8532804330708661
0
LINE
8
BLACK
6
CONTINUOUS
10
2.6010086220472441
20
-1.8532804330708661
11
2.6054589763779528
21
-1.8507110236220472
0
LINE
8
BLACK
6
CONTINUOUS
10
2.6054589763779528
20
-1.8507110236220472
11
2.610422716535433
21
-1.8493810236220471
0
LINE
8
BLACK
6
CONTINUOUS
10
2.610422716535433
20
-1.8493810236220471
11
2.6155615354330708
21
-1.8493810236220471
0
LINE
8
BLACK
6
CONTINUOUS
10
2.6155615354330708
20
-1.8493810236220471
11
2.620525275590551
21
-1.8507110236220472
0
LINE
8
BLACK
6
CONTINUOUS
10
2.6705252755905513
20
-1.8507110236220472
11
2.6749756299212599
21
-1.8532804330708661
0
LINE
8
BLACK
6
CONTINUOUS
10
2.6749756299212599
20
-1.8532804330708661
11
2.6786093307086611
21
-1.8569141338582678
0
LINE
8
BLACK
6
CONTINUOUS
10
2.6786093307086611
20
-1.8569141338582678
11
2.6811787401574803
21
-1.8613644881889764
0
LINE
8
BLACK
6
CONTINUOUS
10
2.6811787401574803
20
-1.8613644881889764
11
2.6825087401574801
21
-1.8663282283464566
0
LINE
8
BLACK
6
CONTINUOUS
10
2.6825087401574801
20
-1.8663282283464566
11
2.6825087401574801
21
-1.8714670472440944
0
LINE
8
BLACK
6
CONTINUOUS
10
2.6825087401574801
20
-1.8714670472440944
11
2.6811787401574803
21
-1.8764307874015747
0
LINE
8
BLACK
6
CONTINUOUS
10
2.6811787401574803
20
-1.8764307874015747
11
2.6786093307086611
21
-1.8808811417322835
0
LINE
8
BLACK
6
CONTINUOUS
10
2.6786093307086611
20
-1.8808811417322835
11
2.6749756299212599
21
-1.8845148425196849
0
LINE
8
BLACK
6
CONTINUOUS
10
2.6749756299212599
20
-1.8845148425196849
11
2.6705252755905513
21
-1.8870842519685038
0
LINE
8
BLACK
6
CONTINUOUS
10
2.6705252755905513
20
-1.8870842519685038
11
2.6655615354330706
21
-1.8884142519685039
0
LINE
8
BLACK
6
CONTINUOUS
10
2.6655615354330706
20
-1.8884142519685039
11
2.6604227165354328
21
-1.8884142519685039
0
LINE
8
BLACK
6
CONTINUOUS
10
2.6604227165354328
20
-1.8884142519685039
11
2.6554589763779526
21
-1.8870842519685038
0
LINE
8
BLACK
6
CONTINUOUS
10
2.6554589763779526
20
-1.8870842519685038
11
2.651008622047244
21
-1.8845148425196849
0
LINE
8
BLACK
6
CONTINUOUS
10
2.651008622047244
20
-1.8845148425196849
11
2.6473749212598423
21
-1.8808811417322835
0
LINE
8
BLACK
6
CONTINUOUS
10
2.6473749212598423
20
-1.8808811417322835
11
2.6448055118110236
21
-1.8764307874015747
0
LINE
8
BLACK
6
CONTINUOUS
10
2.6448055118110236
20
-1.8764307874015747
11
2.6434755118110234
21
-1.8714670472440944
0
LINE
8
BLACK
6
CONTINUOUS
10
2.6434755118110234
20
-1.8714670472440944
11
2.6434755118110234
21
-1.8663282283464566
0
LINE
8
BLACK
6
CONTINUOUS
10
2.6434755118110234
20
-1.8663282283464566
11
2.6448055118110236
21
-1.8613644881889764
0
LINE
8
BLACK
6
CONTINUOUS
10
2.6448055118110236
20
-1.8613644881889764
11
2.6473749212598423
21
-1.8569141338582678
0
LINE
8
BLACK
6
CONTINUOUS
10
2.6473749212598423
20
-1.8569141338582678
11
2.651008622047244
21
-1.8532804330708661
0
LINE
8
BLACK
6
CONTINUOUS
10
2.651008622047244
20
-1.8532804330708661
11
2.6554589763779526
21
-1.8507110236220472
0
LINE
8
BLACK
6
CONTINUOUS
10
2.6554589763779526
20
-1.8507110236220472
11
2.6604227165354328
21
-1.8493810236220471
0
LINE
8
BLACK
6
CONTINUOUS
10
2.6604227165354328
20
-1.8493810236220471
11
2.6655615354330706
21
-1.8493810236220471
0
LINE
8
BLACK
6
CONTINUOUS
10
2.6655615354330706
20
-1.8493810236220471
11
2.6705252755905513
21
-1.8507110236220472
0
LINE
8
BLACK
6
CONTINUOUS
10
2.6826771653543307
20
-1.8385826771653544
11
2.6433070866141732
21
-1.8385826771653544
0
LINE
8
BLACK
6
CONTINUOUS
10
2.6433070866141732
20
-1.8385826771653544
11
2.6433070866141732
21
-1.7992125984251968
0
LINE
8
BLACK
6
CONTINUOUS
10
2.6433070866141732
20
-1.7992125984251968
11
2.6826771653543307
21
-1.7992125984251968
0
LINE
8
BLACK
6
CONTINUOUS
10
2.6826771653543307
20
-1.7992125984251968
11
2.6826771653543307
21
-1.8385826771653544
0
LINE
8
BLACK
6
CONTINUOUS
10
2.620525275590551
20
-1.8007110236220472
11
2.6249756299212597
21
-1.8032804330708661
0
LINE
8
BLACK
6
CONTINUOUS
10
2.6249756299212597
20
-1.8032804330708661
11
2.6286093307086613
21
-1.8069141338582677
0
LINE
8
BLACK
6
CONTINUOUS
10
2.6286093307086613
20
-1.8069141338582677
11
2.6311787401574804
21
-1.8113644881889763
0
LINE
8
BLACK
6
CONTINUOUS
10
2.6311787401574804
20
-1.8113644881889763
11
2.6325087401574803
21
-1.8163282283464566
0
LINE
8
BLACK
6
CONTINUOUS
10
2.6325087401574803
20
-1.8163282283464566
11
2.6325087401574803
21
-1.8214670472440944
0
LINE
8
BLACK
6
CONTINUOUS
10
2.6325087401574803
20
-1.8214670472440944
11
2.6311787401574804
21
-1.8264307874015748
0
LINE
8
BLACK
6
CONTINUOUS
10
2.6311787401574804
20
-1.8264307874015748
11
2.6286093307086613
21
-1.8308811417322834
0
LINE
8
BLACK
6
CONTINUOUS
10
2.6286093307086613
20
-1.8308811417322834
11
2.6249756299212597
21
-1.8345148425196851
0
LINE
8
BLACK
6
CONTINUOUS
10
2.6249756299212597
20
-1.8345148425196851
11
2.620525275590551
21
-1.837084251968504
0
LINE
8
BLACK
6
CONTINUOUS
10
2.620525275590551
20
-1.837084251968504
11
2.6155615354330708
21
-1.8384142519685038
0
LINE
8
BLACK
6
CONTINUOUS
10
2.6155615354330708
20
-1.8384142519685038
11
2.610422716535433
21
-1.8384142519685038
0
LINE
8
BLACK
6
CONTINUOUS
10
2.610422716535433
20
-1.8384142519685038
11
2.6054589763779528
21
-1.837084251968504
0
LINE
8
BLACK
6
CONTINUOUS
10
2.6054589763779528
20
-1.837084251968504
11
2.6010086220472441
21
-1.8345148425196851
0
LINE
8
BLACK
6
CONTINUOUS
10
2.6010086220472441
20
-1.8345148425196851
11
2.5973749212598425
21
-1.8308811417322834
0
LINE
8
BLACK
6
CONTINUOUS
10
2.5973749212598425
20
-1.8308811417322834
11
2.5948055118110234
21
-1.8264307874015748
0
LINE
8
BLACK
6
CONTINUOUS
10
2.5948055118110234
20
-1.8264307874015748
11
2.5934755118110235
21
-1.8214670472440944
0
LINE
8
BLACK
6
CONTINUOUS
10
2.5934755118110235
20
-1.8214670472440944
11
2.5934755118110235
21
-1.8163282283464566
0
LINE
8
BLACK
6
CONTINUOUS
10
2.5934755118110235
20
-1.8163282283464566
11
2.5948055118110234
21
-1.8113644881889763
0
LINE
8
BLACK
6
CONTINUOUS
10
2.5948055118110234
20
-1.8113644881889763
11
2.5973749212598425
21
-1.8069141338582677
0
LINE
8
BLACK
6
CONTINUOUS
10
2.5973749212598425
20
-1.8069141338582677
11
2.6010086220472441
21
-1.8032804330708661
0
LINE
8
BLACK
6
CONTINUOUS
10
2.6010086220472441
20
-1.8032804330708661
11
2.6054589763779528
21
-1.8007110236220472
0
LINE
8
BLACK
6
CONTINUOUS
10
2.6054589763779528
20
-1.8007110236220472
11
2.610422716535433
21
-1.7993810236220471
0
LINE
8
BLACK
6
CONTINUOUS
10
2.610422716535433
20
-1.7993810236220471
11
2.6155615354330708
21
-1.7993810236220471
0
LINE
8
BLACK
6
CONTINUOUS
10
2.6155615354330708
20
-1.7993810236220471
11
2.620525275590551
21
-1.8007110236220472
0
LINE
8
BLACK
6
CONTINUOUS
10
1.5950201968503936
20
-1.3001656692913386
11
1.6044209842519686
21
-1.3032201968503936
0
LINE
8
BLACK
6
CONTINUOUS
10
1.6044209842519686
20
-1.3032201968503936
11
1.6132282677165355
21
-1.3077077165354329
0
LINE
8
BLACK
6
CONTINUOUS
10
1.6132282677165355
20
-1.3077077165354329
11
1.6212250787401574
21
-1.313517716535433
0
LINE
8
BLACK
6
CONTINUOUS
10
1.6212250787401574
20
-1.313517716535433
11
1.6282145669291339
21
-1.3205072047244095
0
LINE
8
BLACK
6
CONTINUOUS
10
1.6282145669291339
20
-1.3205072047244095
11
1.6340245669291338
21
-1.3285040157480315
0
LINE
8
BLACK
6
CONTINUOUS
10
1.6340245669291338
20
-1.3285040157480315
11
1.6385120866141731
21
-1.3373112992125984
0
LINE
8
BLACK
6
CONTINUOUS
10
1.6385120866141731
20
-1.3373112992125984
11
1.6415666141732284
21
-1.3467120866141733
0
LINE
8
BLACK
6
CONTINUOUS
10
1.6415666141732284
20
-1.3467120866141733
11
1.6431129133858267
21
-1.3564749999999999
0
LINE
8
BLACK
6
CONTINUOUS
10
1.6431129133858267
20
-1.3564749999999999
11
1.6431129133858267
21
-1.3663596456692912
0
LINE
8
BLACK
6
CONTINUOUS
10
1.6431129133858267
20
-1.3663596456692912
11
1.6415666141732284
21
-1.376122559055118
0
LINE
8
BLACK
6
CONTINUOUS
10
1.6415666141732284
20
-1.376122559055118
11
1.6385120866141731
21
-1.385523346456693
0
LINE
8
BLACK
6
CONTINUOUS
10
1.6385120866141731
20
-1.385523346456693
11
1.6340245669291338
21
-1.3943306299212599
0
LINE
8
BLACK
6
CONTINUOUS
10
1.6340245669291338
20
-1.3943306299212599
11
1.6282145669291339
21
-1.4023274409448818
0
LINE
8
BLACK
6
CONTINUOUS
10
1.6282145669291339
20
-1.4023274409448818
11
1.6212250787401574
21
-1.4093169291338583
0
LINE
8
BLACK
6
CONTINUOUS
10
1.6212250787401574
20
-1.4093169291338583
11
1.6132282677165355
21
-1.4151269291338582
0
LINE
8
BLACK
6
CONTINUOUS
10
1.6132282677165355
20
-1.4151269291338582
11
1.6044209842519686
21
-1.4196144488188975
0
LINE
8
BLACK
6
CONTINUOUS
10
1.6044209842519686
20
-1.4196144488188975
11
1.5950201968503936
21
-1.4226689763779528
0
LINE
8
BLACK
6
CONTINUOUS
10
1.5950201968503936
20
-1.4226689763779528
11
1.5852572834645668
21
-1.4242152755905511
0
LINE
8
BLACK
6
CONTINUOUS
10
1.5852572834645668
20
-1.4242152755905511
11
1.5753726377952755
21
-1.4242152755905511
0
LINE
8
BLACK
6
CONTINUOUS
10
1.5753726377952755
20
-1.4242152755905511
11
1.5656097244094487
21
-1.4226689763779528
0
LINE
8
BLACK
6
CONTINUOUS
10
1.5656097244094487
20
-1.4226689763779528
11
1.556208937007874
21
-1.4196144488188975
0
LINE
8
BLACK
6
CONTINUOUS
10
1.556208937007874
20
-1.4196144488188975
11
1.5474016535433071
21
-1.4151269291338582
0
LINE
8
BLACK
6
CONTINUOUS
10
1.5474016535433071
20
-1.4151269291338582
11
1.5394048425196849
21
-1.4093169291338583
0
LINE
8
BLACK
6
CONTINUOUS
10
1.5394048425196849
20
-1.4093169291338583
11
1.5324153543307086
21
-1.4023274409448818
0
LINE
8
BLACK
6
CONTINUOUS
10
1.5324153543307086
20
-1.4023274409448818
11
1.5266053543307085
21
-1.3943306299212599
0
LINE
8
BLACK
6
CONTINUOUS
10
1.5266053543307085
20
-1.3943306299212599
11
1.5221178346456692
21
-1.385523346456693
0
LINE
8
BLACK
6
CONTINUOUS
10
1.5221178346456692
20
-1.385523346456693
11
1.5190633070866142
21
-1.376122559055118
0
LINE
8
BLACK
6
CONTINUOUS
10
1.5190633070866142
20
-1.376122559055118
11
1.5175170078740157
21
-1.3663596456692912
0
LINE
8
BLACK
6
CONTINUOUS
10
1.5175170078740157
20
-1.3663596456692912
11
1.5175170078740157
21
-1.3564749999999999
0
LINE
8
BLACK
6
CONTINUOUS
10
1.5175170078740157
20
-1.3564749999999999
11
1.5190633070866142
21
-1.3467120866141733
0
LINE
8
BLACK
6
CONTINUOUS
10
1.5190633070866142
20
-1.3467120866141733
11
1.5221178346456692
21
-1.3373112992125984
0
LINE
8
BLACK
6
CONTINUOUS
10
1.5221178346456692
20
-1.3373112992125984
11
1.5266053543307085
21
-1.3285040157480315
0
LINE
8
BLACK
6
CONTINUOUS
10
1.5266053543307085
20
-1.3285040157480315
11
1.5324153543307086
21
-1.3205072047244095
0
LINE
8
BLACK
6
CONTINUOUS
10
1.5324153543307086
20
-1.3205072047244095
11
1.5394048425196849
21
-1.313517716535433
0
LINE
8
BLACK
6
CONTINUOUS
10
1.5394048425196849
20
-1.313517716535433
11
1.5474016535433071
21
-1.3077077165354329
0
LINE
8
BLACK
6
CONTINUOUS
10
1.5474016535433071
20
-1.3077077165354329
11
1.556208937007874
21
-1.3032201968503936
0
LINE
8
BLACK
6
CONTINUOUS
10
1.556208937007874
20
-1.3032201968503936
11
1.5656097244094487
21
-1.3001656692913386
0
LINE
8
BLACK
6
CONTINUOUS
10
1.5656097244094487
20
-1.3001656692913386
11
1.5753726377952755
21
-1.2986193700787401
0
LINE
8
BLACK
6
CONTINUOUS
10
1.5753726377952755
20
-1.2986193700787401
11
1.5852572834645668
21
-1.2986193700787401
0
LINE
8
BLACK
6
CONTINUOUS
10
1.5852572834645668
20
-1.2986193700787401
11
1.5950201968503936
21
-1.3001656692913386
0
LINE
8
BLACK
6
CONTINUOUS
10
1.7950201968503936
20
-1.3001656692913386
11
1.8044209842519685
21
-1.3032201968503936
0
LINE
8
BLACK
6
CONTINUOUS
10
1.8044209842519685
20
-1.3032201968503936
11
1.8132282677165354
21
-1.3077077165354329
0
LINE
8
BLACK
6
CONTINUOUS
10
1.8132282677165354
20
-1.3077077165354329
11
1.8212250787401574
21
-1.313517716535433
0
LINE
8
BLACK
6
CONTINUOUS
10
1.8212250787401574
20
-1.313517716535433
11
1.8282145669291339
21
-1.3205072047244095
0
LINE
8
BLACK
6
CONTINUOUS
10
1.8282145669291339
20
-1.3205072047244095
11
1.8340245669291337
21
-1.3285040157480315
0
LINE
8
BLACK
6
CONTINUOUS
10
1.8340245669291337
20
-1.3285040157480315
11
1.8385120866141731
21
-1.3373112992125984
0
LINE
8
BLACK
6
CONTINUOUS
10
1.8385120866141731
20
-1.3373112992125984
11
1.8415666141732283
21
-1.3467120866141733
0
LINE
8
BLACK
6
CONTINUOUS
10
1.8415666141732283
20
-1.3467120866141733
11
1.8431129133858268
21
-1.3564749999999999
0
LINE
8
BLACK
6
CONTINUOUS
10
1.8431129133858268
20
-1.3564749999999999
11
1.8431129133858268
21
-1.3663596456692912
0
LINE
8
BLACK
6
CONTINUOUS
10
1.8431129133858268
20
-1.3663596456692912
11
1.8415666141732283
21
-1.376122559055118
0
LINE
8
BLACK
6
CONTINUOUS
10
1.8415666141732283
20
-1.376122559055118
11
1.8385120866141731
21
-1.385523346456693
0
LINE
8
BLACK
6
CONTINUOUS
10
1.8385120866141731
20
-1.385523346456693
11
1.8340245669291337
21
-1.3943306299212599
0
LINE
8
BLACK
6
CONTINUOUS
10
1.8340245669291337
20
-1.3943306299212599
11
1.8282145669291339
21
-1.4023274409448818
0
LINE
8
BLACK
6
CONTINUOUS
10
1.8282145669291339
20
-1.4023274409448818
11
1.8212250787401574
21
-1.4093169291338583
0
LINE
8
BLACK
6
CONTINUOUS
10
1.8212250787401574
20
-1.4093169291338583
11
1.8132282677165354
21
-1.4151269291338582
0
LINE
8
BLACK
6
CONTINUOUS
10
1.8132282677165354
20
-1.4151269291338582
11
1.8044209842519685
21
-1.4196144488188975
0
LINE
8
BLACK
6
CONTINUOUS
10
1.8044209842519685
20
-1.4196144488188975
11
1.7950201968503936
21
-1.4226689763779528
0
LINE
8
BLACK
6
CONTINUOUS
10
1.7950201968503936
20
-1.4226689763779528
11
1.7852572834645668
21
-1.4242152755905511
0
LINE
8
BLACK
6
CONTINUOUS
10
1.7852572834645668
20
-1.4242152755905511
11
1.7753726377952757
21
-1.4242152755905511
0
LINE
8
BLACK
6
CONTINUOUS
10
1.7753726377952757
20
-1.4242152755905511
11
1.7656097244094489
21
-1.4226689763779528
0
LINE
8
BLACK
6
CONTINUOUS
10
1.7656097244094489
20
-1.4226689763779528
11
1.7562089370078739
21
-1.4196144488188975
0
LINE
8
BLACK
6
CONTINUOUS
10
1.7562089370078739
20
-1.4196144488188975
11
1.747401653543307
21
-1.4151269291338582
0
LINE
8
BLACK
6
CONTINUOUS
10
1.747401653543307
20
-1.4151269291338582
11
1.7394048425196851
21
-1.4093169291338583
0
LINE
8
BLACK
6
CONTINUOUS
10
1.7394048425196851
20
-1.4093169291338583
11
1.7324153543307086
21
-1.4023274409448818
0
LINE
8
BLACK
6
CONTINUOUS
10
1.7324153543307086
20
-1.4023274409448818
11
1.7266053543307087
21
-1.3943306299212599
0
LINE
8
BLACK
6
CONTINUOUS
10
1.7266053543307087
20
-1.3943306299212599
11
1.7221178346456691
21
-1.385523346456693
0
LINE
8
BLACK
6
CONTINUOUS
10
1.7221178346456691
20
-1.385523346456693
11
1.7190633070866141
21
-1.376122559055118
0
LINE
8
BLACK
6
CONTINUOUS
10
1.7190633070866141
20
-1.376122559055118
11
1.7175170078740156
21
-1.3663596456692912
0
LINE
8
BLACK
6
CONTINUOUS
10
1.7175170078740156
20
-1.3663596456692912
11
1.7175170078740156
21
-1.3564749999999999
0
LINE
8
BLACK
6
CONTINUOUS
10
1.7175170078740156
20
-1.3564749999999999
11
1.7190633070866141
21
-1.3467120866141733
0
LINE
8
BLACK
6
CONTINUOUS
10
1.7190633070866141
20
-1.3467120866141733
11
1.7221178346456691
21
-1.3373112992125984
0
LINE
8
BLACK
6
CONTINUOUS
10
1.7221178346456691
20
-1.3373112992125984
11
1.7266053543307087
21
-1.3285040157480315
0
LINE
8
BLACK
6
CONTINUOUS
10
1.7266053543307087
20
-1.3285040157480315
11
1.7324153543307086
21
-1.3205072047244095
0
LINE
8
BLACK
6
CONTINUOUS
10
1.7324153543307086
20
-1.3205072047244095
11
1.7394048425196851
21
-1.313517716535433
0
LINE
8
BLACK
6
CONTINUOUS
10
1.7394048425196851
20
-1.313517716535433
11
1.747401653543307
21
-1.3077077165354329
0
LINE
8
BLACK
6
CONTINUOUS
10
1.747401653543307
20
-1.3077077165354329
11
1.7562089370078739
21
-1.3032201968503936
0
LINE
8
BLACK
6
CONTINUOUS
10
1.7562089370078739
20
-1.3032201968503936
11
1.7656097244094489
21
-1.3001656692913386
0
LINE
8
BLACK
6
CONTINUOUS
10
1.7656097244094489
20
-1.3001656692913386
11
1.7753726377952757
21
-1.2986193700787401
0
LINE
8
BLACK
6
CONTINUOUS
10
1.7753726377952757
20
-1.2986193700787401
11
1.7852572834645668
21
-1.2986193700787401
0
LINE
8
BLACK
6
CONTINUOUS
10
1.7852572834645668
20
-1.2986193700787401
11
1.7950201968503936
21
-1.3001656692913386
0
LINE
8
BLACK
6
CONTINUOUS
10
1.9950201968503936
20
-1.3001656692913386
11
2.0044209842519685
21
-1.3032201968503936
0
LINE
8
BLACK
6
CONTINUOUS
10
2.0044209842519685
20
-1.3032201968503936
11
2.0132282677165354
21
-1.3077077165354329
0
LINE
8
BLACK
6
CONTINUOUS
10
2.0132282677165354
20
-1.3077077165354329
11
2.0212250787401573
21
-1.313517716535433
0
LINE
8
BLACK
6
CONTINUOUS
10
2.0212250787401573
20
-1.313517716535433
11
2.0282145669291336
21
-1.3205072047244095
0
LINE
8
BLACK
6
CONTINUOUS
10
2.0282145669291336
20
-1.3205072047244095
11
2.0340245669291339
21
-1.3285040157480315
0
LINE
8
BLACK
6
CONTINUOUS
10
2.0340245669291339
20
-1.3285040157480315
11
2.038512086614173
21
-1.3373112992125984
0
LINE
8
BLACK
6
CONTINUOUS
10
2.038512086614173
20
-1.3373112992125984
11
2.0415666141732283
21
-1.3467120866141733
0
LINE
8
BLACK
6
CONTINUOUS
10
2.0415666141732283
20
-1.3467120866141733
11
2.0431129133858268
21
-1.3564749999999999
0
LINE
8
BLACK
6
CONTINUOUS
10
2.0431129133858268
20
-1.3564749999999999
11
2.0431129133858268
21
-1.3663596456692912
0
LINE
8
BLACK
6
CONTINUOUS
10
2.0431129133858268
20
-1.3663596456692912
11
2.0415666141732283
21
-1.376122559055118
0
LINE
8
BLACK
6
CONTINUOUS
10
2.0415666141732283
20
-1.376122559055118
11
2.038512086614173
21
-1.385523346456693
0
LINE
8
BLACK
6
CONTINUOUS
10
2.038512086614173
20
-1.385523346456693
11
2.0340245669291339
21
-1.3943306299212599
0
LINE
8
BLACK
6
CONTINUOUS
10
2.0340245669291339
20
-1.3943306299212599
11
2.0282145669291336
21
-1.4023274409448818
0
LINE
8
BLACK
6
CONTINUOUS
10
2.0282145669291336
20
-1.4023274409448818
11
2.0212250787401573
21
-1.4093169291338583
0
LINE
8
BLACK
6
CONTINUOUS
10
2.0212250787401573
20
-1.4093169291338583
11
2.0132282677165354
21
-1.4151269291338582
0
LINE
8
BLACK
6
CONTINUOUS
10
2.0132282677165354
20
-1.4151269291338582
11
2.0044209842519685
21
-1.4196144488188975
0
LINE
8
BLACK
6
CONTINUOUS
10
2.0044209842519685
20
-1.4196144488188975
11
1.9950201968503936
21
-1.4226689763779528
0
LINE
8
BLACK
6
CONTINUOUS
10
1.9950201968503936
20
-1.4226689763779528
11
1.985257283464567
21
-1.4242152755905511
0
LINE
8
BLACK
6
CONTINUOUS
10
1.985257283464567
20
-1.4242152755905511
11
1.9753726377952756
21
-1.4242152755905511
0
LINE
8
BLACK
6
CONTINUOUS
10
1.9753726377952756
20
-1.4242152755905511
11
1.9656097244094488
21
-1.4226689763779528
0
LINE
8
BLACK
6
CONTINUOUS
10
1.9656097244094488
20
-1.4226689763779528
11
1.9562089370078739
21
-1.4196144488188975
0
LINE
8
BLACK
6
CONTINUOUS
10
1.9562089370078739
20
-1.4196144488188975
11
1.947401653543307
21
-1.4151269291338582
0
LINE
8
BLACK
6
CONTINUOUS
10
1.947401653543307
20
-1.4151269291338582
11
1.939404842519685
21
-1.4093169291338583
0
LINE
8
BLACK
6
CONTINUOUS
10
1.939404842519685
20
-1.4093169291338583
11
1.9324153543307085
21
-1.4023274409448818
0
LINE
8
BLACK
6
CONTINUOUS
10
1.9324153543307085
20
-1.4023274409448818
11
1.9266053543307087
21
-1.3943306299212599
0
LINE
8
BLACK
6
CONTINUOUS
10
1.9266053543307087
20
-1.3943306299212599
11
1.9221178346456693
21
-1.385523346456693
0
LINE
8
BLACK
6
CONTINUOUS
10
1.9221178346456693
20
-1.385523346456693
11
1.9190633070866141
21
-1.376122559055118
0
LINE
8
BLACK
6
CONTINUOUS
10
1.9190633070866141
20
-1.376122559055118
11
1.9175170078740158
21
-1.3663596456692912
0
LINE
8
BLACK
6
CONTINUOUS
10
1.9175170078740158
20
-1.3663596456692912
11
1.9175170078740158
21
-1.3564749999999999
0
LINE
8
BLACK
6
CONTINUOUS
10
1.9175170078740158
20
-1.3564749999999999
11
1.9190633070866141
21
-1.3467120866141733
0
LINE
8
BLACK
6
CONTINUOUS
10
1.9190633070866141
20
-1.3467120866141733
11
1.9221178346456693
21
-1.3373112992125984
0
LINE
8
BLACK
6
CONTINUOUS
10
1.9221178346456693
20
-1.3373112992125984
11
1.9266053543307087
21
-1.3285040157480315
0
LINE
8
BLACK
6
CONTINUOUS
10
1.9266053543307087
20
-1.3285040157480315
11
1.9324153543307085
21
-1.3205072047244095
0
LINE
8
BLACK
6
CONTINUOUS
10
1.9324153543307085
20
-1.3205072047244095
11
1.939404842519685
21
-1.313517716535433
0
LINE
8
BLACK
6
CONTINUOUS
10
1.939404842519685
20
-1.313517716535433
11
1.947401653543307
21
-1.3077077165354329
0
LINE
8
BLACK
6
CONTINUOUS
10
1.947401653543307
20
-1.3077077165354329
11
1.9562089370078739
21
-1.3032201968503936
0
LINE
8
BLACK
6
CONTINUOUS
10
1.9562089370078739
20
-1.3032201968503936
11
1.9656097244094488
21
-1.3001656692913386
0
LINE
8
BLACK
6
CONTINUOUS
10
1.9656097244094488
20
-1.3001656692913386
11
1.9753726377952756
21
-1.2986193700787401
0
LINE
8
BLACK
6
CONTINUOUS
10
1.9753726377952756
20
-1.2986193700787401
11
1.985257283464567
21
-1.2986193700787401
0
LINE
8
BLACK
6
CONTINUOUS
10
1.985257283464567
20
-1.2986193700787401
11
1.9950201968503936
21
-1.3001656692913386
0
LINE
8
BLACK
6
CONTINUOUS
10
2.1950201968503937
20
-1.3001656692913386
11
2.2044209842519686
21
-1.3032201968503936
0
LINE
8
BLACK
6
CONTINUOUS
10
2.2044209842519686
20
-1.3032201968503936
11
2.2132282677165356
21
-1.3077077165354329
0
LINE
8
BLACK
6
CONTINUOUS
10
2.2132282677165356
20
-1.3077077165354329
11
2.2212250787401575
21
-1.313517716535433
0
LINE
8
BLACK
6
CONTINUOUS
10
2.2212250787401575
20
-1.313517716535433
11
2.2282145669291338
21
-1.3205072047244095
0
LINE
8
BLACK
6
CONTINUOUS
10
2.2282145669291338
20
-1.3205072047244095
11
2.2340245669291336
21
-1.3285040157480315
0
LINE
8
BLACK
6
CONTINUOUS
10
2.2340245669291336
20
-1.3285040157480315
11
2.2385120866141732
21
-1.3373112992125984
0
LINE
8
BLACK
6
CONTINUOUS
10
2.2385120866141732
20
-1.3373112992125984
11
2.2415666141732284
21
-1.3467120866141733
0
LINE
8
BLACK
6
CONTINUOUS
10
2.2415666141732284
20
-1.3467120866141733
11
2.2431129133858265
21
-1.3564749999999999
0
LINE
8
BLACK
6
CONTINUOUS
10
2.2431129133858265
20
-1.3564749999999999
11
2.2431129133858265
21
-1.3663596456692912
0
LINE
8
BLACK
6
CONTINUOUS
10
2.2431129133858265
20
-1.3663596456692912
11
2.2415666141732284
21
-1.376122559055118
0
LINE
8
BLACK
6
CONTINUOUS
10
2.2415666141732284
20
-1.376122559055118
11
2.2385120866141732
21
-1.385523346456693
0
LINE
8
BLACK
6
CONTINUOUS
10
2.2385120866141732
20
-1.385523346456693
11
2.2340245669291336
21
-1.3943306299212599
0
LINE
8
BLACK
6
CONTINUOUS
10
2.2340245669291336
20
-1.3943306299212599
11
2.2282145669291338
21
-1.4023274409448818
0
LINE
8
BLACK
6
CONTINUOUS
10
2.2282145669291338
20
-1.4023274409448818
11
2.2212250787401575
21
-1.4093169291338583
0
LINE
8
BLACK
6
CONTINUOUS
10
2.2212250787401575
20
-1.4093169291338583
11
2.2132282677165356
21
-1.4151269291338582
0
LINE
8
BLACK
6
CONTINUOUS
10
2.2132282677165356
20
-1.4151269291338582
11
2.2044209842519686
21
-1.4196144488188975
0
LINE
8
BLACK
6
CONTINUOUS
10
2.2044209842519686
20
-1.4196144488188975
11
2.1950201968503937
21
-1.4226689763779528
0
LINE
8
BLACK
6
CONTINUOUS
10
2.1950201968503937
20
-1.4226689763779528
11
2.1852572834645669
21
-1.4242152755905511
0
LINE
8
BLACK
6
CONTINUOUS
10
2.1852572834645669
20
-1.4242152755905511
11
2.1753726377952756
21
-1.4242152755905511
0
LINE
8
BLACK
6
CONTINUOUS
10
2.1753726377952756
20
-1.4242152755905511
11
2.1656097244094488
21
-1.4226689763779528
0
LINE
8
BLACK
6
CONTINUOUS
10
2.1656097244094488
20
-1.4226689763779528
11
2.1562089370078739
21
-1.4196144488188975
0
LINE
8
BLACK
6
CONTINUOUS
10
2.1562089370078739
20
-1.4196144488188975
11
2.1474016535433069
21
-1.4151269291338582
0
LINE
8
BLACK
6
CONTINUOUS
10
2.1474016535433069
20
-1.4151269291338582
11
2.139404842519685
21
-1.4093169291338583
0
LINE
8
BLACK
6
CONTINUOUS
10
2.139404842519685
20
-1.4093169291338583
11
2.1324153543307087
21
-1.4023274409448818
0
LINE
8
BLACK
6
CONTINUOUS
10
2.1324153543307087
20
-1.4023274409448818
11
2.1266053543307084
21
-1.3943306299212599
0
LINE
8
BLACK
6
CONTINUOUS
10
2.1266053543307084
20
-1.3943306299212599
11
2.1221178346456693
21
-1.385523346456693
0
LINE
8
BLACK
6
CONTINUOUS
10
2.1221178346456693
20
-1.385523346456693
11
2.1190633070866141
21
-1.376122559055118
0
LINE
8
BLACK
6
CONTINUOUS
10
2.1190633070866141
20
-1.376122559055118
11
2.1175170078740155
21
-1.3663596456692912
0
LINE
8
BLACK
6
CONTINUOUS
10
2.1175170078740155
20
-1.3663596456692912
11
2.1175170078740155
21
-1.3564749999999999
0
LINE
8
BLACK
6
CONTINUOUS
10
2.1175170078740155
20
-1.3564749999999999
11
2.1190633070866141
21
-1.3467120866141733
0
LINE
8
BLACK
6
CONTINUOUS
10
2.1190633070866141
20
-1.3467120866141733
11
2.1221178346456693
21
-1.3373112992125984
0
LINE
8
BLACK
6
CONTINUOUS
10
2.1221178346456693
20
-1.3373112992125984
11
2.1266053543307084
21
-1.3285040157480315
0
LINE
8
BLACK
6
CONTINUOUS
10
2.1266053543307084
20
-1.3285040157480315
11
2.1324153543307087
21
-1.3205072047244095
0
LINE
8
BLACK
6
CONTINUOUS
10
2.1324153543307087
20
-1.3205072047244095
11
2.139404842519685
21
-1.313517716535433
0
LINE
8
BLACK
6
CONTINUOUS
10
2.139404842519685
20
-1.313517716535433
11
2.1474016535433069
21
-1.3077077165354329
0
LINE
8
BLACK
6
CONTINUOUS
10
2.1474016535433069
20
-1.3077077165354329
11
2.1562089370078739
21
-1.3032201968503936
0
LINE
8
BLACK
6
CONTINUOUS
10
2.1562089370078739
20
-1.3032201968503936
11
2.1656097244094488
21
-1.3001656692913386
0
LINE
8
BLACK
6
CONTINUOUS
10
2.1656097244094488
20
-1.3001656692913386
11
2.1753726377952756
21
-1.2986193700787401
0
LINE
8
BLACK
6
CONTINUOUS
10
2.1753726377952756
20
-1.2986193700787401
11
2.1852572834645669
21
-1.2986193700787401
0
LINE
8
BLACK
6
CONTINUOUS
10
2.1852572834645669
20
-1.2986193700787401
11
2.1950201968503937
21
-1.3001656692913386
0
LINE
8
BLACK
6
CONTINUOUS
10
2.3950201968503935
20
-1.3001656692913386
11
2.4044209842519684
21
-1.3032201968503936
0
LINE
8
BLACK
6
CONTINUOUS
10
2.4044209842519684
20
-1.3032201968503936
11
2.4132282677165353
21
-1.3077077165354329
0
LINE
8
BLACK
6
CONTINUOUS
10
2.4132282677165353
20
-1.3077077165354329
11
2.4212250787401572
21
-1.313517716535433
0
LINE
8
BLACK
6
CONTINUOUS
10
2.4212250787401572
20
-1.313517716535433
11
2.428214566929134
21
-1.3205072047244095
0
LINE
8
BLACK
6
CONTINUOUS
10
2.428214566929134
20
-1.3205072047244095
11
2.4340245669291338
21
-1.3285040157480315
0
LINE
8
BLACK
6
CONTINUOUS
10
2.4340245669291338
20
-1.3285040157480315
11
2.438512086614173
21
-1.3373112992125984
0
LINE
8
BLACK
6
CONTINUOUS
10
2.438512086614173
20
-1.3373112992125984
11
2.4415666141732282
21
-1.3467120866141733
0
LINE
8
BLACK
6
CONTINUOUS
10
2.4415666141732282
20
-1.3467120866141733
11
2.4431129133858267
21
-1.3564749999999999
0
LINE
8
BLACK
6
CONTINUOUS
10
2.4431129133858267
20
-1.3564749999999999
11
2.4431129133858267
21
-1.3663596456692912
0
LINE
8
BLACK
6
CONTINUOUS
10
2.4431129133858267
20
-1.3663596456692912
11
2.4415666141732282
21
-1.376122559055118
0
LINE
8
BLACK
6
CONTINUOUS
10
2.4415666141732282
20
-1.376122559055118
11
2.438512086614173
21
-1.385523346456693
0
LINE
8
BLACK
6
CONTINUOUS
10
2.438512086614173
20
-1.385523346456693
11
2.4340245669291338
21
-1.3943306299212599
0
LINE
8
BLACK
6
CONTINUOUS
10
2.4340245669291338
20
-1.3943306299212599
11
2.428214566929134
21
-1.4023274409448818
0
LINE
8
BLACK
6
CONTINUOUS
10
2.428214566929134
20
-1.4023274409448818
11
2.4212250787401572
21
-1.4093169291338583
0
LINE
8
BLACK
6
CONTINUOUS
10
2.4212250787401572
20
-1.4093169291338583
11
2.4132282677165353
21
-1.4151269291338582
0
LINE
8
BLACK
6
CONTINUOUS
10
2.4132282677165353
20
-1.4151269291338582
11
2.4044209842519684
21
-1.4196144488188975
0
LINE
8
BLACK
6
CONTINUOUS
10
2.4044209842519684
20
-1.4196144488188975
11
2.3950201968503935
21
-1.4226689763779528
0
LINE
8
BLACK
6
CONTINUOUS
10
2.3950201968503935
20
-1.4226689763779528
11
2.3852572834645667
21
-1.4242152755905511
0
LINE
8
BLACK
6
CONTINUOUS
10
2.3852572834645667
20
-1.4242152755905511
11
2.3753726377952757
21
-1.4242152755905511
0
LINE
8
BLACK
6
CONTINUOUS
10
2.3753726377952757
20
-1.4242152755905511
11
2.3656097244094489
21
-1.4226689763779528
0
LINE
8
BLACK
6
CONTINUOUS
10
2.3656097244094489
20
-1.4226689763779528
11
2.356208937007874
21
-1.4196144488188975
0
LINE
8
BLACK
6
CONTINUOUS
10
2.356208937007874
20
-1.4196144488188975
11
2.3474016535433071
21
-1.4151269291338582
0
LINE
8
BLACK
6
CONTINUOUS
10
2.3474016535433071
20
-1.4151269291338582
11
2.3394048425196852
21
-1.4093169291338583
0
LINE
8
BLACK
6
CONTINUOUS
10
2.3394048425196852
20
-1.4093169291338583
11
2.3324153543307085
21
-1.4023274409448818
0
LINE
8
BLACK
6
CONTINUOUS
10
2.3324153543307085
20
-1.4023274409448818
11
2.3266053543307086
21
-1.3943306299212599
0
LINE
8
BLACK
6
CONTINUOUS
10
2.3266053543307086
20
-1.3943306299212599
11
2.3221178346456695
21
-1.385523346456693
0
LINE
8
BLACK
6
CONTINUOUS
10
2.3221178346456695
20
-1.385523346456693
11
2.3190633070866142
21
-1.376122559055118
0
LINE
8
BLACK
6
CONTINUOUS
10
2.3190633070866142
20
-1.376122559055118
11
2.3175170078740157
21
-1.3663596456692912
0
LINE
8
BLACK
6
CONTINUOUS
10
2.3175170078740157
20
-1.3663596456692912
11
2.3175170078740157
21
-1.3564749999999999
0
LINE
8
BLACK
6
CONTINUOUS
10
2.3175170078740157
20
-1.3564749999999999
11
2.3190633070866142
21
-1.3467120866141733
0
LINE
8
BLACK
6
CONTINUOUS
10
2.3190633070866142
20
-1.3467120866141733
11
2.3221178346456695
21
-1.3373112992125984
0
LINE
8
BLACK
6
CONTINUOUS
10
2.3221178346456695
20
-1.3373112992125984
11
2.3266053543307086
21
-1.3285040157480315
0
LINE
8
BLACK
6
CONTINUOUS
10
2.3266053543307086
20
-1.3285040157480315
11
2.3324153543307085
21
-1.3205072047244095
0
LINE
8
BLACK
6
CONTINUOUS
10
2.3324153543307085
20
-1.3205072047244095
11
2.3394048425196852
21
-1.313517716535433
0
LINE
8
BLACK
6
CONTINUOUS
10
2.3394048425196852
20
-1.313517716535433
11
2.3474016535433071
21
-1.3077077165354329
0
LINE
8
BLACK
6
CONTINUOUS
10
2.3474016535433071
20
-1.3077077165354329
11
2.356208937007874
21
-1.3032201968503936
0
LINE
8
BLACK
6
CONTINUOUS
10
2.356208937007874
20
-1.3032201968503936
11
2.3656097244094489
21
-1.3001656692913386
0
LINE
8
BLACK
6
CONTINUOUS
10
2.3656097244094489
20
-1.3001656692913386
11
2.3753726377952757
21
-1.2986193700787401
0
LINE
8
BLACK
6
CONTINUOUS
10
2.3753726377952757
20
-1.2986193700787401
11
2.3852572834645667
21
-1.2986193700787401
0
LINE
8
BLACK
6
CONTINUOUS
10
2.3852572834645667
20
-1.2986193700787401
11
2.3950201968503935
21
-1.3001656692913386
0
LINE
8
BLACK
6
CONTINUOUS
10
1.614252559055118
20
-1.0279098425196851
11
1.624582874015748
21
-1.0302676377952755
0
LINE
8
BLACK
6
CONTINUOUS
10
1.624582874015748
20
-1.0302676377952755
11
1.6345842519685039
21
-1.0337672834645668
0
LINE
8
BLACK
6
CONTINUOUS
10
1.6345842519685039
20
-1.0337672834645668
11
1.644130905511811
21
-1.0383647244094487
0
LINE
8
BLACK
6
CONTINUOUS
10
1.644130905511811
20
-1.0383647244094487
11
1.6531027952755906
21
-1.044002125984252
0
LINE
8
BLACK
6
CONTINUOUS
10
1.6531027952755906
20
-1.044002125984252
11
1.6613870866141731
21
-1.0506086220472441
0
LINE
8
BLACK
6
CONTINUOUS
10
1.6613870866141731
20
-1.0506086220472441
11
1.6688795669291339
21
-1.0581011023622047
0
LINE
8
BLACK
6
CONTINUOUS
10
1.6688795669291339
20
-1.0581011023622047
11
1.675486062992126
21
-1.0663853937007874
0
LINE
8
BLACK
6
CONTINUOUS
10
1.675486062992126
20
-1.0663853937007874
11
1.6811234645669291
21
-1.0753572834645668
0
LINE
8
BLACK
6
CONTINUOUS
10
1.6811234645669291
20
-1.0753572834645668
11
1.685720905511811
21
-1.0849039370078739
0
LINE
8
BLACK
6
CONTINUOUS
10
1.685720905511811
20
-1.0849039370078739
11
1.6892205511811023
21
-1.0949053149606298
0
LINE
8
BLACK
6
CONTINUOUS
10
1.6892205511811023
20
-1.0949053149606298
11
1.6915783464566929
21
-1.1052356299212598
0
LINE
8
BLACK
6
CONTINUOUS
10
1.6915783464566929
20
-1.1052356299212598
11
1.6927647244094488
21
-1.1157649999999999
0
LINE
8
BLACK
6
CONTINUOUS
10
1.6927647244094488
20
-1.1157649999999999
11
1.6927647244094488
21
-1.1263609842519684
0
LINE
8
BLACK
6
CONTINUOUS
10
1.6927647244094488
20
-1.1263609842519684
11
1.6915783464566929
21
-1.1368903543307087
0
LINE
8
BLACK
6
CONTINUOUS
10
1.6915783464566929
20
-1.1368903543307087
11
1.6892205511811023
21
-1.1472206692913385
0
LINE
8
BLACK
6
CONTINUOUS
10
1.6892205511811023
20
-1.1472206692913385
11
1.685720905511811
21
-1.1572220472440944
0
LINE
8
BLACK
6
CONTINUOUS
10
1.685720905511811
20
-1.1572220472440944
11
1.6811234645669291
21
-1.1667687007874015
0
LINE
8
BLACK
6
CONTINUOUS
10
1.6811234645669291
20
-1.1667687007874015
11
1.675486062992126
21
-1.1757405905511811
0
LINE
8
BLACK
6
CONTINUOUS
10
1.675486062992126
20
-1.1757405905511811
11
1.6688795669291339
21
-1.1840248818897638
0
LINE
8
BLACK
6
CONTINUOUS
10
1.6688795669291339
20
-1.1840248818897638
11
1.6613870866141731
21
-1.1915173622047244
0
LINE
8
BLACK
6
CONTINUOUS
10
1.6613870866141731
20
-1.1915173622047244
11
1.6531027952755906
21
-1.1981238582677165
0
LINE
8
BLACK
6
CONTINUOUS
10
1.6531027952755906
20
-1.1981238582677165
11
1.644130905511811
21
-1.2037612598425196
0
LINE
8
BLACK
6
CONTINUOUS
10
1.644130905511811
20
-1.2037612598425196
11
1.6345842519685039
21
-1.2083587007874015
0
LINE
8
BLACK
6
CONTINUOUS
10
1.6345842519685039
20
-1.2083587007874015
11
1.624582874015748
21
-1.211858346456693
0
LINE
8
BLACK
6
CONTINUOUS
10
1.624582874015748
20
-1.211858346456693
11
1.614252559055118
21
-1.2142161417322834
0
LINE
8
BLACK
6
CONTINUOUS
10
1.614252559055118
20
-1.2142161417322834
11
1.6037231889763779
21
-1.2154025196850393
0
LINE
8
BLACK
6
CONTINUOUS
10
1.6037231889763779
20
-1.2154025196850393
11
1.5931272047244094
21
-1.2154025196850393
0
LINE
8
BLACK
6
CONTINUOUS
10
1.5931272047244094
20
-1.2154025196850393
11
1.5825978346456693
21
-1.2142161417322834
0
LINE
8
BLACK
6
CONTINUOUS
10
1.5825978346456693
20
-1.2142161417322834
11
1.5722675196850393
21
-1.211858346456693
0
LINE
8
BLACK
6
CONTINUOUS
10
1.5722675196850393
20
-1.211858346456693
11
1.5622661417322834
21
-1.2083587007874015
0
LINE
8
BLACK
6
CONTINUOUS
10
1.5622661417322834
20
-1.2083587007874015
11
1.5527194881889763
21
-1.2037612598425196
0
LINE
8
BLACK
6
CONTINUOUS
10
1.5527194881889763
20
-1.2037612598425196
11
1.5437475984251967
21
-1.1981238582677165
0
LINE
8
BLACK
6
CONTINUOUS
10
1.5437475984251967
20
-1.1981238582677165
11
1.5354633070866142
21
-1.1915173622047244
0
LINE
8
BLACK
6
CONTINUOUS
10
1.5354633070866142
20
-1.1915173622047244
11
1.5279708267716534
21
-1.1840248818897638
0
LINE
8
BLACK
6
CONTINUOUS
10
1.5279708267716534
20
-1.1840248818897638
11
1.5213643307086613
21
-1.1757405905511811
0
LINE
8
BLACK
6
CONTINUOUS
10
1.5213643307086613
20
-1.1757405905511811
11
1.5157269291338582
21
-1.1667687007874015
0
LINE
8
BLACK
6
CONTINUOUS
10
1.5157269291338582
20
-1.1667687007874015
11
1.5111294881889763
21
-1.1572220472440944
0
LINE
8
BLACK
6
CONTINUOUS
10
1.5111294881889763
20
-1.1572220472440944
11
1.507629842519685
21
-1.1472206692913385
0
LINE
8
BLACK
6
CONTINUOUS
10
1.507629842519685
20
-1.1472206692913385
11
1.5052720472440944
21
-1.1368903543307087
0
LINE
8
BLACK
6
CONTINUOUS
10
1.5052720472440944
20
-1.1368903543307087
11
1.5040856692913385
21
-1.1263609842519684
0
LINE
8
BLACK
6
CONTINUOUS
10
1.5040856692913385
20
-1.1263609842519684
11
1.5040856692913385
21
-1.1157649999999999
0
LINE
8
BLACK
6
CONTINUOUS
10
1.5040856692913385
20
-1.1157649999999999
11
1.5052720472440944
21
-1.1052356299212598
0
LINE
8
BLACK
6
CONTINUOUS
10
1.5052720472440944
20
-1.1052356299212598
11
1.507629842519685
21
-1.0949053149606298
0
LINE
8
BLACK
6
CONTINUOUS
10
1.507629842519685
20
-1.0949053149606298
11
1.5111294881889763
21
-1.0849039370078739
0
LINE
8
BLACK
6
CONTINUOUS
10
1.5111294881889763
20
-1.0849039370078739
11
1.5157269291338582
21
-1.0753572834645668
0
LINE
8
BLACK
6
CONTINUOUS
10
1.5157269291338582
20
-1.0753572834645668
11
1.5213643307086613
21
-1.0663853937007874
0
LINE
8
BLACK
6
CONTINUOUS
10
1.5213643307086613
20
-1.0663853937007874
11
1.5279708267716534
21
-1.0581011023622047
0
LINE
8
BLACK
6
CONTINUOUS
10
1.5279708267716534
20
-1.0581011023622047
11
1.5354633070866142
21
-1.0506086220472441
0
LINE
8
BLACK
6
CONTINUOUS
10
1.5354633070866142
20
-1.0506086220472441
11
1.5437475984251967
21
-1.044002125984252
0
LINE
8
BLACK
6
CONTINUOUS
10
1.5437475984251967
20
-1.044002125984252
11
1.5527194881889763
21
-1.0383647244094487
0
LINE
8
BLACK
6
CONTINUOUS
10
1.5527194881889763
20
-1.0383647244094487
11
1.5622661417322834
21
-1.0337672834645668
0
LINE
8
BLACK
6
CONTINUOUS
10
1.5622661417322834
20
-1.0337672834645668
11
1.5722675196850393
21
-1.0302676377952755
0
LINE
8
BLACK
6
CONTINUOUS
10
1.5722675196850393
20
-1.0302676377952755
11
1.5825978346456693
21
-1.0279098425196851
0
LINE
8
BLACK
6
CONTINUOUS
10
1.5825978346456693
20
-1.0279098425196851
11
1.5931272047244094
21
-1.0267234645669292
0
LINE
8
BLACK
6
CONTINUOUS
10
1.5931272047244094
20
-1.0267234645669292
11
1.6037231889763779
21
-1.0267234645669292
0
LINE
8
BLACK
6
CONTINUOUS
10
1.6037231889763779
20
-1.0267234645669292
11
1.614252559055118
21
-1.0279098425196851
0
LINE
8
BLACK
6
CONTINUOUS
10
1.9961423228346455
20
-1.0279098425196851
11
2.0064726377952757
21
-1.0302676377952755
0
LINE
8
BLACK
6
CONTINUOUS
10
2.0064726377952757
20
-1.0302676377952755
11
2.0164740157480314
21
-1.0337672834645668
0
LINE
8
BLACK
6
CONTINUOUS
10
2.0164740157480314
20
-1.0337672834645668
11
2.0260206692913387
21
-1.0383647244094487
0
LINE
8
BLACK
6
CONTINUOUS
10
2.0260206692913387
20
-1.0383647244094487
11
2.0349925590551181
21
-1.044002125984252
0
LINE
8
BLACK
6
CONTINUOUS
10
2.0349925590551181
20
-1.044002125984252
11
2.0432768503937009
21
-1.0506086220472441
0
LINE
8
BLACK
6
CONTINUOUS
10
2.0432768503937009
20
-1.0506086220472441
11
2.0507693307086612
21
-1.0581011023622047
0
LINE
8
BLACK
6
CONTINUOUS
10
2.0507693307086612
20
-1.0581011023622047
11
2.0573758267716533
21
-1.0663853937007874
0
LINE
8
BLACK
6
CONTINUOUS
10
2.0573758267716533
20
-1.0663853937007874
11
2.0630132283464566
21
-1.0753572834645668
0
LINE
8
BLACK
6
CONTINUOUS
10
2.0630132283464566
20
-1.0753572834645668
11
2.0676106692913385
21
-1.0849039370078739
0
LINE
8
BLACK
6
CONTINUOUS
10
2.0676106692913385
20
-1.0849039370078739
11
2.07111031496063
21
-1.0949053149606298
0
LINE
8
BLACK
6
CONTINUOUS
10
2.07111031496063
20
-1.0949053149606298
11
2.0734681102362202
21
-1.1052356299212598
0
LINE
8
BLACK
6
CONTINUOUS
10
2.0734681102362202
20
-1.1052356299212598
11
2.0746544881889761
21
-1.1157649999999999
0
LINE
8
BLACK
6
CONTINUOUS
10
2.0746544881889761
20
-1.1157649999999999
11
2.0746544881889761
21
-1.1263609842519684
0
LINE
8
BLACK
6
CONTINUOUS
10
2.0746544881889761
20
-1.1263609842519684
11
2.0734681102362202
21
-1.1368903543307087
0
LINE
8
BLACK
6
CONTINUOUS
10
2.0734681102362202
20
-1.1368903543307087
11
2.07111031496063
21
-1.1472206692913385
0
LINE
8
BLACK
6
CONTINUOUS
10
2.07111031496063
20
-1.1472206692913385
11
2.0676106692913385
21
-1.1572220472440944
0
LINE
8
BLACK
6
CONTINUOUS
10
2.0676106692913385
20
-1.1572220472440944
11
2.0630132283464566
21
-1.1667687007874015
0
LINE
8
BLACK
6
CONTINUOUS
10
2.0630132283464566
20
-1.1667687007874015
11
2.0573758267716533
21
-1.1757405905511811
0
LINE
8
BLACK
6
CONTINUOUS
10
2.0573758267716533
20
-1.1757405905511811
11
2.0507693307086612
21
-1.1840248818897638
0
LINE
8
BLACK
6
CONTINUOUS
10
2.0507693307086612
20
-1.1840248818897638
11
2.0432768503937009
21
-1.1915173622047244
0
LINE
8
BLACK
6
CONTINUOUS
10
2.0432768503937009
20
-1.1915173622047244
11
2.0349925590551181
21
-1.1981238582677165
0
LINE
8
BLACK
6
CONTINUOUS
10
2.0349925590551181
20
-1.1981238582677165
11
2.0260206692913387
21
-1.2037612598425196
0
LINE
8
BLACK
6
CONTINUOUS
10
2.0260206692913387
20
-1.2037612598425196
11
2.0164740157480314
21
-1.2083587007874015
0
LINE
8
BLACK
6
CONTINUOUS
10
2.0164740157480314
20
-1.2083587007874015
11
2.0064726377952757
21
-1.211858346456693
0
LINE
8
BLACK
6
CONTINUOUS
10
2.0064726377952757
20
-1.211858346456693
11
1.9961423228346455
21
-1.2142161417322834
0
LINE
8
BLACK
6
CONTINUOUS
10
1.9961423228346455
20
-1.2142161417322834
11
1.9856129527559054
21
-1.2154025196850393
0
LINE
8
BLACK
6
CONTINUOUS
10
1.9856129527559054
20
-1.2154025196850393
11
1.9750169685039369
21
-1.2154025196850393
0
LINE
8
BLACK
6
CONTINUOUS
10
1.9750169685039369
20
-1.2154025196850393
11
1.9644875984251968
21
-1.2142161417322834
0
LINE
8
BLACK
6
CONTINUOUS
10
1.9644875984251968
20
-1.2142161417322834
11
1.9541572834645669
21
-1.211858346456693
0
LINE
8
BLACK
6
CONTINUOUS
10
1.9541572834645669
20
-1.211858346456693
11
1.9441559055118109
21
-1.2083587007874015
0
LINE
8
BLACK
6
CONTINUOUS
10
1.9441559055118109
20
-1.2083587007874015
11
1.9346092519685039
21
-1.2037612598425196
0
LINE
8
BLACK
6
CONTINUOUS
10
1.9346092519685039
20
-1.2037612598425196
11
1.9256373622047243
21
-1.1981238582677165
0
LINE
8
BLACK
6
CONTINUOUS
10
1.9256373622047243
20
-1.1981238582677165
11
1.9173530708661417
21
-1.1915173622047244
0
LINE
8
BLACK
6
CONTINUOUS
10
1.9173530708661417
20
-1.1915173622047244
11
1.909860590551181
21
-1.1840248818897638
0
LINE
8
BLACK
6
CONTINUOUS
10
1.909860590551181
20
-1.1840248818897638
11
1.9032540944881888
21
-1.1757405905511811
0
LINE
8
BLACK
6
CONTINUOUS
10
1.9032540944881888
20
-1.1757405905511811
11
1.8976166929133857
21
-1.1667687007874015
0
LINE
8
BLACK
6
CONTINUOUS
10
1.8976166929133857
20
-1.1667687007874015
11
1.8930192519685038
21
-1.1572220472440944
0
LINE
8
BLACK
6
CONTINUOUS
10
1.8930192519685038
20
-1.1572220472440944
11
1.8895196062992126
21
-1.1472206692913385
0
LINE
8
BLACK
6
CONTINUOUS
10
1.8895196062992126
20
-1.1472206692913385
11
1.8871618110236219
21
-1.1368903543307087
0
LINE
8
BLACK
6
CONTINUOUS
10
1.8871618110236219
20
-1.1368903543307087
11
1.885975433070866
21
-1.1263609842519684
0
LINE
8
BLACK
6
CONTINUOUS
10
1.885975433070866
20
-1.1263609842519684
11
1.885975433070866
21
-1.1157649999999999
0
LINE
8
BLACK
6
CONTINUOUS
10
1.885975433070866
20
-1.1157649999999999
11
1.8871618110236219
21
-1.1052356299212598
0
LINE
8
BLACK
6
CONTINUOUS
10
1.8871618110236219
20
-1.1052356299212598
11
1.8895196062992126
21
-1.0949053149606298
0
LINE
8
BLACK
6
CONTINUOUS
10
1.8895196062992126
20
-1.0949053149606298
11
1.8930192519685038
21
-1.0849039370078739
0
LINE
8
BLACK
6
CONTINUOUS
10
1.8930192519685038
20
-1.0849039370078739
11
1.8976166929133857
21
-1.0753572834645668
0
LINE
8
BLACK
6
CONTINUOUS
10
1.8976166929133857
20
-1.0753572834645668
11
1.9032540944881888
21
-1.0663853937007874
0
LINE
8
BLACK
6
CONTINUOUS
10
1.9032540944881888
20
-1.0663853937007874
11
1.909860590551181
21
-1.0581011023622047
0
LINE
8
BLACK
6
CONTINUOUS
10
1.909860590551181
20
-1.0581011023622047
11
1.9173530708661417
21
-1.0506086220472441
0
LINE
8
BLACK
6
CONTINUOUS
10
1.9173530708661417
20
-1.0506086220472441
11
1.9256373622047243
21
-1.044002125984252
0
LINE
8
BLACK
6
CONTINUOUS
10
1.9256373622047243
20
-1.044002125984252
11
1.9346092519685039
21
-1.0383647244094487
0
LINE
8
BLACK
6
CONTINUOUS
10
1.9346092519685039
20
-1.0383647244094487
11
1.9441559055118109
21
-1.0337672834645668
0
LINE
8
BLACK
6
CONTINUOUS
10
1.9441559055118109
20
-1.0337672834645668
11
1.9541572834645669
21
-1.0302676377952755
0
LINE
8
BLACK
6
CONTINUOUS
10
1.9541572834645669
20
-1.0302676377952755
11
1.9644875984251968
21
-1.0279098425196851
0
LINE
8
BLACK
6
CONTINUOUS
10
1.9644875984251968
20
-1.0279098425196851
11
1.9750169685039369
21
-1.0267234645669292
0
LINE
8
BLACK
6
CONTINUOUS
10
1.9750169685039369
20
-1.0267234645669292
11
1.9856129527559054
21
-1.0267234645669292
0
LINE
8
BLACK
6
CONTINUOUS
10
1.9856129527559054
20
-1.0267234645669292
11
1.9961423228346455
21
-1.0279098425196851
0
LINE
8
BLACK
6
CONTINUOUS
10
2.3961423228346455
20
-1.0279098425196851
11
2.4064726377952756
21
-1.0302676377952755
0
LINE
8
BLACK
6
CONTINUOUS
10
2.4064726377952756
20
-1.0302676377952755
11
2.4164740157480313
21
-1.0337672834645668
0
LINE
8
BLACK
6
CONTINUOUS
10
2.4164740157480313
20
-1.0337672834645668
11
2.4260206692913386
21
-1.0383647244094487
0
LINE
8
BLACK
6
CONTINUOUS
10
2.4260206692913386
20
-1.0383647244094487
11
2.434992559055118
21
-1.044002125984252
0
LINE
8
BLACK
6
CONTINUOUS
10
2.434992559055118
20
-1.044002125984252
11
2.4432768503937008
21
-1.0506086220472441
0
LINE
8
BLACK
6
CONTINUOUS
10
2.4432768503937008
20
-1.0506086220472441
11
2.4507693307086615
21
-1.0581011023622047
0
LINE
8
BLACK
6
CONTINUOUS
10
2.4507693307086615
20
-1.0581011023622047
11
2.4573758267716537
21
-1.0663853937007874
0
LINE
8
BLACK
6
CONTINUOUS
10
2.4573758267716537
20
-1.0663853937007874
11
2.4630132283464565
21
-1.0753572834645668
0
LINE
8
BLACK
6
CONTINUOUS
10
2.4630132283464565
20
-1.0753572834645668
11
2.4676106692913384
21
-1.0849039370078739
0
LINE
8
BLACK
6
CONTINUOUS
10
2.4676106692913384
20
-1.0849039370078739
11
2.4711103149606299
21
-1.0949053149606298
0
LINE
8
BLACK
6
CONTINUOUS
10
2.4711103149606299
20
-1.0949053149606298
11
2.4734681102362206
21
-1.1052356299212598
0
LINE
8
BLACK
6
CONTINUOUS
10
2.4734681102362206
20
-1.1052356299212598
11
2.4746544881889765
21
-1.1157649999999999
0
LINE
8
BLACK
6
CONTINUOUS
10
2.4746544881889765
20
-1.1157649999999999
11
2.4746544881889765
21
-1.1263609842519684
0
LINE
8
BLACK
6
CONTINUOUS
10
2.4746544881889765
20
-1.1263609842519684
11
2.4734681102362206
21
-1.1368903543307087
0
LINE
8
BLACK
6
CONTINUOUS
10
2.4734681102362206
20
-1.1368903543307087
11
2.4711103149606299
21
-1.1472206692913385
0
LINE
8
BLACK
6
CONTINUOUS
10
2.4711103149606299
20
-1.1472206692913385
11
2.4676106692913384
21
-1.1572220472440944
0
LINE
8
BLACK
6
CONTINUOUS
10
2.4676106692913384
20
-1.1572220472440944
11
2.4630132283464565
21
-1.1667687007874015
0
LINE
8
BLACK
6
CONTINUOUS
10
2.4630132283464565
20
-1.1667687007874015
11
2.4573758267716537
21
-1.1757405905511811
0
LINE
8
BLACK
6
CONTINUOUS
10
2.4573758267716537
20
-1.1757405905511811
11
2.4507693307086615
21
-1.1840248818897638
0
LINE
8
BLACK
6
CONTINUOUS
10
2.4507693307086615
20
-1.1840248818897638
11
2.4432768503937008
21
-1.1915173622047244
0
LINE
8
BLACK
6
CONTINUOUS
10
2.4432768503937008
20
-1.1915173622047244
11
2.434992559055118
21
-1.1981238582677165
0
LINE
8
BLACK
6
CONTINUOUS
10
2.434992559055118
20
-1.1981238582677165
11
2.4260206692913386
21
-1.2037612598425196
0
LINE
8
BLACK
6
CONTINUOUS
10
2.4260206692913386
20
-1.2037612598425196
11
2.4164740157480313
21
-1.2083587007874015
0
LINE
8
BLACK
6
CONTINUOUS
10
2.4164740157480313
20
-1.2083587007874015
11
2.4064726377952756
21
-1.211858346456693
0
LINE
8
BLACK
6
CONTINUOUS
10
2.4064726377952756
20
-1.211858346456693
11
2.3961423228346455
21
-1.2142161417322834
0
LINE
8
BLACK
6
CONTINUOUS
10
2.3961423228346455
20
-1.2142161417322834
11
2.3856129527559053
21
-1.2154025196850393
0
LINE
8
BLACK
6
CONTINUOUS
10
2.3856129527559053
20
-1.2154025196850393
11
2.3750169685039371
21
-1.2154025196850393
0
LINE
8
BLACK
6
CONTINUOUS
10
2.3750169685039371
20
-1.2154025196850393
11
2.364487598425197
21
-1.2142161417322834
0
LINE
8
BLACK
6
CONTINUOUS
10
2.364487598425197
20
-1.2142161417322834
11
2.3541572834645668
21
-1.211858346456693
0
LINE
8
BLACK
6
CONTINUOUS
10
2.3541572834645668
20
-1.211858346456693
11
2.3441559055118111
21
-1.2083587007874015
0
LINE
8
BLACK
6
CONTINUOUS
10
2.3441559055118111
20
-1.2083587007874015
11
2.3346092519685038
21
-1.2037612598425196
0
LINE
8
BLACK
6
CONTINUOUS
10
2.3346092519685038
20
-1.2037612598425196
11
2.3256373622047244
21
-1.1981238582677165
0
LINE
8
BLACK
6
CONTINUOUS
10
2.3256373622047244
20
-1.1981238582677165
11
2.3173530708661416
21
-1.1915173622047244
0
LINE
8
BLACK
6
CONTINUOUS
10
2.3173530708661416
20
-1.1915173622047244
11
2.3098605905511809
21
-1.1840248818897638
0
LINE
8
BLACK
6
CONTINUOUS
10
2.3098605905511809
20
-1.1840248818897638
11
2.3032540944881887
21
-1.1757405905511811
0
LINE
8
BLACK
6
CONTINUOUS
10
2.3032540944881887
20
-1.1757405905511811
11
2.2976166929133859
21
-1.1667687007874015
0
LINE
8
BLACK
6
CONTINUOUS
10
2.2976166929133859
20
-1.1667687007874015
11
2.293019251968504
21
-1.1572220472440944
0
LINE
8
BLACK
6
CONTINUOUS
10
2.293019251968504
20
-1.1572220472440944
11
2.2895196062992125
21
-1.1472206692913385
0
LINE
8
BLACK
6
CONTINUOUS
10
2.2895196062992125
20
-1.1472206692913385
11
2.2871618110236218
21
-1.1368903543307087
0
LINE
8
BLACK
6
CONTINUOUS
10
2.2871618110236218
20
-1.1368903543307087
11
2.2859754330708659
21
-1.1263609842519684
0
LINE
8
BLACK
6
CONTINUOUS
10
2.2859754330708659
20
-1.1263609842519684
11
2.2859754330708659
21
-1.1157649999999999
0
LINE
8
BLACK
6
CONTINUOUS
10
2.2859754330708659
20
-1.1157649999999999
11
2.2871618110236218
21
-1.1052356299212598
0
LINE
8
BLACK
6
CONTINUOUS
10
2.2871618110236218
20
-1.1052356299212598
11
2.2895196062992125
21
-1.0949053149606298
0
LINE
8
BLACK
6
CONTINUOUS
10
2.2895196062992125
20
-1.0949053149606298
11
2.293019251968504
21
-1.0849039370078739
0
LINE
8
BLACK
6
CONTINUOUS
10
2.293019251968504
20
-1.0849039370078739
11
2.2976166929133859
21
-1.0753572834645668
0
LINE
8
BLACK
6
CONTINUOUS
10
2.2976166929133859
20
-1.0753572834645668
11
2.3032540944881887
21
-1.0663853937007874
0
LINE
8
BLACK
6
CONTINUOUS
10
2.3032540944881887
20
-1.0663853937007874
11
2.3098605905511809
21
-1.0581011023622047
0
LINE
8
BLACK
6
CONTINUOUS
10
2.3098605905511809
20
-1.0581011023622047
11
2.3173530708661416
21
-1.0506086220472441
0
LINE
8
BLACK
6
CONTINUOUS
10
2.3173530708661416
20
-1.0506086220472441
11
2.3256373622047244
21
-1.044002125984252
0
LINE
8
BLACK
6
CONTINUOUS
10
2.3256373622047244
20
-1.044002125984252
11
2.3346092519685038
21
-1.0383647244094487
0
LINE
8
BLACK
6
CONTINUOUS
10
2.3346092519685038
20
-1.0383647244094487
11
2.3441559055118111
21
-1.0337672834645668
0
LINE
8
BLACK
6
CONTINUOUS
10
2.3441559055118111
20
-1.0337672834645668
11
2.3541572834645668
21
-1.0302676377952755
0
LINE
8
BLACK
6
CONTINUOUS
10
2.3541572834645668
20
-1.0302676377952755
11
2.364487598425197
21
-1.0279098425196851
0
LINE
8
BLACK
6
CONTINUOUS
10
2.364487598425197
20
-1.0279098425196851
11
2.3750169685039371
21
-1.0267234645669292
0
LINE
8
BLACK
6
CONTINUOUS
10
2.3750169685039371
20
-1.0267234645669292
11
2.3856129527559053
21
-1.0267234645669292
0
LINE
8
BLACK
6
CONTINUOUS
10
2.3856129527559053
20
-1.0267234645669292
11
2.3961423228346455
21
-1.0279098425196851
  0
ENDSEC
  0
EOF
