  0
SECTION
  2
HEADER
  9
$ANGBASE
  50
0.0
  9
$ANGDIR
  70
1
  9
$MEASUREMENT
  70
0
  0
ENDSEC
  0
SECTION
  2
TABLES
  0
TABLE
  2
LTYPE
  70
4
  0
LTYPE
  5
40F
  2
CONTINUOUS
  70
0
  3
Solid line
  72
65
  73
0
  40
0.0
  0
LTYPE
  5
410
  2
DASHDOT
 70
0
  3
Dash Dot ____ _ ____ _
 72
65
 73
4
 40
2.0
 49
1.25
 49
-0.25
 49
0.25
 49
-0.25
  0
LTYPE
  5
411
  2
DASHED
 70
0
  3
Dashed __ __ __ __ __
 72
65
 73
2
 40
0.75
 49
0.5
 49
-0.25
  0
LTYPE
  5
43B
  2
DOTTED
 70
0
  3
Dotted .  .  .  .
 72
65
 73
2
 40
0.2
 49
0.0
 49
-0.2
  0
ENDTAB
  0
TABLE
  2
STYLE
  70
4
  0
STYLE
  2
KICAD
  70
0
  40
0
  41
1
  42
1
  50
0
  71
0
  3
isocp.shx
  0
STYLE
  2
KICADB
  70
0
  40
0
  41
1
  42
1
  50
0
  71
0
  3
isocp.shx
  0
STYLE
  2
KICADI
  70
0
  40
0
  41
1
  42
1
  50
15
  71
0
  3
isocp.shx
  0
STYLE
  2
KICADBI
  70
0
  40
0
  41
1
  42
1
  50
15
  71
0
  3
isocp.shx
  0
ENDTAB
  0
TABLE
  2
LAYER
  70
1
  0
LAYER
  2
BLACK
  70
0
  62
7
  6
CONTINUOUS
  0
ENDTAB
  0
ENDSEC
  0
SECTION
  2
ENTITIES
0
LINE
8
BLACK
6
CONTINUOUS
10
1.7637794881889763
20
-2.9311023622047245
11
1.6968503543307085
21
-2.9311023622047245
0
LINE
8
BLACK
6
CONTINUOUS
10
1.6968503543307085
20
-2.9311023622047245
11
1.6968503543307085
21
-2.8641732283464565
0
LINE
8
BLACK
6
CONTINUOUS
10
1.6968503543307085
20
-2.8641732283464565
11
1.7637794881889763
21
-2.8641732283464565
0
LINE
8
BLACK
6
CONTINUOUS
10
1.7637794881889763
20
-2.8641732283464565
11
1.7637794881889763
21
-2.9311023622047245
0
LINE
8
BLACK
6
CONTINUOUS
10
1.8400291732283465
20
-2.865614212598425
11
1.84609
21
-2.86812468503937
0
LINE
8
BLACK
6
CONTINUOUS
10
1.84609
20
-2.86812468503937
11
1.8515446062992125
21
-2.8717693307086614
0
LINE
8
BLACK
6
CONTINUOUS
10
1.8515446062992125
20
-2.8717693307086614
11
1.8561833858267716
21
-2.8764081102362202
0
LINE
8
BLACK
6
CONTINUOUS
10
1.8561833858267716
20
-2.8764081102362202
11
1.8598280314960629
21
-2.8818627165354331
0
LINE
8
BLACK
6
CONTINUOUS
10
1.8598280314960629
20
-2.8818627165354331
11
1.8623385039370077
21
-2.8879235433070867
0
LINE
8
BLACK
6
CONTINUOUS
10
1.8623385039370077
20
-2.8879235433070867
11
1.8636183464566929
21
-2.8943576771653543
0
LINE
8
BLACK
6
CONTINUOUS
10
1.8636183464566929
20
-2.8943576771653543
11
1.8636183464566929
21
-2.9009179133858267
0
LINE
8
BLACK
6
CONTINUOUS
10
1.8636183464566929
20
-2.9009179133858267
11
1.8623385039370077
21
-2.9073520472440944
0
LINE
8
BLACK
6
CONTINUOUS
10
1.8623385039370077
20
-2.9073520472440944
11
1.8598280314960629
21
-2.9134128740157479
0
LINE
8
BLACK
6
CONTINUOUS
10
1.8598280314960629
20
-2.9134128740157479
11
1.8561833858267716
21
-2.9188674803149603
0
LINE
8
BLACK
6
CONTINUOUS
10
1.8561833858267716
20
-2.9188674803149603
11
1.8515446062992125
21
-2.9235062598425197
0
LINE
8
BLACK
6
CONTINUOUS
10
1.8515446062992125
20
-2.9235062598425197
11
1.84609
21
-2.927150905511811
0
LINE
8
BLACK
6
CONTINUOUS
10
1.84609
20
-2.927150905511811
11
1.8400291732283465
21
-2.9296613779527561
0
LINE
8
BLACK
6
CONTINUOUS
10
1.8400291732283465
20
-2.9296613779527561
11
1.8335950393700786
21
-2.930941220472441
0
LINE
8
BLACK
6
CONTINUOUS
10
1.8335950393700786
20
-2.930941220472441
11
1.8270348031496062
21
-2.930941220472441
0
LINE
8
BLACK
6
CONTINUOUS
10
1.8270348031496062
20
-2.930941220472441
11
1.8206006692913386
21
-2.9296613779527561
0
LINE
8
BLACK
6
CONTINUOUS
10
1.8206006692913386
20
-2.9296613779527561
11
1.814539842519685
21
-2.927150905511811
0
LINE
8
BLACK
6
CONTINUOUS
10
1.814539842519685
20
-2.927150905511811
11
1.8090852362204723
21
-2.9235062598425197
0
LINE
8
BLACK
6
CONTINUOUS
10
1.8090852362204723
20
-2.9235062598425197
11
1.8044464566929133
21
-2.9188674803149603
0
LINE
8
BLACK
6
CONTINUOUS
10
1.8044464566929133
20
-2.9188674803149603
11
1.8008018110236219
21
-2.9134128740157479
0
LINE
8
BLACK
6
CONTINUOUS
10
1.8008018110236219
20
-2.9134128740157479
11
1.7982913385826771
21
-2.9073520472440944
0
LINE
8
BLACK
6
CONTINUOUS
10
1.7982913385826771
20
-2.9073520472440944
11
1.7970114960629922
21
-2.9009179133858267
0
LINE
8
BLACK
6
CONTINUOUS
10
1.7970114960629922
20
-2.9009179133858267
11
1.7970114960629922
21
-2.8943576771653543
0
LINE
8
BLACK
6
CONTINUOUS
10
1.7970114960629922
20
-2.8943576771653543
11
1.7982913385826771
21
-2.8879235433070867
0
LINE
8
BLACK
6
CONTINUOUS
10
1.7982913385826771
20
-2.8879235433070867
11
1.8008018110236219
21
-2.8818627165354331
0
LINE
8
BLACK
6
CONTINUOUS
10
1.8008018110236219
20
-2.8818627165354331
11
1.8044464566929133
21
-2.8764081102362202
0
LINE
8
BLACK
6
CONTINUOUS
10
1.8044464566929133
20
-2.8764081102362202
11
1.8090852362204723
21
-2.8717693307086614
0
LINE
8
BLACK
6
CONTINUOUS
10
1.8090852362204723
20
-2.8717693307086614
11
1.814539842519685
21
-2.86812468503937
0
LINE
8
BLACK
6
CONTINUOUS
10
1.814539842519685
20
-2.86812468503937
11
1.8206006692913386
21
-2.865614212598425
0
LINE
8
BLACK
6
CONTINUOUS
10
1.8206006692913386
20
-2.865614212598425
11
1.8270348031496062
21
-2.86433437007874
0
LINE
8
BLACK
6
CONTINUOUS
10
1.8270348031496062
20
-2.86433437007874
11
1.8335950393700786
21
-2.86433437007874
0
LINE
8
BLACK
6
CONTINUOUS
10
1.8335950393700786
20
-2.86433437007874
11
1.8400291732283465
21
-2.865614212598425
0
LINE
8
BLACK
6
CONTINUOUS
10
1.9400291732283463
20
-2.865614212598425
11
1.9460899999999999
21
-2.86812468503937
0
LINE
8
BLACK
6
CONTINUOUS
10
1.9460899999999999
20
-2.86812468503937
11
1.9515446062992126
21
-2.8717693307086614
0
LINE
8
BLACK
6
CONTINUOUS
10
1.9515446062992126
20
-2.8717693307086614
11
1.9561833858267716
21
-2.8764081102362202
0
LINE
8
BLACK
6
CONTINUOUS
10
1.9561833858267716
20
-2.8764081102362202
11
1.959828031496063
21
-2.8818627165354331
0
LINE
8
BLACK
6
CONTINUOUS
10
1.959828031496063
20
-2.8818627165354331
11
1.9623385039370078
21
-2.8879235433070867
0
LINE
8
BLACK
6
CONTINUOUS
10
1.9623385039370078
20
-2.8879235433070867
11
1.963618346456693
21
-2.8943576771653543
0
LINE
8
BLACK
6
CONTINUOUS
10
1.963618346456693
20
-2.8943576771653543
11
1.963618346456693
21
-2.9009179133858267
0
LINE
8
BLACK
6
CONTINUOUS
10
1.963618346456693
20
-2.9009179133858267
11
1.9623385039370078
21
-2.9073520472440944
0
LINE
8
BLACK
6
CONTINUOUS
10
1.9623385039370078
20
-2.9073520472440944
11
1.959828031496063
21
-2.9134128740157479
0
LINE
8
BLACK
6
CONTINUOUS
10
1.959828031496063
20
-2.9134128740157479
11
1.9561833858267716
21
-2.9188674803149603
0
LINE
8
BLACK
6
CONTINUOUS
10
1.9561833858267716
20
-2.9188674803149603
11
1.9515446062992126
21
-2.9235062598425197
0
LINE
8
BLACK
6
CONTINUOUS
10
1.9515446062992126
20
-2.9235062598425197
11
1.9460899999999999
21
-2.927150905511811
0
LINE
8
BLACK
6
CONTINUOUS
10
1.9460899999999999
20
-2.927150905511811
11
1.9400291732283463
21
-2.9296613779527561
0
LINE
8
BLACK
6
CONTINUOUS
10
1.9400291732283463
20
-2.9296613779527561
11
1.9335950393700787
21
-2.930941220472441
0
LINE
8
BLACK
6
CONTINUOUS
10
1.9335950393700787
20
-2.930941220472441
11
1.9270348031496063
21
-2.930941220472441
0
LINE
8
BLACK
6
CONTINUOUS
10
1.9270348031496063
20
-2.930941220472441
11
1.9206006692913384
21
-2.9296613779527561
0
LINE
8
BLACK
6
CONTINUOUS
10
1.9206006692913384
20
-2.9296613779527561
11
1.9145398425196849
21
-2.927150905511811
0
LINE
8
BLACK
6
CONTINUOUS
10
1.9145398425196849
20
-2.927150905511811
11
1.9090852362204724
21
-2.9235062598425197
0
LINE
8
BLACK
6
CONTINUOUS
10
1.9090852362204724
20
-2.9235062598425197
11
1.9044464566929133
21
-2.9188674803149603
0
LINE
8
BLACK
6
CONTINUOUS
10
1.9044464566929133
20
-2.9188674803149603
11
1.900801811023622
21
-2.9134128740157479
0
LINE
8
BLACK
6
CONTINUOUS
10
1.900801811023622
20
-2.9134128740157479
11
1.8982913385826772
21
-2.9073520472440944
0
LINE
8
BLACK
6
CONTINUOUS
10
1.8982913385826772
20
-2.9073520472440944
11
1.897011496062992
21
-2.9009179133858267
0
LINE
8
BLACK
6
CONTINUOUS
10
1.897011496062992
20
-2.9009179133858267
11
1.897011496062992
21
-2.8943576771653543
0
LINE
8
BLACK
6
CONTINUOUS
10
1.897011496062992
20
-2.8943576771653543
11
1.8982913385826772
21
-2.8879235433070867
0
LINE
8
BLACK
6
CONTINUOUS
10
1.8982913385826772
20
-2.8879235433070867
11
1.900801811023622
21
-2.8818627165354331
0
LINE
8
BLACK
6
CONTINUOUS
10
1.900801811023622
20
-2.8818627165354331
11
1.9044464566929133
21
-2.8764081102362202
0
LINE
8
BLACK
6
CONTINUOUS
10
1.9044464566929133
20
-2.8764081102362202
11
1.9090852362204724
21
-2.8717693307086614
0
LINE
8
BLACK
6
CONTINUOUS
10
1.9090852362204724
20
-2.8717693307086614
11
1.9145398425196849
21
-2.86812468503937
0
LINE
8
BLACK
6
CONTINUOUS
10
1.9145398425196849
20
-2.86812468503937
11
1.9206006692913384
21
-2.865614212598425
0
LINE
8
BLACK
6
CONTINUOUS
10
1.9206006692913384
20
-2.865614212598425
11
1.9270348031496063
21
-2.86433437007874
0
LINE
8
BLACK
6
CONTINUOUS
10
1.9270348031496063
20
-2.86433437007874
11
1.9335950393700787
21
-2.86433437007874
0
LINE
8
BLACK
6
CONTINUOUS
10
1.9335950393700787
20
-2.86433437007874
11
1.9400291732283463
21
-2.865614212598425
0
LINE
8
BLACK
6
CONTINUOUS
10
2.0400291732283464
20
-2.865614212598425
11
2.04609
21
-2.86812468503937
0
LINE
8
BLACK
6
CONTINUOUS
10
2.04609
20
-2.86812468503937
11
2.0515446062992124
21
-2.8717693307086614
0
LINE
8
BLACK
6
CONTINUOUS
10
2.0515446062992124
20
-2.8717693307086614
11
2.0561833858267717
21
-2.8764081102362202
0
LINE
8
BLACK
6
CONTINUOUS
10
2.0561833858267717
20
-2.8764081102362202
11
2.0598280314960631
21
-2.8818627165354331
0
LINE
8
BLACK
6
CONTINUOUS
10
2.0598280314960631
20
-2.8818627165354331
11
2.0623385039370077
21
-2.8879235433070867
0
LINE
8
BLACK
6
CONTINUOUS
10
2.0623385039370077
20
-2.8879235433070867
11
2.0636183464566931
21
-2.8943576771653543
0
LINE
8
BLACK
6
CONTINUOUS
10
2.0636183464566931
20
-2.8943576771653543
11
2.0636183464566931
21
-2.9009179133858267
0
LINE
8
BLACK
6
CONTINUOUS
10
2.0636183464566931
20
-2.9009179133858267
11
2.0623385039370077
21
-2.9073520472440944
0
LINE
8
BLACK
6
CONTINUOUS
10
2.0623385039370077
20
-2.9073520472440944
11
2.0598280314960631
21
-2.9134128740157479
0
LINE
8
BLACK
6
CONTINUOUS
10
2.0598280314960631
20
-2.9134128740157479
11
2.0561833858267717
21
-2.9188674803149603
0
LINE
8
BLACK
6
CONTINUOUS
10
2.0561833858267717
20
-2.9188674803149603
11
2.0515446062992124
21
-2.9235062598425197
0
LINE
8
BLACK
6
CONTINUOUS
10
2.0515446062992124
20
-2.9235062598425197
11
2.04609
21
-2.927150905511811
0
LINE
8
BLACK
6
CONTINUOUS
10
2.04609
20
-2.927150905511811
11
2.0400291732283464
21
-2.9296613779527561
0
LINE
8
BLACK
6
CONTINUOUS
10
2.0400291732283464
20
-2.9296613779527561
11
2.0335950393700788
21
-2.930941220472441
0
LINE
8
BLACK
6
CONTINUOUS
10
2.0335950393700788
20
-2.930941220472441
11
2.0270348031496064
21
-2.930941220472441
0
LINE
8
BLACK
6
CONTINUOUS
10
2.0270348031496064
20
-2.930941220472441
11
2.0206006692913387
21
-2.9296613779527561
0
LINE
8
BLACK
6
CONTINUOUS
10
2.0206006692913387
20
-2.9296613779527561
11
2.0145398425196852
21
-2.927150905511811
0
LINE
8
BLACK
6
CONTINUOUS
10
2.0145398425196852
20
-2.927150905511811
11
2.0090852362204723
21
-2.9235062598425197
0
LINE
8
BLACK
6
CONTINUOUS
10
2.0090852362204723
20
-2.9235062598425197
11
2.0044464566929134
21
-2.9188674803149603
0
LINE
8
BLACK
6
CONTINUOUS
10
2.0044464566929134
20
-2.9188674803149603
11
2.0008018110236221
21
-2.9134128740157479
0
LINE
8
BLACK
6
CONTINUOUS
10
2.0008018110236221
20
-2.9134128740157479
11
1.998291338582677
21
-2.9073520472440944
0
LINE
8
BLACK
6
CONTINUOUS
10
1.998291338582677
20
-2.9073520472440944
11
1.9970114960629921
21
-2.9009179133858267
0
LINE
8
BLACK
6
CONTINUOUS
10
1.9970114960629921
20
-2.9009179133858267
11
1.9970114960629921
21
-2.8943576771653543
0
LINE
8
BLACK
6
CONTINUOUS
10
1.9970114960629921
20
-2.8943576771653543
11
1.998291338582677
21
-2.8879235433070867
0
LINE
8
BLACK
6
CONTINUOUS
10
1.998291338582677
20
-2.8879235433070867
11
2.0008018110236221
21
-2.8818627165354331
0
LINE
8
BLACK
6
CONTINUOUS
10
2.0008018110236221
20
-2.8818627165354331
11
2.0044464566929134
21
-2.8764081102362202
0
LINE
8
BLACK
6
CONTINUOUS
10
2.0044464566929134
20
-2.8764081102362202
11
2.0090852362204723
21
-2.8717693307086614
0
LINE
8
BLACK
6
CONTINUOUS
10
2.0090852362204723
20
-2.8717693307086614
11
2.0145398425196852
21
-2.86812468503937
0
LINE
8
BLACK
6
CONTINUOUS
10
2.0145398425196852
20
-2.86812468503937
11
2.0206006692913387
21
-2.865614212598425
0
LINE
8
BLACK
6
CONTINUOUS
10
2.0206006692913387
20
-2.865614212598425
11
2.0270348031496064
21
-2.86433437007874
0
LINE
8
BLACK
6
CONTINUOUS
10
2.0270348031496064
20
-2.86433437007874
11
2.0335950393700788
21
-2.86433437007874
0
LINE
8
BLACK
6
CONTINUOUS
10
2.0335950393700788
20
-2.86433437007874
11
2.0400291732283464
21
-2.865614212598425
0
LINE
8
BLACK
6
CONTINUOUS
10
2.1400291732283465
20
-2.865614212598425
11
2.1460900000000001
21
-2.86812468503937
0
LINE
8
BLACK
6
CONTINUOUS
10
2.1460900000000001
20
-2.86812468503937
11
2.1515446062992125
21
-2.8717693307086614
0
LINE
8
BLACK
6
CONTINUOUS
10
2.1515446062992125
20
-2.8717693307086614
11
2.1561833858267718
21
-2.8764081102362202
0
LINE
8
BLACK
6
CONTINUOUS
10
2.1561833858267718
20
-2.8764081102362202
11
2.1598280314960627
21
-2.8818627165354331
0
LINE
8
BLACK
6
CONTINUOUS
10
2.1598280314960627
20
-2.8818627165354331
11
2.1623385039370078
21
-2.8879235433070867
0
LINE
8
BLACK
6
CONTINUOUS
10
2.1623385039370078
20
-2.8879235433070867
11
2.1636183464566927
21
-2.8943576771653543
0
LINE
8
BLACK
6
CONTINUOUS
10
2.1636183464566927
20
-2.8943576771653543
11
2.1636183464566927
21
-2.9009179133858267
0
LINE
8
BLACK
6
CONTINUOUS
10
2.1636183464566927
20
-2.9009179133858267
11
2.1623385039370078
21
-2.9073520472440944
0
LINE
8
BLACK
6
CONTINUOUS
10
2.1623385039370078
20
-2.9073520472440944
11
2.1598280314960627
21
-2.9134128740157479
0
LINE
8
BLACK
6
CONTINUOUS
10
2.1598280314960627
20
-2.9134128740157479
11
2.1561833858267718
21
-2.9188674803149603
0
LINE
8
BLACK
6
CONTINUOUS
10
2.1561833858267718
20
-2.9188674803149603
11
2.1515446062992125
21
-2.9235062598425197
0
LINE
8
BLACK
6
CONTINUOUS
10
2.1515446062992125
20
-2.9235062598425197
11
2.1460900000000001
21
-2.927150905511811
0
LINE
8
BLACK
6
CONTINUOUS
10
2.1460900000000001
20
-2.927150905511811
11
2.1400291732283465
21
-2.9296613779527561
0
LINE
8
BLACK
6
CONTINUOUS
10
2.1400291732283465
20
-2.9296613779527561
11
2.1335950393700789
21
-2.930941220472441
0
LINE
8
BLACK
6
CONTINUOUS
10
2.1335950393700789
20
-2.930941220472441
11
2.1270348031496065
21
-2.930941220472441
0
LINE
8
BLACK
6
CONTINUOUS
10
2.1270348031496065
20
-2.930941220472441
11
2.1206006692913384
21
-2.9296613779527561
0
LINE
8
BLACK
6
CONTINUOUS
10
2.1206006692913384
20
-2.9296613779527561
11
2.1145398425196849
21
-2.927150905511811
0
LINE
8
BLACK
6
CONTINUOUS
10
2.1145398425196849
20
-2.927150905511811
11
2.1090852362204724
21
-2.9235062598425197
0
LINE
8
BLACK
6
CONTINUOUS
10
2.1090852362204724
20
-2.9235062598425197
11
2.1044464566929135
21
-2.9188674803149603
0
LINE
8
BLACK
6
CONTINUOUS
10
2.1044464566929135
20
-2.9188674803149603
11
2.1008018110236222
21
-2.9134128740157479
0
LINE
8
BLACK
6
CONTINUOUS
10
2.1008018110236222
20
-2.9134128740157479
11
2.0982913385826771
21
-2.9073520472440944
0
LINE
8
BLACK
6
CONTINUOUS
10
2.0982913385826771
20
-2.9073520472440944
11
2.0970114960629922
21
-2.9009179133858267
0
LINE
8
BLACK
6
CONTINUOUS
10
2.0970114960629922
20
-2.9009179133858267
11
2.0970114960629922
21
-2.8943576771653543
0
LINE
8
BLACK
6
CONTINUOUS
10
2.0970114960629922
20
-2.8943576771653543
11
2.0982913385826771
21
-2.8879235433070867
0
LINE
8
BLACK
6
CONTINUOUS
10
2.0982913385826771
20
-2.8879235433070867
11
2.1008018110236222
21
-2.8818627165354331
0
LINE
8
BLACK
6
CONTINUOUS
10
2.1008018110236222
20
-2.8818627165354331
11
2.1044464566929135
21
-2.8764081102362202
0
LINE
8
BLACK
6
CONTINUOUS
10
2.1044464566929135
20
-2.8764081102362202
11
2.1090852362204724
21
-2.8717693307086614
0
LINE
8
BLACK
6
CONTINUOUS
10
2.1090852362204724
20
-2.8717693307086614
11
2.1145398425196849
21
-2.86812468503937
0
LINE
8
BLACK
6
CONTINUOUS
10
2.1145398425196849
20
-2.86812468503937
11
2.1206006692913384
21
-2.865614212598425
0
LINE
8
BLACK
6
CONTINUOUS
10
2.1206006692913384
20
-2.865614212598425
11
2.1270348031496065
21
-2.86433437007874
0
LINE
8
BLACK
6
CONTINUOUS
10
2.1270348031496065
20
-2.86433437007874
11
2.1335950393700789
21
-2.86433437007874
0
LINE
8
BLACK
6
CONTINUOUS
10
2.1335950393700789
20
-2.86433437007874
11
2.1400291732283465
21
-2.865614212598425
0
LINE
8
BLACK
6
CONTINUOUS
10
1.3618821653543307
20
-2.5978164566929132
11
1.3692265354330708
21
-2.6002027952755906
0
LINE
8
BLACK
6
CONTINUOUS
10
1.3692265354330708
20
-2.6002027952755906
11
1.3761072047244094
21
-2.6037086614173228
0
LINE
8
BLACK
6
CONTINUOUS
10
1.3761072047244094
20
-2.6037086614173228
11
1.3823547244094487
21
-2.6082477559055119
0
LINE
8
BLACK
6
CONTINUOUS
10
1.3823547244094487
20
-2.6082477559055119
11
1.3878152362204723
21
-2.6137082677165355
0
LINE
8
BLACK
6
CONTINUOUS
10
1.3878152362204723
20
-2.6137082677165355
11
1.3923543307086614
21
-2.6199557874015746
0
LINE
8
BLACK
6
CONTINUOUS
10
1.3923543307086614
20
-2.6199557874015746
11
1.3958601968503936
21
-2.6268364566929132
0
LINE
8
BLACK
6
CONTINUOUS
10
1.3958601968503936
20
-2.6268364566929132
11
1.3982465354330709
21
-2.6341808267716535
0
LINE
8
BLACK
6
CONTINUOUS
10
1.3982465354330709
20
-2.6341808267716535
11
1.3994546062992126
21
-2.6418081102362203
0
LINE
8
BLACK
6
CONTINUOUS
10
1.3994546062992126
20
-2.6418081102362203
11
1.3994546062992126
21
-2.649530472440945
0
LINE
8
BLACK
6
CONTINUOUS
10
1.3994546062992126
20
-2.649530472440945
11
1.3982465354330709
21
-2.6571577559055117
0
LINE
8
BLACK
6
CONTINUOUS
10
1.3982465354330709
20
-2.6571577559055117
11
1.3958601968503936
21
-2.6645021259842521
0
LINE
8
BLACK
6
CONTINUOUS
10
1.3958601968503936
20
-2.6645021259842521
11
1.3923543307086614
21
-2.6713827952755906
0
LINE
8
BLACK
6
CONTINUOUS
10
1.3923543307086614
20
-2.6713827952755906
11
1.3878152362204723
21
-2.6776303149606298
0
LINE
8
BLACK
6
CONTINUOUS
10
1.3878152362204723
20
-2.6776303149606298
11
1.3823547244094487
21
-2.6830908267716533
0
LINE
8
BLACK
6
CONTINUOUS
10
1.3823547244094487
20
-2.6830908267716533
11
1.3761072047244094
21
-2.6876299212598425
0
LINE
8
BLACK
6
CONTINUOUS
10
1.3761072047244094
20
-2.6876299212598425
11
1.3692265354330708
21
-2.6911357874015747
0
LINE
8
BLACK
6
CONTINUOUS
10
1.3692265354330708
20
-2.6911357874015747
11
1.3618821653543307
21
-2.6935221259842521
0
LINE
8
BLACK
6
CONTINUOUS
10
1.3618821653543307
20
-2.6935221259842521
11
1.3542548818897637
21
-2.6947301968503936
0
LINE
8
BLACK
6
CONTINUOUS
10
1.3542548818897637
20
-2.6947301968503936
11
1.3465325196850393
21
-2.6947301968503936
0
LINE
8
BLACK
6
CONTINUOUS
10
1.3465325196850393
20
-2.6947301968503936
11
1.3389052362204723
21
-2.6935221259842521
0
LINE
8
BLACK
6
CONTINUOUS
10
1.3389052362204723
20
-2.6935221259842521
11
1.3315608661417322
21
-2.6911357874015747
0
LINE
8
BLACK
6
CONTINUOUS
10
1.3315608661417322
20
-2.6911357874015747
11
1.3246801968503936
21
-2.6876299212598425
0
LINE
8
BLACK
6
CONTINUOUS
10
1.3246801968503936
20
-2.6876299212598425
11
1.3184326771653543
21
-2.6830908267716533
0
LINE
8
BLACK
6
CONTINUOUS
10
1.3184326771653543
20
-2.6830908267716533
11
1.3129721653543307
21
-2.6776303149606298
0
LINE
8
BLACK
6
CONTINUOUS
10
1.3129721653543307
20
-2.6776303149606298
11
1.3084330708661418
21
-2.6713827952755906
0
LINE
8
BLACK
6
CONTINUOUS
10
1.3084330708661418
20
-2.6713827952755906
11
1.3049272047244094
21
-2.6645021259842521
0
LINE
8
BLACK
6
CONTINUOUS
10
1.3049272047244094
20
-2.6645021259842521
11
1.3025408661417321
21
-2.6571577559055117
0
LINE
8
BLACK
6
CONTINUOUS
10
1.3025408661417321
20
-2.6571577559055117
11
1.3013327952755904
21
-2.649530472440945
0
LINE
8
BLACK
6
CONTINUOUS
10
1.3013327952755904
20
-2.649530472440945
11
1.3013327952755904
21
-2.6418081102362203
0
LINE
8
BLACK
6
CONTINUOUS
10
1.3013327952755904
20
-2.6418081102362203
11
1.3025408661417321
21
-2.6341808267716535
0
LINE
8
BLACK
6
CONTINUOUS
10
1.3025408661417321
20
-2.6341808267716535
11
1.3049272047244094
21
-2.6268364566929132
0
LINE
8
BLACK
6
CONTINUOUS
10
1.3049272047244094
20
-2.6268364566929132
11
1.3084330708661418
21
-2.6199557874015746
0
LINE
8
BLACK
6
CONTINUOUS
10
1.3084330708661418
20
-2.6199557874015746
11
1.3129721653543307
21
-2.6137082677165355
0
LINE
8
BLACK
6
CONTINUOUS
10
1.3129721653543307
20
-2.6137082677165355
11
1.3184326771653543
21
-2.6082477559055119
0
LINE
8
BLACK
6
CONTINUOUS
10
1.3184326771653543
20
-2.6082477559055119
11
1.3246801968503936
21
-2.6037086614173228
0
LINE
8
BLACK
6
CONTINUOUS
10
1.3246801968503936
20
-2.6037086614173228
11
1.3315608661417322
21
-2.6002027952755906
0
LINE
8
BLACK
6
CONTINUOUS
10
1.3315608661417322
20
-2.6002027952755906
11
1.3389052362204723
21
-2.5978164566929132
0
LINE
8
BLACK
6
CONTINUOUS
10
1.3389052362204723
20
-2.5978164566929132
11
1.3465325196850393
21
-2.5966083858267717
0
LINE
8
BLACK
6
CONTINUOUS
10
1.3465325196850393
20
-2.5966083858267717
11
1.3542548818897637
21
-2.5966083858267717
0
LINE
8
BLACK
6
CONTINUOUS
10
1.3542548818897637
20
-2.5966083858267717
11
1.3618821653543307
21
-2.5978164566929132
0
LINE
8
BLACK
6
CONTINUOUS
10
2.6217246850393701
20
-2.5978164566929132
11
2.6290690551181104
21
-2.6002027952755906
0
LINE
8
BLACK
6
CONTINUOUS
10
2.6290690551181104
20
-2.6002027952755906
11
2.635949724409449
21
-2.6037086614173228
0
LINE
8
BLACK
6
CONTINUOUS
10
2.635949724409449
20
-2.6037086614173228
11
2.6421972440944881
21
-2.6082477559055119
0
LINE
8
BLACK
6
CONTINUOUS
10
2.6421972440944881
20
-2.6082477559055119
11
2.6476577559055117
21
-2.6137082677165355
0
LINE
8
BLACK
6
CONTINUOUS
10
2.6476577559055117
20
-2.6137082677165355
11
2.6521968503937008
21
-2.6199557874015746
0
LINE
8
BLACK
6
CONTINUOUS
10
2.6521968503937008
20
-2.6199557874015746
11
2.655702716535433
21
-2.6268364566929132
0
LINE
8
BLACK
6
CONTINUOUS
10
2.655702716535433
20
-2.6268364566929132
11
2.65808905511811
21
-2.6341808267716535
0
LINE
8
BLACK
6
CONTINUOUS
10
2.65808905511811
20
-2.6341808267716535
11
2.6592971259842519
21
-2.6418081102362203
0
LINE
8
BLACK
6
CONTINUOUS
10
2.6592971259842519
20
-2.6418081102362203
11
2.6592971259842519
21
-2.649530472440945
0
LINE
8
BLACK
6
CONTINUOUS
10
2.6592971259842519
20
-2.649530472440945
11
2.65808905511811
21
-2.6571577559055117
0
LINE
8
BLACK
6
CONTINUOUS
10
2.65808905511811
20
-2.6571577559055117
11
2.655702716535433
21
-2.6645021259842521
0
LINE
8
BLACK
6
CONTINUOUS
10
2.655702716535433
20
-2.6645021259842521
11
2.6521968503937008
21
-2.6713827952755906
0
LINE
8
BLACK
6
CONTINUOUS
10
2.6521968503937008
20
-2.6713827952755906
11
2.6476577559055117
21
-2.6776303149606298
0
LINE
8
BLACK
6
CONTINUOUS
10
2.6476577559055117
20
-2.6776303149606298
11
2.6421972440944881
21
-2.6830908267716533
0
LINE
8
BLACK
6
CONTINUOUS
10
2.6421972440944881
20
-2.6830908267716533
11
2.635949724409449
21
-2.6876299212598425
0
LINE
8
BLACK
6
CONTINUOUS
10
2.635949724409449
20
-2.6876299212598425
11
2.6290690551181104
21
-2.6911357874015747
0
LINE
8
BLACK
6
CONTINUOUS
10
2.6290690551181104
20
-2.6911357874015747
11
2.6217246850393701
21
-2.6935221259842521
0
LINE
8
BLACK
6
CONTINUOUS
10
2.6217246850393701
20
-2.6935221259842521
11
2.6140974015748033
21
-2.6947301968503936
0
LINE
8
BLACK
6
CONTINUOUS
10
2.6140974015748033
20
-2.6947301968503936
11
2.6063750393700786
21
-2.6947301968503936
0
LINE
8
BLACK
6
CONTINUOUS
10
2.6063750393700786
20
-2.6947301968503936
11
2.5987477559055119
21
-2.6935221259842521
0
LINE
8
BLACK
6
CONTINUOUS
10
2.5987477559055119
20
-2.6935221259842521
11
2.5914033858267715
21
-2.6911357874015747
0
LINE
8
BLACK
6
CONTINUOUS
10
2.5914033858267715
20
-2.6911357874015747
11
2.584522716535433
21
-2.6876299212598425
0
LINE
8
BLACK
6
CONTINUOUS
10
2.584522716535433
20
-2.6876299212598425
11
2.5782751968503939
21
-2.6830908267716533
0
LINE
8
BLACK
6
CONTINUOUS
10
2.5782751968503939
20
-2.6830908267716533
11
2.5728146850393698
21
-2.6776303149606298
0
LINE
8
BLACK
6
CONTINUOUS
10
2.5728146850393698
20
-2.6776303149606298
11
2.5682755905511812
21
-2.6713827952755906
0
LINE
8
BLACK
6
CONTINUOUS
10
2.5682755905511812
20
-2.6713827952755906
11
2.5647697244094489
21
-2.6645021259842521
0
LINE
8
BLACK
6
CONTINUOUS
10
2.5647697244094489
20
-2.6645021259842521
11
2.5623833858267715
21
-2.6571577559055117
0
LINE
8
BLACK
6
CONTINUOUS
10
2.5623833858267715
20
-2.6571577559055117
11
2.56117531496063
21
-2.649530472440945
0
LINE
8
BLACK
6
CONTINUOUS
10
2.56117531496063
20
-2.649530472440945
11
2.56117531496063
21
-2.6418081102362203
0
LINE
8
BLACK
6
CONTINUOUS
10
2.56117531496063
20
-2.6418081102362203
11
2.5623833858267715
21
-2.6341808267716535
0
LINE
8
BLACK
6
CONTINUOUS
10
2.5623833858267715
20
-2.6341808267716535
11
2.5647697244094489
21
-2.6268364566929132
0
LINE
8
BLACK
6
CONTINUOUS
10
2.5647697244094489
20
-2.6268364566929132
11
2.5682755905511812
21
-2.6199557874015746
0
LINE
8
BLACK
6
CONTINUOUS
10
2.5682755905511812
20
-2.6199557874015746
11
2.5728146850393698
21
-2.6137082677165355
0
LINE
8
BLACK
6
CONTINUOUS
10
2.5728146850393698
20
-2.6137082677165355
11
2.5782751968503939
21
-2.6082477559055119
0
LINE
8
BLACK
6
CONTINUOUS
10
2.5782751968503939
20
-2.6082477559055119
11
2.584522716535433
21
-2.6037086614173228
0
LINE
8
BLACK
6
CONTINUOUS
10
2.584522716535433
20
-2.6037086614173228
11
2.5914033858267715
21
-2.6002027952755906
0
LINE
8
BLACK
6
CONTINUOUS
10
2.5914033858267715
20
-2.6002027952755906
11
2.5987477559055119
21
-2.5978164566929132
0
LINE
8
BLACK
6
CONTINUOUS
10
2.5987477559055119
20
-2.5978164566929132
11
2.6063750393700786
21
-2.5966083858267717
0
LINE
8
BLACK
6
CONTINUOUS
10
2.6063750393700786
20
-2.5966083858267717
11
2.6140974015748033
21
-2.5966083858267717
0
LINE
8
BLACK
6
CONTINUOUS
10
2.6140974015748033
20
-2.5966083858267717
11
2.6217246850393701
21
-2.5978164566929132
0
LINE
8
BLACK
6
CONTINUOUS
10
2.620525275590551
20
-1.9507110236220473
11
2.6249756299212597
21
-1.9532804330708662
0
LINE
8
BLACK
6
CONTINUOUS
10
2.6249756299212597
20
-1.9532804330708662
11
2.6286093307086613
21
-1.9569141338582676
0
LINE
8
BLACK
6
CONTINUOUS
10
2.6286093307086613
20
-1.9569141338582676
11
2.6311787401574804
21
-1.9613644881889762
0
LINE
8
BLACK
6
CONTINUOUS
10
2.6311787401574804
20
-1.9613644881889762
11
2.6325087401574803
21
-1.9663282283464567
0
LINE
8
BLACK
6
CONTINUOUS
10
2.6325087401574803
20
-1.9663282283464567
11
2.6325087401574803
21
-1.9714670472440945
0
LINE
8
BLACK
6
CONTINUOUS
10
2.6325087401574803
20
-1.9714670472440945
11
2.6311787401574804
21
-1.9764307874015747
0
LINE
8
BLACK
6
CONTINUOUS
10
2.6311787401574804
20
-1.9764307874015747
11
2.6286093307086613
21
-1.9808811417322834
0
LINE
8
BLACK
6
CONTINUOUS
10
2.6286093307086613
20
-1.9808811417322834
11
2.6249756299212597
21
-1.984514842519685
0
LINE
8
BLACK
6
CONTINUOUS
10
2.6249756299212597
20
-1.984514842519685
11
2.620525275590551
21
-1.9870842519685039
0
LINE
8
BLACK
6
CONTINUOUS
10
2.620525275590551
20
-1.9870842519685039
11
2.6155615354330708
21
-1.988414251968504
0
LINE
8
BLACK
6
CONTINUOUS
10
2.6155615354330708
20
-1.988414251968504
11
2.610422716535433
21
-1.988414251968504
0
LINE
8
BLACK
6
CONTINUOUS
10
2.610422716535433
20
-1.988414251968504
11
2.6054589763779528
21
-1.9870842519685039
0
LINE
8
BLACK
6
CONTINUOUS
10
2.6054589763779528
20
-1.9870842519685039
11
2.6010086220472441
21
-1.984514842519685
0
LINE
8
BLACK
6
CONTINUOUS
10
2.6010086220472441
20
-1.984514842519685
11
2.5973749212598425
21
-1.9808811417322834
0
LINE
8
BLACK
6
CONTINUOUS
10
2.5973749212598425
20
-1.9808811417322834
11
2.5948055118110234
21
-1.9764307874015747
0
LINE
8
BLACK
6
CONTINUOUS
10
2.5948055118110234
20
-1.9764307874015747
11
2.5934755118110235
21
-1.9714670472440945
0
LINE
8
BLACK
6
CONTINUOUS
10
2.5934755118110235
20
-1.9714670472440945
11
2.5934755118110235
21
-1.9663282283464567
0
LINE
8
BLACK
6
CONTINUOUS
10
2.5934755118110235
20
-1.9663282283464567
11
2.5948055118110234
21
-1.9613644881889762
0
LINE
8
BLACK
6
CONTINUOUS
10
2.5948055118110234
20
-1.9613644881889762
11
2.5973749212598425
21
-1.9569141338582676
0
LINE
8
BLACK
6
CONTINUOUS
10
2.5973749212598425
20
-1.9569141338582676
11
2.6010086220472441
21
-1.9532804330708662
0
LINE
8
BLACK
6
CONTINUOUS
10
2.6010086220472441
20
-1.9532804330708662
11
2.6054589763779528
21
-1.9507110236220473
0
LINE
8
BLACK
6
CONTINUOUS
10
2.6054589763779528
20
-1.9507110236220473
11
2.610422716535433
21
-1.9493810236220472
0
LINE
8
BLACK
6
CONTINUOUS
10
2.610422716535433
20
-1.9493810236220472
11
2.6155615354330708
21
-1.9493810236220472
0
LINE
8
BLACK
6
CONTINUOUS
10
2.6155615354330708
20
-1.9493810236220472
11
2.620525275590551
21
-1.9507110236220473
0
LINE
8
BLACK
6
CONTINUOUS
10
2.6705252755905513
20
-1.9507110236220473
11
2.6749756299212599
21
-1.9532804330708662
0
LINE
8
BLACK
6
CONTINUOUS
10
2.6749756299212599
20
-1.9532804330708662
11
2.6786093307086611
21
-1.9569141338582676
0
LINE
8
BLACK
6
CONTINUOUS
10
2.6786093307086611
20
-1.9569141338582676
11
2.6811787401574803
21
-1.9613644881889762
0
LINE
8
BLACK
6
CONTINUOUS
10
2.6811787401574803
20
-1.9613644881889762
11
2.6825087401574801
21
-1.9663282283464567
0
LINE
8
BLACK
6
CONTINUOUS
10
2.6825087401574801
20
-1.9663282283464567
11
2.6825087401574801
21
-1.9714670472440945
0
LINE
8
BLACK
6
CONTINUOUS
10
2.6825087401574801
20
-1.9714670472440945
11
2.6811787401574803
21
-1.9764307874015747
0
LINE
8
BLACK
6
CONTINUOUS
10
2.6811787401574803
20
-1.9764307874015747
11
2.6786093307086611
21
-1.9808811417322834
0
LINE
8
BLACK
6
CONTINUOUS
10
2.6786093307086611
20
-1.9808811417322834
11
2.6749756299212599
21
-1.984514842519685
0
LINE
8
BLACK
6
CONTINUOUS
10
2.6749756299212599
20
-1.984514842519685
11
2.6705252755905513
21
-1.9870842519685039
0
LINE
8
BLACK
6
CONTINUOUS
10
2.6705252755905513
20
-1.9870842519685039
11
2.6655615354330706
21
-1.988414251968504
0
LINE
8
BLACK
6
CONTINUOUS
10
2.6655615354330706
20
-1.988414251968504
11
2.6604227165354328
21
-1.988414251968504
0
LINE
8
BLACK
6
CONTINUOUS
10
2.6604227165354328
20
-1.988414251968504
11
2.6554589763779526
21
-1.9870842519685039
0
LINE
8
BLACK
6
CONTINUOUS
10
2.6554589763779526
20
-1.9870842519685039
11
2.651008622047244
21
-1.984514842519685
0
LINE
8
BLACK
6
CONTINUOUS
10
2.651008622047244
20
-1.984514842519685
11
2.6473749212598423
21
-1.9808811417322834
0
LINE
8
BLACK
6
CONTINUOUS
10
2.6473749212598423
20
-1.9808811417322834
11
2.6448055118110236
21
-1.9764307874015747
0
LINE
8
BLACK
6
CONTINUOUS
10
2.6448055118110236
20
-1.9764307874015747
11
2.6434755118110234
21
-1.9714670472440945
0
LINE
8
BLACK
6
CONTINUOUS
10
2.6434755118110234
20
-1.9714670472440945
11
2.6434755118110234
21
-1.9663282283464567
0
LINE
8
BLACK
6
CONTINUOUS
10
2.6434755118110234
20
-1.9663282283464567
11
2.6448055118110236
21
-1.9613644881889762
0
LINE
8
BLACK
6
CONTINUOUS
10
2.6448055118110236
20
-1.9613644881889762
11
2.6473749212598423
21
-1.9569141338582676
0
LINE
8
BLACK
6
CONTINUOUS
10
2.6473749212598423
20
-1.9569141338582676
11
2.651008622047244
21
-1.9532804330708662
0
LINE
8
BLACK
6
CONTINUOUS
10
2.651008622047244
20
-1.9532804330708662
11
2.6554589763779526
21
-1.9507110236220473
0
LINE
8
BLACK
6
CONTINUOUS
10
2.6554589763779526
20
-1.9507110236220473
11
2.6604227165354328
21
-1.9493810236220472
0
LINE
8
BLACK
6
CONTINUOUS
10
2.6604227165354328
20
-1.9493810236220472
11
2.6655615354330706
21
-1.9493810236220472
0
LINE
8
BLACK
6
CONTINUOUS
10
2.6655615354330706
20
-1.9493810236220472
11
2.6705252755905513
21
-1.9507110236220473
0
LINE
8
BLACK
6
CONTINUOUS
10
2.620525275590551
20
-1.9007110236220472
11
2.6249756299212597
21
-1.9032804330708661
0
LINE
8
BLACK
6
CONTINUOUS
10
2.6249756299212597
20
-1.9032804330708661
11
2.6286093307086613
21
-1.9069141338582676
0
LINE
8
BLACK
6
CONTINUOUS
10
2.6286093307086613
20
-1.9069141338582676
11
2.6311787401574804
21
-1.9113644881889764
0
LINE
8
BLACK
6
CONTINUOUS
10
2.6311787401574804
20
-1.9113644881889764
11
2.6325087401574803
21
-1.9163282283464567
0
LINE
8
BLACK
6
CONTINUOUS
10
2.6325087401574803
20
-1.9163282283464567
11
2.6325087401574803
21
-1.9214670472440945
0
LINE
8
BLACK
6
CONTINUOUS
10
2.6325087401574803
20
-1.9214670472440945
11
2.6311787401574804
21
-1.9264307874015747
0
LINE
8
BLACK
6
CONTINUOUS
10
2.6311787401574804
20
-1.9264307874015747
11
2.6286093307086613
21
-1.9308811417322833
0
LINE
8
BLACK
6
CONTINUOUS
10
2.6286093307086613
20
-1.9308811417322833
11
2.6249756299212597
21
-1.934514842519685
0
LINE
8
BLACK
6
CONTINUOUS
10
2.6249756299212597
20
-1.934514842519685
11
2.620525275590551
21
-1.9370842519685039
0
LINE
8
BLACK
6
CONTINUOUS
10
2.620525275590551
20
-1.9370842519685039
11
2.6155615354330708
21
-1.9384142519685039
0
LINE
8
BLACK
6
CONTINUOUS
10
2.6155615354330708
20
-1.9384142519685039
11
2.610422716535433
21
-1.9384142519685039
0
LINE
8
BLACK
6
CONTINUOUS
10
2.610422716535433
20
-1.9384142519685039
11
2.6054589763779528
21
-1.9370842519685039
0
LINE
8
BLACK
6
CONTINUOUS
10
2.6054589763779528
20
-1.9370842519685039
11
2.6010086220472441
21
-1.934514842519685
0
LINE
8
BLACK
6
CONTINUOUS
10
2.6010086220472441
20
-1.934514842519685
11
2.5973749212598425
21
-1.9308811417322833
0
LINE
8
BLACK
6
CONTINUOUS
10
2.5973749212598425
20
-1.9308811417322833
11
2.5948055118110234
21
-1.9264307874015747
0
LINE
8
BLACK
6
CONTINUOUS
10
2.5948055118110234
20
-1.9264307874015747
11
2.5934755118110235
21
-1.9214670472440945
0
LINE
8
BLACK
6
CONTINUOUS
10
2.5934755118110235
20
-1.9214670472440945
11
2.5934755118110235
21
-1.9163282283464567
0
LINE
8
BLACK
6
CONTINUOUS
10
2.5934755118110235
20
-1.9163282283464567
11
2.5948055118110234
21
-1.9113644881889764
0
LINE
8
BLACK
6
CONTINUOUS
10
2.5948055118110234
20
-1.9113644881889764
11
2.5973749212598425
21
-1.9069141338582676
0
LINE
8
BLACK
6
CONTINUOUS
10
2.5973749212598425
20
-1.9069141338582676
11
2.6010086220472441
21
-1.9032804330708661
0
LINE
8
BLACK
6
CONTINUOUS
10
2.6010086220472441
20
-1.9032804330708661
11
2.6054589763779528
21
-1.9007110236220472
0
LINE
8
BLACK
6
CONTINUOUS
10
2.6054589763779528
20
-1.9007110236220472
11
2.610422716535433
21
-1.8993810236220472
0
LINE
8
BLACK
6
CONTINUOUS
10
2.610422716535433
20
-1.8993810236220472
11
2.6155615354330708
21
-1.8993810236220472
0
LINE
8
BLACK
6
CONTINUOUS
10
2.6155615354330708
20
-1.8993810236220472
11
2.620525275590551
21
-1.9007110236220472
0
LINE
8
BLACK
6
CONTINUOUS
10
2.6705252755905513
20
-1.9007110236220472
11
2.6749756299212599
21
-1.9032804330708661
0
LINE
8
BLACK
6
CONTINUOUS
10
2.6749756299212599
20
-1.9032804330708661
11
2.6786093307086611
21
-1.9069141338582676
0
LINE
8
BLACK
6
CONTINUOUS
10
2.6786093307086611
20
-1.9069141338582676
11
2.6811787401574803
21
-1.9113644881889764
0
LINE
8
BLACK
6
CONTINUOUS
10
2.6811787401574803
20
-1.9113644881889764
11
2.6825087401574801
21
-1.9163282283464567
0
LINE
8
BLACK
6
CONTINUOUS
10
2.6825087401574801
20
-1.9163282283464567
11
2.6825087401574801
21
-1.9214670472440945
0
LINE
8
BLACK
6
CONTINUOUS
10
2.6825087401574801
20
-1.9214670472440945
11
2.6811787401574803
21
-1.9264307874015747
0
LINE
8
BLACK
6
CONTINUOUS
10
2.6811787401574803
20
-1.9264307874015747
11
2.6786093307086611
21
-1.9308811417322833
0
LINE
8
BLACK
6
CONTINUOUS
10
2.6786093307086611
20
-1.9308811417322833
11
2.6749756299212599
21
-1.934514842519685
0
LINE
8
BLACK
6
CONTINUOUS
10
2.6749756299212599
20
-1.934514842519685
11
2.6705252755905513
21
-1.9370842519685039
0
LINE
8
BLACK
6
CONTINUOUS
10
2.6705252755905513
20
-1.9370842519685039
11
2.6655615354330706
21
-1.9384142519685039
0
LINE
8
BLACK
6
CONTINUOUS
10
2.6655615354330706
20
-1.9384142519685039
11
2.6604227165354328
21
-1.9384142519685039
0
LINE
8
BLACK
6
CONTINUOUS
10
2.6604227165354328
20
-1.9384142519685039
11
2.6554589763779526
21
-1.9370842519685039
0
LINE
8
BLACK
6
CONTINUOUS
10
2.6554589763779526
20
-1.9370842519685039
11
2.651008622047244
21
-1.934514842519685
0
LINE
8
BLACK
6
CONTINUOUS
10
2.651008622047244
20
-1.934514842519685
11
2.6473749212598423
21
-1.9308811417322833
0
LINE
8
BLACK
6
CONTINUOUS
10
2.6473749212598423
20
-1.9308811417322833
11
2.6448055118110236
21
-1.9264307874015747
0
LINE
8
BLACK
6
CONTINUOUS
10
2.6448055118110236
20
-1.9264307874015747
11
2.6434755118110234
21
-1.9214670472440945
0
LINE
8
BLACK
6
CONTINUOUS
10
2.6434755118110234
20
-1.9214670472440945
11
2.6434755118110234
21
-1.9163282283464567
0
LINE
8
BLACK
6
CONTINUOUS
10
2.6434755118110234
20
-1.9163282283464567
11
2.6448055118110236
21
-1.9113644881889764
0
LINE
8
BLACK
6
CONTINUOUS
10
2.6448055118110236
20
-1.9113644881889764
11
2.6473749212598423
21
-1.9069141338582676
0
LINE
8
BLACK
6
CONTINUOUS
10
2.6473749212598423
20
-1.9069141338582676
11
2.651008622047244
21
-1.9032804330708661
0
LINE
8
BLACK
6
CONTINUOUS
10
2.651008622047244
20
-1.9032804330708661
11
2.6554589763779526
21
-1.9007110236220472
0
LINE
8
BLACK
6
CONTINUOUS
10
2.6554589763779526
20
-1.9007110236220472
11
2.6604227165354328
21
-1.8993810236220472
0
LINE
8
BLACK
6
CONTINUOUS
10
2.6604227165354328
20
-1.8993810236220472
11
2.6655615354330706
21
-1.8993810236220472
0
LINE
8
BLACK
6
CONTINUOUS
10
2.6655615354330706
20
-1.8993810236220472
11
2.6705252755905513
21
-1.9007110236220472
0
LINE
8
BLACK
6
CONTINUOUS
10
2.620525275590551
20
-1.8507110236220472
11
2.6249756299212597
21
-1.8532804330708661
0
LINE
8
BLACK
6
CONTINUOUS
10
2.6249756299212597
20
-1.8532804330708661
11
2.6286093307086613
21
-1.8569141338582678
0
LINE
8
BLACK
6
CONTINUOUS
10
2.6286093307086613
20
-1.8569141338582678
11
2.6311787401574804
21
-1.8613644881889764
0
LINE
8
BLACK
6
CONTINUOUS
10
2.6311787401574804
20
-1.8613644881889764
11
2.6325087401574803
21
-1.8663282283464566
0
LINE
8
BLACK
6
CONTINUOUS
10
2.6325087401574803
20
-1.8663282283464566
11
2.6325087401574803
21
-1.8714670472440944
0
LINE
8
BLACK
6
CONTINUOUS
10
2.6325087401574803
20
-1.8714670472440944
11
2.6311787401574804
21
-1.8764307874015747
0
LINE
8
BLACK
6
CONTINUOUS
10
2.6311787401574804
20
-1.8764307874015747
11
2.6286093307086613
21
-1.8808811417322835
0
LINE
8
BLACK
6
CONTINUOUS
10
2.6286093307086613
20
-1.8808811417322835
11
2.6249756299212597
21
-1.8845148425196849
0
LINE
8
BLACK
6
CONTINUOUS
10
2.6249756299212597
20
-1.8845148425196849
11
2.620525275590551
21
-1.8870842519685038
0
LINE
8
BLACK
6
CONTINUOUS
10
2.620525275590551
20
-1.8870842519685038
11
2.6155615354330708
21
-1.8884142519685039
0
LINE
8
BLACK
6
CONTINUOUS
10
2.6155615354330708
20
-1.8884142519685039
11
2.610422716535433
21
-1.8884142519685039
0
LINE
8
BLACK
6
CONTINUOUS
10
2.610422716535433
20
-1.8884142519685039
11
2.6054589763779528
21
-1.8870842519685038
0
LINE
8
BLACK
6
CONTINUOUS
10
2.6054589763779528
20
-1.8870842519685038
11
2.6010086220472441
21
-1.8845148425196849
0
LINE
8
BLACK
6
CONTINUOUS
10
2.6010086220472441
20
-1.8845148425196849
11
2.5973749212598425
21
-1.8808811417322835
0
LINE
8
BLACK
6
CONTINUOUS
10
2.5973749212598425
20
-1.8808811417322835
11
2.5948055118110234
21
-1.8764307874015747
0
LINE
8
BLACK
6
CONTINUOUS
10
2.5948055118110234
20
-1.8764307874015747
11
2.5934755118110235
21
-1.8714670472440944
0
LINE
8
BLACK
6
CONTINUOUS
10
2.5934755118110235
20
-1.8714670472440944
11
2.5934755118110235
21
-1.8663282283464566
0
LINE
8
BLACK
6
CONTINUOUS
10
2.5934755118110235
20
-1.8663282283464566
11
2.5948055118110234
21
-1.8613644881889764
0
LINE
8
BLACK
6
CONTINUOUS
10
2.5948055118110234
20
-1.8613644881889764
11
2.5973749212598425
21
-1.8569141338582678
0
LINE
8
BLACK
6
CONTINUOUS
10
2.5973749212598425
20
-1.8569141338582678
11
2.6010086220472441
21
-1.8532804330708661
0
LINE
8
BLACK
6
CONTINUOUS
10
2.6010086220472441
20
-1.8532804330708661
11
2.6054589763779528
21
-1.8507110236220472
0
LINE
8
BLACK
6
CONTINUOUS
10
2.6054589763779528
20
-1.8507110236220472
11
2.610422716535433
21
-1.8493810236220471
0
LINE
8
BLACK
6
CONTINUOUS
10
2.610422716535433
20
-1.8493810236220471
11
2.6155615354330708
21
-1.8493810236220471
0
LINE
8
BLACK
6
CONTINUOUS
10
2.6155615354330708
20
-1.8493810236220471
11
2.620525275590551
21
-1.8507110236220472
0
LINE
8
BLACK
6
CONTINUOUS
10
2.6705252755905513
20
-1.8507110236220472
11
2.6749756299212599
21
-1.8532804330708661
0
LINE
8
BLACK
6
CONTINUOUS
10
2.6749756299212599
20
-1.8532804330708661
11
2.6786093307086611
21
-1.8569141338582678
0
LINE
8
BLACK
6
CONTINUOUS
10
2.6786093307086611
20
-1.8569141338582678
11
2.6811787401574803
21
-1.8613644881889764
0
LINE
8
BLACK
6
CONTINUOUS
10
2.6811787401574803
20
-1.8613644881889764
11
2.6825087401574801
21
-1.8663282283464566
0
LINE
8
BLACK
6
CONTINUOUS
10
2.6825087401574801
20
-1.8663282283464566
11
2.6825087401574801
21
-1.8714670472440944
0
LINE
8
BLACK
6
CONTINUOUS
10
2.6825087401574801
20
-1.8714670472440944
11
2.6811787401574803
21
-1.8764307874015747
0
LINE
8
BLACK
6
CONTINUOUS
10
2.6811787401574803
20
-1.8764307874015747
11
2.6786093307086611
21
-1.8808811417322835
0
LINE
8
BLACK
6
CONTINUOUS
10
2.6786093307086611
20
-1.8808811417322835
11
2.6749756299212599
21
-1.8845148425196849
0
LINE
8
BLACK
6
CONTINUOUS
10
2.6749756299212599
20
-1.8845148425196849
11
2.6705252755905513
21
-1.8870842519685038
0
LINE
8
BLACK
6
CONTINUOUS
10
2.6705252755905513
20
-1.8870842519685038
11
2.6655615354330706
21
-1.8884142519685039
0
LINE
8
BLACK
6
CONTINUOUS
10
2.6655615354330706
20
-1.8884142519685039
11
2.6604227165354328
21
-1.8884142519685039
0
LINE
8
BLACK
6
CONTINUOUS
10
2.6604227165354328
20
-1.8884142519685039
11
2.6554589763779526
21
-1.8870842519685038
0
LINE
8
BLACK
6
CONTINUOUS
10
2.6554589763779526
20
-1.8870842519685038
11
2.651008622047244
21
-1.8845148425196849
0
LINE
8
BLACK
6
CONTINUOUS
10
2.651008622047244
20
-1.8845148425196849
11
2.6473749212598423
21
-1.8808811417322835
0
LINE
8
BLACK
6
CONTINUOUS
10
2.6473749212598423
20
-1.8808811417322835
11
2.6448055118110236
21
-1.8764307874015747
0
LINE
8
BLACK
6
CONTINUOUS
10
2.6448055118110236
20
-1.8764307874015747
11
2.6434755118110234
21
-1.8714670472440944
0
LINE
8
BLACK
6
CONTINUOUS
10
2.6434755118110234
20
-1.8714670472440944
11
2.6434755118110234
21
-1.8663282283464566
0
LINE
8
BLACK
6
CONTINUOUS
10
2.6434755118110234
20
-1.8663282283464566
11
2.6448055118110236
21
-1.8613644881889764
0
LINE
8
BLACK
6
CONTINUOUS
10
2.6448055118110236
20
-1.8613644881889764
11
2.6473749212598423
21
-1.8569141338582678
0
LINE
8
BLACK
6
CONTINUOUS
10
2.6473749212598423
20
-1.8569141338582678
11
2.651008622047244
21
-1.8532804330708661
0
LINE
8
BLACK
6
CONTINUOUS
10
2.651008622047244
20
-1.8532804330708661
11
2.6554589763779526
21
-1.8507110236220472
0
LINE
8
BLACK
6
CONTINUOUS
10
2.6554589763779526
20
-1.8507110236220472
11
2.6604227165354328
21
-1.8493810236220471
0
LINE
8
BLACK
6
CONTINUOUS
10
2.6604227165354328
20
-1.8493810236220471
11
2.6655615354330706
21
-1.8493810236220471
0
LINE
8
BLACK
6
CONTINUOUS
10
2.6655615354330706
20
-1.8493810236220471
11
2.6705252755905513
21
-1.8507110236220472
0
LINE
8
BLACK
6
CONTINUOUS
10
2.6826771653543307
20
-1.8385826771653544
11
2.6433070866141732
21
-1.8385826771653544
0
LINE
8
BLACK
6
CONTINUOUS
10
2.6433070866141732
20
-1.8385826771653544
11
2.6433070866141732
21
-1.7992125984251968
0
LINE
8
BLACK
6
CONTINUOUS
10
2.6433070866141732
20
-1.7992125984251968
11
2.6826771653543307
21
-1.7992125984251968
0
LINE
8
BLACK
6
CONTINUOUS
10
2.6826771653543307
20
-1.7992125984251968
11
2.6826771653543307
21
-1.8385826771653544
0
LINE
8
BLACK
6
CONTINUOUS
10
2.620525275590551
20
-1.8007110236220472
11
2.6249756299212597
21
-1.8032804330708661
0
LINE
8
BLACK
6
CONTINUOUS
10
2.6249756299212597
20
-1.8032804330708661
11
2.6286093307086613
21
-1.8069141338582677
0
LINE
8
BLACK
6
CONTINUOUS
10
2.6286093307086613
20
-1.8069141338582677
11
2.6311787401574804
21
-1.8113644881889763
0
LINE
8
BLACK
6
CONTINUOUS
10
2.6311787401574804
20
-1.8113644881889763
11
2.6325087401574803
21
-1.8163282283464566
0
LINE
8
BLACK
6
CONTINUOUS
10
2.6325087401574803
20
-1.8163282283464566
11
2.6325087401574803
21
-1.8214670472440944
0
LINE
8
BLACK
6
CONTINUOUS
10
2.6325087401574803
20
-1.8214670472440944
11
2.6311787401574804
21
-1.8264307874015748
0
LINE
8
BLACK
6
CONTINUOUS
10
2.6311787401574804
20
-1.8264307874015748
11
2.6286093307086613
21
-1.8308811417322834
0
LINE
8
BLACK
6
CONTINUOUS
10
2.6286093307086613
20
-1.8308811417322834
11
2.6249756299212597
21
-1.8345148425196851
0
LINE
8
BLACK
6
CONTINUOUS
10
2.6249756299212597
20
-1.8345148425196851
11
2.620525275590551
21
-1.837084251968504
0
LINE
8
BLACK
6
CONTINUOUS
10
2.620525275590551
20
-1.837084251968504
11
2.6155615354330708
21
-1.8384142519685038
0
LINE
8
BLACK
6
CONTINUOUS
10
2.6155615354330708
20
-1.8384142519685038
11
2.610422716535433
21
-1.8384142519685038
0
LINE
8
BLACK
6
CONTINUOUS
10
2.610422716535433
20
-1.8384142519685038
11
2.6054589763779528
21
-1.837084251968504
0
LINE
8
BLACK
6
CONTINUOUS
10
2.6054589763779528
20
-1.837084251968504
11
2.6010086220472441
21
-1.8345148425196851
0
LINE
8
BLACK
6
CONTINUOUS
10
2.6010086220472441
20
-1.8345148425196851
11
2.5973749212598425
21
-1.8308811417322834
0
LINE
8
BLACK
6
CONTINUOUS
10
2.5973749212598425
20
-1.8308811417322834
11
2.5948055118110234
21
-1.8264307874015748
0
LINE
8
BLACK
6
CONTINUOUS
10
2.5948055118110234
20
-1.8264307874015748
11
2.5934755118110235
21
-1.8214670472440944
0
LINE
8
BLACK
6
CONTINUOUS
10
2.5934755118110235
20
-1.8214670472440944
11
2.5934755118110235
21
-1.8163282283464566
0
LINE
8
BLACK
6
CONTINUOUS
10
2.5934755118110235
20
-1.8163282283464566
11
2.5948055118110234
21
-1.8113644881889763
0
LINE
8
BLACK
6
CONTINUOUS
10
2.5948055118110234
20
-1.8113644881889763
11
2.5973749212598425
21
-1.8069141338582677
0
LINE
8
BLACK
6
CONTINUOUS
10
2.5973749212598425
20
-1.8069141338582677
11
2.6010086220472441
21
-1.8032804330708661
0
LINE
8
BLACK
6
CONTINUOUS
10
2.6010086220472441
20
-1.8032804330708661
11
2.6054589763779528
21
-1.8007110236220472
0
LINE
8
BLACK
6
CONTINUOUS
10
2.6054589763779528
20
-1.8007110236220472
11
2.610422716535433
21
-1.7993810236220471
0
LINE
8
BLACK
6
CONTINUOUS
10
2.610422716535433
20
-1.7993810236220471
11
2.6155615354330708
21
-1.7993810236220471
0
LINE
8
BLACK
6
CONTINUOUS
10
2.6155615354330708
20
-1.7993810236220471
11
2.620525275590551
21
-1.8007110236220472
0
LINE
8
BLACK
6
CONTINUOUS
10
2.6217246850393701
20
-1.3379752755905512
11
2.6290690551181104
21
-1.3403616141732284
0
LINE
8
BLACK
6
CONTINUOUS
10
2.6290690551181104
20
-1.3403616141732284
11
2.635949724409449
21
-1.3438674803149606
0
LINE
8
BLACK
6
CONTINUOUS
10
2.635949724409449
20
-1.3438674803149606
11
2.6421972440944881
21
-1.3484065748031495
0
LINE
8
BLACK
6
CONTINUOUS
10
2.6421972440944881
20
-1.3484065748031495
11
2.6476577559055117
21
-1.3538670866141731
0
LINE
8
BLACK
6
CONTINUOUS
10
2.6476577559055117
20
-1.3538670866141731
11
2.6521968503937008
21
-1.3601146062992127
0
LINE
8
BLACK
6
CONTINUOUS
10
2.6521968503937008
20
-1.3601146062992127
11
2.655702716535433
21
-1.3669952755905512
0
LINE
8
BLACK
6
CONTINUOUS
10
2.655702716535433
20
-1.3669952755905512
11
2.65808905511811
21
-1.3743396456692913
0
LINE
8
BLACK
6
CONTINUOUS
10
2.65808905511811
20
-1.3743396456692913
11
2.6592971259842519
21
-1.3819669291338583
0
LINE
8
BLACK
6
CONTINUOUS
10
2.6592971259842519
20
-1.3819669291338583
11
2.6592971259842519
21
-1.3896892913385825
0
LINE
8
BLACK
6
CONTINUOUS
10
2.6592971259842519
20
-1.3896892913385825
11
2.65808905511811
21
-1.3973165748031495
0
LINE
8
BLACK
6
CONTINUOUS
10
2.65808905511811
20
-1.3973165748031495
11
2.655702716535433
21
-1.4046609448818896
0
LINE
8
BLACK
6
CONTINUOUS
10
2.655702716535433
20
-1.4046609448818896
11
2.6521968503937008
21
-1.4115416141732282
0
LINE
8
BLACK
6
CONTINUOUS
10
2.6521968503937008
20
-1.4115416141732282
11
2.6476577559055117
21
-1.4177891338582678
0
LINE
8
BLACK
6
CONTINUOUS
10
2.6476577559055117
20
-1.4177891338582678
11
2.6421972440944881
21
-1.4232496456692914
0
LINE
8
BLACK
6
CONTINUOUS
10
2.6421972440944881
20
-1.4232496456692914
11
2.635949724409449
21
-1.4277887401574803
0
LINE
8
BLACK
6
CONTINUOUS
10
2.635949724409449
20
-1.4277887401574803
11
2.6290690551181104
21
-1.4312946062992125
0
LINE
8
BLACK
6
CONTINUOUS
10
2.6290690551181104
20
-1.4312946062992125
11
2.6217246850393701
21
-1.4336809448818897
0
LINE
8
BLACK
6
CONTINUOUS
10
2.6217246850393701
20
-1.4336809448818897
11
2.6140974015748033
21
-1.4348890157480314
0
LINE
8
BLACK
6
CONTINUOUS
10
2.6140974015748033
20
-1.4348890157480314
11
2.6063750393700786
21
-1.4348890157480314
0
LINE
8
BLACK
6
CONTINUOUS
10
2.6063750393700786
20
-1.4348890157480314
11
2.5987477559055119
21
-1.4336809448818897
0
LINE
8
BLACK
6
CONTINUOUS
10
2.5987477559055119
20
-1.4336809448818897
11
2.5914033858267715
21
-1.4312946062992125
0
LINE
8
BLACK
6
CONTINUOUS
10
2.5914033858267715
20
-1.4312946062992125
11
2.584522716535433
21
-1.4277887401574803
0
LINE
8
BLACK
6
CONTINUOUS
10
2.584522716535433
20
-1.4277887401574803
11
2.5782751968503939
21
-1.4232496456692914
0
LINE
8
BLACK
6
CONTINUOUS
10
2.5782751968503939
20
-1.4232496456692914
11
2.5728146850393698
21
-1.4177891338582678
0
LINE
8
BLACK
6
CONTINUOUS
10
2.5728146850393698
20
-1.4177891338582678
11
2.5682755905511812
21
-1.4115416141732282
0
LINE
8
BLACK
6
CONTINUOUS
10
2.5682755905511812
20
-1.4115416141732282
11
2.5647697244094489
21
-1.4046609448818896
0
LINE
8
BLACK
6
CONTINUOUS
10
2.5647697244094489
20
-1.4046609448818896
11
2.5623833858267715
21
-1.3973165748031495
0
LINE
8
BLACK
6
CONTINUOUS
10
2.5623833858267715
20
-1.3973165748031495
11
2.56117531496063
21
-1.3896892913385825
0
LINE
8
BLACK
6
CONTINUOUS
10
2.56117531496063
20
-1.3896892913385825
11
2.56117531496063
21
-1.3819669291338583
0
LINE
8
BLACK
6
CONTINUOUS
10
2.56117531496063
20
-1.3819669291338583
11
2.5623833858267715
21
-1.3743396456692913
0
LINE
8
BLACK
6
CONTINUOUS
10
2.5623833858267715
20
-1.3743396456692913
11
2.5647697244094489
21
-1.3669952755905512
0
LINE
8
BLACK
6
CONTINUOUS
10
2.5647697244094489
20
-1.3669952755905512
11
2.5682755905511812
21
-1.3601146062992127
0
LINE
8
BLACK
6
CONTINUOUS
10
2.5682755905511812
20
-1.3601146062992127
11
2.5728146850393698
21
-1.3538670866141731
0
LINE
8
BLACK
6
CONTINUOUS
10
2.5728146850393698
20
-1.3538670866141731
11
2.5782751968503939
21
-1.3484065748031495
0
LINE
8
BLACK
6
CONTINUOUS
10
2.5782751968503939
20
-1.3484065748031495
11
2.584522716535433
21
-1.3438674803149606
0
LINE
8
BLACK
6
CONTINUOUS
10
2.584522716535433
20
-1.3438674803149606
11
2.5914033858267715
21
-1.3403616141732284
0
LINE
8
BLACK
6
CONTINUOUS
10
2.5914033858267715
20
-1.3403616141732284
11
2.5987477559055119
21
-1.3379752755905512
0
LINE
8
BLACK
6
CONTINUOUS
10
2.5987477559055119
20
-1.3379752755905512
11
2.6063750393700786
21
-1.3367672047244095
0
LINE
8
BLACK
6
CONTINUOUS
10
2.6063750393700786
20
-1.3367672047244095
11
2.6140974015748033
21
-1.3367672047244095
0
LINE
8
BLACK
6
CONTINUOUS
10
2.6140974015748033
20
-1.3367672047244095
11
2.6217246850393701
21
-1.3379752755905512
0
LINE
8
BLACK
6
CONTINUOUS
10
1.3618821653543307
20
-1.337973937007874
11
1.3692265354330708
21
-1.340360275590551
0
LINE
8
BLACK
6
CONTINUOUS
10
1.3692265354330708
20
-1.340360275590551
11
1.3761072047244094
21
-1.3438661417322835
0
LINE
8
BLACK
6
CONTINUOUS
10
1.3761072047244094
20
-1.3438661417322835
11
1.3823547244094487
21
-1.3484052362204724
0
LINE
8
BLACK
6
CONTINUOUS
10
1.3823547244094487
20
-1.3484052362204724
11
1.3878152362204723
21
-1.353865748031496
0
LINE
8
BLACK
6
CONTINUOUS
10
1.3878152362204723
20
-1.353865748031496
11
1.3923543307086614
21
-1.3601132677165355
0
LINE
8
BLACK
6
CONTINUOUS
10
1.3923543307086614
20
-1.3601132677165355
11
1.3958601968503936
21
-1.3669939370078741
0
LINE
8
BLACK
6
CONTINUOUS
10
1.3958601968503936
20
-1.3669939370078741
11
1.3982465354330709
21
-1.3743383070866142
0
LINE
8
BLACK
6
CONTINUOUS
10
1.3982465354330709
20
-1.3743383070866142
11
1.3994546062992126
21
-1.3819655905511812
0
LINE
8
BLACK
6
CONTINUOUS
10
1.3994546062992126
20
-1.3819655905511812
11
1.3994546062992126
21
-1.3896879527559054
0
LINE
8
BLACK
6
CONTINUOUS
10
1.3994546062992126
20
-1.3896879527559054
11
1.3982465354330709
21
-1.3973152362204724
0
LINE
8
BLACK
6
CONTINUOUS
10
1.3982465354330709
20
-1.3973152362204724
11
1.3958601968503936
21
-1.4046596062992125
0
LINE
8
BLACK
6
CONTINUOUS
10
1.3958601968503936
20
-1.4046596062992125
11
1.3923543307086614
21
-1.4115402755905511
0
LINE
8
BLACK
6
CONTINUOUS
10
1.3923543307086614
20
-1.4115402755905511
11
1.3878152362204723
21
-1.4177877952755906
0
LINE
8
BLACK
6
CONTINUOUS
10
1.3878152362204723
20
-1.4177877952755906
11
1.3823547244094487
21
-1.4232483070866142
0
LINE
8
BLACK
6
CONTINUOUS
10
1.3823547244094487
20
-1.4232483070866142
11
1.3761072047244094
21
-1.4277874015748031
0
LINE
8
BLACK
6
CONTINUOUS
10
1.3761072047244094
20
-1.4277874015748031
11
1.3692265354330708
21
-1.4312932677165353
0
LINE
8
BLACK
6
CONTINUOUS
10
1.3692265354330708
20
-1.4312932677165353
11
1.3618821653543307
21
-1.4336796062992125
0
LINE
8
BLACK
6
CONTINUOUS
10
1.3618821653543307
20
-1.4336796062992125
11
1.3542548818897637
21
-1.4348876771653543
0
LINE
8
BLACK
6
CONTINUOUS
10
1.3542548818897637
20
-1.4348876771653543
11
1.3465325196850393
21
-1.4348876771653543
0
LINE
8
BLACK
6
CONTINUOUS
10
1.3465325196850393
20
-1.4348876771653543
11
1.3389052362204723
21
-1.4336796062992125
0
LINE
8
BLACK
6
CONTINUOUS
10
1.3389052362204723
20
-1.4336796062992125
11
1.3315608661417322
21
-1.4312932677165353
0
LINE
8
BLACK
6
CONTINUOUS
10
1.3315608661417322
20
-1.4312932677165353
11
1.3246801968503936
21
-1.4277874015748031
0
LINE
8
BLACK
6
CONTINUOUS
10
1.3246801968503936
20
-1.4277874015748031
11
1.3184326771653543
21
-1.4232483070866142
0
LINE
8
BLACK
6
CONTINUOUS
10
1.3184326771653543
20
-1.4232483070866142
11
1.3129721653543307
21
-1.4177877952755906
0
LINE
8
BLACK
6
CONTINUOUS
10
1.3129721653543307
20
-1.4177877952755906
11
1.3084330708661418
21
-1.4115402755905511
0
LINE
8
BLACK
6
CONTINUOUS
10
1.3084330708661418
20
-1.4115402755905511
11
1.3049272047244094
21
-1.4046596062992125
0
LINE
8
BLACK
6
CONTINUOUS
10
1.3049272047244094
20
-1.4046596062992125
11
1.3025408661417321
21
-1.3973152362204724
0
LINE
8
BLACK
6
CONTINUOUS
10
1.3025408661417321
20
-1.3973152362204724
11
1.3013327952755904
21
-1.3896879527559054
0
LINE
8
BLACK
6
CONTINUOUS
10
1.3013327952755904
20
-1.3896879527559054
11
1.3013327952755904
21
-1.3819655905511812
0
LINE
8
BLACK
6
CONTINUOUS
10
1.3013327952755904
20
-1.3819655905511812
11
1.3025408661417321
21
-1.3743383070866142
0
LINE
8
BLACK
6
CONTINUOUS
10
1.3025408661417321
20
-1.3743383070866142
11
1.3049272047244094
21
-1.3669939370078741
0
LINE
8
BLACK
6
CONTINUOUS
10
1.3049272047244094
20
-1.3669939370078741
11
1.3084330708661418
21
-1.3601132677165355
0
LINE
8
BLACK
6
CONTINUOUS
10
1.3084330708661418
20
-1.3601132677165355
11
1.3129721653543307
21
-1.353865748031496
0
LINE
8
BLACK
6
CONTINUOUS
10
1.3129721653543307
20
-1.353865748031496
11
1.3184326771653543
21
-1.3484052362204724
0
LINE
8
BLACK
6
CONTINUOUS
10
1.3184326771653543
20
-1.3484052362204724
11
1.3246801968503936
21
-1.3438661417322835
0
LINE
8
BLACK
6
CONTINUOUS
10
1.3246801968503936
20
-1.3438661417322835
11
1.3315608661417322
21
-1.340360275590551
0
LINE
8
BLACK
6
CONTINUOUS
10
1.3315608661417322
20
-1.340360275590551
11
1.3389052362204723
21
-1.337973937007874
0
LINE
8
BLACK
6
CONTINUOUS
10
1.3389052362204723
20
-1.337973937007874
11
1.3465325196850393
21
-1.3367658661417323
0
LINE
8
BLACK
6
CONTINUOUS
10
1.3465325196850393
20
-1.3367658661417323
11
1.3542548818897637
21
-1.3367658661417323
0
LINE
8
BLACK
6
CONTINUOUS
10
1.3542548818897637
20
-1.3367658661417323
11
1.3618821653543307
21
-1.337973937007874
0
LINE
8
BLACK
6
CONTINUOUS
10
1.5950201968503936
20
-1.3001656692913386
11
1.6044209842519686
21
-1.3032201968503936
0
LINE
8
BLACK
6
CONTINUOUS
10
1.6044209842519686
20
-1.3032201968503936
11
1.6132282677165355
21
-1.3077077165354329
0
LINE
8
BLACK
6
CONTINUOUS
10
1.6132282677165355
20
-1.3077077165354329
11
1.6212250787401574
21
-1.313517716535433
0
LINE
8
BLACK
6
CONTINUOUS
10
1.6212250787401574
20
-1.313517716535433
11
1.6282145669291339
21
-1.3205072047244095
0
LINE
8
BLACK
6
CONTINUOUS
10
1.6282145669291339
20
-1.3205072047244095
11
1.6340245669291338
21
-1.3285040157480315
0
LINE
8
BLACK
6
CONTINUOUS
10
1.6340245669291338
20
-1.3285040157480315
11
1.6385120866141731
21
-1.3373112992125984
0
LINE
8
BLACK
6
CONTINUOUS
10
1.6385120866141731
20
-1.3373112992125984
11
1.6415666141732284
21
-1.3467120866141733
0
LINE
8
BLACK
6
CONTINUOUS
10
1.6415666141732284
20
-1.3467120866141733
11
1.6431129133858267
21
-1.3564749999999999
0
LINE
8
BLACK
6
CONTINUOUS
10
1.6431129133858267
20
-1.3564749999999999
11
1.6431129133858267
21
-1.3663596456692912
0
LINE
8
BLACK
6
CONTINUOUS
10
1.6431129133858267
20
-1.3663596456692912
11
1.6415666141732284
21
-1.376122559055118
0
LINE
8
BLACK
6
CONTINUOUS
10
1.6415666141732284
20
-1.376122559055118
11
1.6385120866141731
21
-1.385523346456693
0
LINE
8
BLACK
6
CONTINUOUS
10
1.6385120866141731
20
-1.385523346456693
11
1.6340245669291338
21
-1.3943306299212599
0
LINE
8
BLACK
6
CONTINUOUS
10
1.6340245669291338
20
-1.3943306299212599
11
1.6282145669291339
21
-1.4023274409448818
0
LINE
8
BLACK
6
CONTINUOUS
10
1.6282145669291339
20
-1.4023274409448818
11
1.6212250787401574
21
-1.4093169291338583
0
LINE
8
BLACK
6
CONTINUOUS
10
1.6212250787401574
20
-1.4093169291338583
11
1.6132282677165355
21
-1.4151269291338582
0
LINE
8
BLACK
6
CONTINUOUS
10
1.6132282677165355
20
-1.4151269291338582
11
1.6044209842519686
21
-1.4196144488188975
0
LINE
8
BLACK
6
CONTINUOUS
10
1.6044209842519686
20
-1.4196144488188975
11
1.5950201968503936
21
-1.4226689763779528
0
LINE
8
BLACK
6
CONTINUOUS
10
1.5950201968503936
20
-1.4226689763779528
11
1.5852572834645668
21
-1.4242152755905511
0
LINE
8
BLACK
6
CONTINUOUS
10
1.5852572834645668
20
-1.4242152755905511
11
1.5753726377952755
21
-1.4242152755905511
0
LINE
8
BLACK
6
CONTINUOUS
10
1.5753726377952755
20
-1.4242152755905511
11
1.5656097244094487
21
-1.4226689763779528
0
LINE
8
BLACK
6
CONTINUOUS
10
1.5656097244094487
20
-1.4226689763779528
11
1.556208937007874
21
-1.4196144488188975
0
LINE
8
BLACK
6
CONTINUOUS
10
1.556208937007874
20
-1.4196144488188975
11
1.5474016535433071
21
-1.4151269291338582
0
LINE
8
BLACK
6
CONTINUOUS
10
1.5474016535433071
20
-1.4151269291338582
11
1.5394048425196849
21
-1.4093169291338583
0
LINE
8
BLACK
6
CONTINUOUS
10
1.5394048425196849
20
-1.4093169291338583
11
1.5324153543307086
21
-1.4023274409448818
0
LINE
8
BLACK
6
CONTINUOUS
10
1.5324153543307086
20
-1.4023274409448818
11
1.5266053543307085
21
-1.3943306299212599
0
LINE
8
BLACK
6
CONTINUOUS
10
1.5266053543307085
20
-1.3943306299212599
11
1.5221178346456692
21
-1.385523346456693
0
LINE
8
BLACK
6
CONTINUOUS
10
1.5221178346456692
20
-1.385523346456693
11
1.5190633070866142
21
-1.376122559055118
0
LINE
8
BLACK
6
CONTINUOUS
10
1.5190633070866142
20
-1.376122559055118
11
1.5175170078740157
21
-1.3663596456692912
0
LINE
8
BLACK
6
CONTINUOUS
10
1.5175170078740157
20
-1.3663596456692912
11
1.5175170078740157
21
-1.3564749999999999
0
LINE
8
BLACK
6
CONTINUOUS
10
1.5175170078740157
20
-1.3564749999999999
11
1.5190633070866142
21
-1.3467120866141733
0
LINE
8
BLACK
6
CONTINUOUS
10
1.5190633070866142
20
-1.3467120866141733
11
1.5221178346456692
21
-1.3373112992125984
0
LINE
8
BLACK
6
CONTINUOUS
10
1.5221178346456692
20
-1.3373112992125984
11
1.5266053543307085
21
-1.3285040157480315
0
LINE
8
BLACK
6
CONTINUOUS
10
1.5266053543307085
20
-1.3285040157480315
11
1.5324153543307086
21
-1.3205072047244095
0
LINE
8
BLACK
6
CONTINUOUS
10
1.5324153543307086
20
-1.3205072047244095
11
1.5394048425196849
21
-1.313517716535433
0
LINE
8
BLACK
6
CONTINUOUS
10
1.5394048425196849
20
-1.313517716535433
11
1.5474016535433071
21
-1.3077077165354329
0
LINE
8
BLACK
6
CONTINUOUS
10
1.5474016535433071
20
-1.3077077165354329
11
1.556208937007874
21
-1.3032201968503936
0
LINE
8
BLACK
6
CONTINUOUS
10
1.556208937007874
20
-1.3032201968503936
11
1.5656097244094487
21
-1.3001656692913386
0
LINE
8
BLACK
6
CONTINUOUS
10
1.5656097244094487
20
-1.3001656692913386
11
1.5753726377952755
21
-1.2986193700787401
0
LINE
8
BLACK
6
CONTINUOUS
10
1.5753726377952755
20
-1.2986193700787401
11
1.5852572834645668
21
-1.2986193700787401
0
LINE
8
BLACK
6
CONTINUOUS
10
1.5852572834645668
20
-1.2986193700787401
11
1.5950201968503936
21
-1.3001656692913386
0
LINE
8
BLACK
6
CONTINUOUS
10
1.7950201968503936
20
-1.3001656692913386
11
1.8044209842519685
21
-1.3032201968503936
0
LINE
8
BLACK
6
CONTINUOUS
10
1.8044209842519685
20
-1.3032201968503936
11
1.8132282677165354
21
-1.3077077165354329
0
LINE
8
BLACK
6
CONTINUOUS
10
1.8132282677165354
20
-1.3077077165354329
11
1.8212250787401574
21
-1.313517716535433
0
LINE
8
BLACK
6
CONTINUOUS
10
1.8212250787401574
20
-1.313517716535433
11
1.8282145669291339
21
-1.3205072047244095
0
LINE
8
BLACK
6
CONTINUOUS
10
1.8282145669291339
20
-1.3205072047244095
11
1.8340245669291337
21
-1.3285040157480315
0
LINE
8
BLACK
6
CONTINUOUS
10
1.8340245669291337
20
-1.3285040157480315
11
1.8385120866141731
21
-1.3373112992125984
0
LINE
8
BLACK
6
CONTINUOUS
10
1.8385120866141731
20
-1.3373112992125984
11
1.8415666141732283
21
-1.3467120866141733
0
LINE
8
BLACK
6
CONTINUOUS
10
1.8415666141732283
20
-1.3467120866141733
11
1.8431129133858268
21
-1.3564749999999999
0
LINE
8
BLACK
6
CONTINUOUS
10
1.8431129133858268
20
-1.3564749999999999
11
1.8431129133858268
21
-1.3663596456692912
0
LINE
8
BLACK
6
CONTINUOUS
10
1.8431129133858268
20
-1.3663596456692912
11
1.8415666141732283
21
-1.376122559055118
0
LINE
8
BLACK
6
CONTINUOUS
10
1.8415666141732283
20
-1.376122559055118
11
1.8385120866141731
21
-1.385523346456693
0
LINE
8
BLACK
6
CONTINUOUS
10
1.8385120866141731
20
-1.385523346456693
11
1.8340245669291337
21
-1.3943306299212599
0
LINE
8
BLACK
6
CONTINUOUS
10
1.8340245669291337
20
-1.3943306299212599
11
1.8282145669291339
21
-1.4023274409448818
0
LINE
8
BLACK
6
CONTINUOUS
10
1.8282145669291339
20
-1.4023274409448818
11
1.8212250787401574
21
-1.4093169291338583
0
LINE
8
BLACK
6
CONTINUOUS
10
1.8212250787401574
20
-1.4093169291338583
11
1.8132282677165354
21
-1.4151269291338582
0
LINE
8
BLACK
6
CONTINUOUS
10
1.8132282677165354
20
-1.4151269291338582
11
1.8044209842519685
21
-1.4196144488188975
0
LINE
8
BLACK
6
CONTINUOUS
10
1.8044209842519685
20
-1.4196144488188975
11
1.7950201968503936
21
-1.4226689763779528
0
LINE
8
BLACK
6
CONTINUOUS
10
1.7950201968503936
20
-1.4226689763779528
11
1.7852572834645668
21
-1.4242152755905511
0
LINE
8
BLACK
6
CONTINUOUS
10
1.7852572834645668
20
-1.4242152755905511
11
1.7753726377952757
21
-1.4242152755905511
0
LINE
8
BLACK
6
CONTINUOUS
10
1.7753726377952757
20
-1.4242152755905511
11
1.7656097244094489
21
-1.4226689763779528
0
LINE
8
BLACK
6
CONTINUOUS
10
1.7656097244094489
20
-1.4226689763779528
11
1.7562089370078739
21
-1.4196144488188975
0
LINE
8
BLACK
6
CONTINUOUS
10
1.7562089370078739
20
-1.4196144488188975
11
1.747401653543307
21
-1.4151269291338582
0
LINE
8
BLACK
6
CONTINUOUS
10
1.747401653543307
20
-1.4151269291338582
11
1.7394048425196851
21
-1.4093169291338583
0
LINE
8
BLACK
6
CONTINUOUS
10
1.7394048425196851
20
-1.4093169291338583
11
1.7324153543307086
21
-1.4023274409448818
0
LINE
8
BLACK
6
CONTINUOUS
10
1.7324153543307086
20
-1.4023274409448818
11
1.7266053543307087
21
-1.3943306299212599
0
LINE
8
BLACK
6
CONTINUOUS
10
1.7266053543307087
20
-1.3943306299212599
11
1.7221178346456691
21
-1.385523346456693
0
LINE
8
BLACK
6
CONTINUOUS
10
1.7221178346456691
20
-1.385523346456693
11
1.7190633070866141
21
-1.376122559055118
0
LINE
8
BLACK
6
CONTINUOUS
10
1.7190633070866141
20
-1.376122559055118
11
1.7175170078740156
21
-1.3663596456692912
0
LINE
8
BLACK
6
CONTINUOUS
10
1.7175170078740156
20
-1.3663596456692912
11
1.7175170078740156
21
-1.3564749999999999
0
LINE
8
BLACK
6
CONTINUOUS
10
1.7175170078740156
20
-1.3564749999999999
11
1.7190633070866141
21
-1.3467120866141733
0
LINE
8
BLACK
6
CONTINUOUS
10
1.7190633070866141
20
-1.3467120866141733
11
1.7221178346456691
21
-1.3373112992125984
0
LINE
8
BLACK
6
CONTINUOUS
10
1.7221178346456691
20
-1.3373112992125984
11
1.7266053543307087
21
-1.3285040157480315
0
LINE
8
BLACK
6
CONTINUOUS
10
1.7266053543307087
20
-1.3285040157480315
11
1.7324153543307086
21
-1.3205072047244095
0
LINE
8
BLACK
6
CONTINUOUS
10
1.7324153543307086
20
-1.3205072047244095
11
1.7394048425196851
21
-1.313517716535433
0
LINE
8
BLACK
6
CONTINUOUS
10
1.7394048425196851
20
-1.313517716535433
11
1.747401653543307
21
-1.3077077165354329
0
LINE
8
BLACK
6
CONTINUOUS
10
1.747401653543307
20
-1.3077077165354329
11
1.7562089370078739
21
-1.3032201968503936
0
LINE
8
BLACK
6
CONTINUOUS
10
1.7562089370078739
20
-1.3032201968503936
11
1.7656097244094489
21
-1.3001656692913386
0
LINE
8
BLACK
6
CONTINUOUS
10
1.7656097244094489
20
-1.3001656692913386
11
1.7753726377952757
21
-1.2986193700787401
0
LINE
8
BLACK
6
CONTINUOUS
10
1.7753726377952757
20
-1.2986193700787401
11
1.7852572834645668
21
-1.2986193700787401
0
LINE
8
BLACK
6
CONTINUOUS
10
1.7852572834645668
20
-1.2986193700787401
11
1.7950201968503936
21
-1.3001656692913386
0
LINE
8
BLACK
6
CONTINUOUS
10
1.9950201968503936
20
-1.3001656692913386
11
2.0044209842519685
21
-1.3032201968503936
0
LINE
8
BLACK
6
CONTINUOUS
10
2.0044209842519685
20
-1.3032201968503936
11
2.0132282677165354
21
-1.3077077165354329
0
LINE
8
BLACK
6
CONTINUOUS
10
2.0132282677165354
20
-1.3077077165354329
11
2.0212250787401573
21
-1.313517716535433
0
LINE
8
BLACK
6
CONTINUOUS
10
2.0212250787401573
20
-1.313517716535433
11
2.0282145669291336
21
-1.3205072047244095
0
LINE
8
BLACK
6
CONTINUOUS
10
2.0282145669291336
20
-1.3205072047244095
11
2.0340245669291339
21
-1.3285040157480315
0
LINE
8
BLACK
6
CONTINUOUS
10
2.0340245669291339
20
-1.3285040157480315
11
2.038512086614173
21
-1.3373112992125984
0
LINE
8
BLACK
6
CONTINUOUS
10
2.038512086614173
20
-1.3373112992125984
11
2.0415666141732283
21
-1.3467120866141733
0
LINE
8
BLACK
6
CONTINUOUS
10
2.0415666141732283
20
-1.3467120866141733
11
2.0431129133858268
21
-1.3564749999999999
0
LINE
8
BLACK
6
CONTINUOUS
10
2.0431129133858268
20
-1.3564749999999999
11
2.0431129133858268
21
-1.3663596456692912
0
LINE
8
BLACK
6
CONTINUOUS
10
2.0431129133858268
20
-1.3663596456692912
11
2.0415666141732283
21
-1.376122559055118
0
LINE
8
BLACK
6
CONTINUOUS
10
2.0415666141732283
20
-1.376122559055118
11
2.038512086614173
21
-1.385523346456693
0
LINE
8
BLACK
6
CONTINUOUS
10
2.038512086614173
20
-1.385523346456693
11
2.0340245669291339
21
-1.3943306299212599
0
LINE
8
BLACK
6
CONTINUOUS
10
2.0340245669291339
20
-1.3943306299212599
11
2.0282145669291336
21
-1.4023274409448818
0
LINE
8
BLACK
6
CONTINUOUS
10
2.0282145669291336
20
-1.4023274409448818
11
2.0212250787401573
21
-1.4093169291338583
0
LINE
8
BLACK
6
CONTINUOUS
10
2.0212250787401573
20
-1.4093169291338583
11
2.0132282677165354
21
-1.4151269291338582
0
LINE
8
BLACK
6
CONTINUOUS
10
2.0132282677165354
20
-1.4151269291338582
11
2.0044209842519685
21
-1.4196144488188975
0
LINE
8
BLACK
6
CONTINUOUS
10
2.0044209842519685
20
-1.4196144488188975
11
1.9950201968503936
21
-1.4226689763779528
0
LINE
8
BLACK
6
CONTINUOUS
10
1.9950201968503936
20
-1.4226689763779528
11
1.985257283464567
21
-1.4242152755905511
0
LINE
8
BLACK
6
CONTINUOUS
10
1.985257283464567
20
-1.4242152755905511
11
1.9753726377952756
21
-1.4242152755905511
0
LINE
8
BLACK
6
CONTINUOUS
10
1.9753726377952756
20
-1.4242152755905511
11
1.9656097244094488
21
-1.4226689763779528
0
LINE
8
BLACK
6
CONTINUOUS
10
1.9656097244094488
20
-1.4226689763779528
11
1.9562089370078739
21
-1.4196144488188975
0
LINE
8
BLACK
6
CONTINUOUS
10
1.9562089370078739
20
-1.4196144488188975
11
1.947401653543307
21
-1.4151269291338582
0
LINE
8
BLACK
6
CONTINUOUS
10
1.947401653543307
20
-1.4151269291338582
11
1.939404842519685
21
-1.4093169291338583
0
LINE
8
BLACK
6
CONTINUOUS
10
1.939404842519685
20
-1.4093169291338583
11
1.9324153543307085
21
-1.4023274409448818
0
LINE
8
BLACK
6
CONTINUOUS
10
1.9324153543307085
20
-1.4023274409448818
11
1.9266053543307087
21
-1.3943306299212599
0
LINE
8
BLACK
6
CONTINUOUS
10
1.9266053543307087
20
-1.3943306299212599
11
1.9221178346456693
21
-1.385523346456693
0
LINE
8
BLACK
6
CONTINUOUS
10
1.9221178346456693
20
-1.385523346456693
11
1.9190633070866141
21
-1.376122559055118
0
LINE
8
BLACK
6
CONTINUOUS
10
1.9190633070866141
20
-1.376122559055118
11
1.9175170078740158
21
-1.3663596456692912
0
LINE
8
BLACK
6
CONTINUOUS
10
1.9175170078740158
20
-1.3663596456692912
11
1.9175170078740158
21
-1.3564749999999999
0
LINE
8
BLACK
6
CONTINUOUS
10
1.9175170078740158
20
-1.3564749999999999
11
1.9190633070866141
21
-1.3467120866141733
0
LINE
8
BLACK
6
CONTINUOUS
10
1.9190633070866141
20
-1.3467120866141733
11
1.9221178346456693
21
-1.3373112992125984
0
LINE
8
BLACK
6
CONTINUOUS
10
1.9221178346456693
20
-1.3373112992125984
11
1.9266053543307087
21
-1.3285040157480315
0
LINE
8
BLACK
6
CONTINUOUS
10
1.9266053543307087
20
-1.3285040157480315
11
1.9324153543307085
21
-1.3205072047244095
0
LINE
8
BLACK
6
CONTINUOUS
10
1.9324153543307085
20
-1.3205072047244095
11
1.939404842519685
21
-1.313517716535433
0
LINE
8
BLACK
6
CONTINUOUS
10
1.939404842519685
20
-1.313517716535433
11
1.947401653543307
21
-1.3077077165354329
0
LINE
8
BLACK
6
CONTINUOUS
10
1.947401653543307
20
-1.3077077165354329
11
1.9562089370078739
21
-1.3032201968503936
0
LINE
8
BLACK
6
CONTINUOUS
10
1.9562089370078739
20
-1.3032201968503936
11
1.9656097244094488
21
-1.3001656692913386
0
LINE
8
BLACK
6
CONTINUOUS
10
1.9656097244094488
20
-1.3001656692913386
11
1.9753726377952756
21
-1.2986193700787401
0
LINE
8
BLACK
6
CONTINUOUS
10
1.9753726377952756
20
-1.2986193700787401
11
1.985257283464567
21
-1.2986193700787401
0
LINE
8
BLACK
6
CONTINUOUS
10
1.985257283464567
20
-1.2986193700787401
11
1.9950201968503936
21
-1.3001656692913386
0
LINE
8
BLACK
6
CONTINUOUS
10
2.1950201968503937
20
-1.3001656692913386
11
2.2044209842519686
21
-1.3032201968503936
0
LINE
8
BLACK
6
CONTINUOUS
10
2.2044209842519686
20
-1.3032201968503936
11
2.2132282677165356
21
-1.3077077165354329
0
LINE
8
BLACK
6
CONTINUOUS
10
2.2132282677165356
20
-1.3077077165354329
11
2.2212250787401575
21
-1.313517716535433
0
LINE
8
BLACK
6
CONTINUOUS
10
2.2212250787401575
20
-1.313517716535433
11
2.2282145669291338
21
-1.3205072047244095
0
LINE
8
BLACK
6
CONTINUOUS
10
2.2282145669291338
20
-1.3205072047244095
11
2.2340245669291336
21
-1.3285040157480315
0
LINE
8
BLACK
6
CONTINUOUS
10
2.2340245669291336
20
-1.3285040157480315
11
2.2385120866141732
21
-1.3373112992125984
0
LINE
8
BLACK
6
CONTINUOUS
10
2.2385120866141732
20
-1.3373112992125984
11
2.2415666141732284
21
-1.3467120866141733
0
LINE
8
BLACK
6
CONTINUOUS
10
2.2415666141732284
20
-1.3467120866141733
11
2.2431129133858265
21
-1.3564749999999999
0
LINE
8
BLACK
6
CONTINUOUS
10
2.2431129133858265
20
-1.3564749999999999
11
2.2431129133858265
21
-1.3663596456692912
0
LINE
8
BLACK
6
CONTINUOUS
10
2.2431129133858265
20
-1.3663596456692912
11
2.2415666141732284
21
-1.376122559055118
0
LINE
8
BLACK
6
CONTINUOUS
10
2.2415666141732284
20
-1.376122559055118
11
2.2385120866141732
21
-1.385523346456693
0
LINE
8
BLACK
6
CONTINUOUS
10
2.2385120866141732
20
-1.385523346456693
11
2.2340245669291336
21
-1.3943306299212599
0
LINE
8
BLACK
6
CONTINUOUS
10
2.2340245669291336
20
-1.3943306299212599
11
2.2282145669291338
21
-1.4023274409448818
0
LINE
8
BLACK
6
CONTINUOUS
10
2.2282145669291338
20
-1.4023274409448818
11
2.2212250787401575
21
-1.4093169291338583
0
LINE
8
BLACK
6
CONTINUOUS
10
2.2212250787401575
20
-1.4093169291338583
11
2.2132282677165356
21
-1.4151269291338582
0
LINE
8
BLACK
6
CONTINUOUS
10
2.2132282677165356
20
-1.4151269291338582
11
2.2044209842519686
21
-1.4196144488188975
0
LINE
8
BLACK
6
CONTINUOUS
10
2.2044209842519686
20
-1.4196144488188975
11
2.1950201968503937
21
-1.4226689763779528
0
LINE
8
BLACK
6
CONTINUOUS
10
2.1950201968503937
20
-1.4226689763779528
11
2.1852572834645669
21
-1.4242152755905511
0
LINE
8
BLACK
6
CONTINUOUS
10
2.1852572834645669
20
-1.4242152755905511
11
2.1753726377952756
21
-1.4242152755905511
0
LINE
8
BLACK
6
CONTINUOUS
10
2.1753726377952756
20
-1.4242152755905511
11
2.1656097244094488
21
-1.4226689763779528
0
LINE
8
BLACK
6
CONTINUOUS
10
2.1656097244094488
20
-1.4226689763779528
11
2.1562089370078739
21
-1.4196144488188975
0
LINE
8
BLACK
6
CONTINUOUS
10
2.1562089370078739
20
-1.4196144488188975
11
2.1474016535433069
21
-1.4151269291338582
0
LINE
8
BLACK
6
CONTINUOUS
10
2.1474016535433069
20
-1.4151269291338582
11
2.139404842519685
21
-1.4093169291338583
0
LINE
8
BLACK
6
CONTINUOUS
10
2.139404842519685
20
-1.4093169291338583
11
2.1324153543307087
21
-1.4023274409448818
0
LINE
8
BLACK
6
CONTINUOUS
10
2.1324153543307087
20
-1.4023274409448818
11
2.1266053543307084
21
-1.3943306299212599
0
LINE
8
BLACK
6
CONTINUOUS
10
2.1266053543307084
20
-1.3943306299212599
11
2.1221178346456693
21
-1.385523346456693
0
LINE
8
BLACK
6
CONTINUOUS
10
2.1221178346456693
20
-1.385523346456693
11
2.1190633070866141
21
-1.376122559055118
0
LINE
8
BLACK
6
CONTINUOUS
10
2.1190633070866141
20
-1.376122559055118
11
2.1175170078740155
21
-1.3663596456692912
0
LINE
8
BLACK
6
CONTINUOUS
10
2.1175170078740155
20
-1.3663596456692912
11
2.1175170078740155
21
-1.3564749999999999
0
LINE
8
BLACK
6
CONTINUOUS
10
2.1175170078740155
20
-1.3564749999999999
11
2.1190633070866141
21
-1.3467120866141733
0
LINE
8
BLACK
6
CONTINUOUS
10
2.1190633070866141
20
-1.3467120866141733
11
2.1221178346456693
21
-1.3373112992125984
0
LINE
8
BLACK
6
CONTINUOUS
10
2.1221178346456693
20
-1.3373112992125984
11
2.1266053543307084
21
-1.3285040157480315
0
LINE
8
BLACK
6
CONTINUOUS
10
2.1266053543307084
20
-1.3285040157480315
11
2.1324153543307087
21
-1.3205072047244095
0
LINE
8
BLACK
6
CONTINUOUS
10
2.1324153543307087
20
-1.3205072047244095
11
2.139404842519685
21
-1.313517716535433
0
LINE
8
BLACK
6
CONTINUOUS
10
2.139404842519685
20
-1.313517716535433
11
2.1474016535433069
21
-1.3077077165354329
0
LINE
8
BLACK
6
CONTINUOUS
10
2.1474016535433069
20
-1.3077077165354329
11
2.1562089370078739
21
-1.3032201968503936
0
LINE
8
BLACK
6
CONTINUOUS
10
2.1562089370078739
20
-1.3032201968503936
11
2.1656097244094488
21
-1.3001656692913386
0
LINE
8
BLACK
6
CONTINUOUS
10
2.1656097244094488
20
-1.3001656692913386
11
2.1753726377952756
21
-1.2986193700787401
0
LINE
8
BLACK
6
CONTINUOUS
10
2.1753726377952756
20
-1.2986193700787401
11
2.1852572834645669
21
-1.2986193700787401
0
LINE
8
BLACK
6
CONTINUOUS
10
2.1852572834645669
20
-1.2986193700787401
11
2.1950201968503937
21
-1.3001656692913386
0
LINE
8
BLACK
6
CONTINUOUS
10
2.3950201968503935
20
-1.3001656692913386
11
2.4044209842519684
21
-1.3032201968503936
0
LINE
8
BLACK
6
CONTINUOUS
10
2.4044209842519684
20
-1.3032201968503936
11
2.4132282677165353
21
-1.3077077165354329
0
LINE
8
BLACK
6
CONTINUOUS
10
2.4132282677165353
20
-1.3077077165354329
11
2.4212250787401572
21
-1.313517716535433
0
LINE
8
BLACK
6
CONTINUOUS
10
2.4212250787401572
20
-1.313517716535433
11
2.428214566929134
21
-1.3205072047244095
0
LINE
8
BLACK
6
CONTINUOUS
10
2.428214566929134
20
-1.3205072047244095
11
2.4340245669291338
21
-1.3285040157480315
0
LINE
8
BLACK
6
CONTINUOUS
10
2.4340245669291338
20
-1.3285040157480315
11
2.438512086614173
21
-1.3373112992125984
0
LINE
8
BLACK
6
CONTINUOUS
10
2.438512086614173
20
-1.3373112992125984
11
2.4415666141732282
21
-1.3467120866141733
0
LINE
8
BLACK
6
CONTINUOUS
10
2.4415666141732282
20
-1.3467120866141733
11
2.4431129133858267
21
-1.3564749999999999
0
LINE
8
BLACK
6
CONTINUOUS
10
2.4431129133858267
20
-1.3564749999999999
11
2.4431129133858267
21
-1.3663596456692912
0
LINE
8
BLACK
6
CONTINUOUS
10
2.4431129133858267
20
-1.3663596456692912
11
2.4415666141732282
21
-1.376122559055118
0
LINE
8
BLACK
6
CONTINUOUS
10
2.4415666141732282
20
-1.376122559055118
11
2.438512086614173
21
-1.385523346456693
0
LINE
8
BLACK
6
CONTINUOUS
10
2.438512086614173
20
-1.385523346456693
11
2.4340245669291338
21
-1.3943306299212599
0
LINE
8
BLACK
6
CONTINUOUS
10
2.4340245669291338
20
-1.3943306299212599
11
2.428214566929134
21
-1.4023274409448818
0
LINE
8
BLACK
6
CONTINUOUS
10
2.428214566929134
20
-1.4023274409448818
11
2.4212250787401572
21
-1.4093169291338583
0
LINE
8
BLACK
6
CONTINUOUS
10
2.4212250787401572
20
-1.4093169291338583
11
2.4132282677165353
21
-1.4151269291338582
0
LINE
8
BLACK
6
CONTINUOUS
10
2.4132282677165353
20
-1.4151269291338582
11
2.4044209842519684
21
-1.4196144488188975
0
LINE
8
BLACK
6
CONTINUOUS
10
2.4044209842519684
20
-1.4196144488188975
11
2.3950201968503935
21
-1.4226689763779528
0
LINE
8
BLACK
6
CONTINUOUS
10
2.3950201968503935
20
-1.4226689763779528
11
2.3852572834645667
21
-1.4242152755905511
0
LINE
8
BLACK
6
CONTINUOUS
10
2.3852572834645667
20
-1.4242152755905511
11
2.3753726377952757
21
-1.4242152755905511
0
LINE
8
BLACK
6
CONTINUOUS
10
2.3753726377952757
20
-1.4242152755905511
11
2.3656097244094489
21
-1.4226689763779528
0
LINE
8
BLACK
6
CONTINUOUS
10
2.3656097244094489
20
-1.4226689763779528
11
2.356208937007874
21
-1.4196144488188975
0
LINE
8
BLACK
6
CONTINUOUS
10
2.356208937007874
20
-1.4196144488188975
11
2.3474016535433071
21
-1.4151269291338582
0
LINE
8
BLACK
6
CONTINUOUS
10
2.3474016535433071
20
-1.4151269291338582
11
2.3394048425196852
21
-1.4093169291338583
0
LINE
8
BLACK
6
CONTINUOUS
10
2.3394048425196852
20
-1.4093169291338583
11
2.3324153543307085
21
-1.4023274409448818
0
LINE
8
BLACK
6
CONTINUOUS
10
2.3324153543307085
20
-1.4023274409448818
11
2.3266053543307086
21
-1.3943306299212599
0
LINE
8
BLACK
6
CONTINUOUS
10
2.3266053543307086
20
-1.3943306299212599
11
2.3221178346456695
21
-1.385523346456693
0
LINE
8
BLACK
6
CONTINUOUS
10
2.3221178346456695
20
-1.385523346456693
11
2.3190633070866142
21
-1.376122559055118
0
LINE
8
BLACK
6
CONTINUOUS
10
2.3190633070866142
20
-1.376122559055118
11
2.3175170078740157
21
-1.3663596456692912
0
LINE
8
BLACK
6
CONTINUOUS
10
2.3175170078740157
20
-1.3663596456692912
11
2.3175170078740157
21
-1.3564749999999999
0
LINE
8
BLACK
6
CONTINUOUS
10
2.3175170078740157
20
-1.3564749999999999
11
2.3190633070866142
21
-1.3467120866141733
0
LINE
8
BLACK
6
CONTINUOUS
10
2.3190633070866142
20
-1.3467120866141733
11
2.3221178346456695
21
-1.3373112992125984
0
LINE
8
BLACK
6
CONTINUOUS
10
2.3221178346456695
20
-1.3373112992125984
11
2.3266053543307086
21
-1.3285040157480315
0
LINE
8
BLACK
6
CONTINUOUS
10
2.3266053543307086
20
-1.3285040157480315
11
2.3324153543307085
21
-1.3205072047244095
0
LINE
8
BLACK
6
CONTINUOUS
10
2.3324153543307085
20
-1.3205072047244095
11
2.3394048425196852
21
-1.313517716535433
0
LINE
8
BLACK
6
CONTINUOUS
10
2.3394048425196852
20
-1.313517716535433
11
2.3474016535433071
21
-1.3077077165354329
0
LINE
8
BLACK
6
CONTINUOUS
10
2.3474016535433071
20
-1.3077077165354329
11
2.356208937007874
21
-1.3032201968503936
0
LINE
8
BLACK
6
CONTINUOUS
10
2.356208937007874
20
-1.3032201968503936
11
2.3656097244094489
21
-1.3001656692913386
0
LINE
8
BLACK
6
CONTINUOUS
10
2.3656097244094489
20
-1.3001656692913386
11
2.3753726377952757
21
-1.2986193700787401
0
LINE
8
BLACK
6
CONTINUOUS
10
2.3753726377952757
20
-1.2986193700787401
11
2.3852572834645667
21
-1.2986193700787401
0
LINE
8
BLACK
6
CONTINUOUS
10
2.3852572834645667
20
-1.2986193700787401
11
2.3950201968503935
21
-1.3001656692913386
0
LINE
8
BLACK
6
CONTINUOUS
10
1.614252559055118
20
-1.0279098425196851
11
1.624582874015748
21
-1.0302676377952755
0
LINE
8
BLACK
6
CONTINUOUS
10
1.624582874015748
20
-1.0302676377952755
11
1.6345842519685039
21
-1.0337672834645668
0
LINE
8
BLACK
6
CONTINUOUS
10
1.6345842519685039
20
-1.0337672834645668
11
1.644130905511811
21
-1.0383647244094487
0
LINE
8
BLACK
6
CONTINUOUS
10
1.644130905511811
20
-1.0383647244094487
11
1.6531027952755906
21
-1.044002125984252
0
LINE
8
BLACK
6
CONTINUOUS
10
1.6531027952755906
20
-1.044002125984252
11
1.6613870866141731
21
-1.0506086220472441
0
LINE
8
BLACK
6
CONTINUOUS
10
1.6613870866141731
20
-1.0506086220472441
11
1.6688795669291339
21
-1.0581011023622047
0
LINE
8
BLACK
6
CONTINUOUS
10
1.6688795669291339
20
-1.0581011023622047
11
1.675486062992126
21
-1.0663853937007874
0
LINE
8
BLACK
6
CONTINUOUS
10
1.675486062992126
20
-1.0663853937007874
11
1.6811234645669291
21
-1.0753572834645668
0
LINE
8
BLACK
6
CONTINUOUS
10
1.6811234645669291
20
-1.0753572834645668
11
1.685720905511811
21
-1.0849039370078739
0
LINE
8
BLACK
6
CONTINUOUS
10
1.685720905511811
20
-1.0849039370078739
11
1.6892205511811023
21
-1.0949053149606298
0
LINE
8
BLACK
6
CONTINUOUS
10
1.6892205511811023
20
-1.0949053149606298
11
1.6915783464566929
21
-1.1052356299212598
0
LINE
8
BLACK
6
CONTINUOUS
10
1.6915783464566929
20
-1.1052356299212598
11
1.6927647244094488
21
-1.1157649999999999
0
LINE
8
BLACK
6
CONTINUOUS
10
1.6927647244094488
20
-1.1157649999999999
11
1.6927647244094488
21
-1.1263609842519684
0
LINE
8
BLACK
6
CONTINUOUS
10
1.6927647244094488
20
-1.1263609842519684
11
1.6915783464566929
21
-1.1368903543307087
0
LINE
8
BLACK
6
CONTINUOUS
10
1.6915783464566929
20
-1.1368903543307087
11
1.6892205511811023
21
-1.1472206692913385
0
LINE
8
BLACK
6
CONTINUOUS
10
1.6892205511811023
20
-1.1472206692913385
11
1.685720905511811
21
-1.1572220472440944
0
LINE
8
BLACK
6
CONTINUOUS
10
1.685720905511811
20
-1.1572220472440944
11
1.6811234645669291
21
-1.1667687007874015
0
LINE
8
BLACK
6
CONTINUOUS
10
1.6811234645669291
20
-1.1667687007874015
11
1.675486062992126
21
-1.1757405905511811
0
LINE
8
BLACK
6
CONTINUOUS
10
1.675486062992126
20
-1.1757405905511811
11
1.6688795669291339
21
-1.1840248818897638
0
LINE
8
BLACK
6
CONTINUOUS
10
1.6688795669291339
20
-1.1840248818897638
11
1.6613870866141731
21
-1.1915173622047244
0
LINE
8
BLACK
6
CONTINUOUS
10
1.6613870866141731
20
-1.1915173622047244
11
1.6531027952755906
21
-1.1981238582677165
0
LINE
8
BLACK
6
CONTINUOUS
10
1.6531027952755906
20
-1.1981238582677165
11
1.644130905511811
21
-1.2037612598425196
0
LINE
8
BLACK
6
CONTINUOUS
10
1.644130905511811
20
-1.2037612598425196
11
1.6345842519685039
21
-1.2083587007874015
0
LINE
8
BLACK
6
CONTINUOUS
10
1.6345842519685039
20
-1.2083587007874015
11
1.624582874015748
21
-1.211858346456693
0
LINE
8
BLACK
6
CONTINUOUS
10
1.624582874015748
20
-1.211858346456693
11
1.614252559055118
21
-1.2142161417322834
0
LINE
8
BLACK
6
CONTINUOUS
10
1.614252559055118
20
-1.2142161417322834
11
1.6037231889763779
21
-1.2154025196850393
0
LINE
8
BLACK
6
CONTINUOUS
10
1.6037231889763779
20
-1.2154025196850393
11
1.5931272047244094
21
-1.2154025196850393
0
LINE
8
BLACK
6
CONTINUOUS
10
1.5931272047244094
20
-1.2154025196850393
11
1.5825978346456693
21
-1.2142161417322834
0
LINE
8
BLACK
6
CONTINUOUS
10
1.5825978346456693
20
-1.2142161417322834
11
1.5722675196850393
21
-1.211858346456693
0
LINE
8
BLACK
6
CONTINUOUS
10
1.5722675196850393
20
-1.211858346456693
11
1.5622661417322834
21
-1.2083587007874015
0
LINE
8
BLACK
6
CONTINUOUS
10
1.5622661417322834
20
-1.2083587007874015
11
1.5527194881889763
21
-1.2037612598425196
0
LINE
8
BLACK
6
CONTINUOUS
10
1.5527194881889763
20
-1.2037612598425196
11
1.5437475984251967
21
-1.1981238582677165
0
LINE
8
BLACK
6
CONTINUOUS
10
1.5437475984251967
20
-1.1981238582677165
11
1.5354633070866142
21
-1.1915173622047244
0
LINE
8
BLACK
6
CONTINUOUS
10
1.5354633070866142
20
-1.1915173622047244
11
1.5279708267716534
21
-1.1840248818897638
0
LINE
8
BLACK
6
CONTINUOUS
10
1.5279708267716534
20
-1.1840248818897638
11
1.5213643307086613
21
-1.1757405905511811
0
LINE
8
BLACK
6
CONTINUOUS
10
1.5213643307086613
20
-1.1757405905511811
11
1.5157269291338582
21
-1.1667687007874015
0
LINE
8
BLACK
6
CONTINUOUS
10
1.5157269291338582
20
-1.1667687007874015
11
1.5111294881889763
21
-1.1572220472440944
0
LINE
8
BLACK
6
CONTINUOUS
10
1.5111294881889763
20
-1.1572220472440944
11
1.507629842519685
21
-1.1472206692913385
0
LINE
8
BLACK
6
CONTINUOUS
10
1.507629842519685
20
-1.1472206692913385
11
1.5052720472440944
21
-1.1368903543307087
0
LINE
8
BLACK
6
CONTINUOUS
10
1.5052720472440944
20
-1.1368903543307087
11
1.5040856692913385
21
-1.1263609842519684
0
LINE
8
BLACK
6
CONTINUOUS
10
1.5040856692913385
20
-1.1263609842519684
11
1.5040856692913385
21
-1.1157649999999999
0
LINE
8
BLACK
6
CONTINUOUS
10
1.5040856692913385
20
-1.1157649999999999
11
1.5052720472440944
21
-1.1052356299212598
0
LINE
8
BLACK
6
CONTINUOUS
10
1.5052720472440944
20
-1.1052356299212598
11
1.507629842519685
21
-1.0949053149606298
0
LINE
8
BLACK
6
CONTINUOUS
10
1.507629842519685
20
-1.0949053149606298
11
1.5111294881889763
21
-1.0849039370078739
0
LINE
8
BLACK
6
CONTINUOUS
10
1.5111294881889763
20
-1.0849039370078739
11
1.5157269291338582
21
-1.0753572834645668
0
LINE
8
BLACK
6
CONTINUOUS
10
1.5157269291338582
20
-1.0753572834645668
11
1.5213643307086613
21
-1.0663853937007874
0
LINE
8
BLACK
6
CONTINUOUS
10
1.5213643307086613
20
-1.0663853937007874
11
1.5279708267716534
21
-1.0581011023622047
0
LINE
8
BLACK
6
CONTINUOUS
10
1.5279708267716534
20
-1.0581011023622047
11
1.5354633070866142
21
-1.0506086220472441
0
LINE
8
BLACK
6
CONTINUOUS
10
1.5354633070866142
20
-1.0506086220472441
11
1.5437475984251967
21
-1.044002125984252
0
LINE
8
BLACK
6
CONTINUOUS
10
1.5437475984251967
20
-1.044002125984252
11
1.5527194881889763
21
-1.0383647244094487
0
LINE
8
BLACK
6
CONTINUOUS
10
1.5527194881889763
20
-1.0383647244094487
11
1.5622661417322834
21
-1.0337672834645668
0
LINE
8
BLACK
6
CONTINUOUS
10
1.5622661417322834
20
-1.0337672834645668
11
1.5722675196850393
21
-1.0302676377952755
0
LINE
8
BLACK
6
CONTINUOUS
10
1.5722675196850393
20
-1.0302676377952755
11
1.5825978346456693
21
-1.0279098425196851
0
LINE
8
BLACK
6
CONTINUOUS
10
1.5825978346456693
20
-1.0279098425196851
11
1.5931272047244094
21
-1.0267234645669292
0
LINE
8
BLACK
6
CONTINUOUS
10
1.5931272047244094
20
-1.0267234645669292
11
1.6037231889763779
21
-1.0267234645669292
0
LINE
8
BLACK
6
CONTINUOUS
10
1.6037231889763779
20
-1.0267234645669292
11
1.614252559055118
21
-1.0279098425196851
0
LINE
8
BLACK
6
CONTINUOUS
10
1.9961423228346455
20
-1.0279098425196851
11
2.0064726377952757
21
-1.0302676377952755
0
LINE
8
BLACK
6
CONTINUOUS
10
2.0064726377952757
20
-1.0302676377952755
11
2.0164740157480314
21
-1.0337672834645668
0
LINE
8
BLACK
6
CONTINUOUS
10
2.0164740157480314
20
-1.0337672834645668
11
2.0260206692913387
21
-1.0383647244094487
0
LINE
8
BLACK
6
CONTINUOUS
10
2.0260206692913387
20
-1.0383647244094487
11
2.0349925590551181
21
-1.044002125984252
0
LINE
8
BLACK
6
CONTINUOUS
10
2.0349925590551181
20
-1.044002125984252
11
2.0432768503937009
21
-1.0506086220472441
0
LINE
8
BLACK
6
CONTINUOUS
10
2.0432768503937009
20
-1.0506086220472441
11
2.0507693307086612
21
-1.0581011023622047
0
LINE
8
BLACK
6
CONTINUOUS
10
2.0507693307086612
20
-1.0581011023622047
11
2.0573758267716533
21
-1.0663853937007874
0
LINE
8
BLACK
6
CONTINUOUS
10
2.0573758267716533
20
-1.0663853937007874
11
2.0630132283464566
21
-1.0753572834645668
0
LINE
8
BLACK
6
CONTINUOUS
10
2.0630132283464566
20
-1.0753572834645668
11
2.0676106692913385
21
-1.0849039370078739
0
LINE
8
BLACK
6
CONTINUOUS
10
2.0676106692913385
20
-1.0849039370078739
11
2.07111031496063
21
-1.0949053149606298
0
LINE
8
BLACK
6
CONTINUOUS
10
2.07111031496063
20
-1.0949053149606298
11
2.0734681102362202
21
-1.1052356299212598
0
LINE
8
BLACK
6
CONTINUOUS
10
2.0734681102362202
20
-1.1052356299212598
11
2.0746544881889761
21
-1.1157649999999999
0
LINE
8
BLACK
6
CONTINUOUS
10
2.0746544881889761
20
-1.1157649999999999
11
2.0746544881889761
21
-1.1263609842519684
0
LINE
8
BLACK
6
CONTINUOUS
10
2.0746544881889761
20
-1.1263609842519684
11
2.0734681102362202
21
-1.1368903543307087
0
LINE
8
BLACK
6
CONTINUOUS
10
2.0734681102362202
20
-1.1368903543307087
11
2.07111031496063
21
-1.1472206692913385
0
LINE
8
BLACK
6
CONTINUOUS
10
2.07111031496063
20
-1.1472206692913385
11
2.0676106692913385
21
-1.1572220472440944
0
LINE
8
BLACK
6
CONTINUOUS
10
2.0676106692913385
20
-1.1572220472440944
11
2.0630132283464566
21
-1.1667687007874015
0
LINE
8
BLACK
6
CONTINUOUS
10
2.0630132283464566
20
-1.1667687007874015
11
2.0573758267716533
21
-1.1757405905511811
0
LINE
8
BLACK
6
CONTINUOUS
10
2.0573758267716533
20
-1.1757405905511811
11
2.0507693307086612
21
-1.1840248818897638
0
LINE
8
BLACK
6
CONTINUOUS
10
2.0507693307086612
20
-1.1840248818897638
11
2.0432768503937009
21
-1.1915173622047244
0
LINE
8
BLACK
6
CONTINUOUS
10
2.0432768503937009
20
-1.1915173622047244
11
2.0349925590551181
21
-1.1981238582677165
0
LINE
8
BLACK
6
CONTINUOUS
10
2.0349925590551181
20
-1.1981238582677165
11
2.0260206692913387
21
-1.2037612598425196
0
LINE
8
BLACK
6
CONTINUOUS
10
2.0260206692913387
20
-1.2037612598425196
11
2.0164740157480314
21
-1.2083587007874015
0
LINE
8
BLACK
6
CONTINUOUS
10
2.0164740157480314
20
-1.2083587007874015
11
2.0064726377952757
21
-1.211858346456693
0
LINE
8
BLACK
6
CONTINUOUS
10
2.0064726377952757
20
-1.211858346456693
11
1.9961423228346455
21
-1.2142161417322834
0
LINE
8
BLACK
6
CONTINUOUS
10
1.9961423228346455
20
-1.2142161417322834
11
1.9856129527559054
21
-1.2154025196850393
0
LINE
8
BLACK
6
CONTINUOUS
10
1.9856129527559054
20
-1.2154025196850393
11
1.9750169685039369
21
-1.2154025196850393
0
LINE
8
BLACK
6
CONTINUOUS
10
1.9750169685039369
20
-1.2154025196850393
11
1.9644875984251968
21
-1.2142161417322834
0
LINE
8
BLACK
6
CONTINUOUS
10
1.9644875984251968
20
-1.2142161417322834
11
1.9541572834645669
21
-1.211858346456693
0
LINE
8
BLACK
6
CONTINUOUS
10
1.9541572834645669
20
-1.211858346456693
11
1.9441559055118109
21
-1.2083587007874015
0
LINE
8
BLACK
6
CONTINUOUS
10
1.9441559055118109
20
-1.2083587007874015
11
1.9346092519685039
21
-1.2037612598425196
0
LINE
8
BLACK
6
CONTINUOUS
10
1.9346092519685039
20
-1.2037612598425196
11
1.9256373622047243
21
-1.1981238582677165
0
LINE
8
BLACK
6
CONTINUOUS
10
1.9256373622047243
20
-1.1981238582677165
11
1.9173530708661417
21
-1.1915173622047244
0
LINE
8
BLACK
6
CONTINUOUS
10
1.9173530708661417
20
-1.1915173622047244
11
1.909860590551181
21
-1.1840248818897638
0
LINE
8
BLACK
6
CONTINUOUS
10
1.909860590551181
20
-1.1840248818897638
11
1.9032540944881888
21
-1.1757405905511811
0
LINE
8
BLACK
6
CONTINUOUS
10
1.9032540944881888
20
-1.1757405905511811
11
1.8976166929133857
21
-1.1667687007874015
0
LINE
8
BLACK
6
CONTINUOUS
10
1.8976166929133857
20
-1.1667687007874015
11
1.8930192519685038
21
-1.1572220472440944
0
LINE
8
BLACK
6
CONTINUOUS
10
1.8930192519685038
20
-1.1572220472440944
11
1.8895196062992126
21
-1.1472206692913385
0
LINE
8
BLACK
6
CONTINUOUS
10
1.8895196062992126
20
-1.1472206692913385
11
1.8871618110236219
21
-1.1368903543307087
0
LINE
8
BLACK
6
CONTINUOUS
10
1.8871618110236219
20
-1.1368903543307087
11
1.885975433070866
21
-1.1263609842519684
0
LINE
8
BLACK
6
CONTINUOUS
10
1.885975433070866
20
-1.1263609842519684
11
1.885975433070866
21
-1.1157649999999999
0
LINE
8
BLACK
6
CONTINUOUS
10
1.885975433070866
20
-1.1157649999999999
11
1.8871618110236219
21
-1.1052356299212598
0
LINE
8
BLACK
6
CONTINUOUS
10
1.8871618110236219
20
-1.1052356299212598
11
1.8895196062992126
21
-1.0949053149606298
0
LINE
8
BLACK
6
CONTINUOUS
10
1.8895196062992126
20
-1.0949053149606298
11
1.8930192519685038
21
-1.0849039370078739
0
LINE
8
BLACK
6
CONTINUOUS
10
1.8930192519685038
20
-1.0849039370078739
11
1.8976166929133857
21
-1.0753572834645668
0
LINE
8
BLACK
6
CONTINUOUS
10
1.8976166929133857
20
-1.0753572834645668
11
1.9032540944881888
21
-1.0663853937007874
0
LINE
8
BLACK
6
CONTINUOUS
10
1.9032540944881888
20
-1.0663853937007874
11
1.909860590551181
21
-1.0581011023622047
0
LINE
8
BLACK
6
CONTINUOUS
10
1.909860590551181
20
-1.0581011023622047
11
1.9173530708661417
21
-1.0506086220472441
0
LINE
8
BLACK
6
CONTINUOUS
10
1.9173530708661417
20
-1.0506086220472441
11
1.9256373622047243
21
-1.044002125984252
0
LINE
8
BLACK
6
CONTINUOUS
10
1.9256373622047243
20
-1.044002125984252
11
1.9346092519685039
21
-1.0383647244094487
0
LINE
8
BLACK
6
CONTINUOUS
10
1.9346092519685039
20
-1.0383647244094487
11
1.9441559055118109
21
-1.0337672834645668
0
LINE
8
BLACK
6
CONTINUOUS
10
1.9441559055118109
20
-1.0337672834645668
11
1.9541572834645669
21
-1.0302676377952755
0
LINE
8
BLACK
6
CONTINUOUS
10
1.9541572834645669
20
-1.0302676377952755
11
1.9644875984251968
21
-1.0279098425196851
0
LINE
8
BLACK
6
CONTINUOUS
10
1.9644875984251968
20
-1.0279098425196851
11
1.9750169685039369
21
-1.0267234645669292
0
LINE
8
BLACK
6
CONTINUOUS
10
1.9750169685039369
20
-1.0267234645669292
11
1.9856129527559054
21
-1.0267234645669292
0
LINE
8
BLACK
6
CONTINUOUS
10
1.9856129527559054
20
-1.0267234645669292
11
1.9961423228346455
21
-1.0279098425196851
0
LINE
8
BLACK
6
CONTINUOUS
10
2.3961423228346455
20
-1.0279098425196851
11
2.4064726377952756
21
-1.0302676377952755
0
LINE
8
BLACK
6
CONTINUOUS
10
2.4064726377952756
20
-1.0302676377952755
11
2.4164740157480313
21
-1.0337672834645668
0
LINE
8
BLACK
6
CONTINUOUS
10
2.4164740157480313
20
-1.0337672834645668
11
2.4260206692913386
21
-1.0383647244094487
0
LINE
8
BLACK
6
CONTINUOUS
10
2.4260206692913386
20
-1.0383647244094487
11
2.434992559055118
21
-1.044002125984252
0
LINE
8
BLACK
6
CONTINUOUS
10
2.434992559055118
20
-1.044002125984252
11
2.4432768503937008
21
-1.0506086220472441
0
LINE
8
BLACK
6
CONTINUOUS
10
2.4432768503937008
20
-1.0506086220472441
11
2.4507693307086615
21
-1.0581011023622047
0
LINE
8
BLACK
6
CONTINUOUS
10
2.4507693307086615
20
-1.0581011023622047
11
2.4573758267716537
21
-1.0663853937007874
0
LINE
8
BLACK
6
CONTINUOUS
10
2.4573758267716537
20
-1.0663853937007874
11
2.4630132283464565
21
-1.0753572834645668
0
LINE
8
BLACK
6
CONTINUOUS
10
2.4630132283464565
20
-1.0753572834645668
11
2.4676106692913384
21
-1.0849039370078739
0
LINE
8
BLACK
6
CONTINUOUS
10
2.4676106692913384
20
-1.0849039370078739
11
2.4711103149606299
21
-1.0949053149606298
0
LINE
8
BLACK
6
CONTINUOUS
10
2.4711103149606299
20
-1.0949053149606298
11
2.4734681102362206
21
-1.1052356299212598
0
LINE
8
BLACK
6
CONTINUOUS
10
2.4734681102362206
20
-1.1052356299212598
11
2.4746544881889765
21
-1.1157649999999999
0
LINE
8
BLACK
6
CONTINUOUS
10
2.4746544881889765
20
-1.1157649999999999
11
2.4746544881889765
21
-1.1263609842519684
0
LINE
8
BLACK
6
CONTINUOUS
10
2.4746544881889765
20
-1.1263609842519684
11
2.4734681102362206
21
-1.1368903543307087
0
LINE
8
BLACK
6
CONTINUOUS
10
2.4734681102362206
20
-1.1368903543307087
11
2.4711103149606299
21
-1.1472206692913385
0
LINE
8
BLACK
6
CONTINUOUS
10
2.4711103149606299
20
-1.1472206692913385
11
2.4676106692913384
21
-1.1572220472440944
0
LINE
8
BLACK
6
CONTINUOUS
10
2.4676106692913384
20
-1.1572220472440944
11
2.4630132283464565
21
-1.1667687007874015
0
LINE
8
BLACK
6
CONTINUOUS
10
2.4630132283464565
20
-1.1667687007874015
11
2.4573758267716537
21
-1.1757405905511811
0
LINE
8
BLACK
6
CONTINUOUS
10
2.4573758267716537
20
-1.1757405905511811
11
2.4507693307086615
21
-1.1840248818897638
0
LINE
8
BLACK
6
CONTINUOUS
10
2.4507693307086615
20
-1.1840248818897638
11
2.4432768503937008
21
-1.1915173622047244
0
LINE
8
BLACK
6
CONTINUOUS
10
2.4432768503937008
20
-1.1915173622047244
11
2.434992559055118
21
-1.1981238582677165
0
LINE
8
BLACK
6
CONTINUOUS
10
2.434992559055118
20
-1.1981238582677165
11
2.4260206692913386
21
-1.2037612598425196
0
LINE
8
BLACK
6
CONTINUOUS
10
2.4260206692913386
20
-1.2037612598425196
11
2.4164740157480313
21
-1.2083587007874015
0
LINE
8
BLACK
6
CONTINUOUS
10
2.4164740157480313
20
-1.2083587007874015
11
2.4064726377952756
21
-1.211858346456693
0
LINE
8
BLACK
6
CONTINUOUS
10
2.4064726377952756
20
-1.211858346456693
11
2.3961423228346455
21
-1.2142161417322834
0
LINE
8
BLACK
6
CONTINUOUS
10
2.3961423228346455
20
-1.2142161417322834
11
2.3856129527559053
21
-1.2154025196850393
0
LINE
8
BLACK
6
CONTINUOUS
10
2.3856129527559053
20
-1.2154025196850393
11
2.3750169685039371
21
-1.2154025196850393
0
LINE
8
BLACK
6
CONTINUOUS
10
2.3750169685039371
20
-1.2154025196850393
11
2.364487598425197
21
-1.2142161417322834
0
LINE
8
BLACK
6
CONTINUOUS
10
2.364487598425197
20
-1.2142161417322834
11
2.3541572834645668
21
-1.211858346456693
0
LINE
8
BLACK
6
CONTINUOUS
10
2.3541572834645668
20
-1.211858346456693
11
2.3441559055118111
21
-1.2083587007874015
0
LINE
8
BLACK
6
CONTINUOUS
10
2.3441559055118111
20
-1.2083587007874015
11
2.3346092519685038
21
-1.2037612598425196
0
LINE
8
BLACK
6
CONTINUOUS
10
2.3346092519685038
20
-1.2037612598425196
11
2.3256373622047244
21
-1.1981238582677165
0
LINE
8
BLACK
6
CONTINUOUS
10
2.3256373622047244
20
-1.1981238582677165
11
2.3173530708661416
21
-1.1915173622047244
0
LINE
8
BLACK
6
CONTINUOUS
10
2.3173530708661416
20
-1.1915173622047244
11
2.3098605905511809
21
-1.1840248818897638
0
LINE
8
BLACK
6
CONTINUOUS
10
2.3098605905511809
20
-1.1840248818897638
11
2.3032540944881887
21
-1.1757405905511811
0
LINE
8
BLACK
6
CONTINUOUS
10
2.3032540944881887
20
-1.1757405905511811
11
2.2976166929133859
21
-1.1667687007874015
0
LINE
8
BLACK
6
CONTINUOUS
10
2.2976166929133859
20
-1.1667687007874015
11
2.293019251968504
21
-1.1572220472440944
0
LINE
8
BLACK
6
CONTINUOUS
10
2.293019251968504
20
-1.1572220472440944
11
2.2895196062992125
21
-1.1472206692913385
0
LINE
8
BLACK
6
CONTINUOUS
10
2.2895196062992125
20
-1.1472206692913385
11
2.2871618110236218
21
-1.1368903543307087
0
LINE
8
BLACK
6
CONTINUOUS
10
2.2871618110236218
20
-1.1368903543307087
11
2.2859754330708659
21
-1.1263609842519684
0
LINE
8
BLACK
6
CONTINUOUS
10
2.2859754330708659
20
-1.1263609842519684
11
2.2859754330708659
21
-1.1157649999999999
0
LINE
8
BLACK
6
CONTINUOUS
10
2.2859754330708659
20
-1.1157649999999999
11
2.2871618110236218
21
-1.1052356299212598
0
LINE
8
BLACK
6
CONTINUOUS
10
2.2871618110236218
20
-1.1052356299212598
11
2.2895196062992125
21
-1.0949053149606298
0
LINE
8
BLACK
6
CONTINUOUS
10
2.2895196062992125
20
-1.0949053149606298
11
2.293019251968504
21
-1.0849039370078739
0
LINE
8
BLACK
6
CONTINUOUS
10
2.293019251968504
20
-1.0849039370078739
11
2.2976166929133859
21
-1.0753572834645668
0
LINE
8
BLACK
6
CONTINUOUS
10
2.2976166929133859
20
-1.0753572834645668
11
2.3032540944881887
21
-1.0663853937007874
0
LINE
8
BLACK
6
CONTINUOUS
10
2.3032540944881887
20
-1.0663853937007874
11
2.3098605905511809
21
-1.0581011023622047
0
LINE
8
BLACK
6
CONTINUOUS
10
2.3098605905511809
20
-1.0581011023622047
11
2.3173530708661416
21
-1.0506086220472441
0
LINE
8
BLACK
6
CONTINUOUS
10
2.3173530708661416
20
-1.0506086220472441
11
2.3256373622047244
21
-1.044002125984252
0
LINE
8
BLACK
6
CONTINUOUS
10
2.3256373622047244
20
-1.044002125984252
11
2.3346092519685038
21
-1.0383647244094487
0
LINE
8
BLACK
6
CONTINUOUS
10
2.3346092519685038
20
-1.0383647244094487
11
2.3441559055118111
21
-1.0337672834645668
0
LINE
8
BLACK
6
CONTINUOUS
10
2.3441559055118111
20
-1.0337672834645668
11
2.3541572834645668
21
-1.0302676377952755
0
LINE
8
BLACK
6
CONTINUOUS
10
2.3541572834645668
20
-1.0302676377952755
11
2.364487598425197
21
-1.0279098425196851
0
LINE
8
BLACK
6
CONTINUOUS
10
2.364487598425197
20
-1.0279098425196851
11
2.3750169685039371
21
-1.0267234645669292
0
LINE
8
BLACK
6
CONTINUOUS
10
2.3750169685039371
20
-1.0267234645669292
11
2.3856129527559053
21
-1.0267234645669292
0
LINE
8
BLACK
6
CONTINUOUS
10
2.3856129527559053
20
-1.0267234645669292
11
2.3961423228346455
21
-1.0279098425196851
0
LINE
8
BLACK
6
CONTINUOUS
10
1.7637794881889763
20
-2.9311023622047245
11
1.6968503543307085
21
-2.9311023622047245
0
LINE
8
BLACK
6
CONTINUOUS
10
1.6968503543307085
20
-2.9311023622047245
11
1.6968503543307085
21
-2.8641732283464565
0
LINE
8
BLACK
6
CONTINUOUS
10
1.6968503543307085
20
-2.8641732283464565
11
1.7637794881889763
21
-2.8641732283464565
0
LINE
8
BLACK
6
CONTINUOUS
10
1.7637794881889763
20
-2.8641732283464565
11
1.7637794881889763
21
-2.9311023622047245
0
LINE
8
BLACK
6
CONTINUOUS
10
1.8400291732283465
20
-2.865614212598425
11
1.84609
21
-2.86812468503937
0
LINE
8
BLACK
6
CONTINUOUS
10
1.84609
20
-2.86812468503937
11
1.8515446062992125
21
-2.8717693307086614
0
LINE
8
BLACK
6
CONTINUOUS
10
1.8515446062992125
20
-2.8717693307086614
11
1.8561833858267716
21
-2.8764081102362202
0
LINE
8
BLACK
6
CONTINUOUS
10
1.8561833858267716
20
-2.8764081102362202
11
1.8598280314960629
21
-2.8818627165354331
0
LINE
8
BLACK
6
CONTINUOUS
10
1.8598280314960629
20
-2.8818627165354331
11
1.8623385039370077
21
-2.8879235433070867
0
LINE
8
BLACK
6
CONTINUOUS
10
1.8623385039370077
20
-2.8879235433070867
11
1.8636183464566929
21
-2.8943576771653543
0
LINE
8
BLACK
6
CONTINUOUS
10
1.8636183464566929
20
-2.8943576771653543
11
1.8636183464566929
21
-2.9009179133858267
0
LINE
8
BLACK
6
CONTINUOUS
10
1.8636183464566929
20
-2.9009179133858267
11
1.8623385039370077
21
-2.9073520472440944
0
LINE
8
BLACK
6
CONTINUOUS
10
1.8623385039370077
20
-2.9073520472440944
11
1.8598280314960629
21
-2.9134128740157479
0
LINE
8
BLACK
6
CONTINUOUS
10
1.8598280314960629
20
-2.9134128740157479
11
1.8561833858267716
21
-2.9188674803149603
0
LINE
8
BLACK
6
CONTINUOUS
10
1.8561833858267716
20
-2.9188674803149603
11
1.8515446062992125
21
-2.9235062598425197
0
LINE
8
BLACK
6
CONTINUOUS
10
1.8515446062992125
20
-2.9235062598425197
11
1.84609
21
-2.927150905511811
0
LINE
8
BLACK
6
CONTINUOUS
10
1.84609
20
-2.927150905511811
11
1.8400291732283465
21
-2.9296613779527561
0
LINE
8
BLACK
6
CONTINUOUS
10
1.8400291732283465
20
-2.9296613779527561
11
1.8335950393700786
21
-2.930941220472441
0
LINE
8
BLACK
6
CONTINUOUS
10
1.8335950393700786
20
-2.930941220472441
11
1.8270348031496062
21
-2.930941220472441
0
LINE
8
BLACK
6
CONTINUOUS
10
1.8270348031496062
20
-2.930941220472441
11
1.8206006692913386
21
-2.9296613779527561
0
LINE
8
BLACK
6
CONTINUOUS
10
1.8206006692913386
20
-2.9296613779527561
11
1.814539842519685
21
-2.927150905511811
0
LINE
8
BLACK
6
CONTINUOUS
10
1.814539842519685
20
-2.927150905511811
11
1.8090852362204723
21
-2.9235062598425197
0
LINE
8
BLACK
6
CONTINUOUS
10
1.8090852362204723
20
-2.9235062598425197
11
1.8044464566929133
21
-2.9188674803149603
0
LINE
8
BLACK
6
CONTINUOUS
10
1.8044464566929133
20
-2.9188674803149603
11
1.8008018110236219
21
-2.9134128740157479
0
LINE
8
BLACK
6
CONTINUOUS
10
1.8008018110236219
20
-2.9134128740157479
11
1.7982913385826771
21
-2.9073520472440944
0
LINE
8
BLACK
6
CONTINUOUS
10
1.7982913385826771
20
-2.9073520472440944
11
1.7970114960629922
21
-2.9009179133858267
0
LINE
8
BLACK
6
CONTINUOUS
10
1.7970114960629922
20
-2.9009179133858267
11
1.7970114960629922
21
-2.8943576771653543
0
LINE
8
BLACK
6
CONTINUOUS
10
1.7970114960629922
20
-2.8943576771653543
11
1.7982913385826771
21
-2.8879235433070867
0
LINE
8
BLACK
6
CONTINUOUS
10
1.7982913385826771
20
-2.8879235433070867
11
1.8008018110236219
21
-2.8818627165354331
0
LINE
8
BLACK
6
CONTINUOUS
10
1.8008018110236219
20
-2.8818627165354331
11
1.8044464566929133
21
-2.8764081102362202
0
LINE
8
BLACK
6
CONTINUOUS
10
1.8044464566929133
20
-2.8764081102362202
11
1.8090852362204723
21
-2.8717693307086614
0
LINE
8
BLACK
6
CONTINUOUS
10
1.8090852362204723
20
-2.8717693307086614
11
1.814539842519685
21
-2.86812468503937
0
LINE
8
BLACK
6
CONTINUOUS
10
1.814539842519685
20
-2.86812468503937
11
1.8206006692913386
21
-2.865614212598425
0
LINE
8
BLACK
6
CONTINUOUS
10
1.8206006692913386
20
-2.865614212598425
11
1.8270348031496062
21
-2.86433437007874
0
LINE
8
BLACK
6
CONTINUOUS
10
1.8270348031496062
20
-2.86433437007874
11
1.8335950393700786
21
-2.86433437007874
0
LINE
8
BLACK
6
CONTINUOUS
10
1.8335950393700786
20
-2.86433437007874
11
1.8400291732283465
21
-2.865614212598425
0
LINE
8
BLACK
6
CONTINUOUS
10
1.9400291732283463
20
-2.865614212598425
11
1.9460899999999999
21
-2.86812468503937
0
LINE
8
BLACK
6
CONTINUOUS
10
1.9460899999999999
20
-2.86812468503937
11
1.9515446062992126
21
-2.8717693307086614
0
LINE
8
BLACK
6
CONTINUOUS
10
1.9515446062992126
20
-2.8717693307086614
11
1.9561833858267716
21
-2.8764081102362202
0
LINE
8
BLACK
6
CONTINUOUS
10
1.9561833858267716
20
-2.8764081102362202
11
1.959828031496063
21
-2.8818627165354331
0
LINE
8
BLACK
6
CONTINUOUS
10
1.959828031496063
20
-2.8818627165354331
11
1.9623385039370078
21
-2.8879235433070867
0
LINE
8
BLACK
6
CONTINUOUS
10
1.9623385039370078
20
-2.8879235433070867
11
1.963618346456693
21
-2.8943576771653543
0
LINE
8
BLACK
6
CONTINUOUS
10
1.963618346456693
20
-2.8943576771653543
11
1.963618346456693
21
-2.9009179133858267
0
LINE
8
BLACK
6
CONTINUOUS
10
1.963618346456693
20
-2.9009179133858267
11
1.9623385039370078
21
-2.9073520472440944
0
LINE
8
BLACK
6
CONTINUOUS
10
1.9623385039370078
20
-2.9073520472440944
11
1.959828031496063
21
-2.9134128740157479
0
LINE
8
BLACK
6
CONTINUOUS
10
1.959828031496063
20
-2.9134128740157479
11
1.9561833858267716
21
-2.9188674803149603
0
LINE
8
BLACK
6
CONTINUOUS
10
1.9561833858267716
20
-2.9188674803149603
11
1.9515446062992126
21
-2.9235062598425197
0
LINE
8
BLACK
6
CONTINUOUS
10
1.9515446062992126
20
-2.9235062598425197
11
1.9460899999999999
21
-2.927150905511811
0
LINE
8
BLACK
6
CONTINUOUS
10
1.9460899999999999
20
-2.927150905511811
11
1.9400291732283463
21
-2.9296613779527561
0
LINE
8
BLACK
6
CONTINUOUS
10
1.9400291732283463
20
-2.9296613779527561
11
1.9335950393700787
21
-2.930941220472441
0
LINE
8
BLACK
6
CONTINUOUS
10
1.9335950393700787
20
-2.930941220472441
11
1.9270348031496063
21
-2.930941220472441
0
LINE
8
BLACK
6
CONTINUOUS
10
1.9270348031496063
20
-2.930941220472441
11
1.9206006692913384
21
-2.9296613779527561
0
LINE
8
BLACK
6
CONTINUOUS
10
1.9206006692913384
20
-2.9296613779527561
11
1.9145398425196849
21
-2.927150905511811
0
LINE
8
BLACK
6
CONTINUOUS
10
1.9145398425196849
20
-2.927150905511811
11
1.9090852362204724
21
-2.9235062598425197
0
LINE
8
BLACK
6
CONTINUOUS
10
1.9090852362204724
20
-2.9235062598425197
11
1.9044464566929133
21
-2.9188674803149603
0
LINE
8
BLACK
6
CONTINUOUS
10
1.9044464566929133
20
-2.9188674803149603
11
1.900801811023622
21
-2.9134128740157479
0
LINE
8
BLACK
6
CONTINUOUS
10
1.900801811023622
20
-2.9134128740157479
11
1.8982913385826772
21
-2.9073520472440944
0
LINE
8
BLACK
6
CONTINUOUS
10
1.8982913385826772
20
-2.9073520472440944
11
1.897011496062992
21
-2.9009179133858267
0
LINE
8
BLACK
6
CONTINUOUS
10
1.897011496062992
20
-2.9009179133858267
11
1.897011496062992
21
-2.8943576771653543
0
LINE
8
BLACK
6
CONTINUOUS
10
1.897011496062992
20
-2.8943576771653543
11
1.8982913385826772
21
-2.8879235433070867
0
LINE
8
BLACK
6
CONTINUOUS
10
1.8982913385826772
20
-2.8879235433070867
11
1.900801811023622
21
-2.8818627165354331
0
LINE
8
BLACK
6
CONTINUOUS
10
1.900801811023622
20
-2.8818627165354331
11
1.9044464566929133
21
-2.8764081102362202
0
LINE
8
BLACK
6
CONTINUOUS
10
1.9044464566929133
20
-2.8764081102362202
11
1.9090852362204724
21
-2.8717693307086614
0
LINE
8
BLACK
6
CONTINUOUS
10
1.9090852362204724
20
-2.8717693307086614
11
1.9145398425196849
21
-2.86812468503937
0
LINE
8
BLACK
6
CONTINUOUS
10
1.9145398425196849
20
-2.86812468503937
11
1.9206006692913384
21
-2.865614212598425
0
LINE
8
BLACK
6
CONTINUOUS
10
1.9206006692913384
20
-2.865614212598425
11
1.9270348031496063
21
-2.86433437007874
0
LINE
8
BLACK
6
CONTINUOUS
10
1.9270348031496063
20
-2.86433437007874
11
1.9335950393700787
21
-2.86433437007874
0
LINE
8
BLACK
6
CONTINUOUS
10
1.9335950393700787
20
-2.86433437007874
11
1.9400291732283463
21
-2.865614212598425
0
LINE
8
BLACK
6
CONTINUOUS
10
2.0400291732283464
20
-2.865614212598425
11
2.04609
21
-2.86812468503937
0
LINE
8
BLACK
6
CONTINUOUS
10
2.04609
20
-2.86812468503937
11
2.0515446062992124
21
-2.8717693307086614
0
LINE
8
BLACK
6
CONTINUOUS
10
2.0515446062992124
20
-2.8717693307086614
11
2.0561833858267717
21
-2.8764081102362202
0
LINE
8
BLACK
6
CONTINUOUS
10
2.0561833858267717
20
-2.8764081102362202
11
2.0598280314960631
21
-2.8818627165354331
0
LINE
8
BLACK
6
CONTINUOUS
10
2.0598280314960631
20
-2.8818627165354331
11
2.0623385039370077
21
-2.8879235433070867
0
LINE
8
BLACK
6
CONTINUOUS
10
2.0623385039370077
20
-2.8879235433070867
11
2.0636183464566931
21
-2.8943576771653543
0
LINE
8
BLACK
6
CONTINUOUS
10
2.0636183464566931
20
-2.8943576771653543
11
2.0636183464566931
21
-2.9009179133858267
0
LINE
8
BLACK
6
CONTINUOUS
10
2.0636183464566931
20
-2.9009179133858267
11
2.0623385039370077
21
-2.9073520472440944
0
LINE
8
BLACK
6
CONTINUOUS
10
2.0623385039370077
20
-2.9073520472440944
11
2.0598280314960631
21
-2.9134128740157479
0
LINE
8
BLACK
6
CONTINUOUS
10
2.0598280314960631
20
-2.9134128740157479
11
2.0561833858267717
21
-2.9188674803149603
0
LINE
8
BLACK
6
CONTINUOUS
10
2.0561833858267717
20
-2.9188674803149603
11
2.0515446062992124
21
-2.9235062598425197
0
LINE
8
BLACK
6
CONTINUOUS
10
2.0515446062992124
20
-2.9235062598425197
11
2.04609
21
-2.927150905511811
0
LINE
8
BLACK
6
CONTINUOUS
10
2.04609
20
-2.927150905511811
11
2.0400291732283464
21
-2.9296613779527561
0
LINE
8
BLACK
6
CONTINUOUS
10
2.0400291732283464
20
-2.9296613779527561
11
2.0335950393700788
21
-2.930941220472441
0
LINE
8
BLACK
6
CONTINUOUS
10
2.0335950393700788
20
-2.930941220472441
11
2.0270348031496064
21
-2.930941220472441
0
LINE
8
BLACK
6
CONTINUOUS
10
2.0270348031496064
20
-2.930941220472441
11
2.0206006692913387
21
-2.9296613779527561
0
LINE
8
BLACK
6
CONTINUOUS
10
2.0206006692913387
20
-2.9296613779527561
11
2.0145398425196852
21
-2.927150905511811
0
LINE
8
BLACK
6
CONTINUOUS
10
2.0145398425196852
20
-2.927150905511811
11
2.0090852362204723
21
-2.9235062598425197
0
LINE
8
BLACK
6
CONTINUOUS
10
2.0090852362204723
20
-2.9235062598425197
11
2.0044464566929134
21
-2.9188674803149603
0
LINE
8
BLACK
6
CONTINUOUS
10
2.0044464566929134
20
-2.9188674803149603
11
2.0008018110236221
21
-2.9134128740157479
0
LINE
8
BLACK
6
CONTINUOUS
10
2.0008018110236221
20
-2.9134128740157479
11
1.998291338582677
21
-2.9073520472440944
0
LINE
8
BLACK
6
CONTINUOUS
10
1.998291338582677
20
-2.9073520472440944
11
1.9970114960629921
21
-2.9009179133858267
0
LINE
8
BLACK
6
CONTINUOUS
10
1.9970114960629921
20
-2.9009179133858267
11
1.9970114960629921
21
-2.8943576771653543
0
LINE
8
BLACK
6
CONTINUOUS
10
1.9970114960629921
20
-2.8943576771653543
11
1.998291338582677
21
-2.8879235433070867
0
LINE
8
BLACK
6
CONTINUOUS
10
1.998291338582677
20
-2.8879235433070867
11
2.0008018110236221
21
-2.8818627165354331
0
LINE
8
BLACK
6
CONTINUOUS
10
2.0008018110236221
20
-2.8818627165354331
11
2.0044464566929134
21
-2.8764081102362202
0
LINE
8
BLACK
6
CONTINUOUS
10
2.0044464566929134
20
-2.8764081102362202
11
2.0090852362204723
21
-2.8717693307086614
0
LINE
8
BLACK
6
CONTINUOUS
10
2.0090852362204723
20
-2.8717693307086614
11
2.0145398425196852
21
-2.86812468503937
0
LINE
8
BLACK
6
CONTINUOUS
10
2.0145398425196852
20
-2.86812468503937
11
2.0206006692913387
21
-2.865614212598425
0
LINE
8
BLACK
6
CONTINUOUS
10
2.0206006692913387
20
-2.865614212598425
11
2.0270348031496064
21
-2.86433437007874
0
LINE
8
BLACK
6
CONTINUOUS
10
2.0270348031496064
20
-2.86433437007874
11
2.0335950393700788
21
-2.86433437007874
0
LINE
8
BLACK
6
CONTINUOUS
10
2.0335950393700788
20
-2.86433437007874
11
2.0400291732283464
21
-2.865614212598425
0
LINE
8
BLACK
6
CONTINUOUS
10
2.1400291732283465
20
-2.865614212598425
11
2.1460900000000001
21
-2.86812468503937
0
LINE
8
BLACK
6
CONTINUOUS
10
2.1460900000000001
20
-2.86812468503937
11
2.1515446062992125
21
-2.8717693307086614
0
LINE
8
BLACK
6
CONTINUOUS
10
2.1515446062992125
20
-2.8717693307086614
11
2.1561833858267718
21
-2.8764081102362202
0
LINE
8
BLACK
6
CONTINUOUS
10
2.1561833858267718
20
-2.8764081102362202
11
2.1598280314960627
21
-2.8818627165354331
0
LINE
8
BLACK
6
CONTINUOUS
10
2.1598280314960627
20
-2.8818627165354331
11
2.1623385039370078
21
-2.8879235433070867
0
LINE
8
BLACK
6
CONTINUOUS
10
2.1623385039370078
20
-2.8879235433070867
11
2.1636183464566927
21
-2.8943576771653543
0
LINE
8
BLACK
6
CONTINUOUS
10
2.1636183464566927
20
-2.8943576771653543
11
2.1636183464566927
21
-2.9009179133858267
0
LINE
8
BLACK
6
CONTINUOUS
10
2.1636183464566927
20
-2.9009179133858267
11
2.1623385039370078
21
-2.9073520472440944
0
LINE
8
BLACK
6
CONTINUOUS
10
2.1623385039370078
20
-2.9073520472440944
11
2.1598280314960627
21
-2.9134128740157479
0
LINE
8
BLACK
6
CONTINUOUS
10
2.1598280314960627
20
-2.9134128740157479
11
2.1561833858267718
21
-2.9188674803149603
0
LINE
8
BLACK
6
CONTINUOUS
10
2.1561833858267718
20
-2.9188674803149603
11
2.1515446062992125
21
-2.9235062598425197
0
LINE
8
BLACK
6
CONTINUOUS
10
2.1515446062992125
20
-2.9235062598425197
11
2.1460900000000001
21
-2.927150905511811
0
LINE
8
BLACK
6
CONTINUOUS
10
2.1460900000000001
20
-2.927150905511811
11
2.1400291732283465
21
-2.9296613779527561
0
LINE
8
BLACK
6
CONTINUOUS
10
2.1400291732283465
20
-2.9296613779527561
11
2.1335950393700789
21
-2.930941220472441
0
LINE
8
BLACK
6
CONTINUOUS
10
2.1335950393700789
20
-2.930941220472441
11
2.1270348031496065
21
-2.930941220472441
0
LINE
8
BLACK
6
CONTINUOUS
10
2.1270348031496065
20
-2.930941220472441
11
2.1206006692913384
21
-2.9296613779527561
0
LINE
8
BLACK
6
CONTINUOUS
10
2.1206006692913384
20
-2.9296613779527561
11
2.1145398425196849
21
-2.927150905511811
0
LINE
8
BLACK
6
CONTINUOUS
10
2.1145398425196849
20
-2.927150905511811
11
2.1090852362204724
21
-2.9235062598425197
0
LINE
8
BLACK
6
CONTINUOUS
10
2.1090852362204724
20
-2.9235062598425197
11
2.1044464566929135
21
-2.9188674803149603
0
LINE
8
BLACK
6
CONTINUOUS
10
2.1044464566929135
20
-2.9188674803149603
11
2.1008018110236222
21
-2.9134128740157479
0
LINE
8
BLACK
6
CONTINUOUS
10
2.1008018110236222
20
-2.9134128740157479
11
2.0982913385826771
21
-2.9073520472440944
0
LINE
8
BLACK
6
CONTINUOUS
10
2.0982913385826771
20
-2.9073520472440944
11
2.0970114960629922
21
-2.9009179133858267
0
LINE
8
BLACK
6
CONTINUOUS
10
2.0970114960629922
20
-2.9009179133858267
11
2.0970114960629922
21
-2.8943576771653543
0
LINE
8
BLACK
6
CONTINUOUS
10
2.0970114960629922
20
-2.8943576771653543
11
2.0982913385826771
21
-2.8879235433070867
0
LINE
8
BLACK
6
CONTINUOUS
10
2.0982913385826771
20
-2.8879235433070867
11
2.1008018110236222
21
-2.8818627165354331
0
LINE
8
BLACK
6
CONTINUOUS
10
2.1008018110236222
20
-2.8818627165354331
11
2.1044464566929135
21
-2.8764081102362202
0
LINE
8
BLACK
6
CONTINUOUS
10
2.1044464566929135
20
-2.8764081102362202
11
2.1090852362204724
21
-2.8717693307086614
0
LINE
8
BLACK
6
CONTINUOUS
10
2.1090852362204724
20
-2.8717693307086614
11
2.1145398425196849
21
-2.86812468503937
0
LINE
8
BLACK
6
CONTINUOUS
10
2.1145398425196849
20
-2.86812468503937
11
2.1206006692913384
21
-2.865614212598425
0
LINE
8
BLACK
6
CONTINUOUS
10
2.1206006692913384
20
-2.865614212598425
11
2.1270348031496065
21
-2.86433437007874
0
LINE
8
BLACK
6
CONTINUOUS
10
2.1270348031496065
20
-2.86433437007874
11
2.1335950393700789
21
-2.86433437007874
0
LINE
8
BLACK
6
CONTINUOUS
10
2.1335950393700789
20
-2.86433437007874
11
2.1400291732283465
21
-2.865614212598425
0
LINE
8
BLACK
6
CONTINUOUS
10
2.620525275590551
20
-1.9507110236220473
11
2.6249756299212597
21
-1.9532804330708662
0
LINE
8
BLACK
6
CONTINUOUS
10
2.6249756299212597
20
-1.9532804330708662
11
2.6286093307086613
21
-1.9569141338582676
0
LINE
8
BLACK
6
CONTINUOUS
10
2.6286093307086613
20
-1.9569141338582676
11
2.6311787401574804
21
-1.9613644881889762
0
LINE
8
BLACK
6
CONTINUOUS
10
2.6311787401574804
20
-1.9613644881889762
11
2.6325087401574803
21
-1.9663282283464567
0
LINE
8
BLACK
6
CONTINUOUS
10
2.6325087401574803
20
-1.9663282283464567
11
2.6325087401574803
21
-1.9714670472440945
0
LINE
8
BLACK
6
CONTINUOUS
10
2.6325087401574803
20
-1.9714670472440945
11
2.6311787401574804
21
-1.9764307874015747
0
LINE
8
BLACK
6
CONTINUOUS
10
2.6311787401574804
20
-1.9764307874015747
11
2.6286093307086613
21
-1.9808811417322834
0
LINE
8
BLACK
6
CONTINUOUS
10
2.6286093307086613
20
-1.9808811417322834
11
2.6249756299212597
21
-1.984514842519685
0
LINE
8
BLACK
6
CONTINUOUS
10
2.6249756299212597
20
-1.984514842519685
11
2.620525275590551
21
-1.9870842519685039
0
LINE
8
BLACK
6
CONTINUOUS
10
2.620525275590551
20
-1.9870842519685039
11
2.6155615354330708
21
-1.988414251968504
0
LINE
8
BLACK
6
CONTINUOUS
10
2.6155615354330708
20
-1.988414251968504
11
2.610422716535433
21
-1.988414251968504
0
LINE
8
BLACK
6
CONTINUOUS
10
2.610422716535433
20
-1.988414251968504
11
2.6054589763779528
21
-1.9870842519685039
0
LINE
8
BLACK
6
CONTINUOUS
10
2.6054589763779528
20
-1.9870842519685039
11
2.6010086220472441
21
-1.984514842519685
0
LINE
8
BLACK
6
CONTINUOUS
10
2.6010086220472441
20
-1.984514842519685
11
2.5973749212598425
21
-1.9808811417322834
0
LINE
8
BLACK
6
CONTINUOUS
10
2.5973749212598425
20
-1.9808811417322834
11
2.5948055118110234
21
-1.9764307874015747
0
LINE
8
BLACK
6
CONTINUOUS
10
2.5948055118110234
20
-1.9764307874015747
11
2.5934755118110235
21
-1.9714670472440945
0
LINE
8
BLACK
6
CONTINUOUS
10
2.5934755118110235
20
-1.9714670472440945
11
2.5934755118110235
21
-1.9663282283464567
0
LINE
8
BLACK
6
CONTINUOUS
10
2.5934755118110235
20
-1.9663282283464567
11
2.5948055118110234
21
-1.9613644881889762
0
LINE
8
BLACK
6
CONTINUOUS
10
2.5948055118110234
20
-1.9613644881889762
11
2.5973749212598425
21
-1.9569141338582676
0
LINE
8
BLACK
6
CONTINUOUS
10
2.5973749212598425
20
-1.9569141338582676
11
2.6010086220472441
21
-1.9532804330708662
0
LINE
8
BLACK
6
CONTINUOUS
10
2.6010086220472441
20
-1.9532804330708662
11
2.6054589763779528
21
-1.9507110236220473
0
LINE
8
BLACK
6
CONTINUOUS
10
2.6054589763779528
20
-1.9507110236220473
11
2.610422716535433
21
-1.9493810236220472
0
LINE
8
BLACK
6
CONTINUOUS
10
2.610422716535433
20
-1.9493810236220472
11
2.6155615354330708
21
-1.9493810236220472
0
LINE
8
BLACK
6
CONTINUOUS
10
2.6155615354330708
20
-1.9493810236220472
11
2.620525275590551
21
-1.9507110236220473
0
LINE
8
BLACK
6
CONTINUOUS
10
2.6705252755905513
20
-1.9507110236220473
11
2.6749756299212599
21
-1.9532804330708662
0
LINE
8
BLACK
6
CONTINUOUS
10
2.6749756299212599
20
-1.9532804330708662
11
2.6786093307086611
21
-1.9569141338582676
0
LINE
8
BLACK
6
CONTINUOUS
10
2.6786093307086611
20
-1.9569141338582676
11
2.6811787401574803
21
-1.9613644881889762
0
LINE
8
BLACK
6
CONTINUOUS
10
2.6811787401574803
20
-1.9613644881889762
11
2.6825087401574801
21
-1.9663282283464567
0
LINE
8
BLACK
6
CONTINUOUS
10
2.6825087401574801
20
-1.9663282283464567
11
2.6825087401574801
21
-1.9714670472440945
0
LINE
8
BLACK
6
CONTINUOUS
10
2.6825087401574801
20
-1.9714670472440945
11
2.6811787401574803
21
-1.9764307874015747
0
LINE
8
BLACK
6
CONTINUOUS
10
2.6811787401574803
20
-1.9764307874015747
11
2.6786093307086611
21
-1.9808811417322834
0
LINE
8
BLACK
6
CONTINUOUS
10
2.6786093307086611
20
-1.9808811417322834
11
2.6749756299212599
21
-1.984514842519685
0
LINE
8
BLACK
6
CONTINUOUS
10
2.6749756299212599
20
-1.984514842519685
11
2.6705252755905513
21
-1.9870842519685039
0
LINE
8
BLACK
6
CONTINUOUS
10
2.6705252755905513
20
-1.9870842519685039
11
2.6655615354330706
21
-1.988414251968504
0
LINE
8
BLACK
6
CONTINUOUS
10
2.6655615354330706
20
-1.988414251968504
11
2.6604227165354328
21
-1.988414251968504
0
LINE
8
BLACK
6
CONTINUOUS
10
2.6604227165354328
20
-1.988414251968504
11
2.6554589763779526
21
-1.9870842519685039
0
LINE
8
BLACK
6
CONTINUOUS
10
2.6554589763779526
20
-1.9870842519685039
11
2.651008622047244
21
-1.984514842519685
0
LINE
8
BLACK
6
CONTINUOUS
10
2.651008622047244
20
-1.984514842519685
11
2.6473749212598423
21
-1.9808811417322834
0
LINE
8
BLACK
6
CONTINUOUS
10
2.6473749212598423
20
-1.9808811417322834
11
2.6448055118110236
21
-1.9764307874015747
0
LINE
8
BLACK
6
CONTINUOUS
10
2.6448055118110236
20
-1.9764307874015747
11
2.6434755118110234
21
-1.9714670472440945
0
LINE
8
BLACK
6
CONTINUOUS
10
2.6434755118110234
20
-1.9714670472440945
11
2.6434755118110234
21
-1.9663282283464567
0
LINE
8
BLACK
6
CONTINUOUS
10
2.6434755118110234
20
-1.9663282283464567
11
2.6448055118110236
21
-1.9613644881889762
0
LINE
8
BLACK
6
CONTINUOUS
10
2.6448055118110236
20
-1.9613644881889762
11
2.6473749212598423
21
-1.9569141338582676
0
LINE
8
BLACK
6
CONTINUOUS
10
2.6473749212598423
20
-1.9569141338582676
11
2.651008622047244
21
-1.9532804330708662
0
LINE
8
BLACK
6
CONTINUOUS
10
2.651008622047244
20
-1.9532804330708662
11
2.6554589763779526
21
-1.9507110236220473
0
LINE
8
BLACK
6
CONTINUOUS
10
2.6554589763779526
20
-1.9507110236220473
11
2.6604227165354328
21
-1.9493810236220472
0
LINE
8
BLACK
6
CONTINUOUS
10
2.6604227165354328
20
-1.9493810236220472
11
2.6655615354330706
21
-1.9493810236220472
0
LINE
8
BLACK
6
CONTINUOUS
10
2.6655615354330706
20
-1.9493810236220472
11
2.6705252755905513
21
-1.9507110236220473
0
LINE
8
BLACK
6
CONTINUOUS
10
2.620525275590551
20
-1.9007110236220472
11
2.6249756299212597
21
-1.9032804330708661
0
LINE
8
BLACK
6
CONTINUOUS
10
2.6249756299212597
20
-1.9032804330708661
11
2.6286093307086613
21
-1.9069141338582676
0
LINE
8
BLACK
6
CONTINUOUS
10
2.6286093307086613
20
-1.9069141338582676
11
2.6311787401574804
21
-1.9113644881889764
0
LINE
8
BLACK
6
CONTINUOUS
10
2.6311787401574804
20
-1.9113644881889764
11
2.6325087401574803
21
-1.9163282283464567
0
LINE
8
BLACK
6
CONTINUOUS
10
2.6325087401574803
20
-1.9163282283464567
11
2.6325087401574803
21
-1.9214670472440945
0
LINE
8
BLACK
6
CONTINUOUS
10
2.6325087401574803
20
-1.9214670472440945
11
2.6311787401574804
21
-1.9264307874015747
0
LINE
8
BLACK
6
CONTINUOUS
10
2.6311787401574804
20
-1.9264307874015747
11
2.6286093307086613
21
-1.9308811417322833
0
LINE
8
BLACK
6
CONTINUOUS
10
2.6286093307086613
20
-1.9308811417322833
11
2.6249756299212597
21
-1.934514842519685
0
LINE
8
BLACK
6
CONTINUOUS
10
2.6249756299212597
20
-1.934514842519685
11
2.620525275590551
21
-1.9370842519685039
0
LINE
8
BLACK
6
CONTINUOUS
10
2.620525275590551
20
-1.9370842519685039
11
2.6155615354330708
21
-1.9384142519685039
0
LINE
8
BLACK
6
CONTINUOUS
10
2.6155615354330708
20
-1.9384142519685039
11
2.610422716535433
21
-1.9384142519685039
0
LINE
8
BLACK
6
CONTINUOUS
10
2.610422716535433
20
-1.9384142519685039
11
2.6054589763779528
21
-1.9370842519685039
0
LINE
8
BLACK
6
CONTINUOUS
10
2.6054589763779528
20
-1.9370842519685039
11
2.6010086220472441
21
-1.934514842519685
0
LINE
8
BLACK
6
CONTINUOUS
10
2.6010086220472441
20
-1.934514842519685
11
2.5973749212598425
21
-1.9308811417322833
0
LINE
8
BLACK
6
CONTINUOUS
10
2.5973749212598425
20
-1.9308811417322833
11
2.5948055118110234
21
-1.9264307874015747
0
LINE
8
BLACK
6
CONTINUOUS
10
2.5948055118110234
20
-1.9264307874015747
11
2.5934755118110235
21
-1.9214670472440945
0
LINE
8
BLACK
6
CONTINUOUS
10
2.5934755118110235
20
-1.9214670472440945
11
2.5934755118110235
21
-1.9163282283464567
0
LINE
8
BLACK
6
CONTINUOUS
10
2.5934755118110235
20
-1.9163282283464567
11
2.5948055118110234
21
-1.9113644881889764
0
LINE
8
BLACK
6
CONTINUOUS
10
2.5948055118110234
20
-1.9113644881889764
11
2.5973749212598425
21
-1.9069141338582676
0
LINE
8
BLACK
6
CONTINUOUS
10
2.5973749212598425
20
-1.9069141338582676
11
2.6010086220472441
21
-1.9032804330708661
0
LINE
8
BLACK
6
CONTINUOUS
10
2.6010086220472441
20
-1.9032804330708661
11
2.6054589763779528
21
-1.9007110236220472
0
LINE
8
BLACK
6
CONTINUOUS
10
2.6054589763779528
20
-1.9007110236220472
11
2.610422716535433
21
-1.8993810236220472
0
LINE
8
BLACK
6
CONTINUOUS
10
2.610422716535433
20
-1.8993810236220472
11
2.6155615354330708
21
-1.8993810236220472
0
LINE
8
BLACK
6
CONTINUOUS
10
2.6155615354330708
20
-1.8993810236220472
11
2.620525275590551
21
-1.9007110236220472
0
LINE
8
BLACK
6
CONTINUOUS
10
2.6705252755905513
20
-1.9007110236220472
11
2.6749756299212599
21
-1.9032804330708661
0
LINE
8
BLACK
6
CONTINUOUS
10
2.6749756299212599
20
-1.9032804330708661
11
2.6786093307086611
21
-1.9069141338582676
0
LINE
8
BLACK
6
CONTINUOUS
10
2.6786093307086611
20
-1.9069141338582676
11
2.6811787401574803
21
-1.9113644881889764
0
LINE
8
BLACK
6
CONTINUOUS
10
2.6811787401574803
20
-1.9113644881889764
11
2.6825087401574801
21
-1.9163282283464567
0
LINE
8
BLACK
6
CONTINUOUS
10
2.6825087401574801
20
-1.9163282283464567
11
2.6825087401574801
21
-1.9214670472440945
0
LINE
8
BLACK
6
CONTINUOUS
10
2.6825087401574801
20
-1.9214670472440945
11
2.6811787401574803
21
-1.9264307874015747
0
LINE
8
BLACK
6
CONTINUOUS
10
2.6811787401574803
20
-1.9264307874015747
11
2.6786093307086611
21
-1.9308811417322833
0
LINE
8
BLACK
6
CONTINUOUS
10
2.6786093307086611
20
-1.9308811417322833
11
2.6749756299212599
21
-1.934514842519685
0
LINE
8
BLACK
6
CONTINUOUS
10
2.6749756299212599
20
-1.934514842519685
11
2.6705252755905513
21
-1.9370842519685039
0
LINE
8
BLACK
6
CONTINUOUS
10
2.6705252755905513
20
-1.9370842519685039
11
2.6655615354330706
21
-1.9384142519685039
0
LINE
8
BLACK
6
CONTINUOUS
10
2.6655615354330706
20
-1.9384142519685039
11
2.6604227165354328
21
-1.9384142519685039
0
LINE
8
BLACK
6
CONTINUOUS
10
2.6604227165354328
20
-1.9384142519685039
11
2.6554589763779526
21
-1.9370842519685039
0
LINE
8
BLACK
6
CONTINUOUS
10
2.6554589763779526
20
-1.9370842519685039
11
2.651008622047244
21
-1.934514842519685
0
LINE
8
BLACK
6
CONTINUOUS
10
2.651008622047244
20
-1.934514842519685
11
2.6473749212598423
21
-1.9308811417322833
0
LINE
8
BLACK
6
CONTINUOUS
10
2.6473749212598423
20
-1.9308811417322833
11
2.6448055118110236
21
-1.9264307874015747
0
LINE
8
BLACK
6
CONTINUOUS
10
2.6448055118110236
20
-1.9264307874015747
11
2.6434755118110234
21
-1.9214670472440945
0
LINE
8
BLACK
6
CONTINUOUS
10
2.6434755118110234
20
-1.9214670472440945
11
2.6434755118110234
21
-1.9163282283464567
0
LINE
8
BLACK
6
CONTINUOUS
10
2.6434755118110234
20
-1.9163282283464567
11
2.6448055118110236
21
-1.9113644881889764
0
LINE
8
BLACK
6
CONTINUOUS
10
2.6448055118110236
20
-1.9113644881889764
11
2.6473749212598423
21
-1.9069141338582676
0
LINE
8
BLACK
6
CONTINUOUS
10
2.6473749212598423
20
-1.9069141338582676
11
2.651008622047244
21
-1.9032804330708661
0
LINE
8
BLACK
6
CONTINUOUS
10
2.651008622047244
20
-1.9032804330708661
11
2.6554589763779526
21
-1.9007110236220472
0
LINE
8
BLACK
6
CONTINUOUS
10
2.6554589763779526
20
-1.9007110236220472
11
2.6604227165354328
21
-1.8993810236220472
0
LINE
8
BLACK
6
CONTINUOUS
10
2.6604227165354328
20
-1.8993810236220472
11
2.6655615354330706
21
-1.8993810236220472
0
LINE
8
BLACK
6
CONTINUOUS
10
2.6655615354330706
20
-1.8993810236220472
11
2.6705252755905513
21
-1.9007110236220472
0
LINE
8
BLACK
6
CONTINUOUS
10
2.620525275590551
20
-1.8507110236220472
11
2.6249756299212597
21
-1.8532804330708661
0
LINE
8
BLACK
6
CONTINUOUS
10
2.6249756299212597
20
-1.8532804330708661
11
2.6286093307086613
21
-1.8569141338582678
0
LINE
8
BLACK
6
CONTINUOUS
10
2.6286093307086613
20
-1.8569141338582678
11
2.6311787401574804
21
-1.8613644881889764
0
LINE
8
BLACK
6
CONTINUOUS
10
2.6311787401574804
20
-1.8613644881889764
11
2.6325087401574803
21
-1.8663282283464566
0
LINE
8
BLACK
6
CONTINUOUS
10
2.6325087401574803
20
-1.8663282283464566
11
2.6325087401574803
21
-1.8714670472440944
0
LINE
8
BLACK
6
CONTINUOUS
10
2.6325087401574803
20
-1.8714670472440944
11
2.6311787401574804
21
-1.8764307874015747
0
LINE
8
BLACK
6
CONTINUOUS
10
2.6311787401574804
20
-1.8764307874015747
11
2.6286093307086613
21
-1.8808811417322835
0
LINE
8
BLACK
6
CONTINUOUS
10
2.6286093307086613
20
-1.8808811417322835
11
2.6249756299212597
21
-1.8845148425196849
0
LINE
8
BLACK
6
CONTINUOUS
10
2.6249756299212597
20
-1.8845148425196849
11
2.620525275590551
21
-1.8870842519685038
0
LINE
8
BLACK
6
CONTINUOUS
10
2.620525275590551
20
-1.8870842519685038
11
2.6155615354330708
21
-1.8884142519685039
0
LINE
8
BLACK
6
CONTINUOUS
10
2.6155615354330708
20
-1.8884142519685039
11
2.610422716535433
21
-1.8884142519685039
0
LINE
8
BLACK
6
CONTINUOUS
10
2.610422716535433
20
-1.8884142519685039
11
2.6054589763779528
21
-1.8870842519685038
0
LINE
8
BLACK
6
CONTINUOUS
10
2.6054589763779528
20
-1.8870842519685038
11
2.6010086220472441
21
-1.8845148425196849
0
LINE
8
BLACK
6
CONTINUOUS
10
2.6010086220472441
20
-1.8845148425196849
11
2.5973749212598425
21
-1.8808811417322835
0
LINE
8
BLACK
6
CONTINUOUS
10
2.5973749212598425
20
-1.8808811417322835
11
2.5948055118110234
21
-1.8764307874015747
0
LINE
8
BLACK
6
CONTINUOUS
10
2.5948055118110234
20
-1.8764307874015747
11
2.5934755118110235
21
-1.8714670472440944
0
LINE
8
BLACK
6
CONTINUOUS
10
2.5934755118110235
20
-1.8714670472440944
11
2.5934755118110235
21
-1.8663282283464566
0
LINE
8
BLACK
6
CONTINUOUS
10
2.5934755118110235
20
-1.8663282283464566
11
2.5948055118110234
21
-1.8613644881889764
0
LINE
8
BLACK
6
CONTINUOUS
10
2.5948055118110234
20
-1.8613644881889764
11
2.5973749212598425
21
-1.8569141338582678
0
LINE
8
BLACK
6
CONTINUOUS
10
2.5973749212598425
20
-1.8569141338582678
11
2.6010086220472441
21
-1.8532804330708661
0
LINE
8
BLACK
6
CONTINUOUS
10
2.6010086220472441
20
-1.8532804330708661
11
2.6054589763779528
21
-1.8507110236220472
0
LINE
8
BLACK
6
CONTINUOUS
10
2.6054589763779528
20
-1.8507110236220472
11
2.610422716535433
21
-1.8493810236220471
0
LINE
8
BLACK
6
CONTINUOUS
10
2.610422716535433
20
-1.8493810236220471
11
2.6155615354330708
21
-1.8493810236220471
0
LINE
8
BLACK
6
CONTINUOUS
10
2.6155615354330708
20
-1.8493810236220471
11
2.620525275590551
21
-1.8507110236220472
0
LINE
8
BLACK
6
CONTINUOUS
10
2.6705252755905513
20
-1.8507110236220472
11
2.6749756299212599
21
-1.8532804330708661
0
LINE
8
BLACK
6
CONTINUOUS
10
2.6749756299212599
20
-1.8532804330708661
11
2.6786093307086611
21
-1.8569141338582678
0
LINE
8
BLACK
6
CONTINUOUS
10
2.6786093307086611
20
-1.8569141338582678
11
2.6811787401574803
21
-1.8613644881889764
0
LINE
8
BLACK
6
CONTINUOUS
10
2.6811787401574803
20
-1.8613644881889764
11
2.6825087401574801
21
-1.8663282283464566
0
LINE
8
BLACK
6
CONTINUOUS
10
2.6825087401574801
20
-1.8663282283464566
11
2.6825087401574801
21
-1.8714670472440944
0
LINE
8
BLACK
6
CONTINUOUS
10
2.6825087401574801
20
-1.8714670472440944
11
2.6811787401574803
21
-1.8764307874015747
0
LINE
8
BLACK
6
CONTINUOUS
10
2.6811787401574803
20
-1.8764307874015747
11
2.6786093307086611
21
-1.8808811417322835
0
LINE
8
BLACK
6
CONTINUOUS
10
2.6786093307086611
20
-1.8808811417322835
11
2.6749756299212599
21
-1.8845148425196849
0
LINE
8
BLACK
6
CONTINUOUS
10
2.6749756299212599
20
-1.8845148425196849
11
2.6705252755905513
21
-1.8870842519685038
0
LINE
8
BLACK
6
CONTINUOUS
10
2.6705252755905513
20
-1.8870842519685038
11
2.6655615354330706
21
-1.8884142519685039
0
LINE
8
BLACK
6
CONTINUOUS
10
2.6655615354330706
20
-1.8884142519685039
11
2.6604227165354328
21
-1.8884142519685039
0
LINE
8
BLACK
6
CONTINUOUS
10
2.6604227165354328
20
-1.8884142519685039
11
2.6554589763779526
21
-1.8870842519685038
0
LINE
8
BLACK
6
CONTINUOUS
10
2.6554589763779526
20
-1.8870842519685038
11
2.651008622047244
21
-1.8845148425196849
0
LINE
8
BLACK
6
CONTINUOUS
10
2.651008622047244
20
-1.8845148425196849
11
2.6473749212598423
21
-1.8808811417322835
0
LINE
8
BLACK
6
CONTINUOUS
10
2.6473749212598423
20
-1.8808811417322835
11
2.6448055118110236
21
-1.8764307874015747
0
LINE
8
BLACK
6
CONTINUOUS
10
2.6448055118110236
20
-1.8764307874015747
11
2.6434755118110234
21
-1.8714670472440944
0
LINE
8
BLACK
6
CONTINUOUS
10
2.6434755118110234
20
-1.8714670472440944
11
2.6434755118110234
21
-1.8663282283464566
0
LINE
8
BLACK
6
CONTINUOUS
10
2.6434755118110234
20
-1.8663282283464566
11
2.6448055118110236
21
-1.8613644881889764
0
LINE
8
BLACK
6
CONTINUOUS
10
2.6448055118110236
20
-1.8613644881889764
11
2.6473749212598423
21
-1.8569141338582678
0
LINE
8
BLACK
6
CONTINUOUS
10
2.6473749212598423
20
-1.8569141338582678
11
2.651008622047244
21
-1.8532804330708661
0
LINE
8
BLACK
6
CONTINUOUS
10
2.651008622047244
20
-1.8532804330708661
11
2.6554589763779526
21
-1.8507110236220472
0
LINE
8
BLACK
6
CONTINUOUS
10
2.6554589763779526
20
-1.8507110236220472
11
2.6604227165354328
21
-1.8493810236220471
0
LINE
8
BLACK
6
CONTINUOUS
10
2.6604227165354328
20
-1.8493810236220471
11
2.6655615354330706
21
-1.8493810236220471
0
LINE
8
BLACK
6
CONTINUOUS
10
2.6655615354330706
20
-1.8493810236220471
11
2.6705252755905513
21
-1.8507110236220472
0
LINE
8
BLACK
6
CONTINUOUS
10
2.6826771653543307
20
-1.8385826771653544
11
2.6433070866141732
21
-1.8385826771653544
0
LINE
8
BLACK
6
CONTINUOUS
10
2.6433070866141732
20
-1.8385826771653544
11
2.6433070866141732
21
-1.7992125984251968
0
LINE
8
BLACK
6
CONTINUOUS
10
2.6433070866141732
20
-1.7992125984251968
11
2.6826771653543307
21
-1.7992125984251968
0
LINE
8
BLACK
6
CONTINUOUS
10
2.6826771653543307
20
-1.7992125984251968
11
2.6826771653543307
21
-1.8385826771653544
0
LINE
8
BLACK
6
CONTINUOUS
10
2.620525275590551
20
-1.8007110236220472
11
2.6249756299212597
21
-1.8032804330708661
0
LINE
8
BLACK
6
CONTINUOUS
10
2.6249756299212597
20
-1.8032804330708661
11
2.6286093307086613
21
-1.8069141338582677
0
LINE
8
BLACK
6
CONTINUOUS
10
2.6286093307086613
20
-1.8069141338582677
11
2.6311787401574804
21
-1.8113644881889763
0
LINE
8
BLACK
6
CONTINUOUS
10
2.6311787401574804
20
-1.8113644881889763
11
2.6325087401574803
21
-1.8163282283464566
0
LINE
8
BLACK
6
CONTINUOUS
10
2.6325087401574803
20
-1.8163282283464566
11
2.6325087401574803
21
-1.8214670472440944
0
LINE
8
BLACK
6
CONTINUOUS
10
2.6325087401574803
20
-1.8214670472440944
11
2.6311787401574804
21
-1.8264307874015748
0
LINE
8
BLACK
6
CONTINUOUS
10
2.6311787401574804
20
-1.8264307874015748
11
2.6286093307086613
21
-1.8308811417322834
0
LINE
8
BLACK
6
CONTINUOUS
10
2.6286093307086613
20
-1.8308811417322834
11
2.6249756299212597
21
-1.8345148425196851
0
LINE
8
BLACK
6
CONTINUOUS
10
2.6249756299212597
20
-1.8345148425196851
11
2.620525275590551
21
-1.837084251968504
0
LINE
8
BLACK
6
CONTINUOUS
10
2.620525275590551
20
-1.837084251968504
11
2.6155615354330708
21
-1.8384142519685038
0
LINE
8
BLACK
6
CONTINUOUS
10
2.6155615354330708
20
-1.8384142519685038
11
2.610422716535433
21
-1.8384142519685038
0
LINE
8
BLACK
6
CONTINUOUS
10
2.610422716535433
20
-1.8384142519685038
11
2.6054589763779528
21
-1.837084251968504
0
LINE
8
BLACK
6
CONTINUOUS
10
2.6054589763779528
20
-1.837084251968504
11
2.6010086220472441
21
-1.8345148425196851
0
LINE
8
BLACK
6
CONTINUOUS
10
2.6010086220472441
20
-1.8345148425196851
11
2.5973749212598425
21
-1.8308811417322834
0
LINE
8
BLACK
6
CONTINUOUS
10
2.5973749212598425
20
-1.8308811417322834
11
2.5948055118110234
21
-1.8264307874015748
0
LINE
8
BLACK
6
CONTINUOUS
10
2.5948055118110234
20
-1.8264307874015748
11
2.5934755118110235
21
-1.8214670472440944
0
LINE
8
BLACK
6
CONTINUOUS
10
2.5934755118110235
20
-1.8214670472440944
11
2.5934755118110235
21
-1.8163282283464566
0
LINE
8
BLACK
6
CONTINUOUS
10
2.5934755118110235
20
-1.8163282283464566
11
2.5948055118110234
21
-1.8113644881889763
0
LINE
8
BLACK
6
CONTINUOUS
10
2.5948055118110234
20
-1.8113644881889763
11
2.5973749212598425
21
-1.8069141338582677
0
LINE
8
BLACK
6
CONTINUOUS
10
2.5973749212598425
20
-1.8069141338582677
11
2.6010086220472441
21
-1.8032804330708661
0
LINE
8
BLACK
6
CONTINUOUS
10
2.6010086220472441
20
-1.8032804330708661
11
2.6054589763779528
21
-1.8007110236220472
0
LINE
8
BLACK
6
CONTINUOUS
10
2.6054589763779528
20
-1.8007110236220472
11
2.610422716535433
21
-1.7993810236220471
0
LINE
8
BLACK
6
CONTINUOUS
10
2.610422716535433
20
-1.7993810236220471
11
2.6155615354330708
21
-1.7993810236220471
0
LINE
8
BLACK
6
CONTINUOUS
10
2.6155615354330708
20
-1.7993810236220471
11
2.620525275590551
21
-1.8007110236220472
0
LINE
8
BLACK
6
CONTINUOUS
10
1.5950201968503936
20
-1.3001656692913386
11
1.6044209842519686
21
-1.3032201968503936
0
LINE
8
BLACK
6
CONTINUOUS
10
1.6044209842519686
20
-1.3032201968503936
11
1.6132282677165355
21
-1.3077077165354329
0
LINE
8
BLACK
6
CONTINUOUS
10
1.6132282677165355
20
-1.3077077165354329
11
1.6212250787401574
21
-1.313517716535433
0
LINE
8
BLACK
6
CONTINUOUS
10
1.6212250787401574
20
-1.313517716535433
11
1.6282145669291339
21
-1.3205072047244095
0
LINE
8
BLACK
6
CONTINUOUS
10
1.6282145669291339
20
-1.3205072047244095
11
1.6340245669291338
21
-1.3285040157480315
0
LINE
8
BLACK
6
CONTINUOUS
10
1.6340245669291338
20
-1.3285040157480315
11
1.6385120866141731
21
-1.3373112992125984
0
LINE
8
BLACK
6
CONTINUOUS
10
1.6385120866141731
20
-1.3373112992125984
11
1.6415666141732284
21
-1.3467120866141733
0
LINE
8
BLACK
6
CONTINUOUS
10
1.6415666141732284
20
-1.3467120866141733
11
1.6431129133858267
21
-1.3564749999999999
0
LINE
8
BLACK
6
CONTINUOUS
10
1.6431129133858267
20
-1.3564749999999999
11
1.6431129133858267
21
-1.3663596456692912
0
LINE
8
BLACK
6
CONTINUOUS
10
1.6431129133858267
20
-1.3663596456692912
11
1.6415666141732284
21
-1.376122559055118
0
LINE
8
BLACK
6
CONTINUOUS
10
1.6415666141732284
20
-1.376122559055118
11
1.6385120866141731
21
-1.385523346456693
0
LINE
8
BLACK
6
CONTINUOUS
10
1.6385120866141731
20
-1.385523346456693
11
1.6340245669291338
21
-1.3943306299212599
0
LINE
8
BLACK
6
CONTINUOUS
10
1.6340245669291338
20
-1.3943306299212599
11
1.6282145669291339
21
-1.4023274409448818
0
LINE
8
BLACK
6
CONTINUOUS
10
1.6282145669291339
20
-1.4023274409448818
11
1.6212250787401574
21
-1.4093169291338583
0
LINE
8
BLACK
6
CONTINUOUS
10
1.6212250787401574
20
-1.4093169291338583
11
1.6132282677165355
21
-1.4151269291338582
0
LINE
8
BLACK
6
CONTINUOUS
10
1.6132282677165355
20
-1.4151269291338582
11
1.6044209842519686
21
-1.4196144488188975
0
LINE
8
BLACK
6
CONTINUOUS
10
1.6044209842519686
20
-1.4196144488188975
11
1.5950201968503936
21
-1.4226689763779528
0
LINE
8
BLACK
6
CONTINUOUS
10
1.5950201968503936
20
-1.4226689763779528
11
1.5852572834645668
21
-1.4242152755905511
0
LINE
8
BLACK
6
CONTINUOUS
10
1.5852572834645668
20
-1.4242152755905511
11
1.5753726377952755
21
-1.4242152755905511
0
LINE
8
BLACK
6
CONTINUOUS
10
1.5753726377952755
20
-1.4242152755905511
11
1.5656097244094487
21
-1.4226689763779528
0
LINE
8
BLACK
6
CONTINUOUS
10
1.5656097244094487
20
-1.4226689763779528
11
1.556208937007874
21
-1.4196144488188975
0
LINE
8
BLACK
6
CONTINUOUS
10
1.556208937007874
20
-1.4196144488188975
11
1.5474016535433071
21
-1.4151269291338582
0
LINE
8
BLACK
6
CONTINUOUS
10
1.5474016535433071
20
-1.4151269291338582
11
1.5394048425196849
21
-1.4093169291338583
0
LINE
8
BLACK
6
CONTINUOUS
10
1.5394048425196849
20
-1.4093169291338583
11
1.5324153543307086
21
-1.4023274409448818
0
LINE
8
BLACK
6
CONTINUOUS
10
1.5324153543307086
20
-1.4023274409448818
11
1.5266053543307085
21
-1.3943306299212599
0
LINE
8
BLACK
6
CONTINUOUS
10
1.5266053543307085
20
-1.3943306299212599
11
1.5221178346456692
21
-1.385523346456693
0
LINE
8
BLACK
6
CONTINUOUS
10
1.5221178346456692
20
-1.385523346456693
11
1.5190633070866142
21
-1.376122559055118
0
LINE
8
BLACK
6
CONTINUOUS
10
1.5190633070866142
20
-1.376122559055118
11
1.5175170078740157
21
-1.3663596456692912
0
LINE
8
BLACK
6
CONTINUOUS
10
1.5175170078740157
20
-1.3663596456692912
11
1.5175170078740157
21
-1.3564749999999999
0
LINE
8
BLACK
6
CONTINUOUS
10
1.5175170078740157
20
-1.3564749999999999
11
1.5190633070866142
21
-1.3467120866141733
0
LINE
8
BLACK
6
CONTINUOUS
10
1.5190633070866142
20
-1.3467120866141733
11
1.5221178346456692
21
-1.3373112992125984
0
LINE
8
BLACK
6
CONTINUOUS
10
1.5221178346456692
20
-1.3373112992125984
11
1.5266053543307085
21
-1.3285040157480315
0
LINE
8
BLACK
6
CONTINUOUS
10
1.5266053543307085
20
-1.3285040157480315
11
1.5324153543307086
21
-1.3205072047244095
0
LINE
8
BLACK
6
CONTINUOUS
10
1.5324153543307086
20
-1.3205072047244095
11
1.5394048425196849
21
-1.313517716535433
0
LINE
8
BLACK
6
CONTINUOUS
10
1.5394048425196849
20
-1.313517716535433
11
1.5474016535433071
21
-1.3077077165354329
0
LINE
8
BLACK
6
CONTINUOUS
10
1.5474016535433071
20
-1.3077077165354329
11
1.556208937007874
21
-1.3032201968503936
0
LINE
8
BLACK
6
CONTINUOUS
10
1.556208937007874
20
-1.3032201968503936
11
1.5656097244094487
21
-1.3001656692913386
0
LINE
8
BLACK
6
CONTINUOUS
10
1.5656097244094487
20
-1.3001656692913386
11
1.5753726377952755
21
-1.2986193700787401
0
LINE
8
BLACK
6
CONTINUOUS
10
1.5753726377952755
20
-1.2986193700787401
11
1.5852572834645668
21
-1.2986193700787401
0
LINE
8
BLACK
6
CONTINUOUS
10
1.5852572834645668
20
-1.2986193700787401
11
1.5950201968503936
21
-1.3001656692913386
0
LINE
8
BLACK
6
CONTINUOUS
10
1.7950201968503936
20
-1.3001656692913386
11
1.8044209842519685
21
-1.3032201968503936
0
LINE
8
BLACK
6
CONTINUOUS
10
1.8044209842519685
20
-1.3032201968503936
11
1.8132282677165354
21
-1.3077077165354329
0
LINE
8
BLACK
6
CONTINUOUS
10
1.8132282677165354
20
-1.3077077165354329
11
1.8212250787401574
21
-1.313517716535433
0
LINE
8
BLACK
6
CONTINUOUS
10
1.8212250787401574
20
-1.313517716535433
11
1.8282145669291339
21
-1.3205072047244095
0
LINE
8
BLACK
6
CONTINUOUS
10
1.8282145669291339
20
-1.3205072047244095
11
1.8340245669291337
21
-1.3285040157480315
0
LINE
8
BLACK
6
CONTINUOUS
10
1.8340245669291337
20
-1.3285040157480315
11
1.8385120866141731
21
-1.3373112992125984
0
LINE
8
BLACK
6
CONTINUOUS
10
1.8385120866141731
20
-1.3373112992125984
11
1.8415666141732283
21
-1.3467120866141733
0
LINE
8
BLACK
6
CONTINUOUS
10
1.8415666141732283
20
-1.3467120866141733
11
1.8431129133858268
21
-1.3564749999999999
0
LINE
8
BLACK
6
CONTINUOUS
10
1.8431129133858268
20
-1.3564749999999999
11
1.8431129133858268
21
-1.3663596456692912
0
LINE
8
BLACK
6
CONTINUOUS
10
1.8431129133858268
20
-1.3663596456692912
11
1.8415666141732283
21
-1.376122559055118
0
LINE
8
BLACK
6
CONTINUOUS
10
1.8415666141732283
20
-1.376122559055118
11
1.8385120866141731
21
-1.385523346456693
0
LINE
8
BLACK
6
CONTINUOUS
10
1.8385120866141731
20
-1.385523346456693
11
1.8340245669291337
21
-1.3943306299212599
0
LINE
8
BLACK
6
CONTINUOUS
10
1.8340245669291337
20
-1.3943306299212599
11
1.8282145669291339
21
-1.4023274409448818
0
LINE
8
BLACK
6
CONTINUOUS
10
1.8282145669291339
20
-1.4023274409448818
11
1.8212250787401574
21
-1.4093169291338583
0
LINE
8
BLACK
6
CONTINUOUS
10
1.8212250787401574
20
-1.4093169291338583
11
1.8132282677165354
21
-1.4151269291338582
0
LINE
8
BLACK
6
CONTINUOUS
10
1.8132282677165354
20
-1.4151269291338582
11
1.8044209842519685
21
-1.4196144488188975
0
LINE
8
BLACK
6
CONTINUOUS
10
1.8044209842519685
20
-1.4196144488188975
11
1.7950201968503936
21
-1.4226689763779528
0
LINE
8
BLACK
6
CONTINUOUS
10
1.7950201968503936
20
-1.4226689763779528
11
1.7852572834645668
21
-1.4242152755905511
0
LINE
8
BLACK
6
CONTINUOUS
10
1.7852572834645668
20
-1.4242152755905511
11
1.7753726377952757
21
-1.4242152755905511
0
LINE
8
BLACK
6
CONTINUOUS
10
1.7753726377952757
20
-1.4242152755905511
11
1.7656097244094489
21
-1.4226689763779528
0
LINE
8
BLACK
6
CONTINUOUS
10
1.7656097244094489
20
-1.4226689763779528
11
1.7562089370078739
21
-1.4196144488188975
0
LINE
8
BLACK
6
CONTINUOUS
10
1.7562089370078739
20
-1.4196144488188975
11
1.747401653543307
21
-1.4151269291338582
0
LINE
8
BLACK
6
CONTINUOUS
10
1.747401653543307
20
-1.4151269291338582
11
1.7394048425196851
21
-1.4093169291338583
0
LINE
8
BLACK
6
CONTINUOUS
10
1.7394048425196851
20
-1.4093169291338583
11
1.7324153543307086
21
-1.4023274409448818
0
LINE
8
BLACK
6
CONTINUOUS
10
1.7324153543307086
20
-1.4023274409448818
11
1.7266053543307087
21
-1.3943306299212599
0
LINE
8
BLACK
6
CONTINUOUS
10
1.7266053543307087
20
-1.3943306299212599
11
1.7221178346456691
21
-1.385523346456693
0
LINE
8
BLACK
6
CONTINUOUS
10
1.7221178346456691
20
-1.385523346456693
11
1.7190633070866141
21
-1.376122559055118
0
LINE
8
BLACK
6
CONTINUOUS
10
1.7190633070866141
20
-1.376122559055118
11
1.7175170078740156
21
-1.3663596456692912
0
LINE
8
BLACK
6
CONTINUOUS
10
1.7175170078740156
20
-1.3663596456692912
11
1.7175170078740156
21
-1.3564749999999999
0
LINE
8
BLACK
6
CONTINUOUS
10
1.7175170078740156
20
-1.3564749999999999
11
1.7190633070866141
21
-1.3467120866141733
0
LINE
8
BLACK
6
CONTINUOUS
10
1.7190633070866141
20
-1.3467120866141733
11
1.7221178346456691
21
-1.3373112992125984
0
LINE
8
BLACK
6
CONTINUOUS
10
1.7221178346456691
20
-1.3373112992125984
11
1.7266053543307087
21
-1.3285040157480315
0
LINE
8
BLACK
6
CONTINUOUS
10
1.7266053543307087
20
-1.3285040157480315
11
1.7324153543307086
21
-1.3205072047244095
0
LINE
8
BLACK
6
CONTINUOUS
10
1.7324153543307086
20
-1.3205072047244095
11
1.7394048425196851
21
-1.313517716535433
0
LINE
8
BLACK
6
CONTINUOUS
10
1.7394048425196851
20
-1.313517716535433
11
1.747401653543307
21
-1.3077077165354329
0
LINE
8
BLACK
6
CONTINUOUS
10
1.747401653543307
20
-1.3077077165354329
11
1.7562089370078739
21
-1.3032201968503936
0
LINE
8
BLACK
6
CONTINUOUS
10
1.7562089370078739
20
-1.3032201968503936
11
1.7656097244094489
21
-1.3001656692913386
0
LINE
8
BLACK
6
CONTINUOUS
10
1.7656097244094489
20
-1.3001656692913386
11
1.7753726377952757
21
-1.2986193700787401
0
LINE
8
BLACK
6
CONTINUOUS
10
1.7753726377952757
20
-1.2986193700787401
11
1.7852572834645668
21
-1.2986193700787401
0
LINE
8
BLACK
6
CONTINUOUS
10
1.7852572834645668
20
-1.2986193700787401
11
1.7950201968503936
21
-1.3001656692913386
0
LINE
8
BLACK
6
CONTINUOUS
10
1.9950201968503936
20
-1.3001656692913386
11
2.0044209842519685
21
-1.3032201968503936
0
LINE
8
BLACK
6
CONTINUOUS
10
2.0044209842519685
20
-1.3032201968503936
11
2.0132282677165354
21
-1.3077077165354329
0
LINE
8
BLACK
6
CONTINUOUS
10
2.0132282677165354
20
-1.3077077165354329
11
2.0212250787401573
21
-1.313517716535433
0
LINE
8
BLACK
6
CONTINUOUS
10
2.0212250787401573
20
-1.313517716535433
11
2.0282145669291336
21
-1.3205072047244095
0
LINE
8
BLACK
6
CONTINUOUS
10
2.0282145669291336
20
-1.3205072047244095
11
2.0340245669291339
21
-1.3285040157480315
0
LINE
8
BLACK
6
CONTINUOUS
10
2.0340245669291339
20
-1.3285040157480315
11
2.038512086614173
21
-1.3373112992125984
0
LINE
8
BLACK
6
CONTINUOUS
10
2.038512086614173
20
-1.3373112992125984
11
2.0415666141732283
21
-1.3467120866141733
0
LINE
8
BLACK
6
CONTINUOUS
10
2.0415666141732283
20
-1.3467120866141733
11
2.0431129133858268
21
-1.3564749999999999
0
LINE
8
BLACK
6
CONTINUOUS
10
2.0431129133858268
20
-1.3564749999999999
11
2.0431129133858268
21
-1.3663596456692912
0
LINE
8
BLACK
6
CONTINUOUS
10
2.0431129133858268
20
-1.3663596456692912
11
2.0415666141732283
21
-1.376122559055118
0
LINE
8
BLACK
6
CONTINUOUS
10
2.0415666141732283
20
-1.376122559055118
11
2.038512086614173
21
-1.385523346456693
0
LINE
8
BLACK
6
CONTINUOUS
10
2.038512086614173
20
-1.385523346456693
11
2.0340245669291339
21
-1.3943306299212599
0
LINE
8
BLACK
6
CONTINUOUS
10
2.0340245669291339
20
-1.3943306299212599
11
2.0282145669291336
21
-1.4023274409448818
0
LINE
8
BLACK
6
CONTINUOUS
10
2.0282145669291336
20
-1.4023274409448818
11
2.0212250787401573
21
-1.4093169291338583
0
LINE
8
BLACK
6
CONTINUOUS
10
2.0212250787401573
20
-1.4093169291338583
11
2.0132282677165354
21
-1.4151269291338582
0
LINE
8
BLACK
6
CONTINUOUS
10
2.0132282677165354
20
-1.4151269291338582
11
2.0044209842519685
21
-1.4196144488188975
0
LINE
8
BLACK
6
CONTINUOUS
10
2.0044209842519685
20
-1.4196144488188975
11
1.9950201968503936
21
-1.4226689763779528
0
LINE
8
BLACK
6
CONTINUOUS
10
1.9950201968503936
20
-1.4226689763779528
11
1.985257283464567
21
-1.4242152755905511
0
LINE
8
BLACK
6
CONTINUOUS
10
1.985257283464567
20
-1.4242152755905511
11
1.9753726377952756
21
-1.4242152755905511
0
LINE
8
BLACK
6
CONTINUOUS
10
1.9753726377952756
20
-1.4242152755905511
11
1.9656097244094488
21
-1.4226689763779528
0
LINE
8
BLACK
6
CONTINUOUS
10
1.9656097244094488
20
-1.4226689763779528
11
1.9562089370078739
21
-1.4196144488188975
0
LINE
8
BLACK
6
CONTINUOUS
10
1.9562089370078739
20
-1.4196144488188975
11
1.947401653543307
21
-1.4151269291338582
0
LINE
8
BLACK
6
CONTINUOUS
10
1.947401653543307
20
-1.4151269291338582
11
1.939404842519685
21
-1.4093169291338583
0
LINE
8
BLACK
6
CONTINUOUS
10
1.939404842519685
20
-1.4093169291338583
11
1.9324153543307085
21
-1.4023274409448818
0
LINE
8
BLACK
6
CONTINUOUS
10
1.9324153543307085
20
-1.4023274409448818
11
1.9266053543307087
21
-1.3943306299212599
0
LINE
8
BLACK
6
CONTINUOUS
10
1.9266053543307087
20
-1.3943306299212599
11
1.9221178346456693
21
-1.385523346456693
0
LINE
8
BLACK
6
CONTINUOUS
10
1.9221178346456693
20
-1.385523346456693
11
1.9190633070866141
21
-1.376122559055118
0
LINE
8
BLACK
6
CONTINUOUS
10
1.9190633070866141
20
-1.376122559055118
11
1.9175170078740158
21
-1.3663596456692912
0
LINE
8
BLACK
6
CONTINUOUS
10
1.9175170078740158
20
-1.3663596456692912
11
1.9175170078740158
21
-1.3564749999999999
0
LINE
8
BLACK
6
CONTINUOUS
10
1.9175170078740158
20
-1.3564749999999999
11
1.9190633070866141
21
-1.3467120866141733
0
LINE
8
BLACK
6
CONTINUOUS
10
1.9190633070866141
20
-1.3467120866141733
11
1.9221178346456693
21
-1.3373112992125984
0
LINE
8
BLACK
6
CONTINUOUS
10
1.9221178346456693
20
-1.3373112992125984
11
1.9266053543307087
21
-1.3285040157480315
0
LINE
8
BLACK
6
CONTINUOUS
10
1.9266053543307087
20
-1.3285040157480315
11
1.9324153543307085
21
-1.3205072047244095
0
LINE
8
BLACK
6
CONTINUOUS
10
1.9324153543307085
20
-1.3205072047244095
11
1.939404842519685
21
-1.313517716535433
0
LINE
8
BLACK
6
CONTINUOUS
10
1.939404842519685
20
-1.313517716535433
11
1.947401653543307
21
-1.3077077165354329
0
LINE
8
BLACK
6
CONTINUOUS
10
1.947401653543307
20
-1.3077077165354329
11
1.9562089370078739
21
-1.3032201968503936
0
LINE
8
BLACK
6
CONTINUOUS
10
1.9562089370078739
20
-1.3032201968503936
11
1.9656097244094488
21
-1.3001656692913386
0
LINE
8
BLACK
6
CONTINUOUS
10
1.9656097244094488
20
-1.3001656692913386
11
1.9753726377952756
21
-1.2986193700787401
0
LINE
8
BLACK
6
CONTINUOUS
10
1.9753726377952756
20
-1.2986193700787401
11
1.985257283464567
21
-1.2986193700787401
0
LINE
8
BLACK
6
CONTINUOUS
10
1.985257283464567
20
-1.2986193700787401
11
1.9950201968503936
21
-1.3001656692913386
0
LINE
8
BLACK
6
CONTINUOUS
10
2.1950201968503937
20
-1.3001656692913386
11
2.2044209842519686
21
-1.3032201968503936
0
LINE
8
BLACK
6
CONTINUOUS
10
2.2044209842519686
20
-1.3032201968503936
11
2.2132282677165356
21
-1.3077077165354329
0
LINE
8
BLACK
6
CONTINUOUS
10
2.2132282677165356
20
-1.3077077165354329
11
2.2212250787401575
21
-1.313517716535433
0
LINE
8
BLACK
6
CONTINUOUS
10
2.2212250787401575
20
-1.313517716535433
11
2.2282145669291338
21
-1.3205072047244095
0
LINE
8
BLACK
6
CONTINUOUS
10
2.2282145669291338
20
-1.3205072047244095
11
2.2340245669291336
21
-1.3285040157480315
0
LINE
8
BLACK
6
CONTINUOUS
10
2.2340245669291336
20
-1.3285040157480315
11
2.2385120866141732
21
-1.3373112992125984
0
LINE
8
BLACK
6
CONTINUOUS
10
2.2385120866141732
20
-1.3373112992125984
11
2.2415666141732284
21
-1.3467120866141733
0
LINE
8
BLACK
6
CONTINUOUS
10
2.2415666141732284
20
-1.3467120866141733
11
2.2431129133858265
21
-1.3564749999999999
0
LINE
8
BLACK
6
CONTINUOUS
10
2.2431129133858265
20
-1.3564749999999999
11
2.2431129133858265
21
-1.3663596456692912
0
LINE
8
BLACK
6
CONTINUOUS
10
2.2431129133858265
20
-1.3663596456692912
11
2.2415666141732284
21
-1.376122559055118
0
LINE
8
BLACK
6
CONTINUOUS
10
2.2415666141732284
20
-1.376122559055118
11
2.2385120866141732
21
-1.385523346456693
0
LINE
8
BLACK
6
CONTINUOUS
10
2.2385120866141732
20
-1.385523346456693
11
2.2340245669291336
21
-1.3943306299212599
0
LINE
8
BLACK
6
CONTINUOUS
10
2.2340245669291336
20
-1.3943306299212599
11
2.2282145669291338
21
-1.4023274409448818
0
LINE
8
BLACK
6
CONTINUOUS
10
2.2282145669291338
20
-1.4023274409448818
11
2.2212250787401575
21
-1.4093169291338583
0
LINE
8
BLACK
6
CONTINUOUS
10
2.2212250787401575
20
-1.4093169291338583
11
2.2132282677165356
21
-1.4151269291338582
0
LINE
8
BLACK
6
CONTINUOUS
10
2.2132282677165356
20
-1.4151269291338582
11
2.2044209842519686
21
-1.4196144488188975
0
LINE
8
BLACK
6
CONTINUOUS
10
2.2044209842519686
20
-1.4196144488188975
11
2.1950201968503937
21
-1.4226689763779528
0
LINE
8
BLACK
6
CONTINUOUS
10
2.1950201968503937
20
-1.4226689763779528
11
2.1852572834645669
21
-1.4242152755905511
0
LINE
8
BLACK
6
CONTINUOUS
10
2.1852572834645669
20
-1.4242152755905511
11
2.1753726377952756
21
-1.4242152755905511
0
LINE
8
BLACK
6
CONTINUOUS
10
2.1753726377952756
20
-1.4242152755905511
11
2.1656097244094488
21
-1.4226689763779528
0
LINE
8
BLACK
6
CONTINUOUS
10
2.1656097244094488
20
-1.4226689763779528
11
2.1562089370078739
21
-1.4196144488188975
0
LINE
8
BLACK
6
CONTINUOUS
10
2.1562089370078739
20
-1.4196144488188975
11
2.1474016535433069
21
-1.4151269291338582
0
LINE
8
BLACK
6
CONTINUOUS
10
2.1474016535433069
20
-1.4151269291338582
11
2.139404842519685
21
-1.4093169291338583
0
LINE
8
BLACK
6
CONTINUOUS
10
2.139404842519685
20
-1.4093169291338583
11
2.1324153543307087
21
-1.4023274409448818
0
LINE
8
BLACK
6
CONTINUOUS
10
2.1324153543307087
20
-1.4023274409448818
11
2.1266053543307084
21
-1.3943306299212599
0
LINE
8
BLACK
6
CONTINUOUS
10
2.1266053543307084
20
-1.3943306299212599
11
2.1221178346456693
21
-1.385523346456693
0
LINE
8
BLACK
6
CONTINUOUS
10
2.1221178346456693
20
-1.385523346456693
11
2.1190633070866141
21
-1.376122559055118
0
LINE
8
BLACK
6
CONTINUOUS
10
2.1190633070866141
20
-1.376122559055118
11
2.1175170078740155
21
-1.3663596456692912
0
LINE
8
BLACK
6
CONTINUOUS
10
2.1175170078740155
20
-1.3663596456692912
11
2.1175170078740155
21
-1.3564749999999999
0
LINE
8
BLACK
6
CONTINUOUS
10
2.1175170078740155
20
-1.3564749999999999
11
2.1190633070866141
21
-1.3467120866141733
0
LINE
8
BLACK
6
CONTINUOUS
10
2.1190633070866141
20
-1.3467120866141733
11
2.1221178346456693
21
-1.3373112992125984
0
LINE
8
BLACK
6
CONTINUOUS
10
2.1221178346456693
20
-1.3373112992125984
11
2.1266053543307084
21
-1.3285040157480315
0
LINE
8
BLACK
6
CONTINUOUS
10
2.1266053543307084
20
-1.3285040157480315
11
2.1324153543307087
21
-1.3205072047244095
0
LINE
8
BLACK
6
CONTINUOUS
10
2.1324153543307087
20
-1.3205072047244095
11
2.139404842519685
21
-1.313517716535433
0
LINE
8
BLACK
6
CONTINUOUS
10
2.139404842519685
20
-1.313517716535433
11
2.1474016535433069
21
-1.3077077165354329
0
LINE
8
BLACK
6
CONTINUOUS
10
2.1474016535433069
20
-1.3077077165354329
11
2.1562089370078739
21
-1.3032201968503936
0
LINE
8
BLACK
6
CONTINUOUS
10
2.1562089370078739
20
-1.3032201968503936
11
2.1656097244094488
21
-1.3001656692913386
0
LINE
8
BLACK
6
CONTINUOUS
10
2.1656097244094488
20
-1.3001656692913386
11
2.1753726377952756
21
-1.2986193700787401
0
LINE
8
BLACK
6
CONTINUOUS
10
2.1753726377952756
20
-1.2986193700787401
11
2.1852572834645669
21
-1.2986193700787401
0
LINE
8
BLACK
6
CONTINUOUS
10
2.1852572834645669
20
-1.2986193700787401
11
2.1950201968503937
21
-1.3001656692913386
0
LINE
8
BLACK
6
CONTINUOUS
10
2.3950201968503935
20
-1.3001656692913386
11
2.4044209842519684
21
-1.3032201968503936
0
LINE
8
BLACK
6
CONTINUOUS
10
2.4044209842519684
20
-1.3032201968503936
11
2.4132282677165353
21
-1.3077077165354329
0
LINE
8
BLACK
6
CONTINUOUS
10
2.4132282677165353
20
-1.3077077165354329
11
2.4212250787401572
21
-1.313517716535433
0
LINE
8
BLACK
6
CONTINUOUS
10
2.4212250787401572
20
-1.313517716535433
11
2.428214566929134
21
-1.3205072047244095
0
LINE
8
BLACK
6
CONTINUOUS
10
2.428214566929134
20
-1.3205072047244095
11
2.4340245669291338
21
-1.3285040157480315
0
LINE
8
BLACK
6
CONTINUOUS
10
2.4340245669291338
20
-1.3285040157480315
11
2.438512086614173
21
-1.3373112992125984
0
LINE
8
BLACK
6
CONTINUOUS
10
2.438512086614173
20
-1.3373112992125984
11
2.4415666141732282
21
-1.3467120866141733
0
LINE
8
BLACK
6
CONTINUOUS
10
2.4415666141732282
20
-1.3467120866141733
11
2.4431129133858267
21
-1.3564749999999999
0
LINE
8
BLACK
6
CONTINUOUS
10
2.4431129133858267
20
-1.3564749999999999
11
2.4431129133858267
21
-1.3663596456692912
0
LINE
8
BLACK
6
CONTINUOUS
10
2.4431129133858267
20
-1.3663596456692912
11
2.4415666141732282
21
-1.376122559055118
0
LINE
8
BLACK
6
CONTINUOUS
10
2.4415666141732282
20
-1.376122559055118
11
2.438512086614173
21
-1.385523346456693
0
LINE
8
BLACK
6
CONTINUOUS
10
2.438512086614173
20
-1.385523346456693
11
2.4340245669291338
21
-1.3943306299212599
0
LINE
8
BLACK
6
CONTINUOUS
10
2.4340245669291338
20
-1.3943306299212599
11
2.428214566929134
21
-1.4023274409448818
0
LINE
8
BLACK
6
CONTINUOUS
10
2.428214566929134
20
-1.4023274409448818
11
2.4212250787401572
21
-1.4093169291338583
0
LINE
8
BLACK
6
CONTINUOUS
10
2.4212250787401572
20
-1.4093169291338583
11
2.4132282677165353
21
-1.4151269291338582
0
LINE
8
BLACK
6
CONTINUOUS
10
2.4132282677165353
20
-1.4151269291338582
11
2.4044209842519684
21
-1.4196144488188975
0
LINE
8
BLACK
6
CONTINUOUS
10
2.4044209842519684
20
-1.4196144488188975
11
2.3950201968503935
21
-1.4226689763779528
0
LINE
8
BLACK
6
CONTINUOUS
10
2.3950201968503935
20
-1.4226689763779528
11
2.3852572834645667
21
-1.4242152755905511
0
LINE
8
BLACK
6
CONTINUOUS
10
2.3852572834645667
20
-1.4242152755905511
11
2.3753726377952757
21
-1.4242152755905511
0
LINE
8
BLACK
6
CONTINUOUS
10
2.3753726377952757
20
-1.4242152755905511
11
2.3656097244094489
21
-1.4226689763779528
0
LINE
8
BLACK
6
CONTINUOUS
10
2.3656097244094489
20
-1.4226689763779528
11
2.356208937007874
21
-1.4196144488188975
0
LINE
8
BLACK
6
CONTINUOUS
10
2.356208937007874
20
-1.4196144488188975
11
2.3474016535433071
21
-1.4151269291338582
0
LINE
8
BLACK
6
CONTINUOUS
10
2.3474016535433071
20
-1.4151269291338582
11
2.3394048425196852
21
-1.4093169291338583
0
LINE
8
BLACK
6
CONTINUOUS
10
2.3394048425196852
20
-1.4093169291338583
11
2.3324153543307085
21
-1.4023274409448818
0
LINE
8
BLACK
6
CONTINUOUS
10
2.3324153543307085
20
-1.4023274409448818
11
2.3266053543307086
21
-1.3943306299212599
0
LINE
8
BLACK
6
CONTINUOUS
10
2.3266053543307086
20
-1.3943306299212599
11
2.3221178346456695
21
-1.385523346456693
0
LINE
8
BLACK
6
CONTINUOUS
10
2.3221178346456695
20
-1.385523346456693
11
2.3190633070866142
21
-1.376122559055118
0
LINE
8
BLACK
6
CONTINUOUS
10
2.3190633070866142
20
-1.376122559055118
11
2.3175170078740157
21
-1.3663596456692912
0
LINE
8
BLACK
6
CONTINUOUS
10
2.3175170078740157
20
-1.3663596456692912
11
2.3175170078740157
21
-1.3564749999999999
0
LINE
8
BLACK
6
CONTINUOUS
10
2.3175170078740157
20
-1.3564749999999999
11
2.3190633070866142
21
-1.3467120866141733
0
LINE
8
BLACK
6
CONTINUOUS
10
2.3190633070866142
20
-1.3467120866141733
11
2.3221178346456695
21
-1.3373112992125984
0
LINE
8
BLACK
6
CONTINUOUS
10
2.3221178346456695
20
-1.3373112992125984
11
2.3266053543307086
21
-1.3285040157480315
0
LINE
8
BLACK
6
CONTINUOUS
10
2.3266053543307086
20
-1.3285040157480315
11
2.3324153543307085
21
-1.3205072047244095
0
LINE
8
BLACK
6
CONTINUOUS
10
2.3324153543307085
20
-1.3205072047244095
11
2.3394048425196852
21
-1.313517716535433
0
LINE
8
BLACK
6
CONTINUOUS
10
2.3394048425196852
20
-1.313517716535433
11
2.3474016535433071
21
-1.3077077165354329
0
LINE
8
BLACK
6
CONTINUOUS
10
2.3474016535433071
20
-1.3077077165354329
11
2.356208937007874
21
-1.3032201968503936
0
LINE
8
BLACK
6
CONTINUOUS
10
2.356208937007874
20
-1.3032201968503936
11
2.3656097244094489
21
-1.3001656692913386
0
LINE
8
BLACK
6
CONTINUOUS
10
2.3656097244094489
20
-1.3001656692913386
11
2.3753726377952757
21
-1.2986193700787401
0
LINE
8
BLACK
6
CONTINUOUS
10
2.3753726377952757
20
-1.2986193700787401
11
2.3852572834645667
21
-1.2986193700787401
0
LINE
8
BLACK
6
CONTINUOUS
10
2.3852572834645667
20
-1.2986193700787401
11
2.3950201968503935
21
-1.3001656692913386
0
LINE
8
BLACK
6
CONTINUOUS
10
1.614252559055118
20
-1.0279098425196851
11
1.624582874015748
21
-1.0302676377952755
0
LINE
8
BLACK
6
CONTINUOUS
10
1.624582874015748
20
-1.0302676377952755
11
1.6345842519685039
21
-1.0337672834645668
0
LINE
8
BLACK
6
CONTINUOUS
10
1.6345842519685039
20
-1.0337672834645668
11
1.644130905511811
21
-1.0383647244094487
0
LINE
8
BLACK
6
CONTINUOUS
10
1.644130905511811
20
-1.0383647244094487
11
1.6531027952755906
21
-1.044002125984252
0
LINE
8
BLACK
6
CONTINUOUS
10
1.6531027952755906
20
-1.044002125984252
11
1.6613870866141731
21
-1.0506086220472441
0
LINE
8
BLACK
6
CONTINUOUS
10
1.6613870866141731
20
-1.0506086220472441
11
1.6688795669291339
21
-1.0581011023622047
0
LINE
8
BLACK
6
CONTINUOUS
10
1.6688795669291339
20
-1.0581011023622047
11
1.675486062992126
21
-1.0663853937007874
0
LINE
8
BLACK
6
CONTINUOUS
10
1.675486062992126
20
-1.0663853937007874
11
1.6811234645669291
21
-1.0753572834645668
0
LINE
8
BLACK
6
CONTINUOUS
10
1.6811234645669291
20
-1.0753572834645668
11
1.685720905511811
21
-1.0849039370078739
0
LINE
8
BLACK
6
CONTINUOUS
10
1.685720905511811
20
-1.0849039370078739
11
1.6892205511811023
21
-1.0949053149606298
0
LINE
8
BLACK
6
CONTINUOUS
10
1.6892205511811023
20
-1.0949053149606298
11
1.6915783464566929
21
-1.1052356299212598
0
LINE
8
BLACK
6
CONTINUOUS
10
1.6915783464566929
20
-1.1052356299212598
11
1.6927647244094488
21
-1.1157649999999999
0
LINE
8
BLACK
6
CONTINUOUS
10
1.6927647244094488
20
-1.1157649999999999
11
1.6927647244094488
21
-1.1263609842519684
0
LINE
8
BLACK
6
CONTINUOUS
10
1.6927647244094488
20
-1.1263609842519684
11
1.6915783464566929
21
-1.1368903543307087
0
LINE
8
BLACK
6
CONTINUOUS
10
1.6915783464566929
20
-1.1368903543307087
11
1.6892205511811023
21
-1.1472206692913385
0
LINE
8
BLACK
6
CONTINUOUS
10
1.6892205511811023
20
-1.1472206692913385
11
1.685720905511811
21
-1.1572220472440944
0
LINE
8
BLACK
6
CONTINUOUS
10
1.685720905511811
20
-1.1572220472440944
11
1.6811234645669291
21
-1.1667687007874015
0
LINE
8
BLACK
6
CONTINUOUS
10
1.6811234645669291
20
-1.1667687007874015
11
1.675486062992126
21
-1.1757405905511811
0
LINE
8
BLACK
6
CONTINUOUS
10
1.675486062992126
20
-1.1757405905511811
11
1.6688795669291339
21
-1.1840248818897638
0
LINE
8
BLACK
6
CONTINUOUS
10
1.6688795669291339
20
-1.1840248818897638
11
1.6613870866141731
21
-1.1915173622047244
0
LINE
8
BLACK
6
CONTINUOUS
10
1.6613870866141731
20
-1.1915173622047244
11
1.6531027952755906
21
-1.1981238582677165
0
LINE
8
BLACK
6
CONTINUOUS
10
1.6531027952755906
20
-1.1981238582677165
11
1.644130905511811
21
-1.2037612598425196
0
LINE
8
BLACK
6
CONTINUOUS
10
1.644130905511811
20
-1.2037612598425196
11
1.6345842519685039
21
-1.2083587007874015
0
LINE
8
BLACK
6
CONTINUOUS
10
1.6345842519685039
20
-1.2083587007874015
11
1.624582874015748
21
-1.211858346456693
0
LINE
8
BLACK
6
CONTINUOUS
10
1.624582874015748
20
-1.211858346456693
11
1.614252559055118
21
-1.2142161417322834
0
LINE
8
BLACK
6
CONTINUOUS
10
1.614252559055118
20
-1.2142161417322834
11
1.6037231889763779
21
-1.2154025196850393
0
LINE
8
BLACK
6
CONTINUOUS
10
1.6037231889763779
20
-1.2154025196850393
11
1.5931272047244094
21
-1.2154025196850393
0
LINE
8
BLACK
6
CONTINUOUS
10
1.5931272047244094
20
-1.2154025196850393
11
1.5825978346456693
21
-1.2142161417322834
0
LINE
8
BLACK
6
CONTINUOUS
10
1.5825978346456693
20
-1.2142161417322834
11
1.5722675196850393
21
-1.211858346456693
0
LINE
8
BLACK
6
CONTINUOUS
10
1.5722675196850393
20
-1.211858346456693
11
1.5622661417322834
21
-1.2083587007874015
0
LINE
8
BLACK
6
CONTINUOUS
10
1.5622661417322834
20
-1.2083587007874015
11
1.5527194881889763
21
-1.2037612598425196
0
LINE
8
BLACK
6
CONTINUOUS
10
1.5527194881889763
20
-1.2037612598425196
11
1.5437475984251967
21
-1.1981238582677165
0
LINE
8
BLACK
6
CONTINUOUS
10
1.5437475984251967
20
-1.1981238582677165
11
1.5354633070866142
21
-1.1915173622047244
0
LINE
8
BLACK
6
CONTINUOUS
10
1.5354633070866142
20
-1.1915173622047244
11
1.5279708267716534
21
-1.1840248818897638
0
LINE
8
BLACK
6
CONTINUOUS
10
1.5279708267716534
20
-1.1840248818897638
11
1.5213643307086613
21
-1.1757405905511811
0
LINE
8
BLACK
6
CONTINUOUS
10
1.5213643307086613
20
-1.1757405905511811
11
1.5157269291338582
21
-1.1667687007874015
0
LINE
8
BLACK
6
CONTINUOUS
10
1.5157269291338582
20
-1.1667687007874015
11
1.5111294881889763
21
-1.1572220472440944
0
LINE
8
BLACK
6
CONTINUOUS
10
1.5111294881889763
20
-1.1572220472440944
11
1.507629842519685
21
-1.1472206692913385
0
LINE
8
BLACK
6
CONTINUOUS
10
1.507629842519685
20
-1.1472206692913385
11
1.5052720472440944
21
-1.1368903543307087
0
LINE
8
BLACK
6
CONTINUOUS
10
1.5052720472440944
20
-1.1368903543307087
11
1.5040856692913385
21
-1.1263609842519684
0
LINE
8
BLACK
6
CONTINUOUS
10
1.5040856692913385
20
-1.1263609842519684
11
1.5040856692913385
21
-1.1157649999999999
0
LINE
8
BLACK
6
CONTINUOUS
10
1.5040856692913385
20
-1.1157649999999999
11
1.5052720472440944
21
-1.1052356299212598
0
LINE
8
BLACK
6
CONTINUOUS
10
1.5052720472440944
20
-1.1052356299212598
11
1.507629842519685
21
-1.0949053149606298
0
LINE
8
BLACK
6
CONTINUOUS
10
1.507629842519685
20
-1.0949053149606298
11
1.5111294881889763
21
-1.0849039370078739
0
LINE
8
BLACK
6
CONTINUOUS
10
1.5111294881889763
20
-1.0849039370078739
11
1.5157269291338582
21
-1.0753572834645668
0
LINE
8
BLACK
6
CONTINUOUS
10
1.5157269291338582
20
-1.0753572834645668
11
1.5213643307086613
21
-1.0663853937007874
0
LINE
8
BLACK
6
CONTINUOUS
10
1.5213643307086613
20
-1.0663853937007874
11
1.5279708267716534
21
-1.0581011023622047
0
LINE
8
BLACK
6
CONTINUOUS
10
1.5279708267716534
20
-1.0581011023622047
11
1.5354633070866142
21
-1.0506086220472441
0
LINE
8
BLACK
6
CONTINUOUS
10
1.5354633070866142
20
-1.0506086220472441
11
1.5437475984251967
21
-1.044002125984252
0
LINE
8
BLACK
6
CONTINUOUS
10
1.5437475984251967
20
-1.044002125984252
11
1.5527194881889763
21
-1.0383647244094487
0
LINE
8
BLACK
6
CONTINUOUS
10
1.5527194881889763
20
-1.0383647244094487
11
1.5622661417322834
21
-1.0337672834645668
0
LINE
8
BLACK
6
CONTINUOUS
10
1.5622661417322834
20
-1.0337672834645668
11
1.5722675196850393
21
-1.0302676377952755
0
LINE
8
BLACK
6
CONTINUOUS
10
1.5722675196850393
20
-1.0302676377952755
11
1.5825978346456693
21
-1.0279098425196851
0
LINE
8
BLACK
6
CONTINUOUS
10
1.5825978346456693
20
-1.0279098425196851
11
1.5931272047244094
21
-1.0267234645669292
0
LINE
8
BLACK
6
CONTINUOUS
10
1.5931272047244094
20
-1.0267234645669292
11
1.6037231889763779
21
-1.0267234645669292
0
LINE
8
BLACK
6
CONTINUOUS
10
1.6037231889763779
20
-1.0267234645669292
11
1.614252559055118
21
-1.0279098425196851
0
LINE
8
BLACK
6
CONTINUOUS
10
1.9961423228346455
20
-1.0279098425196851
11
2.0064726377952757
21
-1.0302676377952755
0
LINE
8
BLACK
6
CONTINUOUS
10
2.0064726377952757
20
-1.0302676377952755
11
2.0164740157480314
21
-1.0337672834645668
0
LINE
8
BLACK
6
CONTINUOUS
10
2.0164740157480314
20
-1.0337672834645668
11
2.0260206692913387
21
-1.0383647244094487
0
LINE
8
BLACK
6
CONTINUOUS
10
2.0260206692913387
20
-1.0383647244094487
11
2.0349925590551181
21
-1.044002125984252
0
LINE
8
BLACK
6
CONTINUOUS
10
2.0349925590551181
20
-1.044002125984252
11
2.0432768503937009
21
-1.0506086220472441
0
LINE
8
BLACK
6
CONTINUOUS
10
2.0432768503937009
20
-1.0506086220472441
11
2.0507693307086612
21
-1.0581011023622047
0
LINE
8
BLACK
6
CONTINUOUS
10
2.0507693307086612
20
-1.0581011023622047
11
2.0573758267716533
21
-1.0663853937007874
0
LINE
8
BLACK
6
CONTINUOUS
10
2.0573758267716533
20
-1.0663853937007874
11
2.0630132283464566
21
-1.0753572834645668
0
LINE
8
BLACK
6
CONTINUOUS
10
2.0630132283464566
20
-1.0753572834645668
11
2.0676106692913385
21
-1.0849039370078739
0
LINE
8
BLACK
6
CONTINUOUS
10
2.0676106692913385
20
-1.0849039370078739
11
2.07111031496063
21
-1.0949053149606298
0
LINE
8
BLACK
6
CONTINUOUS
10
2.07111031496063
20
-1.0949053149606298
11
2.0734681102362202
21
-1.1052356299212598
0
LINE
8
BLACK
6
CONTINUOUS
10
2.0734681102362202
20
-1.1052356299212598
11
2.0746544881889761
21
-1.1157649999999999
0
LINE
8
BLACK
6
CONTINUOUS
10
2.0746544881889761
20
-1.1157649999999999
11
2.0746544881889761
21
-1.1263609842519684
0
LINE
8
BLACK
6
CONTINUOUS
10
2.0746544881889761
20
-1.1263609842519684
11
2.0734681102362202
21
-1.1368903543307087
0
LINE
8
BLACK
6
CONTINUOUS
10
2.0734681102362202
20
-1.1368903543307087
11
2.07111031496063
21
-1.1472206692913385
0
LINE
8
BLACK
6
CONTINUOUS
10
2.07111031496063
20
-1.1472206692913385
11
2.0676106692913385
21
-1.1572220472440944
0
LINE
8
BLACK
6
CONTINUOUS
10
2.0676106692913385
20
-1.1572220472440944
11
2.0630132283464566
21
-1.1667687007874015
0
LINE
8
BLACK
6
CONTINUOUS
10
2.0630132283464566
20
-1.1667687007874015
11
2.0573758267716533
21
-1.1757405905511811
0
LINE
8
BLACK
6
CONTINUOUS
10
2.0573758267716533
20
-1.1757405905511811
11
2.0507693307086612
21
-1.1840248818897638
0
LINE
8
BLACK
6
CONTINUOUS
10
2.0507693307086612
20
-1.1840248818897638
11
2.0432768503937009
21
-1.1915173622047244
0
LINE
8
BLACK
6
CONTINUOUS
10
2.0432768503937009
20
-1.1915173622047244
11
2.0349925590551181
21
-1.1981238582677165
0
LINE
8
BLACK
6
CONTINUOUS
10
2.0349925590551181
20
-1.1981238582677165
11
2.0260206692913387
21
-1.2037612598425196
0
LINE
8
BLACK
6
CONTINUOUS
10
2.0260206692913387
20
-1.2037612598425196
11
2.0164740157480314
21
-1.2083587007874015
0
LINE
8
BLACK
6
CONTINUOUS
10
2.0164740157480314
20
-1.2083587007874015
11
2.0064726377952757
21
-1.211858346456693
0
LINE
8
BLACK
6
CONTINUOUS
10
2.0064726377952757
20
-1.211858346456693
11
1.9961423228346455
21
-1.2142161417322834
0
LINE
8
BLACK
6
CONTINUOUS
10
1.9961423228346455
20
-1.2142161417322834
11
1.9856129527559054
21
-1.2154025196850393
0
LINE
8
BLACK
6
CONTINUOUS
10
1.9856129527559054
20
-1.2154025196850393
11
1.9750169685039369
21
-1.2154025196850393
0
LINE
8
BLACK
6
CONTINUOUS
10
1.9750169685039369
20
-1.2154025196850393
11
1.9644875984251968
21
-1.2142161417322834
0
LINE
8
BLACK
6
CONTINUOUS
10
1.9644875984251968
20
-1.2142161417322834
11
1.9541572834645669
21
-1.211858346456693
0
LINE
8
BLACK
6
CONTINUOUS
10
1.9541572834645669
20
-1.211858346456693
11
1.9441559055118109
21
-1.2083587007874015
0
LINE
8
BLACK
6
CONTINUOUS
10
1.9441559055118109
20
-1.2083587007874015
11
1.9346092519685039
21
-1.2037612598425196
0
LINE
8
BLACK
6
CONTINUOUS
10
1.9346092519685039
20
-1.2037612598425196
11
1.9256373622047243
21
-1.1981238582677165
0
LINE
8
BLACK
6
CONTINUOUS
10
1.9256373622047243
20
-1.1981238582677165
11
1.9173530708661417
21
-1.1915173622047244
0
LINE
8
BLACK
6
CONTINUOUS
10
1.9173530708661417
20
-1.1915173622047244
11
1.909860590551181
21
-1.1840248818897638
0
LINE
8
BLACK
6
CONTINUOUS
10
1.909860590551181
20
-1.1840248818897638
11
1.9032540944881888
21
-1.1757405905511811
0
LINE
8
BLACK
6
CONTINUOUS
10
1.9032540944881888
20
-1.1757405905511811
11
1.8976166929133857
21
-1.1667687007874015
0
LINE
8
BLACK
6
CONTINUOUS
10
1.8976166929133857
20
-1.1667687007874015
11
1.8930192519685038
21
-1.1572220472440944
0
LINE
8
BLACK
6
CONTINUOUS
10
1.8930192519685038
20
-1.1572220472440944
11
1.8895196062992126
21
-1.1472206692913385
0
LINE
8
BLACK
6
CONTINUOUS
10
1.8895196062992126
20
-1.1472206692913385
11
1.8871618110236219
21
-1.1368903543307087
0
LINE
8
BLACK
6
CONTINUOUS
10
1.8871618110236219
20
-1.1368903543307087
11
1.885975433070866
21
-1.1263609842519684
0
LINE
8
BLACK
6
CONTINUOUS
10
1.885975433070866
20
-1.1263609842519684
11
1.885975433070866
21
-1.1157649999999999
0
LINE
8
BLACK
6
CONTINUOUS
10
1.885975433070866
20
-1.1157649999999999
11
1.8871618110236219
21
-1.1052356299212598
0
LINE
8
BLACK
6
CONTINUOUS
10
1.8871618110236219
20
-1.1052356299212598
11
1.8895196062992126
21
-1.0949053149606298
0
LINE
8
BLACK
6
CONTINUOUS
10
1.8895196062992126
20
-1.0949053149606298
11
1.8930192519685038
21
-1.0849039370078739
0
LINE
8
BLACK
6
CONTINUOUS
10
1.8930192519685038
20
-1.0849039370078739
11
1.8976166929133857
21
-1.0753572834645668
0
LINE
8
BLACK
6
CONTINUOUS
10
1.8976166929133857
20
-1.0753572834645668
11
1.9032540944881888
21
-1.0663853937007874
0
LINE
8
BLACK
6
CONTINUOUS
10
1.9032540944881888
20
-1.0663853937007874
11
1.909860590551181
21
-1.0581011023622047
0
LINE
8
BLACK
6
CONTINUOUS
10
1.909860590551181
20
-1.0581011023622047
11
1.9173530708661417
21
-1.0506086220472441
0
LINE
8
BLACK
6
CONTINUOUS
10
1.9173530708661417
20
-1.0506086220472441
11
1.9256373622047243
21
-1.044002125984252
0
LINE
8
BLACK
6
CONTINUOUS
10
1.9256373622047243
20
-1.044002125984252
11
1.9346092519685039
21
-1.0383647244094487
0
LINE
8
BLACK
6
CONTINUOUS
10
1.9346092519685039
20
-1.0383647244094487
11
1.9441559055118109
21
-1.0337672834645668
0
LINE
8
BLACK
6
CONTINUOUS
10
1.9441559055118109
20
-1.0337672834645668
11
1.9541572834645669
21
-1.0302676377952755
0
LINE
8
BLACK
6
CONTINUOUS
10
1.9541572834645669
20
-1.0302676377952755
11
1.9644875984251968
21
-1.0279098425196851
0
LINE
8
BLACK
6
CONTINUOUS
10
1.9644875984251968
20
-1.0279098425196851
11
1.9750169685039369
21
-1.0267234645669292
0
LINE
8
BLACK
6
CONTINUOUS
10
1.9750169685039369
20
-1.0267234645669292
11
1.9856129527559054
21
-1.0267234645669292
0
LINE
8
BLACK
6
CONTINUOUS
10
1.9856129527559054
20
-1.0267234645669292
11
1.9961423228346455
21
-1.0279098425196851
0
LINE
8
BLACK
6
CONTINUOUS
10
2.3961423228346455
20
-1.0279098425196851
11
2.4064726377952756
21
-1.0302676377952755
0
LINE
8
BLACK
6
CONTINUOUS
10
2.4064726377952756
20
-1.0302676377952755
11
2.4164740157480313
21
-1.0337672834645668
0
LINE
8
BLACK
6
CONTINUOUS
10
2.4164740157480313
20
-1.0337672834645668
11
2.4260206692913386
21
-1.0383647244094487
0
LINE
8
BLACK
6
CONTINUOUS
10
2.4260206692913386
20
-1.0383647244094487
11
2.434992559055118
21
-1.044002125984252
0
LINE
8
BLACK
6
CONTINUOUS
10
2.434992559055118
20
-1.044002125984252
11
2.4432768503937008
21
-1.0506086220472441
0
LINE
8
BLACK
6
CONTINUOUS
10
2.4432768503937008
20
-1.0506086220472441
11
2.4507693307086615
21
-1.0581011023622047
0
LINE
8
BLACK
6
CONTINUOUS
10
2.4507693307086615
20
-1.0581011023622047
11
2.4573758267716537
21
-1.0663853937007874
0
LINE
8
BLACK
6
CONTINUOUS
10
2.4573758267716537
20
-1.0663853937007874
11
2.4630132283464565
21
-1.0753572834645668
0
LINE
8
BLACK
6
CONTINUOUS
10
2.4630132283464565
20
-1.0753572834645668
11
2.4676106692913384
21
-1.0849039370078739
0
LINE
8
BLACK
6
CONTINUOUS
10
2.4676106692913384
20
-1.0849039370078739
11
2.4711103149606299
21
-1.0949053149606298
0
LINE
8
BLACK
6
CONTINUOUS
10
2.4711103149606299
20
-1.0949053149606298
11
2.4734681102362206
21
-1.1052356299212598
0
LINE
8
BLACK
6
CONTINUOUS
10
2.4734681102362206
20
-1.1052356299212598
11
2.4746544881889765
21
-1.1157649999999999
0
LINE
8
BLACK
6
CONTINUOUS
10
2.4746544881889765
20
-1.1157649999999999
11
2.4746544881889765
21
-1.1263609842519684
0
LINE
8
BLACK
6
CONTINUOUS
10
2.4746544881889765
20
-1.1263609842519684
11
2.4734681102362206
21
-1.1368903543307087
0
LINE
8
BLACK
6
CONTINUOUS
10
2.4734681102362206
20
-1.1368903543307087
11
2.4711103149606299
21
-1.1472206692913385
0
LINE
8
BLACK
6
CONTINUOUS
10
2.4711103149606299
20
-1.1472206692913385
11
2.4676106692913384
21
-1.1572220472440944
0
LINE
8
BLACK
6
CONTINUOUS
10
2.4676106692913384
20
-1.1572220472440944
11
2.4630132283464565
21
-1.1667687007874015
0
LINE
8
BLACK
6
CONTINUOUS
10
2.4630132283464565
20
-1.1667687007874015
11
2.4573758267716537
21
-1.1757405905511811
0
LINE
8
BLACK
6
CONTINUOUS
10
2.4573758267716537
20
-1.1757405905511811
11
2.4507693307086615
21
-1.1840248818897638
0
LINE
8
BLACK
6
CONTINUOUS
10
2.4507693307086615
20
-1.1840248818897638
11
2.4432768503937008
21
-1.1915173622047244
0
LINE
8
BLACK
6
CONTINUOUS
10
2.4432768503937008
20
-1.1915173622047244
11
2.434992559055118
21
-1.1981238582677165
0
LINE
8
BLACK
6
CONTINUOUS
10
2.434992559055118
20
-1.1981238582677165
11
2.4260206692913386
21
-1.2037612598425196
0
LINE
8
BLACK
6
CONTINUOUS
10
2.4260206692913386
20
-1.2037612598425196
11
2.4164740157480313
21
-1.2083587007874015
0
LINE
8
BLACK
6
CONTINUOUS
10
2.4164740157480313
20
-1.2083587007874015
11
2.4064726377952756
21
-1.211858346456693
0
LINE
8
BLACK
6
CONTINUOUS
10
2.4064726377952756
20
-1.211858346456693
11
2.3961423228346455
21
-1.2142161417322834
0
LINE
8
BLACK
6
CONTINUOUS
10
2.3961423228346455
20
-1.2142161417322834
11
2.3856129527559053
21
-1.2154025196850393
0
LINE
8
BLACK
6
CONTINUOUS
10
2.3856129527559053
20
-1.2154025196850393
11
2.3750169685039371
21
-1.2154025196850393
0
LINE
8
BLACK
6
CONTINUOUS
10
2.3750169685039371
20
-1.2154025196850393
11
2.364487598425197
21
-1.2142161417322834
0
LINE
8
BLACK
6
CONTINUOUS
10
2.364487598425197
20
-1.2142161417322834
11
2.3541572834645668
21
-1.211858346456693
0
LINE
8
BLACK
6
CONTINUOUS
10
2.3541572834645668
20
-1.211858346456693
11
2.3441559055118111
21
-1.2083587007874015
0
LINE
8
BLACK
6
CONTINUOUS
10
2.3441559055118111
20
-1.2083587007874015
11
2.3346092519685038
21
-1.2037612598425196
0
LINE
8
BLACK
6
CONTINUOUS
10
2.3346092519685038
20
-1.2037612598425196
11
2.3256373622047244
21
-1.1981238582677165
0
LINE
8
BLACK
6
CONTINUOUS
10
2.3256373622047244
20
-1.1981238582677165
11
2.3173530708661416
21
-1.1915173622047244
0
LINE
8
BLACK
6
CONTINUOUS
10
2.3173530708661416
20
-1.1915173622047244
11
2.3098605905511809
21
-1.1840248818897638
0
LINE
8
BLACK
6
CONTINUOUS
10
2.3098605905511809
20
-1.1840248818897638
11
2.3032540944881887
21
-1.1757405905511811
0
LINE
8
BLACK
6
CONTINUOUS
10
2.3032540944881887
20
-1.1757405905511811
11
2.2976166929133859
21
-1.1667687007874015
0
LINE
8
BLACK
6
CONTINUOUS
10
2.2976166929133859
20
-1.1667687007874015
11
2.293019251968504
21
-1.1572220472440944
0
LINE
8
BLACK
6
CONTINUOUS
10
2.293019251968504
20
-1.1572220472440944
11
2.2895196062992125
21
-1.1472206692913385
0
LINE
8
BLACK
6
CONTINUOUS
10
2.2895196062992125
20
-1.1472206692913385
11
2.2871618110236218
21
-1.1368903543307087
0
LINE
8
BLACK
6
CONTINUOUS
10
2.2871618110236218
20
-1.1368903543307087
11
2.2859754330708659
21
-1.1263609842519684
0
LINE
8
BLACK
6
CONTINUOUS
10
2.2859754330708659
20
-1.1263609842519684
11
2.2859754330708659
21
-1.1157649999999999
0
LINE
8
BLACK
6
CONTINUOUS
10
2.2859754330708659
20
-1.1157649999999999
11
2.2871618110236218
21
-1.1052356299212598
0
LINE
8
BLACK
6
CONTINUOUS
10
2.2871618110236218
20
-1.1052356299212598
11
2.2895196062992125
21
-1.0949053149606298
0
LINE
8
BLACK
6
CONTINUOUS
10
2.2895196062992125
20
-1.0949053149606298
11
2.293019251968504
21
-1.0849039370078739
0
LINE
8
BLACK
6
CONTINUOUS
10
2.293019251968504
20
-1.0849039370078739
11
2.2976166929133859
21
-1.0753572834645668
0
LINE
8
BLACK
6
CONTINUOUS
10
2.2976166929133859
20
-1.0753572834645668
11
2.3032540944881887
21
-1.0663853937007874
0
LINE
8
BLACK
6
CONTINUOUS
10
2.3032540944881887
20
-1.0663853937007874
11
2.3098605905511809
21
-1.0581011023622047
0
LINE
8
BLACK
6
CONTINUOUS
10
2.3098605905511809
20
-1.0581011023622047
11
2.3173530708661416
21
-1.0506086220472441
0
LINE
8
BLACK
6
CONTINUOUS
10
2.3173530708661416
20
-1.0506086220472441
11
2.3256373622047244
21
-1.044002125984252
0
LINE
8
BLACK
6
CONTINUOUS
10
2.3256373622047244
20
-1.044002125984252
11
2.3346092519685038
21
-1.0383647244094487
0
LINE
8
BLACK
6
CONTINUOUS
10
2.3346092519685038
20
-1.0383647244094487
11
2.3441559055118111
21
-1.0337672834645668
0
LINE
8
BLACK
6
CONTINUOUS
10
2.3441559055118111
20
-1.0337672834645668
11
2.3541572834645668
21
-1.0302676377952755
0
LINE
8
BLACK
6
CONTINUOUS
10
2.3541572834645668
20
-1.0302676377952755
11
2.364487598425197
21
-1.0279098425196851
0
LINE
8
BLACK
6
CONTINUOUS
10
2.364487598425197
20
-1.0279098425196851
11
2.3750169685039371
21
-1.0267234645669292
0
LINE
8
BLACK
6
CONTINUOUS
10
2.3750169685039371
20
-1.0267234645669292
11
2.3856129527559053
21
-1.0267234645669292
0
LINE
8
BLACK
6
CONTINUOUS
10
2.3856129527559053
20
-1.0267234645669292
11
2.3961423228346455
21
-1.0279098425196851
  0
ENDSEC
  0
EOF
