%TF.GenerationSoftware,KiCad,Pcbnew,7.0.2-0*%
%TF.CreationDate,2023-07-24T20:11:18-04:00*%
%TF.ProjectId,data_logger,64617461-5f6c-46f6-9767-65722e6b6963,rev?*%
%TF.SameCoordinates,Original*%
%TF.FileFunction,Paste,Top*%
%TF.FilePolarity,Positive*%
%FSLAX46Y46*%
G04 Gerber Fmt 4.6, Leading zero omitted, Abs format (unit mm)*
G04 Created by KiCad (PCBNEW 7.0.2-0) date 2023-07-24 20:11:18*
%MOMM*%
%LPD*%
G01*
G04 APERTURE LIST*
G04 Aperture macros list*
%AMRoundRect*
0 Rectangle with rounded corners*
0 $1 Rounding radius*
0 $2 $3 $4 $5 $6 $7 $8 $9 X,Y pos of 4 corners*
0 Add a 4 corners polygon primitive as box body*
4,1,4,$2,$3,$4,$5,$6,$7,$8,$9,$2,$3,0*
0 Add four circle primitives for the rounded corners*
1,1,$1+$1,$2,$3*
1,1,$1+$1,$4,$5*
1,1,$1+$1,$6,$7*
1,1,$1+$1,$8,$9*
0 Add four rect primitives between the rounded corners*
20,1,$1+$1,$2,$3,$4,$5,0*
20,1,$1+$1,$4,$5,$6,$7,0*
20,1,$1+$1,$6,$7,$8,$9,0*
20,1,$1+$1,$8,$9,$2,$3,0*%
%AMFreePoly0*
4,1,5,0.881000,-3.981000,-0.881000,-3.981000,-0.881000,3.981000,0.881000,3.981000,0.881000,-3.981000,0.881000,-3.981000,$1*%
G04 Aperture macros list end*
%ADD10RoundRect,0.200000X0.275000X-0.200000X0.275000X0.200000X-0.275000X0.200000X-0.275000X-0.200000X0*%
%ADD11R,1.000000X2.750000*%
%ADD12RoundRect,0.218750X-0.381250X0.218750X-0.381250X-0.218750X0.381250X-0.218750X0.381250X0.218750X0*%
%ADD13FreePoly0,270.000000*%
%ADD14R,2.481000X1.462000*%
%ADD15RoundRect,0.250000X-0.475000X0.250000X-0.475000X-0.250000X0.475000X-0.250000X0.475000X0.250000X0*%
%ADD16RoundRect,0.200000X-0.275000X0.200000X-0.275000X-0.200000X0.275000X-0.200000X0.275000X0.200000X0*%
%ADD17R,1.200000X0.800000*%
%ADD18R,1.200000X0.700000*%
%ADD19R,1.200000X1.000000*%
%ADD20R,0.800000X1.000000*%
%ADD21R,2.800000X1.000000*%
%ADD22R,1.900000X1.000000*%
%ADD23RoundRect,0.218750X-0.256250X0.218750X-0.256250X-0.218750X0.256250X-0.218750X0.256250X0.218750X0*%
%ADD24RoundRect,0.225000X-0.225000X-0.250000X0.225000X-0.250000X0.225000X0.250000X-0.225000X0.250000X0*%
%ADD25O,0.280000X0.800000*%
%ADD26O,0.800000X0.280000*%
%ADD27RoundRect,0.225000X-0.250000X0.225000X-0.250000X-0.225000X0.250000X-0.225000X0.250000X0.225000X0*%
%ADD28RoundRect,0.150000X-0.150000X0.825000X-0.150000X-0.825000X0.150000X-0.825000X0.150000X0.825000X0*%
%ADD29R,1.800000X3.500000*%
%ADD30R,0.900000X1.500000*%
%ADD31R,1.500000X0.900000*%
%ADD32R,0.900000X0.900000*%
%ADD33R,0.800000X2.000000*%
%ADD34RoundRect,0.250000X0.425000X-0.450000X0.425000X0.450000X-0.425000X0.450000X-0.425000X-0.450000X0*%
%ADD35RoundRect,0.225000X-0.375000X0.225000X-0.375000X-0.225000X0.375000X-0.225000X0.375000X0.225000X0*%
%ADD36R,2.000000X1.500000*%
%ADD37R,2.000000X3.800000*%
%ADD38RoundRect,0.200000X-0.200000X-0.275000X0.200000X-0.275000X0.200000X0.275000X-0.200000X0.275000X0*%
%ADD39RoundRect,0.225000X0.250000X-0.225000X0.250000X0.225000X-0.250000X0.225000X-0.250000X-0.225000X0*%
%ADD40RoundRect,0.200000X0.200000X0.275000X-0.200000X0.275000X-0.200000X-0.275000X0.200000X-0.275000X0*%
%ADD41RoundRect,0.250000X-0.250000X-0.475000X0.250000X-0.475000X0.250000X0.475000X-0.250000X0.475000X0*%
%ADD42RoundRect,0.218750X-0.218750X-0.256250X0.218750X-0.256250X0.218750X0.256250X-0.218750X0.256250X0*%
G04 APERTURE END LIST*
%TO.C,U3*%
G36*
X51756200Y-35839400D02*
G01*
X50556200Y-35839400D01*
X50556200Y-35039400D01*
X51756200Y-35039400D01*
X51756200Y-35839400D01*
G37*
G36*
X51756200Y-34739400D02*
G01*
X50556200Y-34739400D01*
X50556200Y-33939400D01*
X51756200Y-33939400D01*
X51756200Y-34739400D01*
G37*
G36*
X51756200Y-33639400D02*
G01*
X50556200Y-33639400D01*
X50556200Y-32839400D01*
X51756200Y-32839400D01*
X51756200Y-33639400D01*
G37*
G36*
X51756200Y-32539400D02*
G01*
X50556200Y-32539400D01*
X50556200Y-31739400D01*
X51756200Y-31739400D01*
X51756200Y-32539400D01*
G37*
G36*
X51756200Y-31439400D02*
G01*
X50556200Y-31439400D01*
X50556200Y-30639400D01*
X51756200Y-30639400D01*
X51756200Y-31439400D01*
G37*
G36*
X51756200Y-28439400D02*
G01*
X50556200Y-28439400D01*
X50556200Y-27639400D01*
X51756200Y-27639400D01*
X51756200Y-28439400D01*
G37*
G36*
X51756200Y-27339400D02*
G01*
X50556200Y-27339400D01*
X50556200Y-26539400D01*
X51756200Y-26539400D01*
X51756200Y-27339400D01*
G37*
G36*
X51756200Y-26239400D02*
G01*
X50556200Y-26239400D01*
X50556200Y-25439400D01*
X51756200Y-25439400D01*
X51756200Y-26239400D01*
G37*
G36*
X51756200Y-25139400D02*
G01*
X50556200Y-25139400D01*
X50556200Y-24339400D01*
X51756200Y-24339400D01*
X51756200Y-25139400D01*
G37*
G36*
X51756200Y-24039400D02*
G01*
X50556200Y-24039400D01*
X50556200Y-23239400D01*
X51756200Y-23239400D01*
X51756200Y-24039400D01*
G37*
G36*
X51756200Y-22939400D02*
G01*
X50556200Y-22939400D01*
X50556200Y-22139400D01*
X51756200Y-22139400D01*
X51756200Y-22939400D01*
G37*
G36*
X51756200Y-21839400D02*
G01*
X50556200Y-21839400D01*
X50556200Y-21039400D01*
X51756200Y-21039400D01*
X51756200Y-21839400D01*
G37*
G36*
X50556200Y-35739400D02*
G01*
X49656200Y-35739400D01*
X49656200Y-35139400D01*
X50556200Y-35139400D01*
X50556200Y-35739400D01*
G37*
G36*
X50556200Y-34639400D02*
G01*
X49656200Y-34639400D01*
X49656200Y-34039400D01*
X50556200Y-34039400D01*
X50556200Y-34639400D01*
G37*
G36*
X50556200Y-33539400D02*
G01*
X49656200Y-33539400D01*
X49656200Y-32939400D01*
X50556200Y-32939400D01*
X50556200Y-33539400D01*
G37*
G36*
X50556200Y-32439400D02*
G01*
X49656200Y-32439400D01*
X49656200Y-31839400D01*
X50556200Y-31839400D01*
X50556200Y-32439400D01*
G37*
G36*
X50556200Y-31339400D02*
G01*
X49656200Y-31339400D01*
X49656200Y-30739400D01*
X50556200Y-30739400D01*
X50556200Y-31339400D01*
G37*
G36*
X50556200Y-28339400D02*
G01*
X49656200Y-28339400D01*
X49656200Y-27739400D01*
X50556200Y-27739400D01*
X50556200Y-28339400D01*
G37*
G36*
X50556200Y-27239400D02*
G01*
X49656200Y-27239400D01*
X49656200Y-26639400D01*
X50556200Y-26639400D01*
X50556200Y-27239400D01*
G37*
G36*
X50556200Y-26139400D02*
G01*
X49656200Y-26139400D01*
X49656200Y-25539400D01*
X50556200Y-25539400D01*
X50556200Y-26139400D01*
G37*
G36*
X50556200Y-25039400D02*
G01*
X49656200Y-25039400D01*
X49656200Y-24439400D01*
X50556200Y-24439400D01*
X50556200Y-25039400D01*
G37*
G36*
X50556200Y-23939400D02*
G01*
X49656200Y-23939400D01*
X49656200Y-23339400D01*
X50556200Y-23339400D01*
X50556200Y-23939400D01*
G37*
G36*
X50556200Y-22839400D02*
G01*
X49656200Y-22839400D01*
X49656200Y-22239400D01*
X50556200Y-22239400D01*
X50556200Y-22839400D01*
G37*
G36*
X50556200Y-21739400D02*
G01*
X49656200Y-21739400D01*
X49656200Y-21139400D01*
X50556200Y-21139400D01*
X50556200Y-21739400D01*
G37*
G36*
X39256200Y-35739400D02*
G01*
X38356200Y-35739400D01*
X38356200Y-35139400D01*
X39256200Y-35139400D01*
X39256200Y-35739400D01*
G37*
G36*
X39256200Y-34639400D02*
G01*
X38356200Y-34639400D01*
X38356200Y-34039400D01*
X39256200Y-34039400D01*
X39256200Y-34639400D01*
G37*
G36*
X39256200Y-33539400D02*
G01*
X38356200Y-33539400D01*
X38356200Y-32939400D01*
X39256200Y-32939400D01*
X39256200Y-33539400D01*
G37*
G36*
X39256200Y-32439400D02*
G01*
X38356200Y-32439400D01*
X38356200Y-31839400D01*
X39256200Y-31839400D01*
X39256200Y-32439400D01*
G37*
G36*
X39256200Y-31339400D02*
G01*
X38356200Y-31339400D01*
X38356200Y-30739400D01*
X39256200Y-30739400D01*
X39256200Y-31339400D01*
G37*
G36*
X39256200Y-28339400D02*
G01*
X38356200Y-28339400D01*
X38356200Y-27739400D01*
X39256200Y-27739400D01*
X39256200Y-28339400D01*
G37*
G36*
X39256200Y-27239400D02*
G01*
X38356200Y-27239400D01*
X38356200Y-26639400D01*
X39256200Y-26639400D01*
X39256200Y-27239400D01*
G37*
G36*
X39256200Y-26139400D02*
G01*
X38356200Y-26139400D01*
X38356200Y-25539400D01*
X39256200Y-25539400D01*
X39256200Y-26139400D01*
G37*
G36*
X39256200Y-25039400D02*
G01*
X38356200Y-25039400D01*
X38356200Y-24439400D01*
X39256200Y-24439400D01*
X39256200Y-25039400D01*
G37*
G36*
X39256200Y-23939400D02*
G01*
X38356200Y-23939400D01*
X38356200Y-23339400D01*
X39256200Y-23339400D01*
X39256200Y-23939400D01*
G37*
G36*
X39256200Y-22839400D02*
G01*
X38356200Y-22839400D01*
X38356200Y-22239400D01*
X39256200Y-22239400D01*
X39256200Y-22839400D01*
G37*
G36*
X39256200Y-21739400D02*
G01*
X38356200Y-21739400D01*
X38356200Y-21139400D01*
X39256200Y-21139400D01*
X39256200Y-21739400D01*
G37*
G36*
X38356200Y-35839400D02*
G01*
X37156200Y-35839400D01*
X37156200Y-35039400D01*
X38356200Y-35039400D01*
X38356200Y-35839400D01*
G37*
G36*
X38356200Y-34739400D02*
G01*
X37156200Y-34739400D01*
X37156200Y-33939400D01*
X38356200Y-33939400D01*
X38356200Y-34739400D01*
G37*
G36*
X38356200Y-33639400D02*
G01*
X37156200Y-33639400D01*
X37156200Y-32839400D01*
X38356200Y-32839400D01*
X38356200Y-33639400D01*
G37*
G36*
X38356200Y-32539400D02*
G01*
X37156200Y-32539400D01*
X37156200Y-31739400D01*
X38356200Y-31739400D01*
X38356200Y-32539400D01*
G37*
G36*
X38356200Y-31439400D02*
G01*
X37156200Y-31439400D01*
X37156200Y-30639400D01*
X38356200Y-30639400D01*
X38356200Y-31439400D01*
G37*
G36*
X38356200Y-28439400D02*
G01*
X37156200Y-28439400D01*
X37156200Y-27639400D01*
X38356200Y-27639400D01*
X38356200Y-28439400D01*
G37*
G36*
X38356200Y-27339400D02*
G01*
X37156200Y-27339400D01*
X37156200Y-26539400D01*
X38356200Y-26539400D01*
X38356200Y-27339400D01*
G37*
G36*
X38356200Y-26239400D02*
G01*
X37156200Y-26239400D01*
X37156200Y-25439400D01*
X38356200Y-25439400D01*
X38356200Y-26239400D01*
G37*
G36*
X38356200Y-25139400D02*
G01*
X37156200Y-25139400D01*
X37156200Y-24339400D01*
X38356200Y-24339400D01*
X38356200Y-25139400D01*
G37*
G36*
X38356200Y-24039400D02*
G01*
X37156200Y-24039400D01*
X37156200Y-23239400D01*
X38356200Y-23239400D01*
X38356200Y-24039400D01*
G37*
G36*
X38356200Y-22939400D02*
G01*
X37156200Y-22939400D01*
X37156200Y-22139400D01*
X38356200Y-22139400D01*
X38356200Y-22939400D01*
G37*
G36*
X38356200Y-21839400D02*
G01*
X37156200Y-21839400D01*
X37156200Y-21039400D01*
X38356200Y-21039400D01*
X38356200Y-21839400D01*
G37*
%TD*%
D10*
%TO.C,R3*%
X52781800Y-25563200D03*
X52781800Y-23913200D03*
%TD*%
D11*
%TO.C,S2*%
X76398200Y-65202200D03*
X76398200Y-59442200D03*
X80398200Y-65202200D03*
X80398200Y-59442200D03*
%TD*%
D12*
%TO.C,L1*%
X36081200Y-34281400D03*
X36081200Y-36406400D03*
%TD*%
D13*
%TO.C,ANT1*%
X21082600Y-38657400D03*
X21082600Y-29957400D03*
D14*
X25542100Y-34357400D03*
%TD*%
D10*
%TO.C,R10*%
X86792400Y-69582400D03*
X86792400Y-67932400D03*
%TD*%
D15*
%TO.C,C4*%
X26670600Y-68441400D03*
X26670600Y-70341400D03*
%TD*%
D16*
%TO.C,R7*%
X35967000Y-22541600D03*
X35967000Y-24191600D03*
%TD*%
D17*
%TO.C,J6*%
X80430000Y-44460000D03*
X80430000Y-45560000D03*
X80430000Y-46660000D03*
X80430000Y-47760000D03*
X80430000Y-48860000D03*
X80430000Y-49960000D03*
X80430000Y-51070000D03*
D18*
X80430000Y-52160000D03*
X80430000Y-53110000D03*
D19*
X84730000Y-54110000D03*
D20*
X90930000Y-54110000D03*
D21*
X95080000Y-54110000D03*
D22*
X95530000Y-40410000D03*
D19*
X80430000Y-42910000D03*
%TD*%
D23*
%TO.C,D3*%
X61671800Y-33932800D03*
X61671800Y-35507800D03*
%TD*%
D10*
%TO.C,R11*%
X77953200Y-69570200D03*
X77953200Y-67920200D03*
%TD*%
D24*
%TO.C,C7*%
X94907400Y-16711800D03*
X96457400Y-16711800D03*
%TD*%
D25*
%TO.C,U5*%
X47695800Y-59579800D03*
X47195800Y-59579800D03*
X46695800Y-59579800D03*
X46195800Y-59579800D03*
X45695800Y-59579800D03*
D26*
X45295800Y-60479800D03*
X45295800Y-60979800D03*
X45295800Y-61479800D03*
D25*
X45695800Y-62379800D03*
X46195800Y-62379800D03*
X46695800Y-62379800D03*
X47195800Y-62379800D03*
X47695800Y-62379800D03*
D26*
X48095800Y-61479800D03*
X48095800Y-60979800D03*
X48095800Y-60479800D03*
%TD*%
D27*
%TO.C,C9*%
X49512200Y-61652600D03*
X49512200Y-63202600D03*
%TD*%
D28*
%TO.C,U1*%
X40038600Y-58725400D03*
X38768600Y-58725400D03*
X37498600Y-58725400D03*
X36228600Y-58725400D03*
X36228600Y-63675400D03*
X37498600Y-63675400D03*
X38768600Y-63675400D03*
X40038600Y-63675400D03*
%TD*%
D27*
%TO.C,C13*%
X80239200Y-67983200D03*
X80239200Y-69533200D03*
%TD*%
D29*
%TO.C,LS1*%
X71620600Y-59819400D03*
X57920600Y-59819400D03*
X57920600Y-69819400D03*
X71620600Y-69819400D03*
%TD*%
D30*
%TO.C,U7*%
X96266600Y-18616800D03*
X94996600Y-18616800D03*
X93726600Y-18616800D03*
X92456600Y-18616800D03*
X91186600Y-18616800D03*
X89916600Y-18616800D03*
X88646600Y-18616800D03*
X87376600Y-18616800D03*
X86106600Y-18616800D03*
X84836600Y-18616800D03*
X83566600Y-18616800D03*
X82296600Y-18616800D03*
X81026600Y-18616800D03*
X79756600Y-18616800D03*
D31*
X78506600Y-21656800D03*
X78506600Y-22926800D03*
X78506600Y-24196800D03*
X78506600Y-25466800D03*
X78506600Y-26736800D03*
X78506600Y-28006800D03*
X78506600Y-29276800D03*
X78506600Y-30546800D03*
X78506600Y-31816800D03*
X78506600Y-33086800D03*
D30*
X79756600Y-36116800D03*
X81026600Y-36116800D03*
X82296600Y-36116800D03*
X83566600Y-36116800D03*
X84836600Y-36116800D03*
X86106600Y-36116800D03*
X87376600Y-36116800D03*
X88646600Y-36116800D03*
X89916600Y-36116800D03*
X91186600Y-36116800D03*
X92456600Y-36116800D03*
X93726600Y-36116800D03*
X94996600Y-36116800D03*
X96266600Y-36116800D03*
D32*
X89946600Y-24466800D03*
X88546600Y-24466800D03*
X87146600Y-24466800D03*
X89946600Y-25866800D03*
X88546600Y-25866800D03*
X87146600Y-25866800D03*
X89946600Y-27266800D03*
X88546600Y-27266800D03*
X87146600Y-27266800D03*
%TD*%
D33*
%TO.C,BT1*%
X58698600Y-22909400D03*
X60198600Y-22909400D03*
%TD*%
D34*
%TO.C,C10*%
X23876600Y-63375400D03*
X23876600Y-60675400D03*
%TD*%
D23*
%TO.C,D1*%
X59436600Y-33882000D03*
X59436600Y-35457000D03*
%TD*%
D35*
%TO.C,D2*%
X55118600Y-18339400D03*
X55118600Y-21639400D03*
%TD*%
D11*
%TO.C,S1*%
X84380400Y-65278400D03*
X84380400Y-59518400D03*
X88380400Y-65278400D03*
X88380400Y-59518400D03*
%TD*%
D16*
%TO.C,R13*%
X72593800Y-52779800D03*
X72593800Y-54429800D03*
%TD*%
D24*
%TO.C,C6*%
X48775600Y-59556800D03*
X50325600Y-59556800D03*
%TD*%
D36*
%TO.C,U4*%
X26830600Y-61647400D03*
X26830600Y-63947400D03*
D37*
X33130600Y-63947400D03*
D36*
X26830600Y-66247400D03*
%TD*%
D38*
%TO.C,R2*%
X40470400Y-65869000D03*
X42120400Y-65869000D03*
%TD*%
D10*
%TO.C,R6*%
X36081200Y-32606400D03*
X36081200Y-30956400D03*
%TD*%
D27*
%TO.C,C12*%
X88570400Y-67982400D03*
X88570400Y-69532400D03*
%TD*%
D38*
%TO.C,R8*%
X43252200Y-57614000D03*
X44902200Y-57614000D03*
%TD*%
D39*
%TO.C,C1*%
X54458200Y-28104000D03*
X54458200Y-26554000D03*
%TD*%
D16*
%TO.C,R4*%
X63805400Y-33908600D03*
X63805400Y-35558600D03*
%TD*%
D27*
%TO.C,C2*%
X36081200Y-27754400D03*
X36081200Y-29304400D03*
%TD*%
D16*
%TO.C,R1*%
X57404600Y-33768400D03*
X57404600Y-35418400D03*
%TD*%
D40*
%TO.C,R9*%
X48902200Y-57207600D03*
X47252200Y-57207600D03*
%TD*%
%TO.C,R12*%
X74968200Y-34517200D03*
X73318200Y-34517200D03*
%TD*%
D27*
%TO.C,C3*%
X52578600Y-20597400D03*
X52578600Y-22147400D03*
%TD*%
D41*
%TO.C,C8*%
X91379600Y-16483200D03*
X93279600Y-16483200D03*
%TD*%
D38*
%TO.C,R5*%
X35149600Y-68312400D03*
X36799600Y-68312400D03*
%TD*%
D42*
%TO.C,D5*%
X73482700Y-36295200D03*
X75057700Y-36295200D03*
%TD*%
M02*
