%TF.GenerationSoftware,KiCad,Pcbnew,7.0.1-0*%
%TF.CreationDate,2023-07-25T08:38:12-04:00*%
%TF.ProjectId,data_logger,64617461-5f6c-46f6-9767-65722e6b6963,rev?*%
%TF.SameCoordinates,Original*%
%TF.FileFunction,Legend,Bot*%
%TF.FilePolarity,Positive*%
%FSLAX46Y46*%
G04 Gerber Fmt 4.6, Leading zero omitted, Abs format (unit mm)*
G04 Created by KiCad (PCBNEW 7.0.1-0) date 2023-07-25 08:38:12*
%MOMM*%
%LPD*%
G01*
G04 APERTURE LIST*
%ADD10C,0.150000*%
G04 APERTURE END LIST*
D10*
X47604980Y-69550161D02*
X47604980Y-68978733D01*
X46604980Y-69264447D02*
X47604980Y-69264447D01*
X47604980Y-68740637D02*
X46604980Y-68073971D01*
X47604980Y-68073971D02*
X46604980Y-68740637D01*
X52908980Y-69324161D02*
X51908980Y-68990828D01*
X51908980Y-68990828D02*
X52908980Y-68657495D01*
X51908980Y-68324161D02*
X52575647Y-68324161D01*
X52908980Y-68324161D02*
X52861361Y-68371780D01*
X52861361Y-68371780D02*
X52813742Y-68324161D01*
X52813742Y-68324161D02*
X52861361Y-68276542D01*
X52861361Y-68276542D02*
X52908980Y-68324161D01*
X52908980Y-68324161D02*
X52813742Y-68324161D01*
X52575647Y-67847971D02*
X51908980Y-67847971D01*
X52480409Y-67847971D02*
X52528028Y-67800352D01*
X52528028Y-67800352D02*
X52575647Y-67705114D01*
X52575647Y-67705114D02*
X52575647Y-67562257D01*
X52575647Y-67562257D02*
X52528028Y-67467019D01*
X52528028Y-67467019D02*
X52432790Y-67419400D01*
X52432790Y-67419400D02*
X51908980Y-67419400D01*
X37302219Y-68581876D02*
X37254600Y-68629495D01*
X37254600Y-68629495D02*
X37206980Y-68772352D01*
X37206980Y-68772352D02*
X37206980Y-68867590D01*
X37206980Y-68867590D02*
X37254600Y-69010447D01*
X37254600Y-69010447D02*
X37349838Y-69105685D01*
X37349838Y-69105685D02*
X37445076Y-69153304D01*
X37445076Y-69153304D02*
X37635552Y-69200923D01*
X37635552Y-69200923D02*
X37778409Y-69200923D01*
X37778409Y-69200923D02*
X37968885Y-69153304D01*
X37968885Y-69153304D02*
X38064123Y-69105685D01*
X38064123Y-69105685D02*
X38159361Y-69010447D01*
X38159361Y-69010447D02*
X38206980Y-68867590D01*
X38206980Y-68867590D02*
X38206980Y-68772352D01*
X38206980Y-68772352D02*
X38159361Y-68629495D01*
X38159361Y-68629495D02*
X38111742Y-68581876D01*
X37492695Y-68200923D02*
X37492695Y-67724733D01*
X37206980Y-68296161D02*
X38206980Y-67962828D01*
X38206980Y-67962828D02*
X37206980Y-67629495D01*
X37206980Y-67296161D02*
X38206980Y-67296161D01*
X38206980Y-67296161D02*
X37206980Y-66724733D01*
X37206980Y-66724733D02*
X38206980Y-66724733D01*
X37111742Y-66486638D02*
X37111742Y-65724733D01*
X37206980Y-65486637D02*
X38206980Y-65486637D01*
X37730790Y-65486637D02*
X37730790Y-64915209D01*
X37206980Y-64915209D02*
X38206980Y-64915209D01*
X37206980Y-64439018D02*
X38206980Y-64439018D01*
X40746980Y-69296161D02*
X39746980Y-68962828D01*
X39746980Y-68962828D02*
X40746980Y-68629495D01*
X39746980Y-68296161D02*
X40413647Y-68296161D01*
X40746980Y-68296161D02*
X40699361Y-68343780D01*
X40699361Y-68343780D02*
X40651742Y-68296161D01*
X40651742Y-68296161D02*
X40699361Y-68248542D01*
X40699361Y-68248542D02*
X40746980Y-68296161D01*
X40746980Y-68296161D02*
X40651742Y-68296161D01*
X40413647Y-67819971D02*
X39746980Y-67819971D01*
X40318409Y-67819971D02*
X40366028Y-67772352D01*
X40366028Y-67772352D02*
X40413647Y-67677114D01*
X40413647Y-67677114D02*
X40413647Y-67534257D01*
X40413647Y-67534257D02*
X40366028Y-67439019D01*
X40366028Y-67439019D02*
X40270790Y-67391400D01*
X40270790Y-67391400D02*
X39746980Y-67391400D01*
X33079361Y-68375495D02*
X33126980Y-68470733D01*
X33126980Y-68470733D02*
X33126980Y-68613590D01*
X33126980Y-68613590D02*
X33079361Y-68756447D01*
X33079361Y-68756447D02*
X32984123Y-68851685D01*
X32984123Y-68851685D02*
X32888885Y-68899304D01*
X32888885Y-68899304D02*
X32698409Y-68946923D01*
X32698409Y-68946923D02*
X32555552Y-68946923D01*
X32555552Y-68946923D02*
X32365076Y-68899304D01*
X32365076Y-68899304D02*
X32269838Y-68851685D01*
X32269838Y-68851685D02*
X32174600Y-68756447D01*
X32174600Y-68756447D02*
X32126980Y-68613590D01*
X32126980Y-68613590D02*
X32126980Y-68518352D01*
X32126980Y-68518352D02*
X32174600Y-68375495D01*
X32174600Y-68375495D02*
X32222219Y-68327876D01*
X32222219Y-68327876D02*
X32555552Y-68327876D01*
X32555552Y-68327876D02*
X32555552Y-68518352D01*
X32126980Y-67899304D02*
X33126980Y-67899304D01*
X33126980Y-67899304D02*
X32126980Y-67327876D01*
X32126980Y-67327876D02*
X33126980Y-67327876D01*
X32126980Y-66851685D02*
X33126980Y-66851685D01*
X33126980Y-66851685D02*
X33126980Y-66613590D01*
X33126980Y-66613590D02*
X33079361Y-66470733D01*
X33079361Y-66470733D02*
X32984123Y-66375495D01*
X32984123Y-66375495D02*
X32888885Y-66327876D01*
X32888885Y-66327876D02*
X32698409Y-66280257D01*
X32698409Y-66280257D02*
X32555552Y-66280257D01*
X32555552Y-66280257D02*
X32365076Y-66327876D01*
X32365076Y-66327876D02*
X32269838Y-66375495D01*
X32269838Y-66375495D02*
X32174600Y-66470733D01*
X32174600Y-66470733D02*
X32126980Y-66613590D01*
X32126980Y-66613590D02*
X32126980Y-66851685D01*
X49398980Y-68835876D02*
X49875171Y-69169209D01*
X49398980Y-69407304D02*
X50398980Y-69407304D01*
X50398980Y-69407304D02*
X50398980Y-69026352D01*
X50398980Y-69026352D02*
X50351361Y-68931114D01*
X50351361Y-68931114D02*
X50303742Y-68883495D01*
X50303742Y-68883495D02*
X50208504Y-68835876D01*
X50208504Y-68835876D02*
X50065647Y-68835876D01*
X50065647Y-68835876D02*
X49970409Y-68883495D01*
X49970409Y-68883495D02*
X49922790Y-68931114D01*
X49922790Y-68931114D02*
X49875171Y-69026352D01*
X49875171Y-69026352D02*
X49875171Y-69407304D01*
X50398980Y-68502542D02*
X49398980Y-67835876D01*
X50398980Y-67835876D02*
X49398980Y-68502542D01*
X34508219Y-68581876D02*
X34460600Y-68629495D01*
X34460600Y-68629495D02*
X34412980Y-68772352D01*
X34412980Y-68772352D02*
X34412980Y-68867590D01*
X34412980Y-68867590D02*
X34460600Y-69010447D01*
X34460600Y-69010447D02*
X34555838Y-69105685D01*
X34555838Y-69105685D02*
X34651076Y-69153304D01*
X34651076Y-69153304D02*
X34841552Y-69200923D01*
X34841552Y-69200923D02*
X34984409Y-69200923D01*
X34984409Y-69200923D02*
X35174885Y-69153304D01*
X35174885Y-69153304D02*
X35270123Y-69105685D01*
X35270123Y-69105685D02*
X35365361Y-69010447D01*
X35365361Y-69010447D02*
X35412980Y-68867590D01*
X35412980Y-68867590D02*
X35412980Y-68772352D01*
X35412980Y-68772352D02*
X35365361Y-68629495D01*
X35365361Y-68629495D02*
X35317742Y-68581876D01*
X34698695Y-68200923D02*
X34698695Y-67724733D01*
X34412980Y-68296161D02*
X35412980Y-67962828D01*
X35412980Y-67962828D02*
X34412980Y-67629495D01*
X34412980Y-67296161D02*
X35412980Y-67296161D01*
X35412980Y-67296161D02*
X34412980Y-66724733D01*
X34412980Y-66724733D02*
X35412980Y-66724733D01*
X34317742Y-66486638D02*
X34317742Y-65724733D01*
X34412980Y-65010447D02*
X34412980Y-65486637D01*
X34412980Y-65486637D02*
X35412980Y-65486637D01*
X35412980Y-64486637D02*
X35412980Y-64296161D01*
X35412980Y-64296161D02*
X35365361Y-64200923D01*
X35365361Y-64200923D02*
X35270123Y-64105685D01*
X35270123Y-64105685D02*
X35079647Y-64058066D01*
X35079647Y-64058066D02*
X34746314Y-64058066D01*
X34746314Y-64058066D02*
X34555838Y-64105685D01*
X34555838Y-64105685D02*
X34460600Y-64200923D01*
X34460600Y-64200923D02*
X34412980Y-64296161D01*
X34412980Y-64296161D02*
X34412980Y-64486637D01*
X34412980Y-64486637D02*
X34460600Y-64581875D01*
X34460600Y-64581875D02*
X34555838Y-64677113D01*
X34555838Y-64677113D02*
X34746314Y-64724732D01*
X34746314Y-64724732D02*
X35079647Y-64724732D01*
X35079647Y-64724732D02*
X35270123Y-64677113D01*
X35270123Y-64677113D02*
X35365361Y-64581875D01*
X35365361Y-64581875D02*
X35412980Y-64486637D01*
X45271361Y-68629495D02*
X45318980Y-68724733D01*
X45318980Y-68724733D02*
X45318980Y-68867590D01*
X45318980Y-68867590D02*
X45271361Y-69010447D01*
X45271361Y-69010447D02*
X45176123Y-69105685D01*
X45176123Y-69105685D02*
X45080885Y-69153304D01*
X45080885Y-69153304D02*
X44890409Y-69200923D01*
X44890409Y-69200923D02*
X44747552Y-69200923D01*
X44747552Y-69200923D02*
X44557076Y-69153304D01*
X44557076Y-69153304D02*
X44461838Y-69105685D01*
X44461838Y-69105685D02*
X44366600Y-69010447D01*
X44366600Y-69010447D02*
X44318980Y-68867590D01*
X44318980Y-68867590D02*
X44318980Y-68772352D01*
X44318980Y-68772352D02*
X44366600Y-68629495D01*
X44366600Y-68629495D02*
X44414219Y-68581876D01*
X44414219Y-68581876D02*
X44747552Y-68581876D01*
X44747552Y-68581876D02*
X44747552Y-68772352D01*
X44318980Y-68153304D02*
X45318980Y-68153304D01*
X45318980Y-68153304D02*
X44318980Y-67581876D01*
X44318980Y-67581876D02*
X45318980Y-67581876D01*
X44318980Y-67105685D02*
X45318980Y-67105685D01*
X45318980Y-67105685D02*
X45318980Y-66867590D01*
X45318980Y-66867590D02*
X45271361Y-66724733D01*
X45271361Y-66724733D02*
X45176123Y-66629495D01*
X45176123Y-66629495D02*
X45080885Y-66581876D01*
X45080885Y-66581876D02*
X44890409Y-66534257D01*
X44890409Y-66534257D02*
X44747552Y-66534257D01*
X44747552Y-66534257D02*
X44557076Y-66581876D01*
X44557076Y-66581876D02*
X44461838Y-66629495D01*
X44461838Y-66629495D02*
X44366600Y-66724733D01*
X44366600Y-66724733D02*
X44318980Y-66867590D01*
X44318980Y-66867590D02*
X44318980Y-67105685D01*
M02*
