%TF.GenerationSoftware,KiCad,Pcbnew,7.0.2-0*%
%TF.CreationDate,2023-07-24T20:11:18-04:00*%
%TF.ProjectId,data_logger,64617461-5f6c-46f6-9767-65722e6b6963,rev?*%
%TF.SameCoordinates,Original*%
%TF.FileFunction,Copper,L2,Bot*%
%TF.FilePolarity,Positive*%
%FSLAX46Y46*%
G04 Gerber Fmt 4.6, Leading zero omitted, Abs format (unit mm)*
G04 Created by KiCad (PCBNEW 7.0.2-0) date 2023-07-24 20:11:18*
%MOMM*%
%LPD*%
G01*
G04 APERTURE LIST*
%TA.AperFunction,ComponentPad*%
%ADD10C,1.530000*%
%TD*%
%TA.AperFunction,ComponentPad*%
%ADD11R,1.700000X1.700000*%
%TD*%
%TA.AperFunction,ComponentPad*%
%ADD12O,1.700000X1.700000*%
%TD*%
%TA.AperFunction,HeatsinkPad*%
%ADD13C,0.600000*%
%TD*%
%TA.AperFunction,ViaPad*%
%ADD14C,0.800000*%
%TD*%
%TA.AperFunction,Conductor*%
%ADD15C,0.800000*%
%TD*%
%TA.AperFunction,Conductor*%
%ADD16C,0.250000*%
%TD*%
G04 APERTURE END LIST*
D10*
%TO.P,U6,0,0*%
%TO.N,CAN_RX*%
X37846600Y-54303800D03*
%TO.P,U6,1,1*%
%TO.N,CAN_TX*%
X40386600Y-54303800D03*
%TO.P,U6,2,2*%
%TO.N,unconnected-(U6-Pad2)*%
X42926600Y-54303800D03*
%TO.P,U6,3,3*%
%TO.N,unconnected-(U6-Pad3)*%
X45466600Y-54303800D03*
%TO.P,U6,3.3V_2,3.3V_2*%
%TO.N,+3.3V*%
X40386600Y-39063800D03*
%TO.P,U6,4,4*%
%TO.N,unconnected-(U6-Pad4)*%
X48006600Y-54303800D03*
%TO.P,U6,5,5*%
%TO.N,unconnected-(U6-Pad5)*%
X50546600Y-54303800D03*
%TO.P,U6,6,6*%
%TO.N,unconnected-(U6-Pad6)*%
X53086600Y-54303800D03*
%TO.P,U6,7,7*%
%TO.N,unconnected-(U6-Pad7)*%
X55626600Y-54303800D03*
%TO.P,U6,8,8*%
%TO.N,ACC_INT*%
X58166600Y-54303800D03*
%TO.P,U6,9,9*%
%TO.N,SPK*%
X60706600Y-54303800D03*
%TO.P,U6,10,10*%
%TO.N,CS*%
X63246600Y-54303800D03*
%TO.P,U6,11,11*%
%TO.N,MOSI*%
X65786600Y-54303800D03*
%TO.P,U6,12,12*%
%TO.N,MISO*%
X68326600Y-54303800D03*
%TO.P,U6,13,13*%
%TO.N,CLK*%
X68326600Y-39063800D03*
%TO.P,U6,14,14*%
%TO.N,ESP_RX*%
X65786600Y-39063800D03*
%TO.P,U6,15,15*%
%TO.N,ESP_TX*%
X63246600Y-39063800D03*
%TO.P,U6,16,16*%
%TO.N,LED2*%
X60706600Y-39063800D03*
%TO.P,U6,17,17*%
%TO.N,LED1*%
X58166600Y-39063800D03*
%TO.P,U6,18,18*%
%TO.N,SDA*%
X55626600Y-39063800D03*
%TO.P,U6,19,19*%
%TO.N,SCL*%
X53086600Y-39063800D03*
%TO.P,U6,20,20*%
%TO.N,PPS*%
X50546600Y-39063800D03*
%TO.P,U6,21,21*%
%TO.N,unconnected-(U6-Pad21)*%
X48006600Y-39063800D03*
%TO.P,U6,22,22*%
%TO.N,EXTINT*%
X45466600Y-39063800D03*
%TO.P,U6,23,23*%
%TO.N,RESET_GPS*%
X42926600Y-39063800D03*
%TO.P,U6,G1,G1*%
%TO.N,GND*%
X35306600Y-54303800D03*
%TO.P,U6,G3,G3*%
X37846600Y-39063800D03*
%TO.P,U6,VIN,VIN*%
%TO.N,+5V*%
X35306600Y-39063800D03*
%TD*%
D11*
%TO.P,J3,1,Pin_1*%
%TO.N,ESP_RX_OUT*%
X70358600Y-28624400D03*
D12*
%TO.P,J3,2,Pin_2*%
%TO.N,U0RXD*%
X70358600Y-31164400D03*
%TO.P,J3,3,Pin_3*%
%TO.N,ESP_RX*%
X70358600Y-33704400D03*
%TD*%
D13*
%TO.P,U7,39,GND*%
%TO.N,GND*%
X89246600Y-24466800D03*
X87846600Y-24466800D03*
X89946600Y-25166800D03*
X88546600Y-25166800D03*
X87146600Y-25166800D03*
X89246600Y-25841800D03*
X87846600Y-25841800D03*
X89946600Y-26566800D03*
X88546600Y-26566800D03*
X87146600Y-26566800D03*
X89246600Y-27266800D03*
X87846600Y-27266800D03*
%TD*%
D11*
%TO.P,J1,1,Pin_1*%
%TO.N,Net-(J1-Pin_1)*%
X52451600Y-71106400D03*
D12*
%TO.P,J1,2,Pin_2*%
%TO.N,RX1*%
X49911600Y-71106400D03*
%TO.P,J1,3,Pin_3*%
%TO.N,TX1*%
X47371600Y-71106400D03*
%TO.P,J1,4,Pin_4*%
%TO.N,GND*%
X44831600Y-71106400D03*
%TD*%
D11*
%TO.P,J5,1,Pin_1*%
%TO.N,GND*%
X65278600Y-21893400D03*
D12*
%TO.P,J5,2,Pin_2*%
%TO.N,ESP_TX_OUT*%
X65278600Y-24433400D03*
%TO.P,J5,3,Pin_3*%
%TO.N,ESP_RX_OUT*%
X65278600Y-26973400D03*
%TO.P,J5,4,Pin_4*%
%TO.N,+3.3V*%
X65278600Y-29513400D03*
%TD*%
D11*
%TO.P,J2,1,Pin_1*%
%TO.N,GND*%
X32418600Y-70979400D03*
D12*
%TO.P,J2,2,Pin_2*%
%TO.N,CAN_LO*%
X34958600Y-70979400D03*
%TO.P,J2,3,Pin_3*%
%TO.N,CAN_HI*%
X37498600Y-70979400D03*
%TO.P,J2,4,Pin_4*%
%TO.N,Net-(J2-Pin_4)*%
X40038600Y-70979400D03*
%TD*%
D11*
%TO.P,J4,1,Pin_1*%
%TO.N,ESP_TX_OUT*%
X70358600Y-18210400D03*
D12*
%TO.P,J4,2,Pin_2*%
%TO.N,U0TXD*%
X70358600Y-20750400D03*
%TO.P,J4,3,Pin_3*%
%TO.N,ESP_TX*%
X70358600Y-23290400D03*
%TD*%
D14*
%TO.N,+5V*%
X45600000Y-64430000D03*
X33786600Y-52699400D03*
X33706600Y-41959400D03*
%TO.N,MISO*%
X72106600Y-41039400D03*
X75326600Y-51109400D03*
%TO.N,SCL*%
X49096600Y-52869400D03*
X49136600Y-45179400D03*
%TO.N,GND*%
X50401800Y-60738200D03*
X65278600Y-34034600D03*
X96266600Y-20293200D03*
X48471400Y-63710000D03*
X17780600Y-40181400D03*
X31750600Y-40181400D03*
X24638600Y-38149400D03*
X36144800Y-26770200D03*
X81585400Y-68205800D03*
X48616200Y-35507800D03*
X51410200Y-20521800D03*
X24638600Y-30529400D03*
X84404800Y-62795600D03*
X96825400Y-15568800D03*
X78994600Y-50036600D03*
X69667800Y-59185600D03*
X76018551Y-34309751D03*
X24638600Y-36625400D03*
X40234200Y-33298000D03*
X38616200Y-60738200D03*
X61240000Y-23315800D03*
X40285000Y-35660200D03*
X24638600Y-32053400D03*
X28710200Y-70720400D03*
X96317400Y-34491800D03*
X17526600Y-38403400D03*
X90246800Y-16432400D03*
X43251200Y-66397400D03*
X31750600Y-36117400D03*
X80417000Y-21614000D03*
X25332000Y-61601800D03*
X31242600Y-29005400D03*
X76353000Y-62414600D03*
X89992800Y-68078800D03*
X46134600Y-57842600D03*
X55271000Y-29259400D03*
X17780600Y-30275400D03*
X17780600Y-28497400D03*
X31750600Y-32561400D03*
X55931400Y-33831400D03*
%TO.N,Net-(C2-Pad2)*%
X34951000Y-36142800D03*
X34925600Y-31977200D03*
%TO.N,+5V*%
X32901200Y-68332800D03*
%TO.N,ESP_EN*%
X87630600Y-33831400D03*
X87630600Y-57199400D03*
%TO.N,IO0*%
X81534600Y-38403400D03*
X82550600Y-57199400D03*
%TO.N,U0RXD*%
X90119800Y-34542600D03*
%TO.N,U0TXD*%
X91567600Y-34517200D03*
%TO.N,SDA*%
X48046600Y-49040100D03*
%TO.N,ACC_INT*%
X46668000Y-61220800D03*
%TO.N,CLK*%
X81915600Y-47776000D03*
%TD*%
D15*
%TO.N,+5V*%
X45600000Y-65462814D02*
X45600000Y-64430000D01*
X33836600Y-67397400D02*
X43460000Y-67397400D01*
X43460000Y-67397400D02*
X45952400Y-67397400D01*
X43460000Y-67397400D02*
X43665414Y-67397400D01*
X43665414Y-67397400D02*
X45600000Y-65462814D01*
X33757200Y-52538800D02*
X33757200Y-42010000D01*
D16*
%TO.N,MISO*%
X75326600Y-44259400D02*
X72106600Y-41039400D01*
X75326600Y-51109400D02*
X75326600Y-44259400D01*
%TO.N,SCL*%
X49096600Y-52869400D02*
X49096600Y-45219400D01*
%TO.N,SDA*%
X48064800Y-44441200D02*
X48064800Y-49021900D01*
X48064800Y-49021900D02*
X48046600Y-49040100D01*
%TO.N,ESP_TX*%
X63246600Y-39063800D02*
X67236600Y-35073800D01*
X67236600Y-35073800D02*
X67236600Y-25629400D01*
X68586600Y-24279400D02*
X69369600Y-24279400D01*
X67236600Y-25629400D02*
X68586600Y-24279400D01*
X69369600Y-24279400D02*
X70358600Y-23290400D01*
%TO.N,Net-(C2-Pad2)*%
X34925600Y-36117400D02*
X34951000Y-36142800D01*
X34925600Y-31977200D02*
X34925600Y-36117400D01*
D15*
%TO.N,+5V*%
X32901200Y-68332800D02*
X33836600Y-67397400D01*
D16*
%TO.N,ESP_EN*%
X87630600Y-33831400D02*
X87630600Y-57199400D01*
%TO.N,IO0*%
X81534600Y-38474800D02*
X82640600Y-39580800D01*
X81534600Y-38474800D02*
X81534600Y-38403400D01*
X82640600Y-57199800D02*
X82640600Y-39580800D01*
X82641000Y-57199400D02*
X82640600Y-57199800D01*
X82550600Y-57199400D02*
X82641000Y-57199400D01*
%TO.N,U0RXD*%
X82601400Y-27024200D02*
X74498800Y-27024200D01*
X74498800Y-27024200D02*
X70358600Y-31164400D01*
X90119800Y-34542600D02*
X82601400Y-27024200D01*
%TO.N,U0TXD*%
X71666700Y-22058500D02*
X71666700Y-23125300D01*
X91567600Y-34517200D02*
X90221400Y-33171000D01*
X89408600Y-33171000D02*
X82753800Y-26516200D01*
X71666700Y-23125300D02*
X75057600Y-26516200D01*
X71666700Y-22058500D02*
X70358600Y-20750400D01*
X90221400Y-33171000D02*
X89408600Y-33171000D01*
X82753800Y-26516200D02*
X75057600Y-26516200D01*
%TO.N,SDA*%
X48064800Y-44441200D02*
X50546600Y-41959400D01*
X52731000Y-41959400D02*
X55626600Y-39063800D01*
X48046600Y-49040100D02*
X48046600Y-48778700D01*
X50546600Y-41959400D02*
X52731000Y-41959400D01*
%TO.N,ACC_INT*%
X46668000Y-61220800D02*
X50706600Y-57182200D01*
X55288200Y-57182200D02*
X50706600Y-57182200D01*
X58166600Y-54303800D02*
X55288200Y-57182200D01*
%TO.N,CLK*%
X81991800Y-47699800D02*
X81915600Y-47776000D01*
X78842200Y-39063800D02*
X81991800Y-42213400D01*
X68326600Y-39063800D02*
X78842200Y-39063800D01*
X81991800Y-42213400D02*
X81991800Y-47699800D01*
%TD*%
%TA.AperFunction,Conductor*%
%TO.N,GND*%
G36*
X97442619Y-14831813D02*
G01*
X97509654Y-14851507D01*
X97555402Y-14904317D01*
X97566600Y-14955813D01*
X97566600Y-51366800D01*
X97871997Y-51366800D01*
X97939036Y-51386485D01*
X97984791Y-51439289D01*
X97995997Y-51490800D01*
X97995997Y-72772901D01*
X97976312Y-72839940D01*
X97923508Y-72885695D01*
X97871997Y-72896901D01*
X17067995Y-72896901D01*
X17000956Y-72877216D01*
X16955201Y-72824412D01*
X16943995Y-72772901D01*
X16943995Y-70979400D01*
X33602940Y-70979400D01*
X33623536Y-71214807D01*
X33657566Y-71341807D01*
X33684697Y-71443063D01*
X33784565Y-71657230D01*
X33920105Y-71850801D01*
X34087199Y-72017895D01*
X34280770Y-72153435D01*
X34494937Y-72253303D01*
X34721259Y-72313945D01*
X34723192Y-72314463D01*
X34958599Y-72335059D01*
X34958599Y-72335058D01*
X34958600Y-72335059D01*
X35194008Y-72314463D01*
X35422263Y-72253303D01*
X35636430Y-72153435D01*
X35830001Y-72017895D01*
X35997095Y-71850801D01*
X36127026Y-71665239D01*
X36181602Y-71621616D01*
X36251100Y-71614422D01*
X36313455Y-71645945D01*
X36330171Y-71665237D01*
X36460105Y-71850801D01*
X36627199Y-72017895D01*
X36820770Y-72153435D01*
X37034937Y-72253303D01*
X37263192Y-72314463D01*
X37498600Y-72335059D01*
X37734008Y-72314463D01*
X37962263Y-72253303D01*
X38176430Y-72153435D01*
X38370001Y-72017895D01*
X38537095Y-71850801D01*
X38667026Y-71665239D01*
X38721602Y-71621617D01*
X38791101Y-71614424D01*
X38853455Y-71645946D01*
X38870171Y-71665237D01*
X39000105Y-71850801D01*
X39167199Y-72017895D01*
X39360770Y-72153435D01*
X39574937Y-72253303D01*
X39803192Y-72314463D01*
X40038600Y-72335059D01*
X40274008Y-72314463D01*
X40502263Y-72253303D01*
X40716430Y-72153435D01*
X40910001Y-72017895D01*
X41077095Y-71850801D01*
X41212635Y-71657230D01*
X41312503Y-71443063D01*
X41373663Y-71214808D01*
X41383148Y-71106400D01*
X46015940Y-71106400D01*
X46036536Y-71341807D01*
X46063668Y-71443063D01*
X46097697Y-71570063D01*
X46197565Y-71784230D01*
X46333105Y-71977801D01*
X46500199Y-72144895D01*
X46693770Y-72280435D01*
X46907937Y-72380303D01*
X47136191Y-72441463D01*
X47136192Y-72441463D01*
X47371599Y-72462059D01*
X47371599Y-72462058D01*
X47371600Y-72462059D01*
X47607008Y-72441463D01*
X47835263Y-72380303D01*
X48049430Y-72280435D01*
X48243001Y-72144895D01*
X48410095Y-71977801D01*
X48540026Y-71792239D01*
X48594602Y-71748616D01*
X48664100Y-71741422D01*
X48726455Y-71772945D01*
X48743171Y-71792237D01*
X48873105Y-71977801D01*
X49040199Y-72144895D01*
X49233770Y-72280435D01*
X49447937Y-72380303D01*
X49676192Y-72441463D01*
X49911600Y-72462059D01*
X50147008Y-72441463D01*
X50375263Y-72380303D01*
X50589430Y-72280435D01*
X50783001Y-72144895D01*
X50904929Y-72022966D01*
X50966248Y-71989484D01*
X51035940Y-71994468D01*
X51091874Y-72036339D01*
X51108789Y-72067316D01*
X51157804Y-72198731D01*
X51244054Y-72313946D01*
X51359269Y-72400196D01*
X51494117Y-72450491D01*
X51553727Y-72456900D01*
X53349472Y-72456899D01*
X53409083Y-72450491D01*
X53543931Y-72400196D01*
X53659146Y-72313946D01*
X53745396Y-72198731D01*
X53795691Y-72063883D01*
X53802100Y-72004273D01*
X53802099Y-70208528D01*
X53795691Y-70148917D01*
X53745396Y-70014069D01*
X53659146Y-69898854D01*
X53543931Y-69812604D01*
X53409083Y-69762309D01*
X53349473Y-69755900D01*
X53346150Y-69755900D01*
X51557039Y-69755900D01*
X51557020Y-69755900D01*
X51553728Y-69755901D01*
X51550448Y-69756253D01*
X51550440Y-69756254D01*
X51494115Y-69762309D01*
X51359269Y-69812604D01*
X51244054Y-69898854D01*
X51157804Y-70014069D01*
X51108789Y-70145483D01*
X51066917Y-70201416D01*
X51001452Y-70225833D01*
X50933180Y-70210981D01*
X50904926Y-70189830D01*
X50783004Y-70067908D01*
X50783001Y-70067905D01*
X50589430Y-69932365D01*
X50375263Y-69832497D01*
X50314102Y-69816109D01*
X50147007Y-69771336D01*
X49911599Y-69750740D01*
X49676192Y-69771336D01*
X49447936Y-69832497D01*
X49233770Y-69932365D01*
X49040198Y-70067905D01*
X48873105Y-70234998D01*
X48743175Y-70420559D01*
X48688598Y-70464184D01*
X48619100Y-70471378D01*
X48556745Y-70439855D01*
X48540025Y-70420559D01*
X48456708Y-70301570D01*
X48410095Y-70234999D01*
X48243001Y-70067905D01*
X48049430Y-69932365D01*
X47835263Y-69832497D01*
X47774101Y-69816109D01*
X47607007Y-69771336D01*
X47371599Y-69750740D01*
X47136192Y-69771336D01*
X46907936Y-69832497D01*
X46693770Y-69932365D01*
X46500198Y-70067905D01*
X46333105Y-70234998D01*
X46197565Y-70428570D01*
X46097697Y-70642736D01*
X46036536Y-70870992D01*
X46015940Y-71106400D01*
X41383148Y-71106400D01*
X41394259Y-70979400D01*
X41373663Y-70743992D01*
X41312503Y-70515737D01*
X41212635Y-70301571D01*
X41077095Y-70107999D01*
X40910001Y-69940905D01*
X40716430Y-69805365D01*
X40502263Y-69705497D01*
X40441102Y-69689109D01*
X40274007Y-69644336D01*
X40038600Y-69623740D01*
X39803192Y-69644336D01*
X39574936Y-69705497D01*
X39360770Y-69805365D01*
X39167198Y-69940905D01*
X39000108Y-70107995D01*
X39000107Y-70107997D01*
X39000105Y-70107999D01*
X38971454Y-70148917D01*
X38870174Y-70293560D01*
X38815597Y-70337185D01*
X38746098Y-70344377D01*
X38683744Y-70312855D01*
X38667029Y-70293564D01*
X38537095Y-70107999D01*
X38370001Y-69940905D01*
X38176430Y-69805365D01*
X37962263Y-69705497D01*
X37901102Y-69689109D01*
X37734007Y-69644336D01*
X37498600Y-69623740D01*
X37263192Y-69644336D01*
X37034936Y-69705497D01*
X36820770Y-69805365D01*
X36627198Y-69940905D01*
X36460108Y-70107995D01*
X36460107Y-70107997D01*
X36460105Y-70107999D01*
X36431454Y-70148917D01*
X36330174Y-70293560D01*
X36275597Y-70337185D01*
X36206098Y-70344377D01*
X36143744Y-70312855D01*
X36127029Y-70293564D01*
X35997095Y-70107999D01*
X35830001Y-69940905D01*
X35636430Y-69805365D01*
X35422263Y-69705497D01*
X35361101Y-69689109D01*
X35194007Y-69644336D01*
X34958599Y-69623740D01*
X34723192Y-69644336D01*
X34494936Y-69705497D01*
X34280770Y-69805365D01*
X34087198Y-69940905D01*
X33920105Y-70107998D01*
X33784565Y-70301570D01*
X33684697Y-70515736D01*
X33623536Y-70743992D01*
X33602940Y-70979400D01*
X16943995Y-70979400D01*
X16943995Y-68951164D01*
X19145787Y-68951164D01*
X19175413Y-69220416D01*
X19179754Y-69237019D01*
X19243928Y-69482488D01*
X19338697Y-69705497D01*
X19349871Y-69731792D01*
X19490982Y-69963011D01*
X19645694Y-70148917D01*
X19664255Y-70171220D01*
X19865998Y-70351982D01*
X20091910Y-70501444D01*
X20198211Y-70551276D01*
X20337177Y-70616421D01*
X20596562Y-70694458D01*
X20596569Y-70694460D01*
X20864561Y-70733900D01*
X20864564Y-70733900D01*
X21065369Y-70733900D01*
X21067631Y-70733900D01*
X21270156Y-70719077D01*
X21534553Y-70660180D01*
X21787558Y-70563414D01*
X22023777Y-70430841D01*
X22238177Y-70265288D01*
X22426186Y-70070281D01*
X22583799Y-69849979D01*
X22707656Y-69609075D01*
X22795118Y-69352705D01*
X22844319Y-69086333D01*
X22854212Y-68815635D01*
X22824586Y-68546382D01*
X22768748Y-68332800D01*
X31995740Y-68332800D01*
X31997205Y-68346744D01*
X31997714Y-68366190D01*
X31996980Y-68380186D01*
X32007588Y-68447167D01*
X32008434Y-68453598D01*
X32015525Y-68521055D01*
X32019860Y-68534398D01*
X32024399Y-68553306D01*
X32026592Y-68567149D01*
X32050890Y-68630449D01*
X32053056Y-68636565D01*
X32074019Y-68701080D01*
X32074020Y-68701082D01*
X32074021Y-68701084D01*
X32081031Y-68713225D01*
X32089405Y-68730783D01*
X32094429Y-68743871D01*
X32131363Y-68800747D01*
X32134753Y-68806279D01*
X32168665Y-68865016D01*
X32178049Y-68875437D01*
X32189896Y-68890877D01*
X32197524Y-68902624D01*
X32245474Y-68950573D01*
X32249943Y-68955282D01*
X32295329Y-69005688D01*
X32306670Y-69013928D01*
X32321460Y-69026559D01*
X32331375Y-69036474D01*
X32331377Y-69036475D01*
X32331378Y-69036476D01*
X32388254Y-69073412D01*
X32393604Y-69077089D01*
X32448466Y-69116949D01*
X32448469Y-69116950D01*
X32448470Y-69116951D01*
X32461277Y-69122652D01*
X32478370Y-69131934D01*
X32490130Y-69139571D01*
X32503060Y-69144534D01*
X32553443Y-69163874D01*
X32559434Y-69166355D01*
X32621397Y-69193944D01*
X32635120Y-69196860D01*
X32653764Y-69202383D01*
X32666850Y-69207407D01*
X32733853Y-69218018D01*
X32740188Y-69219193D01*
X32806554Y-69233300D01*
X32820574Y-69233300D01*
X32839971Y-69234826D01*
X32853812Y-69237019D01*
X32921536Y-69233470D01*
X32928026Y-69233300D01*
X32995843Y-69233300D01*
X32995846Y-69233300D01*
X33009560Y-69230384D01*
X33028845Y-69227846D01*
X33042846Y-69227113D01*
X33108392Y-69209549D01*
X33114642Y-69208049D01*
X33181003Y-69193944D01*
X33193800Y-69188245D01*
X33212146Y-69181748D01*
X33225688Y-69178120D01*
X33286163Y-69147305D01*
X33291952Y-69144544D01*
X33353930Y-69116951D01*
X33365265Y-69108714D01*
X33381852Y-69098549D01*
X33394349Y-69092183D01*
X33447090Y-69049472D01*
X33452178Y-69045568D01*
X33507071Y-69005688D01*
X33541757Y-68967164D01*
X92422387Y-68967164D01*
X92452013Y-69236416D01*
X92452171Y-69237019D01*
X92520528Y-69498488D01*
X92619671Y-69731790D01*
X92626471Y-69747792D01*
X92767582Y-69979011D01*
X92940853Y-70187218D01*
X92940855Y-70187220D01*
X93142598Y-70367982D01*
X93368510Y-70517444D01*
X93466571Y-70563413D01*
X93613777Y-70632421D01*
X93819987Y-70694460D01*
X93873169Y-70710460D01*
X94141161Y-70749900D01*
X94141164Y-70749900D01*
X94341969Y-70749900D01*
X94344231Y-70749900D01*
X94546756Y-70735077D01*
X94811153Y-70676180D01*
X95064158Y-70579414D01*
X95300377Y-70446841D01*
X95514777Y-70281288D01*
X95702786Y-70086281D01*
X95860399Y-69865979D01*
X95984256Y-69625075D01*
X96071718Y-69368705D01*
X96120919Y-69102333D01*
X96130812Y-68831635D01*
X96101186Y-68562382D01*
X96032672Y-68300312D01*
X95926730Y-68051010D01*
X95797739Y-67839651D01*
X95785617Y-67819788D01*
X95612346Y-67611581D01*
X95507359Y-67517512D01*
X95410602Y-67430818D01*
X95184690Y-67281356D01*
X95150555Y-67265354D01*
X94939422Y-67166378D01*
X94680037Y-67088341D01*
X94680031Y-67088340D01*
X94412039Y-67048900D01*
X94208969Y-67048900D01*
X94206720Y-67049064D01*
X94206709Y-67049065D01*
X94006443Y-67063722D01*
X93742049Y-67122619D01*
X93489041Y-67219386D01*
X93252823Y-67351959D01*
X93038425Y-67517509D01*
X92850413Y-67712520D01*
X92692801Y-67932820D01*
X92568942Y-68173729D01*
X92481481Y-68430095D01*
X92432280Y-68696466D01*
X92422387Y-68967164D01*
X33541757Y-68967164D01*
X33552473Y-68955262D01*
X33556906Y-68950591D01*
X34173279Y-68334219D01*
X34234603Y-68300734D01*
X34260961Y-68297900D01*
X43412808Y-68297900D01*
X43584788Y-68297900D01*
X43604185Y-68299426D01*
X43618026Y-68301619D01*
X43685750Y-68298070D01*
X43692240Y-68297900D01*
X45996350Y-68297900D01*
X45999592Y-68297900D01*
X46140656Y-68283074D01*
X46320684Y-68224579D01*
X46484616Y-68129933D01*
X46625288Y-68003271D01*
X46676474Y-67932820D01*
X46736551Y-67850130D01*
X46757184Y-67803788D01*
X46813544Y-67677203D01*
X46852900Y-67492046D01*
X46852900Y-67302754D01*
X46848351Y-67281354D01*
X46813544Y-67117597D01*
X46736551Y-66944669D01*
X46625289Y-66791529D01*
X46484616Y-66664866D01*
X46320684Y-66570220D01*
X46140657Y-66511726D01*
X46134886Y-66511119D01*
X46113191Y-66508839D01*
X46048579Y-66482255D01*
X46008595Y-66424957D01*
X46005935Y-66355138D01*
X46038475Y-66297838D01*
X46179737Y-66156576D01*
X46194537Y-66143936D01*
X46205871Y-66135702D01*
X46251256Y-66085295D01*
X46255712Y-66080601D01*
X46270120Y-66066194D01*
X46282964Y-66050331D01*
X46287152Y-66045429D01*
X46332533Y-65995030D01*
X46339544Y-65982885D01*
X46350564Y-65966853D01*
X46359383Y-65955963D01*
X46390185Y-65895507D01*
X46393248Y-65889865D01*
X46427179Y-65831098D01*
X46431509Y-65817767D01*
X46438956Y-65799788D01*
X46445320Y-65787302D01*
X46462875Y-65721784D01*
X46464707Y-65715596D01*
X46485674Y-65651070D01*
X46487140Y-65637119D01*
X46490683Y-65618004D01*
X46494313Y-65604459D01*
X46497862Y-65536720D01*
X46498371Y-65530261D01*
X46500161Y-65513235D01*
X46500161Y-65513227D01*
X46500500Y-65510006D01*
X46500500Y-65489638D01*
X46500670Y-65483149D01*
X46504219Y-65415424D01*
X46502027Y-65401585D01*
X46500500Y-65382187D01*
X46500500Y-64483692D01*
X46501179Y-64470731D01*
X46505460Y-64430000D01*
X46485674Y-64241744D01*
X46427179Y-64061716D01*
X46427179Y-64061715D01*
X46332533Y-63897783D01*
X46205870Y-63757110D01*
X46052730Y-63645848D01*
X45879802Y-63568855D01*
X45694648Y-63529500D01*
X45694646Y-63529500D01*
X45505354Y-63529500D01*
X45505352Y-63529500D01*
X45320197Y-63568855D01*
X45147269Y-63645848D01*
X44994129Y-63757110D01*
X44867466Y-63897783D01*
X44772820Y-64061715D01*
X44714326Y-64241742D01*
X44694540Y-64430000D01*
X44698820Y-64470733D01*
X44699499Y-64483692D01*
X44699500Y-65038452D01*
X44679816Y-65105491D01*
X44663181Y-65126133D01*
X43328734Y-66460581D01*
X43267411Y-66494066D01*
X43241053Y-66496900D01*
X33917226Y-66496900D01*
X33897828Y-66495373D01*
X33883988Y-66493181D01*
X33816270Y-66496730D01*
X33809780Y-66496900D01*
X33789408Y-66496900D01*
X33786193Y-66497237D01*
X33786188Y-66497238D01*
X33774553Y-66498460D01*
X33769139Y-66499029D01*
X33762684Y-66499537D01*
X33694951Y-66503087D01*
X33681409Y-66506716D01*
X33662285Y-66510260D01*
X33648344Y-66511725D01*
X33583845Y-66532682D01*
X33577623Y-66534526D01*
X33512110Y-66552080D01*
X33499621Y-66558444D01*
X33481652Y-66565887D01*
X33468317Y-66570220D01*
X33409596Y-66604122D01*
X33403895Y-66607218D01*
X33343445Y-66638019D01*
X33332550Y-66646842D01*
X33316522Y-66657858D01*
X33304384Y-66664866D01*
X33253976Y-66710252D01*
X33249051Y-66714459D01*
X33235736Y-66725243D01*
X33233220Y-66727281D01*
X33230937Y-66729563D01*
X33230919Y-66729580D01*
X33218809Y-66741689D01*
X33214108Y-66746151D01*
X33163708Y-66791532D01*
X33155469Y-66802872D01*
X33142835Y-66817664D01*
X32321464Y-67639035D01*
X32306672Y-67651669D01*
X32295332Y-67659908D01*
X32249951Y-67710308D01*
X32245489Y-67715009D01*
X32233380Y-67727119D01*
X32233363Y-67727137D01*
X32231081Y-67729420D01*
X32229046Y-67731932D01*
X32229043Y-67731936D01*
X32218259Y-67745251D01*
X32214052Y-67750176D01*
X32168666Y-67800584D01*
X32161658Y-67812722D01*
X32150642Y-67828750D01*
X32141819Y-67839645D01*
X32111018Y-67900095D01*
X32107922Y-67905796D01*
X32074022Y-67964513D01*
X32069688Y-67977852D01*
X32062244Y-67995819D01*
X32055880Y-68008312D01*
X32038326Y-68073817D01*
X32036484Y-68080034D01*
X32015525Y-68144543D01*
X32014060Y-68158486D01*
X32010515Y-68177614D01*
X32006886Y-68191154D01*
X32003337Y-68258883D01*
X32002828Y-68265353D01*
X31995740Y-68332800D01*
X22768748Y-68332800D01*
X22756072Y-68284312D01*
X22650130Y-68035010D01*
X22524251Y-67828750D01*
X22509017Y-67803788D01*
X22335746Y-67595581D01*
X22230759Y-67501512D01*
X22134002Y-67414818D01*
X21908090Y-67265356D01*
X21908086Y-67265354D01*
X21662822Y-67150378D01*
X21403437Y-67072341D01*
X21403431Y-67072340D01*
X21135439Y-67032900D01*
X20932369Y-67032900D01*
X20930120Y-67033064D01*
X20930109Y-67033065D01*
X20729843Y-67047722D01*
X20465449Y-67106619D01*
X20212441Y-67203386D01*
X19976223Y-67335959D01*
X19761825Y-67501509D01*
X19573813Y-67696520D01*
X19416201Y-67916820D01*
X19292342Y-68157729D01*
X19204881Y-68414095D01*
X19155680Y-68680466D01*
X19145787Y-68951164D01*
X16943995Y-68951164D01*
X16943995Y-54303799D01*
X36576265Y-54303799D01*
X36595564Y-54524388D01*
X36652878Y-54738283D01*
X36746455Y-54938962D01*
X36746456Y-54938963D01*
X36746458Y-54938967D01*
X36873468Y-55120355D01*
X37030045Y-55276932D01*
X37211433Y-55403942D01*
X37412120Y-55497523D01*
X37626009Y-55554835D01*
X37846600Y-55574134D01*
X38067191Y-55554835D01*
X38281080Y-55497523D01*
X38481767Y-55403942D01*
X38663155Y-55276932D01*
X38819732Y-55120355D01*
X38946742Y-54938967D01*
X39004218Y-54815707D01*
X39050390Y-54763268D01*
X39117583Y-54744116D01*
X39184464Y-54764331D01*
X39228981Y-54815707D01*
X39286458Y-54938967D01*
X39413468Y-55120355D01*
X39570045Y-55276932D01*
X39751433Y-55403942D01*
X39952120Y-55497523D01*
X40166009Y-55554835D01*
X40303994Y-55566907D01*
X40386599Y-55574134D01*
X40386599Y-55574133D01*
X40386600Y-55574134D01*
X40607191Y-55554835D01*
X40821080Y-55497523D01*
X41021767Y-55403942D01*
X41203155Y-55276932D01*
X41359732Y-55120355D01*
X41486742Y-54938967D01*
X41544218Y-54815707D01*
X41590390Y-54763268D01*
X41657583Y-54744116D01*
X41724464Y-54764331D01*
X41768981Y-54815707D01*
X41826458Y-54938967D01*
X41953468Y-55120355D01*
X42110045Y-55276932D01*
X42291433Y-55403942D01*
X42492120Y-55497523D01*
X42706009Y-55554835D01*
X42926600Y-55574134D01*
X43147191Y-55554835D01*
X43361080Y-55497523D01*
X43561767Y-55403942D01*
X43743155Y-55276932D01*
X43899732Y-55120355D01*
X44026742Y-54938967D01*
X44084218Y-54815707D01*
X44130390Y-54763268D01*
X44197583Y-54744116D01*
X44264464Y-54764331D01*
X44308981Y-54815707D01*
X44366458Y-54938967D01*
X44493468Y-55120355D01*
X44650045Y-55276932D01*
X44831433Y-55403942D01*
X45032120Y-55497523D01*
X45246009Y-55554835D01*
X45383994Y-55566907D01*
X45466599Y-55574134D01*
X45466599Y-55574133D01*
X45466600Y-55574134D01*
X45687191Y-55554835D01*
X45901080Y-55497523D01*
X46101767Y-55403942D01*
X46283155Y-55276932D01*
X46439732Y-55120355D01*
X46566742Y-54938967D01*
X46624218Y-54815707D01*
X46670390Y-54763268D01*
X46737583Y-54744116D01*
X46804464Y-54764331D01*
X46848981Y-54815707D01*
X46906458Y-54938967D01*
X47033468Y-55120355D01*
X47190045Y-55276932D01*
X47371433Y-55403942D01*
X47572120Y-55497523D01*
X47786009Y-55554835D01*
X48006600Y-55574134D01*
X48227191Y-55554835D01*
X48441080Y-55497523D01*
X48641767Y-55403942D01*
X48823155Y-55276932D01*
X48979732Y-55120355D01*
X49106742Y-54938967D01*
X49164218Y-54815707D01*
X49210390Y-54763268D01*
X49277583Y-54744116D01*
X49344464Y-54764331D01*
X49388981Y-54815707D01*
X49446458Y-54938967D01*
X49573468Y-55120355D01*
X49730045Y-55276932D01*
X49911433Y-55403942D01*
X50112120Y-55497523D01*
X50326009Y-55554835D01*
X50463994Y-55566907D01*
X50546599Y-55574134D01*
X50546599Y-55574133D01*
X50546600Y-55574134D01*
X50767191Y-55554835D01*
X50981080Y-55497523D01*
X51181767Y-55403942D01*
X51363155Y-55276932D01*
X51519732Y-55120355D01*
X51646742Y-54938967D01*
X51704218Y-54815707D01*
X51750390Y-54763268D01*
X51817583Y-54744116D01*
X51884464Y-54764331D01*
X51928981Y-54815707D01*
X51986458Y-54938967D01*
X52113468Y-55120355D01*
X52270045Y-55276932D01*
X52451433Y-55403942D01*
X52652120Y-55497523D01*
X52866009Y-55554835D01*
X53086600Y-55574134D01*
X53307191Y-55554835D01*
X53521080Y-55497523D01*
X53721767Y-55403942D01*
X53903155Y-55276932D01*
X54059732Y-55120355D01*
X54186742Y-54938967D01*
X54244218Y-54815707D01*
X54290390Y-54763268D01*
X54357583Y-54744116D01*
X54424464Y-54764331D01*
X54468981Y-54815707D01*
X54526458Y-54938967D01*
X54653468Y-55120355D01*
X54810045Y-55276932D01*
X54991433Y-55403942D01*
X55192120Y-55497523D01*
X55406009Y-55554835D01*
X55516304Y-55564484D01*
X55626598Y-55574134D01*
X55626598Y-55574133D01*
X55626600Y-55574134D01*
X55709203Y-55566907D01*
X55777702Y-55580673D01*
X55827885Y-55629288D01*
X55843819Y-55697317D01*
X55820444Y-55763160D01*
X55807691Y-55778116D01*
X55065428Y-56520381D01*
X55004105Y-56553866D01*
X54977747Y-56556700D01*
X50789344Y-56556700D01*
X50768837Y-56554435D01*
X50698727Y-56556639D01*
X50694832Y-56556700D01*
X50667250Y-56556700D01*
X50663405Y-56557185D01*
X50663380Y-56557187D01*
X50663253Y-56557204D01*
X50651633Y-56558118D01*
X50607969Y-56559490D01*
X50588729Y-56565080D01*
X50569681Y-56569025D01*
X50549809Y-56571535D01*
X50509199Y-56587613D01*
X50498154Y-56591394D01*
X50456210Y-56603581D01*
X50438965Y-56613779D01*
X50421504Y-56622333D01*
X50402867Y-56629712D01*
X50367531Y-56655385D01*
X50357774Y-56661795D01*
X50320180Y-56684029D01*
X50306013Y-56698196D01*
X50291224Y-56710826D01*
X50275013Y-56722604D01*
X50247172Y-56756258D01*
X50239311Y-56764897D01*
X46720228Y-60283981D01*
X46658905Y-60317466D01*
X46632547Y-60320300D01*
X46573352Y-60320300D01*
X46388197Y-60359655D01*
X46215269Y-60436648D01*
X46062129Y-60547910D01*
X45935466Y-60688583D01*
X45840820Y-60852515D01*
X45782326Y-61032542D01*
X45762540Y-61220799D01*
X45782326Y-61409057D01*
X45840820Y-61589084D01*
X45935466Y-61753016D01*
X46062129Y-61893689D01*
X46215269Y-62004951D01*
X46388197Y-62081944D01*
X46573352Y-62121300D01*
X46573354Y-62121300D01*
X46762648Y-62121300D01*
X46886084Y-62095062D01*
X46947803Y-62081944D01*
X47120730Y-62004951D01*
X47273871Y-61893688D01*
X47400533Y-61753016D01*
X47495179Y-61589084D01*
X47553674Y-61409056D01*
X47571321Y-61241145D01*
X47597905Y-61176532D01*
X47606952Y-61166436D01*
X50929371Y-57844019D01*
X50990695Y-57810534D01*
X51017053Y-57807700D01*
X55205456Y-57807700D01*
X55225962Y-57809964D01*
X55228865Y-57809872D01*
X55228867Y-57809873D01*
X55296072Y-57807761D01*
X55299968Y-57807700D01*
X55323648Y-57807700D01*
X55327550Y-57807700D01*
X55331513Y-57807199D01*
X55343162Y-57806280D01*
X55386827Y-57804909D01*
X55406059Y-57799320D01*
X55425118Y-57795374D01*
X55431396Y-57794581D01*
X55444992Y-57792864D01*
X55485607Y-57776782D01*
X55496644Y-57773003D01*
X55538590Y-57760818D01*
X55555829Y-57750622D01*
X55573302Y-57742062D01*
X55591932Y-57734686D01*
X55627264Y-57709014D01*
X55637030Y-57702600D01*
X55674618Y-57680371D01*
X55674617Y-57680371D01*
X55674620Y-57680370D01*
X55688785Y-57666204D01*
X55703573Y-57653573D01*
X55719787Y-57641794D01*
X55747638Y-57608126D01*
X55755479Y-57599509D01*
X57780356Y-55574633D01*
X57841677Y-55541150D01*
X57900130Y-55542542D01*
X57946007Y-55554835D01*
X58166600Y-55574134D01*
X58387191Y-55554835D01*
X58601080Y-55497523D01*
X58801767Y-55403942D01*
X58983155Y-55276932D01*
X59139732Y-55120355D01*
X59266742Y-54938967D01*
X59324218Y-54815707D01*
X59370390Y-54763268D01*
X59437583Y-54744116D01*
X59504464Y-54764331D01*
X59548981Y-54815707D01*
X59606458Y-54938967D01*
X59733468Y-55120355D01*
X59890045Y-55276932D01*
X60071433Y-55403942D01*
X60272120Y-55497523D01*
X60486009Y-55554835D01*
X60623994Y-55566907D01*
X60706599Y-55574134D01*
X60706599Y-55574133D01*
X60706600Y-55574134D01*
X60927191Y-55554835D01*
X61141080Y-55497523D01*
X61341767Y-55403942D01*
X61523155Y-55276932D01*
X61679732Y-55120355D01*
X61806742Y-54938967D01*
X61864218Y-54815707D01*
X61910390Y-54763268D01*
X61977583Y-54744116D01*
X62044464Y-54764331D01*
X62088981Y-54815707D01*
X62146458Y-54938967D01*
X62273468Y-55120355D01*
X62430045Y-55276932D01*
X62611433Y-55403942D01*
X62812120Y-55497523D01*
X63026009Y-55554835D01*
X63246600Y-55574134D01*
X63467191Y-55554835D01*
X63681080Y-55497523D01*
X63881767Y-55403942D01*
X64063155Y-55276932D01*
X64219732Y-55120355D01*
X64346742Y-54938967D01*
X64404218Y-54815707D01*
X64450390Y-54763268D01*
X64517583Y-54744116D01*
X64584464Y-54764331D01*
X64628981Y-54815707D01*
X64686458Y-54938967D01*
X64813468Y-55120355D01*
X64970045Y-55276932D01*
X65151433Y-55403942D01*
X65352120Y-55497523D01*
X65566009Y-55554835D01*
X65703994Y-55566907D01*
X65786599Y-55574134D01*
X65786599Y-55574133D01*
X65786600Y-55574134D01*
X66007191Y-55554835D01*
X66221080Y-55497523D01*
X66421767Y-55403942D01*
X66603155Y-55276932D01*
X66759732Y-55120355D01*
X66886742Y-54938967D01*
X66944218Y-54815707D01*
X66990390Y-54763268D01*
X67057583Y-54744116D01*
X67124464Y-54764331D01*
X67168981Y-54815707D01*
X67226458Y-54938967D01*
X67353468Y-55120355D01*
X67510045Y-55276932D01*
X67691433Y-55403942D01*
X67892120Y-55497523D01*
X68106009Y-55554835D01*
X68326600Y-55574134D01*
X68547191Y-55554835D01*
X68761080Y-55497523D01*
X68961767Y-55403942D01*
X69143155Y-55276932D01*
X69299732Y-55120355D01*
X69426742Y-54938967D01*
X69520323Y-54738280D01*
X69577635Y-54524391D01*
X69596934Y-54303800D01*
X69577635Y-54083209D01*
X69520323Y-53869320D01*
X69426742Y-53668633D01*
X69299732Y-53487245D01*
X69143155Y-53330668D01*
X68961767Y-53203658D01*
X68961764Y-53203657D01*
X68961762Y-53203655D01*
X68761083Y-53110078D01*
X68761080Y-53110077D01*
X68573726Y-53059875D01*
X68547188Y-53052764D01*
X68326600Y-53033465D01*
X68106011Y-53052764D01*
X67892116Y-53110078D01*
X67691437Y-53203655D01*
X67510041Y-53330671D01*
X67353471Y-53487241D01*
X67226455Y-53668637D01*
X67168982Y-53791891D01*
X67122810Y-53844331D01*
X67055617Y-53863483D01*
X66988735Y-53843267D01*
X66944218Y-53791891D01*
X66886744Y-53668637D01*
X66886743Y-53668636D01*
X66886742Y-53668633D01*
X66759732Y-53487245D01*
X66603155Y-53330668D01*
X66421767Y-53203658D01*
X66421764Y-53203657D01*
X66421762Y-53203655D01*
X66221083Y-53110078D01*
X66221080Y-53110077D01*
X66033726Y-53059875D01*
X66007188Y-53052764D01*
X65786599Y-53033465D01*
X65566011Y-53052764D01*
X65352116Y-53110078D01*
X65151437Y-53203655D01*
X64970041Y-53330671D01*
X64813471Y-53487241D01*
X64686455Y-53668637D01*
X64628982Y-53791891D01*
X64582810Y-53844331D01*
X64515617Y-53863483D01*
X64448735Y-53843267D01*
X64404218Y-53791891D01*
X64346744Y-53668637D01*
X64346743Y-53668636D01*
X64346742Y-53668633D01*
X64219732Y-53487245D01*
X64063155Y-53330668D01*
X63881767Y-53203658D01*
X63881764Y-53203657D01*
X63881762Y-53203655D01*
X63681083Y-53110078D01*
X63681080Y-53110077D01*
X63493726Y-53059875D01*
X63467188Y-53052764D01*
X63246599Y-53033465D01*
X63026011Y-53052764D01*
X62812116Y-53110078D01*
X62611437Y-53203655D01*
X62430041Y-53330671D01*
X62273471Y-53487241D01*
X62146455Y-53668637D01*
X62088982Y-53791891D01*
X62042810Y-53844331D01*
X61975617Y-53863483D01*
X61908735Y-53843267D01*
X61864218Y-53791891D01*
X61806744Y-53668637D01*
X61806743Y-53668636D01*
X61806742Y-53668633D01*
X61679732Y-53487245D01*
X61523155Y-53330668D01*
X61341767Y-53203658D01*
X61341764Y-53203657D01*
X61341762Y-53203655D01*
X61141083Y-53110078D01*
X61141080Y-53110077D01*
X60953726Y-53059875D01*
X60927188Y-53052764D01*
X60706599Y-53033465D01*
X60486011Y-53052764D01*
X60272116Y-53110078D01*
X60071437Y-53203655D01*
X59890041Y-53330671D01*
X59733471Y-53487241D01*
X59606455Y-53668637D01*
X59548982Y-53791891D01*
X59502810Y-53844331D01*
X59435617Y-53863483D01*
X59368735Y-53843267D01*
X59324218Y-53791891D01*
X59266744Y-53668637D01*
X59266743Y-53668636D01*
X59266742Y-53668633D01*
X59139732Y-53487245D01*
X58983155Y-53330668D01*
X58801767Y-53203658D01*
X58801764Y-53203657D01*
X58801762Y-53203655D01*
X58601083Y-53110078D01*
X58601080Y-53110077D01*
X58413726Y-53059875D01*
X58387188Y-53052764D01*
X58166600Y-53033465D01*
X57946011Y-53052764D01*
X57732116Y-53110078D01*
X57531437Y-53203655D01*
X57350041Y-53330671D01*
X57193471Y-53487241D01*
X57066455Y-53668637D01*
X57008982Y-53791891D01*
X56962810Y-53844331D01*
X56895617Y-53863483D01*
X56828735Y-53843267D01*
X56784218Y-53791891D01*
X56726744Y-53668637D01*
X56726743Y-53668636D01*
X56726742Y-53668633D01*
X56599732Y-53487245D01*
X56443155Y-53330668D01*
X56261767Y-53203658D01*
X56261764Y-53203657D01*
X56261762Y-53203655D01*
X56061083Y-53110078D01*
X56061080Y-53110077D01*
X55873726Y-53059875D01*
X55847188Y-53052764D01*
X55626599Y-53033465D01*
X55406011Y-53052764D01*
X55192116Y-53110078D01*
X54991437Y-53203655D01*
X54810041Y-53330671D01*
X54653471Y-53487241D01*
X54526455Y-53668637D01*
X54468982Y-53791891D01*
X54422810Y-53844331D01*
X54355617Y-53863483D01*
X54288735Y-53843267D01*
X54244218Y-53791891D01*
X54186744Y-53668637D01*
X54186743Y-53668636D01*
X54186742Y-53668633D01*
X54059732Y-53487245D01*
X53903155Y-53330668D01*
X53721767Y-53203658D01*
X53721764Y-53203657D01*
X53721762Y-53203655D01*
X53521083Y-53110078D01*
X53521080Y-53110077D01*
X53333726Y-53059875D01*
X53307188Y-53052764D01*
X53086599Y-53033465D01*
X52866011Y-53052764D01*
X52652116Y-53110078D01*
X52451437Y-53203655D01*
X52270041Y-53330671D01*
X52113471Y-53487241D01*
X51986455Y-53668637D01*
X51928982Y-53791891D01*
X51882810Y-53844331D01*
X51815617Y-53863483D01*
X51748735Y-53843267D01*
X51704218Y-53791891D01*
X51646744Y-53668637D01*
X51646743Y-53668636D01*
X51646742Y-53668633D01*
X51519732Y-53487245D01*
X51363155Y-53330668D01*
X51181767Y-53203658D01*
X51181764Y-53203657D01*
X51181762Y-53203655D01*
X50981083Y-53110078D01*
X50981080Y-53110077D01*
X50793726Y-53059875D01*
X50767188Y-53052764D01*
X50546599Y-53033465D01*
X50326011Y-53052764D01*
X50147115Y-53100700D01*
X50077265Y-53099037D01*
X50019402Y-53059875D01*
X49991898Y-52995647D01*
X49991700Y-52967970D01*
X50002060Y-52869400D01*
X49982274Y-52681144D01*
X49950304Y-52582750D01*
X49923779Y-52501115D01*
X49829133Y-52337183D01*
X49753950Y-52253684D01*
X49723720Y-52190693D01*
X49722100Y-52170712D01*
X49722100Y-49228356D01*
X49722100Y-45922507D01*
X49741784Y-45855472D01*
X49753943Y-45839546D01*
X49869133Y-45711616D01*
X49963779Y-45547684D01*
X50022274Y-45367656D01*
X50042060Y-45179400D01*
X50022274Y-44991144D01*
X49963779Y-44811116D01*
X49963779Y-44811115D01*
X49869133Y-44647183D01*
X49742470Y-44506510D01*
X49589330Y-44395248D01*
X49416402Y-44318255D01*
X49356036Y-44305424D01*
X49294554Y-44272232D01*
X49260778Y-44211069D01*
X49265430Y-44141354D01*
X49294134Y-44096456D01*
X50769371Y-42621219D01*
X50830695Y-42587734D01*
X50857053Y-42584900D01*
X52648256Y-42584900D01*
X52668762Y-42587164D01*
X52671665Y-42587072D01*
X52671667Y-42587073D01*
X52738872Y-42584961D01*
X52742768Y-42584900D01*
X52766448Y-42584900D01*
X52770350Y-42584900D01*
X52774313Y-42584399D01*
X52785962Y-42583480D01*
X52829627Y-42582109D01*
X52848859Y-42576520D01*
X52867918Y-42572574D01*
X52874196Y-42571781D01*
X52887792Y-42570064D01*
X52928407Y-42553982D01*
X52939444Y-42550203D01*
X52981390Y-42538018D01*
X52998629Y-42527822D01*
X53016102Y-42519262D01*
X53034732Y-42511886D01*
X53070064Y-42486214D01*
X53079830Y-42479800D01*
X53117418Y-42457571D01*
X53117417Y-42457571D01*
X53117420Y-42457570D01*
X53131585Y-42443404D01*
X53146373Y-42430773D01*
X53162587Y-42418994D01*
X53190438Y-42385326D01*
X53198279Y-42376709D01*
X54535588Y-41039400D01*
X71201140Y-41039400D01*
X71220926Y-41227657D01*
X71279420Y-41407684D01*
X71374066Y-41571616D01*
X71500729Y-41712289D01*
X71653869Y-41823551D01*
X71826797Y-41900544D01*
X72011952Y-41939900D01*
X72011954Y-41939900D01*
X72071148Y-41939900D01*
X72138187Y-41959585D01*
X72158829Y-41976219D01*
X74664781Y-44482170D01*
X74698266Y-44543493D01*
X74701100Y-44569851D01*
X74701100Y-50410712D01*
X74681415Y-50477751D01*
X74669250Y-50493684D01*
X74594066Y-50577183D01*
X74499420Y-50741115D01*
X74440926Y-50921142D01*
X74421140Y-51109400D01*
X74440926Y-51297657D01*
X74499420Y-51477684D01*
X74594066Y-51641616D01*
X74720729Y-51782289D01*
X74873869Y-51893551D01*
X75046797Y-51970544D01*
X75231952Y-52009900D01*
X75231954Y-52009900D01*
X75421248Y-52009900D01*
X75544684Y-51983662D01*
X75606403Y-51970544D01*
X75779330Y-51893551D01*
X75932471Y-51782288D01*
X76059133Y-51641616D01*
X76153779Y-51477684D01*
X76212274Y-51297656D01*
X76232060Y-51109400D01*
X76212274Y-50921144D01*
X76153779Y-50741116D01*
X76153779Y-50741115D01*
X76059133Y-50577183D01*
X75983950Y-50493684D01*
X75953720Y-50430693D01*
X75952100Y-50410712D01*
X75952100Y-44342143D01*
X75954364Y-44321639D01*
X75953949Y-44308442D01*
X75952161Y-44251512D01*
X75952100Y-44247618D01*
X75952100Y-44223941D01*
X75952100Y-44220050D01*
X75951598Y-44216083D01*
X75950681Y-44204427D01*
X75949626Y-44170844D01*
X75949310Y-44160773D01*
X75943718Y-44141526D01*
X75939774Y-44122485D01*
X75937264Y-44102608D01*
X75921179Y-44061983D01*
X75917408Y-44050968D01*
X75905218Y-44009010D01*
X75895014Y-43991755D01*
X75886461Y-43974295D01*
X75879086Y-43955669D01*
X75879086Y-43955668D01*
X75853408Y-43920325D01*
X75847001Y-43910571D01*
X75824769Y-43872979D01*
X75810606Y-43858816D01*
X75797967Y-43844017D01*
X75786195Y-43827813D01*
X75752541Y-43799973D01*
X75743899Y-43792109D01*
X73045560Y-41093769D01*
X73012075Y-41032446D01*
X73009923Y-41019068D01*
X72992274Y-40851144D01*
X72933779Y-40671116D01*
X72933779Y-40671115D01*
X72839133Y-40507183D01*
X72712470Y-40366510D01*
X72559330Y-40255248D01*
X72386402Y-40178255D01*
X72201248Y-40138900D01*
X72201246Y-40138900D01*
X72011954Y-40138900D01*
X72011952Y-40138900D01*
X71826797Y-40178255D01*
X71653869Y-40255248D01*
X71500729Y-40366510D01*
X71374066Y-40507183D01*
X71279420Y-40671115D01*
X71220926Y-40851142D01*
X71201140Y-41039400D01*
X54535588Y-41039400D01*
X55240355Y-40334633D01*
X55301676Y-40301150D01*
X55360127Y-40302540D01*
X55406009Y-40314835D01*
X55543994Y-40326907D01*
X55626599Y-40334134D01*
X55626599Y-40334133D01*
X55626600Y-40334134D01*
X55847191Y-40314835D01*
X56061080Y-40257523D01*
X56261767Y-40163942D01*
X56443155Y-40036932D01*
X56599732Y-39880355D01*
X56726742Y-39698967D01*
X56784218Y-39575707D01*
X56830390Y-39523268D01*
X56897583Y-39504116D01*
X56964464Y-39524331D01*
X57008981Y-39575707D01*
X57066458Y-39698967D01*
X57193468Y-39880355D01*
X57350045Y-40036932D01*
X57531433Y-40163942D01*
X57531436Y-40163943D01*
X57531437Y-40163944D01*
X57562130Y-40178256D01*
X57732120Y-40257523D01*
X57946009Y-40314835D01*
X58083994Y-40326907D01*
X58166599Y-40334134D01*
X58166599Y-40334133D01*
X58166600Y-40334134D01*
X58387191Y-40314835D01*
X58601080Y-40257523D01*
X58801767Y-40163942D01*
X58983155Y-40036932D01*
X59139732Y-39880355D01*
X59266742Y-39698967D01*
X59324218Y-39575707D01*
X59370390Y-39523268D01*
X59437583Y-39504116D01*
X59504464Y-39524331D01*
X59548981Y-39575707D01*
X59606458Y-39698967D01*
X59733468Y-39880355D01*
X59890045Y-40036932D01*
X60071433Y-40163942D01*
X60071436Y-40163943D01*
X60071437Y-40163944D01*
X60102130Y-40178256D01*
X60272120Y-40257523D01*
X60486009Y-40314835D01*
X60706600Y-40334134D01*
X60927191Y-40314835D01*
X61141080Y-40257523D01*
X61341767Y-40163942D01*
X61523155Y-40036932D01*
X61679732Y-39880355D01*
X61806742Y-39698967D01*
X61864218Y-39575707D01*
X61910390Y-39523268D01*
X61977583Y-39504116D01*
X62044464Y-39524331D01*
X62088981Y-39575707D01*
X62146458Y-39698967D01*
X62273468Y-39880355D01*
X62430045Y-40036932D01*
X62611433Y-40163942D01*
X62611436Y-40163943D01*
X62611437Y-40163944D01*
X62642130Y-40178256D01*
X62812120Y-40257523D01*
X63026009Y-40314835D01*
X63246600Y-40334134D01*
X63467191Y-40314835D01*
X63681080Y-40257523D01*
X63881767Y-40163942D01*
X64063155Y-40036932D01*
X64219732Y-39880355D01*
X64346742Y-39698967D01*
X64404218Y-39575707D01*
X64450390Y-39523268D01*
X64517583Y-39504116D01*
X64584464Y-39524331D01*
X64628981Y-39575707D01*
X64686458Y-39698967D01*
X64813468Y-39880355D01*
X64970045Y-40036932D01*
X65151433Y-40163942D01*
X65151436Y-40163943D01*
X65151437Y-40163944D01*
X65182130Y-40178256D01*
X65352120Y-40257523D01*
X65566009Y-40314835D01*
X65703994Y-40326907D01*
X65786599Y-40334134D01*
X65786599Y-40334133D01*
X65786600Y-40334134D01*
X66007191Y-40314835D01*
X66221080Y-40257523D01*
X66421767Y-40163942D01*
X66603155Y-40036932D01*
X66759732Y-39880355D01*
X66886742Y-39698967D01*
X66944218Y-39575707D01*
X66990390Y-39523268D01*
X67057583Y-39504116D01*
X67124464Y-39524331D01*
X67168981Y-39575707D01*
X67226458Y-39698967D01*
X67353468Y-39880355D01*
X67510045Y-40036932D01*
X67691433Y-40163942D01*
X67691436Y-40163943D01*
X67691437Y-40163944D01*
X67722130Y-40178256D01*
X67892120Y-40257523D01*
X68106009Y-40314835D01*
X68326600Y-40334134D01*
X68547191Y-40314835D01*
X68761080Y-40257523D01*
X68961767Y-40163942D01*
X69143155Y-40036932D01*
X69299732Y-39880355D01*
X69396487Y-39742174D01*
X69451064Y-39698551D01*
X69498061Y-39689300D01*
X78531748Y-39689300D01*
X78598787Y-39708985D01*
X78619429Y-39725619D01*
X81329981Y-42436171D01*
X81363466Y-42497494D01*
X81366300Y-42523852D01*
X81366300Y-46998829D01*
X81346615Y-47065868D01*
X81315188Y-47099145D01*
X81309729Y-47103111D01*
X81183066Y-47243783D01*
X81088420Y-47407715D01*
X81029926Y-47587742D01*
X81010140Y-47776000D01*
X81029926Y-47964257D01*
X81088420Y-48144284D01*
X81183066Y-48308216D01*
X81309729Y-48448889D01*
X81462869Y-48560151D01*
X81635797Y-48637144D01*
X81820952Y-48676500D01*
X81891100Y-48676500D01*
X81958139Y-48696185D01*
X82003894Y-48748989D01*
X82015100Y-48800500D01*
X82015100Y-56412203D01*
X81995415Y-56479242D01*
X81963988Y-56512519D01*
X81944732Y-56526509D01*
X81818064Y-56667186D01*
X81723420Y-56831115D01*
X81664926Y-57011142D01*
X81645140Y-57199400D01*
X81664926Y-57387657D01*
X81723420Y-57567684D01*
X81818066Y-57731616D01*
X81944729Y-57872289D01*
X82097869Y-57983551D01*
X82270797Y-58060544D01*
X82455952Y-58099900D01*
X82455954Y-58099900D01*
X82645248Y-58099900D01*
X82768683Y-58073662D01*
X82830403Y-58060544D01*
X83003330Y-57983551D01*
X83156471Y-57872288D01*
X83283133Y-57731616D01*
X83377779Y-57567684D01*
X83436274Y-57387656D01*
X83456060Y-57199400D01*
X83436274Y-57011144D01*
X83377779Y-56831116D01*
X83377779Y-56831115D01*
X83282713Y-56666457D01*
X83266100Y-56604457D01*
X83266100Y-39663539D01*
X83268363Y-39643038D01*
X83266161Y-39572944D01*
X83266100Y-39569050D01*
X83266100Y-39545344D01*
X83266100Y-39541450D01*
X83265598Y-39537481D01*
X83264680Y-39525824D01*
X83263309Y-39482173D01*
X83257720Y-39462940D01*
X83253774Y-39443882D01*
X83251264Y-39424008D01*
X83235188Y-39383406D01*
X83231404Y-39372352D01*
X83219219Y-39330413D01*
X83219218Y-39330412D01*
X83219218Y-39330410D01*
X83209017Y-39313161D01*
X83200460Y-39295695D01*
X83193086Y-39277068D01*
X83167413Y-39241732D01*
X83161002Y-39231972D01*
X83138769Y-39194378D01*
X83124606Y-39180215D01*
X83111969Y-39165420D01*
X83100195Y-39149214D01*
X83100194Y-39149213D01*
X83066535Y-39121368D01*
X83057905Y-39113514D01*
X82473106Y-38528715D01*
X82439621Y-38467392D01*
X82437466Y-38428075D01*
X82440060Y-38403400D01*
X82420274Y-38215144D01*
X82361779Y-38035116D01*
X82361779Y-38035115D01*
X82267133Y-37871183D01*
X82140470Y-37730510D01*
X81987330Y-37619248D01*
X81814402Y-37542255D01*
X81629248Y-37502900D01*
X81629246Y-37502900D01*
X81439954Y-37502900D01*
X81439952Y-37502900D01*
X81254797Y-37542255D01*
X81081869Y-37619248D01*
X80928729Y-37730510D01*
X80802066Y-37871183D01*
X80707420Y-38035115D01*
X80648926Y-38215142D01*
X80645552Y-38247242D01*
X80629140Y-38403400D01*
X80632318Y-38433640D01*
X80648926Y-38591657D01*
X80707420Y-38771684D01*
X80802066Y-38935616D01*
X80928729Y-39076289D01*
X81081869Y-39187551D01*
X81254797Y-39264544D01*
X81452702Y-39306610D01*
X81451778Y-39310956D01*
X81494787Y-39323585D01*
X81515429Y-39340219D01*
X81978781Y-39803571D01*
X82012266Y-39864894D01*
X82015100Y-39891252D01*
X82015100Y-41052747D01*
X81995415Y-41119786D01*
X81942611Y-41165541D01*
X81873453Y-41175485D01*
X81809897Y-41146460D01*
X81803419Y-41140428D01*
X79343002Y-38680011D01*
X79330106Y-38663913D01*
X79278975Y-38615898D01*
X79276178Y-38613187D01*
X79259427Y-38596436D01*
X79256671Y-38593680D01*
X79253490Y-38591212D01*
X79244622Y-38583637D01*
X79212782Y-38553738D01*
X79195224Y-38544085D01*
X79178964Y-38533404D01*
X79163136Y-38521127D01*
X79123051Y-38503780D01*
X79112561Y-38498641D01*
X79074291Y-38477602D01*
X79054891Y-38472621D01*
X79036484Y-38466319D01*
X79018097Y-38458362D01*
X78974958Y-38451529D01*
X78963524Y-38449161D01*
X78921219Y-38438300D01*
X78901184Y-38438300D01*
X78881786Y-38436773D01*
X78874362Y-38435597D01*
X78862005Y-38433640D01*
X78862004Y-38433640D01*
X78828951Y-38436764D01*
X78818525Y-38437750D01*
X78806856Y-38438300D01*
X69498061Y-38438300D01*
X69431022Y-38418615D01*
X69396487Y-38385425D01*
X69299732Y-38247245D01*
X69143155Y-38090668D01*
X68961767Y-37963658D01*
X68961764Y-37963657D01*
X68961762Y-37963655D01*
X68761083Y-37870078D01*
X68761080Y-37870077D01*
X68593069Y-37825058D01*
X68547188Y-37812764D01*
X68326599Y-37793465D01*
X68106011Y-37812764D01*
X67892116Y-37870078D01*
X67691437Y-37963655D01*
X67510041Y-38090671D01*
X67353471Y-38247241D01*
X67226455Y-38428637D01*
X67168982Y-38551891D01*
X67122810Y-38604331D01*
X67055617Y-38623483D01*
X66988735Y-38603267D01*
X66944218Y-38551891D01*
X66886744Y-38428637D01*
X66886743Y-38428636D01*
X66886742Y-38428633D01*
X66759732Y-38247245D01*
X66603155Y-38090668D01*
X66421767Y-37963658D01*
X66421764Y-37963657D01*
X66421762Y-37963655D01*
X66221083Y-37870078D01*
X66221080Y-37870077D01*
X66053069Y-37825058D01*
X66007188Y-37812764D01*
X65786599Y-37793465D01*
X65703994Y-37800692D01*
X65635494Y-37786925D01*
X65585311Y-37738309D01*
X65569378Y-37670281D01*
X65592754Y-37604437D01*
X65605500Y-37589489D01*
X67620389Y-35574600D01*
X67636485Y-35561706D01*
X67638473Y-35559587D01*
X67638477Y-35559586D01*
X67684549Y-35510523D01*
X67687134Y-35507855D01*
X67706720Y-35488271D01*
X67709185Y-35485092D01*
X67716767Y-35476216D01*
X67722687Y-35469912D01*
X67746662Y-35444382D01*
X67756317Y-35426818D01*
X67766994Y-35410564D01*
X67779273Y-35394736D01*
X67796618Y-35354652D01*
X67801760Y-35344156D01*
X67811329Y-35326751D01*
X67822797Y-35305892D01*
X67827779Y-35286484D01*
X67834081Y-35268080D01*
X67842037Y-35249696D01*
X67848869Y-35206552D01*
X67851233Y-35195138D01*
X67862100Y-35152819D01*
X67862100Y-35132782D01*
X67863627Y-35113384D01*
X67866760Y-35093604D01*
X67862650Y-35050124D01*
X67862100Y-35038455D01*
X67862100Y-25939852D01*
X67881785Y-25872813D01*
X67898419Y-25852171D01*
X68809372Y-24941219D01*
X68870695Y-24907734D01*
X68897053Y-24904900D01*
X69286856Y-24904900D01*
X69307362Y-24907164D01*
X69310265Y-24907072D01*
X69310267Y-24907073D01*
X69377472Y-24904961D01*
X69381368Y-24904900D01*
X69405048Y-24904900D01*
X69408950Y-24904900D01*
X69412913Y-24904399D01*
X69424562Y-24903480D01*
X69468227Y-24902109D01*
X69487459Y-24896520D01*
X69506518Y-24892574D01*
X69512796Y-24891781D01*
X69526392Y-24890064D01*
X69567007Y-24873982D01*
X69578044Y-24870203D01*
X69619990Y-24858018D01*
X69637229Y-24847822D01*
X69654702Y-24839262D01*
X69673332Y-24831886D01*
X69708664Y-24806214D01*
X69718430Y-24799800D01*
X69756018Y-24777571D01*
X69756017Y-24777571D01*
X69756020Y-24777570D01*
X69770185Y-24763404D01*
X69784973Y-24750773D01*
X69801187Y-24738994D01*
X69829038Y-24705326D01*
X69836879Y-24696709D01*
X69902953Y-24630635D01*
X69964274Y-24597152D01*
X70022725Y-24598542D01*
X70123192Y-24625463D01*
X70358600Y-24646059D01*
X70594008Y-24625463D01*
X70822263Y-24564303D01*
X71036430Y-24464435D01*
X71230001Y-24328895D01*
X71397095Y-24161801D01*
X71485931Y-24034928D01*
X71540504Y-23991307D01*
X71610003Y-23984113D01*
X71672358Y-24015635D01*
X71675184Y-24018374D01*
X74057242Y-26400432D01*
X74090727Y-26461755D01*
X74085743Y-26531447D01*
X74065104Y-26567154D01*
X74039373Y-26598257D01*
X74031511Y-26606897D01*
X71920780Y-28717628D01*
X71859457Y-28751113D01*
X71789765Y-28746129D01*
X71733832Y-28704257D01*
X71709415Y-28638793D01*
X71709099Y-28629947D01*
X71709099Y-27729839D01*
X71709099Y-27729838D01*
X71709099Y-27726528D01*
X71702691Y-27666917D01*
X71652396Y-27532069D01*
X71566146Y-27416854D01*
X71450931Y-27330604D01*
X71316083Y-27280309D01*
X71256473Y-27273900D01*
X71253150Y-27273900D01*
X69464039Y-27273900D01*
X69464020Y-27273900D01*
X69460728Y-27273901D01*
X69457448Y-27274253D01*
X69457440Y-27274254D01*
X69401115Y-27280309D01*
X69266269Y-27330604D01*
X69151054Y-27416854D01*
X69064804Y-27532068D01*
X69014510Y-27666915D01*
X69014509Y-27666917D01*
X69008100Y-27726527D01*
X69008100Y-27729848D01*
X69008100Y-27729849D01*
X69008100Y-29518960D01*
X69008100Y-29518978D01*
X69008101Y-29522272D01*
X69014509Y-29581883D01*
X69064804Y-29716731D01*
X69151054Y-29831946D01*
X69266269Y-29918196D01*
X69378507Y-29960058D01*
X69397682Y-29967210D01*
X69453616Y-30009081D01*
X69478033Y-30074546D01*
X69463181Y-30142819D01*
X69442031Y-30171073D01*
X69320103Y-30293001D01*
X69184565Y-30486570D01*
X69084697Y-30700736D01*
X69023536Y-30928992D01*
X69002940Y-31164400D01*
X69023536Y-31399807D01*
X69068309Y-31566902D01*
X69084697Y-31628063D01*
X69184565Y-31842230D01*
X69320105Y-32035801D01*
X69487199Y-32202895D01*
X69672760Y-32332826D01*
X69716383Y-32387402D01*
X69723576Y-32456901D01*
X69692054Y-32519255D01*
X69672758Y-32535975D01*
X69508075Y-32651288D01*
X69487195Y-32665908D01*
X69320105Y-32832998D01*
X69184565Y-33026570D01*
X69084697Y-33240736D01*
X69023536Y-33468992D01*
X69002940Y-33704399D01*
X69023536Y-33939807D01*
X69068309Y-34106901D01*
X69084697Y-34168063D01*
X69184565Y-34382230D01*
X69320105Y-34575801D01*
X69487199Y-34742895D01*
X69680770Y-34878435D01*
X69894937Y-34978303D01*
X70123192Y-35039463D01*
X70358600Y-35060059D01*
X70594008Y-35039463D01*
X70822263Y-34978303D01*
X71036430Y-34878435D01*
X71230001Y-34742895D01*
X71397095Y-34575801D01*
X71532635Y-34382230D01*
X71632503Y-34168063D01*
X71693663Y-33939808D01*
X71714259Y-33704400D01*
X71708899Y-33643142D01*
X71693663Y-33468992D01*
X71692088Y-33463115D01*
X71632503Y-33240737D01*
X71532635Y-33026571D01*
X71397095Y-32832999D01*
X71230001Y-32665905D01*
X71044439Y-32535973D01*
X71000816Y-32481398D01*
X70993622Y-32411900D01*
X71025145Y-32349545D01*
X71044437Y-32332828D01*
X71230001Y-32202895D01*
X71397095Y-32035801D01*
X71532635Y-31842230D01*
X71632503Y-31628063D01*
X71693663Y-31399808D01*
X71714259Y-31164400D01*
X71693663Y-30928992D01*
X71666743Y-30828525D01*
X71668406Y-30758676D01*
X71698835Y-30708753D01*
X74721571Y-27686019D01*
X74782895Y-27652534D01*
X74809253Y-27649700D01*
X82290948Y-27649700D01*
X82357987Y-27669385D01*
X82378629Y-27686019D01*
X87446671Y-32754062D01*
X87480156Y-32815385D01*
X87475172Y-32885077D01*
X87433300Y-32941010D01*
X87384773Y-32963033D01*
X87350796Y-32970255D01*
X87177869Y-33047248D01*
X87024729Y-33158510D01*
X86898066Y-33299183D01*
X86803420Y-33463115D01*
X86744926Y-33643142D01*
X86725140Y-33831400D01*
X86744926Y-34019657D01*
X86803420Y-34199684D01*
X86898064Y-34363613D01*
X86973250Y-34447114D01*
X87003480Y-34510106D01*
X87005100Y-34530087D01*
X87005100Y-56500712D01*
X86985415Y-56567751D01*
X86973250Y-56583684D01*
X86898066Y-56667183D01*
X86803420Y-56831115D01*
X86744926Y-57011142D01*
X86725140Y-57199400D01*
X86744926Y-57387657D01*
X86803420Y-57567684D01*
X86898066Y-57731616D01*
X87024729Y-57872289D01*
X87177869Y-57983551D01*
X87350797Y-58060544D01*
X87535952Y-58099900D01*
X87535954Y-58099900D01*
X87725248Y-58099900D01*
X87848684Y-58073662D01*
X87910403Y-58060544D01*
X88083330Y-57983551D01*
X88236471Y-57872288D01*
X88363133Y-57731616D01*
X88457779Y-57567684D01*
X88516274Y-57387656D01*
X88536060Y-57199400D01*
X88516274Y-57011144D01*
X88457779Y-56831116D01*
X88457779Y-56831115D01*
X88363133Y-56667183D01*
X88287950Y-56583684D01*
X88257720Y-56520693D01*
X88256100Y-56500712D01*
X88256100Y-34530087D01*
X88275785Y-34463048D01*
X88287950Y-34447114D01*
X88363133Y-34363616D01*
X88457779Y-34199684D01*
X88501808Y-34064175D01*
X88541247Y-34006499D01*
X88605605Y-33979301D01*
X88674451Y-33991216D01*
X88707421Y-34014812D01*
X89180838Y-34488229D01*
X89214323Y-34549552D01*
X89216478Y-34562948D01*
X89234126Y-34730857D01*
X89292620Y-34910884D01*
X89387266Y-35074816D01*
X89513929Y-35215489D01*
X89667069Y-35326751D01*
X89839997Y-35403744D01*
X90025152Y-35443100D01*
X90025154Y-35443100D01*
X90214448Y-35443100D01*
X90342399Y-35415903D01*
X90399603Y-35403744D01*
X90572530Y-35326751D01*
X90725671Y-35215488D01*
X90762985Y-35174045D01*
X90822471Y-35137398D01*
X90892328Y-35138727D01*
X90947286Y-35174047D01*
X90961730Y-35190089D01*
X91114869Y-35301351D01*
X91287797Y-35378344D01*
X91472952Y-35417700D01*
X91472954Y-35417700D01*
X91662248Y-35417700D01*
X91785683Y-35391462D01*
X91847403Y-35378344D01*
X92020330Y-35301351D01*
X92091429Y-35249695D01*
X92173470Y-35190089D01*
X92300133Y-35049416D01*
X92394779Y-34885484D01*
X92441109Y-34742895D01*
X92453274Y-34705456D01*
X92473060Y-34517200D01*
X92453274Y-34328944D01*
X92411275Y-34199684D01*
X92394779Y-34148915D01*
X92300133Y-33984983D01*
X92173470Y-33844310D01*
X92020330Y-33733048D01*
X91847402Y-33656055D01*
X91662248Y-33616700D01*
X91662246Y-33616700D01*
X91603053Y-33616700D01*
X91536014Y-33597015D01*
X91515372Y-33580381D01*
X90722202Y-32787211D01*
X90709306Y-32771113D01*
X90658175Y-32723098D01*
X90655378Y-32720387D01*
X90638627Y-32703636D01*
X90635871Y-32700880D01*
X90632690Y-32698412D01*
X90623822Y-32690837D01*
X90591982Y-32660938D01*
X90574424Y-32651285D01*
X90558164Y-32640604D01*
X90542336Y-32628327D01*
X90502251Y-32610980D01*
X90491761Y-32605841D01*
X90453491Y-32584802D01*
X90434091Y-32579821D01*
X90415684Y-32573519D01*
X90397297Y-32565562D01*
X90354158Y-32558729D01*
X90342724Y-32556361D01*
X90300419Y-32545500D01*
X90280384Y-32545500D01*
X90260986Y-32543973D01*
X90253562Y-32542797D01*
X90241205Y-32540840D01*
X90241204Y-32540840D01*
X90208151Y-32543964D01*
X90197725Y-32544950D01*
X90186056Y-32545500D01*
X89719053Y-32545500D01*
X89652014Y-32525815D01*
X89631372Y-32509181D01*
X83254602Y-26132411D01*
X83241706Y-26116313D01*
X83190575Y-26068298D01*
X83187778Y-26065587D01*
X83171027Y-26048836D01*
X83168271Y-26046080D01*
X83165090Y-26043612D01*
X83156222Y-26036037D01*
X83124382Y-26006138D01*
X83106824Y-25996485D01*
X83090564Y-25985804D01*
X83074736Y-25973527D01*
X83034651Y-25956180D01*
X83024161Y-25951041D01*
X82985891Y-25930002D01*
X82966491Y-25925021D01*
X82948084Y-25918719D01*
X82929697Y-25910762D01*
X82886558Y-25903929D01*
X82875124Y-25901561D01*
X82832819Y-25890700D01*
X82812784Y-25890700D01*
X82793386Y-25889173D01*
X82785962Y-25887997D01*
X82773605Y-25886040D01*
X82773604Y-25886040D01*
X82747686Y-25888490D01*
X82730125Y-25890150D01*
X82718456Y-25890700D01*
X75368052Y-25890700D01*
X75301013Y-25871015D01*
X75280371Y-25854381D01*
X72328519Y-22902528D01*
X72295034Y-22841205D01*
X72292200Y-22814847D01*
X72292200Y-22141243D01*
X72294464Y-22120739D01*
X72292261Y-22050612D01*
X72292200Y-22046718D01*
X72292200Y-22023041D01*
X72292200Y-22019150D01*
X72291698Y-22015183D01*
X72290781Y-22003527D01*
X72289410Y-21959873D01*
X72283818Y-21940626D01*
X72279874Y-21921585D01*
X72277364Y-21901708D01*
X72261279Y-21861083D01*
X72257508Y-21850068D01*
X72245318Y-21808110D01*
X72235114Y-21790855D01*
X72226561Y-21773395D01*
X72219186Y-21754769D01*
X72219186Y-21754768D01*
X72193508Y-21719425D01*
X72187101Y-21709671D01*
X72164869Y-21672079D01*
X72150706Y-21657916D01*
X72138067Y-21643117D01*
X72126295Y-21626913D01*
X72092641Y-21599073D01*
X72083999Y-21591209D01*
X71698837Y-21206047D01*
X71665352Y-21144724D01*
X71666743Y-21086272D01*
X71693663Y-20985808D01*
X71714259Y-20750400D01*
X71693663Y-20514992D01*
X71632503Y-20286737D01*
X71532635Y-20072571D01*
X71397095Y-19878999D01*
X71275169Y-19757073D01*
X71241684Y-19695750D01*
X71246668Y-19626058D01*
X71288540Y-19570125D01*
X71319515Y-19553210D01*
X71450931Y-19504196D01*
X71566146Y-19417946D01*
X71652396Y-19302731D01*
X71702691Y-19167883D01*
X71709100Y-19108273D01*
X71709099Y-17312528D01*
X71702691Y-17252917D01*
X71652396Y-17118069D01*
X71566146Y-17002854D01*
X71450931Y-16916604D01*
X71316083Y-16866309D01*
X71256473Y-16859900D01*
X71253150Y-16859900D01*
X69464039Y-16859900D01*
X69464020Y-16859900D01*
X69460728Y-16859901D01*
X69457448Y-16860253D01*
X69457440Y-16860254D01*
X69401115Y-16866309D01*
X69266269Y-16916604D01*
X69151054Y-17002854D01*
X69064804Y-17118068D01*
X69014510Y-17252915D01*
X69014509Y-17252917D01*
X69008100Y-17312527D01*
X69008100Y-17315848D01*
X69008100Y-17315849D01*
X69008100Y-19104960D01*
X69008100Y-19104978D01*
X69008101Y-19108272D01*
X69008453Y-19111552D01*
X69008454Y-19111559D01*
X69014509Y-19167884D01*
X69022418Y-19189088D01*
X69064804Y-19302731D01*
X69151054Y-19417946D01*
X69266269Y-19504196D01*
X69378507Y-19546058D01*
X69397682Y-19553210D01*
X69453616Y-19595081D01*
X69478033Y-19660546D01*
X69463181Y-19728819D01*
X69442031Y-19757073D01*
X69320103Y-19879001D01*
X69184565Y-20072570D01*
X69084697Y-20286736D01*
X69023536Y-20514992D01*
X69002940Y-20750399D01*
X69023536Y-20985807D01*
X69050456Y-21086272D01*
X69084697Y-21214063D01*
X69184565Y-21428230D01*
X69320105Y-21621801D01*
X69487199Y-21788895D01*
X69672760Y-21918826D01*
X69716383Y-21973402D01*
X69723576Y-22042901D01*
X69692054Y-22105255D01*
X69672759Y-22121975D01*
X69487195Y-22251908D01*
X69320105Y-22418998D01*
X69184565Y-22612570D01*
X69084697Y-22826736D01*
X69023536Y-23054992D01*
X69002940Y-23290399D01*
X69022949Y-23519092D01*
X69009182Y-23587592D01*
X68960567Y-23637776D01*
X68899421Y-23653900D01*
X68669340Y-23653900D01*
X68648836Y-23651636D01*
X68578744Y-23653839D01*
X68574850Y-23653900D01*
X68547250Y-23653900D01*
X68543399Y-23654386D01*
X68543368Y-23654388D01*
X68543240Y-23654405D01*
X68531628Y-23655318D01*
X68487972Y-23656690D01*
X68468735Y-23662279D01*
X68449694Y-23666222D01*
X68429808Y-23668735D01*
X68389182Y-23684819D01*
X68378137Y-23688600D01*
X68336213Y-23700781D01*
X68318965Y-23710981D01*
X68301503Y-23719535D01*
X68289515Y-23724281D01*
X68282865Y-23726915D01*
X68247526Y-23752589D01*
X68237768Y-23758999D01*
X68200179Y-23781229D01*
X68186010Y-23795398D01*
X68171222Y-23808028D01*
X68155013Y-23819805D01*
X68127172Y-23853458D01*
X68119311Y-23862096D01*
X66852808Y-25128599D01*
X66836710Y-25141496D01*
X66788696Y-25192625D01*
X66785992Y-25195416D01*
X66769228Y-25212180D01*
X66769221Y-25212187D01*
X66766480Y-25214929D01*
X66764099Y-25217997D01*
X66764090Y-25218008D01*
X66764011Y-25218111D01*
X66756442Y-25226972D01*
X66726535Y-25258820D01*
X66716885Y-25276374D01*
X66706209Y-25292628D01*
X66693926Y-25308463D01*
X66676575Y-25348558D01*
X66671438Y-25359044D01*
X66650402Y-25397307D01*
X66645421Y-25416709D01*
X66639120Y-25435111D01*
X66631161Y-25453502D01*
X66624328Y-25496642D01*
X66621960Y-25508074D01*
X66611100Y-25550377D01*
X66611100Y-25570416D01*
X66609573Y-25589814D01*
X66606440Y-25609594D01*
X66610550Y-25653073D01*
X66611100Y-25664743D01*
X66611099Y-26128604D01*
X66591414Y-26195644D01*
X66538610Y-26241398D01*
X66469452Y-26251342D01*
X66405896Y-26222317D01*
X66385526Y-26199729D01*
X66317095Y-26101999D01*
X66150001Y-25934905D01*
X65964439Y-25804973D01*
X65920816Y-25750398D01*
X65913622Y-25680900D01*
X65945145Y-25618545D01*
X65964437Y-25601828D01*
X66150001Y-25471895D01*
X66317095Y-25304801D01*
X66452635Y-25111230D01*
X66552503Y-24897063D01*
X66613663Y-24668808D01*
X66634259Y-24433400D01*
X66613663Y-24197992D01*
X66552503Y-23969737D01*
X66452635Y-23755571D01*
X66317095Y-23561999D01*
X66150001Y-23394905D01*
X65956430Y-23259365D01*
X65742263Y-23159497D01*
X65681102Y-23143109D01*
X65514007Y-23098336D01*
X65278599Y-23077740D01*
X65043192Y-23098336D01*
X64814936Y-23159497D01*
X64600770Y-23259365D01*
X64407198Y-23394905D01*
X64240105Y-23561998D01*
X64104565Y-23755570D01*
X64004697Y-23969736D01*
X63943536Y-24197992D01*
X63922940Y-24433400D01*
X63943536Y-24668807D01*
X63978636Y-24799800D01*
X64004697Y-24897063D01*
X64104565Y-25111230D01*
X64240105Y-25304801D01*
X64407199Y-25471895D01*
X64592760Y-25601826D01*
X64636383Y-25656402D01*
X64643576Y-25725901D01*
X64612054Y-25788255D01*
X64592758Y-25804975D01*
X64414202Y-25930002D01*
X64407195Y-25934908D01*
X64240105Y-26101998D01*
X64104565Y-26295570D01*
X64004697Y-26509736D01*
X63943536Y-26737992D01*
X63922940Y-26973399D01*
X63943536Y-27208807D01*
X63960978Y-27273900D01*
X64004697Y-27437063D01*
X64104565Y-27651230D01*
X64240105Y-27844801D01*
X64407199Y-28011895D01*
X64592760Y-28141826D01*
X64636383Y-28196402D01*
X64643576Y-28265901D01*
X64612054Y-28328255D01*
X64592759Y-28344975D01*
X64407195Y-28474908D01*
X64240105Y-28641998D01*
X64104565Y-28835570D01*
X64004697Y-29049736D01*
X63943536Y-29277992D01*
X63922940Y-29513400D01*
X63943536Y-29748807D01*
X63965813Y-29831945D01*
X64004697Y-29977063D01*
X64104565Y-30191230D01*
X64240105Y-30384801D01*
X64407199Y-30551895D01*
X64600770Y-30687435D01*
X64814937Y-30787303D01*
X65043191Y-30848463D01*
X65043192Y-30848463D01*
X65278599Y-30869059D01*
X65278599Y-30869058D01*
X65278600Y-30869059D01*
X65514008Y-30848463D01*
X65742263Y-30787303D01*
X65956430Y-30687435D01*
X66150001Y-30551895D01*
X66317095Y-30384801D01*
X66385526Y-30287070D01*
X66440102Y-30243447D01*
X66509600Y-30236253D01*
X66571955Y-30267776D01*
X66607369Y-30328006D01*
X66611100Y-30358195D01*
X66611100Y-34763346D01*
X66591415Y-34830385D01*
X66574781Y-34851027D01*
X63632843Y-37792964D01*
X63571520Y-37826449D01*
X63513069Y-37825058D01*
X63467191Y-37812765D01*
X63467190Y-37812764D01*
X63467187Y-37812764D01*
X63246599Y-37793465D01*
X63026011Y-37812764D01*
X62812116Y-37870078D01*
X62611437Y-37963655D01*
X62430041Y-38090671D01*
X62273471Y-38247241D01*
X62146455Y-38428637D01*
X62088982Y-38551891D01*
X62042810Y-38604331D01*
X61975617Y-38623483D01*
X61908735Y-38603267D01*
X61864218Y-38551891D01*
X61806744Y-38428637D01*
X61806743Y-38428636D01*
X61806742Y-38428633D01*
X61679732Y-38247245D01*
X61523155Y-38090668D01*
X61341767Y-37963658D01*
X61341764Y-37963657D01*
X61341762Y-37963655D01*
X61141083Y-37870078D01*
X61141080Y-37870077D01*
X60973069Y-37825058D01*
X60927188Y-37812764D01*
X60706599Y-37793465D01*
X60486011Y-37812764D01*
X60272116Y-37870078D01*
X60071437Y-37963655D01*
X59890041Y-38090671D01*
X59733471Y-38247241D01*
X59606455Y-38428637D01*
X59548982Y-38551891D01*
X59502810Y-38604331D01*
X59435617Y-38623483D01*
X59368735Y-38603267D01*
X59324218Y-38551891D01*
X59266744Y-38428637D01*
X59266743Y-38428636D01*
X59266742Y-38428633D01*
X59139732Y-38247245D01*
X58983155Y-38090668D01*
X58801767Y-37963658D01*
X58801764Y-37963657D01*
X58801762Y-37963655D01*
X58601083Y-37870078D01*
X58601080Y-37870077D01*
X58433069Y-37825058D01*
X58387188Y-37812764D01*
X58166599Y-37793465D01*
X57946011Y-37812764D01*
X57732116Y-37870078D01*
X57531437Y-37963655D01*
X57350041Y-38090671D01*
X57193471Y-38247241D01*
X57066455Y-38428637D01*
X57008982Y-38551891D01*
X56962810Y-38604331D01*
X56895617Y-38623483D01*
X56828735Y-38603267D01*
X56784218Y-38551891D01*
X56726744Y-38428637D01*
X56726743Y-38428636D01*
X56726742Y-38428633D01*
X56599732Y-38247245D01*
X56443155Y-38090668D01*
X56261767Y-37963658D01*
X56261764Y-37963657D01*
X56261762Y-37963655D01*
X56061083Y-37870078D01*
X56061080Y-37870077D01*
X55893069Y-37825058D01*
X55847188Y-37812764D01*
X55626600Y-37793465D01*
X55406011Y-37812764D01*
X55192116Y-37870078D01*
X54991437Y-37963655D01*
X54810041Y-38090671D01*
X54653471Y-38247241D01*
X54526455Y-38428637D01*
X54468982Y-38551891D01*
X54422810Y-38604331D01*
X54355617Y-38623483D01*
X54288735Y-38603267D01*
X54244218Y-38551891D01*
X54186744Y-38428637D01*
X54186743Y-38428636D01*
X54186742Y-38428633D01*
X54059732Y-38247245D01*
X53903155Y-38090668D01*
X53721767Y-37963658D01*
X53721764Y-37963657D01*
X53721762Y-37963655D01*
X53521083Y-37870078D01*
X53521080Y-37870077D01*
X53353069Y-37825058D01*
X53307188Y-37812764D01*
X53086599Y-37793465D01*
X52866011Y-37812764D01*
X52652116Y-37870078D01*
X52451437Y-37963655D01*
X52270041Y-38090671D01*
X52113471Y-38247241D01*
X51986455Y-38428637D01*
X51928982Y-38551891D01*
X51882810Y-38604331D01*
X51815617Y-38623483D01*
X51748735Y-38603267D01*
X51704218Y-38551891D01*
X51646744Y-38428637D01*
X51646743Y-38428636D01*
X51646742Y-38428633D01*
X51519732Y-38247245D01*
X51363155Y-38090668D01*
X51181767Y-37963658D01*
X51181764Y-37963657D01*
X51181762Y-37963655D01*
X50981083Y-37870078D01*
X50981080Y-37870077D01*
X50813069Y-37825058D01*
X50767188Y-37812764D01*
X50546599Y-37793465D01*
X50326011Y-37812764D01*
X50112116Y-37870078D01*
X49911437Y-37963655D01*
X49730041Y-38090671D01*
X49573471Y-38247241D01*
X49446455Y-38428637D01*
X49388982Y-38551891D01*
X49342810Y-38604331D01*
X49275617Y-38623483D01*
X49208735Y-38603267D01*
X49164218Y-38551891D01*
X49106744Y-38428637D01*
X49106743Y-38428636D01*
X49106742Y-38428633D01*
X48979732Y-38247245D01*
X48823155Y-38090668D01*
X48641767Y-37963658D01*
X48641764Y-37963657D01*
X48641762Y-37963655D01*
X48441083Y-37870078D01*
X48441080Y-37870077D01*
X48273069Y-37825058D01*
X48227188Y-37812764D01*
X48006599Y-37793465D01*
X47786011Y-37812764D01*
X47572116Y-37870078D01*
X47371437Y-37963655D01*
X47190041Y-38090671D01*
X47033471Y-38247241D01*
X46906455Y-38428637D01*
X46848982Y-38551891D01*
X46802810Y-38604331D01*
X46735617Y-38623483D01*
X46668735Y-38603267D01*
X46624218Y-38551891D01*
X46566744Y-38428637D01*
X46566743Y-38428636D01*
X46566742Y-38428633D01*
X46439732Y-38247245D01*
X46283155Y-38090668D01*
X46101767Y-37963658D01*
X46101764Y-37963657D01*
X46101762Y-37963655D01*
X45901083Y-37870078D01*
X45901080Y-37870077D01*
X45733069Y-37825058D01*
X45687188Y-37812764D01*
X45466600Y-37793465D01*
X45246011Y-37812764D01*
X45032116Y-37870078D01*
X44831437Y-37963655D01*
X44650041Y-38090671D01*
X44493471Y-38247241D01*
X44366455Y-38428637D01*
X44308982Y-38551891D01*
X44262810Y-38604331D01*
X44195617Y-38623483D01*
X44128735Y-38603267D01*
X44084218Y-38551891D01*
X44026744Y-38428637D01*
X44026743Y-38428636D01*
X44026742Y-38428633D01*
X43899732Y-38247245D01*
X43743155Y-38090668D01*
X43561767Y-37963658D01*
X43561764Y-37963657D01*
X43561762Y-37963655D01*
X43361083Y-37870078D01*
X43361080Y-37870077D01*
X43193069Y-37825058D01*
X43147188Y-37812764D01*
X42926599Y-37793465D01*
X42706011Y-37812764D01*
X42492116Y-37870078D01*
X42291437Y-37963655D01*
X42110041Y-38090671D01*
X41953471Y-38247241D01*
X41826455Y-38428637D01*
X41768982Y-38551891D01*
X41722810Y-38604331D01*
X41655617Y-38623483D01*
X41588735Y-38603267D01*
X41544218Y-38551891D01*
X41486744Y-38428637D01*
X41486743Y-38428636D01*
X41486742Y-38428633D01*
X41359732Y-38247245D01*
X41203155Y-38090668D01*
X41021767Y-37963658D01*
X41021764Y-37963657D01*
X41021762Y-37963655D01*
X40821083Y-37870078D01*
X40821080Y-37870077D01*
X40653069Y-37825058D01*
X40607188Y-37812764D01*
X40386599Y-37793465D01*
X40166011Y-37812764D01*
X39952116Y-37870078D01*
X39751437Y-37963655D01*
X39570041Y-38090671D01*
X39413471Y-38247241D01*
X39286455Y-38428637D01*
X39192878Y-38629316D01*
X39135564Y-38843211D01*
X39116265Y-39063800D01*
X39135564Y-39284388D01*
X39192878Y-39498283D01*
X39286455Y-39698962D01*
X39286456Y-39698963D01*
X39286458Y-39698967D01*
X39413468Y-39880355D01*
X39570045Y-40036932D01*
X39751433Y-40163942D01*
X39751436Y-40163943D01*
X39751437Y-40163944D01*
X39782130Y-40178256D01*
X39952120Y-40257523D01*
X40166009Y-40314835D01*
X40386600Y-40334134D01*
X40607191Y-40314835D01*
X40821080Y-40257523D01*
X41021767Y-40163942D01*
X41203155Y-40036932D01*
X41359732Y-39880355D01*
X41486742Y-39698967D01*
X41544218Y-39575707D01*
X41590390Y-39523268D01*
X41657583Y-39504116D01*
X41724464Y-39524331D01*
X41768981Y-39575707D01*
X41826458Y-39698967D01*
X41953468Y-39880355D01*
X42110045Y-40036932D01*
X42291433Y-40163942D01*
X42291436Y-40163943D01*
X42291437Y-40163944D01*
X42322130Y-40178256D01*
X42492120Y-40257523D01*
X42706009Y-40314835D01*
X42926600Y-40334134D01*
X43147191Y-40314835D01*
X43361080Y-40257523D01*
X43561767Y-40163942D01*
X43743155Y-40036932D01*
X43899732Y-39880355D01*
X44026742Y-39698967D01*
X44084218Y-39575707D01*
X44130390Y-39523268D01*
X44197583Y-39504116D01*
X44264464Y-39524331D01*
X44308981Y-39575707D01*
X44366458Y-39698967D01*
X44493468Y-39880355D01*
X44650045Y-40036932D01*
X44831433Y-40163942D01*
X44831436Y-40163943D01*
X44831437Y-40163944D01*
X44862130Y-40178256D01*
X45032120Y-40257523D01*
X45246009Y-40314835D01*
X45383994Y-40326907D01*
X45466599Y-40334134D01*
X45466599Y-40334133D01*
X45466600Y-40334134D01*
X45687191Y-40314835D01*
X45901080Y-40257523D01*
X46101767Y-40163942D01*
X46283155Y-40036932D01*
X46439732Y-39880355D01*
X46566742Y-39698967D01*
X46624218Y-39575707D01*
X46670390Y-39523268D01*
X46737583Y-39504116D01*
X46804464Y-39524331D01*
X46848981Y-39575707D01*
X46906458Y-39698967D01*
X47033468Y-39880355D01*
X47190045Y-40036932D01*
X47371433Y-40163942D01*
X47371436Y-40163943D01*
X47371437Y-40163944D01*
X47402130Y-40178256D01*
X47572120Y-40257523D01*
X47786009Y-40314835D01*
X47923994Y-40326907D01*
X48006599Y-40334134D01*
X48006599Y-40334133D01*
X48006600Y-40334134D01*
X48227191Y-40314835D01*
X48441080Y-40257523D01*
X48641767Y-40163942D01*
X48823155Y-40036932D01*
X48979732Y-39880355D01*
X49106742Y-39698967D01*
X49164218Y-39575707D01*
X49210390Y-39523268D01*
X49277583Y-39504116D01*
X49344464Y-39524331D01*
X49388981Y-39575707D01*
X49446458Y-39698967D01*
X49573468Y-39880355D01*
X49730045Y-40036932D01*
X49911433Y-40163942D01*
X49911436Y-40163943D01*
X49911437Y-40163944D01*
X49942130Y-40178256D01*
X50112120Y-40257523D01*
X50326009Y-40314835D01*
X50546600Y-40334134D01*
X50767191Y-40314835D01*
X50981080Y-40257523D01*
X51181767Y-40163942D01*
X51363155Y-40036932D01*
X51519732Y-39880355D01*
X51646742Y-39698967D01*
X51704218Y-39575707D01*
X51750390Y-39523268D01*
X51817583Y-39504116D01*
X51884464Y-39524331D01*
X51928981Y-39575707D01*
X51986458Y-39698967D01*
X52113468Y-39880355D01*
X52270045Y-40036932D01*
X52451433Y-40163942D01*
X52451436Y-40163943D01*
X52451437Y-40163944D01*
X52482130Y-40178256D01*
X52652120Y-40257523D01*
X52866009Y-40314835D01*
X53003994Y-40326907D01*
X53086599Y-40334134D01*
X53086599Y-40334133D01*
X53086600Y-40334134D01*
X53169203Y-40326907D01*
X53237703Y-40340673D01*
X53287886Y-40389288D01*
X53303820Y-40457317D01*
X53280445Y-40523160D01*
X53267692Y-40538116D01*
X52508228Y-41297581D01*
X52446905Y-41331066D01*
X52420547Y-41333900D01*
X50629340Y-41333900D01*
X50608836Y-41331636D01*
X50538744Y-41333839D01*
X50534850Y-41333900D01*
X50507250Y-41333900D01*
X50503399Y-41334386D01*
X50503368Y-41334388D01*
X50503240Y-41334405D01*
X50491628Y-41335318D01*
X50447968Y-41336690D01*
X50428728Y-41342280D01*
X50409681Y-41346225D01*
X50389809Y-41348735D01*
X50349199Y-41364813D01*
X50338154Y-41368594D01*
X50296211Y-41380780D01*
X50278969Y-41390978D01*
X50261497Y-41399538D01*
X50242866Y-41406914D01*
X50207538Y-41432581D01*
X50197780Y-41438991D01*
X50160179Y-41461229D01*
X50146010Y-41475398D01*
X50131222Y-41488028D01*
X50115013Y-41499805D01*
X50087172Y-41533458D01*
X50079311Y-41542096D01*
X47681008Y-43940399D01*
X47664910Y-43953296D01*
X47616896Y-44004425D01*
X47614192Y-44007216D01*
X47597428Y-44023980D01*
X47597421Y-44023987D01*
X47594680Y-44026729D01*
X47592299Y-44029797D01*
X47592290Y-44029808D01*
X47592211Y-44029911D01*
X47584642Y-44038772D01*
X47554735Y-44070620D01*
X47545085Y-44088174D01*
X47534409Y-44104428D01*
X47522126Y-44120263D01*
X47504775Y-44160358D01*
X47499638Y-44170844D01*
X47478602Y-44209107D01*
X47473621Y-44228509D01*
X47467320Y-44246911D01*
X47459361Y-44265302D01*
X47452528Y-44308442D01*
X47450160Y-44319874D01*
X47439300Y-44362177D01*
X47439300Y-44382216D01*
X47437773Y-44401614D01*
X47434640Y-44421394D01*
X47438750Y-44464873D01*
X47439300Y-44476543D01*
X47439300Y-48321199D01*
X47419615Y-48388238D01*
X47407450Y-48404171D01*
X47314066Y-48507883D01*
X47219420Y-48671815D01*
X47160926Y-48851842D01*
X47141140Y-49040099D01*
X47160926Y-49228357D01*
X47219420Y-49408384D01*
X47314066Y-49572316D01*
X47440729Y-49712989D01*
X47593869Y-49824251D01*
X47766797Y-49901244D01*
X47951952Y-49940600D01*
X47951954Y-49940600D01*
X48141248Y-49940600D01*
X48321319Y-49902325D01*
X48390986Y-49907641D01*
X48446720Y-49949778D01*
X48470825Y-50015358D01*
X48471100Y-50023615D01*
X48471100Y-52170712D01*
X48451415Y-52237751D01*
X48439250Y-52253684D01*
X48364066Y-52337183D01*
X48269420Y-52501115D01*
X48210926Y-52681142D01*
X48191140Y-52869400D01*
X48194533Y-52901683D01*
X48181963Y-52970413D01*
X48134231Y-53021437D01*
X48066490Y-53038554D01*
X48060406Y-53038172D01*
X48006601Y-53033465D01*
X47786011Y-53052764D01*
X47572116Y-53110078D01*
X47371437Y-53203655D01*
X47190041Y-53330671D01*
X47033471Y-53487241D01*
X46906455Y-53668637D01*
X46848982Y-53791891D01*
X46802810Y-53844331D01*
X46735617Y-53863483D01*
X46668735Y-53843267D01*
X46624218Y-53791891D01*
X46566744Y-53668637D01*
X46566743Y-53668636D01*
X46566742Y-53668633D01*
X46439732Y-53487245D01*
X46283155Y-53330668D01*
X46101767Y-53203658D01*
X46101764Y-53203657D01*
X46101762Y-53203655D01*
X45901083Y-53110078D01*
X45901080Y-53110077D01*
X45713726Y-53059875D01*
X45687188Y-53052764D01*
X45466599Y-53033465D01*
X45246011Y-53052764D01*
X45032116Y-53110078D01*
X44831437Y-53203655D01*
X44650041Y-53330671D01*
X44493471Y-53487241D01*
X44366455Y-53668637D01*
X44308982Y-53791891D01*
X44262810Y-53844331D01*
X44195617Y-53863483D01*
X44128735Y-53843267D01*
X44084218Y-53791891D01*
X44026744Y-53668637D01*
X44026743Y-53668636D01*
X44026742Y-53668633D01*
X43899732Y-53487245D01*
X43743155Y-53330668D01*
X43561767Y-53203658D01*
X43561764Y-53203657D01*
X43561762Y-53203655D01*
X43361083Y-53110078D01*
X43361080Y-53110077D01*
X43173726Y-53059875D01*
X43147188Y-53052764D01*
X42926599Y-53033465D01*
X42706011Y-53052764D01*
X42492116Y-53110078D01*
X42291437Y-53203655D01*
X42110041Y-53330671D01*
X41953471Y-53487241D01*
X41826455Y-53668637D01*
X41768982Y-53791891D01*
X41722810Y-53844331D01*
X41655617Y-53863483D01*
X41588735Y-53843267D01*
X41544218Y-53791891D01*
X41486744Y-53668637D01*
X41486743Y-53668636D01*
X41486742Y-53668633D01*
X41359732Y-53487245D01*
X41203155Y-53330668D01*
X41021767Y-53203658D01*
X41021764Y-53203657D01*
X41021762Y-53203655D01*
X40821083Y-53110078D01*
X40821080Y-53110077D01*
X40633726Y-53059875D01*
X40607188Y-53052764D01*
X40386599Y-53033465D01*
X40166011Y-53052764D01*
X39952116Y-53110078D01*
X39751437Y-53203655D01*
X39570041Y-53330671D01*
X39413471Y-53487241D01*
X39286455Y-53668637D01*
X39228982Y-53791891D01*
X39182810Y-53844331D01*
X39115617Y-53863483D01*
X39048735Y-53843267D01*
X39004218Y-53791891D01*
X38946744Y-53668637D01*
X38946743Y-53668636D01*
X38946742Y-53668633D01*
X38819732Y-53487245D01*
X38663155Y-53330668D01*
X38481767Y-53203658D01*
X38481764Y-53203657D01*
X38481762Y-53203655D01*
X38281083Y-53110078D01*
X38281080Y-53110077D01*
X38093726Y-53059875D01*
X38067188Y-53052764D01*
X37846600Y-53033465D01*
X37626011Y-53052764D01*
X37412116Y-53110078D01*
X37211437Y-53203655D01*
X37030041Y-53330671D01*
X36873471Y-53487241D01*
X36746455Y-53668637D01*
X36652878Y-53869316D01*
X36595564Y-54083211D01*
X36576265Y-54303799D01*
X16943995Y-54303799D01*
X16943995Y-41959400D01*
X32801140Y-41959400D01*
X32820926Y-42147657D01*
X32850631Y-42239077D01*
X32856700Y-42277394D01*
X32856700Y-52585992D01*
X32871526Y-52727056D01*
X32871527Y-52727059D01*
X32886005Y-52771620D01*
X32891395Y-52796975D01*
X32900926Y-52887657D01*
X32959420Y-53067684D01*
X33054066Y-53231616D01*
X33180729Y-53372289D01*
X33333869Y-53483551D01*
X33506797Y-53560544D01*
X33691952Y-53599900D01*
X33691954Y-53599900D01*
X33881248Y-53599900D01*
X34004684Y-53573662D01*
X34066403Y-53560544D01*
X34239330Y-53483551D01*
X34392471Y-53372288D01*
X34519133Y-53231616D01*
X34613779Y-53067684D01*
X34672274Y-52887656D01*
X34692060Y-52699400D01*
X34672274Y-52511144D01*
X34663769Y-52484967D01*
X34657700Y-52446650D01*
X34657700Y-41966049D01*
X34657700Y-41966048D01*
X34657700Y-41962808D01*
X34642874Y-41821744D01*
X34584379Y-41641716D01*
X34584379Y-41641715D01*
X34489735Y-41477786D01*
X34472891Y-41459079D01*
X34363071Y-41337112D01*
X34359037Y-41334181D01*
X34339777Y-41316838D01*
X34312470Y-41286510D01*
X34159330Y-41175248D01*
X33986402Y-41098255D01*
X33801248Y-41058900D01*
X33801246Y-41058900D01*
X33611954Y-41058900D01*
X33611952Y-41058900D01*
X33426797Y-41098255D01*
X33253869Y-41175248D01*
X33100729Y-41286510D01*
X32974066Y-41427183D01*
X32879420Y-41591115D01*
X32820926Y-41771142D01*
X32801140Y-41959400D01*
X16943995Y-41959400D01*
X16943995Y-39063799D01*
X34036265Y-39063799D01*
X34055564Y-39284388D01*
X34112878Y-39498283D01*
X34206455Y-39698962D01*
X34206456Y-39698963D01*
X34206458Y-39698967D01*
X34333468Y-39880355D01*
X34490045Y-40036932D01*
X34671433Y-40163942D01*
X34671436Y-40163943D01*
X34671437Y-40163944D01*
X34702130Y-40178256D01*
X34872120Y-40257523D01*
X35086009Y-40314835D01*
X35223994Y-40326907D01*
X35306599Y-40334134D01*
X35306599Y-40334133D01*
X35306600Y-40334134D01*
X35527191Y-40314835D01*
X35741080Y-40257523D01*
X35941767Y-40163942D01*
X36123155Y-40036932D01*
X36279732Y-39880355D01*
X36406742Y-39698967D01*
X36500323Y-39498280D01*
X36557635Y-39284391D01*
X36576934Y-39063800D01*
X36557635Y-38843209D01*
X36500323Y-38629320D01*
X36427254Y-38472621D01*
X36406744Y-38428637D01*
X36406743Y-38428636D01*
X36406742Y-38428633D01*
X36279732Y-38247245D01*
X36123155Y-38090668D01*
X35941767Y-37963658D01*
X35941764Y-37963657D01*
X35941762Y-37963655D01*
X35741083Y-37870078D01*
X35741080Y-37870077D01*
X35573069Y-37825058D01*
X35527188Y-37812764D01*
X35306600Y-37793465D01*
X35086011Y-37812764D01*
X34872116Y-37870078D01*
X34671437Y-37963655D01*
X34490041Y-38090671D01*
X34333471Y-38247241D01*
X34206455Y-38428637D01*
X34112878Y-38629316D01*
X34055564Y-38843211D01*
X34036265Y-39063799D01*
X16943995Y-39063799D01*
X16943995Y-37815899D01*
X16963680Y-37748860D01*
X17016484Y-37703105D01*
X17067995Y-37691899D01*
X23970784Y-37691899D01*
X23991701Y-37696060D01*
X24005496Y-37696060D01*
X24044146Y-37680050D01*
X24055995Y-37651445D01*
X24060156Y-37641400D01*
X24060156Y-37627610D01*
X24055995Y-37606690D01*
X24055995Y-31977200D01*
X34020140Y-31977200D01*
X34039926Y-32165457D01*
X34098420Y-32345484D01*
X34193064Y-32509413D01*
X34229907Y-32550331D01*
X34260946Y-32584803D01*
X34268250Y-32592914D01*
X34298480Y-32655906D01*
X34300100Y-32675887D01*
X34300100Y-35472321D01*
X34280415Y-35539360D01*
X34268250Y-35555293D01*
X34218466Y-35610583D01*
X34123820Y-35774515D01*
X34065326Y-35954542D01*
X34045540Y-36142800D01*
X34065326Y-36331057D01*
X34123820Y-36511084D01*
X34218466Y-36675016D01*
X34345129Y-36815689D01*
X34498269Y-36926951D01*
X34671197Y-37003944D01*
X34856352Y-37043300D01*
X34856354Y-37043300D01*
X35045648Y-37043300D01*
X35169084Y-37017062D01*
X35230803Y-37003944D01*
X35403730Y-36926951D01*
X35556871Y-36815688D01*
X35683533Y-36675016D01*
X35778179Y-36511084D01*
X35836674Y-36331056D01*
X35856460Y-36142800D01*
X35836674Y-35954544D01*
X35778179Y-35774516D01*
X35778179Y-35774515D01*
X35683533Y-35610583D01*
X35582950Y-35498875D01*
X35552720Y-35435884D01*
X35551100Y-35415903D01*
X35551100Y-32675887D01*
X35570785Y-32608848D01*
X35582950Y-32592914D01*
X35658133Y-32509416D01*
X35688453Y-32456901D01*
X35752779Y-32345484D01*
X35799109Y-32202895D01*
X35811274Y-32165456D01*
X35831060Y-31977200D01*
X35811274Y-31788944D01*
X35780932Y-31695563D01*
X35752779Y-31608915D01*
X35658133Y-31444983D01*
X35531470Y-31304310D01*
X35378330Y-31193048D01*
X35205402Y-31116055D01*
X35020248Y-31076700D01*
X35020246Y-31076700D01*
X34830954Y-31076700D01*
X34830952Y-31076700D01*
X34645797Y-31116055D01*
X34472869Y-31193048D01*
X34319729Y-31304310D01*
X34193066Y-31444983D01*
X34098420Y-31608915D01*
X34039926Y-31788942D01*
X34020140Y-31977200D01*
X24055995Y-31977200D01*
X24055995Y-31072111D01*
X24060156Y-31051196D01*
X24060156Y-31037400D01*
X24056000Y-31027367D01*
X24044146Y-30998750D01*
X24044145Y-30998749D01*
X24015543Y-30986902D01*
X24015541Y-30986901D01*
X24005496Y-30982740D01*
X24005495Y-30982740D01*
X23991702Y-30982740D01*
X23970785Y-30986901D01*
X17067899Y-30986901D01*
X17000860Y-30967216D01*
X16955105Y-30914412D01*
X16943899Y-30862970D01*
X16943857Y-30787303D01*
X16942118Y-27643874D01*
X16942158Y-27643678D01*
X16942098Y-27607804D01*
X16942080Y-27573456D01*
X16942039Y-27573262D01*
X16927040Y-18657764D01*
X19145787Y-18657764D01*
X19175413Y-18927016D01*
X19243928Y-19189087D01*
X19349871Y-19438392D01*
X19490982Y-19669611D01*
X19580253Y-19776881D01*
X19664255Y-19877820D01*
X19865998Y-20058582D01*
X20091910Y-20208044D01*
X20198211Y-20257876D01*
X20337177Y-20323021D01*
X20596562Y-20401058D01*
X20596569Y-20401060D01*
X20864561Y-20440500D01*
X20864564Y-20440500D01*
X21065369Y-20440500D01*
X21067631Y-20440500D01*
X21270156Y-20425677D01*
X21534553Y-20366780D01*
X21787558Y-20270014D01*
X22023777Y-20137441D01*
X22238177Y-19971888D01*
X22426186Y-19776881D01*
X22583799Y-19556579D01*
X22707656Y-19315675D01*
X22795118Y-19059305D01*
X22844319Y-18792933D01*
X22854212Y-18522235D01*
X22824586Y-18252982D01*
X22756072Y-17990912D01*
X22650130Y-17741610D01*
X22509018Y-17510390D01*
X22509017Y-17510388D01*
X22335746Y-17302181D01*
X22230759Y-17208112D01*
X22134002Y-17121418D01*
X21908090Y-16971956D01*
X21908086Y-16971954D01*
X21662822Y-16856978D01*
X21403437Y-16778941D01*
X21403431Y-16778940D01*
X21135439Y-16739500D01*
X20932369Y-16739500D01*
X20930120Y-16739664D01*
X20930109Y-16739665D01*
X20729843Y-16754322D01*
X20465449Y-16813219D01*
X20212441Y-16909986D01*
X19976223Y-17042559D01*
X19761825Y-17208109D01*
X19573813Y-17403120D01*
X19416201Y-17623420D01*
X19292342Y-17864329D01*
X19204881Y-18120695D01*
X19155680Y-18387066D01*
X19145787Y-18657764D01*
X16927040Y-18657764D01*
X16920793Y-14944731D01*
X16940365Y-14877659D01*
X16993092Y-14831815D01*
X17044807Y-14820523D01*
X97442619Y-14831813D01*
G37*
%TD.AperFunction*%
%TD*%
M02*
