%TF.GenerationSoftware,KiCad,Pcbnew,7.0.1-0*%
%TF.CreationDate,2023-07-25T08:38:12-04:00*%
%TF.ProjectId,data_logger,64617461-5f6c-46f6-9767-65722e6b6963,rev?*%
%TF.SameCoordinates,Original*%
%TF.FileFunction,Soldermask,Top*%
%TF.FilePolarity,Negative*%
%FSLAX46Y46*%
G04 Gerber Fmt 4.6, Leading zero omitted, Abs format (unit mm)*
G04 Created by KiCad (PCBNEW 7.0.1-0) date 2023-07-25 08:38:12*
%MOMM*%
%LPD*%
G01*
G04 APERTURE LIST*
G04 Aperture macros list*
%AMRoundRect*
0 Rectangle with rounded corners*
0 $1 Rounding radius*
0 $2 $3 $4 $5 $6 $7 $8 $9 X,Y pos of 4 corners*
0 Add a 4 corners polygon primitive as box body*
4,1,4,$2,$3,$4,$5,$6,$7,$8,$9,$2,$3,0*
0 Add four circle primitives for the rounded corners*
1,1,$1+$1,$2,$3*
1,1,$1+$1,$4,$5*
1,1,$1+$1,$6,$7*
1,1,$1+$1,$8,$9*
0 Add four rect primitives between the rounded corners*
20,1,$1+$1,$2,$3,$4,$5,0*
20,1,$1+$1,$4,$5,$6,$7,0*
20,1,$1+$1,$6,$7,$8,$9,0*
20,1,$1+$1,$8,$9,$2,$3,0*%
%AMFreePoly0*
4,1,13,0.917062,4.017062,0.932000,3.981000,0.932000,-3.981000,0.917062,-4.017062,0.881000,-4.032000,-0.881000,-4.032000,-0.917062,-4.017062,-0.932000,-3.981000,-0.932000,3.981000,-0.917062,4.017062,-0.881000,4.032000,0.881000,4.032000,0.917062,4.017062,0.917062,4.017062,$1*%
G04 Aperture macros list end*
%ADD10RoundRect,0.051000X-0.850000X-0.850000X0.850000X-0.850000X0.850000X0.850000X-0.850000X0.850000X0*%
%ADD11O,1.802000X1.802000*%
%ADD12RoundRect,0.251000X0.275000X-0.200000X0.275000X0.200000X-0.275000X0.200000X-0.275000X-0.200000X0*%
%ADD13RoundRect,0.051000X0.500000X-1.375000X0.500000X1.375000X-0.500000X1.375000X-0.500000X-1.375000X0*%
%ADD14RoundRect,0.269750X-0.381250X0.218750X-0.381250X-0.218750X0.381250X-0.218750X0.381250X0.218750X0*%
%ADD15FreePoly0,270.000000*%
%ADD16RoundRect,0.051000X-1.240500X0.731000X-1.240500X-0.731000X1.240500X-0.731000X1.240500X0.731000X0*%
%ADD17C,3.302000*%
%ADD18RoundRect,0.301000X-0.475000X0.250000X-0.475000X-0.250000X0.475000X-0.250000X0.475000X0.250000X0*%
%ADD19RoundRect,0.251000X-0.275000X0.200000X-0.275000X-0.200000X0.275000X-0.200000X0.275000X0.200000X0*%
%ADD20RoundRect,0.051000X0.600000X-0.400000X0.600000X0.400000X-0.600000X0.400000X-0.600000X-0.400000X0*%
%ADD21RoundRect,0.051000X-0.600000X0.400000X-0.600000X-0.400000X0.600000X-0.400000X0.600000X0.400000X0*%
%ADD22RoundRect,0.051000X-0.600000X0.350000X-0.600000X-0.350000X0.600000X-0.350000X0.600000X0.350000X0*%
%ADD23RoundRect,0.051000X0.600000X-0.350000X0.600000X0.350000X-0.600000X0.350000X-0.600000X-0.350000X0*%
%ADD24RoundRect,0.051000X0.600000X-0.500000X0.600000X0.500000X-0.600000X0.500000X-0.600000X-0.500000X0*%
%ADD25RoundRect,0.051000X0.400000X-0.500000X0.400000X0.500000X-0.400000X0.500000X-0.400000X-0.500000X0*%
%ADD26RoundRect,0.051000X1.400000X-0.500000X1.400000X0.500000X-1.400000X0.500000X-1.400000X-0.500000X0*%
%ADD27RoundRect,0.051000X0.950000X-0.500000X0.950000X0.500000X-0.950000X0.500000X-0.950000X-0.500000X0*%
%ADD28RoundRect,0.269750X-0.256250X0.218750X-0.256250X-0.218750X0.256250X-0.218750X0.256250X0.218750X0*%
%ADD29RoundRect,0.276000X-0.225000X-0.250000X0.225000X-0.250000X0.225000X0.250000X-0.225000X0.250000X0*%
%ADD30O,0.382000X0.902000*%
%ADD31O,0.902000X0.382000*%
%ADD32RoundRect,0.276000X-0.250000X0.225000X-0.250000X-0.225000X0.250000X-0.225000X0.250000X0.225000X0*%
%ADD33RoundRect,0.201000X-0.150000X0.825000X-0.150000X-0.825000X0.150000X-0.825000X0.150000X0.825000X0*%
%ADD34RoundRect,0.051000X0.900000X1.750000X-0.900000X1.750000X-0.900000X-1.750000X0.900000X-1.750000X0*%
%ADD35RoundRect,0.051000X-0.450000X0.750000X-0.450000X-0.750000X0.450000X-0.750000X0.450000X0.750000X0*%
%ADD36RoundRect,0.051000X-0.750000X-0.450000X0.750000X-0.450000X0.750000X0.450000X-0.750000X0.450000X0*%
%ADD37C,0.702000*%
%ADD38RoundRect,0.051000X-1.900000X1.900000X-1.900000X-1.900000X1.900000X-1.900000X1.900000X1.900000X0*%
%ADD39RoundRect,0.051000X0.400000X-1.000000X0.400000X1.000000X-0.400000X1.000000X-0.400000X-1.000000X0*%
%ADD40RoundRect,0.301000X0.425000X-0.450000X0.425000X0.450000X-0.425000X0.450000X-0.425000X-0.450000X0*%
%ADD41RoundRect,0.276000X-0.375000X0.225000X-0.375000X-0.225000X0.375000X-0.225000X0.375000X0.225000X0*%
%ADD42RoundRect,0.051000X-1.000000X-0.750000X1.000000X-0.750000X1.000000X0.750000X-1.000000X0.750000X0*%
%ADD43RoundRect,0.051000X-1.000000X-1.900000X1.000000X-1.900000X1.000000X1.900000X-1.000000X1.900000X0*%
%ADD44RoundRect,0.051000X-0.750000X0.500000X-0.750000X-0.500000X0.750000X-0.500000X0.750000X0.500000X0*%
%ADD45RoundRect,0.251000X-0.200000X-0.275000X0.200000X-0.275000X0.200000X0.275000X-0.200000X0.275000X0*%
%ADD46RoundRect,0.051000X-0.850000X0.850000X-0.850000X-0.850000X0.850000X-0.850000X0.850000X0.850000X0*%
%ADD47C,1.632000*%
%ADD48RoundRect,0.276000X0.250000X-0.225000X0.250000X0.225000X-0.250000X0.225000X-0.250000X-0.225000X0*%
%ADD49RoundRect,0.251000X0.200000X0.275000X-0.200000X0.275000X-0.200000X-0.275000X0.200000X-0.275000X0*%
%ADD50RoundRect,0.301000X-0.250000X-0.475000X0.250000X-0.475000X0.250000X0.475000X-0.250000X0.475000X0*%
%ADD51RoundRect,0.051000X0.850000X-0.850000X0.850000X0.850000X-0.850000X0.850000X-0.850000X-0.850000X0*%
%ADD52RoundRect,0.101600X0.900000X0.400000X-0.900000X0.400000X-0.900000X-0.400000X0.900000X-0.400000X0*%
%ADD53RoundRect,0.101600X-0.900000X-0.400000X0.900000X-0.400000X0.900000X0.400000X-0.900000X0.400000X0*%
%ADD54RoundRect,0.269750X-0.218750X-0.256250X0.218750X-0.256250X0.218750X0.256250X-0.218750X0.256250X0*%
G04 APERTURE END LIST*
D10*
%TO.C,J3*%
X70358600Y-28624400D03*
D11*
X70358600Y-31164400D03*
X70358600Y-33704400D03*
%TD*%
D12*
%TO.C,R3*%
X52781800Y-25563200D03*
X52781800Y-23913200D03*
%TD*%
D13*
%TO.C,S2*%
X76398200Y-65202200D03*
X76398200Y-59442200D03*
X80398200Y-65202200D03*
X80398200Y-59442200D03*
%TD*%
D14*
%TO.C,L1*%
X36081200Y-34281400D03*
X36081200Y-36406400D03*
%TD*%
D15*
%TO.C,ANT1*%
X21082600Y-38657400D03*
X21082600Y-29957400D03*
D16*
X25542100Y-34357400D03*
%TD*%
D17*
%TO.C,REF\u002A\u002A*%
X94276600Y-68899400D03*
%TD*%
D12*
%TO.C,R10*%
X86792400Y-69582400D03*
X86792400Y-67932400D03*
%TD*%
D18*
%TO.C,C4*%
X26670600Y-68441400D03*
X26670600Y-70341400D03*
%TD*%
D19*
%TO.C,R7*%
X35967000Y-22541600D03*
X35967000Y-24191600D03*
%TD*%
D20*
%TO.C,J6*%
X80430000Y-44460000D03*
X80430000Y-45560000D03*
X80430000Y-46660000D03*
X80430000Y-47760000D03*
X80430000Y-48860000D03*
X80430000Y-49960000D03*
D21*
X80430000Y-51070000D03*
D22*
X80430000Y-52160000D03*
D23*
X80430000Y-53110000D03*
D24*
X84730000Y-54110000D03*
D25*
X90930000Y-54110000D03*
D26*
X95080000Y-54110000D03*
D27*
X95530000Y-40410000D03*
D24*
X80430000Y-42910000D03*
%TD*%
D28*
%TO.C,D3*%
X61671800Y-33932800D03*
X61671800Y-35507800D03*
%TD*%
D12*
%TO.C,R11*%
X77953200Y-69570200D03*
X77953200Y-67920200D03*
%TD*%
D29*
%TO.C,C7*%
X94907400Y-16711800D03*
X96457400Y-16711800D03*
%TD*%
D30*
%TO.C,U5*%
X47695800Y-59579800D03*
X47195800Y-59579800D03*
X46695800Y-59579800D03*
X46195800Y-59579800D03*
X45695800Y-59579800D03*
D31*
X45295800Y-60479800D03*
X45295800Y-60979800D03*
X45295800Y-61479800D03*
D30*
X45695800Y-62379800D03*
X46195800Y-62379800D03*
X46695800Y-62379800D03*
X47195800Y-62379800D03*
X47695800Y-62379800D03*
D31*
X48095800Y-61479800D03*
X48095800Y-60979800D03*
X48095800Y-60479800D03*
%TD*%
D32*
%TO.C,C9*%
X49512200Y-61652600D03*
X49512200Y-63202600D03*
%TD*%
D17*
%TO.C,REF\u002A\u002A*%
X21000000Y-18590000D03*
%TD*%
D33*
%TO.C,U1*%
X40038600Y-58725400D03*
X38768600Y-58725400D03*
X37498600Y-58725400D03*
X36228600Y-58725400D03*
X36228600Y-63675400D03*
X37498600Y-63675400D03*
X38768600Y-63675400D03*
X40038600Y-63675400D03*
%TD*%
D32*
%TO.C,C13*%
X80239200Y-67983200D03*
X80239200Y-69533200D03*
%TD*%
D34*
%TO.C,LS1*%
X71620600Y-59819400D03*
X57920600Y-59819400D03*
X57920600Y-69819400D03*
X71620600Y-69819400D03*
%TD*%
D35*
%TO.C,U7*%
X96266600Y-18616800D03*
X94996600Y-18616800D03*
X93726600Y-18616800D03*
X92456600Y-18616800D03*
X91186600Y-18616800D03*
X89916600Y-18616800D03*
X88646600Y-18616800D03*
X87376600Y-18616800D03*
X86106600Y-18616800D03*
X84836600Y-18616800D03*
X83566600Y-18616800D03*
X82296600Y-18616800D03*
X81026600Y-18616800D03*
X79756600Y-18616800D03*
D36*
X78506600Y-21656800D03*
X78506600Y-22926800D03*
X78506600Y-24196800D03*
X78506600Y-25466800D03*
X78506600Y-26736800D03*
X78506600Y-28006800D03*
X78506600Y-29276800D03*
X78506600Y-30546800D03*
X78506600Y-31816800D03*
X78506600Y-33086800D03*
D35*
X79756600Y-36116800D03*
X81026600Y-36116800D03*
X82296600Y-36116800D03*
X83566600Y-36116800D03*
X84836600Y-36116800D03*
X86106600Y-36116800D03*
X87376600Y-36116800D03*
X88646600Y-36116800D03*
X89916600Y-36116800D03*
X91186600Y-36116800D03*
X92456600Y-36116800D03*
X93726600Y-36116800D03*
X94996600Y-36116800D03*
X96266600Y-36116800D03*
D37*
X89246600Y-24466800D03*
X87846600Y-24466800D03*
X89946600Y-25166800D03*
X88546600Y-25166800D03*
X87146600Y-25166800D03*
X89246600Y-25841800D03*
X87846600Y-25841800D03*
D38*
X88546600Y-25866800D03*
D37*
X89946600Y-26566800D03*
X88546600Y-26566800D03*
X87146600Y-26566800D03*
X89246600Y-27266800D03*
X87846600Y-27266800D03*
%TD*%
D39*
%TO.C,BT1*%
X58698600Y-22909400D03*
X60198600Y-22909400D03*
%TD*%
D40*
%TO.C,C10*%
X23876600Y-63375400D03*
X23876600Y-60675400D03*
%TD*%
D28*
%TO.C,D1*%
X59436600Y-33882000D03*
X59436600Y-35457000D03*
%TD*%
D41*
%TO.C,D2*%
X55118600Y-18339400D03*
X55118600Y-21639400D03*
%TD*%
D13*
%TO.C,S1*%
X84380400Y-65278400D03*
X84380400Y-59518400D03*
X88380400Y-65278400D03*
X88380400Y-59518400D03*
%TD*%
D19*
%TO.C,R13*%
X72593800Y-52779800D03*
X72593800Y-54429800D03*
%TD*%
D29*
%TO.C,C6*%
X48775600Y-59556800D03*
X50325600Y-59556800D03*
%TD*%
D42*
%TO.C,U4*%
X26830600Y-61647400D03*
X26830600Y-63947400D03*
D43*
X33130600Y-63947400D03*
D42*
X26830600Y-66247400D03*
%TD*%
D44*
%TO.C,JP1*%
X49528300Y-65635800D03*
X49528300Y-66935800D03*
X49528300Y-68235800D03*
%TD*%
D45*
%TO.C,R2*%
X40470400Y-65869000D03*
X42120400Y-65869000D03*
%TD*%
D46*
%TO.C,J1*%
X52451600Y-71106400D03*
D11*
X49911600Y-71106400D03*
X47371600Y-71106400D03*
X44831600Y-71106400D03*
%TD*%
D10*
%TO.C,J5*%
X65278600Y-21893400D03*
D11*
X65278600Y-24433400D03*
X65278600Y-26973400D03*
X65278600Y-29513400D03*
%TD*%
D12*
%TO.C,R6*%
X36081200Y-32606400D03*
X36081200Y-30956400D03*
%TD*%
D32*
%TO.C,C12*%
X88570400Y-67982400D03*
X88570400Y-69532400D03*
%TD*%
D45*
%TO.C,R8*%
X43252200Y-57614000D03*
X44902200Y-57614000D03*
%TD*%
D47*
%TO.C,U6*%
X37846600Y-54303800D03*
X40386600Y-54303800D03*
X42926600Y-54303800D03*
X45466600Y-54303800D03*
X40386600Y-39063800D03*
X48006600Y-54303800D03*
X50546600Y-54303800D03*
X53086600Y-54303800D03*
X55626600Y-54303800D03*
X58166600Y-54303800D03*
X60706600Y-54303800D03*
X63246600Y-54303800D03*
X65786600Y-54303800D03*
X68326600Y-54303800D03*
X68326600Y-39063800D03*
X65786600Y-39063800D03*
X63246600Y-39063800D03*
X60706600Y-39063800D03*
X58166600Y-39063800D03*
X55626600Y-39063800D03*
X53086600Y-39063800D03*
X50546600Y-39063800D03*
X48006600Y-39063800D03*
X45466600Y-39063800D03*
X42926600Y-39063800D03*
X35306600Y-54303800D03*
X37846600Y-39063800D03*
X35306600Y-39063800D03*
%TD*%
D48*
%TO.C,C1*%
X54458200Y-28104000D03*
X54458200Y-26554000D03*
%TD*%
D17*
%TO.C,REF\u002A\u002A*%
X21000000Y-68883400D03*
%TD*%
D19*
%TO.C,R4*%
X63805400Y-33908600D03*
X63805400Y-35558600D03*
%TD*%
D32*
%TO.C,C2*%
X36081200Y-27754400D03*
X36081200Y-29304400D03*
%TD*%
D19*
%TO.C,R1*%
X57404600Y-33768400D03*
X57404600Y-35418400D03*
%TD*%
D49*
%TO.C,R9*%
X48902200Y-57207600D03*
X47252200Y-57207600D03*
%TD*%
%TO.C,R12*%
X74968200Y-34517200D03*
X73318200Y-34517200D03*
%TD*%
D32*
%TO.C,C3*%
X52578600Y-20597400D03*
X52578600Y-22147400D03*
%TD*%
D50*
%TO.C,C8*%
X91379600Y-16483200D03*
X93279600Y-16483200D03*
%TD*%
D45*
%TO.C,R5*%
X35149600Y-68312400D03*
X36799600Y-68312400D03*
%TD*%
D44*
%TO.C,JP2*%
X45525000Y-65564200D03*
X45525000Y-66864200D03*
X45525000Y-68164200D03*
%TD*%
D51*
%TO.C,J2*%
X32418600Y-70979400D03*
D11*
X34958600Y-70979400D03*
X37498600Y-70979400D03*
X40038600Y-70979400D03*
%TD*%
D52*
%TO.C,U3*%
X38456200Y-21439400D03*
X38456200Y-22539400D03*
X38456200Y-23639400D03*
X38456200Y-24739400D03*
X38456200Y-25839400D03*
X38456200Y-26939400D03*
X38456200Y-28039400D03*
X38456200Y-31039400D03*
X38456200Y-32139400D03*
X38456200Y-33239400D03*
X38456200Y-34339400D03*
X38456200Y-35439400D03*
D53*
X50456200Y-35439400D03*
X50456200Y-34339400D03*
X50456200Y-33239400D03*
X50456200Y-32139400D03*
X50456200Y-31039400D03*
X50456200Y-28039400D03*
X50456200Y-26939400D03*
X50456200Y-25839400D03*
X50456200Y-24739400D03*
X50456200Y-23639400D03*
X50456200Y-22539400D03*
X50456200Y-21439400D03*
%TD*%
D54*
%TO.C,D5*%
X73482700Y-36295200D03*
X75057700Y-36295200D03*
%TD*%
D10*
%TO.C,J4*%
X70358600Y-18210400D03*
D11*
X70358600Y-20750400D03*
X70358600Y-23290400D03*
%TD*%
G36*
X50292978Y-67482638D02*
G01*
X50293655Y-67484273D01*
X50292770Y-67485805D01*
X50241513Y-67520056D01*
X50241513Y-67651544D01*
X50292771Y-67685794D01*
X50293656Y-67687326D01*
X50292979Y-67688961D01*
X50291270Y-67689419D01*
X50278101Y-67686800D01*
X48778499Y-67686800D01*
X48765326Y-67689419D01*
X48763617Y-67688961D01*
X48762940Y-67687326D01*
X48763825Y-67685794D01*
X48815086Y-67651543D01*
X48815086Y-67520057D01*
X48763827Y-67485805D01*
X48762942Y-67484273D01*
X48763619Y-67482638D01*
X48765328Y-67482180D01*
X48778499Y-67484800D01*
X50278101Y-67484800D01*
X50291269Y-67482180D01*
X50292978Y-67482638D01*
G37*
G36*
X46289678Y-67411038D02*
G01*
X46290355Y-67412673D01*
X46289470Y-67414205D01*
X46238213Y-67448456D01*
X46238213Y-67579944D01*
X46289471Y-67614194D01*
X46290356Y-67615726D01*
X46289679Y-67617361D01*
X46287970Y-67617819D01*
X46274801Y-67615200D01*
X44775199Y-67615200D01*
X44762026Y-67617819D01*
X44760317Y-67617361D01*
X44759640Y-67615726D01*
X44760525Y-67614194D01*
X44811786Y-67579943D01*
X44811786Y-67448457D01*
X44760527Y-67414205D01*
X44759642Y-67412673D01*
X44760319Y-67411038D01*
X44762028Y-67410580D01*
X44775199Y-67413200D01*
X46274801Y-67413200D01*
X46287969Y-67410580D01*
X46289678Y-67411038D01*
G37*
G36*
X50292978Y-66182638D02*
G01*
X50293655Y-66184273D01*
X50292770Y-66185805D01*
X50241513Y-66220056D01*
X50241513Y-66351544D01*
X50292771Y-66385794D01*
X50293656Y-66387326D01*
X50292979Y-66388961D01*
X50291270Y-66389419D01*
X50278101Y-66386800D01*
X48778499Y-66386800D01*
X48765326Y-66389419D01*
X48763617Y-66388961D01*
X48762940Y-66387326D01*
X48763825Y-66385794D01*
X48815086Y-66351543D01*
X48815086Y-66220057D01*
X48763827Y-66185805D01*
X48762942Y-66184273D01*
X48763619Y-66182638D01*
X48765328Y-66182180D01*
X48778499Y-66184800D01*
X50278101Y-66184800D01*
X50291269Y-66182180D01*
X50292978Y-66182638D01*
G37*
G36*
X44775199Y-66113200D02*
G01*
X46274801Y-66113200D01*
X46287967Y-66110581D01*
X46289676Y-66111039D01*
X46290353Y-66112674D01*
X46289468Y-66114206D01*
X46238213Y-66148452D01*
X46238212Y-66279941D01*
X46289475Y-66314195D01*
X46290360Y-66315727D01*
X46289683Y-66317362D01*
X46287974Y-66317820D01*
X46274801Y-66315200D01*
X44775199Y-66315200D01*
X44762023Y-66317820D01*
X44760314Y-66317362D01*
X44759637Y-66315727D01*
X44760522Y-66314195D01*
X44811786Y-66279940D01*
X44811785Y-66148454D01*
X44760527Y-66114205D01*
X44759642Y-66112673D01*
X44760319Y-66111038D01*
X44762028Y-66110580D01*
X44775199Y-66113200D01*
G37*
G36*
X47517606Y-62053418D02*
G01*
X47519152Y-62054149D01*
X47519568Y-62055808D01*
X47506800Y-62119999D01*
X47506800Y-62639601D01*
X47519569Y-62703794D01*
X47519153Y-62705453D01*
X47517607Y-62706184D01*
X47373993Y-62706184D01*
X47372447Y-62705453D01*
X47372031Y-62703794D01*
X47384800Y-62639601D01*
X47384800Y-62119999D01*
X47372030Y-62055801D01*
X47372446Y-62054142D01*
X47373992Y-62053411D01*
X47517606Y-62053418D01*
G37*
G36*
X47017606Y-62053418D02*
G01*
X47019152Y-62054149D01*
X47019568Y-62055808D01*
X47006800Y-62119999D01*
X47006800Y-62639601D01*
X47019569Y-62703794D01*
X47019153Y-62705453D01*
X47017607Y-62706184D01*
X46873993Y-62706184D01*
X46872447Y-62705453D01*
X46872031Y-62703794D01*
X46884800Y-62639601D01*
X46884800Y-62119999D01*
X46872030Y-62055801D01*
X46872446Y-62054142D01*
X46873992Y-62053411D01*
X47017606Y-62053418D01*
G37*
G36*
X46517606Y-62053418D02*
G01*
X46519152Y-62054149D01*
X46519568Y-62055808D01*
X46506800Y-62119999D01*
X46506800Y-62639601D01*
X46519569Y-62703794D01*
X46519153Y-62705453D01*
X46517607Y-62706184D01*
X46373993Y-62706184D01*
X46372447Y-62705453D01*
X46372031Y-62703794D01*
X46384800Y-62639601D01*
X46384800Y-62119999D01*
X46372030Y-62055801D01*
X46372446Y-62054142D01*
X46373992Y-62053411D01*
X46517606Y-62053418D01*
G37*
G36*
X46017606Y-62053418D02*
G01*
X46019152Y-62054149D01*
X46019568Y-62055808D01*
X46006800Y-62119999D01*
X46006800Y-62639601D01*
X46019569Y-62703794D01*
X46019153Y-62705453D01*
X46017607Y-62706184D01*
X45873993Y-62706184D01*
X45872447Y-62705453D01*
X45872031Y-62703794D01*
X45884800Y-62639601D01*
X45884800Y-62119999D01*
X45872030Y-62055801D01*
X45872446Y-62054142D01*
X45873992Y-62053411D01*
X46017606Y-62053418D01*
G37*
G36*
X48421453Y-61156447D02*
G01*
X48422184Y-61157993D01*
X48422184Y-61301607D01*
X48421453Y-61303153D01*
X48419794Y-61303569D01*
X48355601Y-61290800D01*
X47835999Y-61290800D01*
X47771805Y-61303569D01*
X47770146Y-61303153D01*
X47769415Y-61301607D01*
X47769415Y-61157993D01*
X47770146Y-61156447D01*
X47771805Y-61156031D01*
X47835999Y-61168800D01*
X48355601Y-61168800D01*
X48419794Y-61156031D01*
X48421453Y-61156447D01*
G37*
G36*
X45621453Y-61156447D02*
G01*
X45622184Y-61157993D01*
X45622184Y-61301607D01*
X45621453Y-61303153D01*
X45619794Y-61303569D01*
X45555601Y-61290800D01*
X45035999Y-61290800D01*
X44971805Y-61303569D01*
X44970146Y-61303153D01*
X44969415Y-61301607D01*
X44969415Y-61157993D01*
X44970146Y-61156447D01*
X44971805Y-61156031D01*
X45035999Y-61168800D01*
X45555601Y-61168800D01*
X45619794Y-61156031D01*
X45621453Y-61156447D01*
G37*
G36*
X48421456Y-60656446D02*
G01*
X48422187Y-60657992D01*
X48422180Y-60801605D01*
X48421449Y-60803151D01*
X48419790Y-60803567D01*
X48355601Y-60790800D01*
X47835999Y-60790800D01*
X47771808Y-60803568D01*
X47770149Y-60803152D01*
X47769418Y-60801606D01*
X47769411Y-60657992D01*
X47770142Y-60656446D01*
X47771801Y-60656030D01*
X47835999Y-60668800D01*
X48355601Y-60668800D01*
X48419797Y-60656030D01*
X48421456Y-60656446D01*
G37*
G36*
X45621456Y-60656446D02*
G01*
X45622187Y-60657992D01*
X45622180Y-60801605D01*
X45621449Y-60803151D01*
X45619790Y-60803567D01*
X45555601Y-60790800D01*
X45035999Y-60790800D01*
X44971808Y-60803568D01*
X44970149Y-60803152D01*
X44969418Y-60801606D01*
X44969411Y-60657992D01*
X44970142Y-60656446D01*
X44971801Y-60656030D01*
X45035999Y-60668800D01*
X45555601Y-60668800D01*
X45619797Y-60656030D01*
X45621456Y-60656446D01*
G37*
G36*
X47519153Y-59254146D02*
G01*
X47519569Y-59255805D01*
X47506800Y-59319999D01*
X47506800Y-59839601D01*
X47519569Y-59903794D01*
X47519153Y-59905453D01*
X47517607Y-59906184D01*
X47373993Y-59906184D01*
X47372447Y-59905453D01*
X47372031Y-59903794D01*
X47384800Y-59839601D01*
X47384800Y-59319999D01*
X47372031Y-59255805D01*
X47372447Y-59254146D01*
X47373993Y-59253415D01*
X47517607Y-59253415D01*
X47519153Y-59254146D01*
G37*
G36*
X47019153Y-59254146D02*
G01*
X47019569Y-59255805D01*
X47006800Y-59319999D01*
X47006800Y-59839601D01*
X47019569Y-59903794D01*
X47019153Y-59905453D01*
X47017607Y-59906184D01*
X46873993Y-59906184D01*
X46872447Y-59905453D01*
X46872031Y-59903794D01*
X46884800Y-59839601D01*
X46884800Y-59319999D01*
X46872031Y-59255805D01*
X46872447Y-59254146D01*
X46873993Y-59253415D01*
X47017607Y-59253415D01*
X47019153Y-59254146D01*
G37*
G36*
X46519153Y-59254146D02*
G01*
X46519569Y-59255805D01*
X46506800Y-59319999D01*
X46506800Y-59839601D01*
X46519569Y-59903794D01*
X46519153Y-59905453D01*
X46517607Y-59906184D01*
X46373993Y-59906184D01*
X46372447Y-59905453D01*
X46372031Y-59903794D01*
X46384800Y-59839601D01*
X46384800Y-59319999D01*
X46372031Y-59255805D01*
X46372447Y-59254146D01*
X46373993Y-59253415D01*
X46517607Y-59253415D01*
X46519153Y-59254146D01*
G37*
G36*
X46019153Y-59254146D02*
G01*
X46019569Y-59255805D01*
X46006800Y-59319999D01*
X46006800Y-59839601D01*
X46019569Y-59903794D01*
X46019153Y-59905453D01*
X46017607Y-59906184D01*
X45873993Y-59906184D01*
X45872447Y-59905453D01*
X45872031Y-59903794D01*
X45884800Y-59839601D01*
X45884800Y-59319999D01*
X45872031Y-59255805D01*
X45872447Y-59254146D01*
X45873993Y-59253415D01*
X46017607Y-59253415D01*
X46019153Y-59254146D01*
G37*
G36*
X79830199Y-52559000D02*
G01*
X81029801Y-52559000D01*
X81042907Y-52556393D01*
X81044616Y-52556852D01*
X81045293Y-52558486D01*
X81044407Y-52560018D01*
X81030627Y-52569217D01*
X81030627Y-52700783D01*
X81044408Y-52709982D01*
X81045294Y-52711514D01*
X81044617Y-52713148D01*
X81042908Y-52713607D01*
X81029801Y-52711000D01*
X79830199Y-52711000D01*
X79817018Y-52713621D01*
X79815309Y-52713163D01*
X79814632Y-52711528D01*
X79815517Y-52709996D01*
X79829372Y-52700738D01*
X79829372Y-52569262D01*
X79815518Y-52560003D01*
X79814633Y-52558471D01*
X79815310Y-52556836D01*
X79817019Y-52556378D01*
X79830199Y-52559000D01*
G37*
G36*
X81019339Y-51519889D02*
G01*
X81019524Y-51521765D01*
X81018066Y-51522962D01*
X80937160Y-51539051D01*
X80937155Y-51740939D01*
X81018082Y-51757038D01*
X81019540Y-51758235D01*
X81019355Y-51760111D01*
X81017692Y-51761000D01*
X79842311Y-51761000D01*
X79840648Y-51760111D01*
X79840463Y-51758235D01*
X79841921Y-51757038D01*
X79922841Y-51740943D01*
X79922841Y-51539057D01*
X79841925Y-51522962D01*
X79840467Y-51521765D01*
X79840652Y-51519889D01*
X79842315Y-51519000D01*
X81017676Y-51519000D01*
X81019339Y-51519889D01*
G37*
G36*
X79830199Y-50409000D02*
G01*
X81029801Y-50409000D01*
X81042967Y-50406381D01*
X81044676Y-50406839D01*
X81045353Y-50408474D01*
X81044468Y-50410006D01*
X80985730Y-50449252D01*
X80985729Y-50580741D01*
X81044474Y-50619995D01*
X81045359Y-50621527D01*
X81044682Y-50623162D01*
X81042973Y-50623620D01*
X81029801Y-50621000D01*
X79830199Y-50621000D01*
X79817024Y-50623620D01*
X79815315Y-50623162D01*
X79814638Y-50621527D01*
X79815523Y-50619995D01*
X79874269Y-50580740D01*
X79874268Y-50449253D01*
X79815529Y-50410005D01*
X79814644Y-50408473D01*
X79815321Y-50406838D01*
X79817030Y-50406380D01*
X79830199Y-50409000D01*
G37*
G36*
X79830199Y-49309000D02*
G01*
X81029801Y-49309000D01*
X81042967Y-49306381D01*
X81044676Y-49306839D01*
X81045353Y-49308474D01*
X81044468Y-49310006D01*
X80993213Y-49344252D01*
X80993212Y-49475741D01*
X81044475Y-49509995D01*
X81045360Y-49511527D01*
X81044683Y-49513162D01*
X81042974Y-49513620D01*
X81029801Y-49511000D01*
X79830199Y-49511000D01*
X79817023Y-49513620D01*
X79815314Y-49513162D01*
X79814637Y-49511527D01*
X79815522Y-49509995D01*
X79866786Y-49475740D01*
X79866785Y-49344254D01*
X79815527Y-49310005D01*
X79814642Y-49308473D01*
X79815319Y-49306838D01*
X79817028Y-49306380D01*
X79830199Y-49309000D01*
G37*
G36*
X79830199Y-48209000D02*
G01*
X81029801Y-48209000D01*
X81042967Y-48206381D01*
X81044676Y-48206839D01*
X81045353Y-48208474D01*
X81044468Y-48210006D01*
X80993213Y-48244252D01*
X80993212Y-48375741D01*
X81044475Y-48409995D01*
X81045360Y-48411527D01*
X81044683Y-48413162D01*
X81042974Y-48413620D01*
X81029801Y-48411000D01*
X79830199Y-48411000D01*
X79817023Y-48413620D01*
X79815314Y-48413162D01*
X79814637Y-48411527D01*
X79815522Y-48409995D01*
X79866786Y-48375740D01*
X79866785Y-48244254D01*
X79815527Y-48210005D01*
X79814642Y-48208473D01*
X79815319Y-48206838D01*
X79817028Y-48206380D01*
X79830199Y-48209000D01*
G37*
G36*
X81044678Y-47106838D02*
G01*
X81045355Y-47108473D01*
X81044470Y-47110005D01*
X80993213Y-47144256D01*
X80993213Y-47275744D01*
X81044471Y-47309994D01*
X81045356Y-47311526D01*
X81044679Y-47313161D01*
X81042970Y-47313619D01*
X81029801Y-47311000D01*
X79830199Y-47311000D01*
X79817026Y-47313619D01*
X79815317Y-47313161D01*
X79814640Y-47311526D01*
X79815525Y-47309994D01*
X79866786Y-47275743D01*
X79866786Y-47144257D01*
X79815527Y-47110005D01*
X79814642Y-47108473D01*
X79815319Y-47106838D01*
X79817028Y-47106380D01*
X79830199Y-47109000D01*
X81029801Y-47109000D01*
X81042969Y-47106380D01*
X81044678Y-47106838D01*
G37*
G36*
X81044678Y-46006838D02*
G01*
X81045355Y-46008473D01*
X81044470Y-46010005D01*
X80993213Y-46044256D01*
X80993213Y-46175744D01*
X81044471Y-46209994D01*
X81045356Y-46211526D01*
X81044679Y-46213161D01*
X81042970Y-46213619D01*
X81029801Y-46211000D01*
X79830199Y-46211000D01*
X79817026Y-46213619D01*
X79815317Y-46213161D01*
X79814640Y-46211526D01*
X79815525Y-46209994D01*
X79866786Y-46175743D01*
X79866786Y-46044257D01*
X79815527Y-46010005D01*
X79814642Y-46008473D01*
X79815319Y-46006838D01*
X79817028Y-46006380D01*
X79830199Y-46009000D01*
X81029801Y-46009000D01*
X81042969Y-46006380D01*
X81044678Y-46006838D01*
G37*
G36*
X81044678Y-44906838D02*
G01*
X81045355Y-44908473D01*
X81044470Y-44910005D01*
X80993213Y-44944256D01*
X80993213Y-45075744D01*
X81044471Y-45109994D01*
X81045356Y-45111526D01*
X81044679Y-45113161D01*
X81042970Y-45113619D01*
X81029801Y-45111000D01*
X79830199Y-45111000D01*
X79817026Y-45113619D01*
X79815317Y-45113161D01*
X79814640Y-45111526D01*
X79815525Y-45109994D01*
X79866786Y-45075743D01*
X79866786Y-44944257D01*
X79815527Y-44910005D01*
X79814642Y-44908473D01*
X79815319Y-44906838D01*
X79817028Y-44906380D01*
X79830199Y-44909000D01*
X81029801Y-44909000D01*
X81042969Y-44906380D01*
X81044678Y-44906838D01*
G37*
G36*
X49490685Y-34813064D02*
G01*
X49518098Y-34831381D01*
X49556399Y-34839000D01*
X51356001Y-34839000D01*
X51394301Y-34831381D01*
X51421711Y-34813066D01*
X51423465Y-34812835D01*
X51424716Y-34814086D01*
X51424485Y-34815840D01*
X51400266Y-34852089D01*
X51400266Y-34926711D01*
X51424486Y-34962959D01*
X51424717Y-34964713D01*
X51423466Y-34965964D01*
X51421712Y-34965733D01*
X51394301Y-34947418D01*
X51356001Y-34939800D01*
X49556399Y-34939800D01*
X49518098Y-34947418D01*
X49490685Y-34965735D01*
X49488931Y-34965966D01*
X49487680Y-34964715D01*
X49487911Y-34962961D01*
X49512133Y-34926710D01*
X49512133Y-34852090D01*
X49487911Y-34815838D01*
X49487680Y-34814084D01*
X49488931Y-34812833D01*
X49490685Y-34813064D01*
G37*
G36*
X37490685Y-34813064D02*
G01*
X37518098Y-34831381D01*
X37556399Y-34839000D01*
X39356001Y-34839000D01*
X39394301Y-34831381D01*
X39421711Y-34813066D01*
X39423465Y-34812835D01*
X39424716Y-34814086D01*
X39424485Y-34815840D01*
X39400266Y-34852089D01*
X39400266Y-34926711D01*
X39424486Y-34962959D01*
X39424717Y-34964713D01*
X39423466Y-34965964D01*
X39421712Y-34965733D01*
X39394301Y-34947418D01*
X39356001Y-34939800D01*
X37556399Y-34939800D01*
X37518098Y-34947418D01*
X37490685Y-34965735D01*
X37488931Y-34965966D01*
X37487680Y-34964715D01*
X37487911Y-34962961D01*
X37512133Y-34926710D01*
X37512133Y-34852090D01*
X37487911Y-34815838D01*
X37487680Y-34814084D01*
X37488931Y-34812833D01*
X37490685Y-34813064D01*
G37*
G36*
X49490685Y-33713064D02*
G01*
X49518098Y-33731381D01*
X49556399Y-33739000D01*
X51356001Y-33739000D01*
X51394301Y-33731381D01*
X51421711Y-33713066D01*
X51423465Y-33712835D01*
X51424716Y-33714086D01*
X51424485Y-33715840D01*
X51400266Y-33752089D01*
X51400266Y-33826711D01*
X51424486Y-33862959D01*
X51424717Y-33864713D01*
X51423466Y-33865964D01*
X51421712Y-33865733D01*
X51394301Y-33847418D01*
X51356001Y-33839800D01*
X49556399Y-33839800D01*
X49518098Y-33847418D01*
X49490685Y-33865735D01*
X49488931Y-33865966D01*
X49487680Y-33864715D01*
X49487911Y-33862961D01*
X49512133Y-33826710D01*
X49512133Y-33752090D01*
X49487911Y-33715838D01*
X49487680Y-33714084D01*
X49488931Y-33712833D01*
X49490685Y-33713064D01*
G37*
G36*
X37490685Y-33713064D02*
G01*
X37518098Y-33731381D01*
X37556399Y-33739000D01*
X39356001Y-33739000D01*
X39394301Y-33731381D01*
X39421711Y-33713066D01*
X39423465Y-33712835D01*
X39424716Y-33714086D01*
X39424485Y-33715840D01*
X39400266Y-33752089D01*
X39400266Y-33826711D01*
X39424486Y-33862959D01*
X39424717Y-33864713D01*
X39423466Y-33865964D01*
X39421712Y-33865733D01*
X39394301Y-33847418D01*
X39356001Y-33839800D01*
X37556399Y-33839800D01*
X37518098Y-33847418D01*
X37490685Y-33865735D01*
X37488931Y-33865966D01*
X37487680Y-33864715D01*
X37487911Y-33862961D01*
X37512133Y-33826710D01*
X37512133Y-33752090D01*
X37487911Y-33715838D01*
X37487680Y-33714084D01*
X37488931Y-33712833D01*
X37490685Y-33713064D01*
G37*
G36*
X49490686Y-32613065D02*
G01*
X49518098Y-32631381D01*
X49556399Y-32639000D01*
X51356001Y-32639000D01*
X51394301Y-32631381D01*
X51421710Y-32613067D01*
X51423464Y-32612836D01*
X51424715Y-32614087D01*
X51424484Y-32615841D01*
X51400266Y-32652087D01*
X51400266Y-32726709D01*
X51424488Y-32762961D01*
X51424719Y-32764715D01*
X51423468Y-32765966D01*
X51421714Y-32765735D01*
X51394301Y-32747418D01*
X51356001Y-32739800D01*
X49556399Y-32739800D01*
X49518098Y-32747418D01*
X49490683Y-32765736D01*
X49488929Y-32765967D01*
X49487678Y-32764716D01*
X49487909Y-32762962D01*
X49512133Y-32726708D01*
X49512133Y-32652088D01*
X49487912Y-32615839D01*
X49487681Y-32614085D01*
X49488932Y-32612834D01*
X49490686Y-32613065D01*
G37*
G36*
X37490686Y-32613065D02*
G01*
X37518098Y-32631381D01*
X37556399Y-32639000D01*
X39356001Y-32639000D01*
X39394301Y-32631381D01*
X39421710Y-32613067D01*
X39423464Y-32612836D01*
X39424715Y-32614087D01*
X39424484Y-32615841D01*
X39400266Y-32652087D01*
X39400266Y-32726709D01*
X39424488Y-32762961D01*
X39424719Y-32764715D01*
X39423468Y-32765966D01*
X39421714Y-32765735D01*
X39394301Y-32747418D01*
X39356001Y-32739800D01*
X37556399Y-32739800D01*
X37518098Y-32747418D01*
X37490683Y-32765736D01*
X37488929Y-32765967D01*
X37487678Y-32764716D01*
X37487909Y-32762962D01*
X37512133Y-32726708D01*
X37512133Y-32652088D01*
X37487912Y-32615839D01*
X37487681Y-32614085D01*
X37488932Y-32612834D01*
X37490686Y-32613065D01*
G37*
G36*
X49490685Y-31513064D02*
G01*
X49518098Y-31531381D01*
X49556399Y-31539000D01*
X51356001Y-31539000D01*
X51394301Y-31531381D01*
X51421711Y-31513066D01*
X51423465Y-31512835D01*
X51424716Y-31514086D01*
X51424485Y-31515840D01*
X51400266Y-31552089D01*
X51400266Y-31626711D01*
X51424486Y-31662959D01*
X51424717Y-31664713D01*
X51423466Y-31665964D01*
X51421712Y-31665733D01*
X51394301Y-31647418D01*
X51356001Y-31639800D01*
X49556399Y-31639800D01*
X49518098Y-31647418D01*
X49490685Y-31665735D01*
X49488931Y-31665966D01*
X49487680Y-31664715D01*
X49487911Y-31662961D01*
X49512133Y-31626710D01*
X49512133Y-31552090D01*
X49487911Y-31515838D01*
X49487680Y-31514084D01*
X49488931Y-31512833D01*
X49490685Y-31513064D01*
G37*
G36*
X37490685Y-31513064D02*
G01*
X37518098Y-31531381D01*
X37556399Y-31539000D01*
X39356001Y-31539000D01*
X39394301Y-31531381D01*
X39421711Y-31513066D01*
X39423465Y-31512835D01*
X39424716Y-31514086D01*
X39424485Y-31515840D01*
X39400266Y-31552089D01*
X39400266Y-31626711D01*
X39424486Y-31662959D01*
X39424717Y-31664713D01*
X39423466Y-31665964D01*
X39421712Y-31665733D01*
X39394301Y-31647418D01*
X39356001Y-31639800D01*
X37556399Y-31639800D01*
X37518098Y-31647418D01*
X37490685Y-31665735D01*
X37488931Y-31665966D01*
X37487680Y-31664715D01*
X37487911Y-31662961D01*
X37512133Y-31626710D01*
X37512133Y-31552090D01*
X37487911Y-31515838D01*
X37487680Y-31514084D01*
X37488931Y-31512833D01*
X37490685Y-31513064D01*
G37*
G36*
X49490685Y-27413064D02*
G01*
X49518098Y-27431381D01*
X49556399Y-27439000D01*
X51356001Y-27439000D01*
X51394301Y-27431381D01*
X51421711Y-27413066D01*
X51423465Y-27412835D01*
X51424716Y-27414086D01*
X51424485Y-27415840D01*
X51400266Y-27452089D01*
X51400266Y-27526711D01*
X51424486Y-27562959D01*
X51424717Y-27564713D01*
X51423466Y-27565964D01*
X51421712Y-27565733D01*
X51394301Y-27547418D01*
X51356001Y-27539800D01*
X49556399Y-27539800D01*
X49518098Y-27547418D01*
X49490685Y-27565735D01*
X49488931Y-27565966D01*
X49487680Y-27564715D01*
X49487911Y-27562961D01*
X49512133Y-27526710D01*
X49512133Y-27452090D01*
X49487911Y-27415838D01*
X49487680Y-27414084D01*
X49488931Y-27412833D01*
X49490685Y-27413064D01*
G37*
G36*
X37490685Y-27413064D02*
G01*
X37518098Y-27431381D01*
X37556399Y-27439000D01*
X39356001Y-27439000D01*
X39394301Y-27431381D01*
X39421711Y-27413066D01*
X39423465Y-27412835D01*
X39424716Y-27414086D01*
X39424485Y-27415840D01*
X39400266Y-27452089D01*
X39400266Y-27526711D01*
X39424486Y-27562959D01*
X39424717Y-27564713D01*
X39423466Y-27565964D01*
X39421712Y-27565733D01*
X39394301Y-27547418D01*
X39356001Y-27539800D01*
X37556399Y-27539800D01*
X37518098Y-27547418D01*
X37490685Y-27565735D01*
X37488931Y-27565966D01*
X37487680Y-27564715D01*
X37487911Y-27562961D01*
X37512133Y-27526710D01*
X37512133Y-27452090D01*
X37487911Y-27415838D01*
X37487680Y-27414084D01*
X37488931Y-27412833D01*
X37490685Y-27413064D01*
G37*
G36*
X49490685Y-26313064D02*
G01*
X49518098Y-26331381D01*
X49556399Y-26339000D01*
X51356001Y-26339000D01*
X51394301Y-26331381D01*
X51421711Y-26313066D01*
X51423465Y-26312835D01*
X51424716Y-26314086D01*
X51424485Y-26315840D01*
X51400266Y-26352089D01*
X51400266Y-26426711D01*
X51424486Y-26462959D01*
X51424717Y-26464713D01*
X51423466Y-26465964D01*
X51421712Y-26465733D01*
X51394301Y-26447418D01*
X51356001Y-26439800D01*
X49556399Y-26439800D01*
X49518098Y-26447418D01*
X49490685Y-26465735D01*
X49488931Y-26465966D01*
X49487680Y-26464715D01*
X49487911Y-26462961D01*
X49512133Y-26426710D01*
X49512133Y-26352090D01*
X49487911Y-26315838D01*
X49487680Y-26314084D01*
X49488931Y-26312833D01*
X49490685Y-26313064D01*
G37*
G36*
X37490685Y-26313064D02*
G01*
X37518098Y-26331381D01*
X37556399Y-26339000D01*
X39356001Y-26339000D01*
X39394301Y-26331381D01*
X39421711Y-26313066D01*
X39423465Y-26312835D01*
X39424716Y-26314086D01*
X39424485Y-26315840D01*
X39400266Y-26352089D01*
X39400266Y-26426711D01*
X39424486Y-26462959D01*
X39424717Y-26464713D01*
X39423466Y-26465964D01*
X39421712Y-26465733D01*
X39394301Y-26447418D01*
X39356001Y-26439800D01*
X37556399Y-26439800D01*
X37518098Y-26447418D01*
X37490685Y-26465735D01*
X37488931Y-26465966D01*
X37487680Y-26464715D01*
X37487911Y-26462961D01*
X37512133Y-26426710D01*
X37512133Y-26352090D01*
X37487911Y-26315838D01*
X37487680Y-26314084D01*
X37488931Y-26312833D01*
X37490685Y-26313064D01*
G37*
G36*
X49490686Y-25213065D02*
G01*
X49518098Y-25231381D01*
X49556399Y-25239000D01*
X51356001Y-25239000D01*
X51394301Y-25231381D01*
X51421710Y-25213067D01*
X51423464Y-25212836D01*
X51424715Y-25214087D01*
X51424484Y-25215841D01*
X51400266Y-25252087D01*
X51400266Y-25326709D01*
X51424488Y-25362961D01*
X51424719Y-25364715D01*
X51423468Y-25365966D01*
X51421714Y-25365735D01*
X51394301Y-25347418D01*
X51356001Y-25339800D01*
X49556399Y-25339800D01*
X49518098Y-25347418D01*
X49490683Y-25365736D01*
X49488929Y-25365967D01*
X49487678Y-25364716D01*
X49487909Y-25362962D01*
X49512133Y-25326708D01*
X49512133Y-25252088D01*
X49487912Y-25215839D01*
X49487681Y-25214085D01*
X49488932Y-25212834D01*
X49490686Y-25213065D01*
G37*
G36*
X37490686Y-25213065D02*
G01*
X37518098Y-25231381D01*
X37556399Y-25239000D01*
X39356001Y-25239000D01*
X39394301Y-25231381D01*
X39421710Y-25213067D01*
X39423464Y-25212836D01*
X39424715Y-25214087D01*
X39424484Y-25215841D01*
X39400266Y-25252087D01*
X39400266Y-25326709D01*
X39424488Y-25362961D01*
X39424719Y-25364715D01*
X39423468Y-25365966D01*
X39421714Y-25365735D01*
X39394301Y-25347418D01*
X39356001Y-25339800D01*
X37556399Y-25339800D01*
X37518098Y-25347418D01*
X37490683Y-25365736D01*
X37488929Y-25365967D01*
X37487678Y-25364716D01*
X37487909Y-25362962D01*
X37512133Y-25326708D01*
X37512133Y-25252088D01*
X37487912Y-25215839D01*
X37487681Y-25214085D01*
X37488932Y-25212834D01*
X37490686Y-25213065D01*
G37*
G36*
X49490685Y-24113064D02*
G01*
X49518098Y-24131381D01*
X49556399Y-24139000D01*
X51356001Y-24139000D01*
X51394301Y-24131381D01*
X51421711Y-24113066D01*
X51423465Y-24112835D01*
X51424716Y-24114086D01*
X51424485Y-24115840D01*
X51400266Y-24152089D01*
X51400266Y-24226711D01*
X51424486Y-24262959D01*
X51424717Y-24264713D01*
X51423466Y-24265964D01*
X51421712Y-24265733D01*
X51394301Y-24247418D01*
X51356001Y-24239800D01*
X49556399Y-24239800D01*
X49518098Y-24247418D01*
X49490685Y-24265735D01*
X49488931Y-24265966D01*
X49487680Y-24264715D01*
X49487911Y-24262961D01*
X49512133Y-24226710D01*
X49512133Y-24152090D01*
X49487911Y-24115838D01*
X49487680Y-24114084D01*
X49488931Y-24112833D01*
X49490685Y-24113064D01*
G37*
G36*
X37490685Y-24113064D02*
G01*
X37518098Y-24131381D01*
X37556399Y-24139000D01*
X39356001Y-24139000D01*
X39394301Y-24131381D01*
X39421711Y-24113066D01*
X39423465Y-24112835D01*
X39424716Y-24114086D01*
X39424485Y-24115840D01*
X39400266Y-24152089D01*
X39400266Y-24226711D01*
X39424486Y-24262959D01*
X39424717Y-24264713D01*
X39423466Y-24265964D01*
X39421712Y-24265733D01*
X39394301Y-24247418D01*
X39356001Y-24239800D01*
X37556399Y-24239800D01*
X37518098Y-24247418D01*
X37490685Y-24265735D01*
X37488931Y-24265966D01*
X37487680Y-24264715D01*
X37487911Y-24262961D01*
X37512133Y-24226710D01*
X37512133Y-24152090D01*
X37487911Y-24115838D01*
X37487680Y-24114084D01*
X37488931Y-24112833D01*
X37490685Y-24113064D01*
G37*
G36*
X49490686Y-23013065D02*
G01*
X49518098Y-23031381D01*
X49556399Y-23039000D01*
X51356001Y-23039000D01*
X51394301Y-23031381D01*
X51421710Y-23013067D01*
X51423464Y-23012836D01*
X51424715Y-23014087D01*
X51424484Y-23015841D01*
X51400266Y-23052087D01*
X51400266Y-23126709D01*
X51424488Y-23162961D01*
X51424719Y-23164715D01*
X51423468Y-23165966D01*
X51421714Y-23165735D01*
X51394301Y-23147418D01*
X51356001Y-23139800D01*
X49556399Y-23139800D01*
X49518098Y-23147418D01*
X49490683Y-23165736D01*
X49488929Y-23165967D01*
X49487678Y-23164716D01*
X49487909Y-23162962D01*
X49512133Y-23126708D01*
X49512133Y-23052088D01*
X49487912Y-23015839D01*
X49487681Y-23014085D01*
X49488932Y-23012834D01*
X49490686Y-23013065D01*
G37*
G36*
X37490686Y-23013065D02*
G01*
X37518098Y-23031381D01*
X37556399Y-23039000D01*
X39356001Y-23039000D01*
X39394301Y-23031381D01*
X39421711Y-23013066D01*
X39423465Y-23012835D01*
X39424716Y-23014086D01*
X39424485Y-23015840D01*
X39400266Y-23052089D01*
X39400266Y-23126711D01*
X39424486Y-23162959D01*
X39424717Y-23164713D01*
X39423466Y-23165964D01*
X39421712Y-23165733D01*
X39394301Y-23147418D01*
X39356001Y-23139800D01*
X37556399Y-23139800D01*
X37518098Y-23147418D01*
X37490683Y-23165736D01*
X37488929Y-23165967D01*
X37487678Y-23164716D01*
X37487909Y-23162962D01*
X37512133Y-23126708D01*
X37512133Y-23052088D01*
X37487912Y-23015839D01*
X37487681Y-23014085D01*
X37488932Y-23012834D01*
X37490686Y-23013065D01*
G37*
G36*
X49490685Y-21913064D02*
G01*
X49518098Y-21931381D01*
X49556399Y-21939000D01*
X51356001Y-21939000D01*
X51394301Y-21931381D01*
X51421711Y-21913066D01*
X51423465Y-21912835D01*
X51424716Y-21914086D01*
X51424485Y-21915840D01*
X51400266Y-21952089D01*
X51400266Y-22026711D01*
X51424486Y-22062959D01*
X51424717Y-22064713D01*
X51423466Y-22065964D01*
X51421712Y-22065733D01*
X51394301Y-22047418D01*
X51356001Y-22039800D01*
X49556399Y-22039800D01*
X49518098Y-22047418D01*
X49490685Y-22065735D01*
X49488931Y-22065966D01*
X49487680Y-22064715D01*
X49487911Y-22062961D01*
X49512133Y-22026710D01*
X49512133Y-21952090D01*
X49487911Y-21915838D01*
X49487680Y-21914084D01*
X49488931Y-21912833D01*
X49490685Y-21913064D01*
G37*
G36*
X37490685Y-21913064D02*
G01*
X37518098Y-21931381D01*
X37556399Y-21939000D01*
X39356001Y-21939000D01*
X39394301Y-21931381D01*
X39421711Y-21913066D01*
X39423465Y-21912835D01*
X39424716Y-21914086D01*
X39424485Y-21915840D01*
X39400266Y-21952089D01*
X39400266Y-22026711D01*
X39424486Y-22062959D01*
X39424717Y-22064713D01*
X39423466Y-22065964D01*
X39421712Y-22065733D01*
X39394301Y-22047418D01*
X39356001Y-22039800D01*
X37556399Y-22039800D01*
X37518098Y-22047418D01*
X37490685Y-22065735D01*
X37488931Y-22065966D01*
X37487680Y-22064715D01*
X37487911Y-22062961D01*
X37512133Y-22026710D01*
X37512133Y-21952090D01*
X37487911Y-21915838D01*
X37487680Y-21914084D01*
X37488931Y-21912833D01*
X37490685Y-21913064D01*
G37*
M02*
